G04 #@! TF.GenerationSoftware,KiCad,Pcbnew,(5.1.9-0-10_14)*
G04 #@! TF.CreationDate,2021-07-02T21:32:49-05:00*
G04 #@! TF.ProjectId,bath_clamp_v1,62617468-5f63-46c6-916d-705f76312e6b,rev?*
G04 #@! TF.SameCoordinates,Original*
G04 #@! TF.FileFunction,Copper,L6,Bot*
G04 #@! TF.FilePolarity,Positive*
%FSLAX46Y46*%
G04 Gerber Fmt 4.6, Leading zero omitted, Abs format (unit mm)*
G04 Created by KiCad (PCBNEW (5.1.9-0-10_14)) date 2021-07-02 21:32:49*
%MOMM*%
%LPD*%
G01*
G04 APERTURE LIST*
G04 #@! TA.AperFunction,ComponentPad*
%ADD10C,1.950000*%
G04 #@! TD*
G04 #@! TA.AperFunction,ComponentPad*
%ADD11C,2.082800*%
G04 #@! TD*
G04 #@! TA.AperFunction,SMDPad,CuDef*
%ADD12R,1.100000X1.100000*%
G04 #@! TD*
G04 #@! TA.AperFunction,ComponentPad*
%ADD13C,5.600000*%
G04 #@! TD*
G04 #@! TA.AperFunction,ComponentPad*
%ADD14C,5.599999*%
G04 #@! TD*
G04 #@! TA.AperFunction,SMDPad,CuDef*
%ADD15R,0.400000X0.650000*%
G04 #@! TD*
G04 #@! TA.AperFunction,SMDPad,CuDef*
%ADD16R,1.750000X0.450000*%
G04 #@! TD*
G04 #@! TA.AperFunction,ViaPad*
%ADD17C,0.600000*%
G04 #@! TD*
G04 #@! TA.AperFunction,ViaPad*
%ADD18C,0.700000*%
G04 #@! TD*
G04 #@! TA.AperFunction,ViaPad*
%ADD19C,0.889000*%
G04 #@! TD*
G04 #@! TA.AperFunction,Conductor*
%ADD20C,0.127000*%
G04 #@! TD*
G04 #@! TA.AperFunction,Conductor*
%ADD21C,0.250000*%
G04 #@! TD*
G04 #@! TA.AperFunction,Conductor*
%ADD22C,0.600000*%
G04 #@! TD*
G04 #@! TA.AperFunction,Conductor*
%ADD23C,0.400000*%
G04 #@! TD*
G04 #@! TA.AperFunction,Conductor*
%ADD24C,0.200000*%
G04 #@! TD*
G04 APERTURE END LIST*
G04 #@! TA.AperFunction,SMDPad,CuDef*
G36*
G01*
X64151700Y42778800D02*
X64651700Y42778800D01*
G75*
G02*
X64876700Y42553800I0J-225000D01*
G01*
X64876700Y42103800D01*
G75*
G02*
X64651700Y41878800I-225000J0D01*
G01*
X64151700Y41878800D01*
G75*
G02*
X63926700Y42103800I0J225000D01*
G01*
X63926700Y42553800D01*
G75*
G02*
X64151700Y42778800I225000J0D01*
G01*
G37*
G04 #@! TD.AperFunction*
G04 #@! TA.AperFunction,SMDPad,CuDef*
G36*
G01*
X64151700Y44328800D02*
X64651700Y44328800D01*
G75*
G02*
X64876700Y44103800I0J-225000D01*
G01*
X64876700Y43653800D01*
G75*
G02*
X64651700Y43428800I-225000J0D01*
G01*
X64151700Y43428800D01*
G75*
G02*
X63926700Y43653800I0J225000D01*
G01*
X63926700Y44103800D01*
G75*
G02*
X64151700Y44328800I225000J0D01*
G01*
G37*
G04 #@! TD.AperFunction*
G04 #@! TA.AperFunction,SMDPad,CuDef*
G36*
G01*
X19629800Y40290300D02*
X19079800Y40290300D01*
G75*
G02*
X18879800Y40490300I0J200000D01*
G01*
X18879800Y40890300D01*
G75*
G02*
X19079800Y41090300I200000J0D01*
G01*
X19629800Y41090300D01*
G75*
G02*
X19829800Y40890300I0J-200000D01*
G01*
X19829800Y40490300D01*
G75*
G02*
X19629800Y40290300I-200000J0D01*
G01*
G37*
G04 #@! TD.AperFunction*
G04 #@! TA.AperFunction,SMDPad,CuDef*
G36*
G01*
X19629800Y38640300D02*
X19079800Y38640300D01*
G75*
G02*
X18879800Y38840300I0J200000D01*
G01*
X18879800Y39240300D01*
G75*
G02*
X19079800Y39440300I200000J0D01*
G01*
X19629800Y39440300D01*
G75*
G02*
X19829800Y39240300I0J-200000D01*
G01*
X19829800Y38840300D01*
G75*
G02*
X19629800Y38640300I-200000J0D01*
G01*
G37*
G04 #@! TD.AperFunction*
G04 #@! TA.AperFunction,SMDPad,CuDef*
G36*
G01*
X16714900Y43715701D02*
X16714900Y42415699D01*
G75*
G02*
X16464901Y42165700I-249999J0D01*
G01*
X15814899Y42165700D01*
G75*
G02*
X15564900Y42415699I0J249999D01*
G01*
X15564900Y43715701D01*
G75*
G02*
X15814899Y43965700I249999J0D01*
G01*
X16464901Y43965700D01*
G75*
G02*
X16714900Y43715701I0J-249999D01*
G01*
G37*
G04 #@! TD.AperFunction*
G04 #@! TA.AperFunction,SMDPad,CuDef*
G36*
G01*
X19664900Y43715701D02*
X19664900Y42415699D01*
G75*
G02*
X19414901Y42165700I-249999J0D01*
G01*
X18764899Y42165700D01*
G75*
G02*
X18514900Y42415699I0J249999D01*
G01*
X18514900Y43715701D01*
G75*
G02*
X18764899Y43965700I249999J0D01*
G01*
X19414901Y43965700D01*
G75*
G02*
X19664900Y43715701I0J-249999D01*
G01*
G37*
G04 #@! TD.AperFunction*
G04 #@! TA.AperFunction,SMDPad,CuDef*
G36*
G01*
X10174400Y44922201D02*
X10174400Y43622199D01*
G75*
G02*
X9924401Y43372200I-249999J0D01*
G01*
X9274399Y43372200D01*
G75*
G02*
X9024400Y43622199I0J249999D01*
G01*
X9024400Y44922201D01*
G75*
G02*
X9274399Y45172200I249999J0D01*
G01*
X9924401Y45172200D01*
G75*
G02*
X10174400Y44922201I0J-249999D01*
G01*
G37*
G04 #@! TD.AperFunction*
G04 #@! TA.AperFunction,SMDPad,CuDef*
G36*
G01*
X13124400Y44922201D02*
X13124400Y43622199D01*
G75*
G02*
X12874401Y43372200I-249999J0D01*
G01*
X12224399Y43372200D01*
G75*
G02*
X11974400Y43622199I0J249999D01*
G01*
X11974400Y44922201D01*
G75*
G02*
X12224399Y45172200I249999J0D01*
G01*
X12874401Y45172200D01*
G75*
G02*
X13124400Y44922201I0J-249999D01*
G01*
G37*
G04 #@! TD.AperFunction*
G04 #@! TA.AperFunction,SMDPad,CuDef*
G36*
G01*
X48149800Y15265300D02*
X48149800Y15465300D01*
G75*
G02*
X48249800Y15565300I100000J0D01*
G01*
X49524800Y15565300D01*
G75*
G02*
X49624800Y15465300I0J-100000D01*
G01*
X49624800Y15265300D01*
G75*
G02*
X49524800Y15165300I-100000J0D01*
G01*
X48249800Y15165300D01*
G75*
G02*
X48149800Y15265300I0J100000D01*
G01*
G37*
G04 #@! TD.AperFunction*
G04 #@! TA.AperFunction,SMDPad,CuDef*
G36*
G01*
X48149800Y15915300D02*
X48149800Y16115300D01*
G75*
G02*
X48249800Y16215300I100000J0D01*
G01*
X49524800Y16215300D01*
G75*
G02*
X49624800Y16115300I0J-100000D01*
G01*
X49624800Y15915300D01*
G75*
G02*
X49524800Y15815300I-100000J0D01*
G01*
X48249800Y15815300D01*
G75*
G02*
X48149800Y15915300I0J100000D01*
G01*
G37*
G04 #@! TD.AperFunction*
G04 #@! TA.AperFunction,SMDPad,CuDef*
G36*
G01*
X48149800Y16565300D02*
X48149800Y16765300D01*
G75*
G02*
X48249800Y16865300I100000J0D01*
G01*
X49524800Y16865300D01*
G75*
G02*
X49624800Y16765300I0J-100000D01*
G01*
X49624800Y16565300D01*
G75*
G02*
X49524800Y16465300I-100000J0D01*
G01*
X48249800Y16465300D01*
G75*
G02*
X48149800Y16565300I0J100000D01*
G01*
G37*
G04 #@! TD.AperFunction*
G04 #@! TA.AperFunction,SMDPad,CuDef*
G36*
G01*
X48149800Y17215300D02*
X48149800Y17415300D01*
G75*
G02*
X48249800Y17515300I100000J0D01*
G01*
X49524800Y17515300D01*
G75*
G02*
X49624800Y17415300I0J-100000D01*
G01*
X49624800Y17215300D01*
G75*
G02*
X49524800Y17115300I-100000J0D01*
G01*
X48249800Y17115300D01*
G75*
G02*
X48149800Y17215300I0J100000D01*
G01*
G37*
G04 #@! TD.AperFunction*
G04 #@! TA.AperFunction,SMDPad,CuDef*
G36*
G01*
X48149800Y17865300D02*
X48149800Y18065300D01*
G75*
G02*
X48249800Y18165300I100000J0D01*
G01*
X49524800Y18165300D01*
G75*
G02*
X49624800Y18065300I0J-100000D01*
G01*
X49624800Y17865300D01*
G75*
G02*
X49524800Y17765300I-100000J0D01*
G01*
X48249800Y17765300D01*
G75*
G02*
X48149800Y17865300I0J100000D01*
G01*
G37*
G04 #@! TD.AperFunction*
G04 #@! TA.AperFunction,SMDPad,CuDef*
G36*
G01*
X48149800Y18515300D02*
X48149800Y18715300D01*
G75*
G02*
X48249800Y18815300I100000J0D01*
G01*
X49524800Y18815300D01*
G75*
G02*
X49624800Y18715300I0J-100000D01*
G01*
X49624800Y18515300D01*
G75*
G02*
X49524800Y18415300I-100000J0D01*
G01*
X48249800Y18415300D01*
G75*
G02*
X48149800Y18515300I0J100000D01*
G01*
G37*
G04 #@! TD.AperFunction*
G04 #@! TA.AperFunction,SMDPad,CuDef*
G36*
G01*
X48149800Y19165300D02*
X48149800Y19365300D01*
G75*
G02*
X48249800Y19465300I100000J0D01*
G01*
X49524800Y19465300D01*
G75*
G02*
X49624800Y19365300I0J-100000D01*
G01*
X49624800Y19165300D01*
G75*
G02*
X49524800Y19065300I-100000J0D01*
G01*
X48249800Y19065300D01*
G75*
G02*
X48149800Y19165300I0J100000D01*
G01*
G37*
G04 #@! TD.AperFunction*
G04 #@! TA.AperFunction,SMDPad,CuDef*
G36*
G01*
X48149800Y19815300D02*
X48149800Y20015300D01*
G75*
G02*
X48249800Y20115300I100000J0D01*
G01*
X49524800Y20115300D01*
G75*
G02*
X49624800Y20015300I0J-100000D01*
G01*
X49624800Y19815300D01*
G75*
G02*
X49524800Y19715300I-100000J0D01*
G01*
X48249800Y19715300D01*
G75*
G02*
X48149800Y19815300I0J100000D01*
G01*
G37*
G04 #@! TD.AperFunction*
G04 #@! TA.AperFunction,SMDPad,CuDef*
G36*
G01*
X42424800Y19815300D02*
X42424800Y20015300D01*
G75*
G02*
X42524800Y20115300I100000J0D01*
G01*
X43799800Y20115300D01*
G75*
G02*
X43899800Y20015300I0J-100000D01*
G01*
X43899800Y19815300D01*
G75*
G02*
X43799800Y19715300I-100000J0D01*
G01*
X42524800Y19715300D01*
G75*
G02*
X42424800Y19815300I0J100000D01*
G01*
G37*
G04 #@! TD.AperFunction*
G04 #@! TA.AperFunction,SMDPad,CuDef*
G36*
G01*
X42424800Y19165300D02*
X42424800Y19365300D01*
G75*
G02*
X42524800Y19465300I100000J0D01*
G01*
X43799800Y19465300D01*
G75*
G02*
X43899800Y19365300I0J-100000D01*
G01*
X43899800Y19165300D01*
G75*
G02*
X43799800Y19065300I-100000J0D01*
G01*
X42524800Y19065300D01*
G75*
G02*
X42424800Y19165300I0J100000D01*
G01*
G37*
G04 #@! TD.AperFunction*
G04 #@! TA.AperFunction,SMDPad,CuDef*
G36*
G01*
X42424800Y18515300D02*
X42424800Y18715300D01*
G75*
G02*
X42524800Y18815300I100000J0D01*
G01*
X43799800Y18815300D01*
G75*
G02*
X43899800Y18715300I0J-100000D01*
G01*
X43899800Y18515300D01*
G75*
G02*
X43799800Y18415300I-100000J0D01*
G01*
X42524800Y18415300D01*
G75*
G02*
X42424800Y18515300I0J100000D01*
G01*
G37*
G04 #@! TD.AperFunction*
G04 #@! TA.AperFunction,SMDPad,CuDef*
G36*
G01*
X42424800Y17865300D02*
X42424800Y18065300D01*
G75*
G02*
X42524800Y18165300I100000J0D01*
G01*
X43799800Y18165300D01*
G75*
G02*
X43899800Y18065300I0J-100000D01*
G01*
X43899800Y17865300D01*
G75*
G02*
X43799800Y17765300I-100000J0D01*
G01*
X42524800Y17765300D01*
G75*
G02*
X42424800Y17865300I0J100000D01*
G01*
G37*
G04 #@! TD.AperFunction*
G04 #@! TA.AperFunction,SMDPad,CuDef*
G36*
G01*
X42424800Y17215300D02*
X42424800Y17415300D01*
G75*
G02*
X42524800Y17515300I100000J0D01*
G01*
X43799800Y17515300D01*
G75*
G02*
X43899800Y17415300I0J-100000D01*
G01*
X43899800Y17215300D01*
G75*
G02*
X43799800Y17115300I-100000J0D01*
G01*
X42524800Y17115300D01*
G75*
G02*
X42424800Y17215300I0J100000D01*
G01*
G37*
G04 #@! TD.AperFunction*
G04 #@! TA.AperFunction,SMDPad,CuDef*
G36*
G01*
X42424800Y16565300D02*
X42424800Y16765300D01*
G75*
G02*
X42524800Y16865300I100000J0D01*
G01*
X43799800Y16865300D01*
G75*
G02*
X43899800Y16765300I0J-100000D01*
G01*
X43899800Y16565300D01*
G75*
G02*
X43799800Y16465300I-100000J0D01*
G01*
X42524800Y16465300D01*
G75*
G02*
X42424800Y16565300I0J100000D01*
G01*
G37*
G04 #@! TD.AperFunction*
G04 #@! TA.AperFunction,SMDPad,CuDef*
G36*
G01*
X42424800Y15915300D02*
X42424800Y16115300D01*
G75*
G02*
X42524800Y16215300I100000J0D01*
G01*
X43799800Y16215300D01*
G75*
G02*
X43899800Y16115300I0J-100000D01*
G01*
X43899800Y15915300D01*
G75*
G02*
X43799800Y15815300I-100000J0D01*
G01*
X42524800Y15815300D01*
G75*
G02*
X42424800Y15915300I0J100000D01*
G01*
G37*
G04 #@! TD.AperFunction*
G04 #@! TA.AperFunction,SMDPad,CuDef*
G36*
G01*
X42424800Y15265300D02*
X42424800Y15465300D01*
G75*
G02*
X42524800Y15565300I100000J0D01*
G01*
X43799800Y15565300D01*
G75*
G02*
X43899800Y15465300I0J-100000D01*
G01*
X43899800Y15265300D01*
G75*
G02*
X43799800Y15165300I-100000J0D01*
G01*
X42524800Y15165300D01*
G75*
G02*
X42424800Y15265300I0J100000D01*
G01*
G37*
G04 #@! TD.AperFunction*
D10*
X2468800Y29935300D03*
X2468800Y14235300D03*
X7368800Y14835300D03*
X7368800Y29335300D03*
D11*
X82346800Y37325300D03*
X77266800Y37325300D03*
X82346800Y15862300D03*
X77266800Y15862300D03*
X82346800Y26593800D03*
X77266800Y26593800D03*
G04 #@! TA.AperFunction,SMDPad,CuDef*
G36*
G01*
X34488800Y22891300D02*
X33938800Y22891300D01*
G75*
G02*
X33738800Y23091300I0J200000D01*
G01*
X33738800Y23491300D01*
G75*
G02*
X33938800Y23691300I200000J0D01*
G01*
X34488800Y23691300D01*
G75*
G02*
X34688800Y23491300I0J-200000D01*
G01*
X34688800Y23091300D01*
G75*
G02*
X34488800Y22891300I-200000J0D01*
G01*
G37*
G04 #@! TD.AperFunction*
G04 #@! TA.AperFunction,SMDPad,CuDef*
G36*
G01*
X34488800Y21241300D02*
X33938800Y21241300D01*
G75*
G02*
X33738800Y21441300I0J200000D01*
G01*
X33738800Y21841300D01*
G75*
G02*
X33938800Y22041300I200000J0D01*
G01*
X34488800Y22041300D01*
G75*
G02*
X34688800Y21841300I0J-200000D01*
G01*
X34688800Y21441300D01*
G75*
G02*
X34488800Y21241300I-200000J0D01*
G01*
G37*
G04 #@! TD.AperFunction*
G04 #@! TA.AperFunction,SMDPad,CuDef*
G36*
G01*
X50998800Y24796300D02*
X50448800Y24796300D01*
G75*
G02*
X50248800Y24996300I0J200000D01*
G01*
X50248800Y25396300D01*
G75*
G02*
X50448800Y25596300I200000J0D01*
G01*
X50998800Y25596300D01*
G75*
G02*
X51198800Y25396300I0J-200000D01*
G01*
X51198800Y24996300D01*
G75*
G02*
X50998800Y24796300I-200000J0D01*
G01*
G37*
G04 #@! TD.AperFunction*
G04 #@! TA.AperFunction,SMDPad,CuDef*
G36*
G01*
X50998800Y23146300D02*
X50448800Y23146300D01*
G75*
G02*
X50248800Y23346300I0J200000D01*
G01*
X50248800Y23746300D01*
G75*
G02*
X50448800Y23946300I200000J0D01*
G01*
X50998800Y23946300D01*
G75*
G02*
X51198800Y23746300I0J-200000D01*
G01*
X51198800Y23346300D01*
G75*
G02*
X50998800Y23146300I-200000J0D01*
G01*
G37*
G04 #@! TD.AperFunction*
G04 #@! TA.AperFunction,SMDPad,CuDef*
G36*
G01*
X21152300Y20518800D02*
X21152300Y19968800D01*
G75*
G02*
X20952300Y19768800I-200000J0D01*
G01*
X20552300Y19768800D01*
G75*
G02*
X20352300Y19968800I0J200000D01*
G01*
X20352300Y20518800D01*
G75*
G02*
X20552300Y20718800I200000J0D01*
G01*
X20952300Y20718800D01*
G75*
G02*
X21152300Y20518800I0J-200000D01*
G01*
G37*
G04 #@! TD.AperFunction*
G04 #@! TA.AperFunction,SMDPad,CuDef*
G36*
G01*
X22802300Y20518800D02*
X22802300Y19968800D01*
G75*
G02*
X22602300Y19768800I-200000J0D01*
G01*
X22202300Y19768800D01*
G75*
G02*
X22002300Y19968800I0J200000D01*
G01*
X22002300Y20518800D01*
G75*
G02*
X22202300Y20718800I200000J0D01*
G01*
X22602300Y20718800D01*
G75*
G02*
X22802300Y20518800I0J-200000D01*
G01*
G37*
G04 #@! TD.AperFunction*
G04 #@! TA.AperFunction,SMDPad,CuDef*
G36*
G01*
X25875800Y25937800D02*
X25875800Y26487800D01*
G75*
G02*
X26075800Y26687800I200000J0D01*
G01*
X26475800Y26687800D01*
G75*
G02*
X26675800Y26487800I0J-200000D01*
G01*
X26675800Y25937800D01*
G75*
G02*
X26475800Y25737800I-200000J0D01*
G01*
X26075800Y25737800D01*
G75*
G02*
X25875800Y25937800I0J200000D01*
G01*
G37*
G04 #@! TD.AperFunction*
G04 #@! TA.AperFunction,SMDPad,CuDef*
G36*
G01*
X24225800Y25937800D02*
X24225800Y26487800D01*
G75*
G02*
X24425800Y26687800I200000J0D01*
G01*
X24825800Y26687800D01*
G75*
G02*
X25025800Y26487800I0J-200000D01*
G01*
X25025800Y25937800D01*
G75*
G02*
X24825800Y25737800I-200000J0D01*
G01*
X24425800Y25737800D01*
G75*
G02*
X24225800Y25937800I0J200000D01*
G01*
G37*
G04 #@! TD.AperFunction*
G04 #@! TA.AperFunction,SMDPad,CuDef*
G36*
G01*
X17366800Y29049300D02*
X17366800Y29599300D01*
G75*
G02*
X17566800Y29799300I200000J0D01*
G01*
X17966800Y29799300D01*
G75*
G02*
X18166800Y29599300I0J-200000D01*
G01*
X18166800Y29049300D01*
G75*
G02*
X17966800Y28849300I-200000J0D01*
G01*
X17566800Y28849300D01*
G75*
G02*
X17366800Y29049300I0J200000D01*
G01*
G37*
G04 #@! TD.AperFunction*
G04 #@! TA.AperFunction,SMDPad,CuDef*
G36*
G01*
X15716800Y29049300D02*
X15716800Y29599300D01*
G75*
G02*
X15916800Y29799300I200000J0D01*
G01*
X16316800Y29799300D01*
G75*
G02*
X16516800Y29599300I0J-200000D01*
G01*
X16516800Y29049300D01*
G75*
G02*
X16316800Y28849300I-200000J0D01*
G01*
X15916800Y28849300D01*
G75*
G02*
X15716800Y29049300I0J200000D01*
G01*
G37*
G04 #@! TD.AperFunction*
G04 #@! TA.AperFunction,SMDPad,CuDef*
G36*
G01*
X71253800Y7882300D02*
X71253800Y7332300D01*
G75*
G02*
X71053800Y7132300I-200000J0D01*
G01*
X70653800Y7132300D01*
G75*
G02*
X70453800Y7332300I0J200000D01*
G01*
X70453800Y7882300D01*
G75*
G02*
X70653800Y8082300I200000J0D01*
G01*
X71053800Y8082300D01*
G75*
G02*
X71253800Y7882300I0J-200000D01*
G01*
G37*
G04 #@! TD.AperFunction*
G04 #@! TA.AperFunction,SMDPad,CuDef*
G36*
G01*
X72903800Y7882300D02*
X72903800Y7332300D01*
G75*
G02*
X72703800Y7132300I-200000J0D01*
G01*
X72303800Y7132300D01*
G75*
G02*
X72103800Y7332300I0J200000D01*
G01*
X72103800Y7882300D01*
G75*
G02*
X72303800Y8082300I200000J0D01*
G01*
X72703800Y8082300D01*
G75*
G02*
X72903800Y7882300I0J-200000D01*
G01*
G37*
G04 #@! TD.AperFunction*
D12*
X52501800Y34909300D03*
X52501800Y37709300D03*
X63169800Y19415300D03*
X63169800Y22215300D03*
X68757800Y11036300D03*
X71557800Y11036300D03*
G04 #@! TA.AperFunction,SMDPad,CuDef*
G36*
G01*
X7587800Y9110300D02*
X7587800Y9660300D01*
G75*
G02*
X7787800Y9860300I200000J0D01*
G01*
X8187800Y9860300D01*
G75*
G02*
X8387800Y9660300I0J-200000D01*
G01*
X8387800Y9110300D01*
G75*
G02*
X8187800Y8910300I-200000J0D01*
G01*
X7787800Y8910300D01*
G75*
G02*
X7587800Y9110300I0J200000D01*
G01*
G37*
G04 #@! TD.AperFunction*
G04 #@! TA.AperFunction,SMDPad,CuDef*
G36*
G01*
X5937800Y9110300D02*
X5937800Y9660300D01*
G75*
G02*
X6137800Y9860300I200000J0D01*
G01*
X6537800Y9860300D01*
G75*
G02*
X6737800Y9660300I0J-200000D01*
G01*
X6737800Y9110300D01*
G75*
G02*
X6537800Y8910300I-200000J0D01*
G01*
X6137800Y8910300D01*
G75*
G02*
X5937800Y9110300I0J200000D01*
G01*
G37*
G04 #@! TD.AperFunction*
G04 #@! TA.AperFunction,SMDPad,CuDef*
G36*
G01*
X26256800Y42511300D02*
X26256800Y43061300D01*
G75*
G02*
X26456800Y43261300I200000J0D01*
G01*
X26856800Y43261300D01*
G75*
G02*
X27056800Y43061300I0J-200000D01*
G01*
X27056800Y42511300D01*
G75*
G02*
X26856800Y42311300I-200000J0D01*
G01*
X26456800Y42311300D01*
G75*
G02*
X26256800Y42511300I0J200000D01*
G01*
G37*
G04 #@! TD.AperFunction*
G04 #@! TA.AperFunction,SMDPad,CuDef*
G36*
G01*
X24606800Y42511300D02*
X24606800Y43061300D01*
G75*
G02*
X24806800Y43261300I200000J0D01*
G01*
X25206800Y43261300D01*
G75*
G02*
X25406800Y43061300I0J-200000D01*
G01*
X25406800Y42511300D01*
G75*
G02*
X25206800Y42311300I-200000J0D01*
G01*
X24806800Y42311300D01*
G75*
G02*
X24606800Y42511300I0J200000D01*
G01*
G37*
G04 #@! TD.AperFunction*
D13*
X4000000Y44000000D03*
D14*
X4000000Y4000000D03*
D13*
X80000000Y44000000D03*
X80000000Y4000000D03*
G04 #@! TA.AperFunction,SMDPad,CuDef*
G36*
G01*
X20795800Y29049300D02*
X20795800Y29599300D01*
G75*
G02*
X20995800Y29799300I200000J0D01*
G01*
X21395800Y29799300D01*
G75*
G02*
X21595800Y29599300I0J-200000D01*
G01*
X21595800Y29049300D01*
G75*
G02*
X21395800Y28849300I-200000J0D01*
G01*
X20995800Y28849300D01*
G75*
G02*
X20795800Y29049300I0J200000D01*
G01*
G37*
G04 #@! TD.AperFunction*
G04 #@! TA.AperFunction,SMDPad,CuDef*
G36*
G01*
X19145800Y29049300D02*
X19145800Y29599300D01*
G75*
G02*
X19345800Y29799300I200000J0D01*
G01*
X19745800Y29799300D01*
G75*
G02*
X19945800Y29599300I0J-200000D01*
G01*
X19945800Y29049300D01*
G75*
G02*
X19745800Y28849300I-200000J0D01*
G01*
X19345800Y28849300D01*
G75*
G02*
X19145800Y29049300I0J200000D01*
G01*
G37*
G04 #@! TD.AperFunction*
G04 #@! TA.AperFunction,SMDPad,CuDef*
G36*
G01*
X25875800Y28858800D02*
X25875800Y29408800D01*
G75*
G02*
X26075800Y29608800I200000J0D01*
G01*
X26475800Y29608800D01*
G75*
G02*
X26675800Y29408800I0J-200000D01*
G01*
X26675800Y28858800D01*
G75*
G02*
X26475800Y28658800I-200000J0D01*
G01*
X26075800Y28658800D01*
G75*
G02*
X25875800Y28858800I0J200000D01*
G01*
G37*
G04 #@! TD.AperFunction*
G04 #@! TA.AperFunction,SMDPad,CuDef*
G36*
G01*
X24225800Y28858800D02*
X24225800Y29408800D01*
G75*
G02*
X24425800Y29608800I200000J0D01*
G01*
X24825800Y29608800D01*
G75*
G02*
X25025800Y29408800I0J-200000D01*
G01*
X25025800Y28858800D01*
G75*
G02*
X24825800Y28658800I-200000J0D01*
G01*
X24425800Y28658800D01*
G75*
G02*
X24225800Y28858800I0J200000D01*
G01*
G37*
G04 #@! TD.AperFunction*
G04 #@! TA.AperFunction,SMDPad,CuDef*
G36*
G01*
X40353800Y8348300D02*
X40353800Y8898300D01*
G75*
G02*
X40553800Y9098300I200000J0D01*
G01*
X40953800Y9098300D01*
G75*
G02*
X41153800Y8898300I0J-200000D01*
G01*
X41153800Y8348300D01*
G75*
G02*
X40953800Y8148300I-200000J0D01*
G01*
X40553800Y8148300D01*
G75*
G02*
X40353800Y8348300I0J200000D01*
G01*
G37*
G04 #@! TD.AperFunction*
G04 #@! TA.AperFunction,SMDPad,CuDef*
G36*
G01*
X38703800Y8348300D02*
X38703800Y8898300D01*
G75*
G02*
X38903800Y9098300I200000J0D01*
G01*
X39303800Y9098300D01*
G75*
G02*
X39503800Y8898300I0J-200000D01*
G01*
X39503800Y8348300D01*
G75*
G02*
X39303800Y8148300I-200000J0D01*
G01*
X38903800Y8148300D01*
G75*
G02*
X38703800Y8348300I0J200000D01*
G01*
G37*
G04 #@! TD.AperFunction*
G04 #@! TA.AperFunction,SMDPad,CuDef*
G36*
G01*
X68205800Y4580300D02*
X68205800Y4030300D01*
G75*
G02*
X68005800Y3830300I-200000J0D01*
G01*
X67605800Y3830300D01*
G75*
G02*
X67405800Y4030300I0J200000D01*
G01*
X67405800Y4580300D01*
G75*
G02*
X67605800Y4780300I200000J0D01*
G01*
X68005800Y4780300D01*
G75*
G02*
X68205800Y4580300I0J-200000D01*
G01*
G37*
G04 #@! TD.AperFunction*
G04 #@! TA.AperFunction,SMDPad,CuDef*
G36*
G01*
X69855800Y4580300D02*
X69855800Y4030300D01*
G75*
G02*
X69655800Y3830300I-200000J0D01*
G01*
X69255800Y3830300D01*
G75*
G02*
X69055800Y4030300I0J200000D01*
G01*
X69055800Y4580300D01*
G75*
G02*
X69255800Y4780300I200000J0D01*
G01*
X69655800Y4780300D01*
G75*
G02*
X69855800Y4580300I0J-200000D01*
G01*
G37*
G04 #@! TD.AperFunction*
G04 #@! TA.AperFunction,SMDPad,CuDef*
G36*
G01*
X22827800Y5681300D02*
X22827800Y6231300D01*
G75*
G02*
X23027800Y6431300I200000J0D01*
G01*
X23427800Y6431300D01*
G75*
G02*
X23627800Y6231300I0J-200000D01*
G01*
X23627800Y5681300D01*
G75*
G02*
X23427800Y5481300I-200000J0D01*
G01*
X23027800Y5481300D01*
G75*
G02*
X22827800Y5681300I0J200000D01*
G01*
G37*
G04 #@! TD.AperFunction*
G04 #@! TA.AperFunction,SMDPad,CuDef*
G36*
G01*
X21177800Y5681300D02*
X21177800Y6231300D01*
G75*
G02*
X21377800Y6431300I200000J0D01*
G01*
X21777800Y6431300D01*
G75*
G02*
X21977800Y6231300I0J-200000D01*
G01*
X21977800Y5681300D01*
G75*
G02*
X21777800Y5481300I-200000J0D01*
G01*
X21377800Y5481300D01*
G75*
G02*
X21177800Y5681300I0J200000D01*
G01*
G37*
G04 #@! TD.AperFunction*
G04 #@! TA.AperFunction,SMDPad,CuDef*
G36*
G01*
X51887800Y18446300D02*
X51337800Y18446300D01*
G75*
G02*
X51137800Y18646300I0J200000D01*
G01*
X51137800Y19046300D01*
G75*
G02*
X51337800Y19246300I200000J0D01*
G01*
X51887800Y19246300D01*
G75*
G02*
X52087800Y19046300I0J-200000D01*
G01*
X52087800Y18646300D01*
G75*
G02*
X51887800Y18446300I-200000J0D01*
G01*
G37*
G04 #@! TD.AperFunction*
G04 #@! TA.AperFunction,SMDPad,CuDef*
G36*
G01*
X51887800Y16796300D02*
X51337800Y16796300D01*
G75*
G02*
X51137800Y16996300I0J200000D01*
G01*
X51137800Y17396300D01*
G75*
G02*
X51337800Y17596300I200000J0D01*
G01*
X51887800Y17596300D01*
G75*
G02*
X52087800Y17396300I0J-200000D01*
G01*
X52087800Y16996300D01*
G75*
G02*
X51887800Y16796300I-200000J0D01*
G01*
G37*
G04 #@! TD.AperFunction*
G04 #@! TA.AperFunction,SMDPad,CuDef*
G36*
G01*
X25406800Y6231300D02*
X25406800Y5681300D01*
G75*
G02*
X25206800Y5481300I-200000J0D01*
G01*
X24806800Y5481300D01*
G75*
G02*
X24606800Y5681300I0J200000D01*
G01*
X24606800Y6231300D01*
G75*
G02*
X24806800Y6431300I200000J0D01*
G01*
X25206800Y6431300D01*
G75*
G02*
X25406800Y6231300I0J-200000D01*
G01*
G37*
G04 #@! TD.AperFunction*
G04 #@! TA.AperFunction,SMDPad,CuDef*
G36*
G01*
X27056800Y6231300D02*
X27056800Y5681300D01*
G75*
G02*
X26856800Y5481300I-200000J0D01*
G01*
X26456800Y5481300D01*
G75*
G02*
X26256800Y5681300I0J200000D01*
G01*
X26256800Y6231300D01*
G75*
G02*
X26456800Y6431300I200000J0D01*
G01*
X26856800Y6431300D01*
G75*
G02*
X27056800Y6231300I0J-200000D01*
G01*
G37*
G04 #@! TD.AperFunction*
G04 #@! TA.AperFunction,SMDPad,CuDef*
G36*
G01*
X40296300Y14130800D02*
X40296300Y14680800D01*
G75*
G02*
X40496300Y14880800I200000J0D01*
G01*
X40896300Y14880800D01*
G75*
G02*
X41096300Y14680800I0J-200000D01*
G01*
X41096300Y14130800D01*
G75*
G02*
X40896300Y13930800I-200000J0D01*
G01*
X40496300Y13930800D01*
G75*
G02*
X40296300Y14130800I0J200000D01*
G01*
G37*
G04 #@! TD.AperFunction*
G04 #@! TA.AperFunction,SMDPad,CuDef*
G36*
G01*
X38646300Y14130800D02*
X38646300Y14680800D01*
G75*
G02*
X38846300Y14880800I200000J0D01*
G01*
X39246300Y14880800D01*
G75*
G02*
X39446300Y14680800I0J-200000D01*
G01*
X39446300Y14130800D01*
G75*
G02*
X39246300Y13930800I-200000J0D01*
G01*
X38846300Y13930800D01*
G75*
G02*
X38646300Y14130800I0J200000D01*
G01*
G37*
G04 #@! TD.AperFunction*
G04 #@! TA.AperFunction,SMDPad,CuDef*
G36*
G01*
X9658800Y37219300D02*
X9658800Y36669300D01*
G75*
G02*
X9458800Y36469300I-200000J0D01*
G01*
X9058800Y36469300D01*
G75*
G02*
X8858800Y36669300I0J200000D01*
G01*
X8858800Y37219300D01*
G75*
G02*
X9058800Y37419300I200000J0D01*
G01*
X9458800Y37419300D01*
G75*
G02*
X9658800Y37219300I0J-200000D01*
G01*
G37*
G04 #@! TD.AperFunction*
G04 #@! TA.AperFunction,SMDPad,CuDef*
G36*
G01*
X11308800Y37219300D02*
X11308800Y36669300D01*
G75*
G02*
X11108800Y36469300I-200000J0D01*
G01*
X10708800Y36469300D01*
G75*
G02*
X10508800Y36669300I0J200000D01*
G01*
X10508800Y37219300D01*
G75*
G02*
X10708800Y37419300I200000J0D01*
G01*
X11108800Y37419300D01*
G75*
G02*
X11308800Y37219300I0J-200000D01*
G01*
G37*
G04 #@! TD.AperFunction*
G04 #@! TA.AperFunction,SMDPad,CuDef*
G36*
G01*
X9850800Y41560300D02*
X9300800Y41560300D01*
G75*
G02*
X9100800Y41760300I0J200000D01*
G01*
X9100800Y42160300D01*
G75*
G02*
X9300800Y42360300I200000J0D01*
G01*
X9850800Y42360300D01*
G75*
G02*
X10050800Y42160300I0J-200000D01*
G01*
X10050800Y41760300D01*
G75*
G02*
X9850800Y41560300I-200000J0D01*
G01*
G37*
G04 #@! TD.AperFunction*
G04 #@! TA.AperFunction,SMDPad,CuDef*
G36*
G01*
X9850800Y39910300D02*
X9300800Y39910300D01*
G75*
G02*
X9100800Y40110300I0J200000D01*
G01*
X9100800Y40510300D01*
G75*
G02*
X9300800Y40710300I200000J0D01*
G01*
X9850800Y40710300D01*
G75*
G02*
X10050800Y40510300I0J-200000D01*
G01*
X10050800Y40110300D01*
G75*
G02*
X9850800Y39910300I-200000J0D01*
G01*
G37*
G04 #@! TD.AperFunction*
D15*
X68107800Y6276300D03*
X69407800Y6276300D03*
X68757800Y8176300D03*
X68757800Y6276300D03*
X69407800Y8176300D03*
X68107800Y8176300D03*
G04 #@! TA.AperFunction,SMDPad,CuDef*
G36*
G01*
X10079800Y31681300D02*
X9579800Y31681300D01*
G75*
G02*
X9354800Y31906300I0J225000D01*
G01*
X9354800Y32356300D01*
G75*
G02*
X9579800Y32581300I225000J0D01*
G01*
X10079800Y32581300D01*
G75*
G02*
X10304800Y32356300I0J-225000D01*
G01*
X10304800Y31906300D01*
G75*
G02*
X10079800Y31681300I-225000J0D01*
G01*
G37*
G04 #@! TD.AperFunction*
G04 #@! TA.AperFunction,SMDPad,CuDef*
G36*
G01*
X10079800Y30131300D02*
X9579800Y30131300D01*
G75*
G02*
X9354800Y30356300I0J225000D01*
G01*
X9354800Y30806300D01*
G75*
G02*
X9579800Y31031300I225000J0D01*
G01*
X10079800Y31031300D01*
G75*
G02*
X10304800Y30806300I0J-225000D01*
G01*
X10304800Y30356300D01*
G75*
G02*
X10079800Y30131300I-225000J0D01*
G01*
G37*
G04 #@! TD.AperFunction*
G04 #@! TA.AperFunction,SMDPad,CuDef*
G36*
G01*
X25125800Y23605300D02*
X25125800Y23105300D01*
G75*
G02*
X24900800Y22880300I-225000J0D01*
G01*
X24450800Y22880300D01*
G75*
G02*
X24225800Y23105300I0J225000D01*
G01*
X24225800Y23605300D01*
G75*
G02*
X24450800Y23830300I225000J0D01*
G01*
X24900800Y23830300D01*
G75*
G02*
X25125800Y23605300I0J-225000D01*
G01*
G37*
G04 #@! TD.AperFunction*
G04 #@! TA.AperFunction,SMDPad,CuDef*
G36*
G01*
X26675800Y23605300D02*
X26675800Y23105300D01*
G75*
G02*
X26450800Y22880300I-225000J0D01*
G01*
X26000800Y22880300D01*
G75*
G02*
X25775800Y23105300I0J225000D01*
G01*
X25775800Y23605300D01*
G75*
G02*
X26000800Y23830300I225000J0D01*
G01*
X26450800Y23830300D01*
G75*
G02*
X26675800Y23605300I0J-225000D01*
G01*
G37*
G04 #@! TD.AperFunction*
G04 #@! TA.AperFunction,SMDPad,CuDef*
G36*
G01*
X24146800Y8915300D02*
X24146800Y9115300D01*
G75*
G02*
X24246800Y9215300I100000J0D01*
G01*
X25521800Y9215300D01*
G75*
G02*
X25621800Y9115300I0J-100000D01*
G01*
X25621800Y8915300D01*
G75*
G02*
X25521800Y8815300I-100000J0D01*
G01*
X24246800Y8815300D01*
G75*
G02*
X24146800Y8915300I0J100000D01*
G01*
G37*
G04 #@! TD.AperFunction*
G04 #@! TA.AperFunction,SMDPad,CuDef*
G36*
G01*
X24146800Y9565300D02*
X24146800Y9765300D01*
G75*
G02*
X24246800Y9865300I100000J0D01*
G01*
X25521800Y9865300D01*
G75*
G02*
X25621800Y9765300I0J-100000D01*
G01*
X25621800Y9565300D01*
G75*
G02*
X25521800Y9465300I-100000J0D01*
G01*
X24246800Y9465300D01*
G75*
G02*
X24146800Y9565300I0J100000D01*
G01*
G37*
G04 #@! TD.AperFunction*
G04 #@! TA.AperFunction,SMDPad,CuDef*
G36*
G01*
X24146800Y10215300D02*
X24146800Y10415300D01*
G75*
G02*
X24246800Y10515300I100000J0D01*
G01*
X25521800Y10515300D01*
G75*
G02*
X25621800Y10415300I0J-100000D01*
G01*
X25621800Y10215300D01*
G75*
G02*
X25521800Y10115300I-100000J0D01*
G01*
X24246800Y10115300D01*
G75*
G02*
X24146800Y10215300I0J100000D01*
G01*
G37*
G04 #@! TD.AperFunction*
G04 #@! TA.AperFunction,SMDPad,CuDef*
G36*
G01*
X24146800Y10865300D02*
X24146800Y11065300D01*
G75*
G02*
X24246800Y11165300I100000J0D01*
G01*
X25521800Y11165300D01*
G75*
G02*
X25621800Y11065300I0J-100000D01*
G01*
X25621800Y10865300D01*
G75*
G02*
X25521800Y10765300I-100000J0D01*
G01*
X24246800Y10765300D01*
G75*
G02*
X24146800Y10865300I0J100000D01*
G01*
G37*
G04 #@! TD.AperFunction*
G04 #@! TA.AperFunction,SMDPad,CuDef*
G36*
G01*
X24146800Y11515300D02*
X24146800Y11715300D01*
G75*
G02*
X24246800Y11815300I100000J0D01*
G01*
X25521800Y11815300D01*
G75*
G02*
X25621800Y11715300I0J-100000D01*
G01*
X25621800Y11515300D01*
G75*
G02*
X25521800Y11415300I-100000J0D01*
G01*
X24246800Y11415300D01*
G75*
G02*
X24146800Y11515300I0J100000D01*
G01*
G37*
G04 #@! TD.AperFunction*
G04 #@! TA.AperFunction,SMDPad,CuDef*
G36*
G01*
X24146800Y12165300D02*
X24146800Y12365300D01*
G75*
G02*
X24246800Y12465300I100000J0D01*
G01*
X25521800Y12465300D01*
G75*
G02*
X25621800Y12365300I0J-100000D01*
G01*
X25621800Y12165300D01*
G75*
G02*
X25521800Y12065300I-100000J0D01*
G01*
X24246800Y12065300D01*
G75*
G02*
X24146800Y12165300I0J100000D01*
G01*
G37*
G04 #@! TD.AperFunction*
G04 #@! TA.AperFunction,SMDPad,CuDef*
G36*
G01*
X24146800Y12815300D02*
X24146800Y13015300D01*
G75*
G02*
X24246800Y13115300I100000J0D01*
G01*
X25521800Y13115300D01*
G75*
G02*
X25621800Y13015300I0J-100000D01*
G01*
X25621800Y12815300D01*
G75*
G02*
X25521800Y12715300I-100000J0D01*
G01*
X24246800Y12715300D01*
G75*
G02*
X24146800Y12815300I0J100000D01*
G01*
G37*
G04 #@! TD.AperFunction*
G04 #@! TA.AperFunction,SMDPad,CuDef*
G36*
G01*
X24146800Y13465300D02*
X24146800Y13665300D01*
G75*
G02*
X24246800Y13765300I100000J0D01*
G01*
X25521800Y13765300D01*
G75*
G02*
X25621800Y13665300I0J-100000D01*
G01*
X25621800Y13465300D01*
G75*
G02*
X25521800Y13365300I-100000J0D01*
G01*
X24246800Y13365300D01*
G75*
G02*
X24146800Y13465300I0J100000D01*
G01*
G37*
G04 #@! TD.AperFunction*
G04 #@! TA.AperFunction,SMDPad,CuDef*
G36*
G01*
X18421800Y13465300D02*
X18421800Y13665300D01*
G75*
G02*
X18521800Y13765300I100000J0D01*
G01*
X19796800Y13765300D01*
G75*
G02*
X19896800Y13665300I0J-100000D01*
G01*
X19896800Y13465300D01*
G75*
G02*
X19796800Y13365300I-100000J0D01*
G01*
X18521800Y13365300D01*
G75*
G02*
X18421800Y13465300I0J100000D01*
G01*
G37*
G04 #@! TD.AperFunction*
G04 #@! TA.AperFunction,SMDPad,CuDef*
G36*
G01*
X18421800Y12815300D02*
X18421800Y13015300D01*
G75*
G02*
X18521800Y13115300I100000J0D01*
G01*
X19796800Y13115300D01*
G75*
G02*
X19896800Y13015300I0J-100000D01*
G01*
X19896800Y12815300D01*
G75*
G02*
X19796800Y12715300I-100000J0D01*
G01*
X18521800Y12715300D01*
G75*
G02*
X18421800Y12815300I0J100000D01*
G01*
G37*
G04 #@! TD.AperFunction*
G04 #@! TA.AperFunction,SMDPad,CuDef*
G36*
G01*
X18421800Y12165300D02*
X18421800Y12365300D01*
G75*
G02*
X18521800Y12465300I100000J0D01*
G01*
X19796800Y12465300D01*
G75*
G02*
X19896800Y12365300I0J-100000D01*
G01*
X19896800Y12165300D01*
G75*
G02*
X19796800Y12065300I-100000J0D01*
G01*
X18521800Y12065300D01*
G75*
G02*
X18421800Y12165300I0J100000D01*
G01*
G37*
G04 #@! TD.AperFunction*
G04 #@! TA.AperFunction,SMDPad,CuDef*
G36*
G01*
X18421800Y11515300D02*
X18421800Y11715300D01*
G75*
G02*
X18521800Y11815300I100000J0D01*
G01*
X19796800Y11815300D01*
G75*
G02*
X19896800Y11715300I0J-100000D01*
G01*
X19896800Y11515300D01*
G75*
G02*
X19796800Y11415300I-100000J0D01*
G01*
X18521800Y11415300D01*
G75*
G02*
X18421800Y11515300I0J100000D01*
G01*
G37*
G04 #@! TD.AperFunction*
G04 #@! TA.AperFunction,SMDPad,CuDef*
G36*
G01*
X18421800Y10865300D02*
X18421800Y11065300D01*
G75*
G02*
X18521800Y11165300I100000J0D01*
G01*
X19796800Y11165300D01*
G75*
G02*
X19896800Y11065300I0J-100000D01*
G01*
X19896800Y10865300D01*
G75*
G02*
X19796800Y10765300I-100000J0D01*
G01*
X18521800Y10765300D01*
G75*
G02*
X18421800Y10865300I0J100000D01*
G01*
G37*
G04 #@! TD.AperFunction*
G04 #@! TA.AperFunction,SMDPad,CuDef*
G36*
G01*
X18421800Y10215300D02*
X18421800Y10415300D01*
G75*
G02*
X18521800Y10515300I100000J0D01*
G01*
X19796800Y10515300D01*
G75*
G02*
X19896800Y10415300I0J-100000D01*
G01*
X19896800Y10215300D01*
G75*
G02*
X19796800Y10115300I-100000J0D01*
G01*
X18521800Y10115300D01*
G75*
G02*
X18421800Y10215300I0J100000D01*
G01*
G37*
G04 #@! TD.AperFunction*
G04 #@! TA.AperFunction,SMDPad,CuDef*
G36*
G01*
X18421800Y9565300D02*
X18421800Y9765300D01*
G75*
G02*
X18521800Y9865300I100000J0D01*
G01*
X19796800Y9865300D01*
G75*
G02*
X19896800Y9765300I0J-100000D01*
G01*
X19896800Y9565300D01*
G75*
G02*
X19796800Y9465300I-100000J0D01*
G01*
X18521800Y9465300D01*
G75*
G02*
X18421800Y9565300I0J100000D01*
G01*
G37*
G04 #@! TD.AperFunction*
G04 #@! TA.AperFunction,SMDPad,CuDef*
G36*
G01*
X18421800Y8915300D02*
X18421800Y9115300D01*
G75*
G02*
X18521800Y9215300I100000J0D01*
G01*
X19796800Y9215300D01*
G75*
G02*
X19896800Y9115300I0J-100000D01*
G01*
X19896800Y8915300D01*
G75*
G02*
X19796800Y8815300I-100000J0D01*
G01*
X18521800Y8815300D01*
G75*
G02*
X18421800Y8915300I0J100000D01*
G01*
G37*
G04 #@! TD.AperFunction*
G04 #@! TA.AperFunction,SMDPad,CuDef*
G36*
G01*
X3585800Y35249300D02*
X4135800Y35249300D01*
G75*
G02*
X4335800Y35049300I0J-200000D01*
G01*
X4335800Y34649300D01*
G75*
G02*
X4135800Y34449300I-200000J0D01*
G01*
X3585800Y34449300D01*
G75*
G02*
X3385800Y34649300I0J200000D01*
G01*
X3385800Y35049300D01*
G75*
G02*
X3585800Y35249300I200000J0D01*
G01*
G37*
G04 #@! TD.AperFunction*
G04 #@! TA.AperFunction,SMDPad,CuDef*
G36*
G01*
X3585800Y36899300D02*
X4135800Y36899300D01*
G75*
G02*
X4335800Y36699300I0J-200000D01*
G01*
X4335800Y36299300D01*
G75*
G02*
X4135800Y36099300I-200000J0D01*
G01*
X3585800Y36099300D01*
G75*
G02*
X3385800Y36299300I0J200000D01*
G01*
X3385800Y36699300D01*
G75*
G02*
X3585800Y36899300I200000J0D01*
G01*
G37*
G04 #@! TD.AperFunction*
G04 #@! TA.AperFunction,SMDPad,CuDef*
G36*
G01*
X40190300Y11294300D02*
X40190300Y11794300D01*
G75*
G02*
X40415300Y12019300I225000J0D01*
G01*
X40865300Y12019300D01*
G75*
G02*
X41090300Y11794300I0J-225000D01*
G01*
X41090300Y11294300D01*
G75*
G02*
X40865300Y11069300I-225000J0D01*
G01*
X40415300Y11069300D01*
G75*
G02*
X40190300Y11294300I0J225000D01*
G01*
G37*
G04 #@! TD.AperFunction*
G04 #@! TA.AperFunction,SMDPad,CuDef*
G36*
G01*
X38640300Y11294300D02*
X38640300Y11794300D01*
G75*
G02*
X38865300Y12019300I225000J0D01*
G01*
X39315300Y12019300D01*
G75*
G02*
X39540300Y11794300I0J-225000D01*
G01*
X39540300Y11294300D01*
G75*
G02*
X39315300Y11069300I-225000J0D01*
G01*
X38865300Y11069300D01*
G75*
G02*
X38640300Y11294300I0J225000D01*
G01*
G37*
G04 #@! TD.AperFunction*
G04 #@! TA.AperFunction,SMDPad,CuDef*
G36*
G01*
X40253800Y5515800D02*
X40253800Y6015800D01*
G75*
G02*
X40478800Y6240800I225000J0D01*
G01*
X40928800Y6240800D01*
G75*
G02*
X41153800Y6015800I0J-225000D01*
G01*
X41153800Y5515800D01*
G75*
G02*
X40928800Y5290800I-225000J0D01*
G01*
X40478800Y5290800D01*
G75*
G02*
X40253800Y5515800I0J225000D01*
G01*
G37*
G04 #@! TD.AperFunction*
G04 #@! TA.AperFunction,SMDPad,CuDef*
G36*
G01*
X38703800Y5515800D02*
X38703800Y6015800D01*
G75*
G02*
X38928800Y6240800I225000J0D01*
G01*
X39378800Y6240800D01*
G75*
G02*
X39603800Y6015800I0J-225000D01*
G01*
X39603800Y5515800D01*
G75*
G02*
X39378800Y5290800I-225000J0D01*
G01*
X38928800Y5290800D01*
G75*
G02*
X38703800Y5515800I0J225000D01*
G01*
G37*
G04 #@! TD.AperFunction*
G04 #@! TA.AperFunction,SMDPad,CuDef*
G36*
G01*
X4451800Y33409300D02*
X4451800Y32859300D01*
G75*
G02*
X4251800Y32659300I-200000J0D01*
G01*
X3851800Y32659300D01*
G75*
G02*
X3651800Y32859300I0J200000D01*
G01*
X3651800Y33409300D01*
G75*
G02*
X3851800Y33609300I200000J0D01*
G01*
X4251800Y33609300D01*
G75*
G02*
X4451800Y33409300I0J-200000D01*
G01*
G37*
G04 #@! TD.AperFunction*
G04 #@! TA.AperFunction,SMDPad,CuDef*
G36*
G01*
X6101800Y33409300D02*
X6101800Y32859300D01*
G75*
G02*
X5901800Y32659300I-200000J0D01*
G01*
X5501800Y32659300D01*
G75*
G02*
X5301800Y32859300I0J200000D01*
G01*
X5301800Y33409300D01*
G75*
G02*
X5501800Y33609300I200000J0D01*
G01*
X5901800Y33609300D01*
G75*
G02*
X6101800Y33409300I0J-200000D01*
G01*
G37*
G04 #@! TD.AperFunction*
G04 #@! TA.AperFunction,SMDPad,CuDef*
G36*
G01*
X5913800Y36099300D02*
X5363800Y36099300D01*
G75*
G02*
X5163800Y36299300I0J200000D01*
G01*
X5163800Y36699300D01*
G75*
G02*
X5363800Y36899300I200000J0D01*
G01*
X5913800Y36899300D01*
G75*
G02*
X6113800Y36699300I0J-200000D01*
G01*
X6113800Y36299300D01*
G75*
G02*
X5913800Y36099300I-200000J0D01*
G01*
G37*
G04 #@! TD.AperFunction*
G04 #@! TA.AperFunction,SMDPad,CuDef*
G36*
G01*
X5913800Y34449300D02*
X5363800Y34449300D01*
G75*
G02*
X5163800Y34649300I0J200000D01*
G01*
X5163800Y35049300D01*
G75*
G02*
X5363800Y35249300I200000J0D01*
G01*
X5913800Y35249300D01*
G75*
G02*
X6113800Y35049300I0J-200000D01*
G01*
X6113800Y34649300D01*
G75*
G02*
X5913800Y34449300I-200000J0D01*
G01*
G37*
G04 #@! TD.AperFunction*
G04 #@! TA.AperFunction,SMDPad,CuDef*
G36*
G01*
X25002300Y19997300D02*
X24502300Y19997300D01*
G75*
G02*
X24277300Y20222300I0J225000D01*
G01*
X24277300Y20672300D01*
G75*
G02*
X24502300Y20897300I225000J0D01*
G01*
X25002300Y20897300D01*
G75*
G02*
X25227300Y20672300I0J-225000D01*
G01*
X25227300Y20222300D01*
G75*
G02*
X25002300Y19997300I-225000J0D01*
G01*
G37*
G04 #@! TD.AperFunction*
G04 #@! TA.AperFunction,SMDPad,CuDef*
G36*
G01*
X25002300Y18447300D02*
X24502300Y18447300D01*
G75*
G02*
X24277300Y18672300I0J225000D01*
G01*
X24277300Y19122300D01*
G75*
G02*
X24502300Y19347300I225000J0D01*
G01*
X25002300Y19347300D01*
G75*
G02*
X25227300Y19122300I0J-225000D01*
G01*
X25227300Y18672300D01*
G75*
G02*
X25002300Y18447300I-225000J0D01*
G01*
G37*
G04 #@! TD.AperFunction*
G04 #@! TA.AperFunction,SMDPad,CuDef*
G36*
G01*
X18723800Y17315300D02*
X19223800Y17315300D01*
G75*
G02*
X19448800Y17090300I0J-225000D01*
G01*
X19448800Y16640300D01*
G75*
G02*
X19223800Y16415300I-225000J0D01*
G01*
X18723800Y16415300D01*
G75*
G02*
X18498800Y16640300I0J225000D01*
G01*
X18498800Y17090300D01*
G75*
G02*
X18723800Y17315300I225000J0D01*
G01*
G37*
G04 #@! TD.AperFunction*
G04 #@! TA.AperFunction,SMDPad,CuDef*
G36*
G01*
X18723800Y18865300D02*
X19223800Y18865300D01*
G75*
G02*
X19448800Y18640300I0J-225000D01*
G01*
X19448800Y18190300D01*
G75*
G02*
X19223800Y17965300I-225000J0D01*
G01*
X18723800Y17965300D01*
G75*
G02*
X18498800Y18190300I0J225000D01*
G01*
X18498800Y18640300D01*
G75*
G02*
X18723800Y18865300I225000J0D01*
G01*
G37*
G04 #@! TD.AperFunction*
G04 #@! TA.AperFunction,SMDPad,CuDef*
G36*
G01*
X33114800Y40479300D02*
X33114800Y41029300D01*
G75*
G02*
X33314800Y41229300I200000J0D01*
G01*
X33714800Y41229300D01*
G75*
G02*
X33914800Y41029300I0J-200000D01*
G01*
X33914800Y40479300D01*
G75*
G02*
X33714800Y40279300I-200000J0D01*
G01*
X33314800Y40279300D01*
G75*
G02*
X33114800Y40479300I0J200000D01*
G01*
G37*
G04 #@! TD.AperFunction*
G04 #@! TA.AperFunction,SMDPad,CuDef*
G36*
G01*
X31464800Y40479300D02*
X31464800Y41029300D01*
G75*
G02*
X31664800Y41229300I200000J0D01*
G01*
X32064800Y41229300D01*
G75*
G02*
X32264800Y41029300I0J-200000D01*
G01*
X32264800Y40479300D01*
G75*
G02*
X32064800Y40279300I-200000J0D01*
G01*
X31664800Y40279300D01*
G75*
G02*
X31464800Y40479300I0J200000D01*
G01*
G37*
G04 #@! TD.AperFunction*
G04 #@! TA.AperFunction,SMDPad,CuDef*
G36*
G01*
X32733800Y34256300D02*
X32733800Y34806300D01*
G75*
G02*
X32933800Y35006300I200000J0D01*
G01*
X33333800Y35006300D01*
G75*
G02*
X33533800Y34806300I0J-200000D01*
G01*
X33533800Y34256300D01*
G75*
G02*
X33333800Y34056300I-200000J0D01*
G01*
X32933800Y34056300D01*
G75*
G02*
X32733800Y34256300I0J200000D01*
G01*
G37*
G04 #@! TD.AperFunction*
G04 #@! TA.AperFunction,SMDPad,CuDef*
G36*
G01*
X31083800Y34256300D02*
X31083800Y34806300D01*
G75*
G02*
X31283800Y35006300I200000J0D01*
G01*
X31683800Y35006300D01*
G75*
G02*
X31883800Y34806300I0J-200000D01*
G01*
X31883800Y34256300D01*
G75*
G02*
X31683800Y34056300I-200000J0D01*
G01*
X31283800Y34056300D01*
G75*
G02*
X31083800Y34256300I0J200000D01*
G01*
G37*
G04 #@! TD.AperFunction*
G04 #@! TA.AperFunction,SMDPad,CuDef*
G36*
G01*
X34527300Y37523300D02*
X34027300Y37523300D01*
G75*
G02*
X33802300Y37748300I0J225000D01*
G01*
X33802300Y38198300D01*
G75*
G02*
X34027300Y38423300I225000J0D01*
G01*
X34527300Y38423300D01*
G75*
G02*
X34752300Y38198300I0J-225000D01*
G01*
X34752300Y37748300D01*
G75*
G02*
X34527300Y37523300I-225000J0D01*
G01*
G37*
G04 #@! TD.AperFunction*
G04 #@! TA.AperFunction,SMDPad,CuDef*
G36*
G01*
X34527300Y35973300D02*
X34027300Y35973300D01*
G75*
G02*
X33802300Y36198300I0J225000D01*
G01*
X33802300Y36648300D01*
G75*
G02*
X34027300Y36873300I225000J0D01*
G01*
X34527300Y36873300D01*
G75*
G02*
X34752300Y36648300I0J-225000D01*
G01*
X34752300Y36198300D01*
G75*
G02*
X34527300Y35973300I-225000J0D01*
G01*
G37*
G04 #@! TD.AperFunction*
G04 #@! TA.AperFunction,SMDPad,CuDef*
G36*
G01*
X31542800Y37523300D02*
X31042800Y37523300D01*
G75*
G02*
X30817800Y37748300I0J225000D01*
G01*
X30817800Y38198300D01*
G75*
G02*
X31042800Y38423300I225000J0D01*
G01*
X31542800Y38423300D01*
G75*
G02*
X31767800Y38198300I0J-225000D01*
G01*
X31767800Y37748300D01*
G75*
G02*
X31542800Y37523300I-225000J0D01*
G01*
G37*
G04 #@! TD.AperFunction*
G04 #@! TA.AperFunction,SMDPad,CuDef*
G36*
G01*
X31542800Y35973300D02*
X31042800Y35973300D01*
G75*
G02*
X30817800Y36198300I0J225000D01*
G01*
X30817800Y36648300D01*
G75*
G02*
X31042800Y36873300I225000J0D01*
G01*
X31542800Y36873300D01*
G75*
G02*
X31767800Y36648300I0J-225000D01*
G01*
X31767800Y36198300D01*
G75*
G02*
X31542800Y35973300I-225000J0D01*
G01*
G37*
G04 #@! TD.AperFunction*
G04 #@! TA.AperFunction,SMDPad,CuDef*
G36*
G01*
X37384800Y38158300D02*
X36884800Y38158300D01*
G75*
G02*
X36659800Y38383300I0J225000D01*
G01*
X36659800Y38833300D01*
G75*
G02*
X36884800Y39058300I225000J0D01*
G01*
X37384800Y39058300D01*
G75*
G02*
X37609800Y38833300I0J-225000D01*
G01*
X37609800Y38383300D01*
G75*
G02*
X37384800Y38158300I-225000J0D01*
G01*
G37*
G04 #@! TD.AperFunction*
G04 #@! TA.AperFunction,SMDPad,CuDef*
G36*
G01*
X37384800Y36608300D02*
X36884800Y36608300D01*
G75*
G02*
X36659800Y36833300I0J225000D01*
G01*
X36659800Y37283300D01*
G75*
G02*
X36884800Y37508300I225000J0D01*
G01*
X37384800Y37508300D01*
G75*
G02*
X37609800Y37283300I0J-225000D01*
G01*
X37609800Y36833300D01*
G75*
G02*
X37384800Y36608300I-225000J0D01*
G01*
G37*
G04 #@! TD.AperFunction*
G04 #@! TA.AperFunction,SMDPad,CuDef*
G36*
G01*
X16758800Y23232300D02*
X16758800Y23732300D01*
G75*
G02*
X16983800Y23957300I225000J0D01*
G01*
X17433800Y23957300D01*
G75*
G02*
X17658800Y23732300I0J-225000D01*
G01*
X17658800Y23232300D01*
G75*
G02*
X17433800Y23007300I-225000J0D01*
G01*
X16983800Y23007300D01*
G75*
G02*
X16758800Y23232300I0J225000D01*
G01*
G37*
G04 #@! TD.AperFunction*
G04 #@! TA.AperFunction,SMDPad,CuDef*
G36*
G01*
X15208800Y23232300D02*
X15208800Y23732300D01*
G75*
G02*
X15433800Y23957300I225000J0D01*
G01*
X15883800Y23957300D01*
G75*
G02*
X16108800Y23732300I0J-225000D01*
G01*
X16108800Y23232300D01*
G75*
G02*
X15883800Y23007300I-225000J0D01*
G01*
X15433800Y23007300D01*
G75*
G02*
X15208800Y23232300I0J225000D01*
G01*
G37*
G04 #@! TD.AperFunction*
G04 #@! TA.AperFunction,SMDPad,CuDef*
G36*
G01*
X22017800Y26093300D02*
X21517800Y26093300D01*
G75*
G02*
X21292800Y26318300I0J225000D01*
G01*
X21292800Y26768300D01*
G75*
G02*
X21517800Y26993300I225000J0D01*
G01*
X22017800Y26993300D01*
G75*
G02*
X22242800Y26768300I0J-225000D01*
G01*
X22242800Y26318300D01*
G75*
G02*
X22017800Y26093300I-225000J0D01*
G01*
G37*
G04 #@! TD.AperFunction*
G04 #@! TA.AperFunction,SMDPad,CuDef*
G36*
G01*
X22017800Y24543300D02*
X21517800Y24543300D01*
G75*
G02*
X21292800Y24768300I0J225000D01*
G01*
X21292800Y25218300D01*
G75*
G02*
X21517800Y25443300I225000J0D01*
G01*
X22017800Y25443300D01*
G75*
G02*
X22242800Y25218300I0J-225000D01*
G01*
X22242800Y24768300D01*
G75*
G02*
X22017800Y24543300I-225000J0D01*
G01*
G37*
G04 #@! TD.AperFunction*
G04 #@! TA.AperFunction,SMDPad,CuDef*
G36*
G01*
X37003800Y24569300D02*
X36503800Y24569300D01*
G75*
G02*
X36278800Y24794300I0J225000D01*
G01*
X36278800Y25244300D01*
G75*
G02*
X36503800Y25469300I225000J0D01*
G01*
X37003800Y25469300D01*
G75*
G02*
X37228800Y25244300I0J-225000D01*
G01*
X37228800Y24794300D01*
G75*
G02*
X37003800Y24569300I-225000J0D01*
G01*
G37*
G04 #@! TD.AperFunction*
G04 #@! TA.AperFunction,SMDPad,CuDef*
G36*
G01*
X37003800Y23019300D02*
X36503800Y23019300D01*
G75*
G02*
X36278800Y23244300I0J225000D01*
G01*
X36278800Y23694300D01*
G75*
G02*
X36503800Y23919300I225000J0D01*
G01*
X37003800Y23919300D01*
G75*
G02*
X37228800Y23694300I0J-225000D01*
G01*
X37228800Y23244300D01*
G75*
G02*
X37003800Y23019300I-225000J0D01*
G01*
G37*
G04 #@! TD.AperFunction*
G04 #@! TA.AperFunction,SMDPad,CuDef*
G36*
G01*
X31487300Y22204800D02*
X31987300Y22204800D01*
G75*
G02*
X32212300Y21979800I0J-225000D01*
G01*
X32212300Y21529800D01*
G75*
G02*
X31987300Y21304800I-225000J0D01*
G01*
X31487300Y21304800D01*
G75*
G02*
X31262300Y21529800I0J225000D01*
G01*
X31262300Y21979800D01*
G75*
G02*
X31487300Y22204800I225000J0D01*
G01*
G37*
G04 #@! TD.AperFunction*
G04 #@! TA.AperFunction,SMDPad,CuDef*
G36*
G01*
X31487300Y23754800D02*
X31987300Y23754800D01*
G75*
G02*
X32212300Y23529800I0J-225000D01*
G01*
X32212300Y23079800D01*
G75*
G02*
X31987300Y22854800I-225000J0D01*
G01*
X31487300Y22854800D01*
G75*
G02*
X31262300Y23079800I0J225000D01*
G01*
X31262300Y23529800D01*
G75*
G02*
X31487300Y23754800I225000J0D01*
G01*
G37*
G04 #@! TD.AperFunction*
G04 #@! TA.AperFunction,SMDPad,CuDef*
G36*
G01*
X12298800Y22589300D02*
X12298800Y22089300D01*
G75*
G02*
X12073800Y21864300I-225000J0D01*
G01*
X11623800Y21864300D01*
G75*
G02*
X11398800Y22089300I0J225000D01*
G01*
X11398800Y22589300D01*
G75*
G02*
X11623800Y22814300I225000J0D01*
G01*
X12073800Y22814300D01*
G75*
G02*
X12298800Y22589300I0J-225000D01*
G01*
G37*
G04 #@! TD.AperFunction*
G04 #@! TA.AperFunction,SMDPad,CuDef*
G36*
G01*
X13848800Y22589300D02*
X13848800Y22089300D01*
G75*
G02*
X13623800Y21864300I-225000J0D01*
G01*
X13173800Y21864300D01*
G75*
G02*
X12948800Y22089300I0J225000D01*
G01*
X12948800Y22589300D01*
G75*
G02*
X13173800Y22814300I225000J0D01*
G01*
X13623800Y22814300D01*
G75*
G02*
X13848800Y22589300I0J-225000D01*
G01*
G37*
G04 #@! TD.AperFunction*
D16*
X62578800Y28924300D03*
X62578800Y29574300D03*
X62578800Y30224300D03*
X62578800Y30874300D03*
X62578800Y31524300D03*
X62578800Y32174300D03*
X62578800Y32824300D03*
X62578800Y33474300D03*
X62578800Y34124300D03*
X62578800Y34774300D03*
X62578800Y35424300D03*
X62578800Y36074300D03*
X55378800Y36074300D03*
X55378800Y35424300D03*
X55378800Y34774300D03*
X55378800Y34124300D03*
X55378800Y33474300D03*
X55378800Y32824300D03*
X55378800Y32174300D03*
X55378800Y31524300D03*
X55378800Y30874300D03*
X55378800Y30224300D03*
X55378800Y29574300D03*
X55378800Y28924300D03*
X63975800Y3651300D03*
X63975800Y4301300D03*
X63975800Y4951300D03*
X63975800Y5601300D03*
X63975800Y6251300D03*
X63975800Y6901300D03*
X63975800Y7551300D03*
X63975800Y8201300D03*
X63975800Y8851300D03*
X63975800Y9501300D03*
X63975800Y10151300D03*
X63975800Y10801300D03*
X56775800Y10801300D03*
X56775800Y10151300D03*
X56775800Y9501300D03*
X56775800Y8851300D03*
X56775800Y8201300D03*
X56775800Y7551300D03*
X56775800Y6901300D03*
X56775800Y6251300D03*
X56775800Y5601300D03*
X56775800Y4951300D03*
X56775800Y4301300D03*
X56775800Y3651300D03*
G04 #@! TA.AperFunction,SMDPad,CuDef*
G36*
G01*
X60478800Y39207300D02*
X60478800Y39507300D01*
G75*
G02*
X60628800Y39657300I150000J0D01*
G01*
X62278800Y39657300D01*
G75*
G02*
X62428800Y39507300I0J-150000D01*
G01*
X62428800Y39207300D01*
G75*
G02*
X62278800Y39057300I-150000J0D01*
G01*
X60628800Y39057300D01*
G75*
G02*
X60478800Y39207300I0J150000D01*
G01*
G37*
G04 #@! TD.AperFunction*
G04 #@! TA.AperFunction,SMDPad,CuDef*
G36*
G01*
X60478800Y40477300D02*
X60478800Y40777300D01*
G75*
G02*
X60628800Y40927300I150000J0D01*
G01*
X62278800Y40927300D01*
G75*
G02*
X62428800Y40777300I0J-150000D01*
G01*
X62428800Y40477300D01*
G75*
G02*
X62278800Y40327300I-150000J0D01*
G01*
X60628800Y40327300D01*
G75*
G02*
X60478800Y40477300I0J150000D01*
G01*
G37*
G04 #@! TD.AperFunction*
G04 #@! TA.AperFunction,SMDPad,CuDef*
G36*
G01*
X60478800Y41747300D02*
X60478800Y42047300D01*
G75*
G02*
X60628800Y42197300I150000J0D01*
G01*
X62278800Y42197300D01*
G75*
G02*
X62428800Y42047300I0J-150000D01*
G01*
X62428800Y41747300D01*
G75*
G02*
X62278800Y41597300I-150000J0D01*
G01*
X60628800Y41597300D01*
G75*
G02*
X60478800Y41747300I0J150000D01*
G01*
G37*
G04 #@! TD.AperFunction*
G04 #@! TA.AperFunction,SMDPad,CuDef*
G36*
G01*
X60478800Y43017300D02*
X60478800Y43317300D01*
G75*
G02*
X60628800Y43467300I150000J0D01*
G01*
X62278800Y43467300D01*
G75*
G02*
X62428800Y43317300I0J-150000D01*
G01*
X62428800Y43017300D01*
G75*
G02*
X62278800Y42867300I-150000J0D01*
G01*
X60628800Y42867300D01*
G75*
G02*
X60478800Y43017300I0J150000D01*
G01*
G37*
G04 #@! TD.AperFunction*
G04 #@! TA.AperFunction,SMDPad,CuDef*
G36*
G01*
X55528800Y43017300D02*
X55528800Y43317300D01*
G75*
G02*
X55678800Y43467300I150000J0D01*
G01*
X57328800Y43467300D01*
G75*
G02*
X57478800Y43317300I0J-150000D01*
G01*
X57478800Y43017300D01*
G75*
G02*
X57328800Y42867300I-150000J0D01*
G01*
X55678800Y42867300D01*
G75*
G02*
X55528800Y43017300I0J150000D01*
G01*
G37*
G04 #@! TD.AperFunction*
G04 #@! TA.AperFunction,SMDPad,CuDef*
G36*
G01*
X55528800Y41747300D02*
X55528800Y42047300D01*
G75*
G02*
X55678800Y42197300I150000J0D01*
G01*
X57328800Y42197300D01*
G75*
G02*
X57478800Y42047300I0J-150000D01*
G01*
X57478800Y41747300D01*
G75*
G02*
X57328800Y41597300I-150000J0D01*
G01*
X55678800Y41597300D01*
G75*
G02*
X55528800Y41747300I0J150000D01*
G01*
G37*
G04 #@! TD.AperFunction*
G04 #@! TA.AperFunction,SMDPad,CuDef*
G36*
G01*
X55528800Y40477300D02*
X55528800Y40777300D01*
G75*
G02*
X55678800Y40927300I150000J0D01*
G01*
X57328800Y40927300D01*
G75*
G02*
X57478800Y40777300I0J-150000D01*
G01*
X57478800Y40477300D01*
G75*
G02*
X57328800Y40327300I-150000J0D01*
G01*
X55678800Y40327300D01*
G75*
G02*
X55528800Y40477300I0J150000D01*
G01*
G37*
G04 #@! TD.AperFunction*
G04 #@! TA.AperFunction,SMDPad,CuDef*
G36*
G01*
X55528800Y39207300D02*
X55528800Y39507300D01*
G75*
G02*
X55678800Y39657300I150000J0D01*
G01*
X57328800Y39657300D01*
G75*
G02*
X57478800Y39507300I0J-150000D01*
G01*
X57478800Y39207300D01*
G75*
G02*
X57328800Y39057300I-150000J0D01*
G01*
X55678800Y39057300D01*
G75*
G02*
X55528800Y39207300I0J150000D01*
G01*
G37*
G04 #@! TD.AperFunction*
G04 #@! TA.AperFunction,SMDPad,CuDef*
G36*
G01*
X16008800Y25408300D02*
X16008800Y24858300D01*
G75*
G02*
X15808800Y24658300I-200000J0D01*
G01*
X15408800Y24658300D01*
G75*
G02*
X15208800Y24858300I0J200000D01*
G01*
X15208800Y25408300D01*
G75*
G02*
X15408800Y25608300I200000J0D01*
G01*
X15808800Y25608300D01*
G75*
G02*
X16008800Y25408300I0J-200000D01*
G01*
G37*
G04 #@! TD.AperFunction*
G04 #@! TA.AperFunction,SMDPad,CuDef*
G36*
G01*
X17658800Y25408300D02*
X17658800Y24858300D01*
G75*
G02*
X17458800Y24658300I-200000J0D01*
G01*
X17058800Y24658300D01*
G75*
G02*
X16858800Y24858300I0J200000D01*
G01*
X16858800Y25408300D01*
G75*
G02*
X17058800Y25608300I200000J0D01*
G01*
X17458800Y25608300D01*
G75*
G02*
X17658800Y25408300I0J-200000D01*
G01*
G37*
G04 #@! TD.AperFunction*
G04 #@! TA.AperFunction,SMDPad,CuDef*
G36*
G01*
X13999800Y34233300D02*
X14549800Y34233300D01*
G75*
G02*
X14749800Y34033300I0J-200000D01*
G01*
X14749800Y33633300D01*
G75*
G02*
X14549800Y33433300I-200000J0D01*
G01*
X13999800Y33433300D01*
G75*
G02*
X13799800Y33633300I0J200000D01*
G01*
X13799800Y34033300D01*
G75*
G02*
X13999800Y34233300I200000J0D01*
G01*
G37*
G04 #@! TD.AperFunction*
G04 #@! TA.AperFunction,SMDPad,CuDef*
G36*
G01*
X13999800Y35883300D02*
X14549800Y35883300D01*
G75*
G02*
X14749800Y35683300I0J-200000D01*
G01*
X14749800Y35283300D01*
G75*
G02*
X14549800Y35083300I-200000J0D01*
G01*
X13999800Y35083300D01*
G75*
G02*
X13799800Y35283300I0J200000D01*
G01*
X13799800Y35683300D01*
G75*
G02*
X13999800Y35883300I200000J0D01*
G01*
G37*
G04 #@! TD.AperFunction*
G04 #@! TA.AperFunction,SMDPad,CuDef*
G36*
G01*
X13999800Y31058300D02*
X14549800Y31058300D01*
G75*
G02*
X14749800Y30858300I0J-200000D01*
G01*
X14749800Y30458300D01*
G75*
G02*
X14549800Y30258300I-200000J0D01*
G01*
X13999800Y30258300D01*
G75*
G02*
X13799800Y30458300I0J200000D01*
G01*
X13799800Y30858300D01*
G75*
G02*
X13999800Y31058300I200000J0D01*
G01*
G37*
G04 #@! TD.AperFunction*
G04 #@! TA.AperFunction,SMDPad,CuDef*
G36*
G01*
X13999800Y32708300D02*
X14549800Y32708300D01*
G75*
G02*
X14749800Y32508300I0J-200000D01*
G01*
X14749800Y32108300D01*
G75*
G02*
X14549800Y31908300I-200000J0D01*
G01*
X13999800Y31908300D01*
G75*
G02*
X13799800Y32108300I0J200000D01*
G01*
X13799800Y32508300D01*
G75*
G02*
X13999800Y32708300I200000J0D01*
G01*
G37*
G04 #@! TD.AperFunction*
G04 #@! TA.AperFunction,SMDPad,CuDef*
G36*
G01*
X21238800Y36074800D02*
X21788800Y36074800D01*
G75*
G02*
X21988800Y35874800I0J-200000D01*
G01*
X21988800Y35474800D01*
G75*
G02*
X21788800Y35274800I-200000J0D01*
G01*
X21238800Y35274800D01*
G75*
G02*
X21038800Y35474800I0J200000D01*
G01*
X21038800Y35874800D01*
G75*
G02*
X21238800Y36074800I200000J0D01*
G01*
G37*
G04 #@! TD.AperFunction*
G04 #@! TA.AperFunction,SMDPad,CuDef*
G36*
G01*
X21238800Y37724800D02*
X21788800Y37724800D01*
G75*
G02*
X21988800Y37524800I0J-200000D01*
G01*
X21988800Y37124800D01*
G75*
G02*
X21788800Y36924800I-200000J0D01*
G01*
X21238800Y36924800D01*
G75*
G02*
X21038800Y37124800I0J200000D01*
G01*
X21038800Y37524800D01*
G75*
G02*
X21238800Y37724800I200000J0D01*
G01*
G37*
G04 #@! TD.AperFunction*
G04 #@! TA.AperFunction,SMDPad,CuDef*
G36*
G01*
X21238800Y32772800D02*
X21788800Y32772800D01*
G75*
G02*
X21988800Y32572800I0J-200000D01*
G01*
X21988800Y32172800D01*
G75*
G02*
X21788800Y31972800I-200000J0D01*
G01*
X21238800Y31972800D01*
G75*
G02*
X21038800Y32172800I0J200000D01*
G01*
X21038800Y32572800D01*
G75*
G02*
X21238800Y32772800I200000J0D01*
G01*
G37*
G04 #@! TD.AperFunction*
G04 #@! TA.AperFunction,SMDPad,CuDef*
G36*
G01*
X21238800Y34422800D02*
X21788800Y34422800D01*
G75*
G02*
X21988800Y34222800I0J-200000D01*
G01*
X21988800Y33822800D01*
G75*
G02*
X21788800Y33622800I-200000J0D01*
G01*
X21238800Y33622800D01*
G75*
G02*
X21038800Y33822800I0J200000D01*
G01*
X21038800Y34222800D01*
G75*
G02*
X21238800Y34422800I200000J0D01*
G01*
G37*
G04 #@! TD.AperFunction*
G04 #@! TA.AperFunction,SMDPad,CuDef*
G36*
G01*
X73029400Y36443100D02*
X73579400Y36443100D01*
G75*
G02*
X73779400Y36243100I0J-200000D01*
G01*
X73779400Y35843100D01*
G75*
G02*
X73579400Y35643100I-200000J0D01*
G01*
X73029400Y35643100D01*
G75*
G02*
X72829400Y35843100I0J200000D01*
G01*
X72829400Y36243100D01*
G75*
G02*
X73029400Y36443100I200000J0D01*
G01*
G37*
G04 #@! TD.AperFunction*
G04 #@! TA.AperFunction,SMDPad,CuDef*
G36*
G01*
X73029400Y38093100D02*
X73579400Y38093100D01*
G75*
G02*
X73779400Y37893100I0J-200000D01*
G01*
X73779400Y37493100D01*
G75*
G02*
X73579400Y37293100I-200000J0D01*
G01*
X73029400Y37293100D01*
G75*
G02*
X72829400Y37493100I0J200000D01*
G01*
X72829400Y37893100D01*
G75*
G02*
X73029400Y38093100I200000J0D01*
G01*
G37*
G04 #@! TD.AperFunction*
G04 #@! TA.AperFunction,SMDPad,CuDef*
G36*
G01*
X70006800Y36455800D02*
X70556800Y36455800D01*
G75*
G02*
X70756800Y36255800I0J-200000D01*
G01*
X70756800Y35855800D01*
G75*
G02*
X70556800Y35655800I-200000J0D01*
G01*
X70006800Y35655800D01*
G75*
G02*
X69806800Y35855800I0J200000D01*
G01*
X69806800Y36255800D01*
G75*
G02*
X70006800Y36455800I200000J0D01*
G01*
G37*
G04 #@! TD.AperFunction*
G04 #@! TA.AperFunction,SMDPad,CuDef*
G36*
G01*
X70006800Y38105800D02*
X70556800Y38105800D01*
G75*
G02*
X70756800Y37905800I0J-200000D01*
G01*
X70756800Y37505800D01*
G75*
G02*
X70556800Y37305800I-200000J0D01*
G01*
X70006800Y37305800D01*
G75*
G02*
X69806800Y37505800I0J200000D01*
G01*
X69806800Y37905800D01*
G75*
G02*
X70006800Y38105800I200000J0D01*
G01*
G37*
G04 #@! TD.AperFunction*
G04 #@! TA.AperFunction,SMDPad,CuDef*
G36*
G01*
X67022300Y36455800D02*
X67572300Y36455800D01*
G75*
G02*
X67772300Y36255800I0J-200000D01*
G01*
X67772300Y35855800D01*
G75*
G02*
X67572300Y35655800I-200000J0D01*
G01*
X67022300Y35655800D01*
G75*
G02*
X66822300Y35855800I0J200000D01*
G01*
X66822300Y36255800D01*
G75*
G02*
X67022300Y36455800I200000J0D01*
G01*
G37*
G04 #@! TD.AperFunction*
G04 #@! TA.AperFunction,SMDPad,CuDef*
G36*
G01*
X67022300Y38105800D02*
X67572300Y38105800D01*
G75*
G02*
X67772300Y37905800I0J-200000D01*
G01*
X67772300Y37505800D01*
G75*
G02*
X67572300Y37305800I-200000J0D01*
G01*
X67022300Y37305800D01*
G75*
G02*
X66822300Y37505800I0J200000D01*
G01*
X66822300Y37905800D01*
G75*
G02*
X67022300Y38105800I200000J0D01*
G01*
G37*
G04 #@! TD.AperFunction*
G04 #@! TA.AperFunction,SMDPad,CuDef*
G36*
G01*
X25394800Y2531300D02*
X25394800Y3031300D01*
G75*
G02*
X25619800Y3256300I225000J0D01*
G01*
X26069800Y3256300D01*
G75*
G02*
X26294800Y3031300I0J-225000D01*
G01*
X26294800Y2531300D01*
G75*
G02*
X26069800Y2306300I-225000J0D01*
G01*
X25619800Y2306300D01*
G75*
G02*
X25394800Y2531300I0J225000D01*
G01*
G37*
G04 #@! TD.AperFunction*
G04 #@! TA.AperFunction,SMDPad,CuDef*
G36*
G01*
X23844800Y2531300D02*
X23844800Y3031300D01*
G75*
G02*
X24069800Y3256300I225000J0D01*
G01*
X24519800Y3256300D01*
G75*
G02*
X24744800Y3031300I0J-225000D01*
G01*
X24744800Y2531300D01*
G75*
G02*
X24519800Y2306300I-225000J0D01*
G01*
X24069800Y2306300D01*
G75*
G02*
X23844800Y2531300I0J225000D01*
G01*
G37*
G04 #@! TD.AperFunction*
G04 #@! TA.AperFunction,SMDPad,CuDef*
G36*
G01*
X28300800Y3031300D02*
X28300800Y2531300D01*
G75*
G02*
X28075800Y2306300I-225000J0D01*
G01*
X27625800Y2306300D01*
G75*
G02*
X27400800Y2531300I0J225000D01*
G01*
X27400800Y3031300D01*
G75*
G02*
X27625800Y3256300I225000J0D01*
G01*
X28075800Y3256300D01*
G75*
G02*
X28300800Y3031300I0J-225000D01*
G01*
G37*
G04 #@! TD.AperFunction*
G04 #@! TA.AperFunction,SMDPad,CuDef*
G36*
G01*
X29850800Y3031300D02*
X29850800Y2531300D01*
G75*
G02*
X29625800Y2306300I-225000J0D01*
G01*
X29175800Y2306300D01*
G75*
G02*
X28950800Y2531300I0J225000D01*
G01*
X28950800Y3031300D01*
G75*
G02*
X29175800Y3256300I225000J0D01*
G01*
X29625800Y3256300D01*
G75*
G02*
X29850800Y3031300I0J-225000D01*
G01*
G37*
G04 #@! TD.AperFunction*
G04 #@! TA.AperFunction,SMDPad,CuDef*
G36*
G01*
X16310800Y39794300D02*
X16810800Y39794300D01*
G75*
G02*
X17035800Y39569300I0J-225000D01*
G01*
X17035800Y39119300D01*
G75*
G02*
X16810800Y38894300I-225000J0D01*
G01*
X16310800Y38894300D01*
G75*
G02*
X16085800Y39119300I0J225000D01*
G01*
X16085800Y39569300D01*
G75*
G02*
X16310800Y39794300I225000J0D01*
G01*
G37*
G04 #@! TD.AperFunction*
G04 #@! TA.AperFunction,SMDPad,CuDef*
G36*
G01*
X16310800Y41344300D02*
X16810800Y41344300D01*
G75*
G02*
X17035800Y41119300I0J-225000D01*
G01*
X17035800Y40669300D01*
G75*
G02*
X16810800Y40444300I-225000J0D01*
G01*
X16310800Y40444300D01*
G75*
G02*
X16085800Y40669300I0J225000D01*
G01*
X16085800Y41119300D01*
G75*
G02*
X16310800Y41344300I225000J0D01*
G01*
G37*
G04 #@! TD.AperFunction*
G04 #@! TA.AperFunction,SMDPad,CuDef*
G36*
G01*
X13389800Y39794300D02*
X13889800Y39794300D01*
G75*
G02*
X14114800Y39569300I0J-225000D01*
G01*
X14114800Y39119300D01*
G75*
G02*
X13889800Y38894300I-225000J0D01*
G01*
X13389800Y38894300D01*
G75*
G02*
X13164800Y39119300I0J225000D01*
G01*
X13164800Y39569300D01*
G75*
G02*
X13389800Y39794300I225000J0D01*
G01*
G37*
G04 #@! TD.AperFunction*
G04 #@! TA.AperFunction,SMDPad,CuDef*
G36*
G01*
X13389800Y41344300D02*
X13889800Y41344300D01*
G75*
G02*
X14114800Y41119300I0J-225000D01*
G01*
X14114800Y40669300D01*
G75*
G02*
X13889800Y40444300I-225000J0D01*
G01*
X13389800Y40444300D01*
G75*
G02*
X13164800Y40669300I0J225000D01*
G01*
X13164800Y41119300D01*
G75*
G02*
X13389800Y41344300I225000J0D01*
G01*
G37*
G04 #@! TD.AperFunction*
G04 #@! TA.AperFunction,SMDPad,CuDef*
G36*
G01*
X41564799Y36376300D02*
X42864801Y36376300D01*
G75*
G02*
X43114800Y36126301I0J-249999D01*
G01*
X43114800Y35476299D01*
G75*
G02*
X42864801Y35226300I-249999J0D01*
G01*
X41564799Y35226300D01*
G75*
G02*
X41314800Y35476299I0J249999D01*
G01*
X41314800Y36126301D01*
G75*
G02*
X41564799Y36376300I249999J0D01*
G01*
G37*
G04 #@! TD.AperFunction*
G04 #@! TA.AperFunction,SMDPad,CuDef*
G36*
G01*
X41564799Y39326300D02*
X42864801Y39326300D01*
G75*
G02*
X43114800Y39076301I0J-249999D01*
G01*
X43114800Y38426299D01*
G75*
G02*
X42864801Y38176300I-249999J0D01*
G01*
X41564799Y38176300D01*
G75*
G02*
X41314800Y38426299I0J249999D01*
G01*
X41314800Y39076301D01*
G75*
G02*
X41564799Y39326300I249999J0D01*
G01*
G37*
G04 #@! TD.AperFunction*
G04 #@! TA.AperFunction,SMDPad,CuDef*
G36*
G01*
X41564799Y41505300D02*
X42864801Y41505300D01*
G75*
G02*
X43114800Y41255301I0J-249999D01*
G01*
X43114800Y40605299D01*
G75*
G02*
X42864801Y40355300I-249999J0D01*
G01*
X41564799Y40355300D01*
G75*
G02*
X41314800Y40605299I0J249999D01*
G01*
X41314800Y41255301D01*
G75*
G02*
X41564799Y41505300I249999J0D01*
G01*
G37*
G04 #@! TD.AperFunction*
G04 #@! TA.AperFunction,SMDPad,CuDef*
G36*
G01*
X41564799Y44455300D02*
X42864801Y44455300D01*
G75*
G02*
X43114800Y44205301I0J-249999D01*
G01*
X43114800Y43555299D01*
G75*
G02*
X42864801Y43305300I-249999J0D01*
G01*
X41564799Y43305300D01*
G75*
G02*
X41314800Y43555299I0J249999D01*
G01*
X41314800Y44205301D01*
G75*
G02*
X41564799Y44455300I249999J0D01*
G01*
G37*
G04 #@! TD.AperFunction*
G04 #@! TA.AperFunction,SMDPad,CuDef*
G36*
G01*
X45266800Y37000300D02*
X45766800Y37000300D01*
G75*
G02*
X45991800Y36775300I0J-225000D01*
G01*
X45991800Y36325300D01*
G75*
G02*
X45766800Y36100300I-225000J0D01*
G01*
X45266800Y36100300D01*
G75*
G02*
X45041800Y36325300I0J225000D01*
G01*
X45041800Y36775300D01*
G75*
G02*
X45266800Y37000300I225000J0D01*
G01*
G37*
G04 #@! TD.AperFunction*
G04 #@! TA.AperFunction,SMDPad,CuDef*
G36*
G01*
X45266800Y38550300D02*
X45766800Y38550300D01*
G75*
G02*
X45991800Y38325300I0J-225000D01*
G01*
X45991800Y37875300D01*
G75*
G02*
X45766800Y37650300I-225000J0D01*
G01*
X45266800Y37650300D01*
G75*
G02*
X45041800Y37875300I0J225000D01*
G01*
X45041800Y38325300D01*
G75*
G02*
X45266800Y38550300I225000J0D01*
G01*
G37*
G04 #@! TD.AperFunction*
G04 #@! TA.AperFunction,SMDPad,CuDef*
G36*
G01*
X47798800Y37650300D02*
X47298800Y37650300D01*
G75*
G02*
X47073800Y37875300I0J225000D01*
G01*
X47073800Y38325300D01*
G75*
G02*
X47298800Y38550300I225000J0D01*
G01*
X47798800Y38550300D01*
G75*
G02*
X48023800Y38325300I0J-225000D01*
G01*
X48023800Y37875300D01*
G75*
G02*
X47798800Y37650300I-225000J0D01*
G01*
G37*
G04 #@! TD.AperFunction*
G04 #@! TA.AperFunction,SMDPad,CuDef*
G36*
G01*
X47798800Y36100300D02*
X47298800Y36100300D01*
G75*
G02*
X47073800Y36325300I0J225000D01*
G01*
X47073800Y36775300D01*
G75*
G02*
X47298800Y37000300I225000J0D01*
G01*
X47798800Y37000300D01*
G75*
G02*
X48023800Y36775300I0J-225000D01*
G01*
X48023800Y36325300D01*
G75*
G02*
X47798800Y36100300I-225000J0D01*
G01*
G37*
G04 #@! TD.AperFunction*
G04 #@! TA.AperFunction,SMDPad,CuDef*
G36*
G01*
X27665800Y19287300D02*
X27665800Y18787300D01*
G75*
G02*
X27440800Y18562300I-225000J0D01*
G01*
X26990800Y18562300D01*
G75*
G02*
X26765800Y18787300I0J225000D01*
G01*
X26765800Y19287300D01*
G75*
G02*
X26990800Y19512300I225000J0D01*
G01*
X27440800Y19512300D01*
G75*
G02*
X27665800Y19287300I0J-225000D01*
G01*
G37*
G04 #@! TD.AperFunction*
G04 #@! TA.AperFunction,SMDPad,CuDef*
G36*
G01*
X29215800Y19287300D02*
X29215800Y18787300D01*
G75*
G02*
X28990800Y18562300I-225000J0D01*
G01*
X28540800Y18562300D01*
G75*
G02*
X28315800Y18787300I0J225000D01*
G01*
X28315800Y19287300D01*
G75*
G02*
X28540800Y19512300I225000J0D01*
G01*
X28990800Y19512300D01*
G75*
G02*
X29215800Y19287300I0J-225000D01*
G01*
G37*
G04 #@! TD.AperFunction*
G04 #@! TA.AperFunction,SMDPad,CuDef*
G36*
G01*
X27665800Y20938300D02*
X27665800Y20438300D01*
G75*
G02*
X27440800Y20213300I-225000J0D01*
G01*
X26990800Y20213300D01*
G75*
G02*
X26765800Y20438300I0J225000D01*
G01*
X26765800Y20938300D01*
G75*
G02*
X26990800Y21163300I225000J0D01*
G01*
X27440800Y21163300D01*
G75*
G02*
X27665800Y20938300I0J-225000D01*
G01*
G37*
G04 #@! TD.AperFunction*
G04 #@! TA.AperFunction,SMDPad,CuDef*
G36*
G01*
X29215800Y20938300D02*
X29215800Y20438300D01*
G75*
G02*
X28990800Y20213300I-225000J0D01*
G01*
X28540800Y20213300D01*
G75*
G02*
X28315800Y20438300I0J225000D01*
G01*
X28315800Y20938300D01*
G75*
G02*
X28540800Y21163300I225000J0D01*
G01*
X28990800Y21163300D01*
G75*
G02*
X29215800Y20938300I0J-225000D01*
G01*
G37*
G04 #@! TD.AperFunction*
G04 #@! TA.AperFunction,SMDPad,CuDef*
G36*
G01*
X9579800Y34206300D02*
X10079800Y34206300D01*
G75*
G02*
X10304800Y33981300I0J-225000D01*
G01*
X10304800Y33531300D01*
G75*
G02*
X10079800Y33306300I-225000J0D01*
G01*
X9579800Y33306300D01*
G75*
G02*
X9354800Y33531300I0J225000D01*
G01*
X9354800Y33981300D01*
G75*
G02*
X9579800Y34206300I225000J0D01*
G01*
G37*
G04 #@! TD.AperFunction*
G04 #@! TA.AperFunction,SMDPad,CuDef*
G36*
G01*
X9579800Y35756300D02*
X10079800Y35756300D01*
G75*
G02*
X10304800Y35531300I0J-225000D01*
G01*
X10304800Y35081300D01*
G75*
G02*
X10079800Y34856300I-225000J0D01*
G01*
X9579800Y34856300D01*
G75*
G02*
X9354800Y35081300I0J225000D01*
G01*
X9354800Y35531300D01*
G75*
G02*
X9579800Y35756300I225000J0D01*
G01*
G37*
G04 #@! TD.AperFunction*
G04 #@! TA.AperFunction,SMDPad,CuDef*
G36*
G01*
X51362800Y4742300D02*
X51862800Y4742300D01*
G75*
G02*
X52087800Y4517300I0J-225000D01*
G01*
X52087800Y4067300D01*
G75*
G02*
X51862800Y3842300I-225000J0D01*
G01*
X51362800Y3842300D01*
G75*
G02*
X51137800Y4067300I0J225000D01*
G01*
X51137800Y4517300D01*
G75*
G02*
X51362800Y4742300I225000J0D01*
G01*
G37*
G04 #@! TD.AperFunction*
G04 #@! TA.AperFunction,SMDPad,CuDef*
G36*
G01*
X51362800Y6292300D02*
X51862800Y6292300D01*
G75*
G02*
X52087800Y6067300I0J-225000D01*
G01*
X52087800Y5617300D01*
G75*
G02*
X51862800Y5392300I-225000J0D01*
G01*
X51362800Y5392300D01*
G75*
G02*
X51137800Y5617300I0J225000D01*
G01*
X51137800Y6067300D01*
G75*
G02*
X51362800Y6292300I225000J0D01*
G01*
G37*
G04 #@! TD.AperFunction*
G04 #@! TA.AperFunction,SMDPad,CuDef*
G36*
G01*
X48441800Y4742300D02*
X48941800Y4742300D01*
G75*
G02*
X49166800Y4517300I0J-225000D01*
G01*
X49166800Y4067300D01*
G75*
G02*
X48941800Y3842300I-225000J0D01*
G01*
X48441800Y3842300D01*
G75*
G02*
X48216800Y4067300I0J225000D01*
G01*
X48216800Y4517300D01*
G75*
G02*
X48441800Y4742300I225000J0D01*
G01*
G37*
G04 #@! TD.AperFunction*
G04 #@! TA.AperFunction,SMDPad,CuDef*
G36*
G01*
X48441800Y6292300D02*
X48941800Y6292300D01*
G75*
G02*
X49166800Y6067300I0J-225000D01*
G01*
X49166800Y5617300D01*
G75*
G02*
X48941800Y5392300I-225000J0D01*
G01*
X48441800Y5392300D01*
G75*
G02*
X48216800Y5617300I0J225000D01*
G01*
X48216800Y6067300D01*
G75*
G02*
X48441800Y6292300I225000J0D01*
G01*
G37*
G04 #@! TD.AperFunction*
G04 #@! TA.AperFunction,SMDPad,CuDef*
G36*
G01*
X17636300Y36824800D02*
X17136300Y36824800D01*
G75*
G02*
X16911300Y37049800I0J225000D01*
G01*
X16911300Y37499800D01*
G75*
G02*
X17136300Y37724800I225000J0D01*
G01*
X17636300Y37724800D01*
G75*
G02*
X17861300Y37499800I0J-225000D01*
G01*
X17861300Y37049800D01*
G75*
G02*
X17636300Y36824800I-225000J0D01*
G01*
G37*
G04 #@! TD.AperFunction*
G04 #@! TA.AperFunction,SMDPad,CuDef*
G36*
G01*
X17636300Y35274800D02*
X17136300Y35274800D01*
G75*
G02*
X16911300Y35499800I0J225000D01*
G01*
X16911300Y35949800D01*
G75*
G02*
X17136300Y36174800I225000J0D01*
G01*
X17636300Y36174800D01*
G75*
G02*
X17861300Y35949800I0J-225000D01*
G01*
X17861300Y35499800D01*
G75*
G02*
X17636300Y35274800I-225000J0D01*
G01*
G37*
G04 #@! TD.AperFunction*
G04 #@! TA.AperFunction,SMDPad,CuDef*
G36*
G01*
X17136300Y32872800D02*
X17636300Y32872800D01*
G75*
G02*
X17861300Y32647800I0J-225000D01*
G01*
X17861300Y32197800D01*
G75*
G02*
X17636300Y31972800I-225000J0D01*
G01*
X17136300Y31972800D01*
G75*
G02*
X16911300Y32197800I0J225000D01*
G01*
X16911300Y32647800D01*
G75*
G02*
X17136300Y32872800I225000J0D01*
G01*
G37*
G04 #@! TD.AperFunction*
G04 #@! TA.AperFunction,SMDPad,CuDef*
G36*
G01*
X17136300Y34422800D02*
X17636300Y34422800D01*
G75*
G02*
X17861300Y34197800I0J-225000D01*
G01*
X17861300Y33747800D01*
G75*
G02*
X17636300Y33522800I-225000J0D01*
G01*
X17136300Y33522800D01*
G75*
G02*
X16911300Y33747800I0J225000D01*
G01*
X16911300Y34197800D01*
G75*
G02*
X17136300Y34422800I225000J0D01*
G01*
G37*
G04 #@! TD.AperFunction*
D17*
X22646800Y11037200D03*
X58660700Y10065000D03*
X63907200Y32254400D03*
X17060500Y9583600D03*
X33285300Y23210300D03*
X21226500Y21133400D03*
X68185800Y3384700D03*
X26656800Y6864600D03*
X15672300Y15569600D03*
X14916900Y25825200D03*
X13365100Y35145800D03*
X22437900Y32372800D03*
X7518400Y35199900D03*
X20056500Y44032300D03*
X13554100Y44291900D03*
X43570600Y39140900D03*
X40579100Y44123700D03*
X6598500Y38827200D03*
X21063100Y4870000D03*
X15686100Y6801600D03*
X24453000Y27413100D03*
X18195600Y17586900D03*
X26706300Y3350300D03*
X30284400Y2803800D03*
X15641500Y40932000D03*
X14572600Y40447100D03*
X48456800Y36462100D03*
X50691600Y4051300D03*
X41981500Y18580500D03*
X28151100Y8537300D03*
X28144800Y9837300D03*
X45795900Y18809300D03*
X76606400Y9880900D03*
X13584700Y28875200D03*
X34979300Y35721300D03*
X30368300Y36562700D03*
X16368700Y22772400D03*
X20843000Y25134400D03*
X35346200Y24186600D03*
X30429600Y23214200D03*
X6936600Y25395600D03*
X4627200Y38185200D03*
X5139800Y9610400D03*
X18403500Y4215200D03*
X23547800Y17419700D03*
X24750800Y16004000D03*
X12333300Y32415200D03*
X56503800Y43910500D03*
X7525100Y8483900D03*
X24175400Y42831200D03*
X3165800Y35804300D03*
X67675600Y34977800D03*
X70036700Y5760500D03*
X68107800Y7402900D03*
X74464600Y34611800D03*
X71032500Y34747800D03*
X33862800Y15770600D03*
X27771300Y42998800D03*
X45672700Y23947700D03*
X23705600Y12151700D03*
X17967900Y11811500D03*
X32227800Y32326200D03*
X47649200Y4051300D03*
X44270100Y37359400D03*
X50447800Y26774700D03*
X6667500Y20840700D03*
X6527800Y17843500D03*
X10261602Y18897600D03*
X10083800Y22339300D03*
X72955826Y33585736D03*
X68084231Y33435231D03*
X65218968Y5601300D03*
X56204711Y36076344D03*
X55090700Y40543179D03*
X59807922Y41408722D03*
X42379900Y42430700D03*
X63461900Y44691300D03*
X73956300Y36759000D03*
X68592700Y8941300D03*
X68055000Y9972500D03*
X50104900Y25946900D03*
X20741100Y6192600D03*
X76474000Y8883000D03*
X12737800Y30492400D03*
X9710600Y26118500D03*
X19525700Y4838000D03*
X61968000Y6857500D03*
X70890700Y4551400D03*
X49839500Y3101300D03*
X49855400Y4290700D03*
D18*
X65582800Y23863300D03*
D19*
X70662800Y24625300D03*
X74028300Y8813800D03*
X70726300Y21844000D03*
D17*
X47783200Y5637990D03*
X53214066Y37336081D03*
X56810683Y36890000D03*
X35843300Y43540010D03*
X70484700Y33341200D03*
X67248300Y6218700D03*
X53777800Y34692600D03*
X42214800Y34782800D03*
X26963400Y2394700D03*
X9123000Y34599500D03*
X36217900Y9897900D03*
X6927400Y21835300D03*
X24750800Y21349400D03*
X45943900Y16729000D03*
X15860800Y36662000D03*
X38164200Y24068000D03*
X18252700Y24265000D03*
X35030800Y37320400D03*
X39592900Y16949300D03*
X33492000Y43941800D03*
X27322200Y11742300D03*
X48020600Y24523300D03*
X23697000Y10707300D03*
X27567500Y6276900D03*
X44611600Y36348300D03*
X49285522Y43567822D03*
X40884300Y40990400D03*
X51314200Y38688000D03*
X42899400Y14722800D03*
X49362400Y24889800D03*
X24294800Y1860200D03*
X17909500Y31387000D03*
X41994000Y17677500D03*
X30497300Y9236000D03*
X30389600Y37771500D03*
X20855200Y26532400D03*
X19800800Y16001100D03*
X31802300Y20780000D03*
X22457100Y34460500D03*
X25274100Y33129700D03*
X20320300Y34893400D03*
X22464800Y29561300D03*
X32684100Y37257200D03*
X33811900Y17240300D03*
X27764400Y43801600D03*
X21605200Y11545600D03*
X17992300Y10965300D03*
X22836300Y4739300D03*
X44591800Y38072800D03*
X6468196Y23344790D03*
X43345100Y42887900D03*
X49756200Y23887700D03*
X48299300Y23605700D03*
X49818900Y23149000D03*
X50490500Y22202900D03*
X14342900Y28670500D03*
X17954600Y44100600D03*
X19084700Y37665300D03*
X65623800Y39068800D03*
X52638400Y3056300D03*
X48706900Y14534700D03*
X26912600Y41257400D03*
X49841700Y5025800D03*
X62193800Y2915090D03*
X59817000Y38988998D03*
X61137800Y44742100D03*
X31965900Y41846500D03*
X68656200Y39075400D03*
X12988700Y38141000D03*
X30148700Y21716700D03*
X32718200Y16994200D03*
X36710300Y18949400D03*
X33598100Y15009800D03*
X16932200Y6992800D03*
X19431900Y3607400D03*
X39103800Y7222500D03*
X50804710Y17757161D03*
X46008800Y15325100D03*
X46963200Y14826300D03*
X30372500Y511700D03*
X6464300Y24523700D03*
X6832600Y11341100D03*
X10646500Y24480400D03*
X16107500Y5761800D03*
X9194800Y8458200D03*
X65790710Y35371000D03*
X69319300Y36349000D03*
X65790710Y34395500D03*
X58538278Y34195171D03*
X66153300Y33563500D03*
X56961040Y34262469D03*
X50387500Y20793900D03*
X65793300Y32276600D03*
X57683100Y33319000D03*
X67094200Y32797700D03*
X59654100Y33565200D03*
X20679500Y33153300D03*
X13370700Y33369900D03*
X18586600Y15217500D03*
X33210500Y47268100D03*
X17526000Y20586700D03*
X10607757Y19645734D03*
X9474200Y16395700D03*
X13957300Y16954500D03*
X33258000Y21839300D03*
X46742600Y41111200D03*
X48895400Y39878900D03*
X10526200Y40105800D03*
X13833100Y37966900D03*
X3933800Y31736000D03*
X4495800Y30425800D03*
X9639300Y38519100D03*
X25455100Y4552100D03*
X21680600Y7308600D03*
X51919637Y15093931D03*
X51621300Y32686900D03*
X30237600Y13805500D03*
X27331200Y13008300D03*
X22148200Y9679400D03*
X21597000Y13042300D03*
X49811126Y6434902D03*
X30546400Y40116300D03*
X37981989Y42426909D03*
X49150700Y42076500D03*
X36784800Y13129600D03*
X40136600Y13229000D03*
X39467200Y18701200D03*
X38235000Y16049700D03*
X23637800Y9141000D03*
X30820000Y7498400D03*
X31192000Y3042200D03*
X26727000Y15178000D03*
X37912600Y5799800D03*
X44483790Y3692519D03*
X21792000Y8587300D03*
X45508700Y14208200D03*
X46825600Y12094700D03*
X62238800Y8707000D03*
X50925421Y14603421D03*
X5842000Y28359100D03*
X4978400Y22555200D03*
X12033600Y18035700D03*
X47813700Y35667400D03*
X48301986Y42776190D03*
X23284800Y23571900D03*
X25450800Y27160600D03*
X12625700Y23116200D03*
X14432300Y21305800D03*
X35706100Y37706300D03*
X37847500Y36345600D03*
X43341500Y44724400D03*
X41972900Y15258400D03*
X47565700Y20403500D03*
X28688200Y15750000D03*
X23797700Y29487200D03*
X36225700Y9072400D03*
X18784300Y30020000D03*
X10571100Y42937400D03*
X25897200Y43406100D03*
X34709700Y5780800D03*
X30600500Y11473600D03*
X32692000Y15927700D03*
X49542900Y21672300D03*
X58718946Y42601677D03*
X51752500Y41541702D03*
X37692500Y31697200D03*
X28060100Y23926800D03*
X46170000Y42076500D03*
X46946400Y39284800D03*
X47566000Y42089700D03*
X47746600Y39634700D03*
X39124400Y38445400D03*
X50109600Y39417700D03*
X39064400Y39971400D03*
X27736800Y32415200D03*
X43976700Y29028100D03*
X31452100Y35465200D03*
X57809918Y34875947D03*
X29959300Y18785200D03*
X21079500Y38633700D03*
X18366800Y41139700D03*
D20*
X19159300Y11615300D02*
X18963100Y11811500D01*
X18963100Y11811500D02*
X17967900Y11811500D01*
X42214800Y38751300D02*
X42604400Y39140900D01*
X42604400Y39140900D02*
X43570600Y39140900D01*
X58660700Y10065000D02*
X57924400Y10801300D01*
X57924400Y10801300D02*
X56775800Y10801300D01*
X43162300Y17965300D02*
X42596700Y17965300D01*
X42596700Y17965300D02*
X41981500Y18580500D01*
X63644600Y30874300D02*
X63907200Y31136900D01*
X63907200Y31136900D02*
X63907200Y32254400D01*
X62578800Y30874300D02*
X63644600Y30874300D01*
X16560800Y40894300D02*
X16523100Y40932000D01*
X16523100Y40932000D02*
X15641500Y40932000D01*
X33285300Y23210300D02*
X34132800Y23210300D01*
X34132800Y23210300D02*
X34213800Y23291300D01*
X21226500Y21133400D02*
X20752300Y20659200D01*
X20752300Y20659200D02*
X20752300Y20243800D01*
X54313000Y29574300D02*
X51513400Y26774700D01*
X51513400Y26774700D02*
X50447800Y26774700D01*
X68185800Y3384700D02*
X67805800Y3764700D01*
X67805800Y3764700D02*
X67805800Y4305300D01*
X26656800Y6864600D02*
X26656800Y5956300D01*
X14916900Y25825200D02*
X15608800Y25133300D01*
X13365100Y35145800D02*
X13937300Y35145800D01*
X13937300Y35145800D02*
X14274800Y35483300D01*
X22437900Y32372800D02*
X21513800Y32372800D01*
X20056500Y44032300D02*
X19089900Y43065700D01*
X13554100Y44291900D02*
X12569100Y44291900D01*
X12569100Y44291900D02*
X12549400Y44272200D01*
X40579100Y44123700D02*
X41971400Y44123700D01*
X41971400Y44123700D02*
X42214800Y43880300D01*
X12333300Y32415200D02*
X10113700Y32415200D01*
X10113700Y32415200D02*
X9829800Y32131300D01*
X23547800Y17419700D02*
X24752300Y18624200D01*
X24752300Y18624200D02*
X24752300Y18897300D01*
X18195600Y17586900D02*
X18973800Y18365100D01*
X18973800Y18365100D02*
X18973800Y18415300D01*
X26706300Y3350300D02*
X26413800Y3350300D01*
X26413800Y3350300D02*
X25844800Y2781300D01*
X30284400Y2803800D02*
X29423300Y2803800D01*
X29423300Y2803800D02*
X29400800Y2781300D01*
X14572600Y40447100D02*
X14087000Y40447100D01*
X14087000Y40447100D02*
X13639800Y40894300D01*
X44270100Y37359400D02*
X44775900Y37359400D01*
X44775900Y37359400D02*
X45516800Y38100300D01*
X48456800Y36462100D02*
X47637000Y36462100D01*
X47637000Y36462100D02*
X47548800Y36550300D01*
X9829800Y32131300D02*
X9829800Y33756300D01*
X50691600Y4051300D02*
X51371800Y4051300D01*
X51371800Y4051300D02*
X51612800Y4292300D01*
X47649200Y4051300D02*
X48450800Y4051300D01*
X48450800Y4051300D02*
X48691800Y4292300D01*
X14274800Y35483300D02*
X17144800Y35483300D01*
X17144800Y35483300D02*
X17386300Y35724800D01*
X17386300Y35724800D02*
X17386300Y33972800D01*
X34277300Y36423300D02*
X34979300Y35721300D01*
X30368300Y36562700D02*
X31153400Y36562700D01*
X31153400Y36562700D02*
X31292800Y36423300D01*
X16368700Y22772400D02*
X15658800Y23482300D01*
X20843000Y25134400D02*
X21626700Y25134400D01*
X21626700Y25134400D02*
X21767800Y24993300D01*
X35346200Y24186600D02*
X36036500Y24186600D01*
X36036500Y24186600D02*
X36753800Y23469300D01*
X30429600Y23214200D02*
X31646700Y23214200D01*
X31646700Y23214200D02*
X31737300Y23304800D01*
X7525100Y8483900D02*
X7987800Y8946600D01*
X7987800Y8946600D02*
X7987800Y9385300D01*
X56503800Y43910500D02*
X56503800Y43167300D01*
X56503800Y43167300D02*
X56503800Y41897300D01*
X56503800Y40627300D02*
X56503800Y39357300D01*
X24175400Y42831200D02*
X24961900Y42831200D01*
X24961900Y42831200D02*
X25006800Y42786300D01*
X3165800Y35804300D02*
X3860800Y36499300D01*
X69407800Y5760500D02*
X70036700Y5760500D01*
X69407800Y6276300D02*
X69407800Y5760500D01*
X68107800Y7402900D02*
X68107800Y8176300D01*
X23705600Y12151700D02*
X24770700Y12151700D01*
X24770700Y12151700D02*
X24884300Y12265300D01*
X19159300Y12265300D02*
X19159300Y11615300D01*
X54313000Y30224300D02*
X54313000Y29574300D01*
X55378800Y29574300D02*
X54313000Y29574300D01*
X55378800Y30224300D02*
X54313000Y30224300D01*
X63975800Y5601300D02*
X65218968Y5601300D01*
X56202667Y36074300D02*
X56204711Y36076344D01*
X55378800Y36074300D02*
X56202667Y36074300D01*
X56503800Y40627300D02*
X55174821Y40627300D01*
X55174821Y40627300D02*
X55090700Y40543179D01*
D21*
X64274400Y43878800D02*
X63461900Y44691300D01*
X64401700Y43878800D02*
X64274400Y43878800D01*
D20*
X73304400Y37693100D02*
X73956300Y37041200D01*
X73956300Y37041200D02*
X73956300Y36759000D01*
X68757800Y8176300D02*
X68757800Y8692100D01*
X68757800Y8692100D02*
X68592700Y8857200D01*
X68592700Y8857200D02*
X68592700Y8941300D01*
X68757800Y6276300D02*
X68757800Y6792100D01*
X68757800Y6792100D02*
X70038600Y6792100D01*
X70038600Y6792100D02*
X70853800Y7607300D01*
X69407800Y8692100D02*
X69407800Y8906000D01*
X69407800Y8906000D02*
X68341300Y9972500D01*
X68341300Y9972500D02*
X68055000Y9972500D01*
X69407800Y8176300D02*
X69407800Y8692100D01*
X68757800Y11036300D02*
X68757800Y10295500D01*
X68757800Y10295500D02*
X68378000Y10295500D01*
X68378000Y10295500D02*
X68055000Y9972500D01*
X50104900Y25946900D02*
X50723800Y25328000D01*
X50723800Y25328000D02*
X50723800Y25196300D01*
D22*
X63169800Y22215300D02*
X63934800Y22215300D01*
X63934800Y22215300D02*
X65582800Y23863300D01*
X70662800Y24625300D02*
X66344800Y24625300D01*
X66344800Y24625300D02*
X65582800Y23863300D01*
X74028300Y8813800D02*
X73780300Y8813800D01*
X73780300Y8813800D02*
X71557800Y11036300D01*
X71557800Y21012500D02*
X70726300Y21844000D01*
X71557800Y11036300D02*
X71557800Y21012500D01*
D20*
X48691800Y5842300D02*
X47987510Y5842300D01*
X47987510Y5842300D02*
X47783200Y5637990D01*
X52501800Y37709300D02*
X52840847Y37709300D01*
X52840847Y37709300D02*
X53214066Y37336081D01*
D21*
X61988700Y24845200D02*
X70484700Y33341200D01*
X61988700Y21337200D02*
X61988700Y24845200D01*
X63169800Y20156100D02*
X61988700Y21337200D01*
X63169800Y19415300D02*
X63169800Y20156100D01*
D20*
X68107800Y6276300D02*
X68107800Y5760500D01*
X68107800Y5760500D02*
X67706500Y5760500D01*
X67706500Y5760500D02*
X67248300Y6218700D01*
X52501800Y34909300D02*
X53242600Y34909300D01*
X53777800Y34692600D02*
X53459300Y34692600D01*
X53459300Y34692600D02*
X53242600Y34909300D01*
X9829800Y35306300D02*
X9123000Y34599500D01*
X34277300Y37973300D02*
X34930200Y37320400D01*
X34930200Y37320400D02*
X35030800Y37320400D01*
X42214800Y34782800D02*
X42214800Y35801300D01*
X24750800Y21349400D02*
X24752300Y21347900D01*
X24752300Y21347900D02*
X24752300Y20447300D01*
X26963400Y2394700D02*
X27464200Y2394700D01*
X27464200Y2394700D02*
X27850800Y2781300D01*
X44611600Y36348300D02*
X45314800Y36348300D01*
X45314800Y36348300D02*
X45516800Y36550300D01*
X45943900Y16729000D02*
X46530200Y17315300D01*
X46530200Y17315300D02*
X48887300Y17315300D01*
X18252700Y24265000D02*
X17470000Y23482300D01*
X17470000Y23482300D02*
X17208800Y23482300D01*
X38164200Y24068000D02*
X37212900Y25019300D01*
X37212900Y25019300D02*
X36753800Y25019300D01*
X23697000Y10707300D02*
X24626300Y10707300D01*
X24626300Y10707300D02*
X24884300Y10965300D01*
X40884300Y40990400D02*
X42154700Y40990400D01*
X42154700Y40990400D02*
X42214800Y40930300D01*
X19159300Y10965300D02*
X17992300Y10965300D01*
X47548800Y38100300D02*
X50726500Y38100300D01*
X50726500Y38100300D02*
X51314200Y38688000D01*
X19800800Y16001100D02*
X18973800Y16828100D01*
X18973800Y16828100D02*
X18973800Y16865300D01*
X24294800Y1860200D02*
X24294800Y2781300D01*
X17909500Y31387000D02*
X17909500Y31899600D01*
X17909500Y31899600D02*
X17386300Y32422800D01*
X41994000Y17677500D02*
X42356200Y17315300D01*
X42356200Y17315300D02*
X43162300Y17315300D01*
X30389600Y37771500D02*
X31091000Y37771500D01*
X31091000Y37771500D02*
X31292800Y37973300D01*
X20855200Y26532400D02*
X21756900Y26532400D01*
X21756900Y26532400D02*
X21767800Y26543300D01*
X31802300Y20780000D02*
X31737300Y20845000D01*
X31737300Y20845000D02*
X31737300Y21754800D01*
X49756200Y23887700D02*
X49853200Y23984700D01*
X49853200Y23984700D02*
X49853200Y25093100D01*
X49853200Y25093100D02*
X49583300Y25363000D01*
X49583300Y25363000D02*
X49583300Y26794600D01*
X49583300Y26794600D02*
X54313000Y31524300D01*
X55378800Y31524300D02*
X54313000Y31524300D01*
X48299300Y23605700D02*
X48785200Y24091600D01*
X48785200Y24091600D02*
X48785200Y26646500D01*
X48785200Y26646500D02*
X54313000Y32174300D01*
X55378800Y32174300D02*
X54313000Y32174300D01*
X50723800Y23546300D02*
X50326500Y23149000D01*
X50326500Y23149000D02*
X49818900Y23149000D01*
X55378800Y30874300D02*
X56444600Y30874300D01*
X56444600Y30874300D02*
X56444600Y28157000D01*
X56444600Y28157000D02*
X50490500Y22202900D01*
X16116800Y29324300D02*
X15463000Y28670500D01*
X15463000Y28670500D02*
X14342900Y28670500D01*
X16139900Y43065700D02*
X16919700Y43065700D01*
X16919700Y43065700D02*
X17954600Y44100600D01*
X18532300Y38217800D02*
X18532200Y38217800D01*
X18532200Y38217800D02*
X18329300Y38217800D01*
X18329300Y38217800D02*
X17386300Y37274800D01*
X19084700Y37665300D02*
X18532300Y38217800D01*
X18532300Y38217800D02*
X19354800Y39040300D01*
X19354800Y39040300D02*
X21070300Y37324800D01*
X21070300Y37324800D02*
X21513800Y37324800D01*
X17265900Y39344300D02*
X19050800Y39344300D01*
X19050800Y39344300D02*
X19354800Y39040300D01*
X16560800Y39344300D02*
X17265900Y39344300D01*
X16139900Y43065700D02*
X17265900Y41939700D01*
X17265900Y41939700D02*
X17265900Y39344300D01*
D23*
X52638400Y4919500D02*
X52535600Y4919500D01*
X52535600Y4919500D02*
X51612800Y5842300D01*
X55710000Y4919500D02*
X52638400Y4919500D01*
X52638400Y4919500D02*
X52638400Y3056300D01*
X26912600Y41257400D02*
X27415700Y40754300D01*
X27415700Y40754300D02*
X31864800Y40754300D01*
X55773600Y4951300D02*
X55741800Y4919500D01*
X55741800Y4919500D02*
X55710000Y4919500D01*
X55710000Y4919500D02*
X55710000Y4301300D01*
X51612800Y5842300D02*
X50796300Y5025800D01*
X50796300Y5025800D02*
X49841700Y5025800D01*
X56775800Y4951300D02*
X55773600Y4951300D01*
X56775800Y4301300D02*
X55710000Y4301300D01*
X62930010Y3651300D02*
X62193800Y2915090D01*
X63975800Y3651300D02*
X62930010Y3651300D01*
X65163700Y38608700D02*
X65623800Y39068800D01*
X65163700Y30443400D02*
X65163700Y38608700D01*
X63644600Y28924300D02*
X65163700Y30443400D01*
X62578800Y28924300D02*
X63644600Y28924300D01*
X61468000Y27813500D02*
X62578800Y28924300D01*
X61468000Y19075400D02*
X61468000Y27813500D01*
X62128400Y18376900D02*
X62128400Y18415000D01*
X62358199Y18070901D02*
X62358199Y18147101D01*
X66354000Y14075100D02*
X62358199Y18070901D01*
X66354000Y11855167D02*
X66354000Y14075100D01*
X66447856Y11761311D02*
X66354000Y11855167D01*
X66447856Y9841289D02*
X66447856Y11761311D01*
X66354000Y9747433D02*
X66447856Y9841289D01*
X63975800Y3651300D02*
X65041600Y3651300D01*
X65041600Y3651300D02*
X66354000Y4963700D01*
X62358199Y18147101D02*
X62128400Y18376900D01*
X62128400Y18415000D02*
X61468000Y19075400D01*
X66354000Y4963700D02*
X66354000Y9747433D01*
X60185302Y39357300D02*
X59817000Y38988998D01*
X61453800Y39357300D02*
X60185302Y39357300D01*
D21*
X31965900Y40855400D02*
X31864800Y40754300D01*
X31965900Y41846500D02*
X31965900Y40855400D01*
X65630400Y39075400D02*
X65623800Y39068800D01*
X68656200Y39075400D02*
X65630400Y39075400D01*
D23*
X49427900Y17965300D02*
X48887300Y17965300D01*
D24*
X50177700Y15453400D02*
X50177700Y17843500D01*
D23*
X48706900Y14534700D02*
X49259000Y14534700D01*
D21*
X49009100Y17843500D02*
X48887300Y17965300D01*
X50177700Y17843500D02*
X49009100Y17843500D01*
X49757583Y14534700D02*
X49259000Y14534700D01*
X50177700Y14954817D02*
X49757583Y14534700D01*
X50177700Y15453400D02*
X50177700Y14954817D01*
X65623800Y41106700D02*
X64401700Y42328800D01*
X65623800Y39068800D02*
X65623800Y41106700D01*
D20*
X13686500Y38838800D02*
X12988700Y38141000D01*
X13639800Y39344300D02*
X13639800Y39142100D01*
X13639800Y39142100D02*
X13686500Y39095400D01*
X13686500Y39095400D02*
X13686500Y38838800D01*
X12895000Y31002200D02*
X12895000Y32885400D01*
X12895000Y32885400D02*
X12810900Y32969500D01*
X12810900Y32969500D02*
X12810900Y35918100D01*
X12810900Y35918100D02*
X14324000Y37431200D01*
X14324000Y37431200D02*
X14324000Y38201200D01*
X14324000Y38201200D02*
X13686500Y38838800D01*
X12895000Y31002200D02*
X13930900Y31002200D01*
X13930900Y31002200D02*
X14274800Y30658300D01*
X9829800Y30581300D02*
X10250700Y31002200D01*
X10250700Y31002200D02*
X12895000Y31002200D01*
X13639800Y39344300D02*
X11339800Y41644300D01*
X11339800Y41644300D02*
X11339800Y42868100D01*
X11339800Y42868100D02*
X9935700Y44272200D01*
X9935700Y44272200D02*
X9599400Y44272200D01*
X30148700Y21716700D02*
X28244200Y21716700D01*
X28244200Y21716700D02*
X27215800Y20688300D01*
X32718200Y16994200D02*
X29258900Y16994200D01*
X29258900Y16994200D02*
X27215800Y19037300D01*
X33598100Y15009800D02*
X33854300Y15009800D01*
X33854300Y15009800D02*
X36710300Y17865800D01*
X36710300Y17865800D02*
X36710300Y18949400D01*
X19431900Y3607400D02*
X19431900Y3885900D01*
X19431900Y3885900D02*
X16932200Y6385600D01*
X16932200Y6385600D02*
X16932200Y6992800D01*
X38915700Y16688200D02*
X38915700Y18843800D01*
X38915700Y18843800D02*
X39307700Y19235800D01*
X39307700Y19235800D02*
X39626600Y19235800D01*
X39626600Y19235800D02*
X42197100Y16665300D01*
X42197100Y16665300D02*
X43162300Y16665300D01*
X40696300Y14405800D02*
X40696300Y14907600D01*
X40696300Y14907600D02*
X38915700Y16688200D01*
X38915700Y16688200D02*
X38103100Y16688200D01*
X38103100Y16688200D02*
X36271900Y14857000D01*
X36271900Y14857000D02*
X36271900Y12901000D01*
X36271900Y12901000D02*
X36547200Y12625700D01*
X36547200Y12625700D02*
X39233900Y12625700D01*
X39233900Y12625700D02*
X40315300Y11544300D01*
X40315300Y11544300D02*
X40640300Y11544300D01*
X39103800Y10840100D02*
X41003300Y10840100D01*
X41003300Y10840100D02*
X41298900Y11135700D01*
X41298900Y11135700D02*
X41298900Y11955500D01*
X41298900Y11955500D02*
X40841000Y12413400D01*
X40841000Y12413400D02*
X39880500Y12413400D01*
X39880500Y12413400D02*
X39046300Y13247600D01*
X39046300Y13247600D02*
X39046300Y14405800D01*
X39090300Y11544300D02*
X39090300Y10853600D01*
X39090300Y10853600D02*
X39103800Y10840100D01*
X39103800Y10840100D02*
X39103800Y8623300D01*
X39103800Y7222500D02*
X39103800Y8623300D01*
X39153800Y5765800D02*
X39103800Y5815800D01*
X39103800Y5815800D02*
X39103800Y7222500D01*
X51365571Y17196300D02*
X50804710Y17757161D01*
X51612800Y17196300D02*
X51365571Y17196300D01*
X43162300Y19265300D02*
X40995500Y19265300D01*
X40995500Y19265300D02*
X40728000Y19532800D01*
X40728000Y19532800D02*
X39223000Y19532800D01*
X39223000Y19532800D02*
X36017600Y16327400D01*
X36017600Y16327400D02*
X36017600Y11576500D01*
X36017600Y11576500D02*
X38468600Y9125500D01*
X38468600Y9125500D02*
X38468600Y5373700D01*
X38468600Y5373700D02*
X38768500Y5073800D01*
X38768500Y5073800D02*
X40011800Y5073800D01*
X40011800Y5073800D02*
X40703800Y5765800D01*
X40753800Y8623300D02*
X40753800Y5815800D01*
X40753800Y5815800D02*
X40703800Y5765800D01*
X48887300Y18615300D02*
X47120500Y18615300D01*
X47120500Y18615300D02*
X45453000Y16947800D01*
X45453000Y16947800D02*
X45453000Y15880900D01*
X45453000Y15880900D02*
X46008800Y15325100D01*
X48887300Y16665300D02*
X48350600Y16665300D01*
X48350600Y16665300D02*
X46963300Y15278000D01*
X46963300Y15278000D02*
X46963300Y14826300D01*
X46963300Y14826300D02*
X46963200Y14826300D01*
X63975800Y4301300D02*
X62778900Y4301300D01*
X62778900Y4301300D02*
X58989300Y511700D01*
X58989300Y511700D02*
X30372500Y511700D01*
X63581000Y29574300D02*
X64680000Y30673300D01*
X64680000Y30673300D02*
X64680000Y40223900D01*
X64680000Y40223900D02*
X61736600Y43167300D01*
X61736600Y43167300D02*
X61453800Y43167300D01*
X62578800Y29574300D02*
X63581000Y29574300D01*
X65963489Y5192589D02*
X65072200Y4301300D01*
X61576800Y29574300D02*
X61077489Y29074989D01*
X65963489Y9909187D02*
X65963489Y5192589D01*
X61077489Y16579413D02*
X66057345Y11599557D01*
X66057345Y10003043D02*
X65963489Y9909187D01*
X61077489Y29074989D02*
X61077489Y16579413D01*
X65072200Y4301300D02*
X63975800Y4301300D01*
X62578800Y29574300D02*
X61576800Y29574300D01*
X66057345Y11599557D02*
X66057345Y10003043D01*
X63975800Y4951300D02*
X61434600Y4951300D01*
X61434600Y4951300D02*
X57826800Y1343500D01*
X57826800Y1343500D02*
X20525800Y1343500D01*
X20525800Y1343500D02*
X16107500Y5761800D01*
X62578800Y30224300D02*
X63644600Y30224300D01*
X63644600Y30224300D02*
X64425700Y31005400D01*
X64425700Y31005400D02*
X64425700Y39129700D01*
X64425700Y39129700D02*
X61658100Y41897300D01*
X61658100Y41897300D02*
X61453800Y41897300D01*
X15683236Y5761800D02*
X16107500Y5761800D01*
X11036300Y10408736D02*
X15683236Y5761800D01*
X11036300Y19334982D02*
X11036300Y10408736D01*
X11098258Y19396940D02*
X11036300Y19334982D01*
X60823478Y16474199D02*
X65803334Y11494343D01*
X65709478Y5318478D02*
X65342300Y4951300D01*
X65342300Y4951300D02*
X63975800Y4951300D01*
X65709478Y10014401D02*
X65709478Y5318478D01*
X65803334Y10108257D02*
X65709478Y10014401D01*
X62578800Y30224300D02*
X61513000Y30224300D01*
X65803334Y11494343D02*
X65803334Y10108257D01*
X61513000Y30224300D02*
X60823478Y29534778D01*
X60823478Y29534778D02*
X60823478Y16474199D01*
X67297300Y37705800D02*
X65790710Y36199210D01*
X65790710Y36199210D02*
X65790710Y35371000D01*
X70281800Y37705800D02*
X69319300Y36743300D01*
X69319300Y36743300D02*
X69319300Y36349000D01*
X65790710Y34549210D02*
X65790710Y34395500D01*
X67297300Y36055800D02*
X65790710Y34549210D01*
X55378800Y35424300D02*
X56535623Y35424300D01*
X57764752Y34195171D02*
X58538278Y34195171D01*
X56535623Y35424300D02*
X57764752Y34195171D01*
X70281800Y36055800D02*
X70054800Y35828800D01*
X70054800Y35828800D02*
X69228200Y35828800D01*
X69228200Y35828800D02*
X66962900Y33563500D01*
X66962900Y33563500D02*
X66153300Y33563500D01*
X55378800Y34774300D02*
X56449209Y34774300D01*
X56449209Y34774300D02*
X56961040Y34262469D01*
X55378800Y34124300D02*
X54313000Y34124300D01*
X54313000Y34124300D02*
X47498900Y27310200D01*
X47498900Y27310200D02*
X47498900Y23007400D01*
X47498900Y23007400D02*
X49712400Y20793900D01*
X49712400Y20793900D02*
X50387500Y20793900D01*
X55378800Y33474300D02*
X57527800Y33474300D01*
X57527800Y33474300D02*
X57683100Y33319000D01*
X70752900Y33833800D02*
X71351900Y33234800D01*
X70053199Y21577299D02*
X70484999Y21145499D01*
X70053199Y23114001D02*
X70053199Y21577299D01*
X70484999Y9226101D02*
X72103800Y7607300D01*
X65793300Y32276600D02*
X68692900Y32276600D01*
X68692900Y32276600D02*
X70250100Y33833800D01*
X71351900Y24412702D02*
X70053199Y23114001D01*
X70484999Y21145499D02*
X70484999Y9226101D01*
X71351900Y33234800D02*
X71351900Y24412702D01*
X72103800Y7607300D02*
X72503800Y7607300D01*
X70250100Y33833800D02*
X70752900Y33833800D01*
X67094200Y32797700D02*
X67094300Y32797700D01*
X67094300Y32797700D02*
X67094300Y33139400D01*
X67094300Y33139400D02*
X69405800Y35450900D01*
X69405800Y35450900D02*
X72712200Y35450900D01*
X72712200Y35450900D02*
X73304400Y36043100D01*
X55378800Y32824300D02*
X58913200Y32824300D01*
X58913200Y32824300D02*
X59654100Y33565200D01*
X21513800Y34022800D02*
X21513800Y35674800D01*
X20679500Y33153300D02*
X21513800Y33987600D01*
X21513800Y33987600D02*
X21513800Y34022800D01*
X14274800Y32308300D02*
X13370700Y33212400D01*
X13370700Y33212400D02*
X13370700Y33369900D01*
X13370700Y33369900D02*
X13834100Y33833300D01*
X13834100Y33833300D02*
X14274800Y33833300D01*
X33210500Y47268100D02*
X27625100Y47268100D01*
X27625100Y47268100D02*
X22436500Y42079500D01*
X22436500Y42079500D02*
X22436500Y36957800D01*
X22436500Y36957800D02*
X21978500Y36499800D01*
X21978500Y36499800D02*
X20958600Y36499800D01*
X20958600Y36499800D02*
X19362200Y34903400D01*
X19362200Y34903400D02*
X19362200Y31890300D01*
X19362200Y31890300D02*
X18037900Y30566000D01*
X18037900Y30566000D02*
X17681100Y30566000D01*
X17681100Y30566000D02*
X16985600Y29870500D01*
X16985600Y29870500D02*
X16985600Y27566900D01*
X16985600Y27566900D02*
X18959400Y25593100D01*
X18959400Y25593100D02*
X18959400Y21607600D01*
X18959400Y21607600D02*
X17526900Y20175100D01*
X17526900Y20175100D02*
X17526900Y16277200D01*
X17526900Y16277200D02*
X18586600Y15217500D01*
X17526000Y20176000D02*
X17526900Y20175100D01*
X17526000Y20586700D02*
X17526000Y20176000D01*
X33258000Y21839300D02*
X34015800Y21839300D01*
X34015800Y21839300D02*
X34213800Y21641300D01*
X48895400Y39878900D02*
X47663100Y41111200D01*
X47663100Y41111200D02*
X46742600Y41111200D01*
X3860800Y34849300D02*
X5638800Y34849300D01*
X9780300Y40105800D02*
X6407700Y36733200D01*
X6407700Y36733200D02*
X6407700Y33840200D01*
X6407700Y33840200D02*
X5701800Y33134300D01*
X9780300Y40105800D02*
X9575800Y40310300D01*
X10526200Y40105800D02*
X9780300Y40105800D01*
X10908800Y36944300D02*
X12810500Y36944300D01*
X12810500Y36944300D02*
X13833100Y37966900D01*
X3933800Y31736000D02*
X4051800Y31854000D01*
X4051800Y31854000D02*
X4051800Y33134300D01*
X9258800Y38138600D02*
X9258800Y36944300D01*
X9639300Y38519100D02*
X9258800Y38138600D01*
X25455100Y4552100D02*
X25455100Y5508000D01*
X25455100Y5508000D02*
X25006800Y5956300D01*
X25006800Y5956300D02*
X23227800Y5956300D01*
X21680600Y7308600D02*
X21577800Y7205800D01*
X21577800Y7205800D02*
X21577800Y5956300D01*
X52311200Y18147900D02*
X52311200Y15485494D01*
X51612800Y18846300D02*
X52311200Y18147900D01*
X52311200Y15485494D02*
X51919637Y15093931D01*
X80000000Y4000000D02*
X69761100Y4000000D01*
X69761100Y4000000D02*
X69455800Y4305300D01*
X30237600Y13805500D02*
X33099500Y13805500D01*
X33099500Y13805500D02*
X51621300Y32327300D01*
X51621300Y32327300D02*
X51621300Y32686900D01*
X25855400Y12452100D02*
X26775000Y12452100D01*
X26775000Y12452100D02*
X27331200Y13008300D01*
X25855400Y12452100D02*
X25392200Y12915300D01*
X25392200Y12915300D02*
X24884300Y12915300D01*
X24884300Y9665300D02*
X25400200Y9665300D01*
X25400200Y9665300D02*
X25855400Y10120500D01*
X25855400Y10120500D02*
X25855400Y12452100D01*
X19159300Y9665300D02*
X22134100Y9665300D01*
X22134100Y9665300D02*
X22148200Y9679400D01*
X19159300Y12915300D02*
X19286300Y13042300D01*
X19286300Y13042300D02*
X21597000Y13042300D01*
X44627701Y6734901D02*
X49511127Y6734901D01*
X49511127Y6734901D02*
X49811126Y6434902D01*
X41695100Y3802300D02*
X44627701Y6734901D01*
X23457900Y8369700D02*
X26592800Y8369700D01*
X26592800Y8369700D02*
X31160200Y3802300D01*
X31160200Y3802300D02*
X41695100Y3802300D01*
X22148200Y9679400D02*
X23457900Y8369700D01*
X52421408Y39230200D02*
X54331107Y37320501D01*
X44118900Y38794000D02*
X50179900Y38794000D01*
X50616100Y39230200D02*
X52421408Y39230200D01*
X31311300Y39351400D02*
X37524400Y39351400D01*
X61576800Y34774300D02*
X62578800Y34774300D01*
X50179900Y38794000D02*
X50616100Y39230200D01*
X43279500Y37954600D02*
X44118900Y38794000D01*
X30546400Y40116300D02*
X31311300Y39351400D01*
X54331107Y37320501D02*
X56323545Y37320501D01*
X56323545Y37320501D02*
X56471805Y37468761D01*
X56471805Y37468761D02*
X58882339Y37468761D01*
X58882339Y37468761D02*
X61576800Y34774300D01*
X38921200Y37954600D02*
X43279500Y37954600D01*
X37524400Y39351400D02*
X38921200Y37954600D01*
X62578800Y35424300D02*
X61576800Y35424300D01*
X47376000Y41585700D02*
X47320200Y41641500D01*
X61576800Y35424300D02*
X59236900Y37764200D01*
X45966800Y41585700D02*
X45855300Y41697200D01*
X51718614Y40555888D02*
X51411845Y40555888D01*
X46429100Y41641500D02*
X46373300Y41585700D01*
X45855300Y41697200D02*
X38711698Y41697200D01*
X54510302Y37764200D02*
X51718614Y40555888D01*
X50382033Y41585700D02*
X47376000Y41585700D01*
X59236900Y37764200D02*
X54510302Y37764200D01*
X51411845Y40555888D02*
X50382033Y41585700D01*
X46373300Y41585700D02*
X45966800Y41585700D01*
X47320200Y41641500D02*
X46429100Y41641500D01*
X38711698Y41697200D02*
X37981989Y42426909D01*
X60573712Y38079388D02*
X62578800Y36074300D01*
X54808412Y38079388D02*
X60573712Y38079388D01*
X52032921Y40854879D02*
X54808412Y38079388D01*
X51573679Y40854879D02*
X52032921Y40854879D01*
X50352058Y42076500D02*
X51573679Y40854879D01*
X49150700Y42076500D02*
X50352058Y42076500D01*
X63975800Y8851300D02*
X62788600Y8851300D01*
X62788600Y8851300D02*
X62442100Y9197800D01*
X62442100Y9197800D02*
X61460300Y9197800D01*
X61460300Y9197800D02*
X58066400Y12591700D01*
X58066400Y12591700D02*
X44031200Y12591700D01*
X44031200Y12591700D02*
X43884900Y12738000D01*
X43884900Y12738000D02*
X39915600Y12738000D01*
X39915600Y12738000D02*
X39645800Y13007800D01*
X39645800Y13007800D02*
X39645800Y14859400D01*
X39645800Y14859400D02*
X39419400Y15085800D01*
X39419400Y15085800D02*
X38612600Y15085800D01*
X38612600Y15085800D02*
X36784800Y13258000D01*
X36784800Y13258000D02*
X36784800Y13129600D01*
X40136600Y13229000D02*
X40373300Y12992300D01*
X40373300Y12992300D02*
X43990200Y12992300D01*
X43990200Y12992300D02*
X44136500Y12846000D01*
X44136500Y12846000D02*
X58603800Y12846000D01*
X58603800Y12846000D02*
X61948500Y9501300D01*
X61948500Y9501300D02*
X63975800Y9501300D01*
X40576100Y15958700D02*
X40576100Y17592300D01*
X64768702Y10151300D02*
X65041301Y10423899D01*
X65041301Y10423899D02*
X65041301Y11120799D01*
X40576100Y17592300D02*
X39467200Y18701200D01*
X44474400Y13354600D02*
X44010500Y13818500D01*
X42716300Y13818500D02*
X40576100Y15958700D01*
X65041301Y11120799D02*
X62807500Y13354600D01*
X62807500Y13354600D02*
X44474400Y13354600D01*
X63975800Y10151300D02*
X64768702Y10151300D01*
X44010500Y13818500D02*
X42716300Y13818500D01*
X38235000Y16049700D02*
X38854800Y16049700D01*
X38854800Y16049700D02*
X40083800Y14820700D01*
X40083800Y14820700D02*
X40083800Y13920300D01*
X40083800Y13920300D02*
X40284300Y13719800D01*
X40284300Y13719800D02*
X41353800Y13719800D01*
X41353800Y13719800D02*
X41719000Y13354600D01*
X41719000Y13354600D02*
X43987500Y13354600D01*
X43987500Y13354600D02*
X44241800Y13100300D01*
X44241800Y13100300D02*
X60611000Y13100300D01*
X60611000Y13100300D02*
X62910000Y10801300D01*
X63975800Y10801300D02*
X62910000Y10801300D01*
X19159300Y13565300D02*
X19601800Y14007800D01*
X19601800Y14007800D02*
X28622100Y14007800D01*
X28622100Y14007800D02*
X30411200Y12218700D01*
X30411200Y12218700D02*
X30909100Y12218700D01*
X30909100Y12218700D02*
X31345600Y11782200D01*
X31345600Y11782200D02*
X31345600Y11630300D01*
X31345600Y11630300D02*
X38156400Y4819500D01*
X38156400Y4819500D02*
X41226300Y4819500D01*
X41226300Y4819500D02*
X46558100Y10151300D01*
X46558100Y10151300D02*
X55710000Y10151300D01*
X56775800Y10151300D02*
X55710000Y10151300D01*
X24884300Y13565300D02*
X28705000Y13565300D01*
X28705000Y13565300D02*
X30305900Y11964400D01*
X30305900Y11964400D02*
X30803800Y11964400D01*
X30803800Y11964400D02*
X31091300Y11676900D01*
X31091300Y11676900D02*
X31091300Y11525000D01*
X31091300Y11525000D02*
X38051100Y4565200D01*
X38051100Y4565200D02*
X41331700Y4565200D01*
X41331700Y4565200D02*
X46267800Y9501300D01*
X46267800Y9501300D02*
X56775800Y9501300D01*
X56775800Y8851300D02*
X45977400Y8851300D01*
X45977400Y8851300D02*
X41437000Y4310900D01*
X41437000Y4310900D02*
X31598600Y4310900D01*
X31598600Y4310900D02*
X26894200Y9015300D01*
X26894200Y9015300D02*
X24884300Y9015300D01*
X19159300Y9015300D02*
X20313500Y7861100D01*
X20313500Y7861100D02*
X24170300Y7861100D01*
X24170300Y7861100D02*
X25831500Y6199900D01*
X25831500Y6199900D02*
X25831500Y5724500D01*
X25831500Y5724500D02*
X26876300Y4679700D01*
X26876300Y4679700D02*
X27025600Y4679700D01*
X27025600Y4679700D02*
X28625800Y3079500D01*
X28625800Y3079500D02*
X28625800Y2465100D01*
X28625800Y2465100D02*
X29106800Y1984100D01*
X29106800Y1984100D02*
X57242700Y1984100D01*
X57242700Y1984100D02*
X58350200Y3091600D01*
X58350200Y3091600D02*
X58350200Y7692700D01*
X58350200Y7692700D02*
X57841600Y8201300D01*
X56775800Y8201300D02*
X57841600Y8201300D01*
X56775800Y7551300D02*
X45084500Y7551300D01*
X45084500Y7551300D02*
X41589800Y4056600D01*
X41589800Y4056600D02*
X31313500Y4056600D01*
X31313500Y4056600D02*
X26746100Y8624000D01*
X26746100Y8624000D02*
X24082600Y8624000D01*
X24082600Y8624000D02*
X23637800Y9068800D01*
X23637800Y9068800D02*
X23637800Y9141000D01*
X56775800Y6901300D02*
X57841600Y6901300D01*
X57841600Y6901300D02*
X58095900Y6647000D01*
X58095900Y6647000D02*
X58095900Y3196900D01*
X58095900Y3196900D02*
X57167700Y2268700D01*
X57167700Y2268700D02*
X31965500Y2268700D01*
X31965500Y2268700D02*
X31192000Y3042200D01*
X26727000Y15178000D02*
X27811500Y15178000D01*
X27811500Y15178000D02*
X29929100Y13060400D01*
X29929100Y13060400D02*
X30652000Y13060400D01*
X30652000Y13060400D02*
X37912600Y5799800D01*
X56775800Y6251300D02*
X57777800Y6251300D01*
X57841600Y3302200D02*
X57104800Y2565400D01*
X57777800Y6251300D02*
X57841600Y6187500D01*
X57104800Y2565400D02*
X45610909Y2565400D01*
X45610909Y2565400D02*
X44483790Y3692519D01*
X57841600Y6187500D02*
X57841600Y3302200D01*
X54883700Y6491400D02*
X55773800Y5601300D01*
X49235188Y5147488D02*
X50579100Y6491400D01*
X31055000Y3547900D02*
X43613227Y3547900D01*
X26487500Y8115400D02*
X31055000Y3547900D01*
X55773800Y5601300D02*
X56775800Y5601300D01*
X45212815Y5147488D02*
X49235188Y5147488D01*
X21792000Y8587300D02*
X22263900Y8115400D01*
X22263900Y8115400D02*
X26487500Y8115400D01*
X43613227Y3547900D02*
X45212815Y5147488D01*
X50579100Y6491400D02*
X54883700Y6491400D01*
X46825600Y12094700D02*
X57425100Y12094700D01*
X57425100Y12094700D02*
X62910000Y6609800D01*
X62910000Y6609800D02*
X62910000Y6251300D01*
X48887300Y15365300D02*
X48735800Y15365300D01*
X48735800Y15365300D02*
X47386400Y14015900D01*
X47386400Y14015900D02*
X45701000Y14015900D01*
X45701000Y14015900D02*
X45508700Y14208200D01*
X63975800Y6251300D02*
X62910000Y6251300D01*
X63975800Y6901300D02*
X63247600Y6901300D01*
X63247600Y6901300D02*
X62238800Y7910100D01*
X62238800Y7910100D02*
X62238800Y8707000D01*
X51646400Y19915300D02*
X52620400Y18941300D01*
X48887300Y19915300D02*
X51646400Y19915300D01*
X52155071Y14603421D02*
X50925421Y14603421D01*
X52620400Y15068750D02*
X52155071Y14603421D01*
X52620400Y18941300D02*
X52620400Y15068750D01*
X49161900Y20897400D02*
X44144400Y20897400D01*
X44144400Y20897400D02*
X43162300Y19915300D01*
X65455467Y10119615D02*
X65549323Y10213471D01*
X65041600Y7551300D02*
X65455467Y7965167D01*
X56768752Y20169700D02*
X49889600Y20169700D01*
X65549323Y11389129D02*
X56768752Y20169700D01*
X49889600Y20169700D02*
X49161900Y20897400D01*
X65455467Y7965167D02*
X65455467Y10119615D01*
X63975800Y7551300D02*
X65041600Y7551300D01*
X65549323Y10213471D02*
X65549323Y11389129D01*
X65041600Y8201300D02*
X65201456Y8361156D01*
X44899700Y13627900D02*
X43162300Y15365300D01*
X65201456Y10224829D02*
X65295312Y10318685D01*
X62951327Y13627900D02*
X44899700Y13627900D01*
X65295312Y11283915D02*
X62951327Y13627900D01*
X65201456Y8361156D02*
X65201456Y10224829D01*
X63975800Y8201300D02*
X65041600Y8201300D01*
X65295312Y10318685D02*
X65295312Y11283915D01*
X19159300Y10315300D02*
X17933200Y10315300D01*
X17933200Y10315300D02*
X12033600Y16214900D01*
X12033600Y16214900D02*
X12033600Y18035700D01*
X19159300Y10315300D02*
X22725600Y10315300D01*
X22725600Y10315300D02*
X22873800Y10167100D01*
X22873800Y10167100D02*
X24736100Y10167100D01*
X24736100Y10167100D02*
X24884300Y10315300D01*
X17766800Y29324300D02*
X18556200Y28534900D01*
X18556200Y28534900D02*
X22303700Y28534900D01*
X22303700Y28534900D02*
X24625800Y26212800D01*
X24459200Y23571900D02*
X24675800Y23355300D01*
X23284800Y23571900D02*
X24459200Y23571900D01*
X24459200Y23571900D02*
X24459200Y26046200D01*
X24459200Y26046200D02*
X24625800Y26212800D01*
X22402300Y20243800D02*
X24363900Y22205400D01*
X24363900Y22205400D02*
X25075900Y22205400D01*
X25075900Y22205400D02*
X26225800Y23355300D01*
X26275800Y26212800D02*
X26225800Y26162800D01*
X26225800Y26162800D02*
X26225800Y23355300D01*
X25450800Y27160600D02*
X26275800Y26335600D01*
X26275800Y26335600D02*
X26275800Y26212800D01*
X11848800Y22339300D02*
X12625700Y23116200D01*
X13398800Y22339300D02*
X14432300Y21305800D01*
X13398800Y22339300D02*
X15410000Y24350500D01*
X15410000Y24350500D02*
X16476000Y24350500D01*
X16476000Y24350500D02*
X17258800Y25133300D01*
X35706100Y37706300D02*
X36232800Y37706300D01*
X36232800Y37706300D02*
X37134800Y38608300D01*
X37134800Y37058300D02*
X37847500Y36345600D01*
X48887300Y16015300D02*
X48370400Y16015300D01*
X48370400Y16015300D02*
X47801600Y15446500D01*
X47801600Y15446500D02*
X47801600Y14970300D01*
X47801600Y14970300D02*
X47133000Y14301700D01*
X47133000Y14301700D02*
X46296900Y14301700D01*
X46296900Y14301700D02*
X44137800Y16460800D01*
X28688200Y15750000D02*
X26559500Y17878700D01*
X26559500Y17878700D02*
X26559500Y21938400D01*
X26559500Y21938400D02*
X27132800Y22511700D01*
X27132800Y22511700D02*
X27132800Y28276800D01*
X27132800Y28276800D02*
X26275800Y29133800D01*
X41972900Y15258400D02*
X41972900Y15343100D01*
X41972900Y15343100D02*
X42645100Y16015300D01*
X42645100Y16015300D02*
X43162300Y16015300D01*
X47565700Y19412100D02*
X45391200Y19412100D01*
X45391200Y19412100D02*
X44137800Y18158700D01*
X48887300Y19265300D02*
X48740500Y19412100D01*
X48740500Y19412100D02*
X47565700Y19412100D01*
X47565700Y19412100D02*
X47565700Y20403500D01*
X44137800Y16460800D02*
X44137800Y18158700D01*
X43162300Y16015300D02*
X43692300Y16015300D01*
X43692300Y16015300D02*
X44137800Y16460800D01*
X44137800Y18158700D02*
X43681200Y18615300D01*
X43681200Y18615300D02*
X43162300Y18615300D01*
X35282636Y44724400D02*
X43341500Y44724400D01*
X33052436Y42494200D02*
X35282636Y44724400D01*
X27444800Y42494200D02*
X33052436Y42494200D01*
X26275800Y41325200D02*
X27444800Y42494200D01*
X26275800Y29133800D02*
X26275800Y41325200D01*
X24625800Y29133800D02*
X24151100Y29133800D01*
X24151100Y29133800D02*
X23797700Y29487200D01*
X21195800Y29324300D02*
X21874000Y29324300D01*
X21874000Y29324300D02*
X23049000Y28149300D01*
X23049000Y28149300D02*
X25414300Y28149300D01*
X25414300Y28149300D02*
X26878500Y26685100D01*
X26878500Y26685100D02*
X26878500Y22942900D01*
X26878500Y22942900D02*
X26291300Y22355700D01*
X26291300Y22355700D02*
X26291300Y17057800D01*
X26291300Y17057800D02*
X30034400Y13314700D01*
X30034400Y13314700D02*
X31983400Y13314700D01*
X31983400Y13314700D02*
X36225700Y9072400D01*
X19545800Y29324300D02*
X19480000Y29324300D01*
X19480000Y29324300D02*
X18784300Y30020000D01*
X9575800Y41960300D02*
X8381200Y40765700D01*
X8381200Y40765700D02*
X8381200Y39241700D01*
X8381200Y39241700D02*
X5638800Y36499300D01*
X10571100Y42937400D02*
X10552900Y42937400D01*
X10552900Y42937400D02*
X9575800Y41960300D01*
X26656800Y42786300D02*
X26517000Y42786300D01*
X26517000Y42786300D02*
X25897200Y43406100D01*
X30600500Y11473600D02*
X30600500Y9890000D01*
X30600500Y9890000D02*
X34709700Y5780800D01*
X56418198Y36566866D02*
X52747666Y36566866D01*
X57899003Y35958497D02*
X57026567Y35958497D01*
X62578800Y34124300D02*
X61513000Y34124300D01*
X33195400Y15927700D02*
X32692000Y15927700D01*
X61327000Y34310300D02*
X59547200Y34310300D01*
X61513000Y34124300D02*
X61327000Y34310300D01*
X57026567Y35958497D02*
X56418198Y36566866D01*
X59547200Y34310300D02*
X57899003Y35958497D01*
X52747666Y36566866D02*
X34712900Y18532100D01*
X34712900Y18532100D02*
X34712900Y17445200D01*
X34712900Y17445200D02*
X33195400Y15927700D01*
X62578800Y31524300D02*
X60733400Y31524300D01*
X60733400Y31524300D02*
X50881500Y21672400D01*
X50881500Y21672400D02*
X49542900Y21672400D01*
X49542900Y21672400D02*
X49542900Y21672300D01*
X60288290Y40336254D02*
X60288290Y41163148D01*
X60288290Y41163148D02*
X60298423Y41173281D01*
X60298423Y41173281D02*
X60298423Y41644163D01*
X62153310Y40136790D02*
X60487754Y40136790D01*
X63644600Y32824300D02*
X63898900Y33078600D01*
X62578800Y32824300D02*
X63644600Y32824300D01*
X59340909Y42601677D02*
X58718946Y42601677D01*
X60487754Y40136790D02*
X60288290Y40336254D01*
X60298423Y41644163D02*
X59340909Y42601677D01*
X63898900Y38391200D02*
X62153310Y40136790D01*
X63898900Y33078600D02*
X63898900Y38391200D01*
X62578800Y33474300D02*
X63580800Y33474300D01*
X58959259Y38333399D02*
X58704199Y38588459D01*
X63580800Y33474300D02*
X63644600Y33538100D01*
X58704199Y39896559D02*
X57359055Y41241703D01*
X61753401Y38333399D02*
X58959259Y38333399D01*
X57359055Y41241703D02*
X52052499Y41241703D01*
X63644600Y36442200D02*
X61753401Y38333399D01*
X63644600Y33538100D02*
X63644600Y36442200D01*
X52052499Y41241703D02*
X51752500Y41541702D01*
X58704199Y38588459D02*
X58704199Y39896559D01*
X28060100Y23926800D02*
X35830500Y31697200D01*
X35830500Y31697200D02*
X37692500Y31697200D01*
X50109600Y39417700D02*
X50049200Y39357300D01*
X50049200Y39357300D02*
X48717400Y39357300D01*
X48717400Y39357300D02*
X48237500Y39837200D01*
X48237500Y39837200D02*
X48237500Y39909300D01*
X48237500Y39909300D02*
X48019200Y40127600D01*
X48019200Y40127600D02*
X40806600Y40127600D01*
X40806600Y40127600D02*
X39124400Y38445400D01*
X39064400Y39971400D02*
X34297700Y39971400D01*
X34297700Y39971400D02*
X33514800Y40754300D01*
X27736800Y32415200D02*
X31017700Y32415200D01*
X31017700Y32415200D02*
X33133800Y34531300D01*
X31483800Y35208000D02*
X31483800Y34531300D01*
X31452100Y35465200D02*
X31483800Y35433500D01*
X31483800Y35433500D02*
X31483800Y35208000D01*
X43976700Y29028100D02*
X37796800Y35208000D01*
X37796800Y35208000D02*
X31483800Y35208000D01*
X61513000Y32400400D02*
X59857400Y34056000D01*
X58570853Y34875947D02*
X57809918Y34875947D01*
X61513000Y32238100D02*
X61513000Y32400400D01*
X59390800Y34056000D02*
X58570853Y34875947D01*
X59857400Y34056000D02*
X59390800Y34056000D01*
X62578800Y32174300D02*
X61576800Y32174300D01*
X61576800Y32174300D02*
X61513000Y32238100D01*
X4000000Y4000000D02*
X6337800Y6337800D01*
X6337800Y6337800D02*
X6337800Y9385300D01*
X28765800Y19037300D02*
X29707200Y19037300D01*
X29707200Y19037300D02*
X29959300Y18785200D01*
X28765800Y20688300D02*
X28765800Y19037300D01*
X82346800Y26593800D02*
X77266800Y26593800D01*
X77266800Y15862300D02*
X82346800Y15862300D01*
X6384100Y14835300D02*
X3068800Y14835300D01*
X3068800Y14835300D02*
X2468800Y14235300D01*
X7368800Y14835300D02*
X6384100Y14835300D01*
X5773701Y22854141D02*
X5676900Y22950942D01*
X5773701Y22281659D02*
X5773701Y22854141D01*
X5676900Y22950942D02*
X5676900Y27041048D01*
X6393801Y27757949D02*
X6393801Y28360301D01*
X5676900Y15542500D02*
X5676900Y22184858D01*
X6384100Y14835300D02*
X5676900Y15542500D01*
X6393801Y28360301D02*
X7368800Y29335300D01*
X5676900Y27041048D02*
X6393801Y27757949D01*
X5676900Y22184858D02*
X5773701Y22281659D01*
X19354800Y40690300D02*
X21079500Y38965600D01*
X21079500Y38965600D02*
X21079500Y38633700D01*
X18366800Y41139700D02*
X18816200Y40690300D01*
X18816200Y40690300D02*
X19354800Y40690300D01*
M02*
