G04 #@! TF.GenerationSoftware,KiCad,Pcbnew,(5.1.9-0-10_14)*
G04 #@! TF.CreationDate,2021-07-02T21:32:49-05:00*
G04 #@! TF.ProjectId,bath_clamp_v1,62617468-5f63-46c6-916d-705f76312e6b,rev?*
G04 #@! TF.SameCoordinates,Original*
G04 #@! TF.FileFunction,Soldermask,Top*
G04 #@! TF.FilePolarity,Negative*
%FSLAX46Y46*%
G04 Gerber Fmt 4.6, Leading zero omitted, Abs format (unit mm)*
G04 Created by KiCad (PCBNEW (5.1.9-0-10_14)) date 2021-07-02 21:32:49*
%MOMM*%
%LPD*%
G01*
G04 APERTURE LIST*
%ADD10C,2.153200*%
%ADD11C,2.082800*%
%ADD12R,2.200000X1.450000*%
%ADD13R,0.900000X1.600000*%
%ADD14R,0.812800X2.667000*%
%ADD15R,1.100000X1.100000*%
%ADD16R,1.060000X0.650000*%
%ADD17R,0.650000X0.400000*%
%ADD18C,5.600000*%
%ADD19C,5.599999*%
%ADD20R,1.220000X0.650000*%
%ADD21R,2.667000X0.812800*%
%ADD22R,1.100000X0.400000*%
%ADD23R,2.000000X0.700000*%
%ADD24R,0.900000X0.800000*%
G04 APERTURE END LIST*
G36*
G01*
X8168401Y35647200D02*
X6868399Y35647200D01*
G75*
G02*
X6618400Y35897199I0J249999D01*
G01*
X6618400Y36547201D01*
G75*
G02*
X6868399Y36797200I249999J0D01*
G01*
X8168401Y36797200D01*
G75*
G02*
X8418400Y36547201I0J-249999D01*
G01*
X8418400Y35897199D01*
G75*
G02*
X8168401Y35647200I-249999J0D01*
G01*
G37*
G36*
G01*
X8168401Y32697200D02*
X6868399Y32697200D01*
G75*
G02*
X6618400Y32947199I0J249999D01*
G01*
X6618400Y33597201D01*
G75*
G02*
X6868399Y33847200I249999J0D01*
G01*
X8168401Y33847200D01*
G75*
G02*
X8418400Y33597201I0J-249999D01*
G01*
X8418400Y32947199D01*
G75*
G02*
X8168401Y32697200I-249999J0D01*
G01*
G37*
G36*
G01*
X17289900Y45525500D02*
X17289900Y45025500D01*
G75*
G02*
X17064900Y44800500I-225000J0D01*
G01*
X16614900Y44800500D01*
G75*
G02*
X16389900Y45025500I0J225000D01*
G01*
X16389900Y45525500D01*
G75*
G02*
X16614900Y45750500I225000J0D01*
G01*
X17064900Y45750500D01*
G75*
G02*
X17289900Y45525500I0J-225000D01*
G01*
G37*
G36*
G01*
X18839900Y45525500D02*
X18839900Y45025500D01*
G75*
G02*
X18614900Y44800500I-225000J0D01*
G01*
X18164900Y44800500D01*
G75*
G02*
X17939900Y45025500I0J225000D01*
G01*
X17939900Y45525500D01*
G75*
G02*
X18164900Y45750500I225000J0D01*
G01*
X18614900Y45750500D01*
G75*
G02*
X18839900Y45525500I0J-225000D01*
G01*
G37*
G36*
G01*
X7768400Y39529900D02*
X7268400Y39529900D01*
G75*
G02*
X7043400Y39754900I0J225000D01*
G01*
X7043400Y40204900D01*
G75*
G02*
X7268400Y40429900I225000J0D01*
G01*
X7768400Y40429900D01*
G75*
G02*
X7993400Y40204900I0J-225000D01*
G01*
X7993400Y39754900D01*
G75*
G02*
X7768400Y39529900I-225000J0D01*
G01*
G37*
G36*
G01*
X7768400Y37979900D02*
X7268400Y37979900D01*
G75*
G02*
X7043400Y38204900I0J225000D01*
G01*
X7043400Y38654900D01*
G75*
G02*
X7268400Y38879900I225000J0D01*
G01*
X7768400Y38879900D01*
G75*
G02*
X7993400Y38654900I0J-225000D01*
G01*
X7993400Y38204900D01*
G75*
G02*
X7768400Y37979900I-225000J0D01*
G01*
G37*
G36*
G01*
X43480800Y18346300D02*
X42980800Y18346300D01*
G75*
G02*
X42755800Y18571300I0J225000D01*
G01*
X42755800Y19021300D01*
G75*
G02*
X42980800Y19246300I225000J0D01*
G01*
X43480800Y19246300D01*
G75*
G02*
X43705800Y19021300I0J-225000D01*
G01*
X43705800Y18571300D01*
G75*
G02*
X43480800Y18346300I-225000J0D01*
G01*
G37*
G36*
G01*
X43480800Y16796300D02*
X42980800Y16796300D01*
G75*
G02*
X42755800Y17021300I0J225000D01*
G01*
X42755800Y17471300D01*
G75*
G02*
X42980800Y17696300I225000J0D01*
G01*
X43480800Y17696300D01*
G75*
G02*
X43705800Y17471300I0J-225000D01*
G01*
X43705800Y17021300D01*
G75*
G02*
X43480800Y16796300I-225000J0D01*
G01*
G37*
G36*
G01*
X44631800Y17696300D02*
X45131800Y17696300D01*
G75*
G02*
X45356800Y17471300I0J-225000D01*
G01*
X45356800Y17021300D01*
G75*
G02*
X45131800Y16796300I-225000J0D01*
G01*
X44631800Y16796300D01*
G75*
G02*
X44406800Y17021300I0J225000D01*
G01*
X44406800Y17471300D01*
G75*
G02*
X44631800Y17696300I225000J0D01*
G01*
G37*
G36*
G01*
X44631800Y19246300D02*
X45131800Y19246300D01*
G75*
G02*
X45356800Y19021300I0J-225000D01*
G01*
X45356800Y18571300D01*
G75*
G02*
X45131800Y18346300I-225000J0D01*
G01*
X44631800Y18346300D01*
G75*
G02*
X44406800Y18571300I0J225000D01*
G01*
X44406800Y19021300D01*
G75*
G02*
X44631800Y19246300I225000J0D01*
G01*
G37*
G36*
G01*
X77143800Y9568300D02*
X77643800Y9568300D01*
G75*
G02*
X77868800Y9343300I0J-225000D01*
G01*
X77868800Y8893300D01*
G75*
G02*
X77643800Y8668300I-225000J0D01*
G01*
X77143800Y8668300D01*
G75*
G02*
X76918800Y8893300I0J225000D01*
G01*
X76918800Y9343300D01*
G75*
G02*
X77143800Y9568300I225000J0D01*
G01*
G37*
G36*
G01*
X77143800Y11118300D02*
X77643800Y11118300D01*
G75*
G02*
X77868800Y10893300I0J-225000D01*
G01*
X77868800Y10443300D01*
G75*
G02*
X77643800Y10218300I-225000J0D01*
G01*
X77143800Y10218300D01*
G75*
G02*
X76918800Y10443300I0J225000D01*
G01*
X76918800Y10893300D01*
G75*
G02*
X77143800Y11118300I225000J0D01*
G01*
G37*
G36*
G01*
X13187800Y29828300D02*
X13187800Y29328300D01*
G75*
G02*
X12962800Y29103300I-225000J0D01*
G01*
X12512800Y29103300D01*
G75*
G02*
X12287800Y29328300I0J225000D01*
G01*
X12287800Y29828300D01*
G75*
G02*
X12512800Y30053300I225000J0D01*
G01*
X12962800Y30053300D01*
G75*
G02*
X13187800Y29828300I0J-225000D01*
G01*
G37*
G36*
G01*
X14737800Y29828300D02*
X14737800Y29328300D01*
G75*
G02*
X14512800Y29103300I-225000J0D01*
G01*
X14062800Y29103300D01*
G75*
G02*
X13837800Y29328300I0J225000D01*
G01*
X13837800Y29828300D01*
G75*
G02*
X14062800Y30053300I225000J0D01*
G01*
X14512800Y30053300D01*
G75*
G02*
X14737800Y29828300I0J-225000D01*
G01*
G37*
D10*
X2468800Y29935300D03*
X2468800Y14235300D03*
X7368800Y14835300D03*
X7368800Y29335300D03*
G36*
G01*
X7368800Y26585300D02*
X9268800Y26585300D01*
G75*
G02*
X9368800Y26485300I0J-100000D01*
G01*
X9368800Y26185300D01*
G75*
G02*
X9268800Y26085300I-100000J0D01*
G01*
X7368800Y26085300D01*
G75*
G02*
X7268800Y26185300I0J100000D01*
G01*
X7268800Y26485300D01*
G75*
G02*
X7368800Y26585300I100000J0D01*
G01*
G37*
G36*
G01*
X7368800Y26085300D02*
X9268800Y26085300D01*
G75*
G02*
X9368800Y25985300I0J-100000D01*
G01*
X9368800Y25685300D01*
G75*
G02*
X9268800Y25585300I-100000J0D01*
G01*
X7368800Y25585300D01*
G75*
G02*
X7268800Y25685300I0J100000D01*
G01*
X7268800Y25985300D01*
G75*
G02*
X7368800Y26085300I100000J0D01*
G01*
G37*
G36*
G01*
X7368800Y25586900D02*
X9268800Y25586900D01*
G75*
G02*
X9370400Y25485300I0J-101600D01*
G01*
X9370400Y25185300D01*
G75*
G02*
X9268800Y25083700I-101600J0D01*
G01*
X7368800Y25083700D01*
G75*
G02*
X7267200Y25185300I0J101600D01*
G01*
X7267200Y25485300D01*
G75*
G02*
X7368800Y25586900I101600J0D01*
G01*
G37*
G36*
G01*
X7368800Y25086900D02*
X9268800Y25086900D01*
G75*
G02*
X9370400Y24985300I0J-101600D01*
G01*
X9370400Y24685300D01*
G75*
G02*
X9268800Y24583700I-101600J0D01*
G01*
X7368800Y24583700D01*
G75*
G02*
X7267200Y24685300I0J101600D01*
G01*
X7267200Y24985300D01*
G75*
G02*
X7368800Y25086900I101600J0D01*
G01*
G37*
G36*
G01*
X7368800Y24586900D02*
X9268800Y24586900D01*
G75*
G02*
X9370400Y24485300I0J-101600D01*
G01*
X9370400Y24185300D01*
G75*
G02*
X9268800Y24083700I-101600J0D01*
G01*
X7368800Y24083700D01*
G75*
G02*
X7267200Y24185300I0J101600D01*
G01*
X7267200Y24485300D01*
G75*
G02*
X7368800Y24586900I101600J0D01*
G01*
G37*
G36*
G01*
X7368800Y24086900D02*
X9268800Y24086900D01*
G75*
G02*
X9370400Y23985300I0J-101600D01*
G01*
X9370400Y23685300D01*
G75*
G02*
X9268800Y23583700I-101600J0D01*
G01*
X7368800Y23583700D01*
G75*
G02*
X7267200Y23685300I0J101600D01*
G01*
X7267200Y23985300D01*
G75*
G02*
X7368800Y24086900I101600J0D01*
G01*
G37*
G36*
G01*
X7368800Y23586900D02*
X9268800Y23586900D01*
G75*
G02*
X9370400Y23485300I0J-101600D01*
G01*
X9370400Y23185300D01*
G75*
G02*
X9268800Y23083700I-101600J0D01*
G01*
X7368800Y23083700D01*
G75*
G02*
X7267200Y23185300I0J101600D01*
G01*
X7267200Y23485300D01*
G75*
G02*
X7368800Y23586900I101600J0D01*
G01*
G37*
G36*
G01*
X7368800Y23086900D02*
X9268800Y23086900D01*
G75*
G02*
X9370400Y22985300I0J-101600D01*
G01*
X9370400Y22685300D01*
G75*
G02*
X9268800Y22583700I-101600J0D01*
G01*
X7368800Y22583700D01*
G75*
G02*
X7267200Y22685300I0J101600D01*
G01*
X7267200Y22985300D01*
G75*
G02*
X7368800Y23086900I101600J0D01*
G01*
G37*
G36*
G01*
X7368800Y22586900D02*
X9268800Y22586900D01*
G75*
G02*
X9370400Y22485300I0J-101600D01*
G01*
X9370400Y22185300D01*
G75*
G02*
X9268800Y22083700I-101600J0D01*
G01*
X7368800Y22083700D01*
G75*
G02*
X7267200Y22185300I0J101600D01*
G01*
X7267200Y22485300D01*
G75*
G02*
X7368800Y22586900I101600J0D01*
G01*
G37*
G36*
G01*
X7368800Y17586900D02*
X9268800Y17586900D01*
G75*
G02*
X9370400Y17485300I0J-101600D01*
G01*
X9370400Y17185300D01*
G75*
G02*
X9268800Y17083700I-101600J0D01*
G01*
X7368800Y17083700D01*
G75*
G02*
X7267200Y17185300I0J101600D01*
G01*
X7267200Y17485300D01*
G75*
G02*
X7368800Y17586900I101600J0D01*
G01*
G37*
G36*
G01*
X7368800Y18086900D02*
X9268800Y18086900D01*
G75*
G02*
X9370400Y17985300I0J-101600D01*
G01*
X9370400Y17685300D01*
G75*
G02*
X9268800Y17583700I-101600J0D01*
G01*
X7368800Y17583700D01*
G75*
G02*
X7267200Y17685300I0J101600D01*
G01*
X7267200Y17985300D01*
G75*
G02*
X7368800Y18086900I101600J0D01*
G01*
G37*
G36*
G01*
X7368800Y18586900D02*
X9268800Y18586900D01*
G75*
G02*
X9370400Y18485300I0J-101600D01*
G01*
X9370400Y18185300D01*
G75*
G02*
X9268800Y18083700I-101600J0D01*
G01*
X7368800Y18083700D01*
G75*
G02*
X7267200Y18185300I0J101600D01*
G01*
X7267200Y18485300D01*
G75*
G02*
X7368800Y18586900I101600J0D01*
G01*
G37*
G36*
G01*
X7368800Y19086900D02*
X9268800Y19086900D01*
G75*
G02*
X9370400Y18985300I0J-101600D01*
G01*
X9370400Y18685300D01*
G75*
G02*
X9268800Y18583700I-101600J0D01*
G01*
X7368800Y18583700D01*
G75*
G02*
X7267200Y18685300I0J101600D01*
G01*
X7267200Y18985300D01*
G75*
G02*
X7368800Y19086900I101600J0D01*
G01*
G37*
G36*
G01*
X7368800Y19586900D02*
X9268800Y19586900D01*
G75*
G02*
X9370400Y19485300I0J-101600D01*
G01*
X9370400Y19185300D01*
G75*
G02*
X9268800Y19083700I-101600J0D01*
G01*
X7368800Y19083700D01*
G75*
G02*
X7267200Y19185300I0J101600D01*
G01*
X7267200Y19485300D01*
G75*
G02*
X7368800Y19586900I101600J0D01*
G01*
G37*
G36*
G01*
X7368800Y20086900D02*
X9268800Y20086900D01*
G75*
G02*
X9370400Y19985300I0J-101600D01*
G01*
X9370400Y19685300D01*
G75*
G02*
X9268800Y19583700I-101600J0D01*
G01*
X7368800Y19583700D01*
G75*
G02*
X7267200Y19685300I0J101600D01*
G01*
X7267200Y19985300D01*
G75*
G02*
X7368800Y20086900I101600J0D01*
G01*
G37*
G36*
G01*
X7368800Y20586900D02*
X9268800Y20586900D01*
G75*
G02*
X9370400Y20485300I0J-101600D01*
G01*
X9370400Y20185300D01*
G75*
G02*
X9268800Y20083700I-101600J0D01*
G01*
X7368800Y20083700D01*
G75*
G02*
X7267200Y20185300I0J101600D01*
G01*
X7267200Y20485300D01*
G75*
G02*
X7368800Y20586900I101600J0D01*
G01*
G37*
G36*
G01*
X7368800Y21086900D02*
X9268800Y21086900D01*
G75*
G02*
X9370400Y20985300I0J-101600D01*
G01*
X9370400Y20685300D01*
G75*
G02*
X9268800Y20583700I-101600J0D01*
G01*
X7368800Y20583700D01*
G75*
G02*
X7267200Y20685300I0J101600D01*
G01*
X7267200Y20985300D01*
G75*
G02*
X7368800Y21086900I101600J0D01*
G01*
G37*
G36*
G01*
X7368800Y21586900D02*
X9268800Y21586900D01*
G75*
G02*
X9370400Y21485300I0J-101600D01*
G01*
X9370400Y21185300D01*
G75*
G02*
X9268800Y21083700I-101600J0D01*
G01*
X7368800Y21083700D01*
G75*
G02*
X7267200Y21185300I0J101600D01*
G01*
X7267200Y21485300D01*
G75*
G02*
X7368800Y21586900I101600J0D01*
G01*
G37*
G36*
G01*
X7368800Y22086900D02*
X9268800Y22086900D01*
G75*
G02*
X9370400Y21985300I0J-101600D01*
G01*
X9370400Y21685300D01*
G75*
G02*
X9268800Y21583700I-101600J0D01*
G01*
X7368800Y21583700D01*
G75*
G02*
X7267200Y21685300I0J101600D01*
G01*
X7267200Y21985300D01*
G75*
G02*
X7368800Y22086900I101600J0D01*
G01*
G37*
D11*
X82346800Y37325300D03*
X77266800Y37325300D03*
X82346800Y15862300D03*
X77266800Y15862300D03*
X82346800Y26593800D03*
X77266800Y26593800D03*
D12*
X7162800Y9766300D03*
X12369800Y13830300D03*
X10845800Y7099300D03*
X10845800Y9766300D03*
X3086100Y37934900D03*
X34848800Y4178300D03*
X3606800Y9766300D03*
X3124200Y34048700D03*
G36*
G01*
X15969800Y9999300D02*
X15969800Y10549300D01*
G75*
G02*
X16169800Y10749300I200000J0D01*
G01*
X16569800Y10749300D01*
G75*
G02*
X16769800Y10549300I0J-200000D01*
G01*
X16769800Y9999300D01*
G75*
G02*
X16569800Y9799300I-200000J0D01*
G01*
X16169800Y9799300D01*
G75*
G02*
X15969800Y9999300I0J200000D01*
G01*
G37*
G36*
G01*
X14319800Y9999300D02*
X14319800Y10549300D01*
G75*
G02*
X14519800Y10749300I200000J0D01*
G01*
X14919800Y10749300D01*
G75*
G02*
X15119800Y10549300I0J-200000D01*
G01*
X15119800Y9999300D01*
G75*
G02*
X14919800Y9799300I-200000J0D01*
G01*
X14519800Y9799300D01*
G75*
G02*
X14319800Y9999300I0J200000D01*
G01*
G37*
G36*
G01*
X16624300Y5136800D02*
X16624300Y5386800D01*
G75*
G02*
X16694300Y5456800I70000J0D01*
G01*
X17194300Y5456800D01*
G75*
G02*
X17264300Y5386800I0J-70000D01*
G01*
X17264300Y5136800D01*
G75*
G02*
X17194300Y5066800I-70000J0D01*
G01*
X16694300Y5066800D01*
G75*
G02*
X16624300Y5136800I0J70000D01*
G01*
G37*
G36*
G01*
X18524300Y5636800D02*
X18524300Y5886800D01*
G75*
G02*
X18594300Y5956800I70000J0D01*
G01*
X19094300Y5956800D01*
G75*
G02*
X19164300Y5886800I0J-70000D01*
G01*
X19164300Y5636800D01*
G75*
G02*
X19094300Y5566800I-70000J0D01*
G01*
X18594300Y5566800D01*
G75*
G02*
X18524300Y5636800I0J70000D01*
G01*
G37*
G36*
G01*
X18524300Y6136800D02*
X18524300Y6386800D01*
G75*
G02*
X18594300Y6456800I70000J0D01*
G01*
X19094300Y6456800D01*
G75*
G02*
X19164300Y6386800I0J-70000D01*
G01*
X19164300Y6136800D01*
G75*
G02*
X19094300Y6066800I-70000J0D01*
G01*
X18594300Y6066800D01*
G75*
G02*
X18524300Y6136800I0J70000D01*
G01*
G37*
D13*
X17894300Y5511800D03*
G36*
G01*
X16624300Y6136800D02*
X16624300Y6386800D01*
G75*
G02*
X16694300Y6456800I70000J0D01*
G01*
X17194300Y6456800D01*
G75*
G02*
X17264300Y6386800I0J-70000D01*
G01*
X17264300Y6136800D01*
G75*
G02*
X17194300Y6066800I-70000J0D01*
G01*
X16694300Y6066800D01*
G75*
G02*
X16624300Y6136800I0J70000D01*
G01*
G37*
G36*
G01*
X16624300Y5636800D02*
X16624300Y5886800D01*
G75*
G02*
X16694300Y5956800I70000J0D01*
G01*
X17194300Y5956800D01*
G75*
G02*
X17264300Y5886800I0J-70000D01*
G01*
X17264300Y5636800D01*
G75*
G02*
X17194300Y5566800I-70000J0D01*
G01*
X16694300Y5566800D01*
G75*
G02*
X16624300Y5636800I0J70000D01*
G01*
G37*
G36*
G01*
X16624300Y4636800D02*
X16624300Y4886800D01*
G75*
G02*
X16694300Y4956800I70000J0D01*
G01*
X17194300Y4956800D01*
G75*
G02*
X17264300Y4886800I0J-70000D01*
G01*
X17264300Y4636800D01*
G75*
G02*
X17194300Y4566800I-70000J0D01*
G01*
X16694300Y4566800D01*
G75*
G02*
X16624300Y4636800I0J70000D01*
G01*
G37*
G36*
G01*
X18524300Y4636800D02*
X18524300Y4886800D01*
G75*
G02*
X18594300Y4956800I70000J0D01*
G01*
X19094300Y4956800D01*
G75*
G02*
X19164300Y4886800I0J-70000D01*
G01*
X19164300Y4636800D01*
G75*
G02*
X19094300Y4566800I-70000J0D01*
G01*
X18594300Y4566800D01*
G75*
G02*
X18524300Y4636800I0J70000D01*
G01*
G37*
G36*
G01*
X18524300Y5136800D02*
X18524300Y5386800D01*
G75*
G02*
X18594300Y5456800I70000J0D01*
G01*
X19094300Y5456800D01*
G75*
G02*
X19164300Y5386800I0J-70000D01*
G01*
X19164300Y5136800D01*
G75*
G02*
X19094300Y5066800I-70000J0D01*
G01*
X18594300Y5066800D01*
G75*
G02*
X18524300Y5136800I0J70000D01*
G01*
G37*
G36*
G01*
X22017800Y5265300D02*
X21517800Y5265300D01*
G75*
G02*
X21292800Y5490300I0J225000D01*
G01*
X21292800Y5940300D01*
G75*
G02*
X21517800Y6165300I225000J0D01*
G01*
X22017800Y6165300D01*
G75*
G02*
X22242800Y5940300I0J-225000D01*
G01*
X22242800Y5490300D01*
G75*
G02*
X22017800Y5265300I-225000J0D01*
G01*
G37*
G36*
G01*
X22017800Y3715300D02*
X21517800Y3715300D01*
G75*
G02*
X21292800Y3940300I0J225000D01*
G01*
X21292800Y4390300D01*
G75*
G02*
X21517800Y4615300I225000J0D01*
G01*
X22017800Y4615300D01*
G75*
G02*
X22242800Y4390300I0J-225000D01*
G01*
X22242800Y3940300D01*
G75*
G02*
X22017800Y3715300I-225000J0D01*
G01*
G37*
G36*
G01*
X15032800Y7805300D02*
X14532800Y7805300D01*
G75*
G02*
X14307800Y8030300I0J225000D01*
G01*
X14307800Y8480300D01*
G75*
G02*
X14532800Y8705300I225000J0D01*
G01*
X15032800Y8705300D01*
G75*
G02*
X15257800Y8480300I0J-225000D01*
G01*
X15257800Y8030300D01*
G75*
G02*
X15032800Y7805300I-225000J0D01*
G01*
G37*
G36*
G01*
X15032800Y6255300D02*
X14532800Y6255300D01*
G75*
G02*
X14307800Y6480300I0J225000D01*
G01*
X14307800Y6930300D01*
G75*
G02*
X14532800Y7155300I225000J0D01*
G01*
X15032800Y7155300D01*
G75*
G02*
X15257800Y6930300I0J-225000D01*
G01*
X15257800Y6480300D01*
G75*
G02*
X15032800Y6255300I-225000J0D01*
G01*
G37*
D14*
X57938299Y30145299D03*
X63018299Y30145299D03*
X63018299Y36885301D03*
X55398299Y36885301D03*
G36*
G01*
X28669800Y22191300D02*
X28669800Y22741300D01*
G75*
G02*
X28869800Y22941300I200000J0D01*
G01*
X29269800Y22941300D01*
G75*
G02*
X29469800Y22741300I0J-200000D01*
G01*
X29469800Y22191300D01*
G75*
G02*
X29269800Y21991300I-200000J0D01*
G01*
X28869800Y21991300D01*
G75*
G02*
X28669800Y22191300I0J200000D01*
G01*
G37*
G36*
G01*
X27019800Y22191300D02*
X27019800Y22741300D01*
G75*
G02*
X27219800Y22941300I200000J0D01*
G01*
X27619800Y22941300D01*
G75*
G02*
X27819800Y22741300I0J-200000D01*
G01*
X27819800Y22191300D01*
G75*
G02*
X27619800Y21991300I-200000J0D01*
G01*
X27219800Y21991300D01*
G75*
G02*
X27019800Y22191300I0J200000D01*
G01*
G37*
G36*
G01*
X13556800Y21937300D02*
X13556800Y22487300D01*
G75*
G02*
X13756800Y22687300I200000J0D01*
G01*
X14156800Y22687300D01*
G75*
G02*
X14356800Y22487300I0J-200000D01*
G01*
X14356800Y21937300D01*
G75*
G02*
X14156800Y21737300I-200000J0D01*
G01*
X13756800Y21737300D01*
G75*
G02*
X13556800Y21937300I0J200000D01*
G01*
G37*
G36*
G01*
X11906800Y21937300D02*
X11906800Y22487300D01*
G75*
G02*
X12106800Y22687300I200000J0D01*
G01*
X12506800Y22687300D01*
G75*
G02*
X12706800Y22487300I0J-200000D01*
G01*
X12706800Y21937300D01*
G75*
G02*
X12506800Y21737300I-200000J0D01*
G01*
X12106800Y21737300D01*
G75*
G02*
X11906800Y21937300I0J200000D01*
G01*
G37*
G36*
G01*
X28669800Y25112300D02*
X28669800Y25662300D01*
G75*
G02*
X28869800Y25862300I200000J0D01*
G01*
X29269800Y25862300D01*
G75*
G02*
X29469800Y25662300I0J-200000D01*
G01*
X29469800Y25112300D01*
G75*
G02*
X29269800Y24912300I-200000J0D01*
G01*
X28869800Y24912300D01*
G75*
G02*
X28669800Y25112300I0J200000D01*
G01*
G37*
G36*
G01*
X27019800Y25112300D02*
X27019800Y25662300D01*
G75*
G02*
X27219800Y25862300I200000J0D01*
G01*
X27619800Y25862300D01*
G75*
G02*
X27819800Y25662300I0J-200000D01*
G01*
X27819800Y25112300D01*
G75*
G02*
X27619800Y24912300I-200000J0D01*
G01*
X27219800Y24912300D01*
G75*
G02*
X27019800Y25112300I0J200000D01*
G01*
G37*
G36*
G01*
X13556800Y18889300D02*
X13556800Y19439300D01*
G75*
G02*
X13756800Y19639300I200000J0D01*
G01*
X14156800Y19639300D01*
G75*
G02*
X14356800Y19439300I0J-200000D01*
G01*
X14356800Y18889300D01*
G75*
G02*
X14156800Y18689300I-200000J0D01*
G01*
X13756800Y18689300D01*
G75*
G02*
X13556800Y18889300I0J200000D01*
G01*
G37*
G36*
G01*
X11906800Y18889300D02*
X11906800Y19439300D01*
G75*
G02*
X12106800Y19639300I200000J0D01*
G01*
X12506800Y19639300D01*
G75*
G02*
X12706800Y19439300I0J-200000D01*
G01*
X12706800Y18889300D01*
G75*
G02*
X12506800Y18689300I-200000J0D01*
G01*
X12106800Y18689300D01*
G75*
G02*
X11906800Y18889300I0J200000D01*
G01*
G37*
G36*
G01*
X67189800Y43696300D02*
X67189800Y43146300D01*
G75*
G02*
X66989800Y42946300I-200000J0D01*
G01*
X66589800Y42946300D01*
G75*
G02*
X66389800Y43146300I0J200000D01*
G01*
X66389800Y43696300D01*
G75*
G02*
X66589800Y43896300I200000J0D01*
G01*
X66989800Y43896300D01*
G75*
G02*
X67189800Y43696300I0J-200000D01*
G01*
G37*
G36*
G01*
X68839800Y43696300D02*
X68839800Y43146300D01*
G75*
G02*
X68639800Y42946300I-200000J0D01*
G01*
X68239800Y42946300D01*
G75*
G02*
X68039800Y43146300I0J200000D01*
G01*
X68039800Y43696300D01*
G75*
G02*
X68239800Y43896300I200000J0D01*
G01*
X68639800Y43896300D01*
G75*
G02*
X68839800Y43696300I0J-200000D01*
G01*
G37*
G36*
G01*
X69602800Y7882300D02*
X69602800Y7332300D01*
G75*
G02*
X69402800Y7132300I-200000J0D01*
G01*
X69002800Y7132300D01*
G75*
G02*
X68802800Y7332300I0J200000D01*
G01*
X68802800Y7882300D01*
G75*
G02*
X69002800Y8082300I200000J0D01*
G01*
X69402800Y8082300D01*
G75*
G02*
X69602800Y7882300I0J-200000D01*
G01*
G37*
G36*
G01*
X71252800Y7882300D02*
X71252800Y7332300D01*
G75*
G02*
X71052800Y7132300I-200000J0D01*
G01*
X70652800Y7132300D01*
G75*
G02*
X70452800Y7332300I0J200000D01*
G01*
X70452800Y7882300D01*
G75*
G02*
X70652800Y8082300I200000J0D01*
G01*
X71052800Y8082300D01*
G75*
G02*
X71252800Y7882300I0J-200000D01*
G01*
G37*
G36*
G01*
X42639800Y29684300D02*
X42639800Y30234300D01*
G75*
G02*
X42839800Y30434300I200000J0D01*
G01*
X43239800Y30434300D01*
G75*
G02*
X43439800Y30234300I0J-200000D01*
G01*
X43439800Y29684300D01*
G75*
G02*
X43239800Y29484300I-200000J0D01*
G01*
X42839800Y29484300D01*
G75*
G02*
X42639800Y29684300I0J200000D01*
G01*
G37*
G36*
G01*
X40989800Y29684300D02*
X40989800Y30234300D01*
G75*
G02*
X41189800Y30434300I200000J0D01*
G01*
X41589800Y30434300D01*
G75*
G02*
X41789800Y30234300I0J-200000D01*
G01*
X41789800Y29684300D01*
G75*
G02*
X41589800Y29484300I-200000J0D01*
G01*
X41189800Y29484300D01*
G75*
G02*
X40989800Y29684300I0J200000D01*
G01*
G37*
G36*
G01*
X42639800Y26890300D02*
X42639800Y27440300D01*
G75*
G02*
X42839800Y27640300I200000J0D01*
G01*
X43239800Y27640300D01*
G75*
G02*
X43439800Y27440300I0J-200000D01*
G01*
X43439800Y26890300D01*
G75*
G02*
X43239800Y26690300I-200000J0D01*
G01*
X42839800Y26690300D01*
G75*
G02*
X42639800Y26890300I0J200000D01*
G01*
G37*
G36*
G01*
X40989800Y26890300D02*
X40989800Y27440300D01*
G75*
G02*
X41189800Y27640300I200000J0D01*
G01*
X41589800Y27640300D01*
G75*
G02*
X41789800Y27440300I0J-200000D01*
G01*
X41789800Y26890300D01*
G75*
G02*
X41589800Y26690300I-200000J0D01*
G01*
X41189800Y26690300D01*
G75*
G02*
X40989800Y26890300I0J200000D01*
G01*
G37*
G36*
G01*
X42639800Y24096300D02*
X42639800Y24646300D01*
G75*
G02*
X42839800Y24846300I200000J0D01*
G01*
X43239800Y24846300D01*
G75*
G02*
X43439800Y24646300I0J-200000D01*
G01*
X43439800Y24096300D01*
G75*
G02*
X43239800Y23896300I-200000J0D01*
G01*
X42839800Y23896300D01*
G75*
G02*
X42639800Y24096300I0J200000D01*
G01*
G37*
G36*
G01*
X40989800Y24096300D02*
X40989800Y24646300D01*
G75*
G02*
X41189800Y24846300I200000J0D01*
G01*
X41589800Y24846300D01*
G75*
G02*
X41789800Y24646300I0J-200000D01*
G01*
X41789800Y24096300D01*
G75*
G02*
X41589800Y23896300I-200000J0D01*
G01*
X41189800Y23896300D01*
G75*
G02*
X40989800Y24096300I0J200000D01*
G01*
G37*
G36*
G01*
X42639800Y21302300D02*
X42639800Y21852300D01*
G75*
G02*
X42839800Y22052300I200000J0D01*
G01*
X43239800Y22052300D01*
G75*
G02*
X43439800Y21852300I0J-200000D01*
G01*
X43439800Y21302300D01*
G75*
G02*
X43239800Y21102300I-200000J0D01*
G01*
X42839800Y21102300D01*
G75*
G02*
X42639800Y21302300I0J200000D01*
G01*
G37*
G36*
G01*
X40989800Y21302300D02*
X40989800Y21852300D01*
G75*
G02*
X41189800Y22052300I200000J0D01*
G01*
X41589800Y22052300D01*
G75*
G02*
X41789800Y21852300I0J-200000D01*
G01*
X41789800Y21302300D01*
G75*
G02*
X41589800Y21102300I-200000J0D01*
G01*
X41189800Y21102300D01*
G75*
G02*
X40989800Y21302300I0J200000D01*
G01*
G37*
G36*
G01*
X42639800Y32478300D02*
X42639800Y33028300D01*
G75*
G02*
X42839800Y33228300I200000J0D01*
G01*
X43239800Y33228300D01*
G75*
G02*
X43439800Y33028300I0J-200000D01*
G01*
X43439800Y32478300D01*
G75*
G02*
X43239800Y32278300I-200000J0D01*
G01*
X42839800Y32278300D01*
G75*
G02*
X42639800Y32478300I0J200000D01*
G01*
G37*
G36*
G01*
X40989800Y32478300D02*
X40989800Y33028300D01*
G75*
G02*
X41189800Y33228300I200000J0D01*
G01*
X41589800Y33228300D01*
G75*
G02*
X41789800Y33028300I0J-200000D01*
G01*
X41789800Y32478300D01*
G75*
G02*
X41589800Y32278300I-200000J0D01*
G01*
X41189800Y32278300D01*
G75*
G02*
X40989800Y32478300I0J200000D01*
G01*
G37*
G36*
G01*
X46068800Y31716300D02*
X46068800Y32266300D01*
G75*
G02*
X46268800Y32466300I200000J0D01*
G01*
X46668800Y32466300D01*
G75*
G02*
X46868800Y32266300I0J-200000D01*
G01*
X46868800Y31716300D01*
G75*
G02*
X46668800Y31516300I-200000J0D01*
G01*
X46268800Y31516300D01*
G75*
G02*
X46068800Y31716300I0J200000D01*
G01*
G37*
G36*
G01*
X44418800Y31716300D02*
X44418800Y32266300D01*
G75*
G02*
X44618800Y32466300I200000J0D01*
G01*
X45018800Y32466300D01*
G75*
G02*
X45218800Y32266300I0J-200000D01*
G01*
X45218800Y31716300D01*
G75*
G02*
X45018800Y31516300I-200000J0D01*
G01*
X44618800Y31516300D01*
G75*
G02*
X44418800Y31716300I0J200000D01*
G01*
G37*
G36*
G01*
X46068800Y28668300D02*
X46068800Y29218300D01*
G75*
G02*
X46268800Y29418300I200000J0D01*
G01*
X46668800Y29418300D01*
G75*
G02*
X46868800Y29218300I0J-200000D01*
G01*
X46868800Y28668300D01*
G75*
G02*
X46668800Y28468300I-200000J0D01*
G01*
X46268800Y28468300D01*
G75*
G02*
X46068800Y28668300I0J200000D01*
G01*
G37*
G36*
G01*
X44418800Y28668300D02*
X44418800Y29218300D01*
G75*
G02*
X44618800Y29418300I200000J0D01*
G01*
X45018800Y29418300D01*
G75*
G02*
X45218800Y29218300I0J-200000D01*
G01*
X45218800Y28668300D01*
G75*
G02*
X45018800Y28468300I-200000J0D01*
G01*
X44618800Y28468300D01*
G75*
G02*
X44418800Y28668300I0J200000D01*
G01*
G37*
D15*
X67103800Y4305300D03*
X69903800Y4305300D03*
X77266800Y20050300D03*
X77266800Y22850300D03*
G36*
G01*
X23775800Y20411300D02*
X23775800Y20711300D01*
G75*
G02*
X23925800Y20861300I150000J0D01*
G01*
X25575800Y20861300D01*
G75*
G02*
X25725800Y20711300I0J-150000D01*
G01*
X25725800Y20411300D01*
G75*
G02*
X25575800Y20261300I-150000J0D01*
G01*
X23925800Y20261300D01*
G75*
G02*
X23775800Y20411300I0J150000D01*
G01*
G37*
G36*
G01*
X23775800Y19141300D02*
X23775800Y19441300D01*
G75*
G02*
X23925800Y19591300I150000J0D01*
G01*
X25575800Y19591300D01*
G75*
G02*
X25725800Y19441300I0J-150000D01*
G01*
X25725800Y19141300D01*
G75*
G02*
X25575800Y18991300I-150000J0D01*
G01*
X23925800Y18991300D01*
G75*
G02*
X23775800Y19141300I0J150000D01*
G01*
G37*
G36*
G01*
X23775800Y17871300D02*
X23775800Y18171300D01*
G75*
G02*
X23925800Y18321300I150000J0D01*
G01*
X25575800Y18321300D01*
G75*
G02*
X25725800Y18171300I0J-150000D01*
G01*
X25725800Y17871300D01*
G75*
G02*
X25575800Y17721300I-150000J0D01*
G01*
X23925800Y17721300D01*
G75*
G02*
X23775800Y17871300I0J150000D01*
G01*
G37*
G36*
G01*
X23775800Y16601300D02*
X23775800Y16901300D01*
G75*
G02*
X23925800Y17051300I150000J0D01*
G01*
X25575800Y17051300D01*
G75*
G02*
X25725800Y16901300I0J-150000D01*
G01*
X25725800Y16601300D01*
G75*
G02*
X25575800Y16451300I-150000J0D01*
G01*
X23925800Y16451300D01*
G75*
G02*
X23775800Y16601300I0J150000D01*
G01*
G37*
G36*
G01*
X18825800Y16601300D02*
X18825800Y16901300D01*
G75*
G02*
X18975800Y17051300I150000J0D01*
G01*
X20625800Y17051300D01*
G75*
G02*
X20775800Y16901300I0J-150000D01*
G01*
X20775800Y16601300D01*
G75*
G02*
X20625800Y16451300I-150000J0D01*
G01*
X18975800Y16451300D01*
G75*
G02*
X18825800Y16601300I0J150000D01*
G01*
G37*
G36*
G01*
X18825800Y17871300D02*
X18825800Y18171300D01*
G75*
G02*
X18975800Y18321300I150000J0D01*
G01*
X20625800Y18321300D01*
G75*
G02*
X20775800Y18171300I0J-150000D01*
G01*
X20775800Y17871300D01*
G75*
G02*
X20625800Y17721300I-150000J0D01*
G01*
X18975800Y17721300D01*
G75*
G02*
X18825800Y17871300I0J150000D01*
G01*
G37*
G36*
G01*
X18825800Y19141300D02*
X18825800Y19441300D01*
G75*
G02*
X18975800Y19591300I150000J0D01*
G01*
X20625800Y19591300D01*
G75*
G02*
X20775800Y19441300I0J-150000D01*
G01*
X20775800Y19141300D01*
G75*
G02*
X20625800Y18991300I-150000J0D01*
G01*
X18975800Y18991300D01*
G75*
G02*
X18825800Y19141300I0J150000D01*
G01*
G37*
G36*
G01*
X18825800Y20411300D02*
X18825800Y20711300D01*
G75*
G02*
X18975800Y20861300I150000J0D01*
G01*
X20625800Y20861300D01*
G75*
G02*
X20775800Y20711300I0J-150000D01*
G01*
X20775800Y20411300D01*
G75*
G02*
X20625800Y20261300I-150000J0D01*
G01*
X18975800Y20261300D01*
G75*
G02*
X18825800Y20411300I0J150000D01*
G01*
G37*
G36*
G01*
X16028800Y42890300D02*
X16028800Y43190300D01*
G75*
G02*
X16178800Y43340300I150000J0D01*
G01*
X17828800Y43340300D01*
G75*
G02*
X17978800Y43190300I0J-150000D01*
G01*
X17978800Y42890300D01*
G75*
G02*
X17828800Y42740300I-150000J0D01*
G01*
X16178800Y42740300D01*
G75*
G02*
X16028800Y42890300I0J150000D01*
G01*
G37*
G36*
G01*
X16028800Y41620300D02*
X16028800Y41920300D01*
G75*
G02*
X16178800Y42070300I150000J0D01*
G01*
X17828800Y42070300D01*
G75*
G02*
X17978800Y41920300I0J-150000D01*
G01*
X17978800Y41620300D01*
G75*
G02*
X17828800Y41470300I-150000J0D01*
G01*
X16178800Y41470300D01*
G75*
G02*
X16028800Y41620300I0J150000D01*
G01*
G37*
G36*
G01*
X16028800Y40350300D02*
X16028800Y40650300D01*
G75*
G02*
X16178800Y40800300I150000J0D01*
G01*
X17828800Y40800300D01*
G75*
G02*
X17978800Y40650300I0J-150000D01*
G01*
X17978800Y40350300D01*
G75*
G02*
X17828800Y40200300I-150000J0D01*
G01*
X16178800Y40200300D01*
G75*
G02*
X16028800Y40350300I0J150000D01*
G01*
G37*
G36*
G01*
X16028800Y39080300D02*
X16028800Y39380300D01*
G75*
G02*
X16178800Y39530300I150000J0D01*
G01*
X17828800Y39530300D01*
G75*
G02*
X17978800Y39380300I0J-150000D01*
G01*
X17978800Y39080300D01*
G75*
G02*
X17828800Y38930300I-150000J0D01*
G01*
X16178800Y38930300D01*
G75*
G02*
X16028800Y39080300I0J150000D01*
G01*
G37*
G36*
G01*
X11078800Y39080300D02*
X11078800Y39380300D01*
G75*
G02*
X11228800Y39530300I150000J0D01*
G01*
X12878800Y39530300D01*
G75*
G02*
X13028800Y39380300I0J-150000D01*
G01*
X13028800Y39080300D01*
G75*
G02*
X12878800Y38930300I-150000J0D01*
G01*
X11228800Y38930300D01*
G75*
G02*
X11078800Y39080300I0J150000D01*
G01*
G37*
G36*
G01*
X11078800Y40350300D02*
X11078800Y40650300D01*
G75*
G02*
X11228800Y40800300I150000J0D01*
G01*
X12878800Y40800300D01*
G75*
G02*
X13028800Y40650300I0J-150000D01*
G01*
X13028800Y40350300D01*
G75*
G02*
X12878800Y40200300I-150000J0D01*
G01*
X11228800Y40200300D01*
G75*
G02*
X11078800Y40350300I0J150000D01*
G01*
G37*
G36*
G01*
X11078800Y41620300D02*
X11078800Y41920300D01*
G75*
G02*
X11228800Y42070300I150000J0D01*
G01*
X12878800Y42070300D01*
G75*
G02*
X13028800Y41920300I0J-150000D01*
G01*
X13028800Y41620300D01*
G75*
G02*
X12878800Y41470300I-150000J0D01*
G01*
X11228800Y41470300D01*
G75*
G02*
X11078800Y41620300I0J150000D01*
G01*
G37*
G36*
G01*
X11078800Y42890300D02*
X11078800Y43190300D01*
G75*
G02*
X11228800Y43340300I150000J0D01*
G01*
X12878800Y43340300D01*
G75*
G02*
X13028800Y43190300I0J-150000D01*
G01*
X13028800Y42890300D01*
G75*
G02*
X12878800Y42740300I-150000J0D01*
G01*
X11228800Y42740300D01*
G75*
G02*
X11078800Y42890300I0J150000D01*
G01*
G37*
G36*
G01*
X29027800Y29495300D02*
X28477800Y29495300D01*
G75*
G02*
X28277800Y29695300I0J200000D01*
G01*
X28277800Y30095300D01*
G75*
G02*
X28477800Y30295300I200000J0D01*
G01*
X29027800Y30295300D01*
G75*
G02*
X29227800Y30095300I0J-200000D01*
G01*
X29227800Y29695300D01*
G75*
G02*
X29027800Y29495300I-200000J0D01*
G01*
G37*
G36*
G01*
X29027800Y27845300D02*
X28477800Y27845300D01*
G75*
G02*
X28277800Y28045300I0J200000D01*
G01*
X28277800Y28445300D01*
G75*
G02*
X28477800Y28645300I200000J0D01*
G01*
X29027800Y28645300D01*
G75*
G02*
X29227800Y28445300I0J-200000D01*
G01*
X29227800Y28045300D01*
G75*
G02*
X29027800Y27845300I-200000J0D01*
G01*
G37*
G36*
G01*
X16008800Y19439300D02*
X16008800Y18889300D01*
G75*
G02*
X15808800Y18689300I-200000J0D01*
G01*
X15408800Y18689300D01*
G75*
G02*
X15208800Y18889300I0J200000D01*
G01*
X15208800Y19439300D01*
G75*
G02*
X15408800Y19639300I200000J0D01*
G01*
X15808800Y19639300D01*
G75*
G02*
X16008800Y19439300I0J-200000D01*
G01*
G37*
G36*
G01*
X17658800Y19439300D02*
X17658800Y18889300D01*
G75*
G02*
X17458800Y18689300I-200000J0D01*
G01*
X17058800Y18689300D01*
G75*
G02*
X16858800Y18889300I0J200000D01*
G01*
X16858800Y19439300D01*
G75*
G02*
X17058800Y19639300I200000J0D01*
G01*
X17458800Y19639300D01*
G75*
G02*
X17658800Y19439300I0J-200000D01*
G01*
G37*
G36*
G01*
X33749800Y28033300D02*
X33749800Y28583300D01*
G75*
G02*
X33949800Y28783300I200000J0D01*
G01*
X34349800Y28783300D01*
G75*
G02*
X34549800Y28583300I0J-200000D01*
G01*
X34549800Y28033300D01*
G75*
G02*
X34349800Y27833300I-200000J0D01*
G01*
X33949800Y27833300D01*
G75*
G02*
X33749800Y28033300I0J200000D01*
G01*
G37*
G36*
G01*
X32099800Y28033300D02*
X32099800Y28583300D01*
G75*
G02*
X32299800Y28783300I200000J0D01*
G01*
X32699800Y28783300D01*
G75*
G02*
X32899800Y28583300I0J-200000D01*
G01*
X32899800Y28033300D01*
G75*
G02*
X32699800Y27833300I-200000J0D01*
G01*
X32299800Y27833300D01*
G75*
G02*
X32099800Y28033300I0J200000D01*
G01*
G37*
G36*
G01*
X16008800Y17788300D02*
X16008800Y17238300D01*
G75*
G02*
X15808800Y17038300I-200000J0D01*
G01*
X15408800Y17038300D01*
G75*
G02*
X15208800Y17238300I0J200000D01*
G01*
X15208800Y17788300D01*
G75*
G02*
X15408800Y17988300I200000J0D01*
G01*
X15808800Y17988300D01*
G75*
G02*
X16008800Y17788300I0J-200000D01*
G01*
G37*
G36*
G01*
X17658800Y17788300D02*
X17658800Y17238300D01*
G75*
G02*
X17458800Y17038300I-200000J0D01*
G01*
X17058800Y17038300D01*
G75*
G02*
X16858800Y17238300I0J200000D01*
G01*
X16858800Y17788300D01*
G75*
G02*
X17058800Y17988300I200000J0D01*
G01*
X17458800Y17988300D01*
G75*
G02*
X17658800Y17788300I0J-200000D01*
G01*
G37*
G36*
G01*
X24565800Y28745300D02*
X25065800Y28745300D01*
G75*
G02*
X25290800Y28520300I0J-225000D01*
G01*
X25290800Y28070300D01*
G75*
G02*
X25065800Y27845300I-225000J0D01*
G01*
X24565800Y27845300D01*
G75*
G02*
X24340800Y28070300I0J225000D01*
G01*
X24340800Y28520300D01*
G75*
G02*
X24565800Y28745300I225000J0D01*
G01*
G37*
G36*
G01*
X24565800Y30295300D02*
X25065800Y30295300D01*
G75*
G02*
X25290800Y30070300I0J-225000D01*
G01*
X25290800Y29620300D01*
G75*
G02*
X25065800Y29395300I-225000J0D01*
G01*
X24565800Y29395300D01*
G75*
G02*
X24340800Y29620300I0J225000D01*
G01*
X24340800Y30070300D01*
G75*
G02*
X24565800Y30295300I225000J0D01*
G01*
G37*
D16*
X33916800Y37198300D03*
X33916800Y38148300D03*
X33916800Y36248300D03*
X31716800Y36248300D03*
X31716800Y37198300D03*
X31716800Y38148300D03*
G36*
G01*
X66704800Y40582300D02*
X67254800Y40582300D01*
G75*
G02*
X67454800Y40382300I0J-200000D01*
G01*
X67454800Y39982300D01*
G75*
G02*
X67254800Y39782300I-200000J0D01*
G01*
X66704800Y39782300D01*
G75*
G02*
X66504800Y39982300I0J200000D01*
G01*
X66504800Y40382300D01*
G75*
G02*
X66704800Y40582300I200000J0D01*
G01*
G37*
G36*
G01*
X66704800Y38932300D02*
X67254800Y38932300D01*
G75*
G02*
X67454800Y38732300I0J-200000D01*
G01*
X67454800Y38332300D01*
G75*
G02*
X67254800Y38132300I-200000J0D01*
G01*
X66704800Y38132300D01*
G75*
G02*
X66504800Y38332300I0J200000D01*
G01*
X66504800Y38732300D01*
G75*
G02*
X66704800Y38932300I200000J0D01*
G01*
G37*
D17*
X68818800Y34736800D03*
X68818800Y33436800D03*
X66918800Y34086800D03*
X68818800Y34086800D03*
X66918800Y33436800D03*
X66918800Y34736800D03*
G36*
G01*
X40021800Y18799300D02*
X40021800Y18999300D01*
G75*
G02*
X40121800Y19099300I100000J0D01*
G01*
X41396800Y19099300D01*
G75*
G02*
X41496800Y18999300I0J-100000D01*
G01*
X41496800Y18799300D01*
G75*
G02*
X41396800Y18699300I-100000J0D01*
G01*
X40121800Y18699300D01*
G75*
G02*
X40021800Y18799300I0J100000D01*
G01*
G37*
G36*
G01*
X40021800Y18149300D02*
X40021800Y18349300D01*
G75*
G02*
X40121800Y18449300I100000J0D01*
G01*
X41396800Y18449300D01*
G75*
G02*
X41496800Y18349300I0J-100000D01*
G01*
X41496800Y18149300D01*
G75*
G02*
X41396800Y18049300I-100000J0D01*
G01*
X40121800Y18049300D01*
G75*
G02*
X40021800Y18149300I0J100000D01*
G01*
G37*
G36*
G01*
X40021800Y17499300D02*
X40021800Y17699300D01*
G75*
G02*
X40121800Y17799300I100000J0D01*
G01*
X41396800Y17799300D01*
G75*
G02*
X41496800Y17699300I0J-100000D01*
G01*
X41496800Y17499300D01*
G75*
G02*
X41396800Y17399300I-100000J0D01*
G01*
X40121800Y17399300D01*
G75*
G02*
X40021800Y17499300I0J100000D01*
G01*
G37*
G36*
G01*
X40021800Y16849300D02*
X40021800Y17049300D01*
G75*
G02*
X40121800Y17149300I100000J0D01*
G01*
X41396800Y17149300D01*
G75*
G02*
X41496800Y17049300I0J-100000D01*
G01*
X41496800Y16849300D01*
G75*
G02*
X41396800Y16749300I-100000J0D01*
G01*
X40121800Y16749300D01*
G75*
G02*
X40021800Y16849300I0J100000D01*
G01*
G37*
G36*
G01*
X40021800Y16199300D02*
X40021800Y16399300D01*
G75*
G02*
X40121800Y16499300I100000J0D01*
G01*
X41396800Y16499300D01*
G75*
G02*
X41496800Y16399300I0J-100000D01*
G01*
X41496800Y16199300D01*
G75*
G02*
X41396800Y16099300I-100000J0D01*
G01*
X40121800Y16099300D01*
G75*
G02*
X40021800Y16199300I0J100000D01*
G01*
G37*
G36*
G01*
X40021800Y15549300D02*
X40021800Y15749300D01*
G75*
G02*
X40121800Y15849300I100000J0D01*
G01*
X41396800Y15849300D01*
G75*
G02*
X41496800Y15749300I0J-100000D01*
G01*
X41496800Y15549300D01*
G75*
G02*
X41396800Y15449300I-100000J0D01*
G01*
X40121800Y15449300D01*
G75*
G02*
X40021800Y15549300I0J100000D01*
G01*
G37*
G36*
G01*
X40021800Y14899300D02*
X40021800Y15099300D01*
G75*
G02*
X40121800Y15199300I100000J0D01*
G01*
X41396800Y15199300D01*
G75*
G02*
X41496800Y15099300I0J-100000D01*
G01*
X41496800Y14899300D01*
G75*
G02*
X41396800Y14799300I-100000J0D01*
G01*
X40121800Y14799300D01*
G75*
G02*
X40021800Y14899300I0J100000D01*
G01*
G37*
G36*
G01*
X40021800Y14249300D02*
X40021800Y14449300D01*
G75*
G02*
X40121800Y14549300I100000J0D01*
G01*
X41396800Y14549300D01*
G75*
G02*
X41496800Y14449300I0J-100000D01*
G01*
X41496800Y14249300D01*
G75*
G02*
X41396800Y14149300I-100000J0D01*
G01*
X40121800Y14149300D01*
G75*
G02*
X40021800Y14249300I0J100000D01*
G01*
G37*
G36*
G01*
X34296800Y14249300D02*
X34296800Y14449300D01*
G75*
G02*
X34396800Y14549300I100000J0D01*
G01*
X35671800Y14549300D01*
G75*
G02*
X35771800Y14449300I0J-100000D01*
G01*
X35771800Y14249300D01*
G75*
G02*
X35671800Y14149300I-100000J0D01*
G01*
X34396800Y14149300D01*
G75*
G02*
X34296800Y14249300I0J100000D01*
G01*
G37*
G36*
G01*
X34296800Y14899300D02*
X34296800Y15099300D01*
G75*
G02*
X34396800Y15199300I100000J0D01*
G01*
X35671800Y15199300D01*
G75*
G02*
X35771800Y15099300I0J-100000D01*
G01*
X35771800Y14899300D01*
G75*
G02*
X35671800Y14799300I-100000J0D01*
G01*
X34396800Y14799300D01*
G75*
G02*
X34296800Y14899300I0J100000D01*
G01*
G37*
G36*
G01*
X34296800Y15549300D02*
X34296800Y15749300D01*
G75*
G02*
X34396800Y15849300I100000J0D01*
G01*
X35671800Y15849300D01*
G75*
G02*
X35771800Y15749300I0J-100000D01*
G01*
X35771800Y15549300D01*
G75*
G02*
X35671800Y15449300I-100000J0D01*
G01*
X34396800Y15449300D01*
G75*
G02*
X34296800Y15549300I0J100000D01*
G01*
G37*
G36*
G01*
X34296800Y16199300D02*
X34296800Y16399300D01*
G75*
G02*
X34396800Y16499300I100000J0D01*
G01*
X35671800Y16499300D01*
G75*
G02*
X35771800Y16399300I0J-100000D01*
G01*
X35771800Y16199300D01*
G75*
G02*
X35671800Y16099300I-100000J0D01*
G01*
X34396800Y16099300D01*
G75*
G02*
X34296800Y16199300I0J100000D01*
G01*
G37*
G36*
G01*
X34296800Y16849300D02*
X34296800Y17049300D01*
G75*
G02*
X34396800Y17149300I100000J0D01*
G01*
X35671800Y17149300D01*
G75*
G02*
X35771800Y17049300I0J-100000D01*
G01*
X35771800Y16849300D01*
G75*
G02*
X35671800Y16749300I-100000J0D01*
G01*
X34396800Y16749300D01*
G75*
G02*
X34296800Y16849300I0J100000D01*
G01*
G37*
G36*
G01*
X34296800Y17499300D02*
X34296800Y17699300D01*
G75*
G02*
X34396800Y17799300I100000J0D01*
G01*
X35671800Y17799300D01*
G75*
G02*
X35771800Y17699300I0J-100000D01*
G01*
X35771800Y17499300D01*
G75*
G02*
X35671800Y17399300I-100000J0D01*
G01*
X34396800Y17399300D01*
G75*
G02*
X34296800Y17499300I0J100000D01*
G01*
G37*
G36*
G01*
X34296800Y18149300D02*
X34296800Y18349300D01*
G75*
G02*
X34396800Y18449300I100000J0D01*
G01*
X35671800Y18449300D01*
G75*
G02*
X35771800Y18349300I0J-100000D01*
G01*
X35771800Y18149300D01*
G75*
G02*
X35671800Y18049300I-100000J0D01*
G01*
X34396800Y18049300D01*
G75*
G02*
X34296800Y18149300I0J100000D01*
G01*
G37*
G36*
G01*
X34296800Y18799300D02*
X34296800Y18999300D01*
G75*
G02*
X34396800Y19099300I100000J0D01*
G01*
X35671800Y19099300D01*
G75*
G02*
X35771800Y18999300I0J-100000D01*
G01*
X35771800Y18799300D01*
G75*
G02*
X35671800Y18699300I-100000J0D01*
G01*
X34396800Y18699300D01*
G75*
G02*
X34296800Y18799300I0J100000D01*
G01*
G37*
G36*
G01*
X44317800Y10024300D02*
X44317800Y10524300D01*
G75*
G02*
X44542800Y10749300I225000J0D01*
G01*
X44992800Y10749300D01*
G75*
G02*
X45217800Y10524300I0J-225000D01*
G01*
X45217800Y10024300D01*
G75*
G02*
X44992800Y9799300I-225000J0D01*
G01*
X44542800Y9799300D01*
G75*
G02*
X44317800Y10024300I0J225000D01*
G01*
G37*
G36*
G01*
X42767800Y10024300D02*
X42767800Y10524300D01*
G75*
G02*
X42992800Y10749300I225000J0D01*
G01*
X43442800Y10749300D01*
G75*
G02*
X43667800Y10524300I0J-225000D01*
G01*
X43667800Y10024300D01*
G75*
G02*
X43442800Y9799300I-225000J0D01*
G01*
X42992800Y9799300D01*
G75*
G02*
X42767800Y10024300I0J225000D01*
G01*
G37*
G36*
G01*
X28127799Y36933300D02*
X29377801Y36933300D01*
G75*
G02*
X29627800Y36683301I0J-249999D01*
G01*
X29627800Y36058299D01*
G75*
G02*
X29377801Y35808300I-249999J0D01*
G01*
X28127799Y35808300D01*
G75*
G02*
X27877800Y36058299I0J249999D01*
G01*
X27877800Y36683301D01*
G75*
G02*
X28127799Y36933300I249999J0D01*
G01*
G37*
G36*
G01*
X28127799Y39858300D02*
X29377801Y39858300D01*
G75*
G02*
X29627800Y39608301I0J-249999D01*
G01*
X29627800Y38983299D01*
G75*
G02*
X29377801Y38733300I-249999J0D01*
G01*
X28127799Y38733300D01*
G75*
G02*
X27877800Y38983299I0J249999D01*
G01*
X27877800Y39608301D01*
G75*
G02*
X28127799Y39858300I249999J0D01*
G01*
G37*
G36*
G01*
X31789800Y33124301D02*
X31789800Y31874299D01*
G75*
G02*
X31539801Y31624300I-249999J0D01*
G01*
X30914799Y31624300D01*
G75*
G02*
X30664800Y31874299I0J249999D01*
G01*
X30664800Y33124301D01*
G75*
G02*
X30914799Y33374300I249999J0D01*
G01*
X31539801Y33374300D01*
G75*
G02*
X31789800Y33124301I0J-249999D01*
G01*
G37*
G36*
G01*
X34714800Y33124301D02*
X34714800Y31874299D01*
G75*
G02*
X34464801Y31624300I-249999J0D01*
G01*
X33839799Y31624300D01*
G75*
G02*
X33589800Y31874299I0J249999D01*
G01*
X33589800Y33124301D01*
G75*
G02*
X33839799Y33374300I249999J0D01*
G01*
X34464801Y33374300D01*
G75*
G02*
X34714800Y33124301I0J-249999D01*
G01*
G37*
G36*
G01*
X34306800Y11687300D02*
X34306800Y11887300D01*
G75*
G02*
X34406800Y11987300I100000J0D01*
G01*
X35681800Y11987300D01*
G75*
G02*
X35781800Y11887300I0J-100000D01*
G01*
X35781800Y11687300D01*
G75*
G02*
X35681800Y11587300I-100000J0D01*
G01*
X34406800Y11587300D01*
G75*
G02*
X34306800Y11687300I0J100000D01*
G01*
G37*
G36*
G01*
X34306800Y11037300D02*
X34306800Y11237300D01*
G75*
G02*
X34406800Y11337300I100000J0D01*
G01*
X35681800Y11337300D01*
G75*
G02*
X35781800Y11237300I0J-100000D01*
G01*
X35781800Y11037300D01*
G75*
G02*
X35681800Y10937300I-100000J0D01*
G01*
X34406800Y10937300D01*
G75*
G02*
X34306800Y11037300I0J100000D01*
G01*
G37*
G36*
G01*
X34306800Y10387300D02*
X34306800Y10587300D01*
G75*
G02*
X34406800Y10687300I100000J0D01*
G01*
X35681800Y10687300D01*
G75*
G02*
X35781800Y10587300I0J-100000D01*
G01*
X35781800Y10387300D01*
G75*
G02*
X35681800Y10287300I-100000J0D01*
G01*
X34406800Y10287300D01*
G75*
G02*
X34306800Y10387300I0J100000D01*
G01*
G37*
G36*
G01*
X34306800Y9737300D02*
X34306800Y9937300D01*
G75*
G02*
X34406800Y10037300I100000J0D01*
G01*
X35681800Y10037300D01*
G75*
G02*
X35781800Y9937300I0J-100000D01*
G01*
X35781800Y9737300D01*
G75*
G02*
X35681800Y9637300I-100000J0D01*
G01*
X34406800Y9637300D01*
G75*
G02*
X34306800Y9737300I0J100000D01*
G01*
G37*
G36*
G01*
X34306800Y9087300D02*
X34306800Y9287300D01*
G75*
G02*
X34406800Y9387300I100000J0D01*
G01*
X35681800Y9387300D01*
G75*
G02*
X35781800Y9287300I0J-100000D01*
G01*
X35781800Y9087300D01*
G75*
G02*
X35681800Y8987300I-100000J0D01*
G01*
X34406800Y8987300D01*
G75*
G02*
X34306800Y9087300I0J100000D01*
G01*
G37*
G36*
G01*
X34306800Y8437300D02*
X34306800Y8637300D01*
G75*
G02*
X34406800Y8737300I100000J0D01*
G01*
X35681800Y8737300D01*
G75*
G02*
X35781800Y8637300I0J-100000D01*
G01*
X35781800Y8437300D01*
G75*
G02*
X35681800Y8337300I-100000J0D01*
G01*
X34406800Y8337300D01*
G75*
G02*
X34306800Y8437300I0J100000D01*
G01*
G37*
G36*
G01*
X34306800Y7787300D02*
X34306800Y7987300D01*
G75*
G02*
X34406800Y8087300I100000J0D01*
G01*
X35681800Y8087300D01*
G75*
G02*
X35781800Y7987300I0J-100000D01*
G01*
X35781800Y7787300D01*
G75*
G02*
X35681800Y7687300I-100000J0D01*
G01*
X34406800Y7687300D01*
G75*
G02*
X34306800Y7787300I0J100000D01*
G01*
G37*
G36*
G01*
X34306800Y7137300D02*
X34306800Y7337300D01*
G75*
G02*
X34406800Y7437300I100000J0D01*
G01*
X35681800Y7437300D01*
G75*
G02*
X35781800Y7337300I0J-100000D01*
G01*
X35781800Y7137300D01*
G75*
G02*
X35681800Y7037300I-100000J0D01*
G01*
X34406800Y7037300D01*
G75*
G02*
X34306800Y7137300I0J100000D01*
G01*
G37*
G36*
G01*
X28581800Y7137300D02*
X28581800Y7337300D01*
G75*
G02*
X28681800Y7437300I100000J0D01*
G01*
X29956800Y7437300D01*
G75*
G02*
X30056800Y7337300I0J-100000D01*
G01*
X30056800Y7137300D01*
G75*
G02*
X29956800Y7037300I-100000J0D01*
G01*
X28681800Y7037300D01*
G75*
G02*
X28581800Y7137300I0J100000D01*
G01*
G37*
G36*
G01*
X28581800Y7787300D02*
X28581800Y7987300D01*
G75*
G02*
X28681800Y8087300I100000J0D01*
G01*
X29956800Y8087300D01*
G75*
G02*
X30056800Y7987300I0J-100000D01*
G01*
X30056800Y7787300D01*
G75*
G02*
X29956800Y7687300I-100000J0D01*
G01*
X28681800Y7687300D01*
G75*
G02*
X28581800Y7787300I0J100000D01*
G01*
G37*
G36*
G01*
X28581800Y8437300D02*
X28581800Y8637300D01*
G75*
G02*
X28681800Y8737300I100000J0D01*
G01*
X29956800Y8737300D01*
G75*
G02*
X30056800Y8637300I0J-100000D01*
G01*
X30056800Y8437300D01*
G75*
G02*
X29956800Y8337300I-100000J0D01*
G01*
X28681800Y8337300D01*
G75*
G02*
X28581800Y8437300I0J100000D01*
G01*
G37*
G36*
G01*
X28581800Y9087300D02*
X28581800Y9287300D01*
G75*
G02*
X28681800Y9387300I100000J0D01*
G01*
X29956800Y9387300D01*
G75*
G02*
X30056800Y9287300I0J-100000D01*
G01*
X30056800Y9087300D01*
G75*
G02*
X29956800Y8987300I-100000J0D01*
G01*
X28681800Y8987300D01*
G75*
G02*
X28581800Y9087300I0J100000D01*
G01*
G37*
G36*
G01*
X28581800Y9737300D02*
X28581800Y9937300D01*
G75*
G02*
X28681800Y10037300I100000J0D01*
G01*
X29956800Y10037300D01*
G75*
G02*
X30056800Y9937300I0J-100000D01*
G01*
X30056800Y9737300D01*
G75*
G02*
X29956800Y9637300I-100000J0D01*
G01*
X28681800Y9637300D01*
G75*
G02*
X28581800Y9737300I0J100000D01*
G01*
G37*
G36*
G01*
X28581800Y10387300D02*
X28581800Y10587300D01*
G75*
G02*
X28681800Y10687300I100000J0D01*
G01*
X29956800Y10687300D01*
G75*
G02*
X30056800Y10587300I0J-100000D01*
G01*
X30056800Y10387300D01*
G75*
G02*
X29956800Y10287300I-100000J0D01*
G01*
X28681800Y10287300D01*
G75*
G02*
X28581800Y10387300I0J100000D01*
G01*
G37*
G36*
G01*
X28581800Y11037300D02*
X28581800Y11237300D01*
G75*
G02*
X28681800Y11337300I100000J0D01*
G01*
X29956800Y11337300D01*
G75*
G02*
X30056800Y11237300I0J-100000D01*
G01*
X30056800Y11037300D01*
G75*
G02*
X29956800Y10937300I-100000J0D01*
G01*
X28681800Y10937300D01*
G75*
G02*
X28581800Y11037300I0J100000D01*
G01*
G37*
G36*
G01*
X28581800Y11687300D02*
X28581800Y11887300D01*
G75*
G02*
X28681800Y11987300I100000J0D01*
G01*
X29956800Y11987300D01*
G75*
G02*
X30056800Y11887300I0J-100000D01*
G01*
X30056800Y11687300D01*
G75*
G02*
X29956800Y11587300I-100000J0D01*
G01*
X28681800Y11587300D01*
G75*
G02*
X28581800Y11687300I0J100000D01*
G01*
G37*
G36*
G01*
X37305800Y32605300D02*
X37305800Y33155300D01*
G75*
G02*
X37505800Y33355300I200000J0D01*
G01*
X37905800Y33355300D01*
G75*
G02*
X38105800Y33155300I0J-200000D01*
G01*
X38105800Y32605300D01*
G75*
G02*
X37905800Y32405300I-200000J0D01*
G01*
X37505800Y32405300D01*
G75*
G02*
X37305800Y32605300I0J200000D01*
G01*
G37*
G36*
G01*
X35655800Y32605300D02*
X35655800Y33155300D01*
G75*
G02*
X35855800Y33355300I200000J0D01*
G01*
X36255800Y33355300D01*
G75*
G02*
X36455800Y33155300I0J-200000D01*
G01*
X36455800Y32605300D01*
G75*
G02*
X36255800Y32405300I-200000J0D01*
G01*
X35855800Y32405300D01*
G75*
G02*
X35655800Y32605300I0J200000D01*
G01*
G37*
D18*
X4000000Y44000000D03*
D19*
X4000000Y4000000D03*
D18*
X80000000Y44000000D03*
X80000000Y4000000D03*
D20*
X26506800Y6080800D03*
X26506800Y4180800D03*
X23886800Y4180800D03*
X23886800Y5130800D03*
X23886800Y6080800D03*
G36*
G01*
X33925800Y45723300D02*
X33925800Y45923300D01*
G75*
G02*
X34025800Y46023300I100000J0D01*
G01*
X35300800Y46023300D01*
G75*
G02*
X35400800Y45923300I0J-100000D01*
G01*
X35400800Y45723300D01*
G75*
G02*
X35300800Y45623300I-100000J0D01*
G01*
X34025800Y45623300D01*
G75*
G02*
X33925800Y45723300I0J100000D01*
G01*
G37*
G36*
G01*
X33925800Y45073300D02*
X33925800Y45273300D01*
G75*
G02*
X34025800Y45373300I100000J0D01*
G01*
X35300800Y45373300D01*
G75*
G02*
X35400800Y45273300I0J-100000D01*
G01*
X35400800Y45073300D01*
G75*
G02*
X35300800Y44973300I-100000J0D01*
G01*
X34025800Y44973300D01*
G75*
G02*
X33925800Y45073300I0J100000D01*
G01*
G37*
G36*
G01*
X33925800Y44423300D02*
X33925800Y44623300D01*
G75*
G02*
X34025800Y44723300I100000J0D01*
G01*
X35300800Y44723300D01*
G75*
G02*
X35400800Y44623300I0J-100000D01*
G01*
X35400800Y44423300D01*
G75*
G02*
X35300800Y44323300I-100000J0D01*
G01*
X34025800Y44323300D01*
G75*
G02*
X33925800Y44423300I0J100000D01*
G01*
G37*
G36*
G01*
X33925800Y43773300D02*
X33925800Y43973300D01*
G75*
G02*
X34025800Y44073300I100000J0D01*
G01*
X35300800Y44073300D01*
G75*
G02*
X35400800Y43973300I0J-100000D01*
G01*
X35400800Y43773300D01*
G75*
G02*
X35300800Y43673300I-100000J0D01*
G01*
X34025800Y43673300D01*
G75*
G02*
X33925800Y43773300I0J100000D01*
G01*
G37*
G36*
G01*
X33925800Y43123300D02*
X33925800Y43323300D01*
G75*
G02*
X34025800Y43423300I100000J0D01*
G01*
X35300800Y43423300D01*
G75*
G02*
X35400800Y43323300I0J-100000D01*
G01*
X35400800Y43123300D01*
G75*
G02*
X35300800Y43023300I-100000J0D01*
G01*
X34025800Y43023300D01*
G75*
G02*
X33925800Y43123300I0J100000D01*
G01*
G37*
G36*
G01*
X33925800Y42473300D02*
X33925800Y42673300D01*
G75*
G02*
X34025800Y42773300I100000J0D01*
G01*
X35300800Y42773300D01*
G75*
G02*
X35400800Y42673300I0J-100000D01*
G01*
X35400800Y42473300D01*
G75*
G02*
X35300800Y42373300I-100000J0D01*
G01*
X34025800Y42373300D01*
G75*
G02*
X33925800Y42473300I0J100000D01*
G01*
G37*
G36*
G01*
X33925800Y41823300D02*
X33925800Y42023300D01*
G75*
G02*
X34025800Y42123300I100000J0D01*
G01*
X35300800Y42123300D01*
G75*
G02*
X35400800Y42023300I0J-100000D01*
G01*
X35400800Y41823300D01*
G75*
G02*
X35300800Y41723300I-100000J0D01*
G01*
X34025800Y41723300D01*
G75*
G02*
X33925800Y41823300I0J100000D01*
G01*
G37*
G36*
G01*
X33925800Y41173300D02*
X33925800Y41373300D01*
G75*
G02*
X34025800Y41473300I100000J0D01*
G01*
X35300800Y41473300D01*
G75*
G02*
X35400800Y41373300I0J-100000D01*
G01*
X35400800Y41173300D01*
G75*
G02*
X35300800Y41073300I-100000J0D01*
G01*
X34025800Y41073300D01*
G75*
G02*
X33925800Y41173300I0J100000D01*
G01*
G37*
G36*
G01*
X28200800Y41173300D02*
X28200800Y41373300D01*
G75*
G02*
X28300800Y41473300I100000J0D01*
G01*
X29575800Y41473300D01*
G75*
G02*
X29675800Y41373300I0J-100000D01*
G01*
X29675800Y41173300D01*
G75*
G02*
X29575800Y41073300I-100000J0D01*
G01*
X28300800Y41073300D01*
G75*
G02*
X28200800Y41173300I0J100000D01*
G01*
G37*
G36*
G01*
X28200800Y41823300D02*
X28200800Y42023300D01*
G75*
G02*
X28300800Y42123300I100000J0D01*
G01*
X29575800Y42123300D01*
G75*
G02*
X29675800Y42023300I0J-100000D01*
G01*
X29675800Y41823300D01*
G75*
G02*
X29575800Y41723300I-100000J0D01*
G01*
X28300800Y41723300D01*
G75*
G02*
X28200800Y41823300I0J100000D01*
G01*
G37*
G36*
G01*
X28200800Y42473300D02*
X28200800Y42673300D01*
G75*
G02*
X28300800Y42773300I100000J0D01*
G01*
X29575800Y42773300D01*
G75*
G02*
X29675800Y42673300I0J-100000D01*
G01*
X29675800Y42473300D01*
G75*
G02*
X29575800Y42373300I-100000J0D01*
G01*
X28300800Y42373300D01*
G75*
G02*
X28200800Y42473300I0J100000D01*
G01*
G37*
G36*
G01*
X28200800Y43123300D02*
X28200800Y43323300D01*
G75*
G02*
X28300800Y43423300I100000J0D01*
G01*
X29575800Y43423300D01*
G75*
G02*
X29675800Y43323300I0J-100000D01*
G01*
X29675800Y43123300D01*
G75*
G02*
X29575800Y43023300I-100000J0D01*
G01*
X28300800Y43023300D01*
G75*
G02*
X28200800Y43123300I0J100000D01*
G01*
G37*
G36*
G01*
X28200800Y43773300D02*
X28200800Y43973300D01*
G75*
G02*
X28300800Y44073300I100000J0D01*
G01*
X29575800Y44073300D01*
G75*
G02*
X29675800Y43973300I0J-100000D01*
G01*
X29675800Y43773300D01*
G75*
G02*
X29575800Y43673300I-100000J0D01*
G01*
X28300800Y43673300D01*
G75*
G02*
X28200800Y43773300I0J100000D01*
G01*
G37*
G36*
G01*
X28200800Y44423300D02*
X28200800Y44623300D01*
G75*
G02*
X28300800Y44723300I100000J0D01*
G01*
X29575800Y44723300D01*
G75*
G02*
X29675800Y44623300I0J-100000D01*
G01*
X29675800Y44423300D01*
G75*
G02*
X29575800Y44323300I-100000J0D01*
G01*
X28300800Y44323300D01*
G75*
G02*
X28200800Y44423300I0J100000D01*
G01*
G37*
G36*
G01*
X28200800Y45073300D02*
X28200800Y45273300D01*
G75*
G02*
X28300800Y45373300I100000J0D01*
G01*
X29575800Y45373300D01*
G75*
G02*
X29675800Y45273300I0J-100000D01*
G01*
X29675800Y45073300D01*
G75*
G02*
X29575800Y44973300I-100000J0D01*
G01*
X28300800Y44973300D01*
G75*
G02*
X28200800Y45073300I0J100000D01*
G01*
G37*
G36*
G01*
X28200800Y45723300D02*
X28200800Y45923300D01*
G75*
G02*
X28300800Y46023300I100000J0D01*
G01*
X29575800Y46023300D01*
G75*
G02*
X29675800Y45923300I0J-100000D01*
G01*
X29675800Y45723300D01*
G75*
G02*
X29575800Y45623300I-100000J0D01*
G01*
X28300800Y45623300D01*
G75*
G02*
X28200800Y45723300I0J100000D01*
G01*
G37*
G36*
G01*
X48334800Y16012300D02*
X48334800Y15712300D01*
G75*
G02*
X48184800Y15562300I-150000J0D01*
G01*
X46534800Y15562300D01*
G75*
G02*
X46384800Y15712300I0J150000D01*
G01*
X46384800Y16012300D01*
G75*
G02*
X46534800Y16162300I150000J0D01*
G01*
X48184800Y16162300D01*
G75*
G02*
X48334800Y16012300I0J-150000D01*
G01*
G37*
G36*
G01*
X48334800Y17282300D02*
X48334800Y16982300D01*
G75*
G02*
X48184800Y16832300I-150000J0D01*
G01*
X46534800Y16832300D01*
G75*
G02*
X46384800Y16982300I0J150000D01*
G01*
X46384800Y17282300D01*
G75*
G02*
X46534800Y17432300I150000J0D01*
G01*
X48184800Y17432300D01*
G75*
G02*
X48334800Y17282300I0J-150000D01*
G01*
G37*
G36*
G01*
X48334800Y18552300D02*
X48334800Y18252300D01*
G75*
G02*
X48184800Y18102300I-150000J0D01*
G01*
X46534800Y18102300D01*
G75*
G02*
X46384800Y18252300I0J150000D01*
G01*
X46384800Y18552300D01*
G75*
G02*
X46534800Y18702300I150000J0D01*
G01*
X48184800Y18702300D01*
G75*
G02*
X48334800Y18552300I0J-150000D01*
G01*
G37*
G36*
G01*
X48334800Y19822300D02*
X48334800Y19522300D01*
G75*
G02*
X48184800Y19372300I-150000J0D01*
G01*
X46534800Y19372300D01*
G75*
G02*
X46384800Y19522300I0J150000D01*
G01*
X46384800Y19822300D01*
G75*
G02*
X46534800Y19972300I150000J0D01*
G01*
X48184800Y19972300D01*
G75*
G02*
X48334800Y19822300I0J-150000D01*
G01*
G37*
G36*
G01*
X53284800Y19822300D02*
X53284800Y19522300D01*
G75*
G02*
X53134800Y19372300I-150000J0D01*
G01*
X51484800Y19372300D01*
G75*
G02*
X51334800Y19522300I0J150000D01*
G01*
X51334800Y19822300D01*
G75*
G02*
X51484800Y19972300I150000J0D01*
G01*
X53134800Y19972300D01*
G75*
G02*
X53284800Y19822300I0J-150000D01*
G01*
G37*
G36*
G01*
X53284800Y18552300D02*
X53284800Y18252300D01*
G75*
G02*
X53134800Y18102300I-150000J0D01*
G01*
X51484800Y18102300D01*
G75*
G02*
X51334800Y18252300I0J150000D01*
G01*
X51334800Y18552300D01*
G75*
G02*
X51484800Y18702300I150000J0D01*
G01*
X53134800Y18702300D01*
G75*
G02*
X53284800Y18552300I0J-150000D01*
G01*
G37*
G36*
G01*
X53284800Y17282300D02*
X53284800Y16982300D01*
G75*
G02*
X53134800Y16832300I-150000J0D01*
G01*
X51484800Y16832300D01*
G75*
G02*
X51334800Y16982300I0J150000D01*
G01*
X51334800Y17282300D01*
G75*
G02*
X51484800Y17432300I150000J0D01*
G01*
X53134800Y17432300D01*
G75*
G02*
X53284800Y17282300I0J-150000D01*
G01*
G37*
G36*
G01*
X53284800Y16012300D02*
X53284800Y15712300D01*
G75*
G02*
X53134800Y15562300I-150000J0D01*
G01*
X51484800Y15562300D01*
G75*
G02*
X51334800Y15712300I0J150000D01*
G01*
X51334800Y16012300D01*
G75*
G02*
X51484800Y16162300I150000J0D01*
G01*
X53134800Y16162300D01*
G75*
G02*
X53284800Y16012300I0J-150000D01*
G01*
G37*
G36*
G01*
X18489800Y25156300D02*
X18489800Y24856300D01*
G75*
G02*
X18339800Y24706300I-150000J0D01*
G01*
X16689800Y24706300D01*
G75*
G02*
X16539800Y24856300I0J150000D01*
G01*
X16539800Y25156300D01*
G75*
G02*
X16689800Y25306300I150000J0D01*
G01*
X18339800Y25306300D01*
G75*
G02*
X18489800Y25156300I0J-150000D01*
G01*
G37*
G36*
G01*
X18489800Y26426300D02*
X18489800Y26126300D01*
G75*
G02*
X18339800Y25976300I-150000J0D01*
G01*
X16689800Y25976300D01*
G75*
G02*
X16539800Y26126300I0J150000D01*
G01*
X16539800Y26426300D01*
G75*
G02*
X16689800Y26576300I150000J0D01*
G01*
X18339800Y26576300D01*
G75*
G02*
X18489800Y26426300I0J-150000D01*
G01*
G37*
G36*
G01*
X18489800Y27696300D02*
X18489800Y27396300D01*
G75*
G02*
X18339800Y27246300I-150000J0D01*
G01*
X16689800Y27246300D01*
G75*
G02*
X16539800Y27396300I0J150000D01*
G01*
X16539800Y27696300D01*
G75*
G02*
X16689800Y27846300I150000J0D01*
G01*
X18339800Y27846300D01*
G75*
G02*
X18489800Y27696300I0J-150000D01*
G01*
G37*
G36*
G01*
X18489800Y28966300D02*
X18489800Y28666300D01*
G75*
G02*
X18339800Y28516300I-150000J0D01*
G01*
X16689800Y28516300D01*
G75*
G02*
X16539800Y28666300I0J150000D01*
G01*
X16539800Y28966300D01*
G75*
G02*
X16689800Y29116300I150000J0D01*
G01*
X18339800Y29116300D01*
G75*
G02*
X18489800Y28966300I0J-150000D01*
G01*
G37*
G36*
G01*
X23439800Y28966300D02*
X23439800Y28666300D01*
G75*
G02*
X23289800Y28516300I-150000J0D01*
G01*
X21639800Y28516300D01*
G75*
G02*
X21489800Y28666300I0J150000D01*
G01*
X21489800Y28966300D01*
G75*
G02*
X21639800Y29116300I150000J0D01*
G01*
X23289800Y29116300D01*
G75*
G02*
X23439800Y28966300I0J-150000D01*
G01*
G37*
G36*
G01*
X23439800Y27696300D02*
X23439800Y27396300D01*
G75*
G02*
X23289800Y27246300I-150000J0D01*
G01*
X21639800Y27246300D01*
G75*
G02*
X21489800Y27396300I0J150000D01*
G01*
X21489800Y27696300D01*
G75*
G02*
X21639800Y27846300I150000J0D01*
G01*
X23289800Y27846300D01*
G75*
G02*
X23439800Y27696300I0J-150000D01*
G01*
G37*
G36*
G01*
X23439800Y26426300D02*
X23439800Y26126300D01*
G75*
G02*
X23289800Y25976300I-150000J0D01*
G01*
X21639800Y25976300D01*
G75*
G02*
X21489800Y26126300I0J150000D01*
G01*
X21489800Y26426300D01*
G75*
G02*
X21639800Y26576300I150000J0D01*
G01*
X23289800Y26576300D01*
G75*
G02*
X23439800Y26426300I0J-150000D01*
G01*
G37*
G36*
G01*
X23439800Y25156300D02*
X23439800Y24856300D01*
G75*
G02*
X23289800Y24706300I-150000J0D01*
G01*
X21639800Y24706300D01*
G75*
G02*
X21489800Y24856300I0J150000D01*
G01*
X21489800Y25156300D01*
G75*
G02*
X21639800Y25306300I150000J0D01*
G01*
X23289800Y25306300D01*
G75*
G02*
X23439800Y25156300I0J-150000D01*
G01*
G37*
G36*
G01*
X28636800Y31874299D02*
X28636800Y33124301D01*
G75*
G02*
X28886799Y33374300I249999J0D01*
G01*
X29511801Y33374300D01*
G75*
G02*
X29761800Y33124301I0J-249999D01*
G01*
X29761800Y31874299D01*
G75*
G02*
X29511801Y31624300I-249999J0D01*
G01*
X28886799Y31624300D01*
G75*
G02*
X28636800Y31874299I0J249999D01*
G01*
G37*
G36*
G01*
X25711800Y31874299D02*
X25711800Y33124301D01*
G75*
G02*
X25961799Y33374300I249999J0D01*
G01*
X26586801Y33374300D01*
G75*
G02*
X26836800Y33124301I0J-249999D01*
G01*
X26836800Y31874299D01*
G75*
G02*
X26586801Y31624300I-249999J0D01*
G01*
X25961799Y31624300D01*
G75*
G02*
X25711800Y31874299I0J249999D01*
G01*
G37*
G36*
G01*
X37217800Y44839300D02*
X37217800Y44289300D01*
G75*
G02*
X37017800Y44089300I-200000J0D01*
G01*
X36617800Y44089300D01*
G75*
G02*
X36417800Y44289300I0J200000D01*
G01*
X36417800Y44839300D01*
G75*
G02*
X36617800Y45039300I200000J0D01*
G01*
X37017800Y45039300D01*
G75*
G02*
X37217800Y44839300I0J-200000D01*
G01*
G37*
G36*
G01*
X38867800Y44839300D02*
X38867800Y44289300D01*
G75*
G02*
X38667800Y44089300I-200000J0D01*
G01*
X38267800Y44089300D01*
G75*
G02*
X38067800Y44289300I0J200000D01*
G01*
X38067800Y44839300D01*
G75*
G02*
X38267800Y45039300I200000J0D01*
G01*
X38667800Y45039300D01*
G75*
G02*
X38867800Y44839300I0J-200000D01*
G01*
G37*
D16*
X50807800Y5001300D03*
X50807800Y3101300D03*
X48607800Y3101300D03*
X48607800Y4051300D03*
X48607800Y5001300D03*
G36*
G01*
X14885800Y35778300D02*
X14885800Y36078300D01*
G75*
G02*
X15035800Y36228300I150000J0D01*
G01*
X16685800Y36228300D01*
G75*
G02*
X16835800Y36078300I0J-150000D01*
G01*
X16835800Y35778300D01*
G75*
G02*
X16685800Y35628300I-150000J0D01*
G01*
X15035800Y35628300D01*
G75*
G02*
X14885800Y35778300I0J150000D01*
G01*
G37*
G36*
G01*
X14885800Y34508300D02*
X14885800Y34808300D01*
G75*
G02*
X15035800Y34958300I150000J0D01*
G01*
X16685800Y34958300D01*
G75*
G02*
X16835800Y34808300I0J-150000D01*
G01*
X16835800Y34508300D01*
G75*
G02*
X16685800Y34358300I-150000J0D01*
G01*
X15035800Y34358300D01*
G75*
G02*
X14885800Y34508300I0J150000D01*
G01*
G37*
G36*
G01*
X14885800Y33238300D02*
X14885800Y33538300D01*
G75*
G02*
X15035800Y33688300I150000J0D01*
G01*
X16685800Y33688300D01*
G75*
G02*
X16835800Y33538300I0J-150000D01*
G01*
X16835800Y33238300D01*
G75*
G02*
X16685800Y33088300I-150000J0D01*
G01*
X15035800Y33088300D01*
G75*
G02*
X14885800Y33238300I0J150000D01*
G01*
G37*
G36*
G01*
X14885800Y31968300D02*
X14885800Y32268300D01*
G75*
G02*
X15035800Y32418300I150000J0D01*
G01*
X16685800Y32418300D01*
G75*
G02*
X16835800Y32268300I0J-150000D01*
G01*
X16835800Y31968300D01*
G75*
G02*
X16685800Y31818300I-150000J0D01*
G01*
X15035800Y31818300D01*
G75*
G02*
X14885800Y31968300I0J150000D01*
G01*
G37*
G36*
G01*
X9935800Y31968300D02*
X9935800Y32268300D01*
G75*
G02*
X10085800Y32418300I150000J0D01*
G01*
X11735800Y32418300D01*
G75*
G02*
X11885800Y32268300I0J-150000D01*
G01*
X11885800Y31968300D01*
G75*
G02*
X11735800Y31818300I-150000J0D01*
G01*
X10085800Y31818300D01*
G75*
G02*
X9935800Y31968300I0J150000D01*
G01*
G37*
G36*
G01*
X9935800Y33238300D02*
X9935800Y33538300D01*
G75*
G02*
X10085800Y33688300I150000J0D01*
G01*
X11735800Y33688300D01*
G75*
G02*
X11885800Y33538300I0J-150000D01*
G01*
X11885800Y33238300D01*
G75*
G02*
X11735800Y33088300I-150000J0D01*
G01*
X10085800Y33088300D01*
G75*
G02*
X9935800Y33238300I0J150000D01*
G01*
G37*
G36*
G01*
X9935800Y34508300D02*
X9935800Y34808300D01*
G75*
G02*
X10085800Y34958300I150000J0D01*
G01*
X11735800Y34958300D01*
G75*
G02*
X11885800Y34808300I0J-150000D01*
G01*
X11885800Y34508300D01*
G75*
G02*
X11735800Y34358300I-150000J0D01*
G01*
X10085800Y34358300D01*
G75*
G02*
X9935800Y34508300I0J150000D01*
G01*
G37*
G36*
G01*
X9935800Y35778300D02*
X9935800Y36078300D01*
G75*
G02*
X10085800Y36228300I150000J0D01*
G01*
X11735800Y36228300D01*
G75*
G02*
X11885800Y36078300I0J-150000D01*
G01*
X11885800Y35778300D01*
G75*
G02*
X11735800Y35628300I-150000J0D01*
G01*
X10085800Y35628300D01*
G75*
G02*
X9935800Y35778300I0J150000D01*
G01*
G37*
G36*
G01*
X25416800Y13592300D02*
X25416800Y13792300D01*
G75*
G02*
X25516800Y13892300I100000J0D01*
G01*
X26791800Y13892300D01*
G75*
G02*
X26891800Y13792300I0J-100000D01*
G01*
X26891800Y13592300D01*
G75*
G02*
X26791800Y13492300I-100000J0D01*
G01*
X25516800Y13492300D01*
G75*
G02*
X25416800Y13592300I0J100000D01*
G01*
G37*
G36*
G01*
X25416800Y12942300D02*
X25416800Y13142300D01*
G75*
G02*
X25516800Y13242300I100000J0D01*
G01*
X26791800Y13242300D01*
G75*
G02*
X26891800Y13142300I0J-100000D01*
G01*
X26891800Y12942300D01*
G75*
G02*
X26791800Y12842300I-100000J0D01*
G01*
X25516800Y12842300D01*
G75*
G02*
X25416800Y12942300I0J100000D01*
G01*
G37*
G36*
G01*
X25416800Y12292300D02*
X25416800Y12492300D01*
G75*
G02*
X25516800Y12592300I100000J0D01*
G01*
X26791800Y12592300D01*
G75*
G02*
X26891800Y12492300I0J-100000D01*
G01*
X26891800Y12292300D01*
G75*
G02*
X26791800Y12192300I-100000J0D01*
G01*
X25516800Y12192300D01*
G75*
G02*
X25416800Y12292300I0J100000D01*
G01*
G37*
G36*
G01*
X25416800Y11642300D02*
X25416800Y11842300D01*
G75*
G02*
X25516800Y11942300I100000J0D01*
G01*
X26791800Y11942300D01*
G75*
G02*
X26891800Y11842300I0J-100000D01*
G01*
X26891800Y11642300D01*
G75*
G02*
X26791800Y11542300I-100000J0D01*
G01*
X25516800Y11542300D01*
G75*
G02*
X25416800Y11642300I0J100000D01*
G01*
G37*
G36*
G01*
X25416800Y10992300D02*
X25416800Y11192300D01*
G75*
G02*
X25516800Y11292300I100000J0D01*
G01*
X26791800Y11292300D01*
G75*
G02*
X26891800Y11192300I0J-100000D01*
G01*
X26891800Y10992300D01*
G75*
G02*
X26791800Y10892300I-100000J0D01*
G01*
X25516800Y10892300D01*
G75*
G02*
X25416800Y10992300I0J100000D01*
G01*
G37*
G36*
G01*
X25416800Y10342300D02*
X25416800Y10542300D01*
G75*
G02*
X25516800Y10642300I100000J0D01*
G01*
X26791800Y10642300D01*
G75*
G02*
X26891800Y10542300I0J-100000D01*
G01*
X26891800Y10342300D01*
G75*
G02*
X26791800Y10242300I-100000J0D01*
G01*
X25516800Y10242300D01*
G75*
G02*
X25416800Y10342300I0J100000D01*
G01*
G37*
G36*
G01*
X25416800Y9692300D02*
X25416800Y9892300D01*
G75*
G02*
X25516800Y9992300I100000J0D01*
G01*
X26791800Y9992300D01*
G75*
G02*
X26891800Y9892300I0J-100000D01*
G01*
X26891800Y9692300D01*
G75*
G02*
X26791800Y9592300I-100000J0D01*
G01*
X25516800Y9592300D01*
G75*
G02*
X25416800Y9692300I0J100000D01*
G01*
G37*
G36*
G01*
X25416800Y9042300D02*
X25416800Y9242300D01*
G75*
G02*
X25516800Y9342300I100000J0D01*
G01*
X26791800Y9342300D01*
G75*
G02*
X26891800Y9242300I0J-100000D01*
G01*
X26891800Y9042300D01*
G75*
G02*
X26791800Y8942300I-100000J0D01*
G01*
X25516800Y8942300D01*
G75*
G02*
X25416800Y9042300I0J100000D01*
G01*
G37*
G36*
G01*
X19691800Y9042300D02*
X19691800Y9242300D01*
G75*
G02*
X19791800Y9342300I100000J0D01*
G01*
X21066800Y9342300D01*
G75*
G02*
X21166800Y9242300I0J-100000D01*
G01*
X21166800Y9042300D01*
G75*
G02*
X21066800Y8942300I-100000J0D01*
G01*
X19791800Y8942300D01*
G75*
G02*
X19691800Y9042300I0J100000D01*
G01*
G37*
G36*
G01*
X19691800Y9692300D02*
X19691800Y9892300D01*
G75*
G02*
X19791800Y9992300I100000J0D01*
G01*
X21066800Y9992300D01*
G75*
G02*
X21166800Y9892300I0J-100000D01*
G01*
X21166800Y9692300D01*
G75*
G02*
X21066800Y9592300I-100000J0D01*
G01*
X19791800Y9592300D01*
G75*
G02*
X19691800Y9692300I0J100000D01*
G01*
G37*
G36*
G01*
X19691800Y10342300D02*
X19691800Y10542300D01*
G75*
G02*
X19791800Y10642300I100000J0D01*
G01*
X21066800Y10642300D01*
G75*
G02*
X21166800Y10542300I0J-100000D01*
G01*
X21166800Y10342300D01*
G75*
G02*
X21066800Y10242300I-100000J0D01*
G01*
X19791800Y10242300D01*
G75*
G02*
X19691800Y10342300I0J100000D01*
G01*
G37*
G36*
G01*
X19691800Y10992300D02*
X19691800Y11192300D01*
G75*
G02*
X19791800Y11292300I100000J0D01*
G01*
X21066800Y11292300D01*
G75*
G02*
X21166800Y11192300I0J-100000D01*
G01*
X21166800Y10992300D01*
G75*
G02*
X21066800Y10892300I-100000J0D01*
G01*
X19791800Y10892300D01*
G75*
G02*
X19691800Y10992300I0J100000D01*
G01*
G37*
G36*
G01*
X19691800Y11642300D02*
X19691800Y11842300D01*
G75*
G02*
X19791800Y11942300I100000J0D01*
G01*
X21066800Y11942300D01*
G75*
G02*
X21166800Y11842300I0J-100000D01*
G01*
X21166800Y11642300D01*
G75*
G02*
X21066800Y11542300I-100000J0D01*
G01*
X19791800Y11542300D01*
G75*
G02*
X19691800Y11642300I0J100000D01*
G01*
G37*
G36*
G01*
X19691800Y12292300D02*
X19691800Y12492300D01*
G75*
G02*
X19791800Y12592300I100000J0D01*
G01*
X21066800Y12592300D01*
G75*
G02*
X21166800Y12492300I0J-100000D01*
G01*
X21166800Y12292300D01*
G75*
G02*
X21066800Y12192300I-100000J0D01*
G01*
X19791800Y12192300D01*
G75*
G02*
X19691800Y12292300I0J100000D01*
G01*
G37*
G36*
G01*
X19691800Y12942300D02*
X19691800Y13142300D01*
G75*
G02*
X19791800Y13242300I100000J0D01*
G01*
X21066800Y13242300D01*
G75*
G02*
X21166800Y13142300I0J-100000D01*
G01*
X21166800Y12942300D01*
G75*
G02*
X21066800Y12842300I-100000J0D01*
G01*
X19791800Y12842300D01*
G75*
G02*
X19691800Y12942300I0J100000D01*
G01*
G37*
G36*
G01*
X19691800Y13592300D02*
X19691800Y13792300D01*
G75*
G02*
X19791800Y13892300I100000J0D01*
G01*
X21066800Y13892300D01*
G75*
G02*
X21166800Y13792300I0J-100000D01*
G01*
X21166800Y13592300D01*
G75*
G02*
X21066800Y13492300I-100000J0D01*
G01*
X19791800Y13492300D01*
G75*
G02*
X19691800Y13592300I0J100000D01*
G01*
G37*
G36*
G01*
X21215800Y42680300D02*
X21215800Y42130300D01*
G75*
G02*
X21015800Y41930300I-200000J0D01*
G01*
X20615800Y41930300D01*
G75*
G02*
X20415800Y42130300I0J200000D01*
G01*
X20415800Y42680300D01*
G75*
G02*
X20615800Y42880300I200000J0D01*
G01*
X21015800Y42880300D01*
G75*
G02*
X21215800Y42680300I0J-200000D01*
G01*
G37*
G36*
G01*
X22865800Y42680300D02*
X22865800Y42130300D01*
G75*
G02*
X22665800Y41930300I-200000J0D01*
G01*
X22265800Y41930300D01*
G75*
G02*
X22065800Y42130300I0J200000D01*
G01*
X22065800Y42680300D01*
G75*
G02*
X22265800Y42880300I200000J0D01*
G01*
X22665800Y42880300D01*
G75*
G02*
X22865800Y42680300I0J-200000D01*
G01*
G37*
G36*
G01*
X26256800Y44289300D02*
X26256800Y44839300D01*
G75*
G02*
X26456800Y45039300I200000J0D01*
G01*
X26856800Y45039300D01*
G75*
G02*
X27056800Y44839300I0J-200000D01*
G01*
X27056800Y44289300D01*
G75*
G02*
X26856800Y44089300I-200000J0D01*
G01*
X26456800Y44089300D01*
G75*
G02*
X26256800Y44289300I0J200000D01*
G01*
G37*
G36*
G01*
X24606800Y44289300D02*
X24606800Y44839300D01*
G75*
G02*
X24806800Y45039300I200000J0D01*
G01*
X25206800Y45039300D01*
G75*
G02*
X25406800Y44839300I0J-200000D01*
G01*
X25406800Y44289300D01*
G75*
G02*
X25206800Y44089300I-200000J0D01*
G01*
X24806800Y44089300D01*
G75*
G02*
X24606800Y44289300I0J200000D01*
G01*
G37*
G36*
G01*
X44417800Y12920300D02*
X44417800Y13470300D01*
G75*
G02*
X44617800Y13670300I200000J0D01*
G01*
X45017800Y13670300D01*
G75*
G02*
X45217800Y13470300I0J-200000D01*
G01*
X45217800Y12920300D01*
G75*
G02*
X45017800Y12720300I-200000J0D01*
G01*
X44617800Y12720300D01*
G75*
G02*
X44417800Y12920300I0J200000D01*
G01*
G37*
G36*
G01*
X42767800Y12920300D02*
X42767800Y13470300D01*
G75*
G02*
X42967800Y13670300I200000J0D01*
G01*
X43367800Y13670300D01*
G75*
G02*
X43567800Y13470300I0J-200000D01*
G01*
X43567800Y12920300D01*
G75*
G02*
X43367800Y12720300I-200000J0D01*
G01*
X42967800Y12720300D01*
G75*
G02*
X42767800Y12920300I0J200000D01*
G01*
G37*
G36*
G01*
X44417800Y6951300D02*
X44417800Y7501300D01*
G75*
G02*
X44617800Y7701300I200000J0D01*
G01*
X45017800Y7701300D01*
G75*
G02*
X45217800Y7501300I0J-200000D01*
G01*
X45217800Y6951300D01*
G75*
G02*
X45017800Y6751300I-200000J0D01*
G01*
X44617800Y6751300D01*
G75*
G02*
X44417800Y6951300I0J200000D01*
G01*
G37*
G36*
G01*
X42767800Y6951300D02*
X42767800Y7501300D01*
G75*
G02*
X42967800Y7701300I200000J0D01*
G01*
X43367800Y7701300D01*
G75*
G02*
X43567800Y7501300I0J-200000D01*
G01*
X43567800Y6951300D01*
G75*
G02*
X43367800Y6751300I-200000J0D01*
G01*
X42967800Y6751300D01*
G75*
G02*
X42767800Y6951300I0J200000D01*
G01*
G37*
G36*
G01*
X29112800Y4324300D02*
X29662800Y4324300D01*
G75*
G02*
X29862800Y4124300I0J-200000D01*
G01*
X29862800Y3724300D01*
G75*
G02*
X29662800Y3524300I-200000J0D01*
G01*
X29112800Y3524300D01*
G75*
G02*
X28912800Y3724300I0J200000D01*
G01*
X28912800Y4124300D01*
G75*
G02*
X29112800Y4324300I200000J0D01*
G01*
G37*
G36*
G01*
X29112800Y5974300D02*
X29662800Y5974300D01*
G75*
G02*
X29862800Y5774300I0J-200000D01*
G01*
X29862800Y5374300D01*
G75*
G02*
X29662800Y5174300I-200000J0D01*
G01*
X29112800Y5174300D01*
G75*
G02*
X28912800Y5374300I0J200000D01*
G01*
X28912800Y5774300D01*
G75*
G02*
X29112800Y5974300I200000J0D01*
G01*
G37*
G36*
G01*
X19079800Y39440300D02*
X19629800Y39440300D01*
G75*
G02*
X19829800Y39240300I0J-200000D01*
G01*
X19829800Y38840300D01*
G75*
G02*
X19629800Y38640300I-200000J0D01*
G01*
X19079800Y38640300D01*
G75*
G02*
X18879800Y38840300I0J200000D01*
G01*
X18879800Y39240300D01*
G75*
G02*
X19079800Y39440300I200000J0D01*
G01*
G37*
G36*
G01*
X19079800Y41090300D02*
X19629800Y41090300D01*
G75*
G02*
X19829800Y40890300I0J-200000D01*
G01*
X19829800Y40490300D01*
G75*
G02*
X19629800Y40290300I-200000J0D01*
G01*
X19079800Y40290300D01*
G75*
G02*
X18879800Y40490300I0J200000D01*
G01*
X18879800Y40890300D01*
G75*
G02*
X19079800Y41090300I200000J0D01*
G01*
G37*
G36*
G01*
X22677800Y40290300D02*
X22127800Y40290300D01*
G75*
G02*
X21927800Y40490300I0J200000D01*
G01*
X21927800Y40890300D01*
G75*
G02*
X22127800Y41090300I200000J0D01*
G01*
X22677800Y41090300D01*
G75*
G02*
X22877800Y40890300I0J-200000D01*
G01*
X22877800Y40490300D01*
G75*
G02*
X22677800Y40290300I-200000J0D01*
G01*
G37*
G36*
G01*
X22677800Y38640300D02*
X22127800Y38640300D01*
G75*
G02*
X21927800Y38840300I0J200000D01*
G01*
X21927800Y39240300D01*
G75*
G02*
X22127800Y39440300I200000J0D01*
G01*
X22677800Y39440300D01*
G75*
G02*
X22877800Y39240300I0J-200000D01*
G01*
X22877800Y38840300D01*
G75*
G02*
X22677800Y38640300I-200000J0D01*
G01*
G37*
D21*
X56370799Y21982801D03*
X56370799Y16902801D03*
X63110801Y16902801D03*
X63110801Y24522801D03*
D22*
X45652800Y36223300D03*
X45652800Y36873300D03*
X45652800Y37523300D03*
X45652800Y38173300D03*
X49952800Y38173300D03*
X49952800Y37523300D03*
X49952800Y36873300D03*
X49952800Y36223300D03*
G36*
G01*
X27919800Y20938300D02*
X27919800Y20438300D01*
G75*
G02*
X27694800Y20213300I-225000J0D01*
G01*
X27244800Y20213300D01*
G75*
G02*
X27019800Y20438300I0J225000D01*
G01*
X27019800Y20938300D01*
G75*
G02*
X27244800Y21163300I225000J0D01*
G01*
X27694800Y21163300D01*
G75*
G02*
X27919800Y20938300I0J-225000D01*
G01*
G37*
G36*
G01*
X29469800Y20938300D02*
X29469800Y20438300D01*
G75*
G02*
X29244800Y20213300I-225000J0D01*
G01*
X28794800Y20213300D01*
G75*
G02*
X28569800Y20438300I0J225000D01*
G01*
X28569800Y20938300D01*
G75*
G02*
X28794800Y21163300I225000J0D01*
G01*
X29244800Y21163300D01*
G75*
G02*
X29469800Y20938300I0J-225000D01*
G01*
G37*
D17*
X73708300Y34736800D03*
X73708300Y33436800D03*
X71808300Y34086800D03*
X73708300Y34086800D03*
X71808300Y33436800D03*
X71808300Y34736800D03*
D14*
X60400301Y12247301D03*
X55320301Y12247301D03*
X55320301Y5507299D03*
X62940301Y5507299D03*
D23*
X73408800Y10973300D03*
X67408800Y10973300D03*
X67408800Y14173300D03*
X67408800Y18573300D03*
X73408800Y16373300D03*
X73408800Y22403300D03*
X67408800Y22403300D03*
X67408800Y25603300D03*
X67408800Y30003300D03*
X73408800Y27803300D03*
G36*
G01*
X25406800Y43061300D02*
X25406800Y42511300D01*
G75*
G02*
X25206800Y42311300I-200000J0D01*
G01*
X24806800Y42311300D01*
G75*
G02*
X24606800Y42511300I0J200000D01*
G01*
X24606800Y43061300D01*
G75*
G02*
X24806800Y43261300I200000J0D01*
G01*
X25206800Y43261300D01*
G75*
G02*
X25406800Y43061300I0J-200000D01*
G01*
G37*
G36*
G01*
X27056800Y43061300D02*
X27056800Y42511300D01*
G75*
G02*
X26856800Y42311300I-200000J0D01*
G01*
X26456800Y42311300D01*
G75*
G02*
X26256800Y42511300I0J200000D01*
G01*
X26256800Y43061300D01*
G75*
G02*
X26456800Y43261300I200000J0D01*
G01*
X26856800Y43261300D01*
G75*
G02*
X27056800Y43061300I0J-200000D01*
G01*
G37*
G36*
G01*
X71368800Y43171300D02*
X71368800Y43671300D01*
G75*
G02*
X71593800Y43896300I225000J0D01*
G01*
X72043800Y43896300D01*
G75*
G02*
X72268800Y43671300I0J-225000D01*
G01*
X72268800Y43171300D01*
G75*
G02*
X72043800Y42946300I-225000J0D01*
G01*
X71593800Y42946300D01*
G75*
G02*
X71368800Y43171300I0J225000D01*
G01*
G37*
G36*
G01*
X69818800Y43171300D02*
X69818800Y43671300D01*
G75*
G02*
X70043800Y43896300I225000J0D01*
G01*
X70493800Y43896300D01*
G75*
G02*
X70718800Y43671300I0J-225000D01*
G01*
X70718800Y43171300D01*
G75*
G02*
X70493800Y42946300I-225000J0D01*
G01*
X70043800Y42946300D01*
G75*
G02*
X69818800Y43171300I0J225000D01*
G01*
G37*
G36*
G01*
X47582800Y22704300D02*
X47582800Y22504300D01*
G75*
G02*
X47482800Y22404300I-100000J0D01*
G01*
X46207800Y22404300D01*
G75*
G02*
X46107800Y22504300I0J100000D01*
G01*
X46107800Y22704300D01*
G75*
G02*
X46207800Y22804300I100000J0D01*
G01*
X47482800Y22804300D01*
G75*
G02*
X47582800Y22704300I0J-100000D01*
G01*
G37*
G36*
G01*
X47582800Y23354300D02*
X47582800Y23154300D01*
G75*
G02*
X47482800Y23054300I-100000J0D01*
G01*
X46207800Y23054300D01*
G75*
G02*
X46107800Y23154300I0J100000D01*
G01*
X46107800Y23354300D01*
G75*
G02*
X46207800Y23454300I100000J0D01*
G01*
X47482800Y23454300D01*
G75*
G02*
X47582800Y23354300I0J-100000D01*
G01*
G37*
G36*
G01*
X47582800Y24004300D02*
X47582800Y23804300D01*
G75*
G02*
X47482800Y23704300I-100000J0D01*
G01*
X46207800Y23704300D01*
G75*
G02*
X46107800Y23804300I0J100000D01*
G01*
X46107800Y24004300D01*
G75*
G02*
X46207800Y24104300I100000J0D01*
G01*
X47482800Y24104300D01*
G75*
G02*
X47582800Y24004300I0J-100000D01*
G01*
G37*
G36*
G01*
X47582800Y24654300D02*
X47582800Y24454300D01*
G75*
G02*
X47482800Y24354300I-100000J0D01*
G01*
X46207800Y24354300D01*
G75*
G02*
X46107800Y24454300I0J100000D01*
G01*
X46107800Y24654300D01*
G75*
G02*
X46207800Y24754300I100000J0D01*
G01*
X47482800Y24754300D01*
G75*
G02*
X47582800Y24654300I0J-100000D01*
G01*
G37*
G36*
G01*
X47582800Y25304300D02*
X47582800Y25104300D01*
G75*
G02*
X47482800Y25004300I-100000J0D01*
G01*
X46207800Y25004300D01*
G75*
G02*
X46107800Y25104300I0J100000D01*
G01*
X46107800Y25304300D01*
G75*
G02*
X46207800Y25404300I100000J0D01*
G01*
X47482800Y25404300D01*
G75*
G02*
X47582800Y25304300I0J-100000D01*
G01*
G37*
G36*
G01*
X47582800Y25954300D02*
X47582800Y25754300D01*
G75*
G02*
X47482800Y25654300I-100000J0D01*
G01*
X46207800Y25654300D01*
G75*
G02*
X46107800Y25754300I0J100000D01*
G01*
X46107800Y25954300D01*
G75*
G02*
X46207800Y26054300I100000J0D01*
G01*
X47482800Y26054300D01*
G75*
G02*
X47582800Y25954300I0J-100000D01*
G01*
G37*
G36*
G01*
X47582800Y26604300D02*
X47582800Y26404300D01*
G75*
G02*
X47482800Y26304300I-100000J0D01*
G01*
X46207800Y26304300D01*
G75*
G02*
X46107800Y26404300I0J100000D01*
G01*
X46107800Y26604300D01*
G75*
G02*
X46207800Y26704300I100000J0D01*
G01*
X47482800Y26704300D01*
G75*
G02*
X47582800Y26604300I0J-100000D01*
G01*
G37*
G36*
G01*
X47582800Y27254300D02*
X47582800Y27054300D01*
G75*
G02*
X47482800Y26954300I-100000J0D01*
G01*
X46207800Y26954300D01*
G75*
G02*
X46107800Y27054300I0J100000D01*
G01*
X46107800Y27254300D01*
G75*
G02*
X46207800Y27354300I100000J0D01*
G01*
X47482800Y27354300D01*
G75*
G02*
X47582800Y27254300I0J-100000D01*
G01*
G37*
G36*
G01*
X53307800Y27254300D02*
X53307800Y27054300D01*
G75*
G02*
X53207800Y26954300I-100000J0D01*
G01*
X51932800Y26954300D01*
G75*
G02*
X51832800Y27054300I0J100000D01*
G01*
X51832800Y27254300D01*
G75*
G02*
X51932800Y27354300I100000J0D01*
G01*
X53207800Y27354300D01*
G75*
G02*
X53307800Y27254300I0J-100000D01*
G01*
G37*
G36*
G01*
X53307800Y26604300D02*
X53307800Y26404300D01*
G75*
G02*
X53207800Y26304300I-100000J0D01*
G01*
X51932800Y26304300D01*
G75*
G02*
X51832800Y26404300I0J100000D01*
G01*
X51832800Y26604300D01*
G75*
G02*
X51932800Y26704300I100000J0D01*
G01*
X53207800Y26704300D01*
G75*
G02*
X53307800Y26604300I0J-100000D01*
G01*
G37*
G36*
G01*
X53307800Y25954300D02*
X53307800Y25754300D01*
G75*
G02*
X53207800Y25654300I-100000J0D01*
G01*
X51932800Y25654300D01*
G75*
G02*
X51832800Y25754300I0J100000D01*
G01*
X51832800Y25954300D01*
G75*
G02*
X51932800Y26054300I100000J0D01*
G01*
X53207800Y26054300D01*
G75*
G02*
X53307800Y25954300I0J-100000D01*
G01*
G37*
G36*
G01*
X53307800Y25304300D02*
X53307800Y25104300D01*
G75*
G02*
X53207800Y25004300I-100000J0D01*
G01*
X51932800Y25004300D01*
G75*
G02*
X51832800Y25104300I0J100000D01*
G01*
X51832800Y25304300D01*
G75*
G02*
X51932800Y25404300I100000J0D01*
G01*
X53207800Y25404300D01*
G75*
G02*
X53307800Y25304300I0J-100000D01*
G01*
G37*
G36*
G01*
X53307800Y24654300D02*
X53307800Y24454300D01*
G75*
G02*
X53207800Y24354300I-100000J0D01*
G01*
X51932800Y24354300D01*
G75*
G02*
X51832800Y24454300I0J100000D01*
G01*
X51832800Y24654300D01*
G75*
G02*
X51932800Y24754300I100000J0D01*
G01*
X53207800Y24754300D01*
G75*
G02*
X53307800Y24654300I0J-100000D01*
G01*
G37*
G36*
G01*
X53307800Y24004300D02*
X53307800Y23804300D01*
G75*
G02*
X53207800Y23704300I-100000J0D01*
G01*
X51932800Y23704300D01*
G75*
G02*
X51832800Y23804300I0J100000D01*
G01*
X51832800Y24004300D01*
G75*
G02*
X51932800Y24104300I100000J0D01*
G01*
X53207800Y24104300D01*
G75*
G02*
X53307800Y24004300I0J-100000D01*
G01*
G37*
G36*
G01*
X53307800Y23354300D02*
X53307800Y23154300D01*
G75*
G02*
X53207800Y23054300I-100000J0D01*
G01*
X51932800Y23054300D01*
G75*
G02*
X51832800Y23154300I0J100000D01*
G01*
X51832800Y23354300D01*
G75*
G02*
X51932800Y23454300I100000J0D01*
G01*
X53207800Y23454300D01*
G75*
G02*
X53307800Y23354300I0J-100000D01*
G01*
G37*
G36*
G01*
X53307800Y22704300D02*
X53307800Y22504300D01*
G75*
G02*
X53207800Y22404300I-100000J0D01*
G01*
X51932800Y22404300D01*
G75*
G02*
X51832800Y22504300I0J100000D01*
G01*
X51832800Y22704300D01*
G75*
G02*
X51932800Y22804300I100000J0D01*
G01*
X53207800Y22804300D01*
G75*
G02*
X53307800Y22704300I0J-100000D01*
G01*
G37*
G36*
G01*
X35777300Y25173800D02*
X35777300Y25473800D01*
G75*
G02*
X35927300Y25623800I150000J0D01*
G01*
X37577300Y25623800D01*
G75*
G02*
X37727300Y25473800I0J-150000D01*
G01*
X37727300Y25173800D01*
G75*
G02*
X37577300Y25023800I-150000J0D01*
G01*
X35927300Y25023800D01*
G75*
G02*
X35777300Y25173800I0J150000D01*
G01*
G37*
G36*
G01*
X35777300Y23903800D02*
X35777300Y24203800D01*
G75*
G02*
X35927300Y24353800I150000J0D01*
G01*
X37577300Y24353800D01*
G75*
G02*
X37727300Y24203800I0J-150000D01*
G01*
X37727300Y23903800D01*
G75*
G02*
X37577300Y23753800I-150000J0D01*
G01*
X35927300Y23753800D01*
G75*
G02*
X35777300Y23903800I0J150000D01*
G01*
G37*
G36*
G01*
X35777300Y22633800D02*
X35777300Y22933800D01*
G75*
G02*
X35927300Y23083800I150000J0D01*
G01*
X37577300Y23083800D01*
G75*
G02*
X37727300Y22933800I0J-150000D01*
G01*
X37727300Y22633800D01*
G75*
G02*
X37577300Y22483800I-150000J0D01*
G01*
X35927300Y22483800D01*
G75*
G02*
X35777300Y22633800I0J150000D01*
G01*
G37*
G36*
G01*
X35777300Y21363800D02*
X35777300Y21663800D01*
G75*
G02*
X35927300Y21813800I150000J0D01*
G01*
X37577300Y21813800D01*
G75*
G02*
X37727300Y21663800I0J-150000D01*
G01*
X37727300Y21363800D01*
G75*
G02*
X37577300Y21213800I-150000J0D01*
G01*
X35927300Y21213800D01*
G75*
G02*
X35777300Y21363800I0J150000D01*
G01*
G37*
G36*
G01*
X30827300Y21363800D02*
X30827300Y21663800D01*
G75*
G02*
X30977300Y21813800I150000J0D01*
G01*
X32627300Y21813800D01*
G75*
G02*
X32777300Y21663800I0J-150000D01*
G01*
X32777300Y21363800D01*
G75*
G02*
X32627300Y21213800I-150000J0D01*
G01*
X30977300Y21213800D01*
G75*
G02*
X30827300Y21363800I0J150000D01*
G01*
G37*
G36*
G01*
X30827300Y22633800D02*
X30827300Y22933800D01*
G75*
G02*
X30977300Y23083800I150000J0D01*
G01*
X32627300Y23083800D01*
G75*
G02*
X32777300Y22933800I0J-150000D01*
G01*
X32777300Y22633800D01*
G75*
G02*
X32627300Y22483800I-150000J0D01*
G01*
X30977300Y22483800D01*
G75*
G02*
X30827300Y22633800I0J150000D01*
G01*
G37*
G36*
G01*
X30827300Y23903800D02*
X30827300Y24203800D01*
G75*
G02*
X30977300Y24353800I150000J0D01*
G01*
X32627300Y24353800D01*
G75*
G02*
X32777300Y24203800I0J-150000D01*
G01*
X32777300Y23903800D01*
G75*
G02*
X32627300Y23753800I-150000J0D01*
G01*
X30977300Y23753800D01*
G75*
G02*
X30827300Y23903800I0J150000D01*
G01*
G37*
G36*
G01*
X30827300Y25173800D02*
X30827300Y25473800D01*
G75*
G02*
X30977300Y25623800I150000J0D01*
G01*
X32627300Y25623800D01*
G75*
G02*
X32777300Y25473800I0J-150000D01*
G01*
X32777300Y25173800D01*
G75*
G02*
X32627300Y25023800I-150000J0D01*
G01*
X30977300Y25023800D01*
G75*
G02*
X30827300Y25173800I0J150000D01*
G01*
G37*
G36*
G01*
X22886800Y35778300D02*
X22886800Y36078300D01*
G75*
G02*
X23036800Y36228300I150000J0D01*
G01*
X24686800Y36228300D01*
G75*
G02*
X24836800Y36078300I0J-150000D01*
G01*
X24836800Y35778300D01*
G75*
G02*
X24686800Y35628300I-150000J0D01*
G01*
X23036800Y35628300D01*
G75*
G02*
X22886800Y35778300I0J150000D01*
G01*
G37*
G36*
G01*
X22886800Y34508300D02*
X22886800Y34808300D01*
G75*
G02*
X23036800Y34958300I150000J0D01*
G01*
X24686800Y34958300D01*
G75*
G02*
X24836800Y34808300I0J-150000D01*
G01*
X24836800Y34508300D01*
G75*
G02*
X24686800Y34358300I-150000J0D01*
G01*
X23036800Y34358300D01*
G75*
G02*
X22886800Y34508300I0J150000D01*
G01*
G37*
G36*
G01*
X22886800Y33238300D02*
X22886800Y33538300D01*
G75*
G02*
X23036800Y33688300I150000J0D01*
G01*
X24686800Y33688300D01*
G75*
G02*
X24836800Y33538300I0J-150000D01*
G01*
X24836800Y33238300D01*
G75*
G02*
X24686800Y33088300I-150000J0D01*
G01*
X23036800Y33088300D01*
G75*
G02*
X22886800Y33238300I0J150000D01*
G01*
G37*
G36*
G01*
X22886800Y31968300D02*
X22886800Y32268300D01*
G75*
G02*
X23036800Y32418300I150000J0D01*
G01*
X24686800Y32418300D01*
G75*
G02*
X24836800Y32268300I0J-150000D01*
G01*
X24836800Y31968300D01*
G75*
G02*
X24686800Y31818300I-150000J0D01*
G01*
X23036800Y31818300D01*
G75*
G02*
X22886800Y31968300I0J150000D01*
G01*
G37*
G36*
G01*
X17936800Y31968300D02*
X17936800Y32268300D01*
G75*
G02*
X18086800Y32418300I150000J0D01*
G01*
X19736800Y32418300D01*
G75*
G02*
X19886800Y32268300I0J-150000D01*
G01*
X19886800Y31968300D01*
G75*
G02*
X19736800Y31818300I-150000J0D01*
G01*
X18086800Y31818300D01*
G75*
G02*
X17936800Y31968300I0J150000D01*
G01*
G37*
G36*
G01*
X17936800Y33238300D02*
X17936800Y33538300D01*
G75*
G02*
X18086800Y33688300I150000J0D01*
G01*
X19736800Y33688300D01*
G75*
G02*
X19886800Y33538300I0J-150000D01*
G01*
X19886800Y33238300D01*
G75*
G02*
X19736800Y33088300I-150000J0D01*
G01*
X18086800Y33088300D01*
G75*
G02*
X17936800Y33238300I0J150000D01*
G01*
G37*
G36*
G01*
X17936800Y34508300D02*
X17936800Y34808300D01*
G75*
G02*
X18086800Y34958300I150000J0D01*
G01*
X19736800Y34958300D01*
G75*
G02*
X19886800Y34808300I0J-150000D01*
G01*
X19886800Y34508300D01*
G75*
G02*
X19736800Y34358300I-150000J0D01*
G01*
X18086800Y34358300D01*
G75*
G02*
X17936800Y34508300I0J150000D01*
G01*
G37*
G36*
G01*
X17936800Y35778300D02*
X17936800Y36078300D01*
G75*
G02*
X18086800Y36228300I150000J0D01*
G01*
X19736800Y36228300D01*
G75*
G02*
X19886800Y36078300I0J-150000D01*
G01*
X19886800Y35778300D01*
G75*
G02*
X19736800Y35628300I-150000J0D01*
G01*
X18086800Y35628300D01*
G75*
G02*
X17936800Y35778300I0J150000D01*
G01*
G37*
G36*
G01*
X32252800Y18279300D02*
X32252800Y18779300D01*
G75*
G02*
X32477800Y19004300I225000J0D01*
G01*
X32927800Y19004300D01*
G75*
G02*
X33152800Y18779300I0J-225000D01*
G01*
X33152800Y18279300D01*
G75*
G02*
X32927800Y18054300I-225000J0D01*
G01*
X32477800Y18054300D01*
G75*
G02*
X32252800Y18279300I0J225000D01*
G01*
G37*
G36*
G01*
X30702800Y18279300D02*
X30702800Y18779300D01*
G75*
G02*
X30927800Y19004300I225000J0D01*
G01*
X31377800Y19004300D01*
G75*
G02*
X31602800Y18779300I0J-225000D01*
G01*
X31602800Y18279300D01*
G75*
G02*
X31377800Y18054300I-225000J0D01*
G01*
X30927800Y18054300D01*
G75*
G02*
X30702800Y18279300I0J225000D01*
G01*
G37*
D24*
X69916800Y40180300D03*
X69916800Y38280300D03*
X71916800Y39230300D03*
G36*
G01*
X36824800Y28058300D02*
X36824800Y28558300D01*
G75*
G02*
X37049800Y28783300I225000J0D01*
G01*
X37499800Y28783300D01*
G75*
G02*
X37724800Y28558300I0J-225000D01*
G01*
X37724800Y28058300D01*
G75*
G02*
X37499800Y27833300I-225000J0D01*
G01*
X37049800Y27833300D01*
G75*
G02*
X36824800Y28058300I0J225000D01*
G01*
G37*
G36*
G01*
X35274800Y28058300D02*
X35274800Y28558300D01*
G75*
G02*
X35499800Y28783300I225000J0D01*
G01*
X35949800Y28783300D01*
G75*
G02*
X36174800Y28558300I0J-225000D01*
G01*
X36174800Y28058300D01*
G75*
G02*
X35949800Y27833300I-225000J0D01*
G01*
X35499800Y27833300D01*
G75*
G02*
X35274800Y28058300I0J225000D01*
G01*
G37*
G36*
G01*
X35874799Y36806300D02*
X37124801Y36806300D01*
G75*
G02*
X37374800Y36556301I0J-249999D01*
G01*
X37374800Y35931299D01*
G75*
G02*
X37124801Y35681300I-249999J0D01*
G01*
X35874799Y35681300D01*
G75*
G02*
X35624800Y35931299I0J249999D01*
G01*
X35624800Y36556301D01*
G75*
G02*
X35874799Y36806300I249999J0D01*
G01*
G37*
G36*
G01*
X35874799Y39731300D02*
X37124801Y39731300D01*
G75*
G02*
X37374800Y39481301I0J-249999D01*
G01*
X37374800Y38856299D01*
G75*
G02*
X37124801Y38606300I-249999J0D01*
G01*
X35874799Y38606300D01*
G75*
G02*
X35624800Y38856299I0J249999D01*
G01*
X35624800Y39481301D01*
G75*
G02*
X35874799Y39731300I249999J0D01*
G01*
G37*
G36*
G01*
X44317800Y5198300D02*
X44317800Y5698300D01*
G75*
G02*
X44542800Y5923300I225000J0D01*
G01*
X44992800Y5923300D01*
G75*
G02*
X45217800Y5698300I0J-225000D01*
G01*
X45217800Y5198300D01*
G75*
G02*
X44992800Y4973300I-225000J0D01*
G01*
X44542800Y4973300D01*
G75*
G02*
X44317800Y5198300I0J225000D01*
G01*
G37*
G36*
G01*
X42767800Y5198300D02*
X42767800Y5698300D01*
G75*
G02*
X42992800Y5923300I225000J0D01*
G01*
X43442800Y5923300D01*
G75*
G02*
X43667800Y5698300I0J-225000D01*
G01*
X43667800Y5198300D01*
G75*
G02*
X43442800Y4973300I-225000J0D01*
G01*
X42992800Y4973300D01*
G75*
G02*
X42767800Y5198300I0J225000D01*
G01*
G37*
G36*
G01*
X59530800Y41368300D02*
X59530800Y41918300D01*
G75*
G02*
X59730800Y42118300I200000J0D01*
G01*
X60130800Y42118300D01*
G75*
G02*
X60330800Y41918300I0J-200000D01*
G01*
X60330800Y41368300D01*
G75*
G02*
X60130800Y41168300I-200000J0D01*
G01*
X59730800Y41168300D01*
G75*
G02*
X59530800Y41368300I0J200000D01*
G01*
G37*
G36*
G01*
X57880800Y41368300D02*
X57880800Y41918300D01*
G75*
G02*
X58080800Y42118300I200000J0D01*
G01*
X58480800Y42118300D01*
G75*
G02*
X58680800Y41918300I0J-200000D01*
G01*
X58680800Y41368300D01*
G75*
G02*
X58480800Y41168300I-200000J0D01*
G01*
X58080800Y41168300D01*
G75*
G02*
X57880800Y41368300I0J200000D01*
G01*
G37*
G36*
G01*
X26256800Y38193300D02*
X26256800Y38743300D01*
G75*
G02*
X26456800Y38943300I200000J0D01*
G01*
X26856800Y38943300D01*
G75*
G02*
X27056800Y38743300I0J-200000D01*
G01*
X27056800Y38193300D01*
G75*
G02*
X26856800Y37993300I-200000J0D01*
G01*
X26456800Y37993300D01*
G75*
G02*
X26256800Y38193300I0J200000D01*
G01*
G37*
G36*
G01*
X24606800Y38193300D02*
X24606800Y38743300D01*
G75*
G02*
X24806800Y38943300I200000J0D01*
G01*
X25206800Y38943300D01*
G75*
G02*
X25406800Y38743300I0J-200000D01*
G01*
X25406800Y38193300D01*
G75*
G02*
X25206800Y37993300I-200000J0D01*
G01*
X24806800Y37993300D01*
G75*
G02*
X24606800Y38193300I0J200000D01*
G01*
G37*
G36*
G01*
X37217800Y41791300D02*
X37217800Y41241300D01*
G75*
G02*
X37017800Y41041300I-200000J0D01*
G01*
X36617800Y41041300D01*
G75*
G02*
X36417800Y41241300I0J200000D01*
G01*
X36417800Y41791300D01*
G75*
G02*
X36617800Y41991300I200000J0D01*
G01*
X37017800Y41991300D01*
G75*
G02*
X37217800Y41791300I0J-200000D01*
G01*
G37*
G36*
G01*
X38867800Y41791300D02*
X38867800Y41241300D01*
G75*
G02*
X38667800Y41041300I-200000J0D01*
G01*
X38267800Y41041300D01*
G75*
G02*
X38067800Y41241300I0J200000D01*
G01*
X38067800Y41791300D01*
G75*
G02*
X38267800Y41991300I200000J0D01*
G01*
X38667800Y41991300D01*
G75*
G02*
X38867800Y41791300I0J-200000D01*
G01*
G37*
G36*
G01*
X49673800Y45342300D02*
X49673800Y45542300D01*
G75*
G02*
X49773800Y45642300I100000J0D01*
G01*
X51048800Y45642300D01*
G75*
G02*
X51148800Y45542300I0J-100000D01*
G01*
X51148800Y45342300D01*
G75*
G02*
X51048800Y45242300I-100000J0D01*
G01*
X49773800Y45242300D01*
G75*
G02*
X49673800Y45342300I0J100000D01*
G01*
G37*
G36*
G01*
X49673800Y44692300D02*
X49673800Y44892300D01*
G75*
G02*
X49773800Y44992300I100000J0D01*
G01*
X51048800Y44992300D01*
G75*
G02*
X51148800Y44892300I0J-100000D01*
G01*
X51148800Y44692300D01*
G75*
G02*
X51048800Y44592300I-100000J0D01*
G01*
X49773800Y44592300D01*
G75*
G02*
X49673800Y44692300I0J100000D01*
G01*
G37*
G36*
G01*
X49673800Y44042300D02*
X49673800Y44242300D01*
G75*
G02*
X49773800Y44342300I100000J0D01*
G01*
X51048800Y44342300D01*
G75*
G02*
X51148800Y44242300I0J-100000D01*
G01*
X51148800Y44042300D01*
G75*
G02*
X51048800Y43942300I-100000J0D01*
G01*
X49773800Y43942300D01*
G75*
G02*
X49673800Y44042300I0J100000D01*
G01*
G37*
G36*
G01*
X49673800Y43392300D02*
X49673800Y43592300D01*
G75*
G02*
X49773800Y43692300I100000J0D01*
G01*
X51048800Y43692300D01*
G75*
G02*
X51148800Y43592300I0J-100000D01*
G01*
X51148800Y43392300D01*
G75*
G02*
X51048800Y43292300I-100000J0D01*
G01*
X49773800Y43292300D01*
G75*
G02*
X49673800Y43392300I0J100000D01*
G01*
G37*
G36*
G01*
X49673800Y42742300D02*
X49673800Y42942300D01*
G75*
G02*
X49773800Y43042300I100000J0D01*
G01*
X51048800Y43042300D01*
G75*
G02*
X51148800Y42942300I0J-100000D01*
G01*
X51148800Y42742300D01*
G75*
G02*
X51048800Y42642300I-100000J0D01*
G01*
X49773800Y42642300D01*
G75*
G02*
X49673800Y42742300I0J100000D01*
G01*
G37*
G36*
G01*
X49673800Y42092300D02*
X49673800Y42292300D01*
G75*
G02*
X49773800Y42392300I100000J0D01*
G01*
X51048800Y42392300D01*
G75*
G02*
X51148800Y42292300I0J-100000D01*
G01*
X51148800Y42092300D01*
G75*
G02*
X51048800Y41992300I-100000J0D01*
G01*
X49773800Y41992300D01*
G75*
G02*
X49673800Y42092300I0J100000D01*
G01*
G37*
G36*
G01*
X49673800Y41442300D02*
X49673800Y41642300D01*
G75*
G02*
X49773800Y41742300I100000J0D01*
G01*
X51048800Y41742300D01*
G75*
G02*
X51148800Y41642300I0J-100000D01*
G01*
X51148800Y41442300D01*
G75*
G02*
X51048800Y41342300I-100000J0D01*
G01*
X49773800Y41342300D01*
G75*
G02*
X49673800Y41442300I0J100000D01*
G01*
G37*
G36*
G01*
X49673800Y40792300D02*
X49673800Y40992300D01*
G75*
G02*
X49773800Y41092300I100000J0D01*
G01*
X51048800Y41092300D01*
G75*
G02*
X51148800Y40992300I0J-100000D01*
G01*
X51148800Y40792300D01*
G75*
G02*
X51048800Y40692300I-100000J0D01*
G01*
X49773800Y40692300D01*
G75*
G02*
X49673800Y40792300I0J100000D01*
G01*
G37*
G36*
G01*
X43948800Y40792300D02*
X43948800Y40992300D01*
G75*
G02*
X44048800Y41092300I100000J0D01*
G01*
X45323800Y41092300D01*
G75*
G02*
X45423800Y40992300I0J-100000D01*
G01*
X45423800Y40792300D01*
G75*
G02*
X45323800Y40692300I-100000J0D01*
G01*
X44048800Y40692300D01*
G75*
G02*
X43948800Y40792300I0J100000D01*
G01*
G37*
G36*
G01*
X43948800Y41442300D02*
X43948800Y41642300D01*
G75*
G02*
X44048800Y41742300I100000J0D01*
G01*
X45323800Y41742300D01*
G75*
G02*
X45423800Y41642300I0J-100000D01*
G01*
X45423800Y41442300D01*
G75*
G02*
X45323800Y41342300I-100000J0D01*
G01*
X44048800Y41342300D01*
G75*
G02*
X43948800Y41442300I0J100000D01*
G01*
G37*
G36*
G01*
X43948800Y42092300D02*
X43948800Y42292300D01*
G75*
G02*
X44048800Y42392300I100000J0D01*
G01*
X45323800Y42392300D01*
G75*
G02*
X45423800Y42292300I0J-100000D01*
G01*
X45423800Y42092300D01*
G75*
G02*
X45323800Y41992300I-100000J0D01*
G01*
X44048800Y41992300D01*
G75*
G02*
X43948800Y42092300I0J100000D01*
G01*
G37*
G36*
G01*
X43948800Y42742300D02*
X43948800Y42942300D01*
G75*
G02*
X44048800Y43042300I100000J0D01*
G01*
X45323800Y43042300D01*
G75*
G02*
X45423800Y42942300I0J-100000D01*
G01*
X45423800Y42742300D01*
G75*
G02*
X45323800Y42642300I-100000J0D01*
G01*
X44048800Y42642300D01*
G75*
G02*
X43948800Y42742300I0J100000D01*
G01*
G37*
G36*
G01*
X43948800Y43392300D02*
X43948800Y43592300D01*
G75*
G02*
X44048800Y43692300I100000J0D01*
G01*
X45323800Y43692300D01*
G75*
G02*
X45423800Y43592300I0J-100000D01*
G01*
X45423800Y43392300D01*
G75*
G02*
X45323800Y43292300I-100000J0D01*
G01*
X44048800Y43292300D01*
G75*
G02*
X43948800Y43392300I0J100000D01*
G01*
G37*
G36*
G01*
X43948800Y44042300D02*
X43948800Y44242300D01*
G75*
G02*
X44048800Y44342300I100000J0D01*
G01*
X45323800Y44342300D01*
G75*
G02*
X45423800Y44242300I0J-100000D01*
G01*
X45423800Y44042300D01*
G75*
G02*
X45323800Y43942300I-100000J0D01*
G01*
X44048800Y43942300D01*
G75*
G02*
X43948800Y44042300I0J100000D01*
G01*
G37*
G36*
G01*
X43948800Y44692300D02*
X43948800Y44892300D01*
G75*
G02*
X44048800Y44992300I100000J0D01*
G01*
X45323800Y44992300D01*
G75*
G02*
X45423800Y44892300I0J-100000D01*
G01*
X45423800Y44692300D01*
G75*
G02*
X45323800Y44592300I-100000J0D01*
G01*
X44048800Y44592300D01*
G75*
G02*
X43948800Y44692300I0J100000D01*
G01*
G37*
G36*
G01*
X43948800Y45342300D02*
X43948800Y45542300D01*
G75*
G02*
X44048800Y45642300I100000J0D01*
G01*
X45323800Y45642300D01*
G75*
G02*
X45423800Y45542300I0J-100000D01*
G01*
X45423800Y45342300D01*
G75*
G02*
X45323800Y45242300I-100000J0D01*
G01*
X44048800Y45242300D01*
G75*
G02*
X43948800Y45342300I0J100000D01*
G01*
G37*
G36*
G01*
X16072300Y14930800D02*
X16072300Y14380800D01*
G75*
G02*
X15872300Y14180800I-200000J0D01*
G01*
X15472300Y14180800D01*
G75*
G02*
X15272300Y14380800I0J200000D01*
G01*
X15272300Y14930800D01*
G75*
G02*
X15472300Y15130800I200000J0D01*
G01*
X15872300Y15130800D01*
G75*
G02*
X16072300Y14930800I0J-200000D01*
G01*
G37*
G36*
G01*
X17722300Y14930800D02*
X17722300Y14380800D01*
G75*
G02*
X17522300Y14180800I-200000J0D01*
G01*
X17122300Y14180800D01*
G75*
G02*
X16922300Y14380800I0J200000D01*
G01*
X16922300Y14930800D01*
G75*
G02*
X17122300Y15130800I200000J0D01*
G01*
X17522300Y15130800D01*
G75*
G02*
X17722300Y14930800I0J-200000D01*
G01*
G37*
M02*
