%FSLAX45Y45*%
G04 Gerber Fmt 4.5, Leading zero omitted, Abs format (unit mm)*
G04 Created by KiCad (PCBNEW (5.1.9-0-10_14)) date 2021-07-02 21:33:39*
%MOMM*%
%LPD*%
G01*
G04 APERTURE LIST*
%TA.AperFunction,Profile*%
%ADD10C,0.100000*%
%TD*%
%ADD11C,0.200000*%
%ADD12C,0.300000*%
G04 APERTURE END LIST*
D10*
X8387080Y-26670D02*
X8387080Y4799330D01*
X5080Y4799330D02*
X8387080Y4799330D01*
X5080Y4799330D02*
X5080Y-26670D01*
X5080Y-26670D02*
X8387080Y-26670D01*
D11*
X301580Y3595430D02*
X331580Y3565430D01*
X331580Y3595430D02*
X301580Y3565430D01*
X378380Y3188600D02*
X408380Y3158600D01*
X408380Y3188600D02*
X378380Y3158600D01*
X434580Y3057580D02*
X464580Y3027580D01*
X464580Y3057580D02*
X434580Y3027580D01*
X447720Y3833520D02*
X477720Y3803520D01*
X477720Y3833520D02*
X447720Y3803520D01*
X482840Y2270520D02*
X512840Y2240520D01*
X512840Y2270520D02*
X482840Y2240520D01*
X498980Y976040D02*
X528980Y946040D01*
X528980Y976040D02*
X498980Y946040D01*
X569200Y2850910D02*
X599200Y2820910D01*
X599200Y2850910D02*
X569200Y2820910D01*
X631430Y2467370D02*
X661430Y2437370D01*
X661430Y2467370D02*
X631430Y2437370D01*
X631820Y2349479D02*
X661820Y2319479D01*
X661820Y2349479D02*
X631820Y2319479D01*
X637780Y1799350D02*
X667780Y1769350D01*
X667780Y1799350D02*
X637780Y1769350D01*
X644850Y3897720D02*
X674850Y3867720D01*
X674850Y3897720D02*
X644850Y3867720D01*
X651750Y2099070D02*
X681750Y2069070D01*
X681750Y2099070D02*
X651750Y2069070D01*
X668260Y1149110D02*
X698260Y1119110D01*
X698260Y1149110D02*
X668260Y1119110D01*
X677740Y2198530D02*
X707740Y2168530D01*
X707740Y2198530D02*
X677740Y2168530D01*
X678660Y2554560D02*
X708660Y2524560D01*
X708660Y2554560D02*
X678660Y2524560D01*
X736840Y3534990D02*
X766840Y3504990D01*
X766840Y3534990D02*
X736840Y3504990D01*
X737510Y863390D02*
X767510Y833390D01*
X767510Y863390D02*
X737510Y833390D01*
X897300Y3474950D02*
X927300Y3444950D01*
X927300Y3474950D02*
X897300Y3444950D01*
X904480Y860820D02*
X934480Y830820D01*
X934480Y860820D02*
X904480Y830820D01*
X932420Y1654570D02*
X962420Y1624570D01*
X962420Y1654570D02*
X932420Y1624570D01*
X948930Y3866910D02*
X978930Y3836910D01*
X978930Y3866910D02*
X948930Y3836910D01*
X956060Y2626850D02*
X986060Y2596850D01*
X986060Y2626850D02*
X956060Y2596850D01*
X993380Y2248930D02*
X1023380Y2218930D01*
X1023380Y2248930D02*
X993380Y2218930D01*
X1011160Y1904760D02*
X1041160Y1874760D01*
X1041160Y1904760D02*
X1011160Y1874760D01*
X1037620Y4025580D02*
X1067620Y3995580D01*
X1067620Y4025580D02*
X1037620Y3995580D01*
X1042110Y4308740D02*
X1072110Y4278740D01*
X1072110Y4308740D02*
X1042110Y4278740D01*
X1045776Y1979573D02*
X1075776Y1949573D01*
X1075776Y1979573D02*
X1045776Y1949573D01*
X1049650Y2463040D02*
X1079650Y2433040D01*
X1079650Y2463040D02*
X1049650Y2433040D01*
X1188360Y1818570D02*
X1218360Y1788570D01*
X1218360Y1818570D02*
X1188360Y1788570D01*
X1218330Y3256520D02*
X1248330Y3226520D01*
X1248330Y3256520D02*
X1218330Y3226520D01*
X1247570Y2326620D02*
X1277570Y2296620D01*
X1277570Y2326620D02*
X1247570Y2296620D01*
X1258780Y3064240D02*
X1288780Y3034240D01*
X1288780Y3064240D02*
X1258780Y3034240D01*
X1283870Y3829100D02*
X1313870Y3799100D01*
X1313870Y3829100D02*
X1283870Y3799100D01*
X1321510Y3529580D02*
X1351510Y3499580D01*
X1351510Y3529580D02*
X1321510Y3499580D01*
X1322070Y3351990D02*
X1352070Y3321990D01*
X1352070Y3351990D02*
X1322070Y3321990D01*
X1340410Y4444190D02*
X1370410Y4414190D01*
X1370410Y4444190D02*
X1340410Y4414190D01*
X1343470Y2902520D02*
X1373470Y2872520D01*
X1373470Y2902520D02*
X1343470Y2872520D01*
X1368310Y3811690D02*
X1398310Y3781690D01*
X1398310Y3811690D02*
X1368310Y3781690D01*
X1380730Y1710450D02*
X1410730Y1680450D01*
X1410730Y1710450D02*
X1380730Y1680450D01*
X1419290Y2882050D02*
X1449290Y2852050D01*
X1449290Y2882050D02*
X1419290Y2852050D01*
X1428230Y2145580D02*
X1458230Y2115580D01*
X1458230Y2145580D02*
X1428230Y2115580D01*
X1442260Y4059710D02*
X1472260Y4029710D01*
X1472260Y4059710D02*
X1442260Y4029710D01*
X1476690Y2597520D02*
X1506690Y2567520D01*
X1506690Y2597520D02*
X1476690Y2567520D01*
X1549150Y4108200D02*
X1579150Y4078200D01*
X1579150Y4108200D02*
X1549150Y4078200D01*
X1552230Y1571960D02*
X1582230Y1541960D01*
X1582230Y1571960D02*
X1552230Y1541960D01*
X1553610Y695160D02*
X1583610Y665160D01*
X1583610Y695160D02*
X1553610Y665160D01*
X1571080Y3681200D02*
X1601080Y3651200D01*
X1601080Y3681200D02*
X1571080Y3651200D01*
X1595750Y591180D02*
X1625750Y561180D01*
X1625750Y591180D02*
X1595750Y561180D01*
X1621870Y2292240D02*
X1651870Y2262240D01*
X1651870Y2292240D02*
X1621870Y2262240D01*
X1678220Y714280D02*
X1708220Y684280D01*
X1708220Y714280D02*
X1678220Y684280D01*
X1691050Y973360D02*
X1721050Y943360D01*
X1721050Y973360D02*
X1691050Y943360D01*
X1737600Y2073670D02*
X1767600Y2043670D01*
X1767600Y2073670D02*
X1737600Y2043670D01*
X1775950Y3153700D02*
X1805950Y3123700D01*
X1805950Y3153700D02*
X1775950Y3123700D01*
X1780460Y4425060D02*
X1810460Y4395060D01*
X1810460Y4425060D02*
X1780460Y4395060D01*
X1781790Y1196150D02*
X1811790Y1166150D01*
X1811790Y1196150D02*
X1781790Y1166150D01*
X1784230Y1111530D02*
X1814230Y1081530D01*
X1814230Y1111530D02*
X1784230Y1081530D01*
X1804560Y1773690D02*
X1834560Y1743690D01*
X1834560Y1773690D02*
X1804560Y1743690D01*
X1810270Y2441500D02*
X1840270Y2411500D01*
X1840270Y2441500D02*
X1810270Y2411500D01*
X1821680Y4128970D02*
X1851680Y4098970D01*
X1851680Y4128970D02*
X1821680Y4098970D01*
X1825350Y436520D02*
X1855350Y406520D01*
X1855350Y436520D02*
X1825350Y406520D01*
X1843660Y1536750D02*
X1873660Y1506750D01*
X1873660Y1536750D02*
X1843660Y1506750D01*
X1863430Y3017000D02*
X1893430Y2987000D01*
X1893430Y3017000D02*
X1863430Y2987000D01*
X1893470Y3781530D02*
X1923470Y3751530D01*
X1923470Y3781530D02*
X1893470Y3751530D01*
X1928190Y375740D02*
X1958190Y345740D01*
X1958190Y375740D02*
X1928190Y345740D01*
X1937570Y498800D02*
X1967570Y468800D01*
X1967570Y498800D02*
X1937570Y468800D01*
X1965080Y1615110D02*
X1995080Y1585110D01*
X1995080Y1615110D02*
X1965080Y1585110D01*
X1990650Y4418230D02*
X2020650Y4388230D01*
X2020650Y4418230D02*
X1990650Y4388230D01*
X2017030Y3504340D02*
X2047030Y3474340D01*
X2047030Y3504340D02*
X2017030Y3474340D01*
X2052950Y3330330D02*
X2082950Y3300330D01*
X2082950Y3330330D02*
X2052950Y3300330D01*
X2059110Y634260D02*
X2089110Y604260D01*
X2089110Y634260D02*
X2059110Y604260D01*
X2069300Y2528440D02*
X2099300Y2498440D01*
X2099300Y2528440D02*
X2069300Y2498440D01*
X2070520Y2668240D02*
X2100520Y2638240D01*
X2100520Y2668240D02*
X2070520Y2638240D01*
X2091310Y502000D02*
X2121310Y472000D01*
X2121310Y502000D02*
X2091310Y472000D01*
X2092950Y3878370D02*
X2122950Y3848370D01*
X2122950Y3878370D02*
X2092950Y3848370D01*
X2107650Y2128340D02*
X2137650Y2098340D01*
X2137650Y2128340D02*
X2107650Y2098340D01*
X2144700Y1319230D02*
X2174700Y1289230D01*
X2174700Y1319230D02*
X2144700Y1289230D01*
X2145520Y1169560D02*
X2175520Y1139560D01*
X2175520Y1169560D02*
X2145520Y1139560D01*
X2153060Y745860D02*
X2183060Y715860D01*
X2183060Y745860D02*
X2153060Y715860D01*
X2164200Y873730D02*
X2194200Y843730D01*
X2194200Y873730D02*
X2164200Y843730D01*
X2199820Y982940D02*
X2229820Y952940D01*
X2229820Y982940D02*
X2199820Y952940D01*
X2228790Y3252280D02*
X2258790Y3222280D01*
X2258790Y3252280D02*
X2228790Y3222280D01*
X2230710Y3461050D02*
X2260710Y3431050D01*
X2260710Y3461050D02*
X2230710Y3431050D01*
X2231480Y2971130D02*
X2261480Y2941130D01*
X2261480Y2971130D02*
X2231480Y2941130D01*
X2249680Y1118720D02*
X2279680Y1088720D01*
X2279680Y1118720D02*
X2249680Y1088720D01*
X2268630Y488930D02*
X2298630Y458930D01*
X2298630Y488930D02*
X2268630Y458930D01*
X2313480Y2372190D02*
X2343480Y2342190D01*
X2343480Y2372190D02*
X2313480Y2342190D01*
X2339780Y1756970D02*
X2369780Y1726970D01*
X2369780Y1756970D02*
X2339780Y1726970D01*
X2348780Y929100D02*
X2378780Y899100D01*
X2378780Y929100D02*
X2348780Y899100D01*
X2354700Y1085730D02*
X2384700Y1055730D01*
X2384700Y1085730D02*
X2354700Y1055730D01*
X2355560Y1230170D02*
X2385560Y1200170D01*
X2385560Y1230170D02*
X2355560Y1200170D01*
X2364770Y2963720D02*
X2394770Y2933720D01*
X2394770Y2963720D02*
X2364770Y2933720D01*
X2402540Y4298120D02*
X2432540Y4268120D01*
X2432540Y4298120D02*
X2402540Y4268120D01*
X2414480Y201020D02*
X2444480Y171020D01*
X2444480Y201020D02*
X2414480Y171020D01*
X2430300Y2756310D02*
X2460300Y2726310D01*
X2460300Y2756310D02*
X2430300Y2726310D01*
X2460080Y2149940D02*
X2490080Y2119940D01*
X2490080Y2149940D02*
X2460080Y2119940D01*
X2460080Y1615400D02*
X2490080Y1585400D01*
X2490080Y1615400D02*
X2460080Y1585400D01*
X2512410Y3327970D02*
X2542410Y3297970D01*
X2542410Y3327970D02*
X2512410Y3297970D01*
X2530080Y2731060D02*
X2560080Y2701060D01*
X2560080Y2731060D02*
X2530080Y2701060D01*
X2530510Y470210D02*
X2560510Y440210D01*
X2560510Y470210D02*
X2530510Y440210D01*
X2574720Y4355610D02*
X2604720Y4325610D01*
X2604720Y4355610D02*
X2574720Y4325610D01*
X2650680Y701460D02*
X2680680Y671460D01*
X2680680Y701460D02*
X2650680Y671460D01*
X2655630Y350030D02*
X2685630Y320030D01*
X2685630Y350030D02*
X2655630Y320030D01*
X2657700Y1532800D02*
X2687700Y1502800D01*
X2687700Y1532800D02*
X2657700Y1502800D01*
X2676260Y4140740D02*
X2706260Y4110740D01*
X2706260Y4140740D02*
X2676260Y4110740D01*
X2681340Y254470D02*
X2711340Y224470D01*
X2711340Y254470D02*
X2681340Y224470D01*
X2717220Y1189230D02*
X2747220Y1159230D01*
X2747220Y1189230D02*
X2717220Y1159230D01*
X2718120Y1315830D02*
X2748120Y1285830D01*
X2748120Y1315830D02*
X2718120Y1285830D01*
X2741750Y642690D02*
X2771750Y612690D01*
X2771750Y642690D02*
X2741750Y612690D01*
X2758680Y3256520D02*
X2788680Y3226520D01*
X2788680Y3256520D02*
X2758680Y3226520D01*
X2761440Y4395160D02*
X2791440Y4365160D01*
X2791440Y4395160D02*
X2761440Y4365160D01*
X2762130Y4314880D02*
X2792130Y4284880D01*
X2792130Y4314880D02*
X2762130Y4284880D01*
X2791010Y2407680D02*
X2821010Y2377680D01*
X2821010Y2407680D02*
X2791010Y2377680D01*
X2799480Y998730D02*
X2829480Y968730D01*
X2829480Y998730D02*
X2799480Y968730D01*
X2800110Y868730D02*
X2830110Y838730D01*
X2830110Y868730D02*
X2800110Y838730D01*
X2853820Y1590000D02*
X2883820Y1560000D01*
X2883820Y1590000D02*
X2853820Y1560000D01*
X2980930Y1893520D02*
X3010930Y1863520D01*
X3010930Y1893520D02*
X2980930Y1863520D01*
X2999870Y2186670D02*
X3029870Y2156670D01*
X3029870Y2186670D02*
X2999870Y2156670D01*
X3008760Y1395550D02*
X3038760Y1365550D01*
X3038760Y1395550D02*
X3008760Y1365550D01*
X3013440Y295380D02*
X3043440Y265380D01*
X3043440Y295380D02*
X3013440Y265380D01*
X3021830Y3671270D02*
X3051830Y3641270D01*
X3051830Y3671270D02*
X3021830Y3641270D01*
X3022250Y66170D02*
X3052250Y36170D01*
X3052250Y66170D02*
X3022250Y36170D01*
X3023960Y3792150D02*
X3053960Y3762150D01*
X3053960Y3792150D02*
X3023960Y3762150D01*
X3027960Y2336420D02*
X3057960Y2306420D01*
X3057960Y2336420D02*
X3027960Y2306420D01*
X3034730Y938600D02*
X3064730Y908600D01*
X3064730Y938600D02*
X3034730Y908600D01*
X3039640Y4026630D02*
X3069640Y3996630D01*
X3069640Y4026630D02*
X3039640Y3996630D01*
X3045050Y1162360D02*
X3075050Y1132360D01*
X3075050Y1162360D02*
X3045050Y1132360D01*
X3067000Y764840D02*
X3097000Y734840D01*
X3097000Y764840D02*
X3067000Y734840D01*
X3104200Y319220D02*
X3134200Y289220D01*
X3134200Y319220D02*
X3104200Y289220D01*
X3130210Y3561520D02*
X3160210Y3531520D01*
X3160210Y3561520D02*
X3130210Y3531520D01*
X3165230Y2093000D02*
X3195230Y2063000D01*
X3195230Y2093000D02*
X3165230Y2063000D01*
X3181590Y4199650D02*
X3211590Y4169650D01*
X3211590Y4199650D02*
X3181590Y4169650D01*
X3207780Y3247620D02*
X3237780Y3217620D01*
X3237780Y3247620D02*
X3207780Y3217620D01*
X3253410Y3740720D02*
X3283410Y3710720D01*
X3283410Y3740720D02*
X3253410Y3710720D01*
X3254200Y1607770D02*
X3284200Y1577770D01*
X3284200Y1607770D02*
X3254200Y1577770D01*
X3256820Y1714420D02*
X3286820Y1684420D01*
X3286820Y1714420D02*
X3256820Y1684420D01*
X3306050Y4741810D02*
X3336050Y4711810D01*
X3336050Y4741810D02*
X3306050Y4711810D01*
X3310800Y2198930D02*
X3340800Y2168930D01*
X3340800Y2198930D02*
X3310800Y2168930D01*
X3313530Y2336030D02*
X3343530Y2306030D01*
X3343530Y2336030D02*
X3313530Y2306030D01*
X3334200Y4409180D02*
X3364200Y4379180D01*
X3364200Y4409180D02*
X3334200Y4379180D01*
X3344810Y1515980D02*
X3374810Y1485980D01*
X3374810Y1515980D02*
X3344810Y1485980D01*
X3366190Y1739030D02*
X3396190Y1709030D01*
X3396190Y1739030D02*
X3366190Y1709030D01*
X3371280Y1592060D02*
X3401280Y1562060D01*
X3401280Y1592060D02*
X3371280Y1562060D01*
X3455970Y593080D02*
X3485970Y563080D01*
X3485970Y593080D02*
X3455970Y563080D01*
X3482930Y3587130D02*
X3512930Y3557130D01*
X3512930Y3587130D02*
X3482930Y3557130D01*
X3488080Y3747040D02*
X3518080Y3717040D01*
X3518080Y3747040D02*
X3488080Y3717040D01*
X3519620Y2433660D02*
X3549620Y2403660D01*
X3549620Y2433660D02*
X3519620Y2403660D01*
X3555610Y3785630D02*
X3585610Y3755630D01*
X3585610Y3785630D02*
X3555610Y3755630D01*
X3569330Y4369001D02*
X3599330Y4339001D01*
X3599330Y4369001D02*
X3569330Y4339001D01*
X3606790Y1004790D02*
X3636790Y974790D01*
X3636790Y1004790D02*
X3606790Y974790D01*
X3607570Y922240D02*
X3637570Y892240D01*
X3637570Y922240D02*
X3607570Y892240D01*
X3656030Y1909940D02*
X3686030Y1879940D01*
X3686030Y1909940D02*
X3656030Y1879940D01*
X3663480Y1327960D02*
X3693480Y1297960D01*
X3693480Y1327960D02*
X3663480Y1297960D01*
X3754250Y3184720D02*
X3784250Y3154720D01*
X3784250Y3184720D02*
X3754250Y3154720D01*
X3769750Y3649560D02*
X3799750Y3619560D01*
X3799750Y3649560D02*
X3769750Y3619560D01*
X3776260Y594980D02*
X3806260Y564980D01*
X3806260Y594980D02*
X3776260Y564980D01*
X3783199Y4257691D02*
X3813199Y4227691D01*
X3813199Y4257691D02*
X3783199Y4227691D01*
X3801420Y2421800D02*
X3831420Y2391800D01*
X3831420Y2421800D02*
X3801420Y2391800D01*
X3808500Y1619970D02*
X3838500Y1589970D01*
X3838500Y1619970D02*
X3808500Y1589970D01*
X3891440Y4012140D02*
X3921440Y3982140D01*
X3921440Y4012140D02*
X3891440Y3982140D01*
X3895380Y737250D02*
X3925380Y707250D01*
X3925380Y737250D02*
X3895380Y707250D01*
X3897440Y3859540D02*
X3927440Y3829540D01*
X3927440Y3859540D02*
X3897440Y3829540D01*
X3931720Y1885120D02*
X3961720Y1855120D01*
X3961720Y1885120D02*
X3931720Y1855120D01*
X3944290Y1709930D02*
X3974290Y1679930D01*
X3974290Y1709930D02*
X3944290Y1679930D01*
X3998660Y1337900D02*
X4028660Y1307900D01*
X4028660Y1337900D02*
X3998660Y1307900D01*
X4042910Y4427370D02*
X4072910Y4397370D01*
X4072910Y4427370D02*
X4042910Y4397370D01*
X4073430Y4114040D02*
X4103430Y4084040D01*
X4103430Y4114040D02*
X4073430Y4084040D01*
X4182290Y1540840D02*
X4212290Y1510840D01*
X4212290Y1540840D02*
X4182290Y1510840D01*
X4183150Y1873050D02*
X4213150Y1843050D01*
X4213150Y1873050D02*
X4183150Y1843050D01*
X4184400Y1782750D02*
X4214400Y1752750D01*
X4214400Y1782750D02*
X4184400Y1752750D01*
X4206480Y3493280D02*
X4236480Y3463280D01*
X4236480Y3493280D02*
X4206480Y3463280D01*
X4222990Y4258070D02*
X4252990Y4228070D01*
X4252990Y4258070D02*
X4222990Y4228070D01*
X4274940Y1487280D02*
X4304940Y1457280D01*
X4304940Y1487280D02*
X4274940Y1457280D01*
X4319150Y4487440D02*
X4349150Y4457440D01*
X4349150Y4487440D02*
X4319150Y4457440D01*
X4319510Y4303790D02*
X4349510Y4273790D01*
X4349510Y4303790D02*
X4319510Y4273790D01*
X4342060Y3929090D02*
X4372060Y3899090D01*
X4372060Y3929090D02*
X4342060Y3899090D01*
X4382670Y2917810D02*
X4412670Y2887810D01*
X4412670Y2917810D02*
X4382670Y2887810D01*
X4412010Y3750940D02*
X4442010Y3720940D01*
X4442010Y3750940D02*
X4412010Y3720940D01*
X4433379Y384252D02*
X4463379Y354252D01*
X4463379Y384252D02*
X4433379Y354252D01*
X4444180Y3822280D02*
X4474180Y3792280D01*
X4474180Y3822280D02*
X4444180Y3792280D01*
X4446160Y3649830D02*
X4476160Y3619830D01*
X4476160Y3649830D02*
X4446160Y3619830D01*
X4535870Y1435820D02*
X4565870Y1405820D01*
X4565870Y1435820D02*
X4535870Y1405820D01*
X4552270Y2409770D02*
X4582270Y2379770D01*
X4582270Y2409770D02*
X4552270Y2379770D01*
X4564590Y1895930D02*
X4594590Y1865930D01*
X4594590Y1895930D02*
X4564590Y1865930D01*
X4579390Y1687900D02*
X4609390Y1657900D01*
X4609390Y1687900D02*
X4579390Y1657900D01*
X4585880Y1547510D02*
X4615880Y1517510D01*
X4615880Y1547510D02*
X4585880Y1517510D01*
X4602000Y4222650D02*
X4632000Y4192650D01*
X4632000Y4222650D02*
X4602000Y4192650D01*
X4659260Y4126120D02*
X4689260Y4096120D01*
X4689260Y4126120D02*
X4659260Y4096120D01*
X4667560Y1224470D02*
X4697560Y1194470D01*
X4697560Y1224470D02*
X4667560Y1194470D01*
X4679640Y3943480D02*
X4709640Y3913480D01*
X4709640Y3943480D02*
X4679640Y3913480D01*
X4681320Y1497630D02*
X4711320Y1467630D01*
X4711320Y1497630D02*
X4681320Y1467630D01*
X4741570Y2055350D02*
X4771570Y2025350D01*
X4771570Y2055350D02*
X4741570Y2025350D01*
X4741600Y4223970D02*
X4771600Y4193970D01*
X4771600Y4223970D02*
X4741600Y4193970D01*
X4749920Y420130D02*
X4779920Y390130D01*
X4779920Y420130D02*
X4749920Y390130D01*
X4759660Y3978470D02*
X4789660Y3948470D01*
X4789660Y3978470D02*
X4759660Y3948470D01*
X4763320Y578799D02*
X4793320Y548799D01*
X4793320Y578799D02*
X4763320Y548799D01*
X4766370Y3581740D02*
X4796370Y3551740D01*
X4796370Y3581740D02*
X4766370Y3551740D01*
X4787060Y2467330D02*
X4817060Y2437330D01*
X4817060Y2467330D02*
X4787060Y2437330D01*
X4814930Y2375570D02*
X4844930Y2345570D01*
X4844930Y2375570D02*
X4814930Y2345570D01*
X4815199Y4292619D02*
X4845199Y4262619D01*
X4845199Y4292619D02*
X4815199Y4262619D01*
X4830680Y3661210D02*
X4860680Y3631210D01*
X4860680Y3661210D02*
X4830680Y3631210D01*
X4855690Y1468470D02*
X4885690Y1438470D01*
X4885690Y1468470D02*
X4855690Y1438470D01*
X4874540Y4002890D02*
X4904540Y3972890D01*
X4904540Y4002890D02*
X4874540Y3972890D01*
X4900070Y4222650D02*
X4930070Y4192650D01*
X4930070Y4222650D02*
X4900070Y4192650D01*
X4913552Y4371782D02*
X4943552Y4341782D01*
X4943552Y4371782D02*
X4913552Y4341782D01*
X4921240Y2503980D02*
X4951240Y2473980D01*
X4951240Y2503980D02*
X4921240Y2473980D01*
X4939290Y2182230D02*
X4969290Y2152230D01*
X4969290Y2182230D02*
X4939290Y2152230D01*
X4960620Y2403770D02*
X4990620Y2373770D01*
X4990620Y2403770D02*
X4960620Y2373770D01*
X4966113Y658490D02*
X4996113Y628490D01*
X4996113Y658490D02*
X4966113Y628490D01*
X4966890Y2329900D02*
X4996890Y2299900D01*
X4996890Y2329900D02*
X4966890Y2299900D01*
X4968950Y325130D02*
X4998950Y295130D01*
X4998950Y325130D02*
X4968950Y295130D01*
X4969170Y517580D02*
X4999170Y487580D01*
X4999170Y517580D02*
X4969170Y487580D01*
X4970540Y444070D02*
X5000540Y414070D01*
X5000540Y444070D02*
X4970540Y414070D01*
X4995490Y2609690D02*
X5025490Y2579690D01*
X5025490Y2609690D02*
X4995490Y2579690D01*
X4995960Y3956770D02*
X5025960Y3926770D01*
X5025960Y3956770D02*
X4995960Y3926770D01*
X5023750Y2094390D02*
X5053750Y2064390D01*
X5053750Y2094390D02*
X5023750Y2064390D01*
X5029780Y2692470D02*
X5059780Y2662470D01*
X5059780Y2692470D02*
X5029780Y2662470D01*
X5034050Y2235290D02*
X5064050Y2205290D01*
X5064050Y2235290D02*
X5034050Y2205290D01*
X5054160Y420130D02*
X5084160Y390130D01*
X5084160Y420130D02*
X5054160Y390130D01*
X5065471Y1790716D02*
X5095471Y1760716D01*
X5095471Y1790716D02*
X5065471Y1760716D01*
X5077542Y1475342D02*
X5107542Y1445342D01*
X5107542Y1475342D02*
X5077542Y1445342D01*
X5116420Y3883800D02*
X5146420Y3853800D01*
X5146420Y3883800D02*
X5116420Y3853800D01*
X5147130Y3283690D02*
X5177130Y3253690D01*
X5177130Y3283690D02*
X5147130Y3253690D01*
X5160250Y4169170D02*
X5190250Y4139170D01*
X5190250Y4169170D02*
X5160250Y4139170D01*
X5176964Y1524393D02*
X5206964Y1494393D01*
X5206964Y1524393D02*
X5176964Y1494393D01*
X5248840Y320630D02*
X5278840Y290630D01*
X5278840Y320630D02*
X5248840Y290630D01*
X5306407Y3748608D02*
X5336407Y3718608D01*
X5336407Y3748608D02*
X5306407Y3718608D01*
X5362780Y3484260D02*
X5392780Y3454260D01*
X5392780Y3484260D02*
X5362780Y3454260D01*
X5494070Y4069318D02*
X5524070Y4039318D01*
X5524070Y4069318D02*
X5494070Y4039318D01*
X5605471Y3622634D02*
X5635471Y3592634D01*
X5635471Y3622634D02*
X5605471Y3592634D01*
X5635380Y4406050D02*
X5665380Y4376050D01*
X5665380Y4406050D02*
X5635380Y4376050D01*
X5666068Y3704000D02*
X5696068Y3674000D01*
X5696068Y3704000D02*
X5666068Y3674000D01*
X5681104Y3441247D02*
X5711104Y3411247D01*
X5711104Y3441247D02*
X5681104Y3411247D01*
X5753310Y3346900D02*
X5783310Y3316900D01*
X5783310Y3346900D02*
X5753310Y3316900D01*
X5765992Y3502595D02*
X5795992Y3472595D01*
X5795992Y3502595D02*
X5765992Y3472595D01*
X5838828Y3434517D02*
X5868828Y3404517D01*
X5868828Y3434517D02*
X5838828Y3404517D01*
X5851070Y1021500D02*
X5881070Y991500D01*
X5881070Y1021500D02*
X5851070Y991500D01*
X5856895Y4275168D02*
X5886895Y4245168D01*
X5886895Y4275168D02*
X5856895Y4245168D01*
X5950410Y3371520D02*
X5980410Y3341520D01*
X5980410Y3371520D02*
X5950410Y3341520D01*
X5965792Y4155872D02*
X5995792Y4125872D01*
X5995792Y4155872D02*
X5965792Y4125872D01*
X5966700Y3913900D02*
X5996700Y3883900D01*
X5996700Y3913900D02*
X5966700Y3883900D01*
X6098780Y4489210D02*
X6128780Y4459210D01*
X6128780Y4489210D02*
X6098780Y4459210D01*
X6181800Y700750D02*
X6211800Y670750D01*
X6211800Y700750D02*
X6181800Y670750D01*
X6204380Y306509D02*
X6234380Y276509D01*
X6234380Y306509D02*
X6204380Y276509D01*
X6208880Y885700D02*
X6238880Y855700D01*
X6238880Y885700D02*
X6208880Y855700D01*
X6331190Y4484130D02*
X6361190Y4454130D01*
X6361190Y4484130D02*
X6331190Y4454130D01*
X6375720Y3240440D02*
X6405720Y3210440D01*
X6405720Y3240440D02*
X6375720Y3210440D01*
X6506897Y575130D02*
X6536897Y545130D01*
X6536897Y575130D02*
X6506897Y545130D01*
X6543280Y2401330D02*
X6573280Y2371330D01*
X6573280Y2401330D02*
X6543280Y2371330D01*
X6547380Y3921880D02*
X6577380Y3891880D01*
X6577380Y3921880D02*
X6547380Y3891880D01*
X6564071Y3552100D02*
X6594071Y3522100D01*
X6594071Y3552100D02*
X6564071Y3522100D01*
X6564071Y3454550D02*
X6594071Y3424550D01*
X6594071Y3454550D02*
X6564071Y3424550D01*
X6564330Y3242660D02*
X6594330Y3212660D01*
X6594330Y3242660D02*
X6564330Y3212660D01*
X6600330Y3371350D02*
X6630330Y3341350D01*
X6630330Y3371350D02*
X6600330Y3341350D01*
X6694420Y3294770D02*
X6724420Y3264770D01*
X6724420Y3294770D02*
X6694420Y3264770D01*
X6709830Y636870D02*
X6739830Y606870D01*
X6739830Y636870D02*
X6709830Y606870D01*
X6752560Y3512780D02*
X6782560Y3482780D01*
X6782560Y3512780D02*
X6752560Y3482780D01*
X6790500Y1012250D02*
X6820500Y982250D01*
X6820500Y1012250D02*
X6790500Y982250D01*
X6793423Y3358523D02*
X6823423Y3328523D01*
X6823423Y3358523D02*
X6793423Y3328523D01*
X6795780Y755290D02*
X6825780Y725290D01*
X6825780Y755290D02*
X6795780Y725290D01*
X6803580Y353470D02*
X6833580Y323470D01*
X6833580Y353470D02*
X6803580Y323470D01*
X6844270Y909130D02*
X6874270Y879130D01*
X6874270Y909130D02*
X6844270Y879130D01*
X6850620Y3922540D02*
X6880620Y3892540D01*
X6880620Y3922540D02*
X6850620Y3892540D01*
X6916930Y3649900D02*
X6946930Y3619900D01*
X6946930Y3649900D02*
X6916930Y3619900D01*
X6988670Y591050D02*
X7018670Y561050D01*
X7018670Y591050D02*
X6988670Y561050D01*
X7033470Y3349120D02*
X7063470Y3319120D01*
X7063470Y3349120D02*
X7033470Y3319120D01*
X7074070Y470140D02*
X7104070Y440140D01*
X7104070Y470140D02*
X7074070Y440140D01*
X7088250Y3489780D02*
X7118250Y3459780D01*
X7118250Y3489780D02*
X7088250Y3459780D01*
X7280583Y3373574D02*
X7310583Y3343574D01*
X7310583Y3373574D02*
X7280583Y3343574D01*
X7380630Y3690900D02*
X7410630Y3660900D01*
X7410630Y3690900D02*
X7380630Y3660900D01*
X7431460Y3476180D02*
X7461460Y3446180D01*
X7461460Y3476180D02*
X7431460Y3446180D01*
X7632400Y903300D02*
X7662400Y873300D01*
X7662400Y903300D02*
X7632400Y873300D01*
X7645640Y1003090D02*
X7675640Y973090D01*
X7675640Y1003090D02*
X7645640Y973090D01*
X7085330Y2462530D02*
G75*
G03*
X7085330Y2462530I-19050J0D01*
G01*
X7091680Y2184400D02*
G75*
G03*
X7091680Y2184400I-19050J0D01*
G01*
X7421880Y881380D02*
G75*
G03*
X7421880Y881380I-19050J0D01*
G01*
X246880Y3058530D02*
X246880Y2928530D01*
X181880Y2993530D02*
X311880Y2993530D01*
X246880Y1488530D02*
X246880Y1358530D01*
X181880Y1423530D02*
X311880Y1423530D01*
X736880Y2998530D02*
X736880Y2868530D01*
X671880Y2933530D02*
X801880Y2933530D01*
X736880Y1548530D02*
X736880Y1418530D01*
X671880Y1483530D02*
X801880Y1483530D01*
X7773378Y3685832D02*
X7773378Y3779228D01*
X7679982Y3779228D01*
X7679982Y3685832D01*
X7773378Y3685832D01*
X7773378Y2612682D02*
X7773378Y2706078D01*
X7679982Y2706078D01*
X7679982Y2612682D01*
X7773378Y2612682D01*
X7773378Y1539532D02*
X7773378Y1632928D01*
X7679982Y1632928D01*
X7679982Y1539532D01*
X7773378Y1539532D01*
X8281378Y3685832D02*
X8281378Y3779228D01*
X8187982Y3779228D01*
X8187982Y3685832D01*
X8281378Y3685832D01*
X8281378Y2612682D02*
X8281378Y2706078D01*
X8187982Y2706078D01*
X8187982Y2612682D01*
X8281378Y2612682D01*
X8281378Y1539532D02*
X8281378Y1632928D01*
X8187982Y1632928D01*
X8187982Y1539532D01*
X8281378Y1539532D01*
X400000Y4240000D02*
X560000Y4400000D01*
X400000Y4560000D01*
X240000Y4400000D01*
X400000Y4240000D01*
X8000000Y4240000D02*
X8160000Y4400000D01*
X8000000Y4560000D01*
X7840000Y4400000D01*
X8000000Y4240000D01*
X8000000Y240000D02*
X8160000Y400000D01*
X8000000Y560000D01*
X7840000Y400000D01*
X8000000Y240000D01*
X240000Y560000D02*
X560000Y240000D01*
X560000Y560000D02*
X240000Y240000D01*
X560000Y400000D02*
G75*
G03*
X560000Y400000I-160000J0D01*
G01*
D12*
X286508Y-497384D02*
X286508Y-197384D01*
X357937Y-197384D01*
X400794Y-211670D01*
X429366Y-240241D01*
X443651Y-268813D01*
X457937Y-325956D01*
X457937Y-368813D01*
X443651Y-425956D01*
X429366Y-454527D01*
X400794Y-483099D01*
X357937Y-497384D01*
X286508Y-497384D01*
X586508Y-497384D02*
X586508Y-297384D01*
X586508Y-354527D02*
X600794Y-325956D01*
X615080Y-311670D01*
X643651Y-297384D01*
X672223Y-297384D01*
X772223Y-497384D02*
X772223Y-297384D01*
X772223Y-197384D02*
X757937Y-211670D01*
X772223Y-225956D01*
X786508Y-211670D01*
X772223Y-197384D01*
X772223Y-225956D01*
X957937Y-497384D02*
X929366Y-483099D01*
X915080Y-454527D01*
X915080Y-197384D01*
X1115080Y-497384D02*
X1086508Y-483099D01*
X1072223Y-454527D01*
X1072223Y-197384D01*
X1457937Y-497384D02*
X1457937Y-197384D01*
X1557937Y-411670D01*
X1657937Y-197384D01*
X1657937Y-497384D01*
X1929366Y-497384D02*
X1929366Y-340242D01*
X1915080Y-311670D01*
X1886508Y-297384D01*
X1829366Y-297384D01*
X1800794Y-311670D01*
X1929366Y-483099D02*
X1900794Y-497384D01*
X1829366Y-497384D01*
X1800794Y-483099D01*
X1786508Y-454527D01*
X1786508Y-425956D01*
X1800794Y-397384D01*
X1829366Y-383099D01*
X1900794Y-383099D01*
X1929366Y-368813D01*
X2072223Y-297384D02*
X2072223Y-597384D01*
X2072223Y-311670D02*
X2100794Y-297384D01*
X2157937Y-297384D01*
X2186508Y-311670D01*
X2200794Y-325956D01*
X2215080Y-354527D01*
X2215080Y-440241D01*
X2200794Y-468813D01*
X2186508Y-483099D01*
X2157937Y-497384D01*
X2100794Y-497384D01*
X2072223Y-483099D01*
X2343651Y-468813D02*
X2357937Y-483099D01*
X2343651Y-497384D01*
X2329366Y-483099D01*
X2343651Y-468813D01*
X2343651Y-497384D01*
X2343651Y-311670D02*
X2357937Y-325956D01*
X2343651Y-340242D01*
X2329366Y-325956D01*
X2343651Y-311670D01*
X2343651Y-340242D01*
X-29920Y-976670D02*
X80Y-1006670D01*
X80Y-976670D02*
X-29920Y-1006670D01*
X343651Y-827384D02*
X372223Y-827384D01*
X400794Y-841670D01*
X415080Y-855956D01*
X429366Y-884527D01*
X443651Y-941670D01*
X443651Y-1013099D01*
X429366Y-1070242D01*
X415080Y-1098813D01*
X400794Y-1113099D01*
X372223Y-1127384D01*
X343651Y-1127384D01*
X315080Y-1113099D01*
X300794Y-1098813D01*
X286508Y-1070242D01*
X272223Y-1013099D01*
X272223Y-941670D01*
X286508Y-884527D01*
X300794Y-855956D01*
X315080Y-841670D01*
X343651Y-827384D01*
X572223Y-1098813D02*
X586508Y-1113099D01*
X572223Y-1127384D01*
X557937Y-1113099D01*
X572223Y-1098813D01*
X572223Y-1127384D01*
X686508Y-827384D02*
X872223Y-827384D01*
X772223Y-941670D01*
X815080Y-941670D01*
X843651Y-955956D01*
X857937Y-970241D01*
X872223Y-998813D01*
X872223Y-1070242D01*
X857937Y-1098813D01*
X843651Y-1113099D01*
X815080Y-1127384D01*
X729366Y-1127384D01*
X700794Y-1113099D01*
X686508Y-1098813D01*
X1057937Y-827384D02*
X1086508Y-827384D01*
X1115080Y-841670D01*
X1129366Y-855956D01*
X1143651Y-884527D01*
X1157937Y-941670D01*
X1157937Y-1013099D01*
X1143651Y-1070242D01*
X1129366Y-1098813D01*
X1115080Y-1113099D01*
X1086508Y-1127384D01*
X1057937Y-1127384D01*
X1029366Y-1113099D01*
X1015080Y-1098813D01*
X1000794Y-1070242D01*
X986508Y-1013099D01*
X986508Y-941670D01*
X1000794Y-884527D01*
X1015080Y-855956D01*
X1029366Y-841670D01*
X1057937Y-827384D01*
X1286508Y-1127384D02*
X1286508Y-927384D01*
X1286508Y-955956D02*
X1300794Y-941670D01*
X1329366Y-927384D01*
X1372223Y-927384D01*
X1400794Y-941670D01*
X1415080Y-970241D01*
X1415080Y-1127384D01*
X1415080Y-970241D02*
X1429366Y-941670D01*
X1457937Y-927384D01*
X1500794Y-927384D01*
X1529366Y-941670D01*
X1543651Y-970241D01*
X1543651Y-1127384D01*
X1686508Y-1127384D02*
X1686508Y-927384D01*
X1686508Y-955956D02*
X1700794Y-941670D01*
X1729366Y-927384D01*
X1772223Y-927384D01*
X1800794Y-941670D01*
X1815080Y-970241D01*
X1815080Y-1127384D01*
X1815080Y-970241D02*
X1829366Y-941670D01*
X1857937Y-927384D01*
X1900794Y-927384D01*
X1929366Y-941670D01*
X1943651Y-970241D01*
X1943651Y-1127384D01*
X2529366Y-813099D02*
X2272223Y-1198813D01*
X2915080Y-827384D02*
X2943651Y-827384D01*
X2972223Y-841670D01*
X2986508Y-855956D01*
X3000794Y-884527D01*
X3015080Y-941670D01*
X3015080Y-1013099D01*
X3000794Y-1070242D01*
X2986508Y-1098813D01*
X2972223Y-1113099D01*
X2943651Y-1127384D01*
X2915080Y-1127384D01*
X2886508Y-1113099D01*
X2872223Y-1098813D01*
X2857937Y-1070242D01*
X2843651Y-1013099D01*
X2843651Y-941670D01*
X2857937Y-884527D01*
X2872223Y-855956D01*
X2886508Y-841670D01*
X2915080Y-827384D01*
X3143651Y-1098813D02*
X3157937Y-1113099D01*
X3143651Y-1127384D01*
X3129366Y-1113099D01*
X3143651Y-1098813D01*
X3143651Y-1127384D01*
X3343651Y-827384D02*
X3372223Y-827384D01*
X3400794Y-841670D01*
X3415080Y-855956D01*
X3429366Y-884527D01*
X3443651Y-941670D01*
X3443651Y-1013099D01*
X3429366Y-1070242D01*
X3415080Y-1098813D01*
X3400794Y-1113099D01*
X3372223Y-1127384D01*
X3343651Y-1127384D01*
X3315080Y-1113099D01*
X3300794Y-1098813D01*
X3286508Y-1070242D01*
X3272223Y-1013099D01*
X3272223Y-941670D01*
X3286508Y-884527D01*
X3300794Y-855956D01*
X3315080Y-841670D01*
X3343651Y-827384D01*
X3729366Y-1127384D02*
X3557937Y-1127384D01*
X3643651Y-1127384D02*
X3643651Y-827384D01*
X3615080Y-870241D01*
X3586508Y-898813D01*
X3557937Y-913099D01*
X3843651Y-855956D02*
X3857937Y-841670D01*
X3886508Y-827384D01*
X3957937Y-827384D01*
X3986508Y-841670D01*
X4000794Y-855956D01*
X4015080Y-884527D01*
X4015080Y-913099D01*
X4000794Y-955956D01*
X3829366Y-1127384D01*
X4015080Y-1127384D01*
X4129366Y-827384D02*
X4129366Y-884527D01*
X4243651Y-827384D02*
X4243651Y-884527D01*
X4686508Y-1241670D02*
X4672223Y-1227384D01*
X4643651Y-1184527D01*
X4629366Y-1155956D01*
X4615080Y-1113099D01*
X4600794Y-1041670D01*
X4600794Y-984527D01*
X4615080Y-913099D01*
X4629366Y-870241D01*
X4643651Y-841670D01*
X4672223Y-798813D01*
X4686508Y-784527D01*
X4786508Y-855956D02*
X4800794Y-841670D01*
X4829366Y-827384D01*
X4900794Y-827384D01*
X4929366Y-841670D01*
X4943651Y-855956D01*
X4957937Y-884527D01*
X4957937Y-913099D01*
X4943651Y-955956D01*
X4772223Y-1127384D01*
X4957937Y-1127384D01*
X5057937Y-827384D02*
X5257937Y-827384D01*
X5129366Y-1127384D01*
X5357937Y-855956D02*
X5372223Y-841670D01*
X5400794Y-827384D01*
X5472223Y-827384D01*
X5500794Y-841670D01*
X5515080Y-855956D01*
X5529366Y-884527D01*
X5529366Y-913099D01*
X5515080Y-955956D01*
X5343651Y-1127384D01*
X5529366Y-1127384D01*
X5886508Y-1127384D02*
X5886508Y-827384D01*
X6015080Y-1127384D02*
X6015080Y-970241D01*
X6000794Y-941670D01*
X5972223Y-927384D01*
X5929366Y-927384D01*
X5900794Y-941670D01*
X5886508Y-955956D01*
X6200794Y-1127384D02*
X6172223Y-1113099D01*
X6157937Y-1098813D01*
X6143651Y-1070242D01*
X6143651Y-984527D01*
X6157937Y-955956D01*
X6172223Y-941670D01*
X6200794Y-927384D01*
X6243651Y-927384D01*
X6272223Y-941670D01*
X6286508Y-955956D01*
X6300794Y-984527D01*
X6300794Y-1070242D01*
X6286508Y-1098813D01*
X6272223Y-1113099D01*
X6243651Y-1127384D01*
X6200794Y-1127384D01*
X6472223Y-1127384D02*
X6443651Y-1113099D01*
X6429366Y-1084527D01*
X6429366Y-827384D01*
X6700794Y-1113099D02*
X6672223Y-1127384D01*
X6615080Y-1127384D01*
X6586508Y-1113099D01*
X6572223Y-1084527D01*
X6572223Y-970241D01*
X6586508Y-941670D01*
X6615080Y-927384D01*
X6672223Y-927384D01*
X6700794Y-941670D01*
X6715080Y-970241D01*
X6715080Y-998813D01*
X6572223Y-1027384D01*
X6829366Y-1113099D02*
X6857937Y-1127384D01*
X6915080Y-1127384D01*
X6943651Y-1113099D01*
X6957937Y-1084527D01*
X6957937Y-1070242D01*
X6943651Y-1041670D01*
X6915080Y-1027384D01*
X6872223Y-1027384D01*
X6843651Y-1013099D01*
X6829366Y-984527D01*
X6829366Y-970241D01*
X6843651Y-941670D01*
X6872223Y-927384D01*
X6915080Y-927384D01*
X6943651Y-941670D01*
X7057937Y-1241670D02*
X7072223Y-1227384D01*
X7100794Y-1184527D01*
X7115080Y-1155956D01*
X7129366Y-1113099D01*
X7143651Y-1041670D01*
X7143651Y-984527D01*
X7129366Y-913099D01*
X7115080Y-870241D01*
X7100794Y-841670D01*
X7072223Y-798813D01*
X7057937Y-784527D01*
X80Y-1387670D02*
G75*
G03*
X80Y-1387670I-19050J0D01*
G01*
X343651Y-1223384D02*
X372223Y-1223384D01*
X400794Y-1237670D01*
X415080Y-1251956D01*
X429366Y-1280527D01*
X443651Y-1337670D01*
X443651Y-1409099D01*
X429366Y-1466241D01*
X415080Y-1494813D01*
X400794Y-1509099D01*
X372223Y-1523384D01*
X343651Y-1523384D01*
X315080Y-1509099D01*
X300794Y-1494813D01*
X286508Y-1466241D01*
X272223Y-1409099D01*
X272223Y-1337670D01*
X286508Y-1280527D01*
X300794Y-1251956D01*
X315080Y-1237670D01*
X343651Y-1223384D01*
X572223Y-1494813D02*
X586508Y-1509099D01*
X572223Y-1523384D01*
X557937Y-1509099D01*
X572223Y-1494813D01*
X572223Y-1523384D01*
X686508Y-1223384D02*
X872223Y-1223384D01*
X772223Y-1337670D01*
X815080Y-1337670D01*
X843651Y-1351956D01*
X857937Y-1366242D01*
X872223Y-1394813D01*
X872223Y-1466241D01*
X857937Y-1494813D01*
X843651Y-1509099D01*
X815080Y-1523384D01*
X729366Y-1523384D01*
X700794Y-1509099D01*
X686508Y-1494813D01*
X1043651Y-1351956D02*
X1015080Y-1337670D01*
X1000794Y-1323384D01*
X986508Y-1294813D01*
X986508Y-1280527D01*
X1000794Y-1251956D01*
X1015080Y-1237670D01*
X1043651Y-1223384D01*
X1100794Y-1223384D01*
X1129366Y-1237670D01*
X1143651Y-1251956D01*
X1157937Y-1280527D01*
X1157937Y-1294813D01*
X1143651Y-1323384D01*
X1129366Y-1337670D01*
X1100794Y-1351956D01*
X1043651Y-1351956D01*
X1015080Y-1366242D01*
X1000794Y-1380527D01*
X986508Y-1409099D01*
X986508Y-1466241D01*
X1000794Y-1494813D01*
X1015080Y-1509099D01*
X1043651Y-1523384D01*
X1100794Y-1523384D01*
X1129366Y-1509099D01*
X1143651Y-1494813D01*
X1157937Y-1466241D01*
X1157937Y-1409099D01*
X1143651Y-1380527D01*
X1129366Y-1366242D01*
X1100794Y-1351956D01*
X1286508Y-1523384D02*
X1286508Y-1323384D01*
X1286508Y-1351956D02*
X1300794Y-1337670D01*
X1329366Y-1323384D01*
X1372223Y-1323384D01*
X1400794Y-1337670D01*
X1415080Y-1366242D01*
X1415080Y-1523384D01*
X1415080Y-1366242D02*
X1429366Y-1337670D01*
X1457937Y-1323384D01*
X1500794Y-1323384D01*
X1529366Y-1337670D01*
X1543651Y-1366242D01*
X1543651Y-1523384D01*
X1686508Y-1523384D02*
X1686508Y-1323384D01*
X1686508Y-1351956D02*
X1700794Y-1337670D01*
X1729366Y-1323384D01*
X1772223Y-1323384D01*
X1800794Y-1337670D01*
X1815080Y-1366242D01*
X1815080Y-1523384D01*
X1815080Y-1366242D02*
X1829366Y-1337670D01*
X1857937Y-1323384D01*
X1900794Y-1323384D01*
X1929366Y-1337670D01*
X1943651Y-1366242D01*
X1943651Y-1523384D01*
X2529366Y-1209099D02*
X2272223Y-1594813D01*
X2915080Y-1223384D02*
X2943651Y-1223384D01*
X2972223Y-1237670D01*
X2986508Y-1251956D01*
X3000794Y-1280527D01*
X3015080Y-1337670D01*
X3015080Y-1409099D01*
X3000794Y-1466241D01*
X2986508Y-1494813D01*
X2972223Y-1509099D01*
X2943651Y-1523384D01*
X2915080Y-1523384D01*
X2886508Y-1509099D01*
X2872223Y-1494813D01*
X2857937Y-1466241D01*
X2843651Y-1409099D01*
X2843651Y-1337670D01*
X2857937Y-1280527D01*
X2872223Y-1251956D01*
X2886508Y-1237670D01*
X2915080Y-1223384D01*
X3143651Y-1494813D02*
X3157937Y-1509099D01*
X3143651Y-1523384D01*
X3129366Y-1509099D01*
X3143651Y-1494813D01*
X3143651Y-1523384D01*
X3343651Y-1223384D02*
X3372223Y-1223384D01*
X3400794Y-1237670D01*
X3415080Y-1251956D01*
X3429366Y-1280527D01*
X3443651Y-1337670D01*
X3443651Y-1409099D01*
X3429366Y-1466241D01*
X3415080Y-1494813D01*
X3400794Y-1509099D01*
X3372223Y-1523384D01*
X3343651Y-1523384D01*
X3315080Y-1509099D01*
X3300794Y-1494813D01*
X3286508Y-1466241D01*
X3272223Y-1409099D01*
X3272223Y-1337670D01*
X3286508Y-1280527D01*
X3300794Y-1251956D01*
X3315080Y-1237670D01*
X3343651Y-1223384D01*
X3729366Y-1523384D02*
X3557937Y-1523384D01*
X3643651Y-1523384D02*
X3643651Y-1223384D01*
X3615080Y-1266242D01*
X3586508Y-1294813D01*
X3557937Y-1309099D01*
X4000794Y-1223384D02*
X3857937Y-1223384D01*
X3843651Y-1366242D01*
X3857937Y-1351956D01*
X3886508Y-1337670D01*
X3957937Y-1337670D01*
X3986508Y-1351956D01*
X4000794Y-1366242D01*
X4015080Y-1394813D01*
X4015080Y-1466241D01*
X4000794Y-1494813D01*
X3986508Y-1509099D01*
X3957937Y-1523384D01*
X3886508Y-1523384D01*
X3857937Y-1509099D01*
X3843651Y-1494813D01*
X4129366Y-1223384D02*
X4129366Y-1280527D01*
X4243651Y-1223384D02*
X4243651Y-1280527D01*
X4686508Y-1637670D02*
X4672223Y-1623384D01*
X4643651Y-1580527D01*
X4629366Y-1551956D01*
X4615080Y-1509099D01*
X4600794Y-1437670D01*
X4600794Y-1380527D01*
X4615080Y-1309099D01*
X4629366Y-1266242D01*
X4643651Y-1237670D01*
X4672223Y-1194813D01*
X4686508Y-1180527D01*
X4772223Y-1223384D02*
X4957937Y-1223384D01*
X4857937Y-1337670D01*
X4900794Y-1337670D01*
X4929366Y-1351956D01*
X4943651Y-1366242D01*
X4957937Y-1394813D01*
X4957937Y-1466241D01*
X4943651Y-1494813D01*
X4929366Y-1509099D01*
X4900794Y-1523384D01*
X4815080Y-1523384D01*
X4786508Y-1509099D01*
X4772223Y-1494813D01*
X5315080Y-1523384D02*
X5315080Y-1223384D01*
X5443651Y-1523384D02*
X5443651Y-1366242D01*
X5429366Y-1337670D01*
X5400794Y-1323384D01*
X5357937Y-1323384D01*
X5329366Y-1337670D01*
X5315080Y-1351956D01*
X5629366Y-1523384D02*
X5600794Y-1509099D01*
X5586508Y-1494813D01*
X5572223Y-1466241D01*
X5572223Y-1380527D01*
X5586508Y-1351956D01*
X5600794Y-1337670D01*
X5629366Y-1323384D01*
X5672223Y-1323384D01*
X5700794Y-1337670D01*
X5715080Y-1351956D01*
X5729366Y-1380527D01*
X5729366Y-1466241D01*
X5715080Y-1494813D01*
X5700794Y-1509099D01*
X5672223Y-1523384D01*
X5629366Y-1523384D01*
X5900794Y-1523384D02*
X5872223Y-1509099D01*
X5857937Y-1480527D01*
X5857937Y-1223384D01*
X6129366Y-1509099D02*
X6100794Y-1523384D01*
X6043651Y-1523384D01*
X6015080Y-1509099D01*
X6000794Y-1480527D01*
X6000794Y-1366242D01*
X6015080Y-1337670D01*
X6043651Y-1323384D01*
X6100794Y-1323384D01*
X6129366Y-1337670D01*
X6143651Y-1366242D01*
X6143651Y-1394813D01*
X6000794Y-1423384D01*
X6257937Y-1509099D02*
X6286508Y-1523384D01*
X6343651Y-1523384D01*
X6372223Y-1509099D01*
X6386508Y-1480527D01*
X6386508Y-1466241D01*
X6372223Y-1437670D01*
X6343651Y-1423384D01*
X6300794Y-1423384D01*
X6272223Y-1409099D01*
X6257937Y-1380527D01*
X6257937Y-1366242D01*
X6272223Y-1337670D01*
X6300794Y-1323384D01*
X6343651Y-1323384D01*
X6372223Y-1337670D01*
X6486508Y-1637670D02*
X6500794Y-1623384D01*
X6529366Y-1580527D01*
X6543651Y-1551956D01*
X6557937Y-1509099D01*
X6572223Y-1437670D01*
X6572223Y-1380527D01*
X6557937Y-1309099D01*
X6543651Y-1266242D01*
X6529366Y-1237670D01*
X6500794Y-1194813D01*
X6486508Y-1180527D01*
X-64920Y-1718670D02*
X-64920Y-1848670D01*
X-129920Y-1783670D02*
X80Y-1783670D01*
X443651Y-1919384D02*
X272223Y-1919384D01*
X357937Y-1919384D02*
X357937Y-1619384D01*
X329366Y-1662241D01*
X300794Y-1690813D01*
X272223Y-1705099D01*
X572223Y-1890813D02*
X586508Y-1905099D01*
X572223Y-1919384D01*
X557937Y-1905099D01*
X572223Y-1890813D01*
X572223Y-1919384D01*
X686508Y-1619384D02*
X872223Y-1619384D01*
X772223Y-1733670D01*
X815080Y-1733670D01*
X843651Y-1747956D01*
X857937Y-1762241D01*
X872223Y-1790813D01*
X872223Y-1862241D01*
X857937Y-1890813D01*
X843651Y-1905099D01*
X815080Y-1919384D01*
X729366Y-1919384D01*
X700794Y-1905099D01*
X686508Y-1890813D01*
X1057937Y-1619384D02*
X1086508Y-1619384D01*
X1115080Y-1633670D01*
X1129366Y-1647956D01*
X1143651Y-1676527D01*
X1157937Y-1733670D01*
X1157937Y-1805099D01*
X1143651Y-1862241D01*
X1129366Y-1890813D01*
X1115080Y-1905099D01*
X1086508Y-1919384D01*
X1057937Y-1919384D01*
X1029366Y-1905099D01*
X1015080Y-1890813D01*
X1000794Y-1862241D01*
X986508Y-1805099D01*
X986508Y-1733670D01*
X1000794Y-1676527D01*
X1015080Y-1647956D01*
X1029366Y-1633670D01*
X1057937Y-1619384D01*
X1286508Y-1919384D02*
X1286508Y-1719384D01*
X1286508Y-1747956D02*
X1300794Y-1733670D01*
X1329366Y-1719384D01*
X1372223Y-1719384D01*
X1400794Y-1733670D01*
X1415080Y-1762241D01*
X1415080Y-1919384D01*
X1415080Y-1762241D02*
X1429366Y-1733670D01*
X1457937Y-1719384D01*
X1500794Y-1719384D01*
X1529366Y-1733670D01*
X1543651Y-1762241D01*
X1543651Y-1919384D01*
X1686508Y-1919384D02*
X1686508Y-1719384D01*
X1686508Y-1747956D02*
X1700794Y-1733670D01*
X1729366Y-1719384D01*
X1772223Y-1719384D01*
X1800794Y-1733670D01*
X1815080Y-1762241D01*
X1815080Y-1919384D01*
X1815080Y-1762241D02*
X1829366Y-1733670D01*
X1857937Y-1719384D01*
X1900794Y-1719384D01*
X1929366Y-1733670D01*
X1943651Y-1762241D01*
X1943651Y-1919384D01*
X2529366Y-1605099D02*
X2272223Y-1990813D01*
X2915080Y-1619384D02*
X2943651Y-1619384D01*
X2972223Y-1633670D01*
X2986508Y-1647956D01*
X3000794Y-1676527D01*
X3015080Y-1733670D01*
X3015080Y-1805099D01*
X3000794Y-1862241D01*
X2986508Y-1890813D01*
X2972223Y-1905099D01*
X2943651Y-1919384D01*
X2915080Y-1919384D01*
X2886508Y-1905099D01*
X2872223Y-1890813D01*
X2857937Y-1862241D01*
X2843651Y-1805099D01*
X2843651Y-1733670D01*
X2857937Y-1676527D01*
X2872223Y-1647956D01*
X2886508Y-1633670D01*
X2915080Y-1619384D01*
X3143651Y-1890813D02*
X3157937Y-1905099D01*
X3143651Y-1919384D01*
X3129366Y-1905099D01*
X3143651Y-1890813D01*
X3143651Y-1919384D01*
X3343651Y-1619384D02*
X3372223Y-1619384D01*
X3400794Y-1633670D01*
X3415080Y-1647956D01*
X3429366Y-1676527D01*
X3443651Y-1733670D01*
X3443651Y-1805099D01*
X3429366Y-1862241D01*
X3415080Y-1890813D01*
X3400794Y-1905099D01*
X3372223Y-1919384D01*
X3343651Y-1919384D01*
X3315080Y-1905099D01*
X3300794Y-1890813D01*
X3286508Y-1862241D01*
X3272223Y-1805099D01*
X3272223Y-1733670D01*
X3286508Y-1676527D01*
X3300794Y-1647956D01*
X3315080Y-1633670D01*
X3343651Y-1619384D01*
X3715080Y-1619384D02*
X3572223Y-1619384D01*
X3557937Y-1762241D01*
X3572223Y-1747956D01*
X3600794Y-1733670D01*
X3672223Y-1733670D01*
X3700794Y-1747956D01*
X3715080Y-1762241D01*
X3729366Y-1790813D01*
X3729366Y-1862241D01*
X3715080Y-1890813D01*
X3700794Y-1905099D01*
X3672223Y-1919384D01*
X3600794Y-1919384D01*
X3572223Y-1905099D01*
X3557937Y-1890813D01*
X4015080Y-1919384D02*
X3843651Y-1919384D01*
X3929366Y-1919384D02*
X3929366Y-1619384D01*
X3900794Y-1662241D01*
X3872223Y-1690813D01*
X3843651Y-1705099D01*
X4129366Y-1619384D02*
X4129366Y-1676527D01*
X4243651Y-1619384D02*
X4243651Y-1676527D01*
X4686508Y-2033670D02*
X4672223Y-2019384D01*
X4643651Y-1976527D01*
X4629366Y-1947956D01*
X4615080Y-1905099D01*
X4600794Y-1833670D01*
X4600794Y-1776527D01*
X4615080Y-1705099D01*
X4629366Y-1662241D01*
X4643651Y-1633670D01*
X4672223Y-1590813D01*
X4686508Y-1576527D01*
X4929366Y-1719384D02*
X4929366Y-1919384D01*
X4857937Y-1605099D02*
X4786508Y-1819384D01*
X4972223Y-1819384D01*
X5315080Y-1919384D02*
X5315080Y-1619384D01*
X5443651Y-1919384D02*
X5443651Y-1762241D01*
X5429366Y-1733670D01*
X5400794Y-1719384D01*
X5357937Y-1719384D01*
X5329366Y-1733670D01*
X5315080Y-1747956D01*
X5629366Y-1919384D02*
X5600794Y-1905099D01*
X5586508Y-1890813D01*
X5572223Y-1862241D01*
X5572223Y-1776527D01*
X5586508Y-1747956D01*
X5600794Y-1733670D01*
X5629366Y-1719384D01*
X5672223Y-1719384D01*
X5700794Y-1733670D01*
X5715080Y-1747956D01*
X5729366Y-1776527D01*
X5729366Y-1862241D01*
X5715080Y-1890813D01*
X5700794Y-1905099D01*
X5672223Y-1919384D01*
X5629366Y-1919384D01*
X5900794Y-1919384D02*
X5872223Y-1905099D01*
X5857937Y-1876527D01*
X5857937Y-1619384D01*
X6129366Y-1905099D02*
X6100794Y-1919384D01*
X6043651Y-1919384D01*
X6015080Y-1905099D01*
X6000794Y-1876527D01*
X6000794Y-1762241D01*
X6015080Y-1733670D01*
X6043651Y-1719384D01*
X6100794Y-1719384D01*
X6129366Y-1733670D01*
X6143651Y-1762241D01*
X6143651Y-1790813D01*
X6000794Y-1819384D01*
X6257937Y-1905099D02*
X6286508Y-1919384D01*
X6343651Y-1919384D01*
X6372223Y-1905099D01*
X6386508Y-1876527D01*
X6386508Y-1862241D01*
X6372223Y-1833670D01*
X6343651Y-1819384D01*
X6300794Y-1819384D01*
X6272223Y-1805099D01*
X6257937Y-1776527D01*
X6257937Y-1762241D01*
X6272223Y-1733670D01*
X6300794Y-1719384D01*
X6343651Y-1719384D01*
X6372223Y-1733670D01*
X6486508Y-2033670D02*
X6500794Y-2019384D01*
X6529366Y-1976527D01*
X6543651Y-1947956D01*
X6557937Y-1905099D01*
X6572223Y-1833670D01*
X6572223Y-1776527D01*
X6557937Y-1705099D01*
X6543651Y-1662241D01*
X6529366Y-1633670D01*
X6500794Y-1590813D01*
X6486508Y-1576527D01*
X-19262Y-2226368D02*
X-19262Y-2132972D01*
X-112658Y-2132972D01*
X-112658Y-2226368D01*
X-19262Y-2226368D01*
X443651Y-2315384D02*
X272223Y-2315384D01*
X357937Y-2315384D02*
X357937Y-2015384D01*
X329366Y-2058241D01*
X300794Y-2086813D01*
X272223Y-2101099D01*
X572223Y-2286813D02*
X586508Y-2301099D01*
X572223Y-2315384D01*
X557937Y-2301099D01*
X572223Y-2286813D01*
X572223Y-2315384D01*
X686508Y-2015384D02*
X872223Y-2015384D01*
X772223Y-2129670D01*
X815080Y-2129670D01*
X843651Y-2143956D01*
X857937Y-2158242D01*
X872223Y-2186813D01*
X872223Y-2258242D01*
X857937Y-2286813D01*
X843651Y-2301099D01*
X815080Y-2315384D01*
X729366Y-2315384D01*
X700794Y-2301099D01*
X686508Y-2286813D01*
X986508Y-2043956D02*
X1000794Y-2029670D01*
X1029366Y-2015384D01*
X1100794Y-2015384D01*
X1129366Y-2029670D01*
X1143651Y-2043956D01*
X1157937Y-2072527D01*
X1157937Y-2101099D01*
X1143651Y-2143956D01*
X972223Y-2315384D01*
X1157937Y-2315384D01*
X1286508Y-2315384D02*
X1286508Y-2115384D01*
X1286508Y-2143956D02*
X1300794Y-2129670D01*
X1329366Y-2115384D01*
X1372223Y-2115384D01*
X1400794Y-2129670D01*
X1415080Y-2158242D01*
X1415080Y-2315384D01*
X1415080Y-2158242D02*
X1429366Y-2129670D01*
X1457937Y-2115384D01*
X1500794Y-2115384D01*
X1529366Y-2129670D01*
X1543651Y-2158242D01*
X1543651Y-2315384D01*
X1686508Y-2315384D02*
X1686508Y-2115384D01*
X1686508Y-2143956D02*
X1700794Y-2129670D01*
X1729366Y-2115384D01*
X1772223Y-2115384D01*
X1800794Y-2129670D01*
X1815080Y-2158242D01*
X1815080Y-2315384D01*
X1815080Y-2158242D02*
X1829366Y-2129670D01*
X1857937Y-2115384D01*
X1900794Y-2115384D01*
X1929366Y-2129670D01*
X1943651Y-2158242D01*
X1943651Y-2315384D01*
X2529366Y-2001099D02*
X2272223Y-2386813D01*
X2915080Y-2015384D02*
X2943651Y-2015384D01*
X2972223Y-2029670D01*
X2986508Y-2043956D01*
X3000794Y-2072527D01*
X3015080Y-2129670D01*
X3015080Y-2201099D01*
X3000794Y-2258242D01*
X2986508Y-2286813D01*
X2972223Y-2301099D01*
X2943651Y-2315384D01*
X2915080Y-2315384D01*
X2886508Y-2301099D01*
X2872223Y-2286813D01*
X2857937Y-2258242D01*
X2843651Y-2201099D01*
X2843651Y-2129670D01*
X2857937Y-2072527D01*
X2872223Y-2043956D01*
X2886508Y-2029670D01*
X2915080Y-2015384D01*
X3143651Y-2286813D02*
X3157937Y-2301099D01*
X3143651Y-2315384D01*
X3129366Y-2301099D01*
X3143651Y-2286813D01*
X3143651Y-2315384D01*
X3343651Y-2015384D02*
X3372223Y-2015384D01*
X3400794Y-2029670D01*
X3415080Y-2043956D01*
X3429366Y-2072527D01*
X3443651Y-2129670D01*
X3443651Y-2201099D01*
X3429366Y-2258242D01*
X3415080Y-2286813D01*
X3400794Y-2301099D01*
X3372223Y-2315384D01*
X3343651Y-2315384D01*
X3315080Y-2301099D01*
X3300794Y-2286813D01*
X3286508Y-2258242D01*
X3272223Y-2201099D01*
X3272223Y-2129670D01*
X3286508Y-2072527D01*
X3300794Y-2043956D01*
X3315080Y-2029670D01*
X3343651Y-2015384D01*
X3715080Y-2015384D02*
X3572223Y-2015384D01*
X3557937Y-2158242D01*
X3572223Y-2143956D01*
X3600794Y-2129670D01*
X3672223Y-2129670D01*
X3700794Y-2143956D01*
X3715080Y-2158242D01*
X3729366Y-2186813D01*
X3729366Y-2258242D01*
X3715080Y-2286813D01*
X3700794Y-2301099D01*
X3672223Y-2315384D01*
X3600794Y-2315384D01*
X3572223Y-2301099D01*
X3557937Y-2286813D01*
X3843651Y-2043956D02*
X3857937Y-2029670D01*
X3886508Y-2015384D01*
X3957937Y-2015384D01*
X3986508Y-2029670D01*
X4000794Y-2043956D01*
X4015080Y-2072527D01*
X4015080Y-2101099D01*
X4000794Y-2143956D01*
X3829366Y-2315384D01*
X4015080Y-2315384D01*
X4129366Y-2015384D02*
X4129366Y-2072527D01*
X4243651Y-2015384D02*
X4243651Y-2072527D01*
X4686508Y-2429670D02*
X4672223Y-2415384D01*
X4643651Y-2372527D01*
X4629366Y-2343956D01*
X4615080Y-2301099D01*
X4600794Y-2229670D01*
X4600794Y-2172527D01*
X4615080Y-2101099D01*
X4629366Y-2058241D01*
X4643651Y-2029670D01*
X4672223Y-1986813D01*
X4686508Y-1972527D01*
X4929366Y-2015384D02*
X4872223Y-2015384D01*
X4843651Y-2029670D01*
X4829366Y-2043956D01*
X4800794Y-2086813D01*
X4786508Y-2143956D01*
X4786508Y-2258242D01*
X4800794Y-2286813D01*
X4815080Y-2301099D01*
X4843651Y-2315384D01*
X4900794Y-2315384D01*
X4929366Y-2301099D01*
X4943651Y-2286813D01*
X4957937Y-2258242D01*
X4957937Y-2186813D01*
X4943651Y-2158242D01*
X4929366Y-2143956D01*
X4900794Y-2129670D01*
X4843651Y-2129670D01*
X4815080Y-2143956D01*
X4800794Y-2158242D01*
X4786508Y-2186813D01*
X5315080Y-2315384D02*
X5315080Y-2015384D01*
X5443651Y-2315384D02*
X5443651Y-2158242D01*
X5429366Y-2129670D01*
X5400794Y-2115384D01*
X5357937Y-2115384D01*
X5329366Y-2129670D01*
X5315080Y-2143956D01*
X5629366Y-2315384D02*
X5600794Y-2301099D01*
X5586508Y-2286813D01*
X5572223Y-2258242D01*
X5572223Y-2172527D01*
X5586508Y-2143956D01*
X5600794Y-2129670D01*
X5629366Y-2115384D01*
X5672223Y-2115384D01*
X5700794Y-2129670D01*
X5715080Y-2143956D01*
X5729366Y-2172527D01*
X5729366Y-2258242D01*
X5715080Y-2286813D01*
X5700794Y-2301099D01*
X5672223Y-2315384D01*
X5629366Y-2315384D01*
X5900794Y-2315384D02*
X5872223Y-2301099D01*
X5857937Y-2272527D01*
X5857937Y-2015384D01*
X6129366Y-2301099D02*
X6100794Y-2315384D01*
X6043651Y-2315384D01*
X6015080Y-2301099D01*
X6000794Y-2272527D01*
X6000794Y-2158242D01*
X6015080Y-2129670D01*
X6043651Y-2115384D01*
X6100794Y-2115384D01*
X6129366Y-2129670D01*
X6143651Y-2158242D01*
X6143651Y-2186813D01*
X6000794Y-2215384D01*
X6257937Y-2301099D02*
X6286508Y-2315384D01*
X6343651Y-2315384D01*
X6372223Y-2301099D01*
X6386508Y-2272527D01*
X6386508Y-2258242D01*
X6372223Y-2229670D01*
X6343651Y-2215384D01*
X6300794Y-2215384D01*
X6272223Y-2201099D01*
X6257937Y-2172527D01*
X6257937Y-2158242D01*
X6272223Y-2129670D01*
X6300794Y-2115384D01*
X6343651Y-2115384D01*
X6372223Y-2129670D01*
X6486508Y-2429670D02*
X6500794Y-2415384D01*
X6529366Y-2372527D01*
X6543651Y-2343956D01*
X6557937Y-2301099D01*
X6572223Y-2229670D01*
X6572223Y-2172527D01*
X6557937Y-2101099D01*
X6543651Y-2058241D01*
X6529366Y-2029670D01*
X6500794Y-1986813D01*
X6486508Y-1972527D01*
X-159920Y-2735670D02*
X80Y-2575670D01*
X-159920Y-2415670D01*
X-319920Y-2575670D01*
X-159920Y-2735670D01*
X257937Y-2411384D02*
X443651Y-2411384D01*
X343651Y-2525670D01*
X386508Y-2525670D01*
X415080Y-2539956D01*
X429366Y-2554242D01*
X443651Y-2582813D01*
X443651Y-2654242D01*
X429366Y-2682813D01*
X415080Y-2697099D01*
X386508Y-2711384D01*
X300794Y-2711384D01*
X272223Y-2697099D01*
X257937Y-2682813D01*
X572223Y-2682813D02*
X586508Y-2697099D01*
X572223Y-2711384D01*
X557937Y-2697099D01*
X572223Y-2682813D01*
X572223Y-2711384D01*
X700794Y-2439956D02*
X715080Y-2425670D01*
X743651Y-2411384D01*
X815080Y-2411384D01*
X843651Y-2425670D01*
X857937Y-2439956D01*
X872223Y-2468527D01*
X872223Y-2497099D01*
X857937Y-2539956D01*
X686508Y-2711384D01*
X872223Y-2711384D01*
X1057937Y-2411384D02*
X1086508Y-2411384D01*
X1115080Y-2425670D01*
X1129366Y-2439956D01*
X1143651Y-2468527D01*
X1157937Y-2525670D01*
X1157937Y-2597099D01*
X1143651Y-2654242D01*
X1129366Y-2682813D01*
X1115080Y-2697099D01*
X1086508Y-2711384D01*
X1057937Y-2711384D01*
X1029366Y-2697099D01*
X1015080Y-2682813D01*
X1000794Y-2654242D01*
X986508Y-2597099D01*
X986508Y-2525670D01*
X1000794Y-2468527D01*
X1015080Y-2439956D01*
X1029366Y-2425670D01*
X1057937Y-2411384D01*
X1286508Y-2711384D02*
X1286508Y-2511384D01*
X1286508Y-2539956D02*
X1300794Y-2525670D01*
X1329366Y-2511384D01*
X1372223Y-2511384D01*
X1400794Y-2525670D01*
X1415080Y-2554242D01*
X1415080Y-2711384D01*
X1415080Y-2554242D02*
X1429366Y-2525670D01*
X1457937Y-2511384D01*
X1500794Y-2511384D01*
X1529366Y-2525670D01*
X1543651Y-2554242D01*
X1543651Y-2711384D01*
X1686508Y-2711384D02*
X1686508Y-2511384D01*
X1686508Y-2539956D02*
X1700794Y-2525670D01*
X1729366Y-2511384D01*
X1772223Y-2511384D01*
X1800794Y-2525670D01*
X1815080Y-2554242D01*
X1815080Y-2711384D01*
X1815080Y-2554242D02*
X1829366Y-2525670D01*
X1857937Y-2511384D01*
X1900794Y-2511384D01*
X1929366Y-2525670D01*
X1943651Y-2554242D01*
X1943651Y-2711384D01*
X2529366Y-2397099D02*
X2272223Y-2782813D01*
X2915080Y-2411384D02*
X2943651Y-2411384D01*
X2972223Y-2425670D01*
X2986508Y-2439956D01*
X3000794Y-2468527D01*
X3015080Y-2525670D01*
X3015080Y-2597099D01*
X3000794Y-2654242D01*
X2986508Y-2682813D01*
X2972223Y-2697099D01*
X2943651Y-2711384D01*
X2915080Y-2711384D01*
X2886508Y-2697099D01*
X2872223Y-2682813D01*
X2857937Y-2654242D01*
X2843651Y-2597099D01*
X2843651Y-2525670D01*
X2857937Y-2468527D01*
X2872223Y-2439956D01*
X2886508Y-2425670D01*
X2915080Y-2411384D01*
X3143651Y-2682813D02*
X3157937Y-2697099D01*
X3143651Y-2711384D01*
X3129366Y-2697099D01*
X3143651Y-2682813D01*
X3143651Y-2711384D01*
X3443651Y-2711384D02*
X3272223Y-2711384D01*
X3357937Y-2711384D02*
X3357937Y-2411384D01*
X3329366Y-2454242D01*
X3300794Y-2482813D01*
X3272223Y-2497099D01*
X3557937Y-2439956D02*
X3572223Y-2425670D01*
X3600794Y-2411384D01*
X3672223Y-2411384D01*
X3700794Y-2425670D01*
X3715080Y-2439956D01*
X3729366Y-2468527D01*
X3729366Y-2497099D01*
X3715080Y-2539956D01*
X3543651Y-2711384D01*
X3729366Y-2711384D01*
X3986508Y-2411384D02*
X3929366Y-2411384D01*
X3900794Y-2425670D01*
X3886508Y-2439956D01*
X3857937Y-2482813D01*
X3843651Y-2539956D01*
X3843651Y-2654242D01*
X3857937Y-2682813D01*
X3872223Y-2697099D01*
X3900794Y-2711384D01*
X3957937Y-2711384D01*
X3986508Y-2697099D01*
X4000794Y-2682813D01*
X4015080Y-2654242D01*
X4015080Y-2582813D01*
X4000794Y-2554242D01*
X3986508Y-2539956D01*
X3957937Y-2525670D01*
X3900794Y-2525670D01*
X3872223Y-2539956D01*
X3857937Y-2554242D01*
X3843651Y-2582813D01*
X4129366Y-2411384D02*
X4129366Y-2468527D01*
X4243651Y-2411384D02*
X4243651Y-2468527D01*
X4686508Y-2825670D02*
X4672223Y-2811384D01*
X4643651Y-2768527D01*
X4629366Y-2739956D01*
X4615080Y-2697099D01*
X4600794Y-2625670D01*
X4600794Y-2568527D01*
X4615080Y-2497099D01*
X4629366Y-2454242D01*
X4643651Y-2425670D01*
X4672223Y-2382813D01*
X4686508Y-2368527D01*
X4772223Y-2411384D02*
X4957937Y-2411384D01*
X4857937Y-2525670D01*
X4900794Y-2525670D01*
X4929366Y-2539956D01*
X4943651Y-2554242D01*
X4957937Y-2582813D01*
X4957937Y-2654242D01*
X4943651Y-2682813D01*
X4929366Y-2697099D01*
X4900794Y-2711384D01*
X4815080Y-2711384D01*
X4786508Y-2697099D01*
X4772223Y-2682813D01*
X5315080Y-2711384D02*
X5315080Y-2411384D01*
X5443651Y-2711384D02*
X5443651Y-2554242D01*
X5429366Y-2525670D01*
X5400794Y-2511384D01*
X5357937Y-2511384D01*
X5329366Y-2525670D01*
X5315080Y-2539956D01*
X5629366Y-2711384D02*
X5600794Y-2697099D01*
X5586508Y-2682813D01*
X5572223Y-2654242D01*
X5572223Y-2568527D01*
X5586508Y-2539956D01*
X5600794Y-2525670D01*
X5629366Y-2511384D01*
X5672223Y-2511384D01*
X5700794Y-2525670D01*
X5715080Y-2539956D01*
X5729366Y-2568527D01*
X5729366Y-2654242D01*
X5715080Y-2682813D01*
X5700794Y-2697099D01*
X5672223Y-2711384D01*
X5629366Y-2711384D01*
X5900794Y-2711384D02*
X5872223Y-2697099D01*
X5857937Y-2668527D01*
X5857937Y-2411384D01*
X6129366Y-2697099D02*
X6100794Y-2711384D01*
X6043651Y-2711384D01*
X6015080Y-2697099D01*
X6000794Y-2668527D01*
X6000794Y-2554242D01*
X6015080Y-2525670D01*
X6043651Y-2511384D01*
X6100794Y-2511384D01*
X6129366Y-2525670D01*
X6143651Y-2554242D01*
X6143651Y-2582813D01*
X6000794Y-2611384D01*
X6257937Y-2697099D02*
X6286508Y-2711384D01*
X6343651Y-2711384D01*
X6372223Y-2697099D01*
X6386508Y-2668527D01*
X6386508Y-2654242D01*
X6372223Y-2625670D01*
X6343651Y-2611384D01*
X6300794Y-2611384D01*
X6272223Y-2597099D01*
X6257937Y-2568527D01*
X6257937Y-2554242D01*
X6272223Y-2525670D01*
X6300794Y-2511384D01*
X6343651Y-2511384D01*
X6372223Y-2525670D01*
X6486508Y-2825670D02*
X6500794Y-2811384D01*
X6529366Y-2768527D01*
X6543651Y-2739956D01*
X6557937Y-2697099D01*
X6572223Y-2625670D01*
X6572223Y-2568527D01*
X6557937Y-2497099D01*
X6543651Y-2454242D01*
X6529366Y-2425670D01*
X6500794Y-2382813D01*
X6486508Y-2368527D01*
X-319920Y-2865670D02*
X80Y-3185670D01*
X80Y-2865670D02*
X-319920Y-3185670D01*
X80Y-3025670D02*
G75*
G03*
X80Y-3025670I-160000J0D01*
G01*
X257937Y-2861384D02*
X443651Y-2861384D01*
X343651Y-2975670D01*
X386508Y-2975670D01*
X415080Y-2989956D01*
X429366Y-3004241D01*
X443651Y-3032813D01*
X443651Y-3104241D01*
X429366Y-3132813D01*
X415080Y-3147099D01*
X386508Y-3161384D01*
X300794Y-3161384D01*
X272223Y-3147099D01*
X257937Y-3132813D01*
X572223Y-3132813D02*
X586508Y-3147099D01*
X572223Y-3161384D01*
X557937Y-3147099D01*
X572223Y-3132813D01*
X572223Y-3161384D01*
X700794Y-2889956D02*
X715080Y-2875670D01*
X743651Y-2861384D01*
X815080Y-2861384D01*
X843651Y-2875670D01*
X857937Y-2889956D01*
X872223Y-2918527D01*
X872223Y-2947099D01*
X857937Y-2989956D01*
X686508Y-3161384D01*
X872223Y-3161384D01*
X1057937Y-2861384D02*
X1086508Y-2861384D01*
X1115080Y-2875670D01*
X1129366Y-2889956D01*
X1143651Y-2918527D01*
X1157937Y-2975670D01*
X1157937Y-3047099D01*
X1143651Y-3104241D01*
X1129366Y-3132813D01*
X1115080Y-3147099D01*
X1086508Y-3161384D01*
X1057937Y-3161384D01*
X1029366Y-3147099D01*
X1015080Y-3132813D01*
X1000794Y-3104241D01*
X986508Y-3047099D01*
X986508Y-2975670D01*
X1000794Y-2918527D01*
X1015080Y-2889956D01*
X1029366Y-2875670D01*
X1057937Y-2861384D01*
X1286508Y-3161384D02*
X1286508Y-2961384D01*
X1286508Y-2989956D02*
X1300794Y-2975670D01*
X1329366Y-2961384D01*
X1372223Y-2961384D01*
X1400794Y-2975670D01*
X1415080Y-3004241D01*
X1415080Y-3161384D01*
X1415080Y-3004241D02*
X1429366Y-2975670D01*
X1457937Y-2961384D01*
X1500794Y-2961384D01*
X1529366Y-2975670D01*
X1543651Y-3004241D01*
X1543651Y-3161384D01*
X1686508Y-3161384D02*
X1686508Y-2961384D01*
X1686508Y-2989956D02*
X1700794Y-2975670D01*
X1729366Y-2961384D01*
X1772223Y-2961384D01*
X1800794Y-2975670D01*
X1815080Y-3004241D01*
X1815080Y-3161384D01*
X1815080Y-3004241D02*
X1829366Y-2975670D01*
X1857937Y-2961384D01*
X1900794Y-2961384D01*
X1929366Y-2975670D01*
X1943651Y-3004241D01*
X1943651Y-3161384D01*
X2529366Y-2847099D02*
X2272223Y-3232813D01*
X2915080Y-2861384D02*
X2943651Y-2861384D01*
X2972223Y-2875670D01*
X2986508Y-2889956D01*
X3000794Y-2918527D01*
X3015080Y-2975670D01*
X3015080Y-3047099D01*
X3000794Y-3104241D01*
X2986508Y-3132813D01*
X2972223Y-3147099D01*
X2943651Y-3161384D01*
X2915080Y-3161384D01*
X2886508Y-3147099D01*
X2872223Y-3132813D01*
X2857937Y-3104241D01*
X2843651Y-3047099D01*
X2843651Y-2975670D01*
X2857937Y-2918527D01*
X2872223Y-2889956D01*
X2886508Y-2875670D01*
X2915080Y-2861384D01*
X3143651Y-3132813D02*
X3157937Y-3147099D01*
X3143651Y-3161384D01*
X3129366Y-3147099D01*
X3143651Y-3132813D01*
X3143651Y-3161384D01*
X3443651Y-3161384D02*
X3272223Y-3161384D01*
X3357937Y-3161384D02*
X3357937Y-2861384D01*
X3329366Y-2904241D01*
X3300794Y-2932813D01*
X3272223Y-2947099D01*
X3557937Y-2889956D02*
X3572223Y-2875670D01*
X3600794Y-2861384D01*
X3672223Y-2861384D01*
X3700794Y-2875670D01*
X3715080Y-2889956D01*
X3729366Y-2918527D01*
X3729366Y-2947099D01*
X3715080Y-2989956D01*
X3543651Y-3161384D01*
X3729366Y-3161384D01*
X3986508Y-2861384D02*
X3929366Y-2861384D01*
X3900794Y-2875670D01*
X3886508Y-2889956D01*
X3857937Y-2932813D01*
X3843651Y-2989956D01*
X3843651Y-3104241D01*
X3857937Y-3132813D01*
X3872223Y-3147099D01*
X3900794Y-3161384D01*
X3957937Y-3161384D01*
X3986508Y-3147099D01*
X4000794Y-3132813D01*
X4015080Y-3104241D01*
X4015080Y-3032813D01*
X4000794Y-3004241D01*
X3986508Y-2989956D01*
X3957937Y-2975670D01*
X3900794Y-2975670D01*
X3872223Y-2989956D01*
X3857937Y-3004241D01*
X3843651Y-3032813D01*
X4129366Y-2861384D02*
X4129366Y-2918527D01*
X4243651Y-2861384D02*
X4243651Y-2918527D01*
X4686508Y-3275670D02*
X4672223Y-3261384D01*
X4643651Y-3218527D01*
X4629366Y-3189956D01*
X4615080Y-3147099D01*
X4600794Y-3075670D01*
X4600794Y-3018527D01*
X4615080Y-2947099D01*
X4629366Y-2904241D01*
X4643651Y-2875670D01*
X4672223Y-2832813D01*
X4686508Y-2818527D01*
X4957937Y-3161384D02*
X4786508Y-3161384D01*
X4872223Y-3161384D02*
X4872223Y-2861384D01*
X4843651Y-2904241D01*
X4815080Y-2932813D01*
X4786508Y-2947099D01*
X5315080Y-3161384D02*
X5315080Y-2861384D01*
X5443651Y-3161384D02*
X5443651Y-3004241D01*
X5429366Y-2975670D01*
X5400794Y-2961384D01*
X5357937Y-2961384D01*
X5329366Y-2975670D01*
X5315080Y-2989956D01*
X5629366Y-3161384D02*
X5600794Y-3147099D01*
X5586508Y-3132813D01*
X5572223Y-3104241D01*
X5572223Y-3018527D01*
X5586508Y-2989956D01*
X5600794Y-2975670D01*
X5629366Y-2961384D01*
X5672223Y-2961384D01*
X5700794Y-2975670D01*
X5715080Y-2989956D01*
X5729366Y-3018527D01*
X5729366Y-3104241D01*
X5715080Y-3132813D01*
X5700794Y-3147099D01*
X5672223Y-3161384D01*
X5629366Y-3161384D01*
X5900794Y-3161384D02*
X5872223Y-3147099D01*
X5857937Y-3118527D01*
X5857937Y-2861384D01*
X6129366Y-3147099D02*
X6100794Y-3161384D01*
X6043651Y-3161384D01*
X6015080Y-3147099D01*
X6000794Y-3118527D01*
X6000794Y-3004241D01*
X6015080Y-2975670D01*
X6043651Y-2961384D01*
X6100794Y-2961384D01*
X6129366Y-2975670D01*
X6143651Y-3004241D01*
X6143651Y-3032813D01*
X6000794Y-3061384D01*
X6243651Y-3275670D02*
X6257937Y-3261384D01*
X6286508Y-3218527D01*
X6300794Y-3189956D01*
X6315080Y-3147099D01*
X6329366Y-3075670D01*
X6329366Y-3018527D01*
X6315080Y-2947099D01*
X6300794Y-2904241D01*
X6286508Y-2875670D01*
X6257937Y-2832813D01*
X6243651Y-2818527D01*
M02*
