G04 #@! TF.GenerationSoftware,KiCad,Pcbnew,(5.1.12-1-10_14)*
G04 #@! TF.CreationDate,2022-04-11T16:53:27-05:00*
G04 #@! TF.ProjectId,bath_clamp,62617468-5f63-46c6-916d-702e6b696361,rev?*
G04 #@! TF.SameCoordinates,Original*
G04 #@! TF.FileFunction,Paste,Bot*
G04 #@! TF.FilePolarity,Positive*
%FSLAX46Y46*%
G04 Gerber Fmt 4.6, Leading zero omitted, Abs format (unit mm)*
G04 Created by KiCad (PCBNEW (5.1.12-1-10_14)) date 2022-04-11 16:53:27*
%MOMM*%
%LPD*%
G01*
G04 APERTURE LIST*
%ADD10R,1.100000X1.100000*%
%ADD11R,0.400000X0.650000*%
%ADD12R,1.750000X0.450000*%
G04 APERTURE END LIST*
G36*
G01*
X42563600Y45699000D02*
X42563600Y46249000D01*
G75*
G02*
X42763600Y46449000I200000J0D01*
G01*
X43163600Y46449000D01*
G75*
G02*
X43363600Y46249000I0J-200000D01*
G01*
X43363600Y45699000D01*
G75*
G02*
X43163600Y45499000I-200000J0D01*
G01*
X42763600Y45499000D01*
G75*
G02*
X42563600Y45699000I0J200000D01*
G01*
G37*
G36*
G01*
X40913600Y45699000D02*
X40913600Y46249000D01*
G75*
G02*
X41113600Y46449000I200000J0D01*
G01*
X41513600Y46449000D01*
G75*
G02*
X41713600Y46249000I0J-200000D01*
G01*
X41713600Y45699000D01*
G75*
G02*
X41513600Y45499000I-200000J0D01*
G01*
X41113600Y45499000D01*
G75*
G02*
X40913600Y45699000I0J200000D01*
G01*
G37*
G36*
G01*
X32279000Y8743500D02*
X31729000Y8743500D01*
G75*
G02*
X31529000Y8943500I0J200000D01*
G01*
X31529000Y9343500D01*
G75*
G02*
X31729000Y9543500I200000J0D01*
G01*
X32279000Y9543500D01*
G75*
G02*
X32479000Y9343500I0J-200000D01*
G01*
X32479000Y8943500D01*
G75*
G02*
X32279000Y8743500I-200000J0D01*
G01*
G37*
G36*
G01*
X32279000Y7093500D02*
X31729000Y7093500D01*
G75*
G02*
X31529000Y7293500I0J200000D01*
G01*
X31529000Y7693500D01*
G75*
G02*
X31729000Y7893500I200000J0D01*
G01*
X32279000Y7893500D01*
G75*
G02*
X32479000Y7693500I0J-200000D01*
G01*
X32479000Y7293500D01*
G75*
G02*
X32279000Y7093500I-200000J0D01*
G01*
G37*
G36*
G01*
X17861300Y36949800D02*
X16911300Y36949800D01*
G75*
G02*
X16661300Y37199800I0J250000D01*
G01*
X16661300Y37699800D01*
G75*
G02*
X16911300Y37949800I250000J0D01*
G01*
X17861300Y37949800D01*
G75*
G02*
X18111300Y37699800I0J-250000D01*
G01*
X18111300Y37199800D01*
G75*
G02*
X17861300Y36949800I-250000J0D01*
G01*
G37*
G36*
G01*
X17861300Y35049800D02*
X16911300Y35049800D01*
G75*
G02*
X16661300Y35299800I0J250000D01*
G01*
X16661300Y35799800D01*
G75*
G02*
X16911300Y36049800I250000J0D01*
G01*
X17861300Y36049800D01*
G75*
G02*
X18111300Y35799800I0J-250000D01*
G01*
X18111300Y35299800D01*
G75*
G02*
X17861300Y35049800I-250000J0D01*
G01*
G37*
G36*
G01*
X64151700Y42778800D02*
X64651700Y42778800D01*
G75*
G02*
X64876700Y42553800I0J-225000D01*
G01*
X64876700Y42103800D01*
G75*
G02*
X64651700Y41878800I-225000J0D01*
G01*
X64151700Y41878800D01*
G75*
G02*
X63926700Y42103800I0J225000D01*
G01*
X63926700Y42553800D01*
G75*
G02*
X64151700Y42778800I225000J0D01*
G01*
G37*
G36*
G01*
X64151700Y44328800D02*
X64651700Y44328800D01*
G75*
G02*
X64876700Y44103800I0J-225000D01*
G01*
X64876700Y43653800D01*
G75*
G02*
X64651700Y43428800I-225000J0D01*
G01*
X64151700Y43428800D01*
G75*
G02*
X63926700Y43653800I0J225000D01*
G01*
X63926700Y44103800D01*
G75*
G02*
X64151700Y44328800I225000J0D01*
G01*
G37*
G36*
G01*
X19629800Y40290300D02*
X19079800Y40290300D01*
G75*
G02*
X18879800Y40490300I0J200000D01*
G01*
X18879800Y40890300D01*
G75*
G02*
X19079800Y41090300I200000J0D01*
G01*
X19629800Y41090300D01*
G75*
G02*
X19829800Y40890300I0J-200000D01*
G01*
X19829800Y40490300D01*
G75*
G02*
X19629800Y40290300I-200000J0D01*
G01*
G37*
G36*
G01*
X19629800Y38640300D02*
X19079800Y38640300D01*
G75*
G02*
X18879800Y38840300I0J200000D01*
G01*
X18879800Y39240300D01*
G75*
G02*
X19079800Y39440300I200000J0D01*
G01*
X19629800Y39440300D01*
G75*
G02*
X19829800Y39240300I0J-200000D01*
G01*
X19829800Y38840300D01*
G75*
G02*
X19629800Y38640300I-200000J0D01*
G01*
G37*
G36*
G01*
X16714900Y43715701D02*
X16714900Y42415699D01*
G75*
G02*
X16464901Y42165700I-249999J0D01*
G01*
X15814899Y42165700D01*
G75*
G02*
X15564900Y42415699I0J249999D01*
G01*
X15564900Y43715701D01*
G75*
G02*
X15814899Y43965700I249999J0D01*
G01*
X16464901Y43965700D01*
G75*
G02*
X16714900Y43715701I0J-249999D01*
G01*
G37*
G36*
G01*
X19664900Y43715701D02*
X19664900Y42415699D01*
G75*
G02*
X19414901Y42165700I-249999J0D01*
G01*
X18764899Y42165700D01*
G75*
G02*
X18514900Y42415699I0J249999D01*
G01*
X18514900Y43715701D01*
G75*
G02*
X18764899Y43965700I249999J0D01*
G01*
X19414901Y43965700D01*
G75*
G02*
X19664900Y43715701I0J-249999D01*
G01*
G37*
G36*
G01*
X12329399Y43372200D02*
X13629401Y43372200D01*
G75*
G02*
X13879400Y43122201I0J-249999D01*
G01*
X13879400Y42472199D01*
G75*
G02*
X13629401Y42222200I-249999J0D01*
G01*
X12329399Y42222200D01*
G75*
G02*
X12079400Y42472199I0J249999D01*
G01*
X12079400Y43122201D01*
G75*
G02*
X12329399Y43372200I249999J0D01*
G01*
G37*
G36*
G01*
X12329399Y46322200D02*
X13629401Y46322200D01*
G75*
G02*
X13879400Y46072201I0J-249999D01*
G01*
X13879400Y45422199D01*
G75*
G02*
X13629401Y45172200I-249999J0D01*
G01*
X12329399Y45172200D01*
G75*
G02*
X12079400Y45422199I0J249999D01*
G01*
X12079400Y46072201D01*
G75*
G02*
X12329399Y46322200I249999J0D01*
G01*
G37*
G36*
G01*
X48149800Y15265300D02*
X48149800Y15465300D01*
G75*
G02*
X48249800Y15565300I100000J0D01*
G01*
X49524800Y15565300D01*
G75*
G02*
X49624800Y15465300I0J-100000D01*
G01*
X49624800Y15265300D01*
G75*
G02*
X49524800Y15165300I-100000J0D01*
G01*
X48249800Y15165300D01*
G75*
G02*
X48149800Y15265300I0J100000D01*
G01*
G37*
G36*
G01*
X48149800Y15915300D02*
X48149800Y16115300D01*
G75*
G02*
X48249800Y16215300I100000J0D01*
G01*
X49524800Y16215300D01*
G75*
G02*
X49624800Y16115300I0J-100000D01*
G01*
X49624800Y15915300D01*
G75*
G02*
X49524800Y15815300I-100000J0D01*
G01*
X48249800Y15815300D01*
G75*
G02*
X48149800Y15915300I0J100000D01*
G01*
G37*
G36*
G01*
X48149800Y16565300D02*
X48149800Y16765300D01*
G75*
G02*
X48249800Y16865300I100000J0D01*
G01*
X49524800Y16865300D01*
G75*
G02*
X49624800Y16765300I0J-100000D01*
G01*
X49624800Y16565300D01*
G75*
G02*
X49524800Y16465300I-100000J0D01*
G01*
X48249800Y16465300D01*
G75*
G02*
X48149800Y16565300I0J100000D01*
G01*
G37*
G36*
G01*
X48149800Y17215300D02*
X48149800Y17415300D01*
G75*
G02*
X48249800Y17515300I100000J0D01*
G01*
X49524800Y17515300D01*
G75*
G02*
X49624800Y17415300I0J-100000D01*
G01*
X49624800Y17215300D01*
G75*
G02*
X49524800Y17115300I-100000J0D01*
G01*
X48249800Y17115300D01*
G75*
G02*
X48149800Y17215300I0J100000D01*
G01*
G37*
G36*
G01*
X48149800Y17865300D02*
X48149800Y18065300D01*
G75*
G02*
X48249800Y18165300I100000J0D01*
G01*
X49524800Y18165300D01*
G75*
G02*
X49624800Y18065300I0J-100000D01*
G01*
X49624800Y17865300D01*
G75*
G02*
X49524800Y17765300I-100000J0D01*
G01*
X48249800Y17765300D01*
G75*
G02*
X48149800Y17865300I0J100000D01*
G01*
G37*
G36*
G01*
X48149800Y18515300D02*
X48149800Y18715300D01*
G75*
G02*
X48249800Y18815300I100000J0D01*
G01*
X49524800Y18815300D01*
G75*
G02*
X49624800Y18715300I0J-100000D01*
G01*
X49624800Y18515300D01*
G75*
G02*
X49524800Y18415300I-100000J0D01*
G01*
X48249800Y18415300D01*
G75*
G02*
X48149800Y18515300I0J100000D01*
G01*
G37*
G36*
G01*
X48149800Y19165300D02*
X48149800Y19365300D01*
G75*
G02*
X48249800Y19465300I100000J0D01*
G01*
X49524800Y19465300D01*
G75*
G02*
X49624800Y19365300I0J-100000D01*
G01*
X49624800Y19165300D01*
G75*
G02*
X49524800Y19065300I-100000J0D01*
G01*
X48249800Y19065300D01*
G75*
G02*
X48149800Y19165300I0J100000D01*
G01*
G37*
G36*
G01*
X48149800Y19815300D02*
X48149800Y20015300D01*
G75*
G02*
X48249800Y20115300I100000J0D01*
G01*
X49524800Y20115300D01*
G75*
G02*
X49624800Y20015300I0J-100000D01*
G01*
X49624800Y19815300D01*
G75*
G02*
X49524800Y19715300I-100000J0D01*
G01*
X48249800Y19715300D01*
G75*
G02*
X48149800Y19815300I0J100000D01*
G01*
G37*
G36*
G01*
X42424800Y19815300D02*
X42424800Y20015300D01*
G75*
G02*
X42524800Y20115300I100000J0D01*
G01*
X43799800Y20115300D01*
G75*
G02*
X43899800Y20015300I0J-100000D01*
G01*
X43899800Y19815300D01*
G75*
G02*
X43799800Y19715300I-100000J0D01*
G01*
X42524800Y19715300D01*
G75*
G02*
X42424800Y19815300I0J100000D01*
G01*
G37*
G36*
G01*
X42424800Y19165300D02*
X42424800Y19365300D01*
G75*
G02*
X42524800Y19465300I100000J0D01*
G01*
X43799800Y19465300D01*
G75*
G02*
X43899800Y19365300I0J-100000D01*
G01*
X43899800Y19165300D01*
G75*
G02*
X43799800Y19065300I-100000J0D01*
G01*
X42524800Y19065300D01*
G75*
G02*
X42424800Y19165300I0J100000D01*
G01*
G37*
G36*
G01*
X42424800Y18515300D02*
X42424800Y18715300D01*
G75*
G02*
X42524800Y18815300I100000J0D01*
G01*
X43799800Y18815300D01*
G75*
G02*
X43899800Y18715300I0J-100000D01*
G01*
X43899800Y18515300D01*
G75*
G02*
X43799800Y18415300I-100000J0D01*
G01*
X42524800Y18415300D01*
G75*
G02*
X42424800Y18515300I0J100000D01*
G01*
G37*
G36*
G01*
X42424800Y17865300D02*
X42424800Y18065300D01*
G75*
G02*
X42524800Y18165300I100000J0D01*
G01*
X43799800Y18165300D01*
G75*
G02*
X43899800Y18065300I0J-100000D01*
G01*
X43899800Y17865300D01*
G75*
G02*
X43799800Y17765300I-100000J0D01*
G01*
X42524800Y17765300D01*
G75*
G02*
X42424800Y17865300I0J100000D01*
G01*
G37*
G36*
G01*
X42424800Y17215300D02*
X42424800Y17415300D01*
G75*
G02*
X42524800Y17515300I100000J0D01*
G01*
X43799800Y17515300D01*
G75*
G02*
X43899800Y17415300I0J-100000D01*
G01*
X43899800Y17215300D01*
G75*
G02*
X43799800Y17115300I-100000J0D01*
G01*
X42524800Y17115300D01*
G75*
G02*
X42424800Y17215300I0J100000D01*
G01*
G37*
G36*
G01*
X42424800Y16565300D02*
X42424800Y16765300D01*
G75*
G02*
X42524800Y16865300I100000J0D01*
G01*
X43799800Y16865300D01*
G75*
G02*
X43899800Y16765300I0J-100000D01*
G01*
X43899800Y16565300D01*
G75*
G02*
X43799800Y16465300I-100000J0D01*
G01*
X42524800Y16465300D01*
G75*
G02*
X42424800Y16565300I0J100000D01*
G01*
G37*
G36*
G01*
X42424800Y15915300D02*
X42424800Y16115300D01*
G75*
G02*
X42524800Y16215300I100000J0D01*
G01*
X43799800Y16215300D01*
G75*
G02*
X43899800Y16115300I0J-100000D01*
G01*
X43899800Y15915300D01*
G75*
G02*
X43799800Y15815300I-100000J0D01*
G01*
X42524800Y15815300D01*
G75*
G02*
X42424800Y15915300I0J100000D01*
G01*
G37*
G36*
G01*
X42424800Y15265300D02*
X42424800Y15465300D01*
G75*
G02*
X42524800Y15565300I100000J0D01*
G01*
X43799800Y15565300D01*
G75*
G02*
X43899800Y15465300I0J-100000D01*
G01*
X43899800Y15265300D01*
G75*
G02*
X43799800Y15165300I-100000J0D01*
G01*
X42524800Y15165300D01*
G75*
G02*
X42424800Y15265300I0J100000D01*
G01*
G37*
G36*
G01*
X34488800Y22891300D02*
X33938800Y22891300D01*
G75*
G02*
X33738800Y23091300I0J200000D01*
G01*
X33738800Y23491300D01*
G75*
G02*
X33938800Y23691300I200000J0D01*
G01*
X34488800Y23691300D01*
G75*
G02*
X34688800Y23491300I0J-200000D01*
G01*
X34688800Y23091300D01*
G75*
G02*
X34488800Y22891300I-200000J0D01*
G01*
G37*
G36*
G01*
X34488800Y21241300D02*
X33938800Y21241300D01*
G75*
G02*
X33738800Y21441300I0J200000D01*
G01*
X33738800Y21841300D01*
G75*
G02*
X33938800Y22041300I200000J0D01*
G01*
X34488800Y22041300D01*
G75*
G02*
X34688800Y21841300I0J-200000D01*
G01*
X34688800Y21441300D01*
G75*
G02*
X34488800Y21241300I-200000J0D01*
G01*
G37*
G36*
G01*
X50998800Y24796300D02*
X50448800Y24796300D01*
G75*
G02*
X50248800Y24996300I0J200000D01*
G01*
X50248800Y25396300D01*
G75*
G02*
X50448800Y25596300I200000J0D01*
G01*
X50998800Y25596300D01*
G75*
G02*
X51198800Y25396300I0J-200000D01*
G01*
X51198800Y24996300D01*
G75*
G02*
X50998800Y24796300I-200000J0D01*
G01*
G37*
G36*
G01*
X50998800Y23146300D02*
X50448800Y23146300D01*
G75*
G02*
X50248800Y23346300I0J200000D01*
G01*
X50248800Y23746300D01*
G75*
G02*
X50448800Y23946300I200000J0D01*
G01*
X50998800Y23946300D01*
G75*
G02*
X51198800Y23746300I0J-200000D01*
G01*
X51198800Y23346300D01*
G75*
G02*
X50998800Y23146300I-200000J0D01*
G01*
G37*
G36*
G01*
X21152300Y20518800D02*
X21152300Y19968800D01*
G75*
G02*
X20952300Y19768800I-200000J0D01*
G01*
X20552300Y19768800D01*
G75*
G02*
X20352300Y19968800I0J200000D01*
G01*
X20352300Y20518800D01*
G75*
G02*
X20552300Y20718800I200000J0D01*
G01*
X20952300Y20718800D01*
G75*
G02*
X21152300Y20518800I0J-200000D01*
G01*
G37*
G36*
G01*
X22802300Y20518800D02*
X22802300Y19968800D01*
G75*
G02*
X22602300Y19768800I-200000J0D01*
G01*
X22202300Y19768800D01*
G75*
G02*
X22002300Y19968800I0J200000D01*
G01*
X22002300Y20518800D01*
G75*
G02*
X22202300Y20718800I200000J0D01*
G01*
X22602300Y20718800D01*
G75*
G02*
X22802300Y20518800I0J-200000D01*
G01*
G37*
G36*
G01*
X25875800Y25937800D02*
X25875800Y26487800D01*
G75*
G02*
X26075800Y26687800I200000J0D01*
G01*
X26475800Y26687800D01*
G75*
G02*
X26675800Y26487800I0J-200000D01*
G01*
X26675800Y25937800D01*
G75*
G02*
X26475800Y25737800I-200000J0D01*
G01*
X26075800Y25737800D01*
G75*
G02*
X25875800Y25937800I0J200000D01*
G01*
G37*
G36*
G01*
X24225800Y25937800D02*
X24225800Y26487800D01*
G75*
G02*
X24425800Y26687800I200000J0D01*
G01*
X24825800Y26687800D01*
G75*
G02*
X25025800Y26487800I0J-200000D01*
G01*
X25025800Y25937800D01*
G75*
G02*
X24825800Y25737800I-200000J0D01*
G01*
X24425800Y25737800D01*
G75*
G02*
X24225800Y25937800I0J200000D01*
G01*
G37*
G36*
G01*
X17366800Y29049300D02*
X17366800Y29599300D01*
G75*
G02*
X17566800Y29799300I200000J0D01*
G01*
X17966800Y29799300D01*
G75*
G02*
X18166800Y29599300I0J-200000D01*
G01*
X18166800Y29049300D01*
G75*
G02*
X17966800Y28849300I-200000J0D01*
G01*
X17566800Y28849300D01*
G75*
G02*
X17366800Y29049300I0J200000D01*
G01*
G37*
G36*
G01*
X15716800Y29049300D02*
X15716800Y29599300D01*
G75*
G02*
X15916800Y29799300I200000J0D01*
G01*
X16316800Y29799300D01*
G75*
G02*
X16516800Y29599300I0J-200000D01*
G01*
X16516800Y29049300D01*
G75*
G02*
X16316800Y28849300I-200000J0D01*
G01*
X15916800Y28849300D01*
G75*
G02*
X15716800Y29049300I0J200000D01*
G01*
G37*
G36*
G01*
X71253800Y7882300D02*
X71253800Y7332300D01*
G75*
G02*
X71053800Y7132300I-200000J0D01*
G01*
X70653800Y7132300D01*
G75*
G02*
X70453800Y7332300I0J200000D01*
G01*
X70453800Y7882300D01*
G75*
G02*
X70653800Y8082300I200000J0D01*
G01*
X71053800Y8082300D01*
G75*
G02*
X71253800Y7882300I0J-200000D01*
G01*
G37*
G36*
G01*
X72903800Y7882300D02*
X72903800Y7332300D01*
G75*
G02*
X72703800Y7132300I-200000J0D01*
G01*
X72303800Y7132300D01*
G75*
G02*
X72103800Y7332300I0J200000D01*
G01*
X72103800Y7882300D01*
G75*
G02*
X72303800Y8082300I200000J0D01*
G01*
X72703800Y8082300D01*
G75*
G02*
X72903800Y7882300I0J-200000D01*
G01*
G37*
D10*
X52501800Y34909300D03*
X52501800Y37709300D03*
X63169800Y19415300D03*
X63169800Y22215300D03*
X68757800Y11036300D03*
X71557800Y11036300D03*
G36*
G01*
X7587800Y9110300D02*
X7587800Y9660300D01*
G75*
G02*
X7787800Y9860300I200000J0D01*
G01*
X8187800Y9860300D01*
G75*
G02*
X8387800Y9660300I0J-200000D01*
G01*
X8387800Y9110300D01*
G75*
G02*
X8187800Y8910300I-200000J0D01*
G01*
X7787800Y8910300D01*
G75*
G02*
X7587800Y9110300I0J200000D01*
G01*
G37*
G36*
G01*
X5937800Y9110300D02*
X5937800Y9660300D01*
G75*
G02*
X6137800Y9860300I200000J0D01*
G01*
X6537800Y9860300D01*
G75*
G02*
X6737800Y9660300I0J-200000D01*
G01*
X6737800Y9110300D01*
G75*
G02*
X6537800Y8910300I-200000J0D01*
G01*
X6137800Y8910300D01*
G75*
G02*
X5937800Y9110300I0J200000D01*
G01*
G37*
G36*
G01*
X26256800Y42511300D02*
X26256800Y43061300D01*
G75*
G02*
X26456800Y43261300I200000J0D01*
G01*
X26856800Y43261300D01*
G75*
G02*
X27056800Y43061300I0J-200000D01*
G01*
X27056800Y42511300D01*
G75*
G02*
X26856800Y42311300I-200000J0D01*
G01*
X26456800Y42311300D01*
G75*
G02*
X26256800Y42511300I0J200000D01*
G01*
G37*
G36*
G01*
X24606800Y42511300D02*
X24606800Y43061300D01*
G75*
G02*
X24806800Y43261300I200000J0D01*
G01*
X25206800Y43261300D01*
G75*
G02*
X25406800Y43061300I0J-200000D01*
G01*
X25406800Y42511300D01*
G75*
G02*
X25206800Y42311300I-200000J0D01*
G01*
X24806800Y42311300D01*
G75*
G02*
X24606800Y42511300I0J200000D01*
G01*
G37*
G36*
G01*
X20795800Y29049300D02*
X20795800Y29599300D01*
G75*
G02*
X20995800Y29799300I200000J0D01*
G01*
X21395800Y29799300D01*
G75*
G02*
X21595800Y29599300I0J-200000D01*
G01*
X21595800Y29049300D01*
G75*
G02*
X21395800Y28849300I-200000J0D01*
G01*
X20995800Y28849300D01*
G75*
G02*
X20795800Y29049300I0J200000D01*
G01*
G37*
G36*
G01*
X19145800Y29049300D02*
X19145800Y29599300D01*
G75*
G02*
X19345800Y29799300I200000J0D01*
G01*
X19745800Y29799300D01*
G75*
G02*
X19945800Y29599300I0J-200000D01*
G01*
X19945800Y29049300D01*
G75*
G02*
X19745800Y28849300I-200000J0D01*
G01*
X19345800Y28849300D01*
G75*
G02*
X19145800Y29049300I0J200000D01*
G01*
G37*
G36*
G01*
X25875800Y28858800D02*
X25875800Y29408800D01*
G75*
G02*
X26075800Y29608800I200000J0D01*
G01*
X26475800Y29608800D01*
G75*
G02*
X26675800Y29408800I0J-200000D01*
G01*
X26675800Y28858800D01*
G75*
G02*
X26475800Y28658800I-200000J0D01*
G01*
X26075800Y28658800D01*
G75*
G02*
X25875800Y28858800I0J200000D01*
G01*
G37*
G36*
G01*
X24225800Y28858800D02*
X24225800Y29408800D01*
G75*
G02*
X24425800Y29608800I200000J0D01*
G01*
X24825800Y29608800D01*
G75*
G02*
X25025800Y29408800I0J-200000D01*
G01*
X25025800Y28858800D01*
G75*
G02*
X24825800Y28658800I-200000J0D01*
G01*
X24425800Y28658800D01*
G75*
G02*
X24225800Y28858800I0J200000D01*
G01*
G37*
G36*
G01*
X40353800Y8348300D02*
X40353800Y8898300D01*
G75*
G02*
X40553800Y9098300I200000J0D01*
G01*
X40953800Y9098300D01*
G75*
G02*
X41153800Y8898300I0J-200000D01*
G01*
X41153800Y8348300D01*
G75*
G02*
X40953800Y8148300I-200000J0D01*
G01*
X40553800Y8148300D01*
G75*
G02*
X40353800Y8348300I0J200000D01*
G01*
G37*
G36*
G01*
X38703800Y8348300D02*
X38703800Y8898300D01*
G75*
G02*
X38903800Y9098300I200000J0D01*
G01*
X39303800Y9098300D01*
G75*
G02*
X39503800Y8898300I0J-200000D01*
G01*
X39503800Y8348300D01*
G75*
G02*
X39303800Y8148300I-200000J0D01*
G01*
X38903800Y8148300D01*
G75*
G02*
X38703800Y8348300I0J200000D01*
G01*
G37*
G36*
G01*
X76079800Y4364400D02*
X76079800Y3814400D01*
G75*
G02*
X75879800Y3614400I-200000J0D01*
G01*
X75479800Y3614400D01*
G75*
G02*
X75279800Y3814400I0J200000D01*
G01*
X75279800Y4364400D01*
G75*
G02*
X75479800Y4564400I200000J0D01*
G01*
X75879800Y4564400D01*
G75*
G02*
X76079800Y4364400I0J-200000D01*
G01*
G37*
G36*
G01*
X77729800Y4364400D02*
X77729800Y3814400D01*
G75*
G02*
X77529800Y3614400I-200000J0D01*
G01*
X77129800Y3614400D01*
G75*
G02*
X76929800Y3814400I0J200000D01*
G01*
X76929800Y4364400D01*
G75*
G02*
X77129800Y4564400I200000J0D01*
G01*
X77529800Y4564400D01*
G75*
G02*
X77729800Y4364400I0J-200000D01*
G01*
G37*
G36*
G01*
X22827800Y5681300D02*
X22827800Y6231300D01*
G75*
G02*
X23027800Y6431300I200000J0D01*
G01*
X23427800Y6431300D01*
G75*
G02*
X23627800Y6231300I0J-200000D01*
G01*
X23627800Y5681300D01*
G75*
G02*
X23427800Y5481300I-200000J0D01*
G01*
X23027800Y5481300D01*
G75*
G02*
X22827800Y5681300I0J200000D01*
G01*
G37*
G36*
G01*
X21177800Y5681300D02*
X21177800Y6231300D01*
G75*
G02*
X21377800Y6431300I200000J0D01*
G01*
X21777800Y6431300D01*
G75*
G02*
X21977800Y6231300I0J-200000D01*
G01*
X21977800Y5681300D01*
G75*
G02*
X21777800Y5481300I-200000J0D01*
G01*
X21377800Y5481300D01*
G75*
G02*
X21177800Y5681300I0J200000D01*
G01*
G37*
G36*
G01*
X51887800Y18446300D02*
X51337800Y18446300D01*
G75*
G02*
X51137800Y18646300I0J200000D01*
G01*
X51137800Y19046300D01*
G75*
G02*
X51337800Y19246300I200000J0D01*
G01*
X51887800Y19246300D01*
G75*
G02*
X52087800Y19046300I0J-200000D01*
G01*
X52087800Y18646300D01*
G75*
G02*
X51887800Y18446300I-200000J0D01*
G01*
G37*
G36*
G01*
X51887800Y16796300D02*
X51337800Y16796300D01*
G75*
G02*
X51137800Y16996300I0J200000D01*
G01*
X51137800Y17396300D01*
G75*
G02*
X51337800Y17596300I200000J0D01*
G01*
X51887800Y17596300D01*
G75*
G02*
X52087800Y17396300I0J-200000D01*
G01*
X52087800Y16996300D01*
G75*
G02*
X51887800Y16796300I-200000J0D01*
G01*
G37*
G36*
G01*
X25406800Y6231300D02*
X25406800Y5681300D01*
G75*
G02*
X25206800Y5481300I-200000J0D01*
G01*
X24806800Y5481300D01*
G75*
G02*
X24606800Y5681300I0J200000D01*
G01*
X24606800Y6231300D01*
G75*
G02*
X24806800Y6431300I200000J0D01*
G01*
X25206800Y6431300D01*
G75*
G02*
X25406800Y6231300I0J-200000D01*
G01*
G37*
G36*
G01*
X27056800Y6231300D02*
X27056800Y5681300D01*
G75*
G02*
X26856800Y5481300I-200000J0D01*
G01*
X26456800Y5481300D01*
G75*
G02*
X26256800Y5681300I0J200000D01*
G01*
X26256800Y6231300D01*
G75*
G02*
X26456800Y6431300I200000J0D01*
G01*
X26856800Y6431300D01*
G75*
G02*
X27056800Y6231300I0J-200000D01*
G01*
G37*
G36*
G01*
X40296300Y14130800D02*
X40296300Y14680800D01*
G75*
G02*
X40496300Y14880800I200000J0D01*
G01*
X40896300Y14880800D01*
G75*
G02*
X41096300Y14680800I0J-200000D01*
G01*
X41096300Y14130800D01*
G75*
G02*
X40896300Y13930800I-200000J0D01*
G01*
X40496300Y13930800D01*
G75*
G02*
X40296300Y14130800I0J200000D01*
G01*
G37*
G36*
G01*
X38646300Y14130800D02*
X38646300Y14680800D01*
G75*
G02*
X38846300Y14880800I200000J0D01*
G01*
X39246300Y14880800D01*
G75*
G02*
X39446300Y14680800I0J-200000D01*
G01*
X39446300Y14130800D01*
G75*
G02*
X39246300Y13930800I-200000J0D01*
G01*
X38846300Y13930800D01*
G75*
G02*
X38646300Y14130800I0J200000D01*
G01*
G37*
G36*
G01*
X9658800Y37219300D02*
X9658800Y36669300D01*
G75*
G02*
X9458800Y36469300I-200000J0D01*
G01*
X9058800Y36469300D01*
G75*
G02*
X8858800Y36669300I0J200000D01*
G01*
X8858800Y37219300D01*
G75*
G02*
X9058800Y37419300I200000J0D01*
G01*
X9458800Y37419300D01*
G75*
G02*
X9658800Y37219300I0J-200000D01*
G01*
G37*
G36*
G01*
X11308800Y37219300D02*
X11308800Y36669300D01*
G75*
G02*
X11108800Y36469300I-200000J0D01*
G01*
X10708800Y36469300D01*
G75*
G02*
X10508800Y36669300I0J200000D01*
G01*
X10508800Y37219300D01*
G75*
G02*
X10708800Y37419300I200000J0D01*
G01*
X11108800Y37419300D01*
G75*
G02*
X11308800Y37219300I0J-200000D01*
G01*
G37*
G36*
G01*
X9850800Y41560300D02*
X9300800Y41560300D01*
G75*
G02*
X9100800Y41760300I0J200000D01*
G01*
X9100800Y42160300D01*
G75*
G02*
X9300800Y42360300I200000J0D01*
G01*
X9850800Y42360300D01*
G75*
G02*
X10050800Y42160300I0J-200000D01*
G01*
X10050800Y41760300D01*
G75*
G02*
X9850800Y41560300I-200000J0D01*
G01*
G37*
G36*
G01*
X9850800Y39910300D02*
X9300800Y39910300D01*
G75*
G02*
X9100800Y40110300I0J200000D01*
G01*
X9100800Y40510300D01*
G75*
G02*
X9300800Y40710300I200000J0D01*
G01*
X9850800Y40710300D01*
G75*
G02*
X10050800Y40510300I0J-200000D01*
G01*
X10050800Y40110300D01*
G75*
G02*
X9850800Y39910300I-200000J0D01*
G01*
G37*
D11*
X68107800Y6276300D03*
X69407800Y6276300D03*
X68757800Y8176300D03*
X68757800Y6276300D03*
X69407800Y8176300D03*
X68107800Y8176300D03*
G36*
G01*
X25125800Y23605300D02*
X25125800Y23105300D01*
G75*
G02*
X24900800Y22880300I-225000J0D01*
G01*
X24450800Y22880300D01*
G75*
G02*
X24225800Y23105300I0J225000D01*
G01*
X24225800Y23605300D01*
G75*
G02*
X24450800Y23830300I225000J0D01*
G01*
X24900800Y23830300D01*
G75*
G02*
X25125800Y23605300I0J-225000D01*
G01*
G37*
G36*
G01*
X26675800Y23605300D02*
X26675800Y23105300D01*
G75*
G02*
X26450800Y22880300I-225000J0D01*
G01*
X26000800Y22880300D01*
G75*
G02*
X25775800Y23105300I0J225000D01*
G01*
X25775800Y23605300D01*
G75*
G02*
X26000800Y23830300I225000J0D01*
G01*
X26450800Y23830300D01*
G75*
G02*
X26675800Y23605300I0J-225000D01*
G01*
G37*
G36*
G01*
X24146800Y8915300D02*
X24146800Y9115300D01*
G75*
G02*
X24246800Y9215300I100000J0D01*
G01*
X25521800Y9215300D01*
G75*
G02*
X25621800Y9115300I0J-100000D01*
G01*
X25621800Y8915300D01*
G75*
G02*
X25521800Y8815300I-100000J0D01*
G01*
X24246800Y8815300D01*
G75*
G02*
X24146800Y8915300I0J100000D01*
G01*
G37*
G36*
G01*
X24146800Y9565300D02*
X24146800Y9765300D01*
G75*
G02*
X24246800Y9865300I100000J0D01*
G01*
X25521800Y9865300D01*
G75*
G02*
X25621800Y9765300I0J-100000D01*
G01*
X25621800Y9565300D01*
G75*
G02*
X25521800Y9465300I-100000J0D01*
G01*
X24246800Y9465300D01*
G75*
G02*
X24146800Y9565300I0J100000D01*
G01*
G37*
G36*
G01*
X24146800Y10215300D02*
X24146800Y10415300D01*
G75*
G02*
X24246800Y10515300I100000J0D01*
G01*
X25521800Y10515300D01*
G75*
G02*
X25621800Y10415300I0J-100000D01*
G01*
X25621800Y10215300D01*
G75*
G02*
X25521800Y10115300I-100000J0D01*
G01*
X24246800Y10115300D01*
G75*
G02*
X24146800Y10215300I0J100000D01*
G01*
G37*
G36*
G01*
X24146800Y10865300D02*
X24146800Y11065300D01*
G75*
G02*
X24246800Y11165300I100000J0D01*
G01*
X25521800Y11165300D01*
G75*
G02*
X25621800Y11065300I0J-100000D01*
G01*
X25621800Y10865300D01*
G75*
G02*
X25521800Y10765300I-100000J0D01*
G01*
X24246800Y10765300D01*
G75*
G02*
X24146800Y10865300I0J100000D01*
G01*
G37*
G36*
G01*
X24146800Y11515300D02*
X24146800Y11715300D01*
G75*
G02*
X24246800Y11815300I100000J0D01*
G01*
X25521800Y11815300D01*
G75*
G02*
X25621800Y11715300I0J-100000D01*
G01*
X25621800Y11515300D01*
G75*
G02*
X25521800Y11415300I-100000J0D01*
G01*
X24246800Y11415300D01*
G75*
G02*
X24146800Y11515300I0J100000D01*
G01*
G37*
G36*
G01*
X24146800Y12165300D02*
X24146800Y12365300D01*
G75*
G02*
X24246800Y12465300I100000J0D01*
G01*
X25521800Y12465300D01*
G75*
G02*
X25621800Y12365300I0J-100000D01*
G01*
X25621800Y12165300D01*
G75*
G02*
X25521800Y12065300I-100000J0D01*
G01*
X24246800Y12065300D01*
G75*
G02*
X24146800Y12165300I0J100000D01*
G01*
G37*
G36*
G01*
X24146800Y12815300D02*
X24146800Y13015300D01*
G75*
G02*
X24246800Y13115300I100000J0D01*
G01*
X25521800Y13115300D01*
G75*
G02*
X25621800Y13015300I0J-100000D01*
G01*
X25621800Y12815300D01*
G75*
G02*
X25521800Y12715300I-100000J0D01*
G01*
X24246800Y12715300D01*
G75*
G02*
X24146800Y12815300I0J100000D01*
G01*
G37*
G36*
G01*
X24146800Y13465300D02*
X24146800Y13665300D01*
G75*
G02*
X24246800Y13765300I100000J0D01*
G01*
X25521800Y13765300D01*
G75*
G02*
X25621800Y13665300I0J-100000D01*
G01*
X25621800Y13465300D01*
G75*
G02*
X25521800Y13365300I-100000J0D01*
G01*
X24246800Y13365300D01*
G75*
G02*
X24146800Y13465300I0J100000D01*
G01*
G37*
G36*
G01*
X18421800Y13465300D02*
X18421800Y13665300D01*
G75*
G02*
X18521800Y13765300I100000J0D01*
G01*
X19796800Y13765300D01*
G75*
G02*
X19896800Y13665300I0J-100000D01*
G01*
X19896800Y13465300D01*
G75*
G02*
X19796800Y13365300I-100000J0D01*
G01*
X18521800Y13365300D01*
G75*
G02*
X18421800Y13465300I0J100000D01*
G01*
G37*
G36*
G01*
X18421800Y12815300D02*
X18421800Y13015300D01*
G75*
G02*
X18521800Y13115300I100000J0D01*
G01*
X19796800Y13115300D01*
G75*
G02*
X19896800Y13015300I0J-100000D01*
G01*
X19896800Y12815300D01*
G75*
G02*
X19796800Y12715300I-100000J0D01*
G01*
X18521800Y12715300D01*
G75*
G02*
X18421800Y12815300I0J100000D01*
G01*
G37*
G36*
G01*
X18421800Y12165300D02*
X18421800Y12365300D01*
G75*
G02*
X18521800Y12465300I100000J0D01*
G01*
X19796800Y12465300D01*
G75*
G02*
X19896800Y12365300I0J-100000D01*
G01*
X19896800Y12165300D01*
G75*
G02*
X19796800Y12065300I-100000J0D01*
G01*
X18521800Y12065300D01*
G75*
G02*
X18421800Y12165300I0J100000D01*
G01*
G37*
G36*
G01*
X18421800Y11515300D02*
X18421800Y11715300D01*
G75*
G02*
X18521800Y11815300I100000J0D01*
G01*
X19796800Y11815300D01*
G75*
G02*
X19896800Y11715300I0J-100000D01*
G01*
X19896800Y11515300D01*
G75*
G02*
X19796800Y11415300I-100000J0D01*
G01*
X18521800Y11415300D01*
G75*
G02*
X18421800Y11515300I0J100000D01*
G01*
G37*
G36*
G01*
X18421800Y10865300D02*
X18421800Y11065300D01*
G75*
G02*
X18521800Y11165300I100000J0D01*
G01*
X19796800Y11165300D01*
G75*
G02*
X19896800Y11065300I0J-100000D01*
G01*
X19896800Y10865300D01*
G75*
G02*
X19796800Y10765300I-100000J0D01*
G01*
X18521800Y10765300D01*
G75*
G02*
X18421800Y10865300I0J100000D01*
G01*
G37*
G36*
G01*
X18421800Y10215300D02*
X18421800Y10415300D01*
G75*
G02*
X18521800Y10515300I100000J0D01*
G01*
X19796800Y10515300D01*
G75*
G02*
X19896800Y10415300I0J-100000D01*
G01*
X19896800Y10215300D01*
G75*
G02*
X19796800Y10115300I-100000J0D01*
G01*
X18521800Y10115300D01*
G75*
G02*
X18421800Y10215300I0J100000D01*
G01*
G37*
G36*
G01*
X18421800Y9565300D02*
X18421800Y9765300D01*
G75*
G02*
X18521800Y9865300I100000J0D01*
G01*
X19796800Y9865300D01*
G75*
G02*
X19896800Y9765300I0J-100000D01*
G01*
X19896800Y9565300D01*
G75*
G02*
X19796800Y9465300I-100000J0D01*
G01*
X18521800Y9465300D01*
G75*
G02*
X18421800Y9565300I0J100000D01*
G01*
G37*
G36*
G01*
X18421800Y8915300D02*
X18421800Y9115300D01*
G75*
G02*
X18521800Y9215300I100000J0D01*
G01*
X19796800Y9215300D01*
G75*
G02*
X19896800Y9115300I0J-100000D01*
G01*
X19896800Y8915300D01*
G75*
G02*
X19796800Y8815300I-100000J0D01*
G01*
X18521800Y8815300D01*
G75*
G02*
X18421800Y8915300I0J100000D01*
G01*
G37*
G36*
G01*
X3585800Y35249300D02*
X4135800Y35249300D01*
G75*
G02*
X4335800Y35049300I0J-200000D01*
G01*
X4335800Y34649300D01*
G75*
G02*
X4135800Y34449300I-200000J0D01*
G01*
X3585800Y34449300D01*
G75*
G02*
X3385800Y34649300I0J200000D01*
G01*
X3385800Y35049300D01*
G75*
G02*
X3585800Y35249300I200000J0D01*
G01*
G37*
G36*
G01*
X3585800Y36899300D02*
X4135800Y36899300D01*
G75*
G02*
X4335800Y36699300I0J-200000D01*
G01*
X4335800Y36299300D01*
G75*
G02*
X4135800Y36099300I-200000J0D01*
G01*
X3585800Y36099300D01*
G75*
G02*
X3385800Y36299300I0J200000D01*
G01*
X3385800Y36699300D01*
G75*
G02*
X3585800Y36899300I200000J0D01*
G01*
G37*
G36*
G01*
X40190300Y11294300D02*
X40190300Y11794300D01*
G75*
G02*
X40415300Y12019300I225000J0D01*
G01*
X40865300Y12019300D01*
G75*
G02*
X41090300Y11794300I0J-225000D01*
G01*
X41090300Y11294300D01*
G75*
G02*
X40865300Y11069300I-225000J0D01*
G01*
X40415300Y11069300D01*
G75*
G02*
X40190300Y11294300I0J225000D01*
G01*
G37*
G36*
G01*
X38640300Y11294300D02*
X38640300Y11794300D01*
G75*
G02*
X38865300Y12019300I225000J0D01*
G01*
X39315300Y12019300D01*
G75*
G02*
X39540300Y11794300I0J-225000D01*
G01*
X39540300Y11294300D01*
G75*
G02*
X39315300Y11069300I-225000J0D01*
G01*
X38865300Y11069300D01*
G75*
G02*
X38640300Y11294300I0J225000D01*
G01*
G37*
G36*
G01*
X40253800Y5515800D02*
X40253800Y6015800D01*
G75*
G02*
X40478800Y6240800I225000J0D01*
G01*
X40928800Y6240800D01*
G75*
G02*
X41153800Y6015800I0J-225000D01*
G01*
X41153800Y5515800D01*
G75*
G02*
X40928800Y5290800I-225000J0D01*
G01*
X40478800Y5290800D01*
G75*
G02*
X40253800Y5515800I0J225000D01*
G01*
G37*
G36*
G01*
X38703800Y5515800D02*
X38703800Y6015800D01*
G75*
G02*
X38928800Y6240800I225000J0D01*
G01*
X39378800Y6240800D01*
G75*
G02*
X39603800Y6015800I0J-225000D01*
G01*
X39603800Y5515800D01*
G75*
G02*
X39378800Y5290800I-225000J0D01*
G01*
X38928800Y5290800D01*
G75*
G02*
X38703800Y5515800I0J225000D01*
G01*
G37*
G36*
G01*
X4451800Y33409300D02*
X4451800Y32859300D01*
G75*
G02*
X4251800Y32659300I-200000J0D01*
G01*
X3851800Y32659300D01*
G75*
G02*
X3651800Y32859300I0J200000D01*
G01*
X3651800Y33409300D01*
G75*
G02*
X3851800Y33609300I200000J0D01*
G01*
X4251800Y33609300D01*
G75*
G02*
X4451800Y33409300I0J-200000D01*
G01*
G37*
G36*
G01*
X6101800Y33409300D02*
X6101800Y32859300D01*
G75*
G02*
X5901800Y32659300I-200000J0D01*
G01*
X5501800Y32659300D01*
G75*
G02*
X5301800Y32859300I0J200000D01*
G01*
X5301800Y33409300D01*
G75*
G02*
X5501800Y33609300I200000J0D01*
G01*
X5901800Y33609300D01*
G75*
G02*
X6101800Y33409300I0J-200000D01*
G01*
G37*
G36*
G01*
X5913800Y36099300D02*
X5363800Y36099300D01*
G75*
G02*
X5163800Y36299300I0J200000D01*
G01*
X5163800Y36699300D01*
G75*
G02*
X5363800Y36899300I200000J0D01*
G01*
X5913800Y36899300D01*
G75*
G02*
X6113800Y36699300I0J-200000D01*
G01*
X6113800Y36299300D01*
G75*
G02*
X5913800Y36099300I-200000J0D01*
G01*
G37*
G36*
G01*
X5913800Y34449300D02*
X5363800Y34449300D01*
G75*
G02*
X5163800Y34649300I0J200000D01*
G01*
X5163800Y35049300D01*
G75*
G02*
X5363800Y35249300I200000J0D01*
G01*
X5913800Y35249300D01*
G75*
G02*
X6113800Y35049300I0J-200000D01*
G01*
X6113800Y34649300D01*
G75*
G02*
X5913800Y34449300I-200000J0D01*
G01*
G37*
G36*
G01*
X25002300Y19997300D02*
X24502300Y19997300D01*
G75*
G02*
X24277300Y20222300I0J225000D01*
G01*
X24277300Y20672300D01*
G75*
G02*
X24502300Y20897300I225000J0D01*
G01*
X25002300Y20897300D01*
G75*
G02*
X25227300Y20672300I0J-225000D01*
G01*
X25227300Y20222300D01*
G75*
G02*
X25002300Y19997300I-225000J0D01*
G01*
G37*
G36*
G01*
X25002300Y18447300D02*
X24502300Y18447300D01*
G75*
G02*
X24277300Y18672300I0J225000D01*
G01*
X24277300Y19122300D01*
G75*
G02*
X24502300Y19347300I225000J0D01*
G01*
X25002300Y19347300D01*
G75*
G02*
X25227300Y19122300I0J-225000D01*
G01*
X25227300Y18672300D01*
G75*
G02*
X25002300Y18447300I-225000J0D01*
G01*
G37*
G36*
G01*
X18723800Y17315300D02*
X19223800Y17315300D01*
G75*
G02*
X19448800Y17090300I0J-225000D01*
G01*
X19448800Y16640300D01*
G75*
G02*
X19223800Y16415300I-225000J0D01*
G01*
X18723800Y16415300D01*
G75*
G02*
X18498800Y16640300I0J225000D01*
G01*
X18498800Y17090300D01*
G75*
G02*
X18723800Y17315300I225000J0D01*
G01*
G37*
G36*
G01*
X18723800Y18865300D02*
X19223800Y18865300D01*
G75*
G02*
X19448800Y18640300I0J-225000D01*
G01*
X19448800Y18190300D01*
G75*
G02*
X19223800Y17965300I-225000J0D01*
G01*
X18723800Y17965300D01*
G75*
G02*
X18498800Y18190300I0J225000D01*
G01*
X18498800Y18640300D01*
G75*
G02*
X18723800Y18865300I225000J0D01*
G01*
G37*
G36*
G01*
X33114800Y40479300D02*
X33114800Y41029300D01*
G75*
G02*
X33314800Y41229300I200000J0D01*
G01*
X33714800Y41229300D01*
G75*
G02*
X33914800Y41029300I0J-200000D01*
G01*
X33914800Y40479300D01*
G75*
G02*
X33714800Y40279300I-200000J0D01*
G01*
X33314800Y40279300D01*
G75*
G02*
X33114800Y40479300I0J200000D01*
G01*
G37*
G36*
G01*
X31464800Y40479300D02*
X31464800Y41029300D01*
G75*
G02*
X31664800Y41229300I200000J0D01*
G01*
X32064800Y41229300D01*
G75*
G02*
X32264800Y41029300I0J-200000D01*
G01*
X32264800Y40479300D01*
G75*
G02*
X32064800Y40279300I-200000J0D01*
G01*
X31664800Y40279300D01*
G75*
G02*
X31464800Y40479300I0J200000D01*
G01*
G37*
G36*
G01*
X32733800Y34256300D02*
X32733800Y34806300D01*
G75*
G02*
X32933800Y35006300I200000J0D01*
G01*
X33333800Y35006300D01*
G75*
G02*
X33533800Y34806300I0J-200000D01*
G01*
X33533800Y34256300D01*
G75*
G02*
X33333800Y34056300I-200000J0D01*
G01*
X32933800Y34056300D01*
G75*
G02*
X32733800Y34256300I0J200000D01*
G01*
G37*
G36*
G01*
X31083800Y34256300D02*
X31083800Y34806300D01*
G75*
G02*
X31283800Y35006300I200000J0D01*
G01*
X31683800Y35006300D01*
G75*
G02*
X31883800Y34806300I0J-200000D01*
G01*
X31883800Y34256300D01*
G75*
G02*
X31683800Y34056300I-200000J0D01*
G01*
X31283800Y34056300D01*
G75*
G02*
X31083800Y34256300I0J200000D01*
G01*
G37*
G36*
G01*
X34527300Y37523300D02*
X34027300Y37523300D01*
G75*
G02*
X33802300Y37748300I0J225000D01*
G01*
X33802300Y38198300D01*
G75*
G02*
X34027300Y38423300I225000J0D01*
G01*
X34527300Y38423300D01*
G75*
G02*
X34752300Y38198300I0J-225000D01*
G01*
X34752300Y37748300D01*
G75*
G02*
X34527300Y37523300I-225000J0D01*
G01*
G37*
G36*
G01*
X34527300Y35973300D02*
X34027300Y35973300D01*
G75*
G02*
X33802300Y36198300I0J225000D01*
G01*
X33802300Y36648300D01*
G75*
G02*
X34027300Y36873300I225000J0D01*
G01*
X34527300Y36873300D01*
G75*
G02*
X34752300Y36648300I0J-225000D01*
G01*
X34752300Y36198300D01*
G75*
G02*
X34527300Y35973300I-225000J0D01*
G01*
G37*
G36*
G01*
X31542800Y37523300D02*
X31042800Y37523300D01*
G75*
G02*
X30817800Y37748300I0J225000D01*
G01*
X30817800Y38198300D01*
G75*
G02*
X31042800Y38423300I225000J0D01*
G01*
X31542800Y38423300D01*
G75*
G02*
X31767800Y38198300I0J-225000D01*
G01*
X31767800Y37748300D01*
G75*
G02*
X31542800Y37523300I-225000J0D01*
G01*
G37*
G36*
G01*
X31542800Y35973300D02*
X31042800Y35973300D01*
G75*
G02*
X30817800Y36198300I0J225000D01*
G01*
X30817800Y36648300D01*
G75*
G02*
X31042800Y36873300I225000J0D01*
G01*
X31542800Y36873300D01*
G75*
G02*
X31767800Y36648300I0J-225000D01*
G01*
X31767800Y36198300D01*
G75*
G02*
X31542800Y35973300I-225000J0D01*
G01*
G37*
G36*
G01*
X37384800Y38158300D02*
X36884800Y38158300D01*
G75*
G02*
X36659800Y38383300I0J225000D01*
G01*
X36659800Y38833300D01*
G75*
G02*
X36884800Y39058300I225000J0D01*
G01*
X37384800Y39058300D01*
G75*
G02*
X37609800Y38833300I0J-225000D01*
G01*
X37609800Y38383300D01*
G75*
G02*
X37384800Y38158300I-225000J0D01*
G01*
G37*
G36*
G01*
X37384800Y36608300D02*
X36884800Y36608300D01*
G75*
G02*
X36659800Y36833300I0J225000D01*
G01*
X36659800Y37283300D01*
G75*
G02*
X36884800Y37508300I225000J0D01*
G01*
X37384800Y37508300D01*
G75*
G02*
X37609800Y37283300I0J-225000D01*
G01*
X37609800Y36833300D01*
G75*
G02*
X37384800Y36608300I-225000J0D01*
G01*
G37*
G36*
G01*
X16758800Y23232300D02*
X16758800Y23732300D01*
G75*
G02*
X16983800Y23957300I225000J0D01*
G01*
X17433800Y23957300D01*
G75*
G02*
X17658800Y23732300I0J-225000D01*
G01*
X17658800Y23232300D01*
G75*
G02*
X17433800Y23007300I-225000J0D01*
G01*
X16983800Y23007300D01*
G75*
G02*
X16758800Y23232300I0J225000D01*
G01*
G37*
G36*
G01*
X15208800Y23232300D02*
X15208800Y23732300D01*
G75*
G02*
X15433800Y23957300I225000J0D01*
G01*
X15883800Y23957300D01*
G75*
G02*
X16108800Y23732300I0J-225000D01*
G01*
X16108800Y23232300D01*
G75*
G02*
X15883800Y23007300I-225000J0D01*
G01*
X15433800Y23007300D01*
G75*
G02*
X15208800Y23232300I0J225000D01*
G01*
G37*
G36*
G01*
X22017800Y26093300D02*
X21517800Y26093300D01*
G75*
G02*
X21292800Y26318300I0J225000D01*
G01*
X21292800Y26768300D01*
G75*
G02*
X21517800Y26993300I225000J0D01*
G01*
X22017800Y26993300D01*
G75*
G02*
X22242800Y26768300I0J-225000D01*
G01*
X22242800Y26318300D01*
G75*
G02*
X22017800Y26093300I-225000J0D01*
G01*
G37*
G36*
G01*
X22017800Y24543300D02*
X21517800Y24543300D01*
G75*
G02*
X21292800Y24768300I0J225000D01*
G01*
X21292800Y25218300D01*
G75*
G02*
X21517800Y25443300I225000J0D01*
G01*
X22017800Y25443300D01*
G75*
G02*
X22242800Y25218300I0J-225000D01*
G01*
X22242800Y24768300D01*
G75*
G02*
X22017800Y24543300I-225000J0D01*
G01*
G37*
G36*
G01*
X37003800Y24569300D02*
X36503800Y24569300D01*
G75*
G02*
X36278800Y24794300I0J225000D01*
G01*
X36278800Y25244300D01*
G75*
G02*
X36503800Y25469300I225000J0D01*
G01*
X37003800Y25469300D01*
G75*
G02*
X37228800Y25244300I0J-225000D01*
G01*
X37228800Y24794300D01*
G75*
G02*
X37003800Y24569300I-225000J0D01*
G01*
G37*
G36*
G01*
X37003800Y23019300D02*
X36503800Y23019300D01*
G75*
G02*
X36278800Y23244300I0J225000D01*
G01*
X36278800Y23694300D01*
G75*
G02*
X36503800Y23919300I225000J0D01*
G01*
X37003800Y23919300D01*
G75*
G02*
X37228800Y23694300I0J-225000D01*
G01*
X37228800Y23244300D01*
G75*
G02*
X37003800Y23019300I-225000J0D01*
G01*
G37*
G36*
G01*
X31487300Y22204800D02*
X31987300Y22204800D01*
G75*
G02*
X32212300Y21979800I0J-225000D01*
G01*
X32212300Y21529800D01*
G75*
G02*
X31987300Y21304800I-225000J0D01*
G01*
X31487300Y21304800D01*
G75*
G02*
X31262300Y21529800I0J225000D01*
G01*
X31262300Y21979800D01*
G75*
G02*
X31487300Y22204800I225000J0D01*
G01*
G37*
G36*
G01*
X31487300Y23754800D02*
X31987300Y23754800D01*
G75*
G02*
X32212300Y23529800I0J-225000D01*
G01*
X32212300Y23079800D01*
G75*
G02*
X31987300Y22854800I-225000J0D01*
G01*
X31487300Y22854800D01*
G75*
G02*
X31262300Y23079800I0J225000D01*
G01*
X31262300Y23529800D01*
G75*
G02*
X31487300Y23754800I225000J0D01*
G01*
G37*
G36*
G01*
X12298800Y22589300D02*
X12298800Y22089300D01*
G75*
G02*
X12073800Y21864300I-225000J0D01*
G01*
X11623800Y21864300D01*
G75*
G02*
X11398800Y22089300I0J225000D01*
G01*
X11398800Y22589300D01*
G75*
G02*
X11623800Y22814300I225000J0D01*
G01*
X12073800Y22814300D01*
G75*
G02*
X12298800Y22589300I0J-225000D01*
G01*
G37*
G36*
G01*
X13848800Y22589300D02*
X13848800Y22089300D01*
G75*
G02*
X13623800Y21864300I-225000J0D01*
G01*
X13173800Y21864300D01*
G75*
G02*
X12948800Y22089300I0J225000D01*
G01*
X12948800Y22589300D01*
G75*
G02*
X13173800Y22814300I225000J0D01*
G01*
X13623800Y22814300D01*
G75*
G02*
X13848800Y22589300I0J-225000D01*
G01*
G37*
D12*
X62578800Y28924300D03*
X62578800Y29574300D03*
X62578800Y30224300D03*
X62578800Y30874300D03*
X62578800Y31524300D03*
X62578800Y32174300D03*
X62578800Y32824300D03*
X62578800Y33474300D03*
X62578800Y34124300D03*
X62578800Y34774300D03*
X62578800Y35424300D03*
X62578800Y36074300D03*
X55378800Y36074300D03*
X55378800Y35424300D03*
X55378800Y34774300D03*
X55378800Y34124300D03*
X55378800Y33474300D03*
X55378800Y32824300D03*
X55378800Y32174300D03*
X55378800Y31524300D03*
X55378800Y30874300D03*
X55378800Y30224300D03*
X55378800Y29574300D03*
X55378800Y28924300D03*
X63975800Y3651300D03*
X63975800Y4301300D03*
X63975800Y4951300D03*
X63975800Y5601300D03*
X63975800Y6251300D03*
X63975800Y6901300D03*
X63975800Y7551300D03*
X63975800Y8201300D03*
X63975800Y8851300D03*
X63975800Y9501300D03*
X63975800Y10151300D03*
X63975800Y10801300D03*
X56775800Y10801300D03*
X56775800Y10151300D03*
X56775800Y9501300D03*
X56775800Y8851300D03*
X56775800Y8201300D03*
X56775800Y7551300D03*
X56775800Y6901300D03*
X56775800Y6251300D03*
X56775800Y5601300D03*
X56775800Y4951300D03*
X56775800Y4301300D03*
X56775800Y3651300D03*
G36*
G01*
X60478800Y39207300D02*
X60478800Y39507300D01*
G75*
G02*
X60628800Y39657300I150000J0D01*
G01*
X62278800Y39657300D01*
G75*
G02*
X62428800Y39507300I0J-150000D01*
G01*
X62428800Y39207300D01*
G75*
G02*
X62278800Y39057300I-150000J0D01*
G01*
X60628800Y39057300D01*
G75*
G02*
X60478800Y39207300I0J150000D01*
G01*
G37*
G36*
G01*
X60478800Y40477300D02*
X60478800Y40777300D01*
G75*
G02*
X60628800Y40927300I150000J0D01*
G01*
X62278800Y40927300D01*
G75*
G02*
X62428800Y40777300I0J-150000D01*
G01*
X62428800Y40477300D01*
G75*
G02*
X62278800Y40327300I-150000J0D01*
G01*
X60628800Y40327300D01*
G75*
G02*
X60478800Y40477300I0J150000D01*
G01*
G37*
G36*
G01*
X60478800Y41747300D02*
X60478800Y42047300D01*
G75*
G02*
X60628800Y42197300I150000J0D01*
G01*
X62278800Y42197300D01*
G75*
G02*
X62428800Y42047300I0J-150000D01*
G01*
X62428800Y41747300D01*
G75*
G02*
X62278800Y41597300I-150000J0D01*
G01*
X60628800Y41597300D01*
G75*
G02*
X60478800Y41747300I0J150000D01*
G01*
G37*
G36*
G01*
X60478800Y43017300D02*
X60478800Y43317300D01*
G75*
G02*
X60628800Y43467300I150000J0D01*
G01*
X62278800Y43467300D01*
G75*
G02*
X62428800Y43317300I0J-150000D01*
G01*
X62428800Y43017300D01*
G75*
G02*
X62278800Y42867300I-150000J0D01*
G01*
X60628800Y42867300D01*
G75*
G02*
X60478800Y43017300I0J150000D01*
G01*
G37*
G36*
G01*
X55528800Y43017300D02*
X55528800Y43317300D01*
G75*
G02*
X55678800Y43467300I150000J0D01*
G01*
X57328800Y43467300D01*
G75*
G02*
X57478800Y43317300I0J-150000D01*
G01*
X57478800Y43017300D01*
G75*
G02*
X57328800Y42867300I-150000J0D01*
G01*
X55678800Y42867300D01*
G75*
G02*
X55528800Y43017300I0J150000D01*
G01*
G37*
G36*
G01*
X55528800Y41747300D02*
X55528800Y42047300D01*
G75*
G02*
X55678800Y42197300I150000J0D01*
G01*
X57328800Y42197300D01*
G75*
G02*
X57478800Y42047300I0J-150000D01*
G01*
X57478800Y41747300D01*
G75*
G02*
X57328800Y41597300I-150000J0D01*
G01*
X55678800Y41597300D01*
G75*
G02*
X55528800Y41747300I0J150000D01*
G01*
G37*
G36*
G01*
X55528800Y40477300D02*
X55528800Y40777300D01*
G75*
G02*
X55678800Y40927300I150000J0D01*
G01*
X57328800Y40927300D01*
G75*
G02*
X57478800Y40777300I0J-150000D01*
G01*
X57478800Y40477300D01*
G75*
G02*
X57328800Y40327300I-150000J0D01*
G01*
X55678800Y40327300D01*
G75*
G02*
X55528800Y40477300I0J150000D01*
G01*
G37*
G36*
G01*
X55528800Y39207300D02*
X55528800Y39507300D01*
G75*
G02*
X55678800Y39657300I150000J0D01*
G01*
X57328800Y39657300D01*
G75*
G02*
X57478800Y39507300I0J-150000D01*
G01*
X57478800Y39207300D01*
G75*
G02*
X57328800Y39057300I-150000J0D01*
G01*
X55678800Y39057300D01*
G75*
G02*
X55528800Y39207300I0J150000D01*
G01*
G37*
G36*
G01*
X16008800Y25408300D02*
X16008800Y24858300D01*
G75*
G02*
X15808800Y24658300I-200000J0D01*
G01*
X15408800Y24658300D01*
G75*
G02*
X15208800Y24858300I0J200000D01*
G01*
X15208800Y25408300D01*
G75*
G02*
X15408800Y25608300I200000J0D01*
G01*
X15808800Y25608300D01*
G75*
G02*
X16008800Y25408300I0J-200000D01*
G01*
G37*
G36*
G01*
X17658800Y25408300D02*
X17658800Y24858300D01*
G75*
G02*
X17458800Y24658300I-200000J0D01*
G01*
X17058800Y24658300D01*
G75*
G02*
X16858800Y24858300I0J200000D01*
G01*
X16858800Y25408300D01*
G75*
G02*
X17058800Y25608300I200000J0D01*
G01*
X17458800Y25608300D01*
G75*
G02*
X17658800Y25408300I0J-200000D01*
G01*
G37*
G36*
G01*
X13999800Y34233300D02*
X14549800Y34233300D01*
G75*
G02*
X14749800Y34033300I0J-200000D01*
G01*
X14749800Y33633300D01*
G75*
G02*
X14549800Y33433300I-200000J0D01*
G01*
X13999800Y33433300D01*
G75*
G02*
X13799800Y33633300I0J200000D01*
G01*
X13799800Y34033300D01*
G75*
G02*
X13999800Y34233300I200000J0D01*
G01*
G37*
G36*
G01*
X13999800Y35883300D02*
X14549800Y35883300D01*
G75*
G02*
X14749800Y35683300I0J-200000D01*
G01*
X14749800Y35283300D01*
G75*
G02*
X14549800Y35083300I-200000J0D01*
G01*
X13999800Y35083300D01*
G75*
G02*
X13799800Y35283300I0J200000D01*
G01*
X13799800Y35683300D01*
G75*
G02*
X13999800Y35883300I200000J0D01*
G01*
G37*
G36*
G01*
X13999800Y31058300D02*
X14549800Y31058300D01*
G75*
G02*
X14749800Y30858300I0J-200000D01*
G01*
X14749800Y30458300D01*
G75*
G02*
X14549800Y30258300I-200000J0D01*
G01*
X13999800Y30258300D01*
G75*
G02*
X13799800Y30458300I0J200000D01*
G01*
X13799800Y30858300D01*
G75*
G02*
X13999800Y31058300I200000J0D01*
G01*
G37*
G36*
G01*
X13999800Y32708300D02*
X14549800Y32708300D01*
G75*
G02*
X14749800Y32508300I0J-200000D01*
G01*
X14749800Y32108300D01*
G75*
G02*
X14549800Y31908300I-200000J0D01*
G01*
X13999800Y31908300D01*
G75*
G02*
X13799800Y32108300I0J200000D01*
G01*
X13799800Y32508300D01*
G75*
G02*
X13999800Y32708300I200000J0D01*
G01*
G37*
G36*
G01*
X22525000Y32775000D02*
X23075000Y32775000D01*
G75*
G02*
X23275000Y32575000I0J-200000D01*
G01*
X23275000Y32175000D01*
G75*
G02*
X23075000Y31975000I-200000J0D01*
G01*
X22525000Y31975000D01*
G75*
G02*
X22325000Y32175000I0J200000D01*
G01*
X22325000Y32575000D01*
G75*
G02*
X22525000Y32775000I200000J0D01*
G01*
G37*
G36*
G01*
X22525000Y34425000D02*
X23075000Y34425000D01*
G75*
G02*
X23275000Y34225000I0J-200000D01*
G01*
X23275000Y33825000D01*
G75*
G02*
X23075000Y33625000I-200000J0D01*
G01*
X22525000Y33625000D01*
G75*
G02*
X22325000Y33825000I0J200000D01*
G01*
X22325000Y34225000D01*
G75*
G02*
X22525000Y34425000I200000J0D01*
G01*
G37*
G36*
G01*
X21075000Y33625000D02*
X20525000Y33625000D01*
G75*
G02*
X20325000Y33825000I0J200000D01*
G01*
X20325000Y34225000D01*
G75*
G02*
X20525000Y34425000I200000J0D01*
G01*
X21075000Y34425000D01*
G75*
G02*
X21275000Y34225000I0J-200000D01*
G01*
X21275000Y33825000D01*
G75*
G02*
X21075000Y33625000I-200000J0D01*
G01*
G37*
G36*
G01*
X21075000Y31975000D02*
X20525000Y31975000D01*
G75*
G02*
X20325000Y32175000I0J200000D01*
G01*
X20325000Y32575000D01*
G75*
G02*
X20525000Y32775000I200000J0D01*
G01*
X21075000Y32775000D01*
G75*
G02*
X21275000Y32575000I0J-200000D01*
G01*
X21275000Y32175000D01*
G75*
G02*
X21075000Y31975000I-200000J0D01*
G01*
G37*
G36*
G01*
X73029400Y36443100D02*
X73579400Y36443100D01*
G75*
G02*
X73779400Y36243100I0J-200000D01*
G01*
X73779400Y35843100D01*
G75*
G02*
X73579400Y35643100I-200000J0D01*
G01*
X73029400Y35643100D01*
G75*
G02*
X72829400Y35843100I0J200000D01*
G01*
X72829400Y36243100D01*
G75*
G02*
X73029400Y36443100I200000J0D01*
G01*
G37*
G36*
G01*
X73029400Y38093100D02*
X73579400Y38093100D01*
G75*
G02*
X73779400Y37893100I0J-200000D01*
G01*
X73779400Y37493100D01*
G75*
G02*
X73579400Y37293100I-200000J0D01*
G01*
X73029400Y37293100D01*
G75*
G02*
X72829400Y37493100I0J200000D01*
G01*
X72829400Y37893100D01*
G75*
G02*
X73029400Y38093100I200000J0D01*
G01*
G37*
G36*
G01*
X70006800Y36455800D02*
X70556800Y36455800D01*
G75*
G02*
X70756800Y36255800I0J-200000D01*
G01*
X70756800Y35855800D01*
G75*
G02*
X70556800Y35655800I-200000J0D01*
G01*
X70006800Y35655800D01*
G75*
G02*
X69806800Y35855800I0J200000D01*
G01*
X69806800Y36255800D01*
G75*
G02*
X70006800Y36455800I200000J0D01*
G01*
G37*
G36*
G01*
X70006800Y38105800D02*
X70556800Y38105800D01*
G75*
G02*
X70756800Y37905800I0J-200000D01*
G01*
X70756800Y37505800D01*
G75*
G02*
X70556800Y37305800I-200000J0D01*
G01*
X70006800Y37305800D01*
G75*
G02*
X69806800Y37505800I0J200000D01*
G01*
X69806800Y37905800D01*
G75*
G02*
X70006800Y38105800I200000J0D01*
G01*
G37*
G36*
G01*
X67022300Y36455800D02*
X67572300Y36455800D01*
G75*
G02*
X67772300Y36255800I0J-200000D01*
G01*
X67772300Y35855800D01*
G75*
G02*
X67572300Y35655800I-200000J0D01*
G01*
X67022300Y35655800D01*
G75*
G02*
X66822300Y35855800I0J200000D01*
G01*
X66822300Y36255800D01*
G75*
G02*
X67022300Y36455800I200000J0D01*
G01*
G37*
G36*
G01*
X67022300Y38105800D02*
X67572300Y38105800D01*
G75*
G02*
X67772300Y37905800I0J-200000D01*
G01*
X67772300Y37505800D01*
G75*
G02*
X67572300Y37305800I-200000J0D01*
G01*
X67022300Y37305800D01*
G75*
G02*
X66822300Y37505800I0J200000D01*
G01*
X66822300Y37905800D01*
G75*
G02*
X67022300Y38105800I200000J0D01*
G01*
G37*
G36*
G01*
X25394800Y2531300D02*
X25394800Y3031300D01*
G75*
G02*
X25619800Y3256300I225000J0D01*
G01*
X26069800Y3256300D01*
G75*
G02*
X26294800Y3031300I0J-225000D01*
G01*
X26294800Y2531300D01*
G75*
G02*
X26069800Y2306300I-225000J0D01*
G01*
X25619800Y2306300D01*
G75*
G02*
X25394800Y2531300I0J225000D01*
G01*
G37*
G36*
G01*
X23844800Y2531300D02*
X23844800Y3031300D01*
G75*
G02*
X24069800Y3256300I225000J0D01*
G01*
X24519800Y3256300D01*
G75*
G02*
X24744800Y3031300I0J-225000D01*
G01*
X24744800Y2531300D01*
G75*
G02*
X24519800Y2306300I-225000J0D01*
G01*
X24069800Y2306300D01*
G75*
G02*
X23844800Y2531300I0J225000D01*
G01*
G37*
G36*
G01*
X28300800Y3031300D02*
X28300800Y2531300D01*
G75*
G02*
X28075800Y2306300I-225000J0D01*
G01*
X27625800Y2306300D01*
G75*
G02*
X27400800Y2531300I0J225000D01*
G01*
X27400800Y3031300D01*
G75*
G02*
X27625800Y3256300I225000J0D01*
G01*
X28075800Y3256300D01*
G75*
G02*
X28300800Y3031300I0J-225000D01*
G01*
G37*
G36*
G01*
X29850800Y3031300D02*
X29850800Y2531300D01*
G75*
G02*
X29625800Y2306300I-225000J0D01*
G01*
X29175800Y2306300D01*
G75*
G02*
X28950800Y2531300I0J225000D01*
G01*
X28950800Y3031300D01*
G75*
G02*
X29175800Y3256300I225000J0D01*
G01*
X29625800Y3256300D01*
G75*
G02*
X29850800Y3031300I0J-225000D01*
G01*
G37*
G36*
G01*
X16310800Y39794300D02*
X16810800Y39794300D01*
G75*
G02*
X17035800Y39569300I0J-225000D01*
G01*
X17035800Y39119300D01*
G75*
G02*
X16810800Y38894300I-225000J0D01*
G01*
X16310800Y38894300D01*
G75*
G02*
X16085800Y39119300I0J225000D01*
G01*
X16085800Y39569300D01*
G75*
G02*
X16310800Y39794300I225000J0D01*
G01*
G37*
G36*
G01*
X16310800Y41344300D02*
X16810800Y41344300D01*
G75*
G02*
X17035800Y41119300I0J-225000D01*
G01*
X17035800Y40669300D01*
G75*
G02*
X16810800Y40444300I-225000J0D01*
G01*
X16310800Y40444300D01*
G75*
G02*
X16085800Y40669300I0J225000D01*
G01*
X16085800Y41119300D01*
G75*
G02*
X16310800Y41344300I225000J0D01*
G01*
G37*
G36*
G01*
X13389800Y39794300D02*
X13889800Y39794300D01*
G75*
G02*
X14114800Y39569300I0J-225000D01*
G01*
X14114800Y39119300D01*
G75*
G02*
X13889800Y38894300I-225000J0D01*
G01*
X13389800Y38894300D01*
G75*
G02*
X13164800Y39119300I0J225000D01*
G01*
X13164800Y39569300D01*
G75*
G02*
X13389800Y39794300I225000J0D01*
G01*
G37*
G36*
G01*
X13389800Y41344300D02*
X13889800Y41344300D01*
G75*
G02*
X14114800Y41119300I0J-225000D01*
G01*
X14114800Y40669300D01*
G75*
G02*
X13889800Y40444300I-225000J0D01*
G01*
X13389800Y40444300D01*
G75*
G02*
X13164800Y40669300I0J225000D01*
G01*
X13164800Y41119300D01*
G75*
G02*
X13389800Y41344300I225000J0D01*
G01*
G37*
G36*
G01*
X41564799Y36376300D02*
X42864801Y36376300D01*
G75*
G02*
X43114800Y36126301I0J-249999D01*
G01*
X43114800Y35476299D01*
G75*
G02*
X42864801Y35226300I-249999J0D01*
G01*
X41564799Y35226300D01*
G75*
G02*
X41314800Y35476299I0J249999D01*
G01*
X41314800Y36126301D01*
G75*
G02*
X41564799Y36376300I249999J0D01*
G01*
G37*
G36*
G01*
X41564799Y39326300D02*
X42864801Y39326300D01*
G75*
G02*
X43114800Y39076301I0J-249999D01*
G01*
X43114800Y38426299D01*
G75*
G02*
X42864801Y38176300I-249999J0D01*
G01*
X41564799Y38176300D01*
G75*
G02*
X41314800Y38426299I0J249999D01*
G01*
X41314800Y39076301D01*
G75*
G02*
X41564799Y39326300I249999J0D01*
G01*
G37*
G36*
G01*
X41564799Y41505300D02*
X42864801Y41505300D01*
G75*
G02*
X43114800Y41255301I0J-249999D01*
G01*
X43114800Y40605299D01*
G75*
G02*
X42864801Y40355300I-249999J0D01*
G01*
X41564799Y40355300D01*
G75*
G02*
X41314800Y40605299I0J249999D01*
G01*
X41314800Y41255301D01*
G75*
G02*
X41564799Y41505300I249999J0D01*
G01*
G37*
G36*
G01*
X41564799Y44455300D02*
X42864801Y44455300D01*
G75*
G02*
X43114800Y44205301I0J-249999D01*
G01*
X43114800Y43555299D01*
G75*
G02*
X42864801Y43305300I-249999J0D01*
G01*
X41564799Y43305300D01*
G75*
G02*
X41314800Y43555299I0J249999D01*
G01*
X41314800Y44205301D01*
G75*
G02*
X41564799Y44455300I249999J0D01*
G01*
G37*
G36*
G01*
X45266800Y37000300D02*
X45766800Y37000300D01*
G75*
G02*
X45991800Y36775300I0J-225000D01*
G01*
X45991800Y36325300D01*
G75*
G02*
X45766800Y36100300I-225000J0D01*
G01*
X45266800Y36100300D01*
G75*
G02*
X45041800Y36325300I0J225000D01*
G01*
X45041800Y36775300D01*
G75*
G02*
X45266800Y37000300I225000J0D01*
G01*
G37*
G36*
G01*
X45266800Y38550300D02*
X45766800Y38550300D01*
G75*
G02*
X45991800Y38325300I0J-225000D01*
G01*
X45991800Y37875300D01*
G75*
G02*
X45766800Y37650300I-225000J0D01*
G01*
X45266800Y37650300D01*
G75*
G02*
X45041800Y37875300I0J225000D01*
G01*
X45041800Y38325300D01*
G75*
G02*
X45266800Y38550300I225000J0D01*
G01*
G37*
G36*
G01*
X47798800Y37650300D02*
X47298800Y37650300D01*
G75*
G02*
X47073800Y37875300I0J225000D01*
G01*
X47073800Y38325300D01*
G75*
G02*
X47298800Y38550300I225000J0D01*
G01*
X47798800Y38550300D01*
G75*
G02*
X48023800Y38325300I0J-225000D01*
G01*
X48023800Y37875300D01*
G75*
G02*
X47798800Y37650300I-225000J0D01*
G01*
G37*
G36*
G01*
X47798800Y36100300D02*
X47298800Y36100300D01*
G75*
G02*
X47073800Y36325300I0J225000D01*
G01*
X47073800Y36775300D01*
G75*
G02*
X47298800Y37000300I225000J0D01*
G01*
X47798800Y37000300D01*
G75*
G02*
X48023800Y36775300I0J-225000D01*
G01*
X48023800Y36325300D01*
G75*
G02*
X47798800Y36100300I-225000J0D01*
G01*
G37*
G36*
G01*
X27665800Y19287300D02*
X27665800Y18787300D01*
G75*
G02*
X27440800Y18562300I-225000J0D01*
G01*
X26990800Y18562300D01*
G75*
G02*
X26765800Y18787300I0J225000D01*
G01*
X26765800Y19287300D01*
G75*
G02*
X26990800Y19512300I225000J0D01*
G01*
X27440800Y19512300D01*
G75*
G02*
X27665800Y19287300I0J-225000D01*
G01*
G37*
G36*
G01*
X29215800Y19287300D02*
X29215800Y18787300D01*
G75*
G02*
X28990800Y18562300I-225000J0D01*
G01*
X28540800Y18562300D01*
G75*
G02*
X28315800Y18787300I0J225000D01*
G01*
X28315800Y19287300D01*
G75*
G02*
X28540800Y19512300I225000J0D01*
G01*
X28990800Y19512300D01*
G75*
G02*
X29215800Y19287300I0J-225000D01*
G01*
G37*
G36*
G01*
X27665800Y20938300D02*
X27665800Y20438300D01*
G75*
G02*
X27440800Y20213300I-225000J0D01*
G01*
X26990800Y20213300D01*
G75*
G02*
X26765800Y20438300I0J225000D01*
G01*
X26765800Y20938300D01*
G75*
G02*
X26990800Y21163300I225000J0D01*
G01*
X27440800Y21163300D01*
G75*
G02*
X27665800Y20938300I0J-225000D01*
G01*
G37*
G36*
G01*
X29215800Y20938300D02*
X29215800Y20438300D01*
G75*
G02*
X28990800Y20213300I-225000J0D01*
G01*
X28540800Y20213300D01*
G75*
G02*
X28315800Y20438300I0J225000D01*
G01*
X28315800Y20938300D01*
G75*
G02*
X28540800Y21163300I225000J0D01*
G01*
X28990800Y21163300D01*
G75*
G02*
X29215800Y20938300I0J-225000D01*
G01*
G37*
G36*
G01*
X9579800Y34206300D02*
X10079800Y34206300D01*
G75*
G02*
X10304800Y33981300I0J-225000D01*
G01*
X10304800Y33531300D01*
G75*
G02*
X10079800Y33306300I-225000J0D01*
G01*
X9579800Y33306300D01*
G75*
G02*
X9354800Y33531300I0J225000D01*
G01*
X9354800Y33981300D01*
G75*
G02*
X9579800Y34206300I225000J0D01*
G01*
G37*
G36*
G01*
X9579800Y35756300D02*
X10079800Y35756300D01*
G75*
G02*
X10304800Y35531300I0J-225000D01*
G01*
X10304800Y35081300D01*
G75*
G02*
X10079800Y34856300I-225000J0D01*
G01*
X9579800Y34856300D01*
G75*
G02*
X9354800Y35081300I0J225000D01*
G01*
X9354800Y35531300D01*
G75*
G02*
X9579800Y35756300I225000J0D01*
G01*
G37*
G36*
G01*
X48441800Y4742300D02*
X48941800Y4742300D01*
G75*
G02*
X49166800Y4517300I0J-225000D01*
G01*
X49166800Y4067300D01*
G75*
G02*
X48941800Y3842300I-225000J0D01*
G01*
X48441800Y3842300D01*
G75*
G02*
X48216800Y4067300I0J225000D01*
G01*
X48216800Y4517300D01*
G75*
G02*
X48441800Y4742300I225000J0D01*
G01*
G37*
G36*
G01*
X48441800Y6292300D02*
X48941800Y6292300D01*
G75*
G02*
X49166800Y6067300I0J-225000D01*
G01*
X49166800Y5617300D01*
G75*
G02*
X48941800Y5392300I-225000J0D01*
G01*
X48441800Y5392300D01*
G75*
G02*
X48216800Y5617300I0J225000D01*
G01*
X48216800Y6067300D01*
G75*
G02*
X48441800Y6292300I225000J0D01*
G01*
G37*
G36*
G01*
X17136300Y32872800D02*
X17636300Y32872800D01*
G75*
G02*
X17861300Y32647800I0J-225000D01*
G01*
X17861300Y32197800D01*
G75*
G02*
X17636300Y31972800I-225000J0D01*
G01*
X17136300Y31972800D01*
G75*
G02*
X16911300Y32197800I0J225000D01*
G01*
X16911300Y32647800D01*
G75*
G02*
X17136300Y32872800I225000J0D01*
G01*
G37*
G36*
G01*
X17136300Y34422800D02*
X17636300Y34422800D01*
G75*
G02*
X17861300Y34197800I0J-225000D01*
G01*
X17861300Y33747800D01*
G75*
G02*
X17636300Y33522800I-225000J0D01*
G01*
X17136300Y33522800D01*
G75*
G02*
X16911300Y33747800I0J225000D01*
G01*
X16911300Y34197800D01*
G75*
G02*
X17136300Y34422800I225000J0D01*
G01*
G37*
M02*
