%FSLAX45Y45*%
G04 Gerber Fmt 4.5, Leading zero omitted, Abs format (unit mm)*
G04 Created by KiCad (PCBNEW (5.1.9-0-10_14)) date 2021-07-02 21:33:39*
%MOMM*%
%LPD*%
G01*
G04 APERTURE LIST*
%TA.AperFunction,Profile*%
%ADD10C,0.100000*%
%TD*%
%ADD11C,0.200000*%
%ADD12C,0.300000*%
G04 APERTURE END LIST*
D10*
X8387080Y-26670D02*
X8387080Y4799330D01*
X5080Y4799330D02*
X8387080Y4799330D01*
X5080Y4799330D02*
X5080Y-26670D01*
X5080Y-26670D02*
X8387080Y-26670D01*
D11*
D12*
X286508Y-497384D02*
X286508Y-197384D01*
X357937Y-197384D01*
X400794Y-211670D01*
X429366Y-240241D01*
X443651Y-268813D01*
X457937Y-325956D01*
X457937Y-368813D01*
X443651Y-425956D01*
X429366Y-454527D01*
X400794Y-483099D01*
X357937Y-497384D01*
X286508Y-497384D01*
X586508Y-497384D02*
X586508Y-297384D01*
X586508Y-354527D02*
X600794Y-325956D01*
X615080Y-311670D01*
X643651Y-297384D01*
X672223Y-297384D01*
X772223Y-497384D02*
X772223Y-297384D01*
X772223Y-197384D02*
X757937Y-211670D01*
X772223Y-225956D01*
X786508Y-211670D01*
X772223Y-197384D01*
X772223Y-225956D01*
X957937Y-497384D02*
X929366Y-483099D01*
X915080Y-454527D01*
X915080Y-197384D01*
X1115080Y-497384D02*
X1086508Y-483099D01*
X1072223Y-454527D01*
X1072223Y-197384D01*
X1457937Y-497384D02*
X1457937Y-197384D01*
X1557937Y-411670D01*
X1657937Y-197384D01*
X1657937Y-497384D01*
X1929366Y-497384D02*
X1929366Y-340242D01*
X1915080Y-311670D01*
X1886508Y-297384D01*
X1829366Y-297384D01*
X1800794Y-311670D01*
X1929366Y-483099D02*
X1900794Y-497384D01*
X1829366Y-497384D01*
X1800794Y-483099D01*
X1786508Y-454527D01*
X1786508Y-425956D01*
X1800794Y-397384D01*
X1829366Y-383099D01*
X1900794Y-383099D01*
X1929366Y-368813D01*
X2072223Y-297384D02*
X2072223Y-597384D01*
X2072223Y-311670D02*
X2100794Y-297384D01*
X2157937Y-297384D01*
X2186508Y-311670D01*
X2200794Y-325956D01*
X2215080Y-354527D01*
X2215080Y-440241D01*
X2200794Y-468813D01*
X2186508Y-483099D01*
X2157937Y-497384D01*
X2100794Y-497384D01*
X2072223Y-483099D01*
X2343651Y-468813D02*
X2357937Y-483099D01*
X2343651Y-497384D01*
X2329366Y-483099D01*
X2343651Y-468813D01*
X2343651Y-497384D01*
X2343651Y-311670D02*
X2357937Y-325956D01*
X2343651Y-340242D01*
X2329366Y-325956D01*
X2343651Y-311670D01*
X2343651Y-340242D01*
M02*
