M48
; DRILL file {KiCad (5.1.12-1-10_14)} date Monday, April 11, 2022 at 03:56:13 PM
; FORMAT={-:-/ absolute / inch / decimal}
; #@! TF.CreationDate,2022-04-11T15:56:13-05:00
; #@! TF.GenerationSoftware,Kicad,Pcbnew,(5.1.12-1-10_14)
FMAT,2
INCH
T1C0.0118
T2C0.0150
T3C0.0315
T4C0.0394
T5C0.0512
T6C0.0520
T7C0.1260
T8C0.1260
%
G90
G05
T1
X0.1246Y1.4096
X0.1549Y1.2494
X0.177Y1.1979
X0.1822Y1.5034
X0.196Y0.888
X0.2024Y0.3784
X0.23Y1.1165
X0.2545Y0.9655
X0.2547Y0.9191
X0.257Y0.7025
X0.2598Y1.5286
X0.2625Y0.8205
X0.269Y0.4465
X0.2727Y0.8597
X0.2731Y0.9998
X0.296Y1.3858
X0.2963Y0.334
X0.351Y1.499
X0.356Y0.171
X0.3592Y1.3622
X0.367Y1.288
X0.373Y0.6455
X0.3823Y1.0283
X0.389Y1.52
X0.397Y0.8795
X0.404Y0.744
X0.4144Y1.579
X0.4162Y1.6904
X0.4176Y0.7735
X0.4192Y0.9638
X0.42Y0.2275
X0.4738Y0.7101
X0.4856Y1.2762
X0.4971Y0.9101
X0.5015Y1.2005
X0.5044Y1.4141
X0.5262Y1.3837
X0.5264Y1.3138
X0.5348Y1.1368
X0.547Y1.495
X0.5495Y0.6675
X0.5647Y1.1288
X0.5682Y0.8388
X0.5707Y1.6733
X0.5737Y1.5924
X0.582Y1.794
X0.5873Y1.0167
X0.594Y1.469
X0.604Y1.634
X0.609Y1.559
X0.617Y0.613
X0.6244Y1.4434
X0.6444Y0.8966
X0.6719Y0.3661
X0.69Y0.8105
X0.7051Y1.2357
X0.7074Y0.465
X0.7084Y0.4317
X0.7164Y0.6924
X0.7186Y0.9553
X0.7318Y0.5991
X0.739Y1.392
X0.7395Y1.1819
X0.743Y1.485
X0.7626Y0.2813
X0.763Y0.2416
X0.765Y0.051
X0.776Y1.783
X0.7796Y0.63
X0.7896Y1.7336
X0.8Y1.2275
X0.805Y1.624
X0.8166Y0.2438
X0.8206Y0.9895
X0.8211Y1.0446
X0.8293Y0.1917
X0.8299Y1.521
X0.8357Y0.832
X0.838Y1.4695
X0.8474Y0.4573
X0.8503Y0.5135
X0.8536Y0.2877
X0.858Y0.3381
X0.858Y0.097
X0.86Y1.3875
X0.872Y0.3811
X0.874Y0.427
X0.8844Y1.1638
X0.898Y0.47
X0.8991Y0.1866
X0.912Y0.426
X0.916Y1.392
X0.916Y0.118
X0.9167Y0.928
X0.9246Y0.6845
X0.927Y0.7358
X0.9306Y0.3599
X0.9362Y0.4773
X0.9369Y1.1609
X0.9518Y1.6863
X0.96Y1.2875
X0.9627Y1.0793
X0.9744Y0.8405
X0.9744Y0.6301
X0.9893Y0.1478
X1.002Y1.0693
X1.0022Y0.1792
X1.0196Y1.7089
X1.0495Y0.2703
X1.0514Y0.1319
X1.0522Y0.5976
X1.0596Y1.6243
X1.0616Y0.0943
X1.0757Y0.4623
X1.076Y0.5121
X1.0853Y0.2471
X1.092Y1.2762
X1.0931Y1.7245
X1.0934Y1.6929
X1.1047Y0.942
X1.1081Y0.3873
X1.1083Y0.3361
X1.1295Y0.6201
X1.1795Y0.7396
X1.187Y0.855
X1.1905Y0.5435
X1.1923Y0.1104
X1.1956Y1.4395
X1.1958Y0.0201
X1.1964Y1.4871
X1.198Y0.9139
X1.2007Y0.3636
X1.2026Y1.5794
X1.2134Y0.2952
X1.22Y0.4275
X1.22Y0.3275
X1.228Y0.1198
X1.2383Y1.3963
X1.248Y0.193
X1.2521Y0.8181
X1.2585Y1.6475
X1.2688Y1.2727
X1.2868Y1.4668
X1.2871Y0.6271
X1.2881Y0.6691
X1.3075Y1.8609
X1.3094Y0.8598
X1.3104Y0.9138
X1.3186Y1.73
X1.3204Y0.4279
X1.3228Y0.5909
X1.3312Y0.6788
X1.3332Y0.6209
X1.3771Y1.4064
X1.3792Y1.4693
X1.3916Y0.9522
X1.4058Y1.4845
X1.4112Y1.7142
X1.4259Y0.3897
X1.4262Y0.3572
X1.4453Y0.746
X1.4482Y0.5169
X1.48Y0.2875
X1.484Y1.2479
X1.4901Y1.4309
X1.4926Y0.2283
X1.4952Y0.3275
X1.4954Y1.6704
X1.5003Y0.6274
X1.5025Y0.9476
X1.5085Y0.6725
X1.538Y1.5737
X1.5403Y1.5136
X1.553Y1.809
X1.5538Y0.7363
X1.5619Y0.6667
X1.5802Y0.5208
X1.5976Y1.7372
X1.6096Y1.6138
X1.635Y0.438
X1.6525Y0.6007
X1.6528Y0.7315
X1.6533Y0.696
X1.662Y1.3694
X1.6685Y1.6705
X1.689Y0.5796
X1.7064Y1.7608
X1.7065Y1.6885
X1.7154Y1.541
X1.7314Y1.1428
X1.74Y1.5538
X1.7429Y1.4708
X1.7513Y0.1454
X1.7556Y1.4989
X1.7667Y1.3122
X1.7917Y0.5594
X1.795Y1.354
X1.7981Y0.9428
X1.803Y0.7405
X1.8088Y0.6586
X1.8114Y0.6034
X1.8177Y1.6566
X1.8403Y1.6186
X1.8435Y0.4762
X1.8483Y1.5466
X1.8489Y0.5837
X1.8727Y0.8033
X1.8727Y1.6571
X1.876Y0.1595
X1.8798Y1.5604
X1.8812Y0.222
X1.8906Y0.9655
X1.9015Y0.9294
X1.9017Y1.6841
X1.9077Y1.4355
X1.9176Y0.5722
X1.9232Y1.5069
X1.925Y1.57
X1.9351Y1.6566
X1.9404Y1.7153
X1.9434Y0.9799
X1.9505Y0.8532
X1.9589Y0.9405
X1.9614Y0.9114
X1.9628Y0.1628
X1.967Y0.276
X1.9726Y1.0215
X1.9838Y0.8187
X1.984Y0.737
X1.9861Y1.0541
X1.9878Y0.8741
X2.0049Y0.5749
X2.021Y0.231
X2.0323Y1.2869
X2.043Y1.653
X2.0441Y0.5942
X2.0724Y0.1203
X2.08Y0.278
X2.082Y1.721
X2.095Y1.4699
X2.1172Y1.3659
X2.137Y1.754
X2.1689Y1.5962
X2.2128Y1.4203
X2.2246Y1.7288
X2.2366Y1.4524
X2.2426Y1.3489
X2.271Y1.3118
X2.276Y1.3731
X2.3047Y1.3463
X2.3095Y0.3963
X2.3118Y1.6772
X2.3486Y1.3215
X2.351Y1.676
X2.355Y1.535
X2.407Y1.7615
X2.4397Y0.27
X2.4486Y0.1148
X2.4503Y0.3428
X2.4985Y1.7595
X2.516Y1.2699
X2.5677Y0.2205
X2.581Y1.816
X2.582Y0.9395
X2.5836Y1.5381
X2.5902Y1.3926
X2.5902Y1.3542
X2.5903Y1.2707
X2.6045Y1.3214
X2.628Y1.279
X2.659Y0.219
X2.6644Y1.3771
X2.6793Y0.3926
X2.6805Y1.3163
X2.6814Y0.2915
X2.7005Y0.352
X2.703Y1.5384
X2.7291Y1.4311
X2.7574Y0.2268
X2.775Y1.3126
X2.791Y0.1792
X2.7916Y1.5428
X2.7966Y1.368
X2.8723Y1.3223
X2.9117Y1.4472
X2.9317Y1.3627
X2.938Y0.127
X3.0Y0.394
X3.0108Y0.3497
X3.056Y0.548
X3.062Y1.362
T2
X2.782Y0.9695
X2.7845Y0.86
X2.9145Y0.347
T3
X2.66Y1.2067
X2.66Y1.0335
X2.66Y0.9075
X2.66Y0.7267
X2.66Y0.5535
X2.66Y0.4275
X2.86Y1.1201
X2.86Y0.9075
X2.86Y0.6401
X2.86Y0.4275
T4
X0.3937Y0.1024
X0.4937Y0.1024
X0.5937Y0.1024
X0.6937Y0.1024
X3.3228Y1.3185
X3.3228Y1.2185
X3.3228Y0.9185
X3.3228Y0.8185
X3.3228Y0.5185
X3.3228Y0.4185
T5
X0.0972Y1.1786
X0.0972Y0.5604
X0.2901Y1.1549
X0.2901Y0.5841
T6
X3.2071Y1.4685
X3.2071Y1.0685
X3.2071Y0.6685
X3.4071Y1.4685
X3.4071Y1.0685
X3.4071Y0.6685
T7
X0.1575Y1.7323
X3.3071Y1.7323
X3.3071Y0.1575
T8
X0.1575Y0.1575
T0
M30
