M48
; DRILL file {KiCad (5.1.9-0-10_14)} date Friday, July 02, 2021 at 09:33:32 PM
; FORMAT={-:-/ absolute / metric / decimal}
; #@! TF.CreationDate,2021-07-02T21:33:32-05:00
; #@! TF.GenerationSoftware,Kicad,Pcbnew,(5.1.9-0-10_14)
; #@! TF.FileFunction,Plated,1,6,PTH
FMAT,2
METRIC
T1C0.300
T2C0.381
T3C1.300
T4C1.321
T5C3.200
T6C3.200
%
G90
G05
T1
X3.166Y35.804
X3.934Y31.736
X4.496Y30.426
X4.627Y38.185
X4.978Y22.555
X5.14Y9.61
X5.842Y28.359
X6.464Y24.524
X6.468Y23.345
X6.528Y17.843
X6.598Y38.827
X6.667Y20.841
X6.833Y11.341
X6.927Y21.835
X6.937Y25.396
X7.518Y35.2
X7.525Y8.484
X9.123Y34.599
X9.195Y8.458
X9.474Y16.396
X9.639Y38.519
X9.711Y26.118
X10.084Y22.339
X10.262Y18.898
X10.526Y40.106
X10.571Y42.937
X10.608Y19.646
X10.646Y24.48
X12.034Y18.036
X12.333Y32.415
X12.626Y23.116
X12.738Y30.492
X12.989Y38.141
X13.365Y35.146
X13.371Y33.37
X13.554Y44.292
X13.585Y28.875
X13.833Y37.967
X13.957Y16.954
X14.343Y28.67
X14.432Y21.306
X14.573Y40.447
X14.917Y25.825
X15.641Y40.932
X15.672Y15.57
X15.686Y6.802
X15.861Y36.662
X16.107Y5.762
X16.369Y22.772
X16.932Y6.993
X17.06Y9.584
X17.526Y20.587
X17.909Y31.387
X17.955Y44.101
X17.968Y11.811
X17.992Y10.965
X18.196Y17.587
X18.253Y24.265
X18.367Y41.14
X18.403Y4.215
X18.587Y15.217
X18.784Y30.02
X19.085Y37.665
X19.432Y3.607
X19.526Y4.838
X19.801Y16.001
X20.056Y44.032
X20.32Y34.893
X20.679Y33.153
X20.741Y6.193
X20.843Y25.134
X20.855Y26.532
X21.063Y4.87
X21.079Y38.634
X21.226Y21.133
X21.597Y13.042
X21.605Y11.546
X21.681Y7.309
X21.792Y8.587
X22.148Y9.679
X22.438Y32.373
X22.457Y34.46
X22.465Y29.561
X22.647Y11.037
X22.836Y4.739
X23.285Y23.572
X23.548Y17.42
X23.638Y9.141
X23.697Y10.707
X23.706Y12.152
X23.798Y29.487
X24.175Y42.831
X24.295Y1.86
X24.453Y27.413
X24.751Y21.349
X24.751Y16.004
X25.274Y33.13
X25.451Y27.161
X25.455Y4.552
X25.897Y43.406
X26.657Y6.865
X26.706Y3.35
X26.727Y15.178
X26.913Y41.257
X26.963Y2.395
X27.322Y11.742
X27.331Y13.008
X27.567Y6.277
X27.737Y32.415
X27.764Y43.802
X27.771Y42.999
X28.06Y23.927
X28.145Y9.837
X28.151Y8.537
X28.688Y15.75
X29.959Y18.785
X30.149Y21.717
X30.238Y13.805
X30.284Y2.804
X30.368Y36.563
X30.372Y0.512
X30.39Y37.771
X30.43Y23.214
X30.497Y9.236
X30.546Y40.116
X30.601Y11.474
X30.82Y7.498
X31.192Y3.042
X31.452Y35.465
X31.802Y20.78
X31.966Y41.846
X32.228Y32.326
X32.684Y37.257
X32.692Y15.928
X32.718Y16.994
X33.21Y47.268
X33.258Y21.839
X33.285Y23.21
X33.492Y43.942
X33.598Y15.01
X33.812Y17.24
X33.863Y15.771
X34.71Y5.781
X34.979Y35.721
X35.031Y37.32
X35.346Y24.187
X35.706Y37.706
X35.843Y43.54
X36.218Y9.898
X36.226Y9.072
X36.71Y18.949
X36.785Y13.13
X37.692Y31.697
X37.847Y36.346
X37.913Y5.8
X37.982Y42.427
X38.164Y24.068
X38.235Y16.05
X39.064Y39.971
X39.104Y7.222
X39.124Y38.445
X39.467Y18.701
X39.593Y16.949
X40.137Y13.229
X40.579Y44.124
X40.884Y40.99
X41.973Y15.258
X41.981Y18.581
X41.994Y17.677
X42.215Y34.783
X42.38Y42.431
X42.899Y14.723
X43.341Y44.724
X43.345Y42.888
X43.571Y39.141
X43.977Y29.028
X44.27Y37.359
X44.484Y3.693
X44.592Y38.073
X44.612Y36.348
X45.509Y14.208
X45.673Y23.948
X45.796Y18.809
X45.944Y16.729
X46.009Y15.325
X46.17Y42.076
X46.743Y41.111
X46.826Y12.095
X46.946Y39.285
X46.963Y14.826
X47.566Y20.403
X47.566Y42.09
X47.649Y4.051
X47.747Y39.635
X47.783Y5.638
X47.814Y35.667
X48.021Y24.523
X48.299Y23.606
X48.302Y42.776
X48.457Y36.462
X48.707Y14.535
X48.895Y39.879
X49.151Y42.076
X49.286Y43.568
X49.362Y24.89
X49.543Y21.672
X49.756Y23.888
X49.811Y6.435
X49.819Y23.149
X49.84Y3.101
X49.842Y5.026
X49.855Y4.291
X50.105Y25.947
X50.11Y39.418
X50.387Y20.794
X50.448Y26.775
X50.49Y22.203
X50.692Y4.051
X50.805Y17.757
X50.925Y14.603
X51.314Y38.688
X51.621Y32.687
X51.752Y41.542
X51.92Y15.094
X52.638Y3.056
X53.214Y37.336
X53.778Y34.693
X55.091Y40.543
X56.205Y36.076
X56.504Y43.91
X56.811Y36.89
X56.961Y34.262
X57.683Y33.319
X57.81Y34.876
X58.538Y34.195
X58.661Y10.065
X58.719Y42.602
X59.654Y33.565
X59.808Y41.409
X59.817Y38.989
X61.138Y44.742
X61.968Y6.857
X62.194Y2.915
X62.239Y8.707
X63.462Y44.691
X63.907Y32.254
X65.219Y5.601
X65.583Y23.863
X65.624Y39.069
X65.791Y35.371
X65.791Y34.395
X65.793Y32.277
X66.153Y33.563
X67.094Y32.798
X67.248Y6.219
X67.676Y34.978
X68.055Y9.973
X68.084Y33.435
X68.108Y7.403
X68.186Y3.385
X68.593Y8.941
X68.656Y39.075
X69.319Y36.349
X70.037Y5.76
X70.485Y33.341
X70.891Y4.551
X71.032Y34.748
X72.956Y33.586
X73.956Y36.759
X74.465Y34.612
X76.474Y8.883
X76.606Y9.881
T2
X70.663Y24.625
X70.726Y21.844
X74.028Y8.814
T3
X2.469Y29.935
X2.469Y14.235
X7.369Y29.335
X7.369Y14.835
T4
X77.267Y37.325
X77.267Y26.594
X77.267Y15.862
X82.347Y37.325
X82.347Y26.594
X82.347Y15.862
T5
X4.0Y44.0
X80.0Y44.0
X80.0Y4.0
T6
X4.0Y4.0
T0
M30
