G04 #@! TF.GenerationSoftware,KiCad,Pcbnew,(5.1.9-0-10_14)*
G04 #@! TF.CreationDate,2021-07-02T21:32:49-05:00*
G04 #@! TF.ProjectId,bath_clamp_v1,62617468-5f63-46c6-916d-705f76312e6b,rev?*
G04 #@! TF.SameCoordinates,Original*
G04 #@! TF.FileFunction,Legend,Bot*
G04 #@! TF.FilePolarity,Positive*
%FSLAX46Y46*%
G04 Gerber Fmt 4.6, Leading zero omitted, Abs format (unit mm)*
G04 Created by KiCad (PCBNEW (5.1.9-0-10_14)) date 2021-07-02 21:32:49*
%MOMM*%
%LPD*%
G01*
G04 APERTURE LIST*
%ADD10C,0.120000*%
%ADD11C,0.150000*%
%ADD12C,2.153200*%
%ADD13C,2.082800*%
%ADD14R,1.100000X1.100000*%
%ADD15C,5.600000*%
%ADD16C,5.599999*%
%ADD17R,0.400000X0.650000*%
%ADD18R,1.750000X0.450000*%
G04 APERTURE END LIST*
D10*
X63891700Y43244380D02*
X63891700Y42963220D01*
X64911700Y43244380D02*
X64911700Y42963220D01*
X19877300Y39628042D02*
X19877300Y40102558D01*
X18832300Y39628042D02*
X18832300Y40102558D01*
X18326152Y43975700D02*
X16903648Y43975700D01*
X18326152Y42155700D02*
X16903648Y42155700D01*
X11785652Y45182200D02*
X10363148Y45182200D01*
X11785652Y43362200D02*
X10363148Y43362200D01*
X46024800Y14905300D02*
X42424800Y14905300D01*
X46024800Y14905300D02*
X48224800Y14905300D01*
X46024800Y20375300D02*
X43824800Y20375300D01*
X46024800Y20375300D02*
X48224800Y20375300D01*
X34736300Y22229042D02*
X34736300Y22703558D01*
X33691300Y22229042D02*
X33691300Y22703558D01*
X51246300Y24134042D02*
X51246300Y24608558D01*
X50201300Y24134042D02*
X50201300Y24608558D01*
X21814558Y20766300D02*
X21340042Y20766300D01*
X21814558Y19721300D02*
X21340042Y19721300D01*
X25213542Y25690300D02*
X25688058Y25690300D01*
X25213542Y26735300D02*
X25688058Y26735300D01*
X16704542Y28801800D02*
X17179058Y28801800D01*
X16704542Y29846800D02*
X17179058Y29846800D01*
X71916058Y8129800D02*
X71441542Y8129800D01*
X71916058Y7084800D02*
X71441542Y7084800D01*
X51501800Y38509300D02*
X53501800Y38509300D01*
X53501800Y38509300D02*
X53501800Y34659300D01*
X51501800Y38509300D02*
X51501800Y34659300D01*
X62169800Y23015300D02*
X64169800Y23015300D01*
X64169800Y23015300D02*
X64169800Y19165300D01*
X62169800Y23015300D02*
X62169800Y19165300D01*
X72357800Y12036300D02*
X72357800Y10036300D01*
X72357800Y10036300D02*
X68507800Y10036300D01*
X72357800Y12036300D02*
X68507800Y12036300D01*
X6925542Y9907800D02*
X7400058Y9907800D01*
X6925542Y8862800D02*
X7400058Y8862800D01*
X25594542Y43308800D02*
X26069058Y43308800D01*
X25594542Y42263800D02*
X26069058Y42263800D01*
X20133542Y29846800D02*
X20608058Y29846800D01*
X20133542Y28801800D02*
X20608058Y28801800D01*
X25213542Y29656300D02*
X25688058Y29656300D01*
X25213542Y28611300D02*
X25688058Y28611300D01*
X39691542Y8100800D02*
X40166058Y8100800D01*
X39691542Y9145800D02*
X40166058Y9145800D01*
X68868058Y4827800D02*
X68393542Y4827800D01*
X68868058Y3782800D02*
X68393542Y3782800D01*
X22165542Y5433800D02*
X22640058Y5433800D01*
X22165542Y6478800D02*
X22640058Y6478800D01*
X52135300Y17784042D02*
X52135300Y18258558D01*
X51090300Y17784042D02*
X51090300Y18258558D01*
X26069058Y6478800D02*
X25594542Y6478800D01*
X26069058Y5433800D02*
X25594542Y5433800D01*
X39634042Y13883300D02*
X40108558Y13883300D01*
X39634042Y14928300D02*
X40108558Y14928300D01*
X10321058Y37466800D02*
X9846542Y37466800D01*
X10321058Y36421800D02*
X9846542Y36421800D01*
X10098300Y40898042D02*
X10098300Y41372558D01*
X9053300Y40898042D02*
X9053300Y41372558D01*
X69917800Y7926300D02*
X69917800Y6526300D01*
X67597800Y6526300D02*
X67597800Y8426300D01*
X10339800Y31215720D02*
X10339800Y31496880D01*
X9319800Y31215720D02*
X9319800Y31496880D01*
X25591380Y22845300D02*
X25310220Y22845300D01*
X25591380Y23865300D02*
X25310220Y23865300D01*
X22021800Y14025300D02*
X24221800Y14025300D01*
X22021800Y14025300D02*
X19821800Y14025300D01*
X22021800Y8555300D02*
X24221800Y8555300D01*
X22021800Y8555300D02*
X18421800Y8555300D01*
X4383300Y35911558D02*
X4383300Y35437042D01*
X3338300Y35911558D02*
X3338300Y35437042D01*
X39724720Y11034300D02*
X40005880Y11034300D01*
X39724720Y12054300D02*
X40005880Y12054300D01*
X39788220Y5255800D02*
X40069380Y5255800D01*
X39788220Y6275800D02*
X40069380Y6275800D01*
X5114058Y33656800D02*
X4639542Y33656800D01*
X5114058Y32611800D02*
X4639542Y32611800D01*
X6161300Y35437042D02*
X6161300Y35911558D01*
X5116300Y35437042D02*
X5116300Y35911558D01*
X25262300Y19531720D02*
X25262300Y19812880D01*
X24242300Y19531720D02*
X24242300Y19812880D01*
X18463800Y17780880D02*
X18463800Y17499720D01*
X19483800Y17780880D02*
X19483800Y17499720D01*
X32452542Y41276800D02*
X32927058Y41276800D01*
X32452542Y40231800D02*
X32927058Y40231800D01*
X32071542Y35053800D02*
X32546058Y35053800D01*
X32071542Y34008800D02*
X32546058Y34008800D01*
X33767300Y37057720D02*
X33767300Y37338880D01*
X34787300Y37057720D02*
X34787300Y37338880D01*
X30782800Y37057720D02*
X30782800Y37338880D01*
X31802800Y37057720D02*
X31802800Y37338880D01*
X36624800Y37692720D02*
X36624800Y37973880D01*
X37644800Y37692720D02*
X37644800Y37973880D01*
X16293220Y23992300D02*
X16574380Y23992300D01*
X16293220Y22972300D02*
X16574380Y22972300D01*
X21257800Y25627720D02*
X21257800Y25908880D01*
X22277800Y25627720D02*
X22277800Y25908880D01*
X36243800Y24103720D02*
X36243800Y24384880D01*
X37263800Y24103720D02*
X37263800Y24384880D01*
X32247300Y22670380D02*
X32247300Y22389220D01*
X31227300Y22670380D02*
X31227300Y22389220D01*
X12764380Y21829300D02*
X12483220Y21829300D01*
X12764380Y22849300D02*
X12483220Y22849300D01*
D11*
X56103800Y28174300D02*
X56103800Y28399300D01*
X61853800Y28174300D02*
X61853800Y28474300D01*
X61853800Y36824300D02*
X61853800Y36524300D01*
X56103800Y36824300D02*
X56103800Y36524300D01*
X56103800Y28174300D02*
X61853800Y28174300D01*
X56103800Y36824300D02*
X61853800Y36824300D01*
X56103800Y28399300D02*
X54503800Y28399300D01*
X57500800Y2901300D02*
X57500800Y3126300D01*
X63250800Y2901300D02*
X63250800Y3201300D01*
X63250800Y11551300D02*
X63250800Y11251300D01*
X57500800Y11551300D02*
X57500800Y11251300D01*
X57500800Y2901300D02*
X63250800Y2901300D01*
X57500800Y11551300D02*
X63250800Y11551300D01*
X57500800Y3126300D02*
X55900800Y3126300D01*
D10*
X58978800Y43822300D02*
X60928800Y43822300D01*
X58978800Y43822300D02*
X57028800Y43822300D01*
X58978800Y38702300D02*
X60928800Y38702300D01*
X58978800Y38702300D02*
X55528800Y38702300D01*
X16671058Y25655800D02*
X16196542Y25655800D01*
X16671058Y24610800D02*
X16196542Y24610800D01*
X13752300Y34895558D02*
X13752300Y34421042D01*
X14797300Y34895558D02*
X14797300Y34421042D01*
X13752300Y31720558D02*
X13752300Y31246042D01*
X14797300Y31720558D02*
X14797300Y31246042D01*
X20991300Y36737058D02*
X20991300Y36262542D01*
X22036300Y36737058D02*
X22036300Y36262542D01*
X20991300Y33435058D02*
X20991300Y32960542D01*
X22036300Y33435058D02*
X22036300Y32960542D01*
X72781900Y37105358D02*
X72781900Y36630842D01*
X73826900Y37105358D02*
X73826900Y36630842D01*
X69759300Y37118058D02*
X69759300Y36643542D01*
X70804300Y37118058D02*
X70804300Y36643542D01*
X66774800Y37118058D02*
X66774800Y36643542D01*
X67819800Y37118058D02*
X67819800Y36643542D01*
X24929220Y2271300D02*
X25210380Y2271300D01*
X24929220Y3291300D02*
X25210380Y3291300D01*
X28766380Y3291300D02*
X28485220Y3291300D01*
X28766380Y2271300D02*
X28485220Y2271300D01*
X16050800Y40259880D02*
X16050800Y39978720D01*
X17070800Y40259880D02*
X17070800Y39978720D01*
X13129800Y40259880D02*
X13129800Y39978720D01*
X14149800Y40259880D02*
X14149800Y39978720D01*
X41304800Y37987552D02*
X41304800Y36565048D01*
X43124800Y37987552D02*
X43124800Y36565048D01*
X41304800Y43116552D02*
X41304800Y41694048D01*
X43124800Y43116552D02*
X43124800Y41694048D01*
X45006800Y37465880D02*
X45006800Y37184720D01*
X46026800Y37465880D02*
X46026800Y37184720D01*
X48058800Y37184720D02*
X48058800Y37465880D01*
X47038800Y37184720D02*
X47038800Y37465880D01*
X28131380Y19547300D02*
X27850220Y19547300D01*
X28131380Y18527300D02*
X27850220Y18527300D01*
X28131380Y21198300D02*
X27850220Y21198300D01*
X28131380Y20178300D02*
X27850220Y20178300D01*
X9319800Y34671880D02*
X9319800Y34390720D01*
X10339800Y34671880D02*
X10339800Y34390720D01*
X51102800Y5207880D02*
X51102800Y4926720D01*
X52122800Y5207880D02*
X52122800Y4926720D01*
X48181800Y5207880D02*
X48181800Y4926720D01*
X49201800Y5207880D02*
X49201800Y4926720D01*
X17896300Y36359220D02*
X17896300Y36640380D01*
X16876300Y36359220D02*
X16876300Y36640380D01*
X16876300Y33338380D02*
X16876300Y33057220D01*
X17896300Y33338380D02*
X17896300Y33057220D01*
D11*
X63328842Y43746657D02*
X63376461Y43794276D01*
X63424080Y43937133D01*
X63424080Y44032371D01*
X63376461Y44175228D01*
X63281223Y44270466D01*
X63185985Y44318085D01*
X62995509Y44365704D01*
X62852652Y44365704D01*
X62662176Y44318085D01*
X62566938Y44270466D01*
X62471700Y44175228D01*
X62424080Y44032371D01*
X62424080Y43937133D01*
X62471700Y43794276D01*
X62519319Y43746657D01*
X62757414Y42889514D02*
X63424080Y42889514D01*
X62376461Y43127609D02*
X63090747Y43365704D01*
X63090747Y42746657D01*
X62424080Y42460942D02*
X62424080Y41794276D01*
X63424080Y42222847D01*
X21237180Y40508157D02*
X20760990Y40841490D01*
X21237180Y41079585D02*
X20237180Y41079585D01*
X20237180Y40698633D01*
X20284800Y40603395D01*
X20332419Y40555776D01*
X20427657Y40508157D01*
X20570514Y40508157D01*
X20665752Y40555776D01*
X20713371Y40603395D01*
X20760990Y40698633D01*
X20760990Y41079585D01*
X20237180Y39651014D02*
X20237180Y39841490D01*
X20284800Y39936728D01*
X20332419Y39984347D01*
X20475276Y40079585D01*
X20665752Y40127204D01*
X21046704Y40127204D01*
X21141942Y40079585D01*
X21189561Y40031966D01*
X21237180Y39936728D01*
X21237180Y39746252D01*
X21189561Y39651014D01*
X21141942Y39603395D01*
X21046704Y39555776D01*
X20808609Y39555776D01*
X20713371Y39603395D01*
X20665752Y39651014D01*
X20618133Y39746252D01*
X20618133Y39936728D01*
X20665752Y40031966D01*
X20713371Y40079585D01*
X20808609Y40127204D01*
X20237180Y38651014D02*
X20237180Y39127204D01*
X20713371Y39174823D01*
X20665752Y39127204D01*
X20618133Y39031966D01*
X20618133Y38793871D01*
X20665752Y38698633D01*
X20713371Y38651014D01*
X20808609Y38603395D01*
X21046704Y38603395D01*
X21141942Y38651014D01*
X21189561Y38698633D01*
X21237180Y38793871D01*
X21237180Y39031966D01*
X21189561Y39127204D01*
X21141942Y39174823D01*
X18257757Y44558557D02*
X18305376Y44510938D01*
X18448233Y44463319D01*
X18543471Y44463319D01*
X18686328Y44510938D01*
X18781566Y44606176D01*
X18829185Y44701414D01*
X18876804Y44891890D01*
X18876804Y45034747D01*
X18829185Y45225223D01*
X18781566Y45320461D01*
X18686328Y45415700D01*
X18543471Y45463319D01*
X18448233Y45463319D01*
X18305376Y45415700D01*
X18257757Y45368080D01*
X17400614Y45129985D02*
X17400614Y44463319D01*
X17638709Y45510938D02*
X17876804Y44796652D01*
X17257757Y44796652D01*
X16448233Y45463319D02*
X16638709Y45463319D01*
X16733947Y45415700D01*
X16781566Y45368080D01*
X16876804Y45225223D01*
X16924423Y45034747D01*
X16924423Y44653795D01*
X16876804Y44558557D01*
X16829185Y44510938D01*
X16733947Y44463319D01*
X16543471Y44463319D01*
X16448233Y44510938D01*
X16400614Y44558557D01*
X16352995Y44653795D01*
X16352995Y44891890D01*
X16400614Y44987128D01*
X16448233Y45034747D01*
X16543471Y45082366D01*
X16733947Y45082366D01*
X16829185Y45034747D01*
X16876804Y44987128D01*
X16924423Y44891890D01*
X11717257Y45765057D02*
X11764876Y45717438D01*
X11907733Y45669819D01*
X12002971Y45669819D01*
X12145828Y45717438D01*
X12241066Y45812676D01*
X12288685Y45907914D01*
X12336304Y46098390D01*
X12336304Y46241247D01*
X12288685Y46431723D01*
X12241066Y46526961D01*
X12145828Y46622200D01*
X12002971Y46669819D01*
X11907733Y46669819D01*
X11764876Y46622200D01*
X11717257Y46574580D01*
X10860114Y46336485D02*
X10860114Y45669819D01*
X11098209Y46717438D02*
X11336304Y46003152D01*
X10717257Y46003152D01*
X9860114Y46669819D02*
X10336304Y46669819D01*
X10383923Y46193628D01*
X10336304Y46241247D01*
X10241066Y46288866D01*
X10002971Y46288866D01*
X9907733Y46241247D01*
X9860114Y46193628D01*
X9812495Y46098390D01*
X9812495Y45860295D01*
X9860114Y45765057D01*
X9907733Y45717438D01*
X10002971Y45669819D01*
X10241066Y45669819D01*
X10336304Y45717438D01*
X10383923Y45765057D01*
X47262895Y14737919D02*
X47262895Y13928395D01*
X47215276Y13833157D01*
X47167657Y13785538D01*
X47072419Y13737919D01*
X46881942Y13737919D01*
X46786704Y13785538D01*
X46739085Y13833157D01*
X46691466Y13928395D01*
X46691466Y14737919D01*
X45691466Y13737919D02*
X46262895Y13737919D01*
X45977180Y13737919D02*
X45977180Y14737919D01*
X46072419Y14595061D01*
X46167657Y14499823D01*
X46262895Y14452204D01*
X44834323Y14404585D02*
X44834323Y13737919D01*
X45072419Y14785538D02*
X45310514Y14071252D01*
X44691466Y14071252D01*
X36096180Y23109157D02*
X35619990Y23442490D01*
X36096180Y23680585D02*
X35096180Y23680585D01*
X35096180Y23299633D01*
X35143800Y23204395D01*
X35191419Y23156776D01*
X35286657Y23109157D01*
X35429514Y23109157D01*
X35524752Y23156776D01*
X35572371Y23204395D01*
X35619990Y23299633D01*
X35619990Y23680585D01*
X35191419Y22728204D02*
X35143800Y22680585D01*
X35096180Y22585347D01*
X35096180Y22347252D01*
X35143800Y22252014D01*
X35191419Y22204395D01*
X35286657Y22156776D01*
X35381895Y22156776D01*
X35524752Y22204395D01*
X36096180Y22775823D01*
X36096180Y22156776D01*
X35096180Y21299633D02*
X35096180Y21490109D01*
X35143800Y21585347D01*
X35191419Y21632966D01*
X35334276Y21728204D01*
X35524752Y21775823D01*
X35905704Y21775823D01*
X36000942Y21728204D01*
X36048561Y21680585D01*
X36096180Y21585347D01*
X36096180Y21394871D01*
X36048561Y21299633D01*
X36000942Y21252014D01*
X35905704Y21204395D01*
X35667609Y21204395D01*
X35572371Y21252014D01*
X35524752Y21299633D01*
X35477133Y21394871D01*
X35477133Y21585347D01*
X35524752Y21680585D01*
X35572371Y21728204D01*
X35667609Y21775823D01*
X49906180Y25014157D02*
X49429990Y25347490D01*
X49906180Y25585585D02*
X48906180Y25585585D01*
X48906180Y25204633D01*
X48953800Y25109395D01*
X49001419Y25061776D01*
X49096657Y25014157D01*
X49239514Y25014157D01*
X49334752Y25061776D01*
X49382371Y25109395D01*
X49429990Y25204633D01*
X49429990Y25585585D01*
X49001419Y24633204D02*
X48953800Y24585585D01*
X48906180Y24490347D01*
X48906180Y24252252D01*
X48953800Y24157014D01*
X49001419Y24109395D01*
X49096657Y24061776D01*
X49191895Y24061776D01*
X49334752Y24109395D01*
X49906180Y24680823D01*
X49906180Y24061776D01*
X49001419Y23680823D02*
X48953800Y23633204D01*
X48906180Y23537966D01*
X48906180Y23299871D01*
X48953800Y23204633D01*
X49001419Y23157014D01*
X49096657Y23109395D01*
X49191895Y23109395D01*
X49334752Y23157014D01*
X49906180Y23728442D01*
X49906180Y23109395D01*
X22220157Y21221419D02*
X22553490Y21697609D01*
X22791585Y21221419D02*
X22791585Y22221419D01*
X22410633Y22221419D01*
X22315395Y22173800D01*
X22267776Y22126180D01*
X22220157Y22030942D01*
X22220157Y21888085D01*
X22267776Y21792847D01*
X22315395Y21745228D01*
X22410633Y21697609D01*
X22791585Y21697609D01*
X21839204Y22126180D02*
X21791585Y22173800D01*
X21696347Y22221419D01*
X21458252Y22221419D01*
X21363014Y22173800D01*
X21315395Y22126180D01*
X21267776Y22030942D01*
X21267776Y21935704D01*
X21315395Y21792847D01*
X21886823Y21221419D01*
X21267776Y21221419D01*
X20315395Y21221419D02*
X20886823Y21221419D01*
X20601109Y21221419D02*
X20601109Y22221419D01*
X20696347Y22078561D01*
X20791585Y21983323D01*
X20886823Y21935704D01*
X26093657Y24330419D02*
X26426990Y24806609D01*
X26665085Y24330419D02*
X26665085Y25330419D01*
X26284133Y25330419D01*
X26188895Y25282800D01*
X26141276Y25235180D01*
X26093657Y25139942D01*
X26093657Y24997085D01*
X26141276Y24901847D01*
X26188895Y24854228D01*
X26284133Y24806609D01*
X26665085Y24806609D01*
X25141276Y24330419D02*
X25712704Y24330419D01*
X25426990Y24330419D02*
X25426990Y25330419D01*
X25522228Y25187561D01*
X25617466Y25092323D01*
X25712704Y25044704D01*
X24665085Y24330419D02*
X24474609Y24330419D01*
X24379371Y24378038D01*
X24331752Y24425657D01*
X24236514Y24568514D01*
X24188895Y24758990D01*
X24188895Y25139942D01*
X24236514Y25235180D01*
X24284133Y25282800D01*
X24379371Y25330419D01*
X24569847Y25330419D01*
X24665085Y25282800D01*
X24712704Y25235180D01*
X24760323Y25139942D01*
X24760323Y24901847D01*
X24712704Y24806609D01*
X24665085Y24758990D01*
X24569847Y24711371D01*
X24379371Y24711371D01*
X24284133Y24758990D01*
X24236514Y24806609D01*
X24188895Y24901847D01*
X17584657Y27441919D02*
X17917990Y27918109D01*
X18156085Y27441919D02*
X18156085Y28441919D01*
X17775133Y28441919D01*
X17679895Y28394300D01*
X17632276Y28346680D01*
X17584657Y28251442D01*
X17584657Y28108585D01*
X17632276Y28013347D01*
X17679895Y27965728D01*
X17775133Y27918109D01*
X18156085Y27918109D01*
X16632276Y27441919D02*
X17203704Y27441919D01*
X16917990Y27441919D02*
X16917990Y28441919D01*
X17013228Y28299061D01*
X17108466Y28203823D01*
X17203704Y28156204D01*
X16060847Y28013347D02*
X16156085Y28060966D01*
X16203704Y28108585D01*
X16251323Y28203823D01*
X16251323Y28251442D01*
X16203704Y28346680D01*
X16156085Y28394300D01*
X16060847Y28441919D01*
X15870371Y28441919D01*
X15775133Y28394300D01*
X15727514Y28346680D01*
X15679895Y28251442D01*
X15679895Y28203823D01*
X15727514Y28108585D01*
X15775133Y28060966D01*
X15870371Y28013347D01*
X16060847Y28013347D01*
X16156085Y27965728D01*
X16203704Y27918109D01*
X16251323Y27822871D01*
X16251323Y27632395D01*
X16203704Y27537157D01*
X16156085Y27489538D01*
X16060847Y27441919D01*
X15870371Y27441919D01*
X15775133Y27489538D01*
X15727514Y27537157D01*
X15679895Y27632395D01*
X15679895Y27822871D01*
X15727514Y27918109D01*
X15775133Y27965728D01*
X15870371Y28013347D01*
X72321657Y8584919D02*
X72654990Y9061109D01*
X72893085Y8584919D02*
X72893085Y9584919D01*
X72512133Y9584919D01*
X72416895Y9537300D01*
X72369276Y9489680D01*
X72321657Y9394442D01*
X72321657Y9251585D01*
X72369276Y9156347D01*
X72416895Y9108728D01*
X72512133Y9061109D01*
X72893085Y9061109D01*
X71369276Y8584919D02*
X71940704Y8584919D01*
X71654990Y8584919D02*
X71654990Y9584919D01*
X71750228Y9442061D01*
X71845466Y9346823D01*
X71940704Y9299204D01*
X70988323Y9489680D02*
X70940704Y9537300D01*
X70845466Y9584919D01*
X70607371Y9584919D01*
X70512133Y9537300D01*
X70464514Y9489680D01*
X70416895Y9394442D01*
X70416895Y9299204D01*
X70464514Y9156347D01*
X71035942Y8584919D01*
X70416895Y8584919D01*
X51049180Y37174395D02*
X50049180Y37174395D01*
X50049180Y36936300D01*
X50096800Y36793442D01*
X50192038Y36698204D01*
X50287276Y36650585D01*
X50477752Y36602966D01*
X50620609Y36602966D01*
X50811085Y36650585D01*
X50906323Y36698204D01*
X51001561Y36793442D01*
X51049180Y36936300D01*
X51049180Y37174395D01*
X50049180Y35698204D02*
X50049180Y36174395D01*
X50525371Y36222014D01*
X50477752Y36174395D01*
X50430133Y36079157D01*
X50430133Y35841061D01*
X50477752Y35745823D01*
X50525371Y35698204D01*
X50620609Y35650585D01*
X50858704Y35650585D01*
X50953942Y35698204D01*
X51001561Y35745823D01*
X51049180Y35841061D01*
X51049180Y36079157D01*
X51001561Y36174395D01*
X50953942Y36222014D01*
X61717180Y21680395D02*
X60717180Y21680395D01*
X60717180Y21442300D01*
X60764800Y21299442D01*
X60860038Y21204204D01*
X60955276Y21156585D01*
X61145752Y21108966D01*
X61288609Y21108966D01*
X61479085Y21156585D01*
X61574323Y21204204D01*
X61669561Y21299442D01*
X61717180Y21442300D01*
X61717180Y21680395D01*
X60717180Y20775633D02*
X60717180Y20156585D01*
X61098133Y20489919D01*
X61098133Y20347061D01*
X61145752Y20251823D01*
X61193371Y20204204D01*
X61288609Y20156585D01*
X61526704Y20156585D01*
X61621942Y20204204D01*
X61669561Y20251823D01*
X61717180Y20347061D01*
X61717180Y20632776D01*
X61669561Y20728014D01*
X61621942Y20775633D01*
X71022895Y12488919D02*
X71022895Y13488919D01*
X70784800Y13488919D01*
X70641942Y13441300D01*
X70546704Y13346061D01*
X70499085Y13250823D01*
X70451466Y13060347D01*
X70451466Y12917490D01*
X70499085Y12727014D01*
X70546704Y12631776D01*
X70641942Y12536538D01*
X70784800Y12488919D01*
X71022895Y12488919D01*
X69499085Y12488919D02*
X70070514Y12488919D01*
X69784800Y12488919D02*
X69784800Y13488919D01*
X69880038Y13346061D01*
X69975276Y13250823D01*
X70070514Y13203204D01*
X7805657Y7502919D02*
X8138990Y7979109D01*
X8377085Y7502919D02*
X8377085Y8502919D01*
X7996133Y8502919D01*
X7900895Y8455300D01*
X7853276Y8407680D01*
X7805657Y8312442D01*
X7805657Y8169585D01*
X7853276Y8074347D01*
X7900895Y8026728D01*
X7996133Y7979109D01*
X8377085Y7979109D01*
X7472323Y8502919D02*
X6805657Y8502919D01*
X7234228Y7502919D01*
X5900895Y7502919D02*
X6472323Y7502919D01*
X6186609Y7502919D02*
X6186609Y8502919D01*
X6281847Y8360061D01*
X6377085Y8264823D01*
X6472323Y8217204D01*
X26474657Y40903919D02*
X26807990Y41380109D01*
X27046085Y40903919D02*
X27046085Y41903919D01*
X26665133Y41903919D01*
X26569895Y41856300D01*
X26522276Y41808680D01*
X26474657Y41713442D01*
X26474657Y41570585D01*
X26522276Y41475347D01*
X26569895Y41427728D01*
X26665133Y41380109D01*
X27046085Y41380109D01*
X25569895Y41903919D02*
X26046085Y41903919D01*
X26093704Y41427728D01*
X26046085Y41475347D01*
X25950847Y41522966D01*
X25712752Y41522966D01*
X25617514Y41475347D01*
X25569895Y41427728D01*
X25522276Y41332490D01*
X25522276Y41094395D01*
X25569895Y40999157D01*
X25617514Y40951538D01*
X25712752Y40903919D01*
X25950847Y40903919D01*
X26046085Y40951538D01*
X26093704Y40999157D01*
X24665133Y41903919D02*
X24855609Y41903919D01*
X24950847Y41856300D01*
X24998466Y41808680D01*
X25093704Y41665823D01*
X25141323Y41475347D01*
X25141323Y41094395D01*
X25093704Y40999157D01*
X25046085Y40951538D01*
X24950847Y40903919D01*
X24760371Y40903919D01*
X24665133Y40951538D01*
X24617514Y40999157D01*
X24569895Y41094395D01*
X24569895Y41332490D01*
X24617514Y41427728D01*
X24665133Y41475347D01*
X24760371Y41522966D01*
X24950847Y41522966D01*
X25046085Y41475347D01*
X25093704Y41427728D01*
X25141323Y41332490D01*
X21013657Y27441919D02*
X21346990Y27918109D01*
X21585085Y27441919D02*
X21585085Y28441919D01*
X21204133Y28441919D01*
X21108895Y28394300D01*
X21061276Y28346680D01*
X21013657Y28251442D01*
X21013657Y28108585D01*
X21061276Y28013347D01*
X21108895Y27965728D01*
X21204133Y27918109D01*
X21585085Y27918109D01*
X20632704Y28346680D02*
X20585085Y28394300D01*
X20489847Y28441919D01*
X20251752Y28441919D01*
X20156514Y28394300D01*
X20108895Y28346680D01*
X20061276Y28251442D01*
X20061276Y28156204D01*
X20108895Y28013347D01*
X20680323Y27441919D01*
X20061276Y27441919D01*
X19442228Y28441919D02*
X19346990Y28441919D01*
X19251752Y28394300D01*
X19204133Y28346680D01*
X19156514Y28251442D01*
X19108895Y28060966D01*
X19108895Y27822871D01*
X19156514Y27632395D01*
X19204133Y27537157D01*
X19251752Y27489538D01*
X19346990Y27441919D01*
X19442228Y27441919D01*
X19537466Y27489538D01*
X19585085Y27537157D01*
X19632704Y27632395D01*
X19680323Y27822871D01*
X19680323Y28060966D01*
X19632704Y28251442D01*
X19585085Y28346680D01*
X19537466Y28394300D01*
X19442228Y28441919D01*
X25617466Y27251419D02*
X25950800Y27727609D01*
X26188895Y27251419D02*
X26188895Y28251419D01*
X25807942Y28251419D01*
X25712704Y28203800D01*
X25665085Y28156180D01*
X25617466Y28060942D01*
X25617466Y27918085D01*
X25665085Y27822847D01*
X25712704Y27775228D01*
X25807942Y27727609D01*
X26188895Y27727609D01*
X24665085Y27251419D02*
X25236514Y27251419D01*
X24950800Y27251419D02*
X24950800Y28251419D01*
X25046038Y28108561D01*
X25141276Y28013323D01*
X25236514Y27965704D01*
X40571657Y6740919D02*
X40904990Y7217109D01*
X41143085Y6740919D02*
X41143085Y7740919D01*
X40762133Y7740919D01*
X40666895Y7693300D01*
X40619276Y7645680D01*
X40571657Y7550442D01*
X40571657Y7407585D01*
X40619276Y7312347D01*
X40666895Y7264728D01*
X40762133Y7217109D01*
X41143085Y7217109D01*
X40238323Y7740919D02*
X39619276Y7740919D01*
X39952609Y7359966D01*
X39809752Y7359966D01*
X39714514Y7312347D01*
X39666895Y7264728D01*
X39619276Y7169490D01*
X39619276Y6931395D01*
X39666895Y6836157D01*
X39714514Y6788538D01*
X39809752Y6740919D01*
X40095466Y6740919D01*
X40190704Y6788538D01*
X40238323Y6836157D01*
X39238323Y7645680D02*
X39190704Y7693300D01*
X39095466Y7740919D01*
X38857371Y7740919D01*
X38762133Y7693300D01*
X38714514Y7645680D01*
X38666895Y7550442D01*
X38666895Y7455204D01*
X38714514Y7312347D01*
X39285942Y6740919D01*
X38666895Y6740919D01*
X69273657Y5282919D02*
X69606990Y5759109D01*
X69845085Y5282919D02*
X69845085Y6282919D01*
X69464133Y6282919D01*
X69368895Y6235300D01*
X69321276Y6187680D01*
X69273657Y6092442D01*
X69273657Y5949585D01*
X69321276Y5854347D01*
X69368895Y5806728D01*
X69464133Y5759109D01*
X69845085Y5759109D01*
X68368895Y6282919D02*
X68845085Y6282919D01*
X68892704Y5806728D01*
X68845085Y5854347D01*
X68749847Y5901966D01*
X68511752Y5901966D01*
X68416514Y5854347D01*
X68368895Y5806728D01*
X68321276Y5711490D01*
X68321276Y5473395D01*
X68368895Y5378157D01*
X68416514Y5330538D01*
X68511752Y5282919D01*
X68749847Y5282919D01*
X68845085Y5330538D01*
X68892704Y5378157D01*
X67368895Y5282919D02*
X67940323Y5282919D01*
X67654609Y5282919D02*
X67654609Y6282919D01*
X67749847Y6140061D01*
X67845085Y6044823D01*
X67940323Y5997204D01*
X23045657Y4073919D02*
X23378990Y4550109D01*
X23617085Y4073919D02*
X23617085Y5073919D01*
X23236133Y5073919D01*
X23140895Y5026300D01*
X23093276Y4978680D01*
X23045657Y4883442D01*
X23045657Y4740585D01*
X23093276Y4645347D01*
X23140895Y4597728D01*
X23236133Y4550109D01*
X23617085Y4550109D01*
X22140895Y5073919D02*
X22617085Y5073919D01*
X22664704Y4597728D01*
X22617085Y4645347D01*
X22521847Y4692966D01*
X22283752Y4692966D01*
X22188514Y4645347D01*
X22140895Y4597728D01*
X22093276Y4502490D01*
X22093276Y4264395D01*
X22140895Y4169157D01*
X22188514Y4121538D01*
X22283752Y4073919D01*
X22521847Y4073919D01*
X22617085Y4121538D01*
X22664704Y4169157D01*
X21474228Y5073919D02*
X21378990Y5073919D01*
X21283752Y5026300D01*
X21236133Y4978680D01*
X21188514Y4883442D01*
X21140895Y4692966D01*
X21140895Y4454871D01*
X21188514Y4264395D01*
X21236133Y4169157D01*
X21283752Y4121538D01*
X21378990Y4073919D01*
X21474228Y4073919D01*
X21569466Y4121538D01*
X21617085Y4169157D01*
X21664704Y4264395D01*
X21712323Y4454871D01*
X21712323Y4692966D01*
X21664704Y4883442D01*
X21617085Y4978680D01*
X21569466Y5026300D01*
X21474228Y5073919D01*
X52590419Y17378442D02*
X53066609Y17045109D01*
X52590419Y16807014D02*
X53590419Y16807014D01*
X53590419Y17187966D01*
X53542800Y17283204D01*
X53495180Y17330823D01*
X53399942Y17378442D01*
X53257085Y17378442D01*
X53161847Y17330823D01*
X53114228Y17283204D01*
X53066609Y17187966D01*
X53066609Y16807014D01*
X53257085Y18235585D02*
X52590419Y18235585D01*
X53638038Y17997490D02*
X52923752Y17759395D01*
X52923752Y18378442D01*
X52590419Y18807014D02*
X52590419Y18997490D01*
X52638038Y19092728D01*
X52685657Y19140347D01*
X52828514Y19235585D01*
X53018990Y19283204D01*
X53399942Y19283204D01*
X53495180Y19235585D01*
X53542800Y19187966D01*
X53590419Y19092728D01*
X53590419Y18902252D01*
X53542800Y18807014D01*
X53495180Y18759395D01*
X53399942Y18711776D01*
X53161847Y18711776D01*
X53066609Y18759395D01*
X53018990Y18807014D01*
X52971371Y18902252D01*
X52971371Y19092728D01*
X53018990Y19187966D01*
X53066609Y19235585D01*
X53161847Y19283204D01*
X26474657Y6933919D02*
X26807990Y7410109D01*
X27046085Y6933919D02*
X27046085Y7933919D01*
X26665133Y7933919D01*
X26569895Y7886300D01*
X26522276Y7838680D01*
X26474657Y7743442D01*
X26474657Y7600585D01*
X26522276Y7505347D01*
X26569895Y7457728D01*
X26665133Y7410109D01*
X27046085Y7410109D01*
X25617514Y7600585D02*
X25617514Y6933919D01*
X25855609Y7981538D02*
X26093704Y7267252D01*
X25474657Y7267252D01*
X24950847Y7505347D02*
X25046085Y7552966D01*
X25093704Y7600585D01*
X25141323Y7695823D01*
X25141323Y7743442D01*
X25093704Y7838680D01*
X25046085Y7886300D01*
X24950847Y7933919D01*
X24760371Y7933919D01*
X24665133Y7886300D01*
X24617514Y7838680D01*
X24569895Y7743442D01*
X24569895Y7695823D01*
X24617514Y7600585D01*
X24665133Y7552966D01*
X24760371Y7505347D01*
X24950847Y7505347D01*
X25046085Y7457728D01*
X25093704Y7410109D01*
X25141323Y7314871D01*
X25141323Y7124395D01*
X25093704Y7029157D01*
X25046085Y6981538D01*
X24950847Y6933919D01*
X24760371Y6933919D01*
X24665133Y6981538D01*
X24617514Y7029157D01*
X24569895Y7124395D01*
X24569895Y7314871D01*
X24617514Y7410109D01*
X24665133Y7457728D01*
X24760371Y7505347D01*
X40514157Y12523419D02*
X40847490Y12999609D01*
X41085585Y12523419D02*
X41085585Y13523419D01*
X40704633Y13523419D01*
X40609395Y13475800D01*
X40561776Y13428180D01*
X40514157Y13332942D01*
X40514157Y13190085D01*
X40561776Y13094847D01*
X40609395Y13047228D01*
X40704633Y12999609D01*
X41085585Y12999609D01*
X39657014Y13190085D02*
X39657014Y12523419D01*
X39895109Y13571038D02*
X40133204Y12856752D01*
X39514157Y12856752D01*
X38704633Y13523419D02*
X38895109Y13523419D01*
X38990347Y13475800D01*
X39037966Y13428180D01*
X39133204Y13285323D01*
X39180823Y13094847D01*
X39180823Y12713895D01*
X39133204Y12618657D01*
X39085585Y12571038D01*
X38990347Y12523419D01*
X38799871Y12523419D01*
X38704633Y12571038D01*
X38657014Y12618657D01*
X38609395Y12713895D01*
X38609395Y12951990D01*
X38657014Y13047228D01*
X38704633Y13094847D01*
X38799871Y13142466D01*
X38990347Y13142466D01*
X39085585Y13094847D01*
X39133204Y13047228D01*
X39180823Y12951990D01*
X10726657Y37921919D02*
X11059990Y38398109D01*
X11298085Y37921919D02*
X11298085Y38921919D01*
X10917133Y38921919D01*
X10821895Y38874300D01*
X10774276Y38826680D01*
X10726657Y38731442D01*
X10726657Y38588585D01*
X10774276Y38493347D01*
X10821895Y38445728D01*
X10917133Y38398109D01*
X11298085Y38398109D01*
X9869514Y38588585D02*
X9869514Y37921919D01*
X10107609Y38969538D02*
X10345704Y38255252D01*
X9726657Y38255252D01*
X8869514Y38921919D02*
X9345704Y38921919D01*
X9393323Y38445728D01*
X9345704Y38493347D01*
X9250466Y38540966D01*
X9012371Y38540966D01*
X8917133Y38493347D01*
X8869514Y38445728D01*
X8821895Y38350490D01*
X8821895Y38112395D01*
X8869514Y38017157D01*
X8917133Y37969538D01*
X9012371Y37921919D01*
X9250466Y37921919D01*
X9345704Y37969538D01*
X9393323Y38017157D01*
X11458180Y41778157D02*
X10981990Y42111490D01*
X11458180Y42349585D02*
X10458180Y42349585D01*
X10458180Y41968633D01*
X10505800Y41873395D01*
X10553419Y41825776D01*
X10648657Y41778157D01*
X10791514Y41778157D01*
X10886752Y41825776D01*
X10934371Y41873395D01*
X10981990Y41968633D01*
X10981990Y42349585D01*
X10791514Y40921014D02*
X11458180Y40921014D01*
X10410561Y41159109D02*
X11124847Y41397204D01*
X11124847Y40778157D01*
X10553419Y40444823D02*
X10505800Y40397204D01*
X10458180Y40301966D01*
X10458180Y40063871D01*
X10505800Y39968633D01*
X10553419Y39921014D01*
X10648657Y39873395D01*
X10743895Y39873395D01*
X10886752Y39921014D01*
X11458180Y40492442D01*
X11458180Y39873395D01*
X67305419Y7321538D02*
X67257800Y7416776D01*
X67162561Y7512014D01*
X67019704Y7654871D01*
X66972085Y7750109D01*
X66972085Y7845347D01*
X67210180Y7797728D02*
X67162561Y7892966D01*
X67067323Y7988204D01*
X66876847Y8035823D01*
X66543514Y8035823D01*
X66353038Y7988204D01*
X66257800Y7892966D01*
X66210180Y7797728D01*
X66210180Y7607252D01*
X66257800Y7512014D01*
X66353038Y7416776D01*
X66543514Y7369157D01*
X66876847Y7369157D01*
X67067323Y7416776D01*
X67162561Y7512014D01*
X67210180Y7607252D01*
X67210180Y7797728D01*
X66210180Y7035823D02*
X66210180Y6416776D01*
X66591133Y6750109D01*
X66591133Y6607252D01*
X66638752Y6512014D01*
X66686371Y6464395D01*
X66781609Y6416776D01*
X67019704Y6416776D01*
X67114942Y6464395D01*
X67162561Y6512014D01*
X67210180Y6607252D01*
X67210180Y6892966D01*
X67162561Y6988204D01*
X67114942Y7035823D01*
X8662942Y31522966D02*
X8710561Y31570585D01*
X8758180Y31713442D01*
X8758180Y31808680D01*
X8710561Y31951538D01*
X8615323Y32046776D01*
X8520085Y32094395D01*
X8329609Y32142014D01*
X8186752Y32142014D01*
X7996276Y32094395D01*
X7901038Y32046776D01*
X7805800Y31951538D01*
X7758180Y31808680D01*
X7758180Y31713442D01*
X7805800Y31570585D01*
X7853419Y31522966D01*
X8186752Y30951538D02*
X8139133Y31046776D01*
X8091514Y31094395D01*
X7996276Y31142014D01*
X7948657Y31142014D01*
X7853419Y31094395D01*
X7805800Y31046776D01*
X7758180Y30951538D01*
X7758180Y30761061D01*
X7805800Y30665823D01*
X7853419Y30618204D01*
X7948657Y30570585D01*
X7996276Y30570585D01*
X8091514Y30618204D01*
X8139133Y30665823D01*
X8186752Y30761061D01*
X8186752Y30951538D01*
X8234371Y31046776D01*
X8281990Y31094395D01*
X8377228Y31142014D01*
X8567704Y31142014D01*
X8662942Y31094395D01*
X8710561Y31046776D01*
X8758180Y30951538D01*
X8758180Y30761061D01*
X8710561Y30665823D01*
X8662942Y30618204D01*
X8567704Y30570585D01*
X8377228Y30570585D01*
X8281990Y30618204D01*
X8234371Y30665823D01*
X8186752Y30761061D01*
X26093657Y21537657D02*
X26141276Y21490038D01*
X26284133Y21442419D01*
X26379371Y21442419D01*
X26522228Y21490038D01*
X26617466Y21585276D01*
X26665085Y21680514D01*
X26712704Y21870990D01*
X26712704Y22013847D01*
X26665085Y22204323D01*
X26617466Y22299561D01*
X26522228Y22394800D01*
X26379371Y22442419D01*
X26284133Y22442419D01*
X26141276Y22394800D01*
X26093657Y22347180D01*
X25712704Y22347180D02*
X25665085Y22394800D01*
X25569847Y22442419D01*
X25331752Y22442419D01*
X25236514Y22394800D01*
X25188895Y22347180D01*
X25141276Y22251942D01*
X25141276Y22156704D01*
X25188895Y22013847D01*
X25760323Y21442419D01*
X25141276Y21442419D01*
X24807942Y22442419D02*
X24141276Y22442419D01*
X24569847Y21442419D01*
X23259895Y8387919D02*
X23259895Y7578395D01*
X23212276Y7483157D01*
X23164657Y7435538D01*
X23069419Y7387919D01*
X22878942Y7387919D01*
X22783704Y7435538D01*
X22736085Y7483157D01*
X22688466Y7578395D01*
X22688466Y8387919D01*
X22259895Y8292680D02*
X22212276Y8340300D01*
X22117038Y8387919D01*
X21878942Y8387919D01*
X21783704Y8340300D01*
X21736085Y8292680D01*
X21688466Y8197442D01*
X21688466Y8102204D01*
X21736085Y7959347D01*
X22307514Y7387919D01*
X21688466Y7387919D01*
X20736085Y7387919D02*
X21307514Y7387919D01*
X21021800Y7387919D02*
X21021800Y8387919D01*
X21117038Y8245061D01*
X21212276Y8149823D01*
X21307514Y8102204D01*
X2883180Y36317157D02*
X2406990Y36650490D01*
X2883180Y36888585D02*
X1883180Y36888585D01*
X1883180Y36507633D01*
X1930800Y36412395D01*
X1978419Y36364776D01*
X2073657Y36317157D01*
X2216514Y36317157D01*
X2311752Y36364776D01*
X2359371Y36412395D01*
X2406990Y36507633D01*
X2406990Y36888585D01*
X1883180Y35412395D02*
X1883180Y35888585D01*
X2359371Y35936204D01*
X2311752Y35888585D01*
X2264133Y35793347D01*
X2264133Y35555252D01*
X2311752Y35460014D01*
X2359371Y35412395D01*
X2454609Y35364776D01*
X2692704Y35364776D01*
X2787942Y35412395D01*
X2835561Y35460014D01*
X2883180Y35555252D01*
X2883180Y35793347D01*
X2835561Y35888585D01*
X2787942Y35936204D01*
X2311752Y34793347D02*
X2264133Y34888585D01*
X2216514Y34936204D01*
X2121276Y34983823D01*
X2073657Y34983823D01*
X1978419Y34936204D01*
X1930800Y34888585D01*
X1883180Y34793347D01*
X1883180Y34602871D01*
X1930800Y34507633D01*
X1978419Y34460014D01*
X2073657Y34412395D01*
X2121276Y34412395D01*
X2216514Y34460014D01*
X2264133Y34507633D01*
X2311752Y34602871D01*
X2311752Y34793347D01*
X2359371Y34888585D01*
X2406990Y34936204D01*
X2502228Y34983823D01*
X2692704Y34983823D01*
X2787942Y34936204D01*
X2835561Y34888585D01*
X2883180Y34793347D01*
X2883180Y34602871D01*
X2835561Y34507633D01*
X2787942Y34460014D01*
X2692704Y34412395D01*
X2502228Y34412395D01*
X2406990Y34460014D01*
X2359371Y34507633D01*
X2311752Y34602871D01*
X40508157Y9757157D02*
X40555776Y9709538D01*
X40698633Y9661919D01*
X40793871Y9661919D01*
X40936728Y9709538D01*
X41031966Y9804776D01*
X41079585Y9900014D01*
X41127204Y10090490D01*
X41127204Y10233347D01*
X41079585Y10423823D01*
X41031966Y10519061D01*
X40936728Y10614300D01*
X40793871Y10661919D01*
X40698633Y10661919D01*
X40555776Y10614300D01*
X40508157Y10566680D01*
X40127204Y10566680D02*
X40079585Y10614300D01*
X39984347Y10661919D01*
X39746252Y10661919D01*
X39651014Y10614300D01*
X39603395Y10566680D01*
X39555776Y10471442D01*
X39555776Y10376204D01*
X39603395Y10233347D01*
X40174823Y9661919D01*
X39555776Y9661919D01*
X39222442Y10661919D02*
X38603395Y10661919D01*
X38936728Y10280966D01*
X38793871Y10280966D01*
X38698633Y10233347D01*
X38651014Y10185728D01*
X38603395Y10090490D01*
X38603395Y9852395D01*
X38651014Y9757157D01*
X38698633Y9709538D01*
X38793871Y9661919D01*
X39079585Y9661919D01*
X39174823Y9709538D01*
X39222442Y9757157D01*
X40571657Y3978657D02*
X40619276Y3931038D01*
X40762133Y3883419D01*
X40857371Y3883419D01*
X41000228Y3931038D01*
X41095466Y4026276D01*
X41143085Y4121514D01*
X41190704Y4311990D01*
X41190704Y4454847D01*
X41143085Y4645323D01*
X41095466Y4740561D01*
X41000228Y4835800D01*
X40857371Y4883419D01*
X40762133Y4883419D01*
X40619276Y4835800D01*
X40571657Y4788180D01*
X40190704Y4788180D02*
X40143085Y4835800D01*
X40047847Y4883419D01*
X39809752Y4883419D01*
X39714514Y4835800D01*
X39666895Y4788180D01*
X39619276Y4692942D01*
X39619276Y4597704D01*
X39666895Y4454847D01*
X40238323Y3883419D01*
X39619276Y3883419D01*
X38762133Y4550085D02*
X38762133Y3883419D01*
X39000228Y4931038D02*
X39238323Y4216752D01*
X38619276Y4216752D01*
X5519657Y31284919D02*
X5852990Y31761109D01*
X6091085Y31284919D02*
X6091085Y32284919D01*
X5710133Y32284919D01*
X5614895Y32237300D01*
X5567276Y32189680D01*
X5519657Y32094442D01*
X5519657Y31951585D01*
X5567276Y31856347D01*
X5614895Y31808728D01*
X5710133Y31761109D01*
X6091085Y31761109D01*
X4662514Y31951585D02*
X4662514Y31284919D01*
X4900609Y32332538D02*
X5138704Y31618252D01*
X4519657Y31618252D01*
X3710133Y31951585D02*
X3710133Y31284919D01*
X3948228Y32332538D02*
X4186323Y31618252D01*
X3567276Y31618252D01*
X7521180Y36317157D02*
X7044990Y36650490D01*
X7521180Y36888585D02*
X6521180Y36888585D01*
X6521180Y36507633D01*
X6568800Y36412395D01*
X6616419Y36364776D01*
X6711657Y36317157D01*
X6854514Y36317157D01*
X6949752Y36364776D01*
X6997371Y36412395D01*
X7044990Y36507633D01*
X7044990Y36888585D01*
X6854514Y35460014D02*
X7521180Y35460014D01*
X6473561Y35698109D02*
X7187847Y35936204D01*
X7187847Y35317157D01*
X6521180Y34745728D02*
X6521180Y34650490D01*
X6568800Y34555252D01*
X6616419Y34507633D01*
X6711657Y34460014D01*
X6902133Y34412395D01*
X7140228Y34412395D01*
X7330704Y34460014D01*
X7425942Y34507633D01*
X7473561Y34555252D01*
X7521180Y34650490D01*
X7521180Y34745728D01*
X7473561Y34840966D01*
X7425942Y34888585D01*
X7330704Y34936204D01*
X7140228Y34983823D01*
X6902133Y34983823D01*
X6711657Y34936204D01*
X6616419Y34888585D01*
X6568800Y34840966D01*
X6521180Y34745728D01*
X23839442Y20315157D02*
X23887061Y20362776D01*
X23934680Y20505633D01*
X23934680Y20600871D01*
X23887061Y20743728D01*
X23791823Y20838966D01*
X23696585Y20886585D01*
X23506109Y20934204D01*
X23363252Y20934204D01*
X23172776Y20886585D01*
X23077538Y20838966D01*
X22982300Y20743728D01*
X22934680Y20600871D01*
X22934680Y20505633D01*
X22982300Y20362776D01*
X23029919Y20315157D01*
X22934680Y19981823D02*
X22934680Y19362776D01*
X23315633Y19696109D01*
X23315633Y19553252D01*
X23363252Y19458014D01*
X23410871Y19410395D01*
X23506109Y19362776D01*
X23744204Y19362776D01*
X23839442Y19410395D01*
X23887061Y19458014D01*
X23934680Y19553252D01*
X23934680Y19838966D01*
X23887061Y19934204D01*
X23839442Y19981823D01*
X23363252Y18791347D02*
X23315633Y18886585D01*
X23268014Y18934204D01*
X23172776Y18981823D01*
X23125157Y18981823D01*
X23029919Y18934204D01*
X22982300Y18886585D01*
X22934680Y18791347D01*
X22934680Y18600871D01*
X22982300Y18505633D01*
X23029919Y18458014D01*
X23125157Y18410395D01*
X23172776Y18410395D01*
X23268014Y18458014D01*
X23315633Y18505633D01*
X23363252Y18600871D01*
X23363252Y18791347D01*
X23410871Y18886585D01*
X23458490Y18934204D01*
X23553728Y18981823D01*
X23744204Y18981823D01*
X23839442Y18934204D01*
X23887061Y18886585D01*
X23934680Y18791347D01*
X23934680Y18600871D01*
X23887061Y18505633D01*
X23839442Y18458014D01*
X23744204Y18410395D01*
X23553728Y18410395D01*
X23458490Y18458014D01*
X23410871Y18505633D01*
X23363252Y18600871D01*
X17900942Y18283157D02*
X17948561Y18330776D01*
X17996180Y18473633D01*
X17996180Y18568871D01*
X17948561Y18711728D01*
X17853323Y18806966D01*
X17758085Y18854585D01*
X17567609Y18902204D01*
X17424752Y18902204D01*
X17234276Y18854585D01*
X17139038Y18806966D01*
X17043800Y18711728D01*
X16996180Y18568871D01*
X16996180Y18473633D01*
X17043800Y18330776D01*
X17091419Y18283157D01*
X16996180Y17949823D02*
X16996180Y17330776D01*
X17377133Y17664109D01*
X17377133Y17521252D01*
X17424752Y17426014D01*
X17472371Y17378395D01*
X17567609Y17330776D01*
X17805704Y17330776D01*
X17900942Y17378395D01*
X17948561Y17426014D01*
X17996180Y17521252D01*
X17996180Y17806966D01*
X17948561Y17902204D01*
X17900942Y17949823D01*
X16996180Y16473633D02*
X16996180Y16664109D01*
X17043800Y16759347D01*
X17091419Y16806966D01*
X17234276Y16902204D01*
X17424752Y16949823D01*
X17805704Y16949823D01*
X17900942Y16902204D01*
X17948561Y16854585D01*
X17996180Y16759347D01*
X17996180Y16568871D01*
X17948561Y16473633D01*
X17900942Y16426014D01*
X17805704Y16378395D01*
X17567609Y16378395D01*
X17472371Y16426014D01*
X17424752Y16473633D01*
X17377133Y16568871D01*
X17377133Y16759347D01*
X17424752Y16854585D01*
X17472371Y16902204D01*
X17567609Y16949823D01*
X33332657Y38871919D02*
X33665990Y39348109D01*
X33904085Y38871919D02*
X33904085Y39871919D01*
X33523133Y39871919D01*
X33427895Y39824300D01*
X33380276Y39776680D01*
X33332657Y39681442D01*
X33332657Y39538585D01*
X33380276Y39443347D01*
X33427895Y39395728D01*
X33523133Y39348109D01*
X33904085Y39348109D01*
X32475514Y39871919D02*
X32665990Y39871919D01*
X32761228Y39824300D01*
X32808847Y39776680D01*
X32904085Y39633823D01*
X32951704Y39443347D01*
X32951704Y39062395D01*
X32904085Y38967157D01*
X32856466Y38919538D01*
X32761228Y38871919D01*
X32570752Y38871919D01*
X32475514Y38919538D01*
X32427895Y38967157D01*
X32380276Y39062395D01*
X32380276Y39300490D01*
X32427895Y39395728D01*
X32475514Y39443347D01*
X32570752Y39490966D01*
X32761228Y39490966D01*
X32856466Y39443347D01*
X32904085Y39395728D01*
X32951704Y39300490D01*
X31427895Y38871919D02*
X31999323Y38871919D01*
X31713609Y38871919D02*
X31713609Y39871919D01*
X31808847Y39729061D01*
X31904085Y39633823D01*
X31999323Y39586204D01*
X32951657Y32648919D02*
X33284990Y33125109D01*
X33523085Y32648919D02*
X33523085Y33648919D01*
X33142133Y33648919D01*
X33046895Y33601300D01*
X32999276Y33553680D01*
X32951657Y33458442D01*
X32951657Y33315585D01*
X32999276Y33220347D01*
X33046895Y33172728D01*
X33142133Y33125109D01*
X33523085Y33125109D01*
X32046895Y33648919D02*
X32523085Y33648919D01*
X32570704Y33172728D01*
X32523085Y33220347D01*
X32427847Y33267966D01*
X32189752Y33267966D01*
X32094514Y33220347D01*
X32046895Y33172728D01*
X31999276Y33077490D01*
X31999276Y32839395D01*
X32046895Y32744157D01*
X32094514Y32696538D01*
X32189752Y32648919D01*
X32427847Y32648919D01*
X32523085Y32696538D01*
X32570704Y32744157D01*
X31665942Y33648919D02*
X31046895Y33648919D01*
X31380228Y33267966D01*
X31237371Y33267966D01*
X31142133Y33220347D01*
X31094514Y33172728D01*
X31046895Y33077490D01*
X31046895Y32839395D01*
X31094514Y32744157D01*
X31142133Y32696538D01*
X31237371Y32648919D01*
X31523085Y32648919D01*
X31618323Y32696538D01*
X31665942Y32744157D01*
X36064442Y37841157D02*
X36112061Y37888776D01*
X36159680Y38031633D01*
X36159680Y38126871D01*
X36112061Y38269728D01*
X36016823Y38364966D01*
X35921585Y38412585D01*
X35731109Y38460204D01*
X35588252Y38460204D01*
X35397776Y38412585D01*
X35302538Y38364966D01*
X35207300Y38269728D01*
X35159680Y38126871D01*
X35159680Y38031633D01*
X35207300Y37888776D01*
X35254919Y37841157D01*
X35159680Y37507823D02*
X35159680Y36888776D01*
X35540633Y37222109D01*
X35540633Y37079252D01*
X35588252Y36984014D01*
X35635871Y36936395D01*
X35731109Y36888776D01*
X35969204Y36888776D01*
X36064442Y36936395D01*
X36112061Y36984014D01*
X36159680Y37079252D01*
X36159680Y37364966D01*
X36112061Y37460204D01*
X36064442Y37507823D01*
X35159680Y35984014D02*
X35159680Y36460204D01*
X35635871Y36507823D01*
X35588252Y36460204D01*
X35540633Y36364966D01*
X35540633Y36126871D01*
X35588252Y36031633D01*
X35635871Y35984014D01*
X35731109Y35936395D01*
X35969204Y35936395D01*
X36064442Y35984014D01*
X36112061Y36031633D01*
X36159680Y36126871D01*
X36159680Y36364966D01*
X36112061Y36460204D01*
X36064442Y36507823D01*
X33079942Y37841157D02*
X33127561Y37888776D01*
X33175180Y38031633D01*
X33175180Y38126871D01*
X33127561Y38269728D01*
X33032323Y38364966D01*
X32937085Y38412585D01*
X32746609Y38460204D01*
X32603752Y38460204D01*
X32413276Y38412585D01*
X32318038Y38364966D01*
X32222800Y38269728D01*
X32175180Y38126871D01*
X32175180Y38031633D01*
X32222800Y37888776D01*
X32270419Y37841157D01*
X32175180Y37507823D02*
X32175180Y36888776D01*
X32556133Y37222109D01*
X32556133Y37079252D01*
X32603752Y36984014D01*
X32651371Y36936395D01*
X32746609Y36888776D01*
X32984704Y36888776D01*
X33079942Y36936395D01*
X33127561Y36984014D01*
X33175180Y37079252D01*
X33175180Y37364966D01*
X33127561Y37460204D01*
X33079942Y37507823D01*
X32508514Y36031633D02*
X33175180Y36031633D01*
X32127561Y36269728D02*
X32841847Y36507823D01*
X32841847Y35888776D01*
X39015942Y38476157D02*
X39063561Y38523776D01*
X39111180Y38666633D01*
X39111180Y38761871D01*
X39063561Y38904728D01*
X38968323Y38999966D01*
X38873085Y39047585D01*
X38682609Y39095204D01*
X38539752Y39095204D01*
X38349276Y39047585D01*
X38254038Y38999966D01*
X38158800Y38904728D01*
X38111180Y38761871D01*
X38111180Y38666633D01*
X38158800Y38523776D01*
X38206419Y38476157D01*
X38111180Y38142823D02*
X38111180Y37523776D01*
X38492133Y37857109D01*
X38492133Y37714252D01*
X38539752Y37619014D01*
X38587371Y37571395D01*
X38682609Y37523776D01*
X38920704Y37523776D01*
X39015942Y37571395D01*
X39063561Y37619014D01*
X39111180Y37714252D01*
X39111180Y37999966D01*
X39063561Y38095204D01*
X39015942Y38142823D01*
X38111180Y37190442D02*
X38111180Y36571395D01*
X38492133Y36904728D01*
X38492133Y36761871D01*
X38539752Y36666633D01*
X38587371Y36619014D01*
X38682609Y36571395D01*
X38920704Y36571395D01*
X39015942Y36619014D01*
X39063561Y36666633D01*
X39111180Y36761871D01*
X39111180Y37047585D01*
X39063561Y37142823D01*
X39015942Y37190442D01*
X17076657Y21695157D02*
X17124276Y21647538D01*
X17267133Y21599919D01*
X17362371Y21599919D01*
X17505228Y21647538D01*
X17600466Y21742776D01*
X17648085Y21838014D01*
X17695704Y22028490D01*
X17695704Y22171347D01*
X17648085Y22361823D01*
X17600466Y22457061D01*
X17505228Y22552300D01*
X17362371Y22599919D01*
X17267133Y22599919D01*
X17124276Y22552300D01*
X17076657Y22504680D01*
X16743323Y22599919D02*
X16124276Y22599919D01*
X16457609Y22218966D01*
X16314752Y22218966D01*
X16219514Y22171347D01*
X16171895Y22123728D01*
X16124276Y22028490D01*
X16124276Y21790395D01*
X16171895Y21695157D01*
X16219514Y21647538D01*
X16314752Y21599919D01*
X16600466Y21599919D01*
X16695704Y21647538D01*
X16743323Y21695157D01*
X15743323Y22504680D02*
X15695704Y22552300D01*
X15600466Y22599919D01*
X15362371Y22599919D01*
X15267133Y22552300D01*
X15219514Y22504680D01*
X15171895Y22409442D01*
X15171895Y22314204D01*
X15219514Y22171347D01*
X15790942Y21599919D01*
X15171895Y21599919D01*
X23554942Y26411157D02*
X23602561Y26458776D01*
X23650180Y26601633D01*
X23650180Y26696871D01*
X23602561Y26839728D01*
X23507323Y26934966D01*
X23412085Y26982585D01*
X23221609Y27030204D01*
X23078752Y27030204D01*
X22888276Y26982585D01*
X22793038Y26934966D01*
X22697800Y26839728D01*
X22650180Y26696871D01*
X22650180Y26601633D01*
X22697800Y26458776D01*
X22745419Y26411157D01*
X22650180Y26077823D02*
X22650180Y25458776D01*
X23031133Y25792109D01*
X23031133Y25649252D01*
X23078752Y25554014D01*
X23126371Y25506395D01*
X23221609Y25458776D01*
X23459704Y25458776D01*
X23554942Y25506395D01*
X23602561Y25554014D01*
X23650180Y25649252D01*
X23650180Y25934966D01*
X23602561Y26030204D01*
X23554942Y26077823D01*
X23650180Y24506395D02*
X23650180Y25077823D01*
X23650180Y24792109D02*
X22650180Y24792109D01*
X22793038Y24887347D01*
X22888276Y24982585D01*
X22935895Y25077823D01*
X38540942Y24887157D02*
X38588561Y24934776D01*
X38636180Y25077633D01*
X38636180Y25172871D01*
X38588561Y25315728D01*
X38493323Y25410966D01*
X38398085Y25458585D01*
X38207609Y25506204D01*
X38064752Y25506204D01*
X37874276Y25458585D01*
X37779038Y25410966D01*
X37683800Y25315728D01*
X37636180Y25172871D01*
X37636180Y25077633D01*
X37683800Y24934776D01*
X37731419Y24887157D01*
X37636180Y24553823D02*
X37636180Y23934776D01*
X38017133Y24268109D01*
X38017133Y24125252D01*
X38064752Y24030014D01*
X38112371Y23982395D01*
X38207609Y23934776D01*
X38445704Y23934776D01*
X38540942Y23982395D01*
X38588561Y24030014D01*
X38636180Y24125252D01*
X38636180Y24410966D01*
X38588561Y24506204D01*
X38540942Y24553823D01*
X37636180Y23315728D02*
X37636180Y23220490D01*
X37683800Y23125252D01*
X37731419Y23077633D01*
X37826657Y23030014D01*
X38017133Y22982395D01*
X38255228Y22982395D01*
X38445704Y23030014D01*
X38540942Y23077633D01*
X38588561Y23125252D01*
X38636180Y23220490D01*
X38636180Y23315728D01*
X38588561Y23410966D01*
X38540942Y23458585D01*
X38445704Y23506204D01*
X38255228Y23553823D01*
X38017133Y23553823D01*
X37826657Y23506204D01*
X37731419Y23458585D01*
X37683800Y23410966D01*
X37636180Y23315728D01*
X30664442Y23172657D02*
X30712061Y23220276D01*
X30759680Y23363133D01*
X30759680Y23458371D01*
X30712061Y23601228D01*
X30616823Y23696466D01*
X30521585Y23744085D01*
X30331109Y23791704D01*
X30188252Y23791704D01*
X29997776Y23744085D01*
X29902538Y23696466D01*
X29807300Y23601228D01*
X29759680Y23458371D01*
X29759680Y23363133D01*
X29807300Y23220276D01*
X29854919Y23172657D01*
X29854919Y22791704D02*
X29807300Y22744085D01*
X29759680Y22648847D01*
X29759680Y22410752D01*
X29807300Y22315514D01*
X29854919Y22267895D01*
X29950157Y22220276D01*
X30045395Y22220276D01*
X30188252Y22267895D01*
X30759680Y22839323D01*
X30759680Y22220276D01*
X30759680Y21744085D02*
X30759680Y21553609D01*
X30712061Y21458371D01*
X30664442Y21410752D01*
X30521585Y21315514D01*
X30331109Y21267895D01*
X29950157Y21267895D01*
X29854919Y21315514D01*
X29807300Y21363133D01*
X29759680Y21458371D01*
X29759680Y21648847D01*
X29807300Y21744085D01*
X29854919Y21791704D01*
X29950157Y21839323D01*
X30188252Y21839323D01*
X30283490Y21791704D01*
X30331109Y21744085D01*
X30378728Y21648847D01*
X30378728Y21458371D01*
X30331109Y21363133D01*
X30283490Y21315514D01*
X30188252Y21267895D01*
X13266657Y23412157D02*
X13314276Y23364538D01*
X13457133Y23316919D01*
X13552371Y23316919D01*
X13695228Y23364538D01*
X13790466Y23459776D01*
X13838085Y23555014D01*
X13885704Y23745490D01*
X13885704Y23888347D01*
X13838085Y24078823D01*
X13790466Y24174061D01*
X13695228Y24269300D01*
X13552371Y24316919D01*
X13457133Y24316919D01*
X13314276Y24269300D01*
X13266657Y24221680D01*
X12885704Y24221680D02*
X12838085Y24269300D01*
X12742847Y24316919D01*
X12504752Y24316919D01*
X12409514Y24269300D01*
X12361895Y24221680D01*
X12314276Y24126442D01*
X12314276Y24031204D01*
X12361895Y23888347D01*
X12933323Y23316919D01*
X12314276Y23316919D01*
X11742847Y23888347D02*
X11838085Y23935966D01*
X11885704Y23983585D01*
X11933323Y24078823D01*
X11933323Y24126442D01*
X11885704Y24221680D01*
X11838085Y24269300D01*
X11742847Y24316919D01*
X11552371Y24316919D01*
X11457133Y24269300D01*
X11409514Y24221680D01*
X11361895Y24126442D01*
X11361895Y24078823D01*
X11409514Y23983585D01*
X11457133Y23935966D01*
X11552371Y23888347D01*
X11742847Y23888347D01*
X11838085Y23840728D01*
X11885704Y23793109D01*
X11933323Y23697871D01*
X11933323Y23507395D01*
X11885704Y23412157D01*
X11838085Y23364538D01*
X11742847Y23316919D01*
X11552371Y23316919D01*
X11457133Y23364538D01*
X11409514Y23412157D01*
X11361895Y23507395D01*
X11361895Y23697871D01*
X11409514Y23793109D01*
X11457133Y23840728D01*
X11552371Y23888347D01*
X60216895Y27796919D02*
X60216895Y26987395D01*
X60169276Y26892157D01*
X60121657Y26844538D01*
X60026419Y26796919D01*
X59835942Y26796919D01*
X59740704Y26844538D01*
X59693085Y26892157D01*
X59645466Y26987395D01*
X59645466Y27796919D01*
X58645466Y26796919D02*
X59216895Y26796919D01*
X58931180Y26796919D02*
X58931180Y27796919D01*
X59026419Y27654061D01*
X59121657Y27558823D01*
X59216895Y27511204D01*
X58312133Y27796919D02*
X57693085Y27796919D01*
X58026419Y27415966D01*
X57883561Y27415966D01*
X57788323Y27368347D01*
X57740704Y27320728D01*
X57693085Y27225490D01*
X57693085Y26987395D01*
X57740704Y26892157D01*
X57788323Y26844538D01*
X57883561Y26796919D01*
X58169276Y26796919D01*
X58264514Y26844538D01*
X58312133Y26892157D01*
X61613895Y2523919D02*
X61613895Y1714395D01*
X61566276Y1619157D01*
X61518657Y1571538D01*
X61423419Y1523919D01*
X61232942Y1523919D01*
X61137704Y1571538D01*
X61090085Y1619157D01*
X61042466Y1714395D01*
X61042466Y2523919D01*
X60042466Y1523919D02*
X60613895Y1523919D01*
X60328180Y1523919D02*
X60328180Y2523919D01*
X60423419Y2381061D01*
X60518657Y2285823D01*
X60613895Y2238204D01*
X59661514Y2428680D02*
X59613895Y2476300D01*
X59518657Y2523919D01*
X59280561Y2523919D01*
X59185323Y2476300D01*
X59137704Y2428680D01*
X59090085Y2333442D01*
X59090085Y2238204D01*
X59137704Y2095347D01*
X59709133Y1523919D01*
X59090085Y1523919D01*
X59740704Y38409919D02*
X59740704Y37600395D01*
X59693085Y37505157D01*
X59645466Y37457538D01*
X59550228Y37409919D01*
X59359752Y37409919D01*
X59264514Y37457538D01*
X59216895Y37505157D01*
X59169276Y37600395D01*
X59169276Y38409919D01*
X58264514Y38409919D02*
X58454990Y38409919D01*
X58550228Y38362300D01*
X58597847Y38314680D01*
X58693085Y38171823D01*
X58740704Y37981347D01*
X58740704Y37600395D01*
X58693085Y37505157D01*
X58645466Y37457538D01*
X58550228Y37409919D01*
X58359752Y37409919D01*
X58264514Y37457538D01*
X58216895Y37505157D01*
X58169276Y37600395D01*
X58169276Y37838490D01*
X58216895Y37933728D01*
X58264514Y37981347D01*
X58359752Y38028966D01*
X58550228Y38028966D01*
X58645466Y37981347D01*
X58693085Y37933728D01*
X58740704Y37838490D01*
X17076657Y26110919D02*
X17409990Y26587109D01*
X17648085Y26110919D02*
X17648085Y27110919D01*
X17267133Y27110919D01*
X17171895Y27063300D01*
X17124276Y27015680D01*
X17076657Y26920442D01*
X17076657Y26777585D01*
X17124276Y26682347D01*
X17171895Y26634728D01*
X17267133Y26587109D01*
X17648085Y26587109D01*
X16695704Y27015680D02*
X16648085Y27063300D01*
X16552847Y27110919D01*
X16314752Y27110919D01*
X16219514Y27063300D01*
X16171895Y27015680D01*
X16124276Y26920442D01*
X16124276Y26825204D01*
X16171895Y26682347D01*
X16743323Y26110919D01*
X16124276Y26110919D01*
X15648085Y26110919D02*
X15457609Y26110919D01*
X15362371Y26158538D01*
X15314752Y26206157D01*
X15219514Y26349014D01*
X15171895Y26539490D01*
X15171895Y26920442D01*
X15219514Y27015680D01*
X15267133Y27063300D01*
X15362371Y27110919D01*
X15552847Y27110919D01*
X15648085Y27063300D01*
X15695704Y27015680D01*
X15743323Y26920442D01*
X15743323Y26682347D01*
X15695704Y26587109D01*
X15648085Y26539490D01*
X15552847Y26491871D01*
X15362371Y26491871D01*
X15267133Y26539490D01*
X15219514Y26587109D01*
X15171895Y26682347D01*
X13297180Y35301157D02*
X12820990Y35634490D01*
X13297180Y35872585D02*
X12297180Y35872585D01*
X12297180Y35491633D01*
X12344800Y35396395D01*
X12392419Y35348776D01*
X12487657Y35301157D01*
X12630514Y35301157D01*
X12725752Y35348776D01*
X12773371Y35396395D01*
X12820990Y35491633D01*
X12820990Y35872585D01*
X13297180Y34348776D02*
X13297180Y34920204D01*
X13297180Y34634490D02*
X12297180Y34634490D01*
X12440038Y34729728D01*
X12535276Y34824966D01*
X12582895Y34920204D01*
X12297180Y34015442D02*
X12297180Y33348776D01*
X13297180Y33777347D01*
X13297180Y32126157D02*
X12820990Y32459490D01*
X13297180Y32697585D02*
X12297180Y32697585D01*
X12297180Y32316633D01*
X12344800Y32221395D01*
X12392419Y32173776D01*
X12487657Y32126157D01*
X12630514Y32126157D01*
X12725752Y32173776D01*
X12773371Y32221395D01*
X12820990Y32316633D01*
X12820990Y32697585D01*
X13297180Y31173776D02*
X13297180Y31745204D01*
X13297180Y31459490D02*
X12297180Y31459490D01*
X12440038Y31554728D01*
X12535276Y31649966D01*
X12582895Y31745204D01*
X12297180Y30316633D02*
X12297180Y30507109D01*
X12344800Y30602347D01*
X12392419Y30649966D01*
X12535276Y30745204D01*
X12725752Y30792823D01*
X13106704Y30792823D01*
X13201942Y30745204D01*
X13249561Y30697585D01*
X13297180Y30602347D01*
X13297180Y30411871D01*
X13249561Y30316633D01*
X13201942Y30269014D01*
X13106704Y30221395D01*
X12868609Y30221395D01*
X12773371Y30269014D01*
X12725752Y30316633D01*
X12678133Y30411871D01*
X12678133Y30602347D01*
X12725752Y30697585D01*
X12773371Y30745204D01*
X12868609Y30792823D01*
X20536180Y37142657D02*
X20059990Y37475990D01*
X20536180Y37714085D02*
X19536180Y37714085D01*
X19536180Y37333133D01*
X19583800Y37237895D01*
X19631419Y37190276D01*
X19726657Y37142657D01*
X19869514Y37142657D01*
X19964752Y37190276D01*
X20012371Y37237895D01*
X20059990Y37333133D01*
X20059990Y37714085D01*
X20536180Y36190276D02*
X20536180Y36761704D01*
X20536180Y36475990D02*
X19536180Y36475990D01*
X19679038Y36571228D01*
X19774276Y36666466D01*
X19821895Y36761704D01*
X19536180Y35285514D02*
X19536180Y35761704D01*
X20012371Y35809323D01*
X19964752Y35761704D01*
X19917133Y35666466D01*
X19917133Y35428371D01*
X19964752Y35333133D01*
X20012371Y35285514D01*
X20107609Y35237895D01*
X20345704Y35237895D01*
X20440942Y35285514D01*
X20488561Y35333133D01*
X20536180Y35428371D01*
X20536180Y35666466D01*
X20488561Y35761704D01*
X20440942Y35809323D01*
X20536180Y33840657D02*
X20059990Y34173990D01*
X20536180Y34412085D02*
X19536180Y34412085D01*
X19536180Y34031133D01*
X19583800Y33935895D01*
X19631419Y33888276D01*
X19726657Y33840657D01*
X19869514Y33840657D01*
X19964752Y33888276D01*
X20012371Y33935895D01*
X20059990Y34031133D01*
X20059990Y34412085D01*
X20536180Y32888276D02*
X20536180Y33459704D01*
X20536180Y33173990D02*
X19536180Y33173990D01*
X19679038Y33269228D01*
X19774276Y33364466D01*
X19821895Y33459704D01*
X19869514Y32031133D02*
X20536180Y32031133D01*
X19488561Y32269228D02*
X20202847Y32507323D01*
X20202847Y31888276D01*
X72326780Y37510957D02*
X71850590Y37844290D01*
X72326780Y38082385D02*
X71326780Y38082385D01*
X71326780Y37701433D01*
X71374400Y37606195D01*
X71422019Y37558576D01*
X71517257Y37510957D01*
X71660114Y37510957D01*
X71755352Y37558576D01*
X71802971Y37606195D01*
X71850590Y37701433D01*
X71850590Y38082385D01*
X72326780Y36558576D02*
X72326780Y37130004D01*
X72326780Y36844290D02*
X71326780Y36844290D01*
X71469638Y36939528D01*
X71564876Y37034766D01*
X71612495Y37130004D01*
X71326780Y36225242D02*
X71326780Y35606195D01*
X71707733Y35939528D01*
X71707733Y35796671D01*
X71755352Y35701433D01*
X71802971Y35653814D01*
X71898209Y35606195D01*
X72136304Y35606195D01*
X72231542Y35653814D01*
X72279161Y35701433D01*
X72326780Y35796671D01*
X72326780Y36082385D01*
X72279161Y36177623D01*
X72231542Y36225242D01*
X69304180Y37523657D02*
X68827990Y37856990D01*
X69304180Y38095085D02*
X68304180Y38095085D01*
X68304180Y37714133D01*
X68351800Y37618895D01*
X68399419Y37571276D01*
X68494657Y37523657D01*
X68637514Y37523657D01*
X68732752Y37571276D01*
X68780371Y37618895D01*
X68827990Y37714133D01*
X68827990Y38095085D01*
X69304180Y36571276D02*
X69304180Y37142704D01*
X69304180Y36856990D02*
X68304180Y36856990D01*
X68447038Y36952228D01*
X68542276Y37047466D01*
X68589895Y37142704D01*
X68304180Y35952228D02*
X68304180Y35856990D01*
X68351800Y35761752D01*
X68399419Y35714133D01*
X68494657Y35666514D01*
X68685133Y35618895D01*
X68923228Y35618895D01*
X69113704Y35666514D01*
X69208942Y35714133D01*
X69256561Y35761752D01*
X69304180Y35856990D01*
X69304180Y35952228D01*
X69256561Y36047466D01*
X69208942Y36095085D01*
X69113704Y36142704D01*
X68923228Y36190323D01*
X68685133Y36190323D01*
X68494657Y36142704D01*
X68399419Y36095085D01*
X68351800Y36047466D01*
X68304180Y35952228D01*
X66319680Y37047466D02*
X65843490Y37380800D01*
X66319680Y37618895D02*
X65319680Y37618895D01*
X65319680Y37237942D01*
X65367300Y37142704D01*
X65414919Y37095085D01*
X65510157Y37047466D01*
X65653014Y37047466D01*
X65748252Y37095085D01*
X65795871Y37142704D01*
X65843490Y37237942D01*
X65843490Y37618895D01*
X66319680Y36571276D02*
X66319680Y36380800D01*
X66272061Y36285561D01*
X66224442Y36237942D01*
X66081585Y36142704D01*
X65891109Y36095085D01*
X65510157Y36095085D01*
X65414919Y36142704D01*
X65367300Y36190323D01*
X65319680Y36285561D01*
X65319680Y36476038D01*
X65367300Y36571276D01*
X65414919Y36618895D01*
X65510157Y36666514D01*
X65748252Y36666514D01*
X65843490Y36618895D01*
X65891109Y36571276D01*
X65938728Y36476038D01*
X65938728Y36285561D01*
X65891109Y36190323D01*
X65843490Y36142704D01*
X65748252Y36095085D01*
X25776157Y3757657D02*
X25823776Y3710038D01*
X25966633Y3662419D01*
X26061871Y3662419D01*
X26204728Y3710038D01*
X26299966Y3805276D01*
X26347585Y3900514D01*
X26395204Y4090990D01*
X26395204Y4233847D01*
X26347585Y4424323D01*
X26299966Y4519561D01*
X26204728Y4614800D01*
X26061871Y4662419D01*
X25966633Y4662419D01*
X25823776Y4614800D01*
X25776157Y4567180D01*
X25395204Y4567180D02*
X25347585Y4614800D01*
X25252347Y4662419D01*
X25014252Y4662419D01*
X24919014Y4614800D01*
X24871395Y4567180D01*
X24823776Y4471942D01*
X24823776Y4376704D01*
X24871395Y4233847D01*
X25442823Y3662419D01*
X24823776Y3662419D01*
X24442823Y4567180D02*
X24395204Y4614800D01*
X24299966Y4662419D01*
X24061871Y4662419D01*
X23966633Y4614800D01*
X23919014Y4567180D01*
X23871395Y4471942D01*
X23871395Y4376704D01*
X23919014Y4233847D01*
X24490442Y3662419D01*
X23871395Y3662419D01*
X29268657Y3854157D02*
X29316276Y3806538D01*
X29459133Y3758919D01*
X29554371Y3758919D01*
X29697228Y3806538D01*
X29792466Y3901776D01*
X29840085Y3997014D01*
X29887704Y4187490D01*
X29887704Y4330347D01*
X29840085Y4520823D01*
X29792466Y4616061D01*
X29697228Y4711300D01*
X29554371Y4758919D01*
X29459133Y4758919D01*
X29316276Y4711300D01*
X29268657Y4663680D01*
X28887704Y4663680D02*
X28840085Y4711300D01*
X28744847Y4758919D01*
X28506752Y4758919D01*
X28411514Y4711300D01*
X28363895Y4663680D01*
X28316276Y4568442D01*
X28316276Y4473204D01*
X28363895Y4330347D01*
X28935323Y3758919D01*
X28316276Y3758919D01*
X27363895Y3758919D02*
X27935323Y3758919D01*
X27649609Y3758919D02*
X27649609Y4758919D01*
X27744847Y4616061D01*
X27840085Y4520823D01*
X27935323Y4473204D01*
X15487942Y40762157D02*
X15535561Y40809776D01*
X15583180Y40952633D01*
X15583180Y41047871D01*
X15535561Y41190728D01*
X15440323Y41285966D01*
X15345085Y41333585D01*
X15154609Y41381204D01*
X15011752Y41381204D01*
X14821276Y41333585D01*
X14726038Y41285966D01*
X14630800Y41190728D01*
X14583180Y41047871D01*
X14583180Y40952633D01*
X14630800Y40809776D01*
X14678419Y40762157D01*
X15583180Y39809776D02*
X15583180Y40381204D01*
X15583180Y40095490D02*
X14583180Y40095490D01*
X14726038Y40190728D01*
X14821276Y40285966D01*
X14868895Y40381204D01*
X15011752Y39238347D02*
X14964133Y39333585D01*
X14916514Y39381204D01*
X14821276Y39428823D01*
X14773657Y39428823D01*
X14678419Y39381204D01*
X14630800Y39333585D01*
X14583180Y39238347D01*
X14583180Y39047871D01*
X14630800Y38952633D01*
X14678419Y38905014D01*
X14773657Y38857395D01*
X14821276Y38857395D01*
X14916514Y38905014D01*
X14964133Y38952633D01*
X15011752Y39047871D01*
X15011752Y39238347D01*
X15059371Y39333585D01*
X15106990Y39381204D01*
X15202228Y39428823D01*
X15392704Y39428823D01*
X15487942Y39381204D01*
X15535561Y39333585D01*
X15583180Y39238347D01*
X15583180Y39047871D01*
X15535561Y38952633D01*
X15487942Y38905014D01*
X15392704Y38857395D01*
X15202228Y38857395D01*
X15106990Y38905014D01*
X15059371Y38952633D01*
X15011752Y39047871D01*
X12566942Y40762157D02*
X12614561Y40809776D01*
X12662180Y40952633D01*
X12662180Y41047871D01*
X12614561Y41190728D01*
X12519323Y41285966D01*
X12424085Y41333585D01*
X12233609Y41381204D01*
X12090752Y41381204D01*
X11900276Y41333585D01*
X11805038Y41285966D01*
X11709800Y41190728D01*
X11662180Y41047871D01*
X11662180Y40952633D01*
X11709800Y40809776D01*
X11757419Y40762157D01*
X12662180Y39809776D02*
X12662180Y40381204D01*
X12662180Y40095490D02*
X11662180Y40095490D01*
X11805038Y40190728D01*
X11900276Y40285966D01*
X11947895Y40381204D01*
X11662180Y39476442D02*
X11662180Y38809776D01*
X12662180Y39238347D01*
X40721942Y37919157D02*
X40769561Y37966776D01*
X40817180Y38109633D01*
X40817180Y38204871D01*
X40769561Y38347728D01*
X40674323Y38442966D01*
X40579085Y38490585D01*
X40388609Y38538204D01*
X40245752Y38538204D01*
X40055276Y38490585D01*
X39960038Y38442966D01*
X39864800Y38347728D01*
X39817180Y38204871D01*
X39817180Y38109633D01*
X39864800Y37966776D01*
X39912419Y37919157D01*
X40817180Y36966776D02*
X40817180Y37538204D01*
X40817180Y37252490D02*
X39817180Y37252490D01*
X39960038Y37347728D01*
X40055276Y37442966D01*
X40102895Y37538204D01*
X39817180Y36109633D02*
X39817180Y36300109D01*
X39864800Y36395347D01*
X39912419Y36442966D01*
X40055276Y36538204D01*
X40245752Y36585823D01*
X40626704Y36585823D01*
X40721942Y36538204D01*
X40769561Y36490585D01*
X40817180Y36395347D01*
X40817180Y36204871D01*
X40769561Y36109633D01*
X40721942Y36062014D01*
X40626704Y36014395D01*
X40388609Y36014395D01*
X40293371Y36062014D01*
X40245752Y36109633D01*
X40198133Y36204871D01*
X40198133Y36395347D01*
X40245752Y36490585D01*
X40293371Y36538204D01*
X40388609Y36585823D01*
X40721942Y43048157D02*
X40769561Y43095776D01*
X40817180Y43238633D01*
X40817180Y43333871D01*
X40769561Y43476728D01*
X40674323Y43571966D01*
X40579085Y43619585D01*
X40388609Y43667204D01*
X40245752Y43667204D01*
X40055276Y43619585D01*
X39960038Y43571966D01*
X39864800Y43476728D01*
X39817180Y43333871D01*
X39817180Y43238633D01*
X39864800Y43095776D01*
X39912419Y43048157D01*
X40817180Y42095776D02*
X40817180Y42667204D01*
X40817180Y42381490D02*
X39817180Y42381490D01*
X39960038Y42476728D01*
X40055276Y42571966D01*
X40102895Y42667204D01*
X39817180Y41191014D02*
X39817180Y41667204D01*
X40293371Y41714823D01*
X40245752Y41667204D01*
X40198133Y41571966D01*
X40198133Y41333871D01*
X40245752Y41238633D01*
X40293371Y41191014D01*
X40388609Y41143395D01*
X40626704Y41143395D01*
X40721942Y41191014D01*
X40769561Y41238633D01*
X40817180Y41333871D01*
X40817180Y41571966D01*
X40769561Y41667204D01*
X40721942Y41714823D01*
X44443942Y37968157D02*
X44491561Y38015776D01*
X44539180Y38158633D01*
X44539180Y38253871D01*
X44491561Y38396728D01*
X44396323Y38491966D01*
X44301085Y38539585D01*
X44110609Y38587204D01*
X43967752Y38587204D01*
X43777276Y38539585D01*
X43682038Y38491966D01*
X43586800Y38396728D01*
X43539180Y38253871D01*
X43539180Y38158633D01*
X43586800Y38015776D01*
X43634419Y37968157D01*
X44539180Y37015776D02*
X44539180Y37587204D01*
X44539180Y37301490D02*
X43539180Y37301490D01*
X43682038Y37396728D01*
X43777276Y37491966D01*
X43824895Y37587204D01*
X43872514Y36158633D02*
X44539180Y36158633D01*
X43491561Y36396728D02*
X44205847Y36634823D01*
X44205847Y36015776D01*
X49335942Y37968157D02*
X49383561Y38015776D01*
X49431180Y38158633D01*
X49431180Y38253871D01*
X49383561Y38396728D01*
X49288323Y38491966D01*
X49193085Y38539585D01*
X49002609Y38587204D01*
X48859752Y38587204D01*
X48669276Y38539585D01*
X48574038Y38491966D01*
X48478800Y38396728D01*
X48431180Y38253871D01*
X48431180Y38158633D01*
X48478800Y38015776D01*
X48526419Y37968157D01*
X49431180Y37015776D02*
X49431180Y37587204D01*
X49431180Y37301490D02*
X48431180Y37301490D01*
X48574038Y37396728D01*
X48669276Y37491966D01*
X48716895Y37587204D01*
X48431180Y36682442D02*
X48431180Y36063395D01*
X48812133Y36396728D01*
X48812133Y36253871D01*
X48859752Y36158633D01*
X48907371Y36111014D01*
X49002609Y36063395D01*
X49240704Y36063395D01*
X49335942Y36111014D01*
X49383561Y36158633D01*
X49431180Y36253871D01*
X49431180Y36539585D01*
X49383561Y36634823D01*
X49335942Y36682442D01*
X28633657Y17283157D02*
X28681276Y17235538D01*
X28824133Y17187919D01*
X28919371Y17187919D01*
X29062228Y17235538D01*
X29157466Y17330776D01*
X29205085Y17426014D01*
X29252704Y17616490D01*
X29252704Y17759347D01*
X29205085Y17949823D01*
X29157466Y18045061D01*
X29062228Y18140300D01*
X28919371Y18187919D01*
X28824133Y18187919D01*
X28681276Y18140300D01*
X28633657Y18092680D01*
X27681276Y17187919D02*
X28252704Y17187919D01*
X27966990Y17187919D02*
X27966990Y18187919D01*
X28062228Y18045061D01*
X28157466Y17949823D01*
X28252704Y17902204D01*
X26728895Y17187919D02*
X27300323Y17187919D01*
X27014609Y17187919D02*
X27014609Y18187919D01*
X27109847Y18045061D01*
X27205085Y17949823D01*
X27300323Y17902204D01*
X28633657Y21761157D02*
X28681276Y21713538D01*
X28824133Y21665919D01*
X28919371Y21665919D01*
X29062228Y21713538D01*
X29157466Y21808776D01*
X29205085Y21904014D01*
X29252704Y22094490D01*
X29252704Y22237347D01*
X29205085Y22427823D01*
X29157466Y22523061D01*
X29062228Y22618300D01*
X28919371Y22665919D01*
X28824133Y22665919D01*
X28681276Y22618300D01*
X28633657Y22570680D01*
X27681276Y21665919D02*
X28252704Y21665919D01*
X27966990Y21665919D02*
X27966990Y22665919D01*
X28062228Y22523061D01*
X28157466Y22427823D01*
X28252704Y22380204D01*
X27062228Y22665919D02*
X26966990Y22665919D01*
X26871752Y22618300D01*
X26824133Y22570680D01*
X26776514Y22475442D01*
X26728895Y22284966D01*
X26728895Y22046871D01*
X26776514Y21856395D01*
X26824133Y21761157D01*
X26871752Y21713538D01*
X26966990Y21665919D01*
X27062228Y21665919D01*
X27157466Y21713538D01*
X27205085Y21761157D01*
X27252704Y21856395D01*
X27300323Y22046871D01*
X27300323Y22284966D01*
X27252704Y22475442D01*
X27205085Y22570680D01*
X27157466Y22618300D01*
X27062228Y22665919D01*
X8756942Y34697966D02*
X8804561Y34745585D01*
X8852180Y34888442D01*
X8852180Y34983680D01*
X8804561Y35126538D01*
X8709323Y35221776D01*
X8614085Y35269395D01*
X8423609Y35317014D01*
X8280752Y35317014D01*
X8090276Y35269395D01*
X7995038Y35221776D01*
X7899800Y35126538D01*
X7852180Y34983680D01*
X7852180Y34888442D01*
X7899800Y34745585D01*
X7947419Y34697966D01*
X7852180Y34364633D02*
X7852180Y33697966D01*
X8852180Y34126538D01*
X50539942Y5233966D02*
X50587561Y5281585D01*
X50635180Y5424442D01*
X50635180Y5519680D01*
X50587561Y5662538D01*
X50492323Y5757776D01*
X50397085Y5805395D01*
X50206609Y5853014D01*
X50063752Y5853014D01*
X49873276Y5805395D01*
X49778038Y5757776D01*
X49682800Y5662538D01*
X49635180Y5519680D01*
X49635180Y5424442D01*
X49682800Y5281585D01*
X49730419Y5233966D01*
X49635180Y4329204D02*
X49635180Y4805395D01*
X50111371Y4853014D01*
X50063752Y4805395D01*
X50016133Y4710157D01*
X50016133Y4472061D01*
X50063752Y4376823D01*
X50111371Y4329204D01*
X50206609Y4281585D01*
X50444704Y4281585D01*
X50539942Y4329204D01*
X50587561Y4376823D01*
X50635180Y4472061D01*
X50635180Y4710157D01*
X50587561Y4805395D01*
X50539942Y4853014D01*
X47618942Y5233966D02*
X47666561Y5281585D01*
X47714180Y5424442D01*
X47714180Y5519680D01*
X47666561Y5662538D01*
X47571323Y5757776D01*
X47476085Y5805395D01*
X47285609Y5853014D01*
X47142752Y5853014D01*
X46952276Y5805395D01*
X46857038Y5757776D01*
X46761800Y5662538D01*
X46714180Y5519680D01*
X46714180Y5424442D01*
X46761800Y5281585D01*
X46809419Y5233966D01*
X47047514Y4376823D02*
X47714180Y4376823D01*
X46666561Y4614919D02*
X47380847Y4853014D01*
X47380847Y4233966D01*
X19173442Y36666466D02*
X19221061Y36714085D01*
X19268680Y36856942D01*
X19268680Y36952180D01*
X19221061Y37095038D01*
X19125823Y37190276D01*
X19030585Y37237895D01*
X18840109Y37285514D01*
X18697252Y37285514D01*
X18506776Y37237895D01*
X18411538Y37190276D01*
X18316300Y37095038D01*
X18268680Y36952180D01*
X18268680Y36856942D01*
X18316300Y36714085D01*
X18363919Y36666466D01*
X18268680Y36333133D02*
X18268680Y35714085D01*
X18649633Y36047419D01*
X18649633Y35904561D01*
X18697252Y35809323D01*
X18744871Y35761704D01*
X18840109Y35714085D01*
X19078204Y35714085D01*
X19173442Y35761704D01*
X19221061Y35809323D01*
X19268680Y35904561D01*
X19268680Y36190276D01*
X19221061Y36285514D01*
X19173442Y36333133D01*
X16313442Y33364466D02*
X16361061Y33412085D01*
X16408680Y33554942D01*
X16408680Y33650180D01*
X16361061Y33793038D01*
X16265823Y33888276D01*
X16170585Y33935895D01*
X15980109Y33983514D01*
X15837252Y33983514D01*
X15646776Y33935895D01*
X15551538Y33888276D01*
X15456300Y33793038D01*
X15408680Y33650180D01*
X15408680Y33554942D01*
X15456300Y33412085D01*
X15503919Y33364466D01*
X15503919Y32983514D02*
X15456300Y32935895D01*
X15408680Y32840657D01*
X15408680Y32602561D01*
X15456300Y32507323D01*
X15503919Y32459704D01*
X15599157Y32412085D01*
X15694395Y32412085D01*
X15837252Y32459704D01*
X16408680Y33031133D01*
X16408680Y32412085D01*
%LPC*%
G36*
G01*
X64151700Y42778800D02*
X64651700Y42778800D01*
G75*
G02*
X64876700Y42553800I0J-225000D01*
G01*
X64876700Y42103800D01*
G75*
G02*
X64651700Y41878800I-225000J0D01*
G01*
X64151700Y41878800D01*
G75*
G02*
X63926700Y42103800I0J225000D01*
G01*
X63926700Y42553800D01*
G75*
G02*
X64151700Y42778800I225000J0D01*
G01*
G37*
G36*
G01*
X64151700Y44328800D02*
X64651700Y44328800D01*
G75*
G02*
X64876700Y44103800I0J-225000D01*
G01*
X64876700Y43653800D01*
G75*
G02*
X64651700Y43428800I-225000J0D01*
G01*
X64151700Y43428800D01*
G75*
G02*
X63926700Y43653800I0J225000D01*
G01*
X63926700Y44103800D01*
G75*
G02*
X64151700Y44328800I225000J0D01*
G01*
G37*
G36*
G01*
X19629800Y40290300D02*
X19079800Y40290300D01*
G75*
G02*
X18879800Y40490300I0J200000D01*
G01*
X18879800Y40890300D01*
G75*
G02*
X19079800Y41090300I200000J0D01*
G01*
X19629800Y41090300D01*
G75*
G02*
X19829800Y40890300I0J-200000D01*
G01*
X19829800Y40490300D01*
G75*
G02*
X19629800Y40290300I-200000J0D01*
G01*
G37*
G36*
G01*
X19629800Y38640300D02*
X19079800Y38640300D01*
G75*
G02*
X18879800Y38840300I0J200000D01*
G01*
X18879800Y39240300D01*
G75*
G02*
X19079800Y39440300I200000J0D01*
G01*
X19629800Y39440300D01*
G75*
G02*
X19829800Y39240300I0J-200000D01*
G01*
X19829800Y38840300D01*
G75*
G02*
X19629800Y38640300I-200000J0D01*
G01*
G37*
G36*
G01*
X16714900Y43715701D02*
X16714900Y42415699D01*
G75*
G02*
X16464901Y42165700I-249999J0D01*
G01*
X15814899Y42165700D01*
G75*
G02*
X15564900Y42415699I0J249999D01*
G01*
X15564900Y43715701D01*
G75*
G02*
X15814899Y43965700I249999J0D01*
G01*
X16464901Y43965700D01*
G75*
G02*
X16714900Y43715701I0J-249999D01*
G01*
G37*
G36*
G01*
X19664900Y43715701D02*
X19664900Y42415699D01*
G75*
G02*
X19414901Y42165700I-249999J0D01*
G01*
X18764899Y42165700D01*
G75*
G02*
X18514900Y42415699I0J249999D01*
G01*
X18514900Y43715701D01*
G75*
G02*
X18764899Y43965700I249999J0D01*
G01*
X19414901Y43965700D01*
G75*
G02*
X19664900Y43715701I0J-249999D01*
G01*
G37*
G36*
G01*
X10174400Y44922201D02*
X10174400Y43622199D01*
G75*
G02*
X9924401Y43372200I-249999J0D01*
G01*
X9274399Y43372200D01*
G75*
G02*
X9024400Y43622199I0J249999D01*
G01*
X9024400Y44922201D01*
G75*
G02*
X9274399Y45172200I249999J0D01*
G01*
X9924401Y45172200D01*
G75*
G02*
X10174400Y44922201I0J-249999D01*
G01*
G37*
G36*
G01*
X13124400Y44922201D02*
X13124400Y43622199D01*
G75*
G02*
X12874401Y43372200I-249999J0D01*
G01*
X12224399Y43372200D01*
G75*
G02*
X11974400Y43622199I0J249999D01*
G01*
X11974400Y44922201D01*
G75*
G02*
X12224399Y45172200I249999J0D01*
G01*
X12874401Y45172200D01*
G75*
G02*
X13124400Y44922201I0J-249999D01*
G01*
G37*
G36*
G01*
X48149800Y15265300D02*
X48149800Y15465300D01*
G75*
G02*
X48249800Y15565300I100000J0D01*
G01*
X49524800Y15565300D01*
G75*
G02*
X49624800Y15465300I0J-100000D01*
G01*
X49624800Y15265300D01*
G75*
G02*
X49524800Y15165300I-100000J0D01*
G01*
X48249800Y15165300D01*
G75*
G02*
X48149800Y15265300I0J100000D01*
G01*
G37*
G36*
G01*
X48149800Y15915300D02*
X48149800Y16115300D01*
G75*
G02*
X48249800Y16215300I100000J0D01*
G01*
X49524800Y16215300D01*
G75*
G02*
X49624800Y16115300I0J-100000D01*
G01*
X49624800Y15915300D01*
G75*
G02*
X49524800Y15815300I-100000J0D01*
G01*
X48249800Y15815300D01*
G75*
G02*
X48149800Y15915300I0J100000D01*
G01*
G37*
G36*
G01*
X48149800Y16565300D02*
X48149800Y16765300D01*
G75*
G02*
X48249800Y16865300I100000J0D01*
G01*
X49524800Y16865300D01*
G75*
G02*
X49624800Y16765300I0J-100000D01*
G01*
X49624800Y16565300D01*
G75*
G02*
X49524800Y16465300I-100000J0D01*
G01*
X48249800Y16465300D01*
G75*
G02*
X48149800Y16565300I0J100000D01*
G01*
G37*
G36*
G01*
X48149800Y17215300D02*
X48149800Y17415300D01*
G75*
G02*
X48249800Y17515300I100000J0D01*
G01*
X49524800Y17515300D01*
G75*
G02*
X49624800Y17415300I0J-100000D01*
G01*
X49624800Y17215300D01*
G75*
G02*
X49524800Y17115300I-100000J0D01*
G01*
X48249800Y17115300D01*
G75*
G02*
X48149800Y17215300I0J100000D01*
G01*
G37*
G36*
G01*
X48149800Y17865300D02*
X48149800Y18065300D01*
G75*
G02*
X48249800Y18165300I100000J0D01*
G01*
X49524800Y18165300D01*
G75*
G02*
X49624800Y18065300I0J-100000D01*
G01*
X49624800Y17865300D01*
G75*
G02*
X49524800Y17765300I-100000J0D01*
G01*
X48249800Y17765300D01*
G75*
G02*
X48149800Y17865300I0J100000D01*
G01*
G37*
G36*
G01*
X48149800Y18515300D02*
X48149800Y18715300D01*
G75*
G02*
X48249800Y18815300I100000J0D01*
G01*
X49524800Y18815300D01*
G75*
G02*
X49624800Y18715300I0J-100000D01*
G01*
X49624800Y18515300D01*
G75*
G02*
X49524800Y18415300I-100000J0D01*
G01*
X48249800Y18415300D01*
G75*
G02*
X48149800Y18515300I0J100000D01*
G01*
G37*
G36*
G01*
X48149800Y19165300D02*
X48149800Y19365300D01*
G75*
G02*
X48249800Y19465300I100000J0D01*
G01*
X49524800Y19465300D01*
G75*
G02*
X49624800Y19365300I0J-100000D01*
G01*
X49624800Y19165300D01*
G75*
G02*
X49524800Y19065300I-100000J0D01*
G01*
X48249800Y19065300D01*
G75*
G02*
X48149800Y19165300I0J100000D01*
G01*
G37*
G36*
G01*
X48149800Y19815300D02*
X48149800Y20015300D01*
G75*
G02*
X48249800Y20115300I100000J0D01*
G01*
X49524800Y20115300D01*
G75*
G02*
X49624800Y20015300I0J-100000D01*
G01*
X49624800Y19815300D01*
G75*
G02*
X49524800Y19715300I-100000J0D01*
G01*
X48249800Y19715300D01*
G75*
G02*
X48149800Y19815300I0J100000D01*
G01*
G37*
G36*
G01*
X42424800Y19815300D02*
X42424800Y20015300D01*
G75*
G02*
X42524800Y20115300I100000J0D01*
G01*
X43799800Y20115300D01*
G75*
G02*
X43899800Y20015300I0J-100000D01*
G01*
X43899800Y19815300D01*
G75*
G02*
X43799800Y19715300I-100000J0D01*
G01*
X42524800Y19715300D01*
G75*
G02*
X42424800Y19815300I0J100000D01*
G01*
G37*
G36*
G01*
X42424800Y19165300D02*
X42424800Y19365300D01*
G75*
G02*
X42524800Y19465300I100000J0D01*
G01*
X43799800Y19465300D01*
G75*
G02*
X43899800Y19365300I0J-100000D01*
G01*
X43899800Y19165300D01*
G75*
G02*
X43799800Y19065300I-100000J0D01*
G01*
X42524800Y19065300D01*
G75*
G02*
X42424800Y19165300I0J100000D01*
G01*
G37*
G36*
G01*
X42424800Y18515300D02*
X42424800Y18715300D01*
G75*
G02*
X42524800Y18815300I100000J0D01*
G01*
X43799800Y18815300D01*
G75*
G02*
X43899800Y18715300I0J-100000D01*
G01*
X43899800Y18515300D01*
G75*
G02*
X43799800Y18415300I-100000J0D01*
G01*
X42524800Y18415300D01*
G75*
G02*
X42424800Y18515300I0J100000D01*
G01*
G37*
G36*
G01*
X42424800Y17865300D02*
X42424800Y18065300D01*
G75*
G02*
X42524800Y18165300I100000J0D01*
G01*
X43799800Y18165300D01*
G75*
G02*
X43899800Y18065300I0J-100000D01*
G01*
X43899800Y17865300D01*
G75*
G02*
X43799800Y17765300I-100000J0D01*
G01*
X42524800Y17765300D01*
G75*
G02*
X42424800Y17865300I0J100000D01*
G01*
G37*
G36*
G01*
X42424800Y17215300D02*
X42424800Y17415300D01*
G75*
G02*
X42524800Y17515300I100000J0D01*
G01*
X43799800Y17515300D01*
G75*
G02*
X43899800Y17415300I0J-100000D01*
G01*
X43899800Y17215300D01*
G75*
G02*
X43799800Y17115300I-100000J0D01*
G01*
X42524800Y17115300D01*
G75*
G02*
X42424800Y17215300I0J100000D01*
G01*
G37*
G36*
G01*
X42424800Y16565300D02*
X42424800Y16765300D01*
G75*
G02*
X42524800Y16865300I100000J0D01*
G01*
X43799800Y16865300D01*
G75*
G02*
X43899800Y16765300I0J-100000D01*
G01*
X43899800Y16565300D01*
G75*
G02*
X43799800Y16465300I-100000J0D01*
G01*
X42524800Y16465300D01*
G75*
G02*
X42424800Y16565300I0J100000D01*
G01*
G37*
G36*
G01*
X42424800Y15915300D02*
X42424800Y16115300D01*
G75*
G02*
X42524800Y16215300I100000J0D01*
G01*
X43799800Y16215300D01*
G75*
G02*
X43899800Y16115300I0J-100000D01*
G01*
X43899800Y15915300D01*
G75*
G02*
X43799800Y15815300I-100000J0D01*
G01*
X42524800Y15815300D01*
G75*
G02*
X42424800Y15915300I0J100000D01*
G01*
G37*
G36*
G01*
X42424800Y15265300D02*
X42424800Y15465300D01*
G75*
G02*
X42524800Y15565300I100000J0D01*
G01*
X43799800Y15565300D01*
G75*
G02*
X43899800Y15465300I0J-100000D01*
G01*
X43899800Y15265300D01*
G75*
G02*
X43799800Y15165300I-100000J0D01*
G01*
X42524800Y15165300D01*
G75*
G02*
X42424800Y15265300I0J100000D01*
G01*
G37*
D12*
X2468800Y29935300D03*
X2468800Y14235300D03*
X7368800Y14835300D03*
X7368800Y29335300D03*
D13*
X82346800Y37325300D03*
X77266800Y37325300D03*
X82346800Y15862300D03*
X77266800Y15862300D03*
X82346800Y26593800D03*
X77266800Y26593800D03*
G36*
G01*
X34488800Y22891300D02*
X33938800Y22891300D01*
G75*
G02*
X33738800Y23091300I0J200000D01*
G01*
X33738800Y23491300D01*
G75*
G02*
X33938800Y23691300I200000J0D01*
G01*
X34488800Y23691300D01*
G75*
G02*
X34688800Y23491300I0J-200000D01*
G01*
X34688800Y23091300D01*
G75*
G02*
X34488800Y22891300I-200000J0D01*
G01*
G37*
G36*
G01*
X34488800Y21241300D02*
X33938800Y21241300D01*
G75*
G02*
X33738800Y21441300I0J200000D01*
G01*
X33738800Y21841300D01*
G75*
G02*
X33938800Y22041300I200000J0D01*
G01*
X34488800Y22041300D01*
G75*
G02*
X34688800Y21841300I0J-200000D01*
G01*
X34688800Y21441300D01*
G75*
G02*
X34488800Y21241300I-200000J0D01*
G01*
G37*
G36*
G01*
X50998800Y24796300D02*
X50448800Y24796300D01*
G75*
G02*
X50248800Y24996300I0J200000D01*
G01*
X50248800Y25396300D01*
G75*
G02*
X50448800Y25596300I200000J0D01*
G01*
X50998800Y25596300D01*
G75*
G02*
X51198800Y25396300I0J-200000D01*
G01*
X51198800Y24996300D01*
G75*
G02*
X50998800Y24796300I-200000J0D01*
G01*
G37*
G36*
G01*
X50998800Y23146300D02*
X50448800Y23146300D01*
G75*
G02*
X50248800Y23346300I0J200000D01*
G01*
X50248800Y23746300D01*
G75*
G02*
X50448800Y23946300I200000J0D01*
G01*
X50998800Y23946300D01*
G75*
G02*
X51198800Y23746300I0J-200000D01*
G01*
X51198800Y23346300D01*
G75*
G02*
X50998800Y23146300I-200000J0D01*
G01*
G37*
G36*
G01*
X21152300Y20518800D02*
X21152300Y19968800D01*
G75*
G02*
X20952300Y19768800I-200000J0D01*
G01*
X20552300Y19768800D01*
G75*
G02*
X20352300Y19968800I0J200000D01*
G01*
X20352300Y20518800D01*
G75*
G02*
X20552300Y20718800I200000J0D01*
G01*
X20952300Y20718800D01*
G75*
G02*
X21152300Y20518800I0J-200000D01*
G01*
G37*
G36*
G01*
X22802300Y20518800D02*
X22802300Y19968800D01*
G75*
G02*
X22602300Y19768800I-200000J0D01*
G01*
X22202300Y19768800D01*
G75*
G02*
X22002300Y19968800I0J200000D01*
G01*
X22002300Y20518800D01*
G75*
G02*
X22202300Y20718800I200000J0D01*
G01*
X22602300Y20718800D01*
G75*
G02*
X22802300Y20518800I0J-200000D01*
G01*
G37*
G36*
G01*
X25875800Y25937800D02*
X25875800Y26487800D01*
G75*
G02*
X26075800Y26687800I200000J0D01*
G01*
X26475800Y26687800D01*
G75*
G02*
X26675800Y26487800I0J-200000D01*
G01*
X26675800Y25937800D01*
G75*
G02*
X26475800Y25737800I-200000J0D01*
G01*
X26075800Y25737800D01*
G75*
G02*
X25875800Y25937800I0J200000D01*
G01*
G37*
G36*
G01*
X24225800Y25937800D02*
X24225800Y26487800D01*
G75*
G02*
X24425800Y26687800I200000J0D01*
G01*
X24825800Y26687800D01*
G75*
G02*
X25025800Y26487800I0J-200000D01*
G01*
X25025800Y25937800D01*
G75*
G02*
X24825800Y25737800I-200000J0D01*
G01*
X24425800Y25737800D01*
G75*
G02*
X24225800Y25937800I0J200000D01*
G01*
G37*
G36*
G01*
X17366800Y29049300D02*
X17366800Y29599300D01*
G75*
G02*
X17566800Y29799300I200000J0D01*
G01*
X17966800Y29799300D01*
G75*
G02*
X18166800Y29599300I0J-200000D01*
G01*
X18166800Y29049300D01*
G75*
G02*
X17966800Y28849300I-200000J0D01*
G01*
X17566800Y28849300D01*
G75*
G02*
X17366800Y29049300I0J200000D01*
G01*
G37*
G36*
G01*
X15716800Y29049300D02*
X15716800Y29599300D01*
G75*
G02*
X15916800Y29799300I200000J0D01*
G01*
X16316800Y29799300D01*
G75*
G02*
X16516800Y29599300I0J-200000D01*
G01*
X16516800Y29049300D01*
G75*
G02*
X16316800Y28849300I-200000J0D01*
G01*
X15916800Y28849300D01*
G75*
G02*
X15716800Y29049300I0J200000D01*
G01*
G37*
G36*
G01*
X71253800Y7882300D02*
X71253800Y7332300D01*
G75*
G02*
X71053800Y7132300I-200000J0D01*
G01*
X70653800Y7132300D01*
G75*
G02*
X70453800Y7332300I0J200000D01*
G01*
X70453800Y7882300D01*
G75*
G02*
X70653800Y8082300I200000J0D01*
G01*
X71053800Y8082300D01*
G75*
G02*
X71253800Y7882300I0J-200000D01*
G01*
G37*
G36*
G01*
X72903800Y7882300D02*
X72903800Y7332300D01*
G75*
G02*
X72703800Y7132300I-200000J0D01*
G01*
X72303800Y7132300D01*
G75*
G02*
X72103800Y7332300I0J200000D01*
G01*
X72103800Y7882300D01*
G75*
G02*
X72303800Y8082300I200000J0D01*
G01*
X72703800Y8082300D01*
G75*
G02*
X72903800Y7882300I0J-200000D01*
G01*
G37*
D14*
X52501800Y34909300D03*
X52501800Y37709300D03*
X63169800Y19415300D03*
X63169800Y22215300D03*
X68757800Y11036300D03*
X71557800Y11036300D03*
G36*
G01*
X7587800Y9110300D02*
X7587800Y9660300D01*
G75*
G02*
X7787800Y9860300I200000J0D01*
G01*
X8187800Y9860300D01*
G75*
G02*
X8387800Y9660300I0J-200000D01*
G01*
X8387800Y9110300D01*
G75*
G02*
X8187800Y8910300I-200000J0D01*
G01*
X7787800Y8910300D01*
G75*
G02*
X7587800Y9110300I0J200000D01*
G01*
G37*
G36*
G01*
X5937800Y9110300D02*
X5937800Y9660300D01*
G75*
G02*
X6137800Y9860300I200000J0D01*
G01*
X6537800Y9860300D01*
G75*
G02*
X6737800Y9660300I0J-200000D01*
G01*
X6737800Y9110300D01*
G75*
G02*
X6537800Y8910300I-200000J0D01*
G01*
X6137800Y8910300D01*
G75*
G02*
X5937800Y9110300I0J200000D01*
G01*
G37*
G36*
G01*
X26256800Y42511300D02*
X26256800Y43061300D01*
G75*
G02*
X26456800Y43261300I200000J0D01*
G01*
X26856800Y43261300D01*
G75*
G02*
X27056800Y43061300I0J-200000D01*
G01*
X27056800Y42511300D01*
G75*
G02*
X26856800Y42311300I-200000J0D01*
G01*
X26456800Y42311300D01*
G75*
G02*
X26256800Y42511300I0J200000D01*
G01*
G37*
G36*
G01*
X24606800Y42511300D02*
X24606800Y43061300D01*
G75*
G02*
X24806800Y43261300I200000J0D01*
G01*
X25206800Y43261300D01*
G75*
G02*
X25406800Y43061300I0J-200000D01*
G01*
X25406800Y42511300D01*
G75*
G02*
X25206800Y42311300I-200000J0D01*
G01*
X24806800Y42311300D01*
G75*
G02*
X24606800Y42511300I0J200000D01*
G01*
G37*
D15*
X4000000Y44000000D03*
D16*
X4000000Y4000000D03*
D15*
X80000000Y44000000D03*
X80000000Y4000000D03*
G36*
G01*
X20795800Y29049300D02*
X20795800Y29599300D01*
G75*
G02*
X20995800Y29799300I200000J0D01*
G01*
X21395800Y29799300D01*
G75*
G02*
X21595800Y29599300I0J-200000D01*
G01*
X21595800Y29049300D01*
G75*
G02*
X21395800Y28849300I-200000J0D01*
G01*
X20995800Y28849300D01*
G75*
G02*
X20795800Y29049300I0J200000D01*
G01*
G37*
G36*
G01*
X19145800Y29049300D02*
X19145800Y29599300D01*
G75*
G02*
X19345800Y29799300I200000J0D01*
G01*
X19745800Y29799300D01*
G75*
G02*
X19945800Y29599300I0J-200000D01*
G01*
X19945800Y29049300D01*
G75*
G02*
X19745800Y28849300I-200000J0D01*
G01*
X19345800Y28849300D01*
G75*
G02*
X19145800Y29049300I0J200000D01*
G01*
G37*
G36*
G01*
X25875800Y28858800D02*
X25875800Y29408800D01*
G75*
G02*
X26075800Y29608800I200000J0D01*
G01*
X26475800Y29608800D01*
G75*
G02*
X26675800Y29408800I0J-200000D01*
G01*
X26675800Y28858800D01*
G75*
G02*
X26475800Y28658800I-200000J0D01*
G01*
X26075800Y28658800D01*
G75*
G02*
X25875800Y28858800I0J200000D01*
G01*
G37*
G36*
G01*
X24225800Y28858800D02*
X24225800Y29408800D01*
G75*
G02*
X24425800Y29608800I200000J0D01*
G01*
X24825800Y29608800D01*
G75*
G02*
X25025800Y29408800I0J-200000D01*
G01*
X25025800Y28858800D01*
G75*
G02*
X24825800Y28658800I-200000J0D01*
G01*
X24425800Y28658800D01*
G75*
G02*
X24225800Y28858800I0J200000D01*
G01*
G37*
G36*
G01*
X40353800Y8348300D02*
X40353800Y8898300D01*
G75*
G02*
X40553800Y9098300I200000J0D01*
G01*
X40953800Y9098300D01*
G75*
G02*
X41153800Y8898300I0J-200000D01*
G01*
X41153800Y8348300D01*
G75*
G02*
X40953800Y8148300I-200000J0D01*
G01*
X40553800Y8148300D01*
G75*
G02*
X40353800Y8348300I0J200000D01*
G01*
G37*
G36*
G01*
X38703800Y8348300D02*
X38703800Y8898300D01*
G75*
G02*
X38903800Y9098300I200000J0D01*
G01*
X39303800Y9098300D01*
G75*
G02*
X39503800Y8898300I0J-200000D01*
G01*
X39503800Y8348300D01*
G75*
G02*
X39303800Y8148300I-200000J0D01*
G01*
X38903800Y8148300D01*
G75*
G02*
X38703800Y8348300I0J200000D01*
G01*
G37*
G36*
G01*
X68205800Y4580300D02*
X68205800Y4030300D01*
G75*
G02*
X68005800Y3830300I-200000J0D01*
G01*
X67605800Y3830300D01*
G75*
G02*
X67405800Y4030300I0J200000D01*
G01*
X67405800Y4580300D01*
G75*
G02*
X67605800Y4780300I200000J0D01*
G01*
X68005800Y4780300D01*
G75*
G02*
X68205800Y4580300I0J-200000D01*
G01*
G37*
G36*
G01*
X69855800Y4580300D02*
X69855800Y4030300D01*
G75*
G02*
X69655800Y3830300I-200000J0D01*
G01*
X69255800Y3830300D01*
G75*
G02*
X69055800Y4030300I0J200000D01*
G01*
X69055800Y4580300D01*
G75*
G02*
X69255800Y4780300I200000J0D01*
G01*
X69655800Y4780300D01*
G75*
G02*
X69855800Y4580300I0J-200000D01*
G01*
G37*
G36*
G01*
X22827800Y5681300D02*
X22827800Y6231300D01*
G75*
G02*
X23027800Y6431300I200000J0D01*
G01*
X23427800Y6431300D01*
G75*
G02*
X23627800Y6231300I0J-200000D01*
G01*
X23627800Y5681300D01*
G75*
G02*
X23427800Y5481300I-200000J0D01*
G01*
X23027800Y5481300D01*
G75*
G02*
X22827800Y5681300I0J200000D01*
G01*
G37*
G36*
G01*
X21177800Y5681300D02*
X21177800Y6231300D01*
G75*
G02*
X21377800Y6431300I200000J0D01*
G01*
X21777800Y6431300D01*
G75*
G02*
X21977800Y6231300I0J-200000D01*
G01*
X21977800Y5681300D01*
G75*
G02*
X21777800Y5481300I-200000J0D01*
G01*
X21377800Y5481300D01*
G75*
G02*
X21177800Y5681300I0J200000D01*
G01*
G37*
G36*
G01*
X51887800Y18446300D02*
X51337800Y18446300D01*
G75*
G02*
X51137800Y18646300I0J200000D01*
G01*
X51137800Y19046300D01*
G75*
G02*
X51337800Y19246300I200000J0D01*
G01*
X51887800Y19246300D01*
G75*
G02*
X52087800Y19046300I0J-200000D01*
G01*
X52087800Y18646300D01*
G75*
G02*
X51887800Y18446300I-200000J0D01*
G01*
G37*
G36*
G01*
X51887800Y16796300D02*
X51337800Y16796300D01*
G75*
G02*
X51137800Y16996300I0J200000D01*
G01*
X51137800Y17396300D01*
G75*
G02*
X51337800Y17596300I200000J0D01*
G01*
X51887800Y17596300D01*
G75*
G02*
X52087800Y17396300I0J-200000D01*
G01*
X52087800Y16996300D01*
G75*
G02*
X51887800Y16796300I-200000J0D01*
G01*
G37*
G36*
G01*
X25406800Y6231300D02*
X25406800Y5681300D01*
G75*
G02*
X25206800Y5481300I-200000J0D01*
G01*
X24806800Y5481300D01*
G75*
G02*
X24606800Y5681300I0J200000D01*
G01*
X24606800Y6231300D01*
G75*
G02*
X24806800Y6431300I200000J0D01*
G01*
X25206800Y6431300D01*
G75*
G02*
X25406800Y6231300I0J-200000D01*
G01*
G37*
G36*
G01*
X27056800Y6231300D02*
X27056800Y5681300D01*
G75*
G02*
X26856800Y5481300I-200000J0D01*
G01*
X26456800Y5481300D01*
G75*
G02*
X26256800Y5681300I0J200000D01*
G01*
X26256800Y6231300D01*
G75*
G02*
X26456800Y6431300I200000J0D01*
G01*
X26856800Y6431300D01*
G75*
G02*
X27056800Y6231300I0J-200000D01*
G01*
G37*
G36*
G01*
X40296300Y14130800D02*
X40296300Y14680800D01*
G75*
G02*
X40496300Y14880800I200000J0D01*
G01*
X40896300Y14880800D01*
G75*
G02*
X41096300Y14680800I0J-200000D01*
G01*
X41096300Y14130800D01*
G75*
G02*
X40896300Y13930800I-200000J0D01*
G01*
X40496300Y13930800D01*
G75*
G02*
X40296300Y14130800I0J200000D01*
G01*
G37*
G36*
G01*
X38646300Y14130800D02*
X38646300Y14680800D01*
G75*
G02*
X38846300Y14880800I200000J0D01*
G01*
X39246300Y14880800D01*
G75*
G02*
X39446300Y14680800I0J-200000D01*
G01*
X39446300Y14130800D01*
G75*
G02*
X39246300Y13930800I-200000J0D01*
G01*
X38846300Y13930800D01*
G75*
G02*
X38646300Y14130800I0J200000D01*
G01*
G37*
G36*
G01*
X9658800Y37219300D02*
X9658800Y36669300D01*
G75*
G02*
X9458800Y36469300I-200000J0D01*
G01*
X9058800Y36469300D01*
G75*
G02*
X8858800Y36669300I0J200000D01*
G01*
X8858800Y37219300D01*
G75*
G02*
X9058800Y37419300I200000J0D01*
G01*
X9458800Y37419300D01*
G75*
G02*
X9658800Y37219300I0J-200000D01*
G01*
G37*
G36*
G01*
X11308800Y37219300D02*
X11308800Y36669300D01*
G75*
G02*
X11108800Y36469300I-200000J0D01*
G01*
X10708800Y36469300D01*
G75*
G02*
X10508800Y36669300I0J200000D01*
G01*
X10508800Y37219300D01*
G75*
G02*
X10708800Y37419300I200000J0D01*
G01*
X11108800Y37419300D01*
G75*
G02*
X11308800Y37219300I0J-200000D01*
G01*
G37*
G36*
G01*
X9850800Y41560300D02*
X9300800Y41560300D01*
G75*
G02*
X9100800Y41760300I0J200000D01*
G01*
X9100800Y42160300D01*
G75*
G02*
X9300800Y42360300I200000J0D01*
G01*
X9850800Y42360300D01*
G75*
G02*
X10050800Y42160300I0J-200000D01*
G01*
X10050800Y41760300D01*
G75*
G02*
X9850800Y41560300I-200000J0D01*
G01*
G37*
G36*
G01*
X9850800Y39910300D02*
X9300800Y39910300D01*
G75*
G02*
X9100800Y40110300I0J200000D01*
G01*
X9100800Y40510300D01*
G75*
G02*
X9300800Y40710300I200000J0D01*
G01*
X9850800Y40710300D01*
G75*
G02*
X10050800Y40510300I0J-200000D01*
G01*
X10050800Y40110300D01*
G75*
G02*
X9850800Y39910300I-200000J0D01*
G01*
G37*
D17*
X68107800Y6276300D03*
X69407800Y6276300D03*
X68757800Y8176300D03*
X68757800Y6276300D03*
X69407800Y8176300D03*
X68107800Y8176300D03*
G36*
G01*
X10079800Y31681300D02*
X9579800Y31681300D01*
G75*
G02*
X9354800Y31906300I0J225000D01*
G01*
X9354800Y32356300D01*
G75*
G02*
X9579800Y32581300I225000J0D01*
G01*
X10079800Y32581300D01*
G75*
G02*
X10304800Y32356300I0J-225000D01*
G01*
X10304800Y31906300D01*
G75*
G02*
X10079800Y31681300I-225000J0D01*
G01*
G37*
G36*
G01*
X10079800Y30131300D02*
X9579800Y30131300D01*
G75*
G02*
X9354800Y30356300I0J225000D01*
G01*
X9354800Y30806300D01*
G75*
G02*
X9579800Y31031300I225000J0D01*
G01*
X10079800Y31031300D01*
G75*
G02*
X10304800Y30806300I0J-225000D01*
G01*
X10304800Y30356300D01*
G75*
G02*
X10079800Y30131300I-225000J0D01*
G01*
G37*
G36*
G01*
X25125800Y23605300D02*
X25125800Y23105300D01*
G75*
G02*
X24900800Y22880300I-225000J0D01*
G01*
X24450800Y22880300D01*
G75*
G02*
X24225800Y23105300I0J225000D01*
G01*
X24225800Y23605300D01*
G75*
G02*
X24450800Y23830300I225000J0D01*
G01*
X24900800Y23830300D01*
G75*
G02*
X25125800Y23605300I0J-225000D01*
G01*
G37*
G36*
G01*
X26675800Y23605300D02*
X26675800Y23105300D01*
G75*
G02*
X26450800Y22880300I-225000J0D01*
G01*
X26000800Y22880300D01*
G75*
G02*
X25775800Y23105300I0J225000D01*
G01*
X25775800Y23605300D01*
G75*
G02*
X26000800Y23830300I225000J0D01*
G01*
X26450800Y23830300D01*
G75*
G02*
X26675800Y23605300I0J-225000D01*
G01*
G37*
G36*
G01*
X24146800Y8915300D02*
X24146800Y9115300D01*
G75*
G02*
X24246800Y9215300I100000J0D01*
G01*
X25521800Y9215300D01*
G75*
G02*
X25621800Y9115300I0J-100000D01*
G01*
X25621800Y8915300D01*
G75*
G02*
X25521800Y8815300I-100000J0D01*
G01*
X24246800Y8815300D01*
G75*
G02*
X24146800Y8915300I0J100000D01*
G01*
G37*
G36*
G01*
X24146800Y9565300D02*
X24146800Y9765300D01*
G75*
G02*
X24246800Y9865300I100000J0D01*
G01*
X25521800Y9865300D01*
G75*
G02*
X25621800Y9765300I0J-100000D01*
G01*
X25621800Y9565300D01*
G75*
G02*
X25521800Y9465300I-100000J0D01*
G01*
X24246800Y9465300D01*
G75*
G02*
X24146800Y9565300I0J100000D01*
G01*
G37*
G36*
G01*
X24146800Y10215300D02*
X24146800Y10415300D01*
G75*
G02*
X24246800Y10515300I100000J0D01*
G01*
X25521800Y10515300D01*
G75*
G02*
X25621800Y10415300I0J-100000D01*
G01*
X25621800Y10215300D01*
G75*
G02*
X25521800Y10115300I-100000J0D01*
G01*
X24246800Y10115300D01*
G75*
G02*
X24146800Y10215300I0J100000D01*
G01*
G37*
G36*
G01*
X24146800Y10865300D02*
X24146800Y11065300D01*
G75*
G02*
X24246800Y11165300I100000J0D01*
G01*
X25521800Y11165300D01*
G75*
G02*
X25621800Y11065300I0J-100000D01*
G01*
X25621800Y10865300D01*
G75*
G02*
X25521800Y10765300I-100000J0D01*
G01*
X24246800Y10765300D01*
G75*
G02*
X24146800Y10865300I0J100000D01*
G01*
G37*
G36*
G01*
X24146800Y11515300D02*
X24146800Y11715300D01*
G75*
G02*
X24246800Y11815300I100000J0D01*
G01*
X25521800Y11815300D01*
G75*
G02*
X25621800Y11715300I0J-100000D01*
G01*
X25621800Y11515300D01*
G75*
G02*
X25521800Y11415300I-100000J0D01*
G01*
X24246800Y11415300D01*
G75*
G02*
X24146800Y11515300I0J100000D01*
G01*
G37*
G36*
G01*
X24146800Y12165300D02*
X24146800Y12365300D01*
G75*
G02*
X24246800Y12465300I100000J0D01*
G01*
X25521800Y12465300D01*
G75*
G02*
X25621800Y12365300I0J-100000D01*
G01*
X25621800Y12165300D01*
G75*
G02*
X25521800Y12065300I-100000J0D01*
G01*
X24246800Y12065300D01*
G75*
G02*
X24146800Y12165300I0J100000D01*
G01*
G37*
G36*
G01*
X24146800Y12815300D02*
X24146800Y13015300D01*
G75*
G02*
X24246800Y13115300I100000J0D01*
G01*
X25521800Y13115300D01*
G75*
G02*
X25621800Y13015300I0J-100000D01*
G01*
X25621800Y12815300D01*
G75*
G02*
X25521800Y12715300I-100000J0D01*
G01*
X24246800Y12715300D01*
G75*
G02*
X24146800Y12815300I0J100000D01*
G01*
G37*
G36*
G01*
X24146800Y13465300D02*
X24146800Y13665300D01*
G75*
G02*
X24246800Y13765300I100000J0D01*
G01*
X25521800Y13765300D01*
G75*
G02*
X25621800Y13665300I0J-100000D01*
G01*
X25621800Y13465300D01*
G75*
G02*
X25521800Y13365300I-100000J0D01*
G01*
X24246800Y13365300D01*
G75*
G02*
X24146800Y13465300I0J100000D01*
G01*
G37*
G36*
G01*
X18421800Y13465300D02*
X18421800Y13665300D01*
G75*
G02*
X18521800Y13765300I100000J0D01*
G01*
X19796800Y13765300D01*
G75*
G02*
X19896800Y13665300I0J-100000D01*
G01*
X19896800Y13465300D01*
G75*
G02*
X19796800Y13365300I-100000J0D01*
G01*
X18521800Y13365300D01*
G75*
G02*
X18421800Y13465300I0J100000D01*
G01*
G37*
G36*
G01*
X18421800Y12815300D02*
X18421800Y13015300D01*
G75*
G02*
X18521800Y13115300I100000J0D01*
G01*
X19796800Y13115300D01*
G75*
G02*
X19896800Y13015300I0J-100000D01*
G01*
X19896800Y12815300D01*
G75*
G02*
X19796800Y12715300I-100000J0D01*
G01*
X18521800Y12715300D01*
G75*
G02*
X18421800Y12815300I0J100000D01*
G01*
G37*
G36*
G01*
X18421800Y12165300D02*
X18421800Y12365300D01*
G75*
G02*
X18521800Y12465300I100000J0D01*
G01*
X19796800Y12465300D01*
G75*
G02*
X19896800Y12365300I0J-100000D01*
G01*
X19896800Y12165300D01*
G75*
G02*
X19796800Y12065300I-100000J0D01*
G01*
X18521800Y12065300D01*
G75*
G02*
X18421800Y12165300I0J100000D01*
G01*
G37*
G36*
G01*
X18421800Y11515300D02*
X18421800Y11715300D01*
G75*
G02*
X18521800Y11815300I100000J0D01*
G01*
X19796800Y11815300D01*
G75*
G02*
X19896800Y11715300I0J-100000D01*
G01*
X19896800Y11515300D01*
G75*
G02*
X19796800Y11415300I-100000J0D01*
G01*
X18521800Y11415300D01*
G75*
G02*
X18421800Y11515300I0J100000D01*
G01*
G37*
G36*
G01*
X18421800Y10865300D02*
X18421800Y11065300D01*
G75*
G02*
X18521800Y11165300I100000J0D01*
G01*
X19796800Y11165300D01*
G75*
G02*
X19896800Y11065300I0J-100000D01*
G01*
X19896800Y10865300D01*
G75*
G02*
X19796800Y10765300I-100000J0D01*
G01*
X18521800Y10765300D01*
G75*
G02*
X18421800Y10865300I0J100000D01*
G01*
G37*
G36*
G01*
X18421800Y10215300D02*
X18421800Y10415300D01*
G75*
G02*
X18521800Y10515300I100000J0D01*
G01*
X19796800Y10515300D01*
G75*
G02*
X19896800Y10415300I0J-100000D01*
G01*
X19896800Y10215300D01*
G75*
G02*
X19796800Y10115300I-100000J0D01*
G01*
X18521800Y10115300D01*
G75*
G02*
X18421800Y10215300I0J100000D01*
G01*
G37*
G36*
G01*
X18421800Y9565300D02*
X18421800Y9765300D01*
G75*
G02*
X18521800Y9865300I100000J0D01*
G01*
X19796800Y9865300D01*
G75*
G02*
X19896800Y9765300I0J-100000D01*
G01*
X19896800Y9565300D01*
G75*
G02*
X19796800Y9465300I-100000J0D01*
G01*
X18521800Y9465300D01*
G75*
G02*
X18421800Y9565300I0J100000D01*
G01*
G37*
G36*
G01*
X18421800Y8915300D02*
X18421800Y9115300D01*
G75*
G02*
X18521800Y9215300I100000J0D01*
G01*
X19796800Y9215300D01*
G75*
G02*
X19896800Y9115300I0J-100000D01*
G01*
X19896800Y8915300D01*
G75*
G02*
X19796800Y8815300I-100000J0D01*
G01*
X18521800Y8815300D01*
G75*
G02*
X18421800Y8915300I0J100000D01*
G01*
G37*
G36*
G01*
X3585800Y35249300D02*
X4135800Y35249300D01*
G75*
G02*
X4335800Y35049300I0J-200000D01*
G01*
X4335800Y34649300D01*
G75*
G02*
X4135800Y34449300I-200000J0D01*
G01*
X3585800Y34449300D01*
G75*
G02*
X3385800Y34649300I0J200000D01*
G01*
X3385800Y35049300D01*
G75*
G02*
X3585800Y35249300I200000J0D01*
G01*
G37*
G36*
G01*
X3585800Y36899300D02*
X4135800Y36899300D01*
G75*
G02*
X4335800Y36699300I0J-200000D01*
G01*
X4335800Y36299300D01*
G75*
G02*
X4135800Y36099300I-200000J0D01*
G01*
X3585800Y36099300D01*
G75*
G02*
X3385800Y36299300I0J200000D01*
G01*
X3385800Y36699300D01*
G75*
G02*
X3585800Y36899300I200000J0D01*
G01*
G37*
G36*
G01*
X40190300Y11294300D02*
X40190300Y11794300D01*
G75*
G02*
X40415300Y12019300I225000J0D01*
G01*
X40865300Y12019300D01*
G75*
G02*
X41090300Y11794300I0J-225000D01*
G01*
X41090300Y11294300D01*
G75*
G02*
X40865300Y11069300I-225000J0D01*
G01*
X40415300Y11069300D01*
G75*
G02*
X40190300Y11294300I0J225000D01*
G01*
G37*
G36*
G01*
X38640300Y11294300D02*
X38640300Y11794300D01*
G75*
G02*
X38865300Y12019300I225000J0D01*
G01*
X39315300Y12019300D01*
G75*
G02*
X39540300Y11794300I0J-225000D01*
G01*
X39540300Y11294300D01*
G75*
G02*
X39315300Y11069300I-225000J0D01*
G01*
X38865300Y11069300D01*
G75*
G02*
X38640300Y11294300I0J225000D01*
G01*
G37*
G36*
G01*
X40253800Y5515800D02*
X40253800Y6015800D01*
G75*
G02*
X40478800Y6240800I225000J0D01*
G01*
X40928800Y6240800D01*
G75*
G02*
X41153800Y6015800I0J-225000D01*
G01*
X41153800Y5515800D01*
G75*
G02*
X40928800Y5290800I-225000J0D01*
G01*
X40478800Y5290800D01*
G75*
G02*
X40253800Y5515800I0J225000D01*
G01*
G37*
G36*
G01*
X38703800Y5515800D02*
X38703800Y6015800D01*
G75*
G02*
X38928800Y6240800I225000J0D01*
G01*
X39378800Y6240800D01*
G75*
G02*
X39603800Y6015800I0J-225000D01*
G01*
X39603800Y5515800D01*
G75*
G02*
X39378800Y5290800I-225000J0D01*
G01*
X38928800Y5290800D01*
G75*
G02*
X38703800Y5515800I0J225000D01*
G01*
G37*
G36*
G01*
X4451800Y33409300D02*
X4451800Y32859300D01*
G75*
G02*
X4251800Y32659300I-200000J0D01*
G01*
X3851800Y32659300D01*
G75*
G02*
X3651800Y32859300I0J200000D01*
G01*
X3651800Y33409300D01*
G75*
G02*
X3851800Y33609300I200000J0D01*
G01*
X4251800Y33609300D01*
G75*
G02*
X4451800Y33409300I0J-200000D01*
G01*
G37*
G36*
G01*
X6101800Y33409300D02*
X6101800Y32859300D01*
G75*
G02*
X5901800Y32659300I-200000J0D01*
G01*
X5501800Y32659300D01*
G75*
G02*
X5301800Y32859300I0J200000D01*
G01*
X5301800Y33409300D01*
G75*
G02*
X5501800Y33609300I200000J0D01*
G01*
X5901800Y33609300D01*
G75*
G02*
X6101800Y33409300I0J-200000D01*
G01*
G37*
G36*
G01*
X5913800Y36099300D02*
X5363800Y36099300D01*
G75*
G02*
X5163800Y36299300I0J200000D01*
G01*
X5163800Y36699300D01*
G75*
G02*
X5363800Y36899300I200000J0D01*
G01*
X5913800Y36899300D01*
G75*
G02*
X6113800Y36699300I0J-200000D01*
G01*
X6113800Y36299300D01*
G75*
G02*
X5913800Y36099300I-200000J0D01*
G01*
G37*
G36*
G01*
X5913800Y34449300D02*
X5363800Y34449300D01*
G75*
G02*
X5163800Y34649300I0J200000D01*
G01*
X5163800Y35049300D01*
G75*
G02*
X5363800Y35249300I200000J0D01*
G01*
X5913800Y35249300D01*
G75*
G02*
X6113800Y35049300I0J-200000D01*
G01*
X6113800Y34649300D01*
G75*
G02*
X5913800Y34449300I-200000J0D01*
G01*
G37*
G36*
G01*
X25002300Y19997300D02*
X24502300Y19997300D01*
G75*
G02*
X24277300Y20222300I0J225000D01*
G01*
X24277300Y20672300D01*
G75*
G02*
X24502300Y20897300I225000J0D01*
G01*
X25002300Y20897300D01*
G75*
G02*
X25227300Y20672300I0J-225000D01*
G01*
X25227300Y20222300D01*
G75*
G02*
X25002300Y19997300I-225000J0D01*
G01*
G37*
G36*
G01*
X25002300Y18447300D02*
X24502300Y18447300D01*
G75*
G02*
X24277300Y18672300I0J225000D01*
G01*
X24277300Y19122300D01*
G75*
G02*
X24502300Y19347300I225000J0D01*
G01*
X25002300Y19347300D01*
G75*
G02*
X25227300Y19122300I0J-225000D01*
G01*
X25227300Y18672300D01*
G75*
G02*
X25002300Y18447300I-225000J0D01*
G01*
G37*
G36*
G01*
X18723800Y17315300D02*
X19223800Y17315300D01*
G75*
G02*
X19448800Y17090300I0J-225000D01*
G01*
X19448800Y16640300D01*
G75*
G02*
X19223800Y16415300I-225000J0D01*
G01*
X18723800Y16415300D01*
G75*
G02*
X18498800Y16640300I0J225000D01*
G01*
X18498800Y17090300D01*
G75*
G02*
X18723800Y17315300I225000J0D01*
G01*
G37*
G36*
G01*
X18723800Y18865300D02*
X19223800Y18865300D01*
G75*
G02*
X19448800Y18640300I0J-225000D01*
G01*
X19448800Y18190300D01*
G75*
G02*
X19223800Y17965300I-225000J0D01*
G01*
X18723800Y17965300D01*
G75*
G02*
X18498800Y18190300I0J225000D01*
G01*
X18498800Y18640300D01*
G75*
G02*
X18723800Y18865300I225000J0D01*
G01*
G37*
G36*
G01*
X33114800Y40479300D02*
X33114800Y41029300D01*
G75*
G02*
X33314800Y41229300I200000J0D01*
G01*
X33714800Y41229300D01*
G75*
G02*
X33914800Y41029300I0J-200000D01*
G01*
X33914800Y40479300D01*
G75*
G02*
X33714800Y40279300I-200000J0D01*
G01*
X33314800Y40279300D01*
G75*
G02*
X33114800Y40479300I0J200000D01*
G01*
G37*
G36*
G01*
X31464800Y40479300D02*
X31464800Y41029300D01*
G75*
G02*
X31664800Y41229300I200000J0D01*
G01*
X32064800Y41229300D01*
G75*
G02*
X32264800Y41029300I0J-200000D01*
G01*
X32264800Y40479300D01*
G75*
G02*
X32064800Y40279300I-200000J0D01*
G01*
X31664800Y40279300D01*
G75*
G02*
X31464800Y40479300I0J200000D01*
G01*
G37*
G36*
G01*
X32733800Y34256300D02*
X32733800Y34806300D01*
G75*
G02*
X32933800Y35006300I200000J0D01*
G01*
X33333800Y35006300D01*
G75*
G02*
X33533800Y34806300I0J-200000D01*
G01*
X33533800Y34256300D01*
G75*
G02*
X33333800Y34056300I-200000J0D01*
G01*
X32933800Y34056300D01*
G75*
G02*
X32733800Y34256300I0J200000D01*
G01*
G37*
G36*
G01*
X31083800Y34256300D02*
X31083800Y34806300D01*
G75*
G02*
X31283800Y35006300I200000J0D01*
G01*
X31683800Y35006300D01*
G75*
G02*
X31883800Y34806300I0J-200000D01*
G01*
X31883800Y34256300D01*
G75*
G02*
X31683800Y34056300I-200000J0D01*
G01*
X31283800Y34056300D01*
G75*
G02*
X31083800Y34256300I0J200000D01*
G01*
G37*
G36*
G01*
X34527300Y37523300D02*
X34027300Y37523300D01*
G75*
G02*
X33802300Y37748300I0J225000D01*
G01*
X33802300Y38198300D01*
G75*
G02*
X34027300Y38423300I225000J0D01*
G01*
X34527300Y38423300D01*
G75*
G02*
X34752300Y38198300I0J-225000D01*
G01*
X34752300Y37748300D01*
G75*
G02*
X34527300Y37523300I-225000J0D01*
G01*
G37*
G36*
G01*
X34527300Y35973300D02*
X34027300Y35973300D01*
G75*
G02*
X33802300Y36198300I0J225000D01*
G01*
X33802300Y36648300D01*
G75*
G02*
X34027300Y36873300I225000J0D01*
G01*
X34527300Y36873300D01*
G75*
G02*
X34752300Y36648300I0J-225000D01*
G01*
X34752300Y36198300D01*
G75*
G02*
X34527300Y35973300I-225000J0D01*
G01*
G37*
G36*
G01*
X31542800Y37523300D02*
X31042800Y37523300D01*
G75*
G02*
X30817800Y37748300I0J225000D01*
G01*
X30817800Y38198300D01*
G75*
G02*
X31042800Y38423300I225000J0D01*
G01*
X31542800Y38423300D01*
G75*
G02*
X31767800Y38198300I0J-225000D01*
G01*
X31767800Y37748300D01*
G75*
G02*
X31542800Y37523300I-225000J0D01*
G01*
G37*
G36*
G01*
X31542800Y35973300D02*
X31042800Y35973300D01*
G75*
G02*
X30817800Y36198300I0J225000D01*
G01*
X30817800Y36648300D01*
G75*
G02*
X31042800Y36873300I225000J0D01*
G01*
X31542800Y36873300D01*
G75*
G02*
X31767800Y36648300I0J-225000D01*
G01*
X31767800Y36198300D01*
G75*
G02*
X31542800Y35973300I-225000J0D01*
G01*
G37*
G36*
G01*
X37384800Y38158300D02*
X36884800Y38158300D01*
G75*
G02*
X36659800Y38383300I0J225000D01*
G01*
X36659800Y38833300D01*
G75*
G02*
X36884800Y39058300I225000J0D01*
G01*
X37384800Y39058300D01*
G75*
G02*
X37609800Y38833300I0J-225000D01*
G01*
X37609800Y38383300D01*
G75*
G02*
X37384800Y38158300I-225000J0D01*
G01*
G37*
G36*
G01*
X37384800Y36608300D02*
X36884800Y36608300D01*
G75*
G02*
X36659800Y36833300I0J225000D01*
G01*
X36659800Y37283300D01*
G75*
G02*
X36884800Y37508300I225000J0D01*
G01*
X37384800Y37508300D01*
G75*
G02*
X37609800Y37283300I0J-225000D01*
G01*
X37609800Y36833300D01*
G75*
G02*
X37384800Y36608300I-225000J0D01*
G01*
G37*
G36*
G01*
X16758800Y23232300D02*
X16758800Y23732300D01*
G75*
G02*
X16983800Y23957300I225000J0D01*
G01*
X17433800Y23957300D01*
G75*
G02*
X17658800Y23732300I0J-225000D01*
G01*
X17658800Y23232300D01*
G75*
G02*
X17433800Y23007300I-225000J0D01*
G01*
X16983800Y23007300D01*
G75*
G02*
X16758800Y23232300I0J225000D01*
G01*
G37*
G36*
G01*
X15208800Y23232300D02*
X15208800Y23732300D01*
G75*
G02*
X15433800Y23957300I225000J0D01*
G01*
X15883800Y23957300D01*
G75*
G02*
X16108800Y23732300I0J-225000D01*
G01*
X16108800Y23232300D01*
G75*
G02*
X15883800Y23007300I-225000J0D01*
G01*
X15433800Y23007300D01*
G75*
G02*
X15208800Y23232300I0J225000D01*
G01*
G37*
G36*
G01*
X22017800Y26093300D02*
X21517800Y26093300D01*
G75*
G02*
X21292800Y26318300I0J225000D01*
G01*
X21292800Y26768300D01*
G75*
G02*
X21517800Y26993300I225000J0D01*
G01*
X22017800Y26993300D01*
G75*
G02*
X22242800Y26768300I0J-225000D01*
G01*
X22242800Y26318300D01*
G75*
G02*
X22017800Y26093300I-225000J0D01*
G01*
G37*
G36*
G01*
X22017800Y24543300D02*
X21517800Y24543300D01*
G75*
G02*
X21292800Y24768300I0J225000D01*
G01*
X21292800Y25218300D01*
G75*
G02*
X21517800Y25443300I225000J0D01*
G01*
X22017800Y25443300D01*
G75*
G02*
X22242800Y25218300I0J-225000D01*
G01*
X22242800Y24768300D01*
G75*
G02*
X22017800Y24543300I-225000J0D01*
G01*
G37*
G36*
G01*
X37003800Y24569300D02*
X36503800Y24569300D01*
G75*
G02*
X36278800Y24794300I0J225000D01*
G01*
X36278800Y25244300D01*
G75*
G02*
X36503800Y25469300I225000J0D01*
G01*
X37003800Y25469300D01*
G75*
G02*
X37228800Y25244300I0J-225000D01*
G01*
X37228800Y24794300D01*
G75*
G02*
X37003800Y24569300I-225000J0D01*
G01*
G37*
G36*
G01*
X37003800Y23019300D02*
X36503800Y23019300D01*
G75*
G02*
X36278800Y23244300I0J225000D01*
G01*
X36278800Y23694300D01*
G75*
G02*
X36503800Y23919300I225000J0D01*
G01*
X37003800Y23919300D01*
G75*
G02*
X37228800Y23694300I0J-225000D01*
G01*
X37228800Y23244300D01*
G75*
G02*
X37003800Y23019300I-225000J0D01*
G01*
G37*
G36*
G01*
X31487300Y22204800D02*
X31987300Y22204800D01*
G75*
G02*
X32212300Y21979800I0J-225000D01*
G01*
X32212300Y21529800D01*
G75*
G02*
X31987300Y21304800I-225000J0D01*
G01*
X31487300Y21304800D01*
G75*
G02*
X31262300Y21529800I0J225000D01*
G01*
X31262300Y21979800D01*
G75*
G02*
X31487300Y22204800I225000J0D01*
G01*
G37*
G36*
G01*
X31487300Y23754800D02*
X31987300Y23754800D01*
G75*
G02*
X32212300Y23529800I0J-225000D01*
G01*
X32212300Y23079800D01*
G75*
G02*
X31987300Y22854800I-225000J0D01*
G01*
X31487300Y22854800D01*
G75*
G02*
X31262300Y23079800I0J225000D01*
G01*
X31262300Y23529800D01*
G75*
G02*
X31487300Y23754800I225000J0D01*
G01*
G37*
G36*
G01*
X12298800Y22589300D02*
X12298800Y22089300D01*
G75*
G02*
X12073800Y21864300I-225000J0D01*
G01*
X11623800Y21864300D01*
G75*
G02*
X11398800Y22089300I0J225000D01*
G01*
X11398800Y22589300D01*
G75*
G02*
X11623800Y22814300I225000J0D01*
G01*
X12073800Y22814300D01*
G75*
G02*
X12298800Y22589300I0J-225000D01*
G01*
G37*
G36*
G01*
X13848800Y22589300D02*
X13848800Y22089300D01*
G75*
G02*
X13623800Y21864300I-225000J0D01*
G01*
X13173800Y21864300D01*
G75*
G02*
X12948800Y22089300I0J225000D01*
G01*
X12948800Y22589300D01*
G75*
G02*
X13173800Y22814300I225000J0D01*
G01*
X13623800Y22814300D01*
G75*
G02*
X13848800Y22589300I0J-225000D01*
G01*
G37*
D18*
X62578800Y28924300D03*
X62578800Y29574300D03*
X62578800Y30224300D03*
X62578800Y30874300D03*
X62578800Y31524300D03*
X62578800Y32174300D03*
X62578800Y32824300D03*
X62578800Y33474300D03*
X62578800Y34124300D03*
X62578800Y34774300D03*
X62578800Y35424300D03*
X62578800Y36074300D03*
X55378800Y36074300D03*
X55378800Y35424300D03*
X55378800Y34774300D03*
X55378800Y34124300D03*
X55378800Y33474300D03*
X55378800Y32824300D03*
X55378800Y32174300D03*
X55378800Y31524300D03*
X55378800Y30874300D03*
X55378800Y30224300D03*
X55378800Y29574300D03*
X55378800Y28924300D03*
X63975800Y3651300D03*
X63975800Y4301300D03*
X63975800Y4951300D03*
X63975800Y5601300D03*
X63975800Y6251300D03*
X63975800Y6901300D03*
X63975800Y7551300D03*
X63975800Y8201300D03*
X63975800Y8851300D03*
X63975800Y9501300D03*
X63975800Y10151300D03*
X63975800Y10801300D03*
X56775800Y10801300D03*
X56775800Y10151300D03*
X56775800Y9501300D03*
X56775800Y8851300D03*
X56775800Y8201300D03*
X56775800Y7551300D03*
X56775800Y6901300D03*
X56775800Y6251300D03*
X56775800Y5601300D03*
X56775800Y4951300D03*
X56775800Y4301300D03*
X56775800Y3651300D03*
G36*
G01*
X60478800Y39207300D02*
X60478800Y39507300D01*
G75*
G02*
X60628800Y39657300I150000J0D01*
G01*
X62278800Y39657300D01*
G75*
G02*
X62428800Y39507300I0J-150000D01*
G01*
X62428800Y39207300D01*
G75*
G02*
X62278800Y39057300I-150000J0D01*
G01*
X60628800Y39057300D01*
G75*
G02*
X60478800Y39207300I0J150000D01*
G01*
G37*
G36*
G01*
X60478800Y40477300D02*
X60478800Y40777300D01*
G75*
G02*
X60628800Y40927300I150000J0D01*
G01*
X62278800Y40927300D01*
G75*
G02*
X62428800Y40777300I0J-150000D01*
G01*
X62428800Y40477300D01*
G75*
G02*
X62278800Y40327300I-150000J0D01*
G01*
X60628800Y40327300D01*
G75*
G02*
X60478800Y40477300I0J150000D01*
G01*
G37*
G36*
G01*
X60478800Y41747300D02*
X60478800Y42047300D01*
G75*
G02*
X60628800Y42197300I150000J0D01*
G01*
X62278800Y42197300D01*
G75*
G02*
X62428800Y42047300I0J-150000D01*
G01*
X62428800Y41747300D01*
G75*
G02*
X62278800Y41597300I-150000J0D01*
G01*
X60628800Y41597300D01*
G75*
G02*
X60478800Y41747300I0J150000D01*
G01*
G37*
G36*
G01*
X60478800Y43017300D02*
X60478800Y43317300D01*
G75*
G02*
X60628800Y43467300I150000J0D01*
G01*
X62278800Y43467300D01*
G75*
G02*
X62428800Y43317300I0J-150000D01*
G01*
X62428800Y43017300D01*
G75*
G02*
X62278800Y42867300I-150000J0D01*
G01*
X60628800Y42867300D01*
G75*
G02*
X60478800Y43017300I0J150000D01*
G01*
G37*
G36*
G01*
X55528800Y43017300D02*
X55528800Y43317300D01*
G75*
G02*
X55678800Y43467300I150000J0D01*
G01*
X57328800Y43467300D01*
G75*
G02*
X57478800Y43317300I0J-150000D01*
G01*
X57478800Y43017300D01*
G75*
G02*
X57328800Y42867300I-150000J0D01*
G01*
X55678800Y42867300D01*
G75*
G02*
X55528800Y43017300I0J150000D01*
G01*
G37*
G36*
G01*
X55528800Y41747300D02*
X55528800Y42047300D01*
G75*
G02*
X55678800Y42197300I150000J0D01*
G01*
X57328800Y42197300D01*
G75*
G02*
X57478800Y42047300I0J-150000D01*
G01*
X57478800Y41747300D01*
G75*
G02*
X57328800Y41597300I-150000J0D01*
G01*
X55678800Y41597300D01*
G75*
G02*
X55528800Y41747300I0J150000D01*
G01*
G37*
G36*
G01*
X55528800Y40477300D02*
X55528800Y40777300D01*
G75*
G02*
X55678800Y40927300I150000J0D01*
G01*
X57328800Y40927300D01*
G75*
G02*
X57478800Y40777300I0J-150000D01*
G01*
X57478800Y40477300D01*
G75*
G02*
X57328800Y40327300I-150000J0D01*
G01*
X55678800Y40327300D01*
G75*
G02*
X55528800Y40477300I0J150000D01*
G01*
G37*
G36*
G01*
X55528800Y39207300D02*
X55528800Y39507300D01*
G75*
G02*
X55678800Y39657300I150000J0D01*
G01*
X57328800Y39657300D01*
G75*
G02*
X57478800Y39507300I0J-150000D01*
G01*
X57478800Y39207300D01*
G75*
G02*
X57328800Y39057300I-150000J0D01*
G01*
X55678800Y39057300D01*
G75*
G02*
X55528800Y39207300I0J150000D01*
G01*
G37*
G36*
G01*
X16008800Y25408300D02*
X16008800Y24858300D01*
G75*
G02*
X15808800Y24658300I-200000J0D01*
G01*
X15408800Y24658300D01*
G75*
G02*
X15208800Y24858300I0J200000D01*
G01*
X15208800Y25408300D01*
G75*
G02*
X15408800Y25608300I200000J0D01*
G01*
X15808800Y25608300D01*
G75*
G02*
X16008800Y25408300I0J-200000D01*
G01*
G37*
G36*
G01*
X17658800Y25408300D02*
X17658800Y24858300D01*
G75*
G02*
X17458800Y24658300I-200000J0D01*
G01*
X17058800Y24658300D01*
G75*
G02*
X16858800Y24858300I0J200000D01*
G01*
X16858800Y25408300D01*
G75*
G02*
X17058800Y25608300I200000J0D01*
G01*
X17458800Y25608300D01*
G75*
G02*
X17658800Y25408300I0J-200000D01*
G01*
G37*
G36*
G01*
X13999800Y34233300D02*
X14549800Y34233300D01*
G75*
G02*
X14749800Y34033300I0J-200000D01*
G01*
X14749800Y33633300D01*
G75*
G02*
X14549800Y33433300I-200000J0D01*
G01*
X13999800Y33433300D01*
G75*
G02*
X13799800Y33633300I0J200000D01*
G01*
X13799800Y34033300D01*
G75*
G02*
X13999800Y34233300I200000J0D01*
G01*
G37*
G36*
G01*
X13999800Y35883300D02*
X14549800Y35883300D01*
G75*
G02*
X14749800Y35683300I0J-200000D01*
G01*
X14749800Y35283300D01*
G75*
G02*
X14549800Y35083300I-200000J0D01*
G01*
X13999800Y35083300D01*
G75*
G02*
X13799800Y35283300I0J200000D01*
G01*
X13799800Y35683300D01*
G75*
G02*
X13999800Y35883300I200000J0D01*
G01*
G37*
G36*
G01*
X13999800Y31058300D02*
X14549800Y31058300D01*
G75*
G02*
X14749800Y30858300I0J-200000D01*
G01*
X14749800Y30458300D01*
G75*
G02*
X14549800Y30258300I-200000J0D01*
G01*
X13999800Y30258300D01*
G75*
G02*
X13799800Y30458300I0J200000D01*
G01*
X13799800Y30858300D01*
G75*
G02*
X13999800Y31058300I200000J0D01*
G01*
G37*
G36*
G01*
X13999800Y32708300D02*
X14549800Y32708300D01*
G75*
G02*
X14749800Y32508300I0J-200000D01*
G01*
X14749800Y32108300D01*
G75*
G02*
X14549800Y31908300I-200000J0D01*
G01*
X13999800Y31908300D01*
G75*
G02*
X13799800Y32108300I0J200000D01*
G01*
X13799800Y32508300D01*
G75*
G02*
X13999800Y32708300I200000J0D01*
G01*
G37*
G36*
G01*
X21238800Y36074800D02*
X21788800Y36074800D01*
G75*
G02*
X21988800Y35874800I0J-200000D01*
G01*
X21988800Y35474800D01*
G75*
G02*
X21788800Y35274800I-200000J0D01*
G01*
X21238800Y35274800D01*
G75*
G02*
X21038800Y35474800I0J200000D01*
G01*
X21038800Y35874800D01*
G75*
G02*
X21238800Y36074800I200000J0D01*
G01*
G37*
G36*
G01*
X21238800Y37724800D02*
X21788800Y37724800D01*
G75*
G02*
X21988800Y37524800I0J-200000D01*
G01*
X21988800Y37124800D01*
G75*
G02*
X21788800Y36924800I-200000J0D01*
G01*
X21238800Y36924800D01*
G75*
G02*
X21038800Y37124800I0J200000D01*
G01*
X21038800Y37524800D01*
G75*
G02*
X21238800Y37724800I200000J0D01*
G01*
G37*
G36*
G01*
X21238800Y32772800D02*
X21788800Y32772800D01*
G75*
G02*
X21988800Y32572800I0J-200000D01*
G01*
X21988800Y32172800D01*
G75*
G02*
X21788800Y31972800I-200000J0D01*
G01*
X21238800Y31972800D01*
G75*
G02*
X21038800Y32172800I0J200000D01*
G01*
X21038800Y32572800D01*
G75*
G02*
X21238800Y32772800I200000J0D01*
G01*
G37*
G36*
G01*
X21238800Y34422800D02*
X21788800Y34422800D01*
G75*
G02*
X21988800Y34222800I0J-200000D01*
G01*
X21988800Y33822800D01*
G75*
G02*
X21788800Y33622800I-200000J0D01*
G01*
X21238800Y33622800D01*
G75*
G02*
X21038800Y33822800I0J200000D01*
G01*
X21038800Y34222800D01*
G75*
G02*
X21238800Y34422800I200000J0D01*
G01*
G37*
G36*
G01*
X73029400Y36443100D02*
X73579400Y36443100D01*
G75*
G02*
X73779400Y36243100I0J-200000D01*
G01*
X73779400Y35843100D01*
G75*
G02*
X73579400Y35643100I-200000J0D01*
G01*
X73029400Y35643100D01*
G75*
G02*
X72829400Y35843100I0J200000D01*
G01*
X72829400Y36243100D01*
G75*
G02*
X73029400Y36443100I200000J0D01*
G01*
G37*
G36*
G01*
X73029400Y38093100D02*
X73579400Y38093100D01*
G75*
G02*
X73779400Y37893100I0J-200000D01*
G01*
X73779400Y37493100D01*
G75*
G02*
X73579400Y37293100I-200000J0D01*
G01*
X73029400Y37293100D01*
G75*
G02*
X72829400Y37493100I0J200000D01*
G01*
X72829400Y37893100D01*
G75*
G02*
X73029400Y38093100I200000J0D01*
G01*
G37*
G36*
G01*
X70006800Y36455800D02*
X70556800Y36455800D01*
G75*
G02*
X70756800Y36255800I0J-200000D01*
G01*
X70756800Y35855800D01*
G75*
G02*
X70556800Y35655800I-200000J0D01*
G01*
X70006800Y35655800D01*
G75*
G02*
X69806800Y35855800I0J200000D01*
G01*
X69806800Y36255800D01*
G75*
G02*
X70006800Y36455800I200000J0D01*
G01*
G37*
G36*
G01*
X70006800Y38105800D02*
X70556800Y38105800D01*
G75*
G02*
X70756800Y37905800I0J-200000D01*
G01*
X70756800Y37505800D01*
G75*
G02*
X70556800Y37305800I-200000J0D01*
G01*
X70006800Y37305800D01*
G75*
G02*
X69806800Y37505800I0J200000D01*
G01*
X69806800Y37905800D01*
G75*
G02*
X70006800Y38105800I200000J0D01*
G01*
G37*
G36*
G01*
X67022300Y36455800D02*
X67572300Y36455800D01*
G75*
G02*
X67772300Y36255800I0J-200000D01*
G01*
X67772300Y35855800D01*
G75*
G02*
X67572300Y35655800I-200000J0D01*
G01*
X67022300Y35655800D01*
G75*
G02*
X66822300Y35855800I0J200000D01*
G01*
X66822300Y36255800D01*
G75*
G02*
X67022300Y36455800I200000J0D01*
G01*
G37*
G36*
G01*
X67022300Y38105800D02*
X67572300Y38105800D01*
G75*
G02*
X67772300Y37905800I0J-200000D01*
G01*
X67772300Y37505800D01*
G75*
G02*
X67572300Y37305800I-200000J0D01*
G01*
X67022300Y37305800D01*
G75*
G02*
X66822300Y37505800I0J200000D01*
G01*
X66822300Y37905800D01*
G75*
G02*
X67022300Y38105800I200000J0D01*
G01*
G37*
G36*
G01*
X25394800Y2531300D02*
X25394800Y3031300D01*
G75*
G02*
X25619800Y3256300I225000J0D01*
G01*
X26069800Y3256300D01*
G75*
G02*
X26294800Y3031300I0J-225000D01*
G01*
X26294800Y2531300D01*
G75*
G02*
X26069800Y2306300I-225000J0D01*
G01*
X25619800Y2306300D01*
G75*
G02*
X25394800Y2531300I0J225000D01*
G01*
G37*
G36*
G01*
X23844800Y2531300D02*
X23844800Y3031300D01*
G75*
G02*
X24069800Y3256300I225000J0D01*
G01*
X24519800Y3256300D01*
G75*
G02*
X24744800Y3031300I0J-225000D01*
G01*
X24744800Y2531300D01*
G75*
G02*
X24519800Y2306300I-225000J0D01*
G01*
X24069800Y2306300D01*
G75*
G02*
X23844800Y2531300I0J225000D01*
G01*
G37*
G36*
G01*
X28300800Y3031300D02*
X28300800Y2531300D01*
G75*
G02*
X28075800Y2306300I-225000J0D01*
G01*
X27625800Y2306300D01*
G75*
G02*
X27400800Y2531300I0J225000D01*
G01*
X27400800Y3031300D01*
G75*
G02*
X27625800Y3256300I225000J0D01*
G01*
X28075800Y3256300D01*
G75*
G02*
X28300800Y3031300I0J-225000D01*
G01*
G37*
G36*
G01*
X29850800Y3031300D02*
X29850800Y2531300D01*
G75*
G02*
X29625800Y2306300I-225000J0D01*
G01*
X29175800Y2306300D01*
G75*
G02*
X28950800Y2531300I0J225000D01*
G01*
X28950800Y3031300D01*
G75*
G02*
X29175800Y3256300I225000J0D01*
G01*
X29625800Y3256300D01*
G75*
G02*
X29850800Y3031300I0J-225000D01*
G01*
G37*
G36*
G01*
X16310800Y39794300D02*
X16810800Y39794300D01*
G75*
G02*
X17035800Y39569300I0J-225000D01*
G01*
X17035800Y39119300D01*
G75*
G02*
X16810800Y38894300I-225000J0D01*
G01*
X16310800Y38894300D01*
G75*
G02*
X16085800Y39119300I0J225000D01*
G01*
X16085800Y39569300D01*
G75*
G02*
X16310800Y39794300I225000J0D01*
G01*
G37*
G36*
G01*
X16310800Y41344300D02*
X16810800Y41344300D01*
G75*
G02*
X17035800Y41119300I0J-225000D01*
G01*
X17035800Y40669300D01*
G75*
G02*
X16810800Y40444300I-225000J0D01*
G01*
X16310800Y40444300D01*
G75*
G02*
X16085800Y40669300I0J225000D01*
G01*
X16085800Y41119300D01*
G75*
G02*
X16310800Y41344300I225000J0D01*
G01*
G37*
G36*
G01*
X13389800Y39794300D02*
X13889800Y39794300D01*
G75*
G02*
X14114800Y39569300I0J-225000D01*
G01*
X14114800Y39119300D01*
G75*
G02*
X13889800Y38894300I-225000J0D01*
G01*
X13389800Y38894300D01*
G75*
G02*
X13164800Y39119300I0J225000D01*
G01*
X13164800Y39569300D01*
G75*
G02*
X13389800Y39794300I225000J0D01*
G01*
G37*
G36*
G01*
X13389800Y41344300D02*
X13889800Y41344300D01*
G75*
G02*
X14114800Y41119300I0J-225000D01*
G01*
X14114800Y40669300D01*
G75*
G02*
X13889800Y40444300I-225000J0D01*
G01*
X13389800Y40444300D01*
G75*
G02*
X13164800Y40669300I0J225000D01*
G01*
X13164800Y41119300D01*
G75*
G02*
X13389800Y41344300I225000J0D01*
G01*
G37*
G36*
G01*
X41564799Y36376300D02*
X42864801Y36376300D01*
G75*
G02*
X43114800Y36126301I0J-249999D01*
G01*
X43114800Y35476299D01*
G75*
G02*
X42864801Y35226300I-249999J0D01*
G01*
X41564799Y35226300D01*
G75*
G02*
X41314800Y35476299I0J249999D01*
G01*
X41314800Y36126301D01*
G75*
G02*
X41564799Y36376300I249999J0D01*
G01*
G37*
G36*
G01*
X41564799Y39326300D02*
X42864801Y39326300D01*
G75*
G02*
X43114800Y39076301I0J-249999D01*
G01*
X43114800Y38426299D01*
G75*
G02*
X42864801Y38176300I-249999J0D01*
G01*
X41564799Y38176300D01*
G75*
G02*
X41314800Y38426299I0J249999D01*
G01*
X41314800Y39076301D01*
G75*
G02*
X41564799Y39326300I249999J0D01*
G01*
G37*
G36*
G01*
X41564799Y41505300D02*
X42864801Y41505300D01*
G75*
G02*
X43114800Y41255301I0J-249999D01*
G01*
X43114800Y40605299D01*
G75*
G02*
X42864801Y40355300I-249999J0D01*
G01*
X41564799Y40355300D01*
G75*
G02*
X41314800Y40605299I0J249999D01*
G01*
X41314800Y41255301D01*
G75*
G02*
X41564799Y41505300I249999J0D01*
G01*
G37*
G36*
G01*
X41564799Y44455300D02*
X42864801Y44455300D01*
G75*
G02*
X43114800Y44205301I0J-249999D01*
G01*
X43114800Y43555299D01*
G75*
G02*
X42864801Y43305300I-249999J0D01*
G01*
X41564799Y43305300D01*
G75*
G02*
X41314800Y43555299I0J249999D01*
G01*
X41314800Y44205301D01*
G75*
G02*
X41564799Y44455300I249999J0D01*
G01*
G37*
G36*
G01*
X45266800Y37000300D02*
X45766800Y37000300D01*
G75*
G02*
X45991800Y36775300I0J-225000D01*
G01*
X45991800Y36325300D01*
G75*
G02*
X45766800Y36100300I-225000J0D01*
G01*
X45266800Y36100300D01*
G75*
G02*
X45041800Y36325300I0J225000D01*
G01*
X45041800Y36775300D01*
G75*
G02*
X45266800Y37000300I225000J0D01*
G01*
G37*
G36*
G01*
X45266800Y38550300D02*
X45766800Y38550300D01*
G75*
G02*
X45991800Y38325300I0J-225000D01*
G01*
X45991800Y37875300D01*
G75*
G02*
X45766800Y37650300I-225000J0D01*
G01*
X45266800Y37650300D01*
G75*
G02*
X45041800Y37875300I0J225000D01*
G01*
X45041800Y38325300D01*
G75*
G02*
X45266800Y38550300I225000J0D01*
G01*
G37*
G36*
G01*
X47798800Y37650300D02*
X47298800Y37650300D01*
G75*
G02*
X47073800Y37875300I0J225000D01*
G01*
X47073800Y38325300D01*
G75*
G02*
X47298800Y38550300I225000J0D01*
G01*
X47798800Y38550300D01*
G75*
G02*
X48023800Y38325300I0J-225000D01*
G01*
X48023800Y37875300D01*
G75*
G02*
X47798800Y37650300I-225000J0D01*
G01*
G37*
G36*
G01*
X47798800Y36100300D02*
X47298800Y36100300D01*
G75*
G02*
X47073800Y36325300I0J225000D01*
G01*
X47073800Y36775300D01*
G75*
G02*
X47298800Y37000300I225000J0D01*
G01*
X47798800Y37000300D01*
G75*
G02*
X48023800Y36775300I0J-225000D01*
G01*
X48023800Y36325300D01*
G75*
G02*
X47798800Y36100300I-225000J0D01*
G01*
G37*
G36*
G01*
X27665800Y19287300D02*
X27665800Y18787300D01*
G75*
G02*
X27440800Y18562300I-225000J0D01*
G01*
X26990800Y18562300D01*
G75*
G02*
X26765800Y18787300I0J225000D01*
G01*
X26765800Y19287300D01*
G75*
G02*
X26990800Y19512300I225000J0D01*
G01*
X27440800Y19512300D01*
G75*
G02*
X27665800Y19287300I0J-225000D01*
G01*
G37*
G36*
G01*
X29215800Y19287300D02*
X29215800Y18787300D01*
G75*
G02*
X28990800Y18562300I-225000J0D01*
G01*
X28540800Y18562300D01*
G75*
G02*
X28315800Y18787300I0J225000D01*
G01*
X28315800Y19287300D01*
G75*
G02*
X28540800Y19512300I225000J0D01*
G01*
X28990800Y19512300D01*
G75*
G02*
X29215800Y19287300I0J-225000D01*
G01*
G37*
G36*
G01*
X27665800Y20938300D02*
X27665800Y20438300D01*
G75*
G02*
X27440800Y20213300I-225000J0D01*
G01*
X26990800Y20213300D01*
G75*
G02*
X26765800Y20438300I0J225000D01*
G01*
X26765800Y20938300D01*
G75*
G02*
X26990800Y21163300I225000J0D01*
G01*
X27440800Y21163300D01*
G75*
G02*
X27665800Y20938300I0J-225000D01*
G01*
G37*
G36*
G01*
X29215800Y20938300D02*
X29215800Y20438300D01*
G75*
G02*
X28990800Y20213300I-225000J0D01*
G01*
X28540800Y20213300D01*
G75*
G02*
X28315800Y20438300I0J225000D01*
G01*
X28315800Y20938300D01*
G75*
G02*
X28540800Y21163300I225000J0D01*
G01*
X28990800Y21163300D01*
G75*
G02*
X29215800Y20938300I0J-225000D01*
G01*
G37*
G36*
G01*
X9579800Y34206300D02*
X10079800Y34206300D01*
G75*
G02*
X10304800Y33981300I0J-225000D01*
G01*
X10304800Y33531300D01*
G75*
G02*
X10079800Y33306300I-225000J0D01*
G01*
X9579800Y33306300D01*
G75*
G02*
X9354800Y33531300I0J225000D01*
G01*
X9354800Y33981300D01*
G75*
G02*
X9579800Y34206300I225000J0D01*
G01*
G37*
G36*
G01*
X9579800Y35756300D02*
X10079800Y35756300D01*
G75*
G02*
X10304800Y35531300I0J-225000D01*
G01*
X10304800Y35081300D01*
G75*
G02*
X10079800Y34856300I-225000J0D01*
G01*
X9579800Y34856300D01*
G75*
G02*
X9354800Y35081300I0J225000D01*
G01*
X9354800Y35531300D01*
G75*
G02*
X9579800Y35756300I225000J0D01*
G01*
G37*
G36*
G01*
X51362800Y4742300D02*
X51862800Y4742300D01*
G75*
G02*
X52087800Y4517300I0J-225000D01*
G01*
X52087800Y4067300D01*
G75*
G02*
X51862800Y3842300I-225000J0D01*
G01*
X51362800Y3842300D01*
G75*
G02*
X51137800Y4067300I0J225000D01*
G01*
X51137800Y4517300D01*
G75*
G02*
X51362800Y4742300I225000J0D01*
G01*
G37*
G36*
G01*
X51362800Y6292300D02*
X51862800Y6292300D01*
G75*
G02*
X52087800Y6067300I0J-225000D01*
G01*
X52087800Y5617300D01*
G75*
G02*
X51862800Y5392300I-225000J0D01*
G01*
X51362800Y5392300D01*
G75*
G02*
X51137800Y5617300I0J225000D01*
G01*
X51137800Y6067300D01*
G75*
G02*
X51362800Y6292300I225000J0D01*
G01*
G37*
G36*
G01*
X48441800Y4742300D02*
X48941800Y4742300D01*
G75*
G02*
X49166800Y4517300I0J-225000D01*
G01*
X49166800Y4067300D01*
G75*
G02*
X48941800Y3842300I-225000J0D01*
G01*
X48441800Y3842300D01*
G75*
G02*
X48216800Y4067300I0J225000D01*
G01*
X48216800Y4517300D01*
G75*
G02*
X48441800Y4742300I225000J0D01*
G01*
G37*
G36*
G01*
X48441800Y6292300D02*
X48941800Y6292300D01*
G75*
G02*
X49166800Y6067300I0J-225000D01*
G01*
X49166800Y5617300D01*
G75*
G02*
X48941800Y5392300I-225000J0D01*
G01*
X48441800Y5392300D01*
G75*
G02*
X48216800Y5617300I0J225000D01*
G01*
X48216800Y6067300D01*
G75*
G02*
X48441800Y6292300I225000J0D01*
G01*
G37*
G36*
G01*
X17636300Y36824800D02*
X17136300Y36824800D01*
G75*
G02*
X16911300Y37049800I0J225000D01*
G01*
X16911300Y37499800D01*
G75*
G02*
X17136300Y37724800I225000J0D01*
G01*
X17636300Y37724800D01*
G75*
G02*
X17861300Y37499800I0J-225000D01*
G01*
X17861300Y37049800D01*
G75*
G02*
X17636300Y36824800I-225000J0D01*
G01*
G37*
G36*
G01*
X17636300Y35274800D02*
X17136300Y35274800D01*
G75*
G02*
X16911300Y35499800I0J225000D01*
G01*
X16911300Y35949800D01*
G75*
G02*
X17136300Y36174800I225000J0D01*
G01*
X17636300Y36174800D01*
G75*
G02*
X17861300Y35949800I0J-225000D01*
G01*
X17861300Y35499800D01*
G75*
G02*
X17636300Y35274800I-225000J0D01*
G01*
G37*
G36*
G01*
X17136300Y32872800D02*
X17636300Y32872800D01*
G75*
G02*
X17861300Y32647800I0J-225000D01*
G01*
X17861300Y32197800D01*
G75*
G02*
X17636300Y31972800I-225000J0D01*
G01*
X17136300Y31972800D01*
G75*
G02*
X16911300Y32197800I0J225000D01*
G01*
X16911300Y32647800D01*
G75*
G02*
X17136300Y32872800I225000J0D01*
G01*
G37*
G36*
G01*
X17136300Y34422800D02*
X17636300Y34422800D01*
G75*
G02*
X17861300Y34197800I0J-225000D01*
G01*
X17861300Y33747800D01*
G75*
G02*
X17636300Y33522800I-225000J0D01*
G01*
X17136300Y33522800D01*
G75*
G02*
X16911300Y33747800I0J225000D01*
G01*
X16911300Y34197800D01*
G75*
G02*
X17136300Y34422800I225000J0D01*
G01*
G37*
M02*
