G04 #@! TF.GenerationSoftware,KiCad,Pcbnew,(5.1.12-1-10_14)*
G04 #@! TF.CreationDate,2022-04-11T16:53:27-05:00*
G04 #@! TF.ProjectId,bath_clamp,62617468-5f63-46c6-916d-702e6b696361,rev?*
G04 #@! TF.SameCoordinates,Original*
G04 #@! TF.FileFunction,AssemblyDrawing,Bot*
%FSLAX46Y46*%
G04 Gerber Fmt 4.6, Leading zero omitted, Abs format (unit mm)*
G04 Created by KiCad (PCBNEW (5.1.12-1-10_14)) date 2022-04-11 16:53:27*
%MOMM*%
%LPD*%
G01*
G04 APERTURE LIST*
%ADD10C,0.100000*%
%ADD11C,0.150000*%
%ADD12C,0.060000*%
%ADD13C,0.080000*%
%ADD14C,0.120000*%
%ADD15C,0.075000*%
G04 APERTURE END LIST*
D10*
X42938600Y46386500D02*
X41338600Y46386500D01*
X42938600Y45561500D02*
X42938600Y46386500D01*
X41338600Y45561500D02*
X42938600Y45561500D01*
X41338600Y46386500D02*
X41338600Y45561500D01*
X31591500Y9118500D02*
X31591500Y7518500D01*
X32416500Y9118500D02*
X31591500Y9118500D01*
X32416500Y7518500D02*
X32416500Y9118500D01*
X31591500Y7518500D02*
X32416500Y7518500D01*
X16761300Y37499800D02*
X16761300Y35499800D01*
X18011300Y37499800D02*
X16761300Y37499800D01*
X18011300Y35499800D02*
X18011300Y37499800D01*
X16761300Y35499800D02*
X18011300Y35499800D01*
X64801700Y42303800D02*
X64801700Y43903800D01*
X64001700Y42303800D02*
X64801700Y42303800D01*
X64001700Y43903800D02*
X64001700Y42303800D01*
X64801700Y43903800D02*
X64001700Y43903800D01*
X18942300Y40665300D02*
X18942300Y39065300D01*
X19767300Y40665300D02*
X18942300Y40665300D01*
X19767300Y39065300D02*
X19767300Y40665300D01*
X18942300Y39065300D02*
X19767300Y39065300D01*
X16014900Y42265700D02*
X19214900Y42265700D01*
X16014900Y43865700D02*
X16014900Y42265700D01*
X19214900Y43865700D02*
X16014900Y43865700D01*
X19214900Y42265700D02*
X19214900Y43865700D01*
X13779400Y42672200D02*
X13779400Y45872200D01*
X12179400Y42672200D02*
X13779400Y42672200D01*
X12179400Y45872200D02*
X12179400Y42672200D01*
X13779400Y45872200D02*
X12179400Y45872200D01*
X44824800Y15140300D02*
X48224800Y15140300D01*
X48224800Y15140300D02*
X48224800Y20140300D01*
X48224800Y20140300D02*
X43824800Y20140300D01*
X43824800Y20140300D02*
X43824800Y16140300D01*
X43824800Y16140300D02*
X44824800Y15140300D01*
X33801300Y23266300D02*
X33801300Y21666300D01*
X34626300Y23266300D02*
X33801300Y23266300D01*
X34626300Y21666300D02*
X34626300Y23266300D01*
X33801300Y21666300D02*
X34626300Y21666300D01*
X50311300Y25171300D02*
X50311300Y23571300D01*
X51136300Y25171300D02*
X50311300Y25171300D01*
X51136300Y23571300D02*
X51136300Y25171300D01*
X50311300Y23571300D02*
X51136300Y23571300D01*
X20777300Y19831300D02*
X22377300Y19831300D01*
X20777300Y20656300D02*
X20777300Y19831300D01*
X22377300Y20656300D02*
X20777300Y20656300D01*
X22377300Y19831300D02*
X22377300Y20656300D01*
X26250800Y26625300D02*
X24650800Y26625300D01*
X26250800Y25800300D02*
X26250800Y26625300D01*
X24650800Y25800300D02*
X26250800Y25800300D01*
X24650800Y26625300D02*
X24650800Y25800300D01*
X17741800Y29736800D02*
X16141800Y29736800D01*
X17741800Y28911800D02*
X17741800Y29736800D01*
X16141800Y28911800D02*
X17741800Y28911800D01*
X16141800Y29736800D02*
X16141800Y28911800D01*
X70878800Y7194800D02*
X72478800Y7194800D01*
X70878800Y8019800D02*
X70878800Y7194800D01*
X72478800Y8019800D02*
X70878800Y8019800D01*
X72478800Y7194800D02*
X72478800Y8019800D01*
X51601800Y37709300D02*
X51601800Y34909300D01*
X51601800Y34909300D02*
X53401800Y34909300D01*
X53401800Y34909300D02*
X53401800Y37709300D01*
X53401800Y37709300D02*
X51601800Y37709300D01*
X52501800Y37059300D02*
X52501800Y36659300D01*
X52501800Y36659300D02*
X51951800Y36659300D01*
X52501800Y36659300D02*
X53051800Y36659300D01*
X52501800Y36659300D02*
X52101800Y36059300D01*
X52101800Y36059300D02*
X52901800Y36059300D01*
X52901800Y36059300D02*
X52501800Y36659300D01*
X52501800Y36059300D02*
X52501800Y35559300D01*
X62269800Y22215300D02*
X62269800Y19415300D01*
X62269800Y19415300D02*
X64069800Y19415300D01*
X64069800Y19415300D02*
X64069800Y22215300D01*
X64069800Y22215300D02*
X62269800Y22215300D01*
X63169800Y21565300D02*
X63169800Y21165300D01*
X63169800Y21165300D02*
X62619800Y21165300D01*
X63169800Y21165300D02*
X63719800Y21165300D01*
X63169800Y21165300D02*
X62769800Y20565300D01*
X62769800Y20565300D02*
X63569800Y20565300D01*
X63569800Y20565300D02*
X63169800Y21165300D01*
X63169800Y20565300D02*
X63169800Y20065300D01*
X71557800Y11936300D02*
X68757800Y11936300D01*
X68757800Y11936300D02*
X68757800Y10136300D01*
X68757800Y10136300D02*
X71557800Y10136300D01*
X71557800Y10136300D02*
X71557800Y11936300D01*
X70907800Y11036300D02*
X70507800Y11036300D01*
X70507800Y11036300D02*
X70507800Y11586300D01*
X70507800Y11036300D02*
X70507800Y10486300D01*
X70507800Y11036300D02*
X69907800Y11436300D01*
X69907800Y11436300D02*
X69907800Y10636300D01*
X69907800Y10636300D02*
X70507800Y11036300D01*
X69907800Y11036300D02*
X69407800Y11036300D01*
X6362800Y9797800D02*
X6362800Y8972800D01*
X6362800Y8972800D02*
X7962800Y8972800D01*
X7962800Y8972800D02*
X7962800Y9797800D01*
X7962800Y9797800D02*
X6362800Y9797800D01*
X25031800Y43198800D02*
X25031800Y42373800D01*
X25031800Y42373800D02*
X26631800Y42373800D01*
X26631800Y42373800D02*
X26631800Y43198800D01*
X26631800Y43198800D02*
X25031800Y43198800D01*
X19570800Y29736800D02*
X19570800Y28911800D01*
X19570800Y28911800D02*
X21170800Y28911800D01*
X21170800Y28911800D02*
X21170800Y29736800D01*
X21170800Y29736800D02*
X19570800Y29736800D01*
X24650800Y29546300D02*
X24650800Y28721300D01*
X24650800Y28721300D02*
X26250800Y28721300D01*
X26250800Y28721300D02*
X26250800Y29546300D01*
X26250800Y29546300D02*
X24650800Y29546300D01*
X40728800Y9035800D02*
X39128800Y9035800D01*
X40728800Y8210800D02*
X40728800Y9035800D01*
X39128800Y8210800D02*
X40728800Y8210800D01*
X39128800Y9035800D02*
X39128800Y8210800D01*
X75704800Y3676900D02*
X77304800Y3676900D01*
X75704800Y4501900D02*
X75704800Y3676900D01*
X77304800Y4501900D02*
X75704800Y4501900D01*
X77304800Y3676900D02*
X77304800Y4501900D01*
X23202800Y6368800D02*
X21602800Y6368800D01*
X23202800Y5543800D02*
X23202800Y6368800D01*
X21602800Y5543800D02*
X23202800Y5543800D01*
X21602800Y6368800D02*
X21602800Y5543800D01*
X51200300Y18821300D02*
X51200300Y17221300D01*
X52025300Y18821300D02*
X51200300Y18821300D01*
X52025300Y17221300D02*
X52025300Y18821300D01*
X51200300Y17221300D02*
X52025300Y17221300D01*
X25031800Y5543800D02*
X26631800Y5543800D01*
X25031800Y6368800D02*
X25031800Y5543800D01*
X26631800Y6368800D02*
X25031800Y6368800D01*
X26631800Y5543800D02*
X26631800Y6368800D01*
X40671300Y14818300D02*
X39071300Y14818300D01*
X40671300Y13993300D02*
X40671300Y14818300D01*
X39071300Y13993300D02*
X40671300Y13993300D01*
X39071300Y14818300D02*
X39071300Y13993300D01*
X9283800Y36531800D02*
X10883800Y36531800D01*
X9283800Y37356800D02*
X9283800Y36531800D01*
X10883800Y37356800D02*
X9283800Y37356800D01*
X10883800Y36531800D02*
X10883800Y37356800D01*
X9163300Y41935300D02*
X9163300Y40335300D01*
X9988300Y41935300D02*
X9163300Y41935300D01*
X9988300Y40335300D02*
X9988300Y41935300D01*
X9163300Y40335300D02*
X9988300Y40335300D01*
X67657800Y6551300D02*
X67657800Y7401300D01*
X68157800Y7901300D02*
X69857800Y7901300D01*
X67657800Y6551300D02*
X69857800Y6551300D01*
X69857800Y6551300D02*
X69857800Y7901300D01*
X67657800Y7401300D02*
X68157800Y7901300D01*
X26250800Y22955300D02*
X26250800Y23755300D01*
X26250800Y23755300D02*
X24650800Y23755300D01*
X24650800Y23755300D02*
X24650800Y22955300D01*
X24650800Y22955300D02*
X26250800Y22955300D01*
X19821800Y9790300D02*
X20821800Y8790300D01*
X19821800Y13790300D02*
X19821800Y9790300D01*
X24221800Y13790300D02*
X19821800Y13790300D01*
X24221800Y8790300D02*
X24221800Y13790300D01*
X20821800Y8790300D02*
X24221800Y8790300D01*
X4273300Y36474300D02*
X3448300Y36474300D01*
X3448300Y36474300D02*
X3448300Y34874300D01*
X3448300Y34874300D02*
X4273300Y34874300D01*
X4273300Y34874300D02*
X4273300Y36474300D01*
X40665300Y11944300D02*
X39065300Y11944300D01*
X40665300Y11144300D02*
X40665300Y11944300D01*
X39065300Y11144300D02*
X40665300Y11144300D01*
X39065300Y11944300D02*
X39065300Y11144300D01*
X40728800Y6165800D02*
X39128800Y6165800D01*
X40728800Y5365800D02*
X40728800Y6165800D01*
X39128800Y5365800D02*
X40728800Y5365800D01*
X39128800Y6165800D02*
X39128800Y5365800D01*
X4076800Y32721800D02*
X5676800Y32721800D01*
X4076800Y33546800D02*
X4076800Y32721800D01*
X5676800Y33546800D02*
X4076800Y33546800D01*
X5676800Y32721800D02*
X5676800Y33546800D01*
X5226300Y36474300D02*
X5226300Y34874300D01*
X6051300Y36474300D02*
X5226300Y36474300D01*
X6051300Y34874300D02*
X6051300Y36474300D01*
X5226300Y34874300D02*
X6051300Y34874300D01*
X24352300Y20472300D02*
X24352300Y18872300D01*
X25152300Y20472300D02*
X24352300Y20472300D01*
X25152300Y18872300D02*
X25152300Y20472300D01*
X24352300Y18872300D02*
X25152300Y18872300D01*
X19373800Y16840300D02*
X19373800Y18440300D01*
X18573800Y16840300D02*
X19373800Y16840300D01*
X18573800Y18440300D02*
X18573800Y16840300D01*
X19373800Y18440300D02*
X18573800Y18440300D01*
X31889800Y41166800D02*
X31889800Y40341800D01*
X31889800Y40341800D02*
X33489800Y40341800D01*
X33489800Y40341800D02*
X33489800Y41166800D01*
X33489800Y41166800D02*
X31889800Y41166800D01*
X31508800Y34943800D02*
X31508800Y34118800D01*
X31508800Y34118800D02*
X33108800Y34118800D01*
X33108800Y34118800D02*
X33108800Y34943800D01*
X33108800Y34943800D02*
X31508800Y34943800D01*
X33877300Y36398300D02*
X34677300Y36398300D01*
X34677300Y36398300D02*
X34677300Y37998300D01*
X34677300Y37998300D02*
X33877300Y37998300D01*
X33877300Y37998300D02*
X33877300Y36398300D01*
X30892800Y36398300D02*
X31692800Y36398300D01*
X31692800Y36398300D02*
X31692800Y37998300D01*
X31692800Y37998300D02*
X30892800Y37998300D01*
X30892800Y37998300D02*
X30892800Y36398300D01*
X36734800Y37033300D02*
X37534800Y37033300D01*
X37534800Y37033300D02*
X37534800Y38633300D01*
X37534800Y38633300D02*
X36734800Y38633300D01*
X36734800Y38633300D02*
X36734800Y37033300D01*
X15633800Y23882300D02*
X15633800Y23082300D01*
X15633800Y23082300D02*
X17233800Y23082300D01*
X17233800Y23082300D02*
X17233800Y23882300D01*
X17233800Y23882300D02*
X15633800Y23882300D01*
X21367800Y24968300D02*
X22167800Y24968300D01*
X22167800Y24968300D02*
X22167800Y26568300D01*
X22167800Y26568300D02*
X21367800Y26568300D01*
X21367800Y26568300D02*
X21367800Y24968300D01*
X36353800Y23444300D02*
X37153800Y23444300D01*
X37153800Y23444300D02*
X37153800Y25044300D01*
X37153800Y25044300D02*
X36353800Y25044300D01*
X36353800Y25044300D02*
X36353800Y23444300D01*
X32137300Y23329800D02*
X31337300Y23329800D01*
X31337300Y23329800D02*
X31337300Y21729800D01*
X31337300Y21729800D02*
X32137300Y21729800D01*
X32137300Y21729800D02*
X32137300Y23329800D01*
X13423800Y21939300D02*
X13423800Y22739300D01*
X13423800Y22739300D02*
X11823800Y22739300D01*
X11823800Y22739300D02*
X11823800Y21939300D01*
X11823800Y21939300D02*
X13423800Y21939300D01*
D11*
X56328800Y29399300D02*
X57328800Y28399300D01*
X56328800Y36599300D02*
X56328800Y29399300D01*
X61628800Y36599300D02*
X56328800Y36599300D01*
X61628800Y28399300D02*
X61628800Y36599300D01*
X57328800Y28399300D02*
X61628800Y28399300D01*
X57725800Y4126300D02*
X58725800Y3126300D01*
X57725800Y11326300D02*
X57725800Y4126300D01*
X63025800Y11326300D02*
X57725800Y11326300D01*
X63025800Y3126300D02*
X63025800Y11326300D01*
X58725800Y3126300D02*
X63025800Y3126300D01*
D10*
X57028800Y39787300D02*
X58003800Y38812300D01*
X57028800Y43712300D02*
X57028800Y39787300D01*
X60928800Y43712300D02*
X57028800Y43712300D01*
X60928800Y38812300D02*
X60928800Y43712300D01*
X58003800Y38812300D02*
X60928800Y38812300D01*
X15633800Y24720800D02*
X17233800Y24720800D01*
X15633800Y25545800D02*
X15633800Y24720800D01*
X17233800Y25545800D02*
X15633800Y25545800D01*
X17233800Y24720800D02*
X17233800Y25545800D01*
X14687300Y33858300D02*
X14687300Y35458300D01*
X13862300Y33858300D02*
X14687300Y33858300D01*
X13862300Y35458300D02*
X13862300Y33858300D01*
X14687300Y35458300D02*
X13862300Y35458300D01*
X14687300Y30683300D02*
X14687300Y32283300D01*
X13862300Y30683300D02*
X14687300Y30683300D01*
X13862300Y32283300D02*
X13862300Y30683300D01*
X14687300Y32283300D02*
X13862300Y32283300D01*
X23212500Y32400000D02*
X23212500Y34000000D01*
X22387500Y32400000D02*
X23212500Y32400000D01*
X22387500Y34000000D02*
X22387500Y32400000D01*
X23212500Y34000000D02*
X22387500Y34000000D01*
X20387500Y34000000D02*
X20387500Y32400000D01*
X21212500Y34000000D02*
X20387500Y34000000D01*
X21212500Y32400000D02*
X21212500Y34000000D01*
X20387500Y32400000D02*
X21212500Y32400000D01*
X73716900Y36068100D02*
X73716900Y37668100D01*
X72891900Y36068100D02*
X73716900Y36068100D01*
X72891900Y37668100D02*
X72891900Y36068100D01*
X73716900Y37668100D02*
X72891900Y37668100D01*
X70694300Y36080800D02*
X70694300Y37680800D01*
X69869300Y36080800D02*
X70694300Y36080800D01*
X69869300Y37680800D02*
X69869300Y36080800D01*
X70694300Y37680800D02*
X69869300Y37680800D01*
X67709800Y36080800D02*
X67709800Y37680800D01*
X66884800Y36080800D02*
X67709800Y36080800D01*
X66884800Y37680800D02*
X66884800Y36080800D01*
X67709800Y37680800D02*
X66884800Y37680800D01*
X25869800Y3181300D02*
X24269800Y3181300D01*
X25869800Y2381300D02*
X25869800Y3181300D01*
X24269800Y2381300D02*
X25869800Y2381300D01*
X24269800Y3181300D02*
X24269800Y2381300D01*
X27825800Y2381300D02*
X29425800Y2381300D01*
X27825800Y3181300D02*
X27825800Y2381300D01*
X29425800Y3181300D02*
X27825800Y3181300D01*
X29425800Y2381300D02*
X29425800Y3181300D01*
X16960800Y39319300D02*
X16960800Y40919300D01*
X16160800Y39319300D02*
X16960800Y39319300D01*
X16160800Y40919300D02*
X16160800Y39319300D01*
X16960800Y40919300D02*
X16160800Y40919300D01*
X14039800Y39319300D02*
X14039800Y40919300D01*
X13239800Y39319300D02*
X14039800Y39319300D01*
X13239800Y40919300D02*
X13239800Y39319300D01*
X14039800Y40919300D02*
X13239800Y40919300D01*
X43014800Y35676300D02*
X43014800Y38876300D01*
X41414800Y35676300D02*
X43014800Y35676300D01*
X41414800Y38876300D02*
X41414800Y35676300D01*
X43014800Y38876300D02*
X41414800Y38876300D01*
X43014800Y40805300D02*
X43014800Y44005300D01*
X41414800Y40805300D02*
X43014800Y40805300D01*
X41414800Y44005300D02*
X41414800Y40805300D01*
X43014800Y44005300D02*
X41414800Y44005300D01*
X45916800Y36525300D02*
X45916800Y38125300D01*
X45116800Y36525300D02*
X45916800Y36525300D01*
X45116800Y38125300D02*
X45116800Y36525300D01*
X45916800Y38125300D02*
X45116800Y38125300D01*
X47148800Y38125300D02*
X47148800Y36525300D01*
X47948800Y38125300D02*
X47148800Y38125300D01*
X47948800Y36525300D02*
X47948800Y38125300D01*
X47148800Y36525300D02*
X47948800Y36525300D01*
X27190800Y18637300D02*
X28790800Y18637300D01*
X27190800Y19437300D02*
X27190800Y18637300D01*
X28790800Y19437300D02*
X27190800Y19437300D01*
X28790800Y18637300D02*
X28790800Y19437300D01*
X27190800Y20288300D02*
X28790800Y20288300D01*
X27190800Y21088300D02*
X27190800Y20288300D01*
X28790800Y21088300D02*
X27190800Y21088300D01*
X28790800Y20288300D02*
X28790800Y21088300D01*
X10229800Y33731300D02*
X10229800Y35331300D01*
X9429800Y33731300D02*
X10229800Y33731300D01*
X9429800Y35331300D02*
X9429800Y33731300D01*
X10229800Y35331300D02*
X9429800Y35331300D01*
X49091800Y4267300D02*
X49091800Y5867300D01*
X48291800Y4267300D02*
X49091800Y4267300D01*
X48291800Y5867300D02*
X48291800Y4267300D01*
X49091800Y5867300D02*
X48291800Y5867300D01*
X17786300Y32397800D02*
X17786300Y33997800D01*
X16986300Y32397800D02*
X17786300Y32397800D01*
X16986300Y33997800D02*
X16986300Y32397800D01*
X17786300Y33997800D02*
X16986300Y33997800D01*
D11*
X42186219Y47951619D02*
X42090980Y47951619D01*
X41995742Y47904000D01*
X41948123Y47856380D01*
X41900504Y47761142D01*
X41852885Y47570666D01*
X41852885Y47332571D01*
X41900504Y47142095D01*
X41948123Y47046857D01*
X41995742Y46999238D01*
X42090980Y46951619D01*
X42186219Y46951619D01*
X42281457Y46999238D01*
X42329076Y47046857D01*
X42376695Y47142095D01*
X42424314Y47332571D01*
X42424314Y47570666D01*
X42376695Y47761142D01*
X42329076Y47856380D01*
X42281457Y47904000D01*
X42186219Y47951619D01*
D12*
X42395742Y45793047D02*
X42529076Y45983523D01*
X42624314Y45793047D02*
X42624314Y46193047D01*
X42471933Y46193047D01*
X42433838Y46174000D01*
X42414790Y46154952D01*
X42395742Y46116857D01*
X42395742Y46059714D01*
X42414790Y46021619D01*
X42433838Y46002571D01*
X42471933Y45983523D01*
X42624314Y45983523D01*
X42262409Y46193047D02*
X41995742Y46193047D01*
X42167171Y45793047D01*
X41881457Y46193047D02*
X41633838Y46193047D01*
X41767171Y46040666D01*
X41710028Y46040666D01*
X41671933Y46021619D01*
X41652885Y46002571D01*
X41633838Y45964476D01*
X41633838Y45869238D01*
X41652885Y45831142D01*
X41671933Y45812095D01*
X41710028Y45793047D01*
X41824314Y45793047D01*
X41862409Y45812095D01*
X41881457Y45831142D01*
D11*
X30026380Y8366119D02*
X30026380Y8270880D01*
X30074000Y8175642D01*
X30121619Y8128023D01*
X30216857Y8080404D01*
X30407333Y8032785D01*
X30645428Y8032785D01*
X30835904Y8080404D01*
X30931142Y8128023D01*
X30978761Y8175642D01*
X31026380Y8270880D01*
X31026380Y8366119D01*
X30978761Y8461357D01*
X30931142Y8508976D01*
X30835904Y8556595D01*
X30645428Y8604214D01*
X30407333Y8604214D01*
X30216857Y8556595D01*
X30121619Y8508976D01*
X30074000Y8461357D01*
X30026380Y8366119D01*
D12*
X32184952Y8575642D02*
X31994476Y8708976D01*
X32184952Y8804214D02*
X31784952Y8804214D01*
X31784952Y8651833D01*
X31804000Y8613738D01*
X31823047Y8594690D01*
X31861142Y8575642D01*
X31918285Y8575642D01*
X31956380Y8594690D01*
X31975428Y8613738D01*
X31994476Y8651833D01*
X31994476Y8804214D01*
X31784952Y8232785D02*
X31784952Y8308976D01*
X31804000Y8347071D01*
X31823047Y8366119D01*
X31880190Y8404214D01*
X31956380Y8423261D01*
X32108761Y8423261D01*
X32146857Y8404214D01*
X32165904Y8385166D01*
X32184952Y8347071D01*
X32184952Y8270880D01*
X32165904Y8232785D01*
X32146857Y8213738D01*
X32108761Y8194690D01*
X32013523Y8194690D01*
X31975428Y8213738D01*
X31956380Y8232785D01*
X31937333Y8270880D01*
X31937333Y8347071D01*
X31956380Y8385166D01*
X31975428Y8404214D01*
X32013523Y8423261D01*
X31956380Y7966119D02*
X31937333Y8004214D01*
X31918285Y8023261D01*
X31880190Y8042309D01*
X31861142Y8042309D01*
X31823047Y8023261D01*
X31804000Y8004214D01*
X31784952Y7966119D01*
X31784952Y7889928D01*
X31804000Y7851833D01*
X31823047Y7832785D01*
X31861142Y7813738D01*
X31880190Y7813738D01*
X31918285Y7832785D01*
X31937333Y7851833D01*
X31956380Y7889928D01*
X31956380Y7966119D01*
X31975428Y8004214D01*
X31994476Y8023261D01*
X32032571Y8042309D01*
X32108761Y8042309D01*
X32146857Y8023261D01*
X32165904Y8004214D01*
X32184952Y7966119D01*
X32184952Y7889928D01*
X32165904Y7851833D01*
X32146857Y7832785D01*
X32108761Y7813738D01*
X32032571Y7813738D01*
X31994476Y7832785D01*
X31975428Y7851833D01*
X31956380Y7889928D01*
D11*
X16158680Y37142657D02*
X16158680Y37714085D01*
X16158680Y37428371D02*
X15158680Y37428371D01*
X15301538Y37523609D01*
X15396776Y37618847D01*
X15444395Y37714085D01*
X15158680Y36523609D02*
X15158680Y36428371D01*
X15206300Y36333133D01*
X15253919Y36285514D01*
X15349157Y36237895D01*
X15539633Y36190276D01*
X15777728Y36190276D01*
X15968204Y36237895D01*
X16063442Y36285514D01*
X16111061Y36333133D01*
X16158680Y36428371D01*
X16158680Y36523609D01*
X16111061Y36618847D01*
X16063442Y36666466D01*
X15968204Y36714085D01*
X15777728Y36761704D01*
X15539633Y36761704D01*
X15349157Y36714085D01*
X15253919Y36666466D01*
X15206300Y36618847D01*
X15158680Y36523609D01*
X15492014Y35333133D02*
X16158680Y35333133D01*
X15492014Y35761704D02*
X16015823Y35761704D01*
X16111061Y35714085D01*
X16158680Y35618847D01*
X16158680Y35475990D01*
X16111061Y35380752D01*
X16063442Y35333133D01*
D13*
X17564871Y36583133D02*
X17588680Y36606942D01*
X17612490Y36678371D01*
X17612490Y36725990D01*
X17588680Y36797419D01*
X17541061Y36845038D01*
X17493442Y36868847D01*
X17398204Y36892657D01*
X17326776Y36892657D01*
X17231538Y36868847D01*
X17183919Y36845038D01*
X17136300Y36797419D01*
X17112490Y36725990D01*
X17112490Y36678371D01*
X17136300Y36606942D01*
X17160109Y36583133D01*
X17112490Y36416466D02*
X17112490Y36106942D01*
X17302966Y36273609D01*
X17302966Y36202180D01*
X17326776Y36154561D01*
X17350585Y36130752D01*
X17398204Y36106942D01*
X17517252Y36106942D01*
X17564871Y36130752D01*
X17588680Y36154561D01*
X17612490Y36202180D01*
X17612490Y36345038D01*
X17588680Y36392657D01*
X17564871Y36416466D01*
D11*
X65284080Y44318085D02*
X65284080Y44222847D01*
X65331700Y44127609D01*
X65379319Y44079990D01*
X65474557Y44032371D01*
X65665033Y43984752D01*
X65903128Y43984752D01*
X66093604Y44032371D01*
X66188842Y44079990D01*
X66236461Y44127609D01*
X66284080Y44222847D01*
X66284080Y44318085D01*
X66236461Y44413323D01*
X66188842Y44460942D01*
X66093604Y44508561D01*
X65903128Y44556180D01*
X65665033Y44556180D01*
X65474557Y44508561D01*
X65379319Y44460942D01*
X65331700Y44413323D01*
X65284080Y44318085D01*
X66188842Y43556180D02*
X66236461Y43508561D01*
X66284080Y43556180D01*
X66236461Y43603800D01*
X66188842Y43556180D01*
X66284080Y43556180D01*
X66284080Y42556180D02*
X66284080Y43127609D01*
X66284080Y42841895D02*
X65284080Y42841895D01*
X65426938Y42937133D01*
X65522176Y43032371D01*
X65569795Y43127609D01*
X65617414Y41699038D02*
X66284080Y41699038D01*
X65617414Y42127609D02*
X66141223Y42127609D01*
X66236461Y42079990D01*
X66284080Y41984752D01*
X66284080Y41841895D01*
X66236461Y41746657D01*
X66188842Y41699038D01*
D12*
X64544557Y43360942D02*
X64563604Y43379990D01*
X64582652Y43437133D01*
X64582652Y43475228D01*
X64563604Y43532371D01*
X64525509Y43570466D01*
X64487414Y43589514D01*
X64411223Y43608561D01*
X64354080Y43608561D01*
X64277890Y43589514D01*
X64239795Y43570466D01*
X64201700Y43532371D01*
X64182652Y43475228D01*
X64182652Y43437133D01*
X64201700Y43379990D01*
X64220747Y43360942D01*
X64315985Y43018085D02*
X64582652Y43018085D01*
X64163604Y43113323D02*
X64449319Y43208561D01*
X64449319Y42960942D01*
X64182652Y42846657D02*
X64182652Y42579990D01*
X64582652Y42751419D01*
D11*
X18377180Y40889109D02*
X17377180Y40889109D01*
X17377180Y40651014D01*
X17424800Y40508157D01*
X17520038Y40412919D01*
X17615276Y40365300D01*
X17805752Y40317680D01*
X17948609Y40317680D01*
X18139085Y40365300D01*
X18234323Y40412919D01*
X18329561Y40508157D01*
X18377180Y40651014D01*
X18377180Y40889109D01*
X18377180Y39889109D02*
X17377180Y39889109D01*
X18377180Y39317680D01*
X17377180Y39317680D01*
X18377180Y38841490D02*
X17377180Y38841490D01*
D12*
X19535752Y40122442D02*
X19345276Y40255776D01*
X19535752Y40351014D02*
X19135752Y40351014D01*
X19135752Y40198633D01*
X19154800Y40160538D01*
X19173847Y40141490D01*
X19211942Y40122442D01*
X19269085Y40122442D01*
X19307180Y40141490D01*
X19326228Y40160538D01*
X19345276Y40198633D01*
X19345276Y40351014D01*
X19135752Y39779585D02*
X19135752Y39855776D01*
X19154800Y39893871D01*
X19173847Y39912919D01*
X19230990Y39951014D01*
X19307180Y39970061D01*
X19459561Y39970061D01*
X19497657Y39951014D01*
X19516704Y39931966D01*
X19535752Y39893871D01*
X19535752Y39817680D01*
X19516704Y39779585D01*
X19497657Y39760538D01*
X19459561Y39741490D01*
X19364323Y39741490D01*
X19326228Y39760538D01*
X19307180Y39779585D01*
X19288133Y39817680D01*
X19288133Y39893871D01*
X19307180Y39931966D01*
X19326228Y39951014D01*
X19364323Y39970061D01*
X19135752Y39379585D02*
X19135752Y39570061D01*
X19326228Y39589109D01*
X19307180Y39570061D01*
X19288133Y39531966D01*
X19288133Y39436728D01*
X19307180Y39398633D01*
X19326228Y39379585D01*
X19364323Y39360538D01*
X19459561Y39360538D01*
X19497657Y39379585D01*
X19516704Y39398633D01*
X19535752Y39436728D01*
X19535752Y39531966D01*
X19516704Y39570061D01*
X19497657Y39589109D01*
D11*
X18257757Y40763319D02*
X18829185Y40763319D01*
X18543471Y40763319D02*
X18543471Y41763319D01*
X18638709Y41620461D01*
X18733947Y41525223D01*
X18829185Y41477604D01*
X17638709Y41763319D02*
X17543471Y41763319D01*
X17448233Y41715700D01*
X17400614Y41668080D01*
X17352995Y41572842D01*
X17305376Y41382366D01*
X17305376Y41144271D01*
X17352995Y40953795D01*
X17400614Y40858557D01*
X17448233Y40810938D01*
X17543471Y40763319D01*
X17638709Y40763319D01*
X17733947Y40810938D01*
X17781566Y40858557D01*
X17829185Y40953795D01*
X17876804Y41144271D01*
X17876804Y41382366D01*
X17829185Y41572842D01*
X17781566Y41668080D01*
X17733947Y41715700D01*
X17638709Y41763319D01*
X16448233Y41429985D02*
X16448233Y40763319D01*
X16876804Y41429985D02*
X16876804Y40906176D01*
X16829185Y40810938D01*
X16733947Y40763319D01*
X16591090Y40763319D01*
X16495852Y40810938D01*
X16448233Y40858557D01*
D14*
X18129185Y42779985D02*
X18167280Y42741890D01*
X18281566Y42703795D01*
X18357757Y42703795D01*
X18472042Y42741890D01*
X18548233Y42818080D01*
X18586328Y42894271D01*
X18624423Y43046652D01*
X18624423Y43160938D01*
X18586328Y43313319D01*
X18548233Y43389509D01*
X18472042Y43465700D01*
X18357757Y43503795D01*
X18281566Y43503795D01*
X18167280Y43465700D01*
X18129185Y43427604D01*
X17443471Y43237128D02*
X17443471Y42703795D01*
X17633947Y43541890D02*
X17824423Y42970461D01*
X17329185Y42970461D01*
X16681566Y43503795D02*
X16833947Y43503795D01*
X16910138Y43465700D01*
X16948233Y43427604D01*
X17024423Y43313319D01*
X17062519Y43160938D01*
X17062519Y42856176D01*
X17024423Y42779985D01*
X16986328Y42741890D01*
X16910138Y42703795D01*
X16757757Y42703795D01*
X16681566Y42741890D01*
X16643471Y42779985D01*
X16605376Y42856176D01*
X16605376Y43046652D01*
X16643471Y43122842D01*
X16681566Y43160938D01*
X16757757Y43199033D01*
X16910138Y43199033D01*
X16986328Y43160938D01*
X17024423Y43122842D01*
X17062519Y43046652D01*
D11*
X15281780Y44915057D02*
X15281780Y45486485D01*
X15281780Y45200771D02*
X14281780Y45200771D01*
X14424638Y45296009D01*
X14519876Y45391247D01*
X14567495Y45486485D01*
X14281780Y44296009D02*
X14281780Y44200771D01*
X14329400Y44105533D01*
X14377019Y44057914D01*
X14472257Y44010295D01*
X14662733Y43962676D01*
X14900828Y43962676D01*
X15091304Y44010295D01*
X15186542Y44057914D01*
X15234161Y44105533D01*
X15281780Y44200771D01*
X15281780Y44296009D01*
X15234161Y44391247D01*
X15186542Y44438866D01*
X15091304Y44486485D01*
X14900828Y44534104D01*
X14662733Y44534104D01*
X14472257Y44486485D01*
X14377019Y44438866D01*
X14329400Y44391247D01*
X14281780Y44296009D01*
X14615114Y43105533D02*
X15281780Y43105533D01*
X14615114Y43534104D02*
X15138923Y43534104D01*
X15234161Y43486485D01*
X15281780Y43391247D01*
X15281780Y43248390D01*
X15234161Y43153152D01*
X15186542Y43105533D01*
D14*
X13265114Y44786485D02*
X13303209Y44824580D01*
X13341304Y44938866D01*
X13341304Y45015057D01*
X13303209Y45129342D01*
X13227019Y45205533D01*
X13150828Y45243628D01*
X12998447Y45281723D01*
X12884161Y45281723D01*
X12731780Y45243628D01*
X12655590Y45205533D01*
X12579400Y45129342D01*
X12541304Y45015057D01*
X12541304Y44938866D01*
X12579400Y44824580D01*
X12617495Y44786485D01*
X12807971Y44100771D02*
X13341304Y44100771D01*
X12503209Y44291247D02*
X13074638Y44481723D01*
X13074638Y43986485D01*
X12541304Y43300771D02*
X12541304Y43681723D01*
X12922257Y43719819D01*
X12884161Y43681723D01*
X12846066Y43605533D01*
X12846066Y43415057D01*
X12884161Y43338866D01*
X12922257Y43300771D01*
X12998447Y43262676D01*
X13188923Y43262676D01*
X13265114Y43300771D01*
X13303209Y43338866D01*
X13341304Y43415057D01*
X13341304Y43605533D01*
X13303209Y43681723D01*
X13265114Y43719819D01*
D11*
X49596228Y20637919D02*
X49596228Y21637919D01*
X49358133Y21637919D01*
X49215276Y21590300D01*
X49120038Y21495061D01*
X49072419Y21399823D01*
X49024800Y21209347D01*
X49024800Y21066490D01*
X49072419Y20876014D01*
X49120038Y20780776D01*
X49215276Y20685538D01*
X49358133Y20637919D01*
X49596228Y20637919D01*
X48072419Y21590300D02*
X48167657Y21637919D01*
X48310514Y21637919D01*
X48453371Y21590300D01*
X48548609Y21495061D01*
X48596228Y21399823D01*
X48643847Y21209347D01*
X48643847Y21066490D01*
X48596228Y20876014D01*
X48548609Y20780776D01*
X48453371Y20685538D01*
X48310514Y20637919D01*
X48215276Y20637919D01*
X48072419Y20685538D01*
X48024800Y20733157D01*
X48024800Y21066490D01*
X48215276Y21066490D01*
X47167657Y21304585D02*
X47167657Y20637919D01*
X47405752Y21685538D02*
X47643847Y20971252D01*
X47024800Y20971252D01*
X46120038Y20637919D02*
X46691466Y20637919D01*
X46405752Y20637919D02*
X46405752Y21637919D01*
X46500990Y21495061D01*
X46596228Y21399823D01*
X46691466Y21352204D01*
X45739085Y21542680D02*
X45691466Y21590300D01*
X45596228Y21637919D01*
X45358133Y21637919D01*
X45262895Y21590300D01*
X45215276Y21542680D01*
X45167657Y21447442D01*
X45167657Y21352204D01*
X45215276Y21209347D01*
X45786704Y20637919D01*
X45167657Y20637919D01*
X44834323Y20637919D02*
X44310514Y21304585D01*
X44834323Y21304585D02*
X44310514Y20637919D01*
X43929561Y21637919D02*
X43929561Y20828395D01*
X43881942Y20733157D01*
X43834323Y20685538D01*
X43739085Y20637919D01*
X43548609Y20637919D01*
X43453371Y20685538D01*
X43405752Y20733157D01*
X43358133Y20828395D01*
X43358133Y21637919D01*
X42881942Y21161728D02*
X42548609Y21161728D01*
X42405752Y20637919D02*
X42881942Y20637919D01*
X42881942Y21637919D01*
X42405752Y21637919D01*
X47262895Y18187919D02*
X47262895Y17378395D01*
X47215276Y17283157D01*
X47167657Y17235538D01*
X47072419Y17187919D01*
X46881942Y17187919D01*
X46786704Y17235538D01*
X46739085Y17283157D01*
X46691466Y17378395D01*
X46691466Y18187919D01*
X45691466Y17187919D02*
X46262895Y17187919D01*
X45977180Y17187919D02*
X45977180Y18187919D01*
X46072419Y18045061D01*
X46167657Y17949823D01*
X46262895Y17902204D01*
X44834323Y17854585D02*
X44834323Y17187919D01*
X45072419Y18235538D02*
X45310514Y17521252D01*
X44691466Y17521252D01*
X32236180Y22513919D02*
X32236180Y22418680D01*
X32283800Y22323442D01*
X32331419Y22275823D01*
X32426657Y22228204D01*
X32617133Y22180585D01*
X32855228Y22180585D01*
X33045704Y22228204D01*
X33140942Y22275823D01*
X33188561Y22323442D01*
X33236180Y22418680D01*
X33236180Y22513919D01*
X33188561Y22609157D01*
X33140942Y22656776D01*
X33045704Y22704395D01*
X32855228Y22752014D01*
X32617133Y22752014D01*
X32426657Y22704395D01*
X32331419Y22656776D01*
X32283800Y22609157D01*
X32236180Y22513919D01*
D12*
X34394752Y22723442D02*
X34204276Y22856776D01*
X34394752Y22952014D02*
X33994752Y22952014D01*
X33994752Y22799633D01*
X34013800Y22761538D01*
X34032847Y22742490D01*
X34070942Y22723442D01*
X34128085Y22723442D01*
X34166180Y22742490D01*
X34185228Y22761538D01*
X34204276Y22799633D01*
X34204276Y22952014D01*
X34032847Y22571061D02*
X34013800Y22552014D01*
X33994752Y22513919D01*
X33994752Y22418680D01*
X34013800Y22380585D01*
X34032847Y22361538D01*
X34070942Y22342490D01*
X34109038Y22342490D01*
X34166180Y22361538D01*
X34394752Y22590109D01*
X34394752Y22342490D01*
X33994752Y21999633D02*
X33994752Y22075823D01*
X34013800Y22113919D01*
X34032847Y22132966D01*
X34089990Y22171061D01*
X34166180Y22190109D01*
X34318561Y22190109D01*
X34356657Y22171061D01*
X34375704Y22152014D01*
X34394752Y22113919D01*
X34394752Y22037728D01*
X34375704Y21999633D01*
X34356657Y21980585D01*
X34318561Y21961538D01*
X34223323Y21961538D01*
X34185228Y21980585D01*
X34166180Y21999633D01*
X34147133Y22037728D01*
X34147133Y22113919D01*
X34166180Y22152014D01*
X34185228Y22171061D01*
X34223323Y22190109D01*
D11*
X49746180Y24966538D02*
X49746180Y25537966D01*
X49746180Y25252252D02*
X48746180Y25252252D01*
X48889038Y25347490D01*
X48984276Y25442728D01*
X49031895Y25537966D01*
X48746180Y24347490D02*
X48746180Y24252252D01*
X48793800Y24157014D01*
X48841419Y24109395D01*
X48936657Y24061776D01*
X49127133Y24014157D01*
X49365228Y24014157D01*
X49555704Y24061776D01*
X49650942Y24109395D01*
X49698561Y24157014D01*
X49746180Y24252252D01*
X49746180Y24347490D01*
X49698561Y24442728D01*
X49650942Y24490347D01*
X49555704Y24537966D01*
X49365228Y24585585D01*
X49127133Y24585585D01*
X48936657Y24537966D01*
X48841419Y24490347D01*
X48793800Y24442728D01*
X48746180Y24347490D01*
X49746180Y23585585D02*
X48746180Y23585585D01*
X49365228Y23490347D02*
X49746180Y23204633D01*
X49079514Y23204633D02*
X49460466Y23585585D01*
D12*
X50904752Y24628442D02*
X50714276Y24761776D01*
X50904752Y24857014D02*
X50504752Y24857014D01*
X50504752Y24704633D01*
X50523800Y24666538D01*
X50542847Y24647490D01*
X50580942Y24628442D01*
X50638085Y24628442D01*
X50676180Y24647490D01*
X50695228Y24666538D01*
X50714276Y24704633D01*
X50714276Y24857014D01*
X50542847Y24476061D02*
X50523800Y24457014D01*
X50504752Y24418919D01*
X50504752Y24323680D01*
X50523800Y24285585D01*
X50542847Y24266538D01*
X50580942Y24247490D01*
X50619038Y24247490D01*
X50676180Y24266538D01*
X50904752Y24495109D01*
X50904752Y24247490D01*
X50542847Y24095109D02*
X50523800Y24076061D01*
X50504752Y24037966D01*
X50504752Y23942728D01*
X50523800Y23904633D01*
X50542847Y23885585D01*
X50580942Y23866538D01*
X50619038Y23866538D01*
X50676180Y23885585D01*
X50904752Y24114157D01*
X50904752Y23866538D01*
D11*
X22267776Y19266180D02*
X22220157Y19313800D01*
X22124919Y19361419D01*
X21886823Y19361419D01*
X21791585Y19313800D01*
X21743966Y19266180D01*
X21696347Y19170942D01*
X21696347Y19075704D01*
X21743966Y18932847D01*
X22315395Y18361419D01*
X21696347Y18361419D01*
X21267776Y18361419D02*
X21267776Y19361419D01*
X21172538Y18742371D02*
X20886823Y18361419D01*
X20886823Y19028085D02*
X21267776Y18647133D01*
D12*
X21834442Y20062847D02*
X21967776Y20253323D01*
X22063014Y20062847D02*
X22063014Y20462847D01*
X21910633Y20462847D01*
X21872538Y20443800D01*
X21853490Y20424752D01*
X21834442Y20386657D01*
X21834442Y20329514D01*
X21853490Y20291419D01*
X21872538Y20272371D01*
X21910633Y20253323D01*
X22063014Y20253323D01*
X21682061Y20424752D02*
X21663014Y20443800D01*
X21624919Y20462847D01*
X21529680Y20462847D01*
X21491585Y20443800D01*
X21472538Y20424752D01*
X21453490Y20386657D01*
X21453490Y20348561D01*
X21472538Y20291419D01*
X21701109Y20062847D01*
X21453490Y20062847D01*
X21072538Y20062847D02*
X21301109Y20062847D01*
X21186823Y20062847D02*
X21186823Y20462847D01*
X21224919Y20405704D01*
X21263014Y20367609D01*
X21301109Y20348561D01*
D11*
X26617466Y28095180D02*
X26569847Y28142800D01*
X26474609Y28190419D01*
X26236514Y28190419D01*
X26141276Y28142800D01*
X26093657Y28095180D01*
X26046038Y27999942D01*
X26046038Y27904704D01*
X26093657Y27761847D01*
X26665085Y27190419D01*
X26046038Y27190419D01*
X25426990Y28190419D02*
X25331752Y28190419D01*
X25236514Y28142800D01*
X25188895Y28095180D01*
X25141276Y27999942D01*
X25093657Y27809466D01*
X25093657Y27571371D01*
X25141276Y27380895D01*
X25188895Y27285657D01*
X25236514Y27238038D01*
X25331752Y27190419D01*
X25426990Y27190419D01*
X25522228Y27238038D01*
X25569847Y27285657D01*
X25617466Y27380895D01*
X25665085Y27571371D01*
X25665085Y27809466D01*
X25617466Y27999942D01*
X25569847Y28095180D01*
X25522228Y28142800D01*
X25426990Y28190419D01*
X24665085Y27190419D02*
X24665085Y28190419D01*
X24569847Y27571371D02*
X24284133Y27190419D01*
X24284133Y27857085D02*
X24665085Y27476133D01*
D12*
X25707942Y26031847D02*
X25841276Y26222323D01*
X25936514Y26031847D02*
X25936514Y26431847D01*
X25784133Y26431847D01*
X25746038Y26412800D01*
X25726990Y26393752D01*
X25707942Y26355657D01*
X25707942Y26298514D01*
X25726990Y26260419D01*
X25746038Y26241371D01*
X25784133Y26222323D01*
X25936514Y26222323D01*
X25326990Y26031847D02*
X25555561Y26031847D01*
X25441276Y26031847D02*
X25441276Y26431847D01*
X25479371Y26374704D01*
X25517466Y26336609D01*
X25555561Y26317561D01*
X25136514Y26031847D02*
X25060323Y26031847D01*
X25022228Y26050895D01*
X25003180Y26069942D01*
X24965085Y26127085D01*
X24946038Y26203276D01*
X24946038Y26355657D01*
X24965085Y26393752D01*
X24984133Y26412800D01*
X25022228Y26431847D01*
X25098419Y26431847D01*
X25136514Y26412800D01*
X25155561Y26393752D01*
X25174609Y26355657D01*
X25174609Y26260419D01*
X25155561Y26222323D01*
X25136514Y26203276D01*
X25098419Y26184228D01*
X25022228Y26184228D01*
X24984133Y26203276D01*
X24965085Y26222323D01*
X24946038Y26260419D01*
D11*
X17751323Y31301919D02*
X17132276Y31301919D01*
X17465609Y30920966D01*
X17322752Y30920966D01*
X17227514Y30873347D01*
X17179895Y30825728D01*
X17132276Y30730490D01*
X17132276Y30492395D01*
X17179895Y30397157D01*
X17227514Y30349538D01*
X17322752Y30301919D01*
X17608466Y30301919D01*
X17703704Y30349538D01*
X17751323Y30397157D01*
X16798942Y31301919D02*
X16179895Y31301919D01*
X16513228Y30920966D01*
X16370371Y30920966D01*
X16275133Y30873347D01*
X16227514Y30825728D01*
X16179895Y30730490D01*
X16179895Y30492395D01*
X16227514Y30397157D01*
X16275133Y30349538D01*
X16370371Y30301919D01*
X16656085Y30301919D01*
X16751323Y30349538D01*
X16798942Y30397157D01*
D12*
X17198942Y29143347D02*
X17332276Y29333823D01*
X17427514Y29143347D02*
X17427514Y29543347D01*
X17275133Y29543347D01*
X17237038Y29524300D01*
X17217990Y29505252D01*
X17198942Y29467157D01*
X17198942Y29410014D01*
X17217990Y29371919D01*
X17237038Y29352871D01*
X17275133Y29333823D01*
X17427514Y29333823D01*
X16817990Y29143347D02*
X17046561Y29143347D01*
X16932276Y29143347D02*
X16932276Y29543347D01*
X16970371Y29486204D01*
X17008466Y29448109D01*
X17046561Y29429061D01*
X16589419Y29371919D02*
X16627514Y29390966D01*
X16646561Y29410014D01*
X16665609Y29448109D01*
X16665609Y29467157D01*
X16646561Y29505252D01*
X16627514Y29524300D01*
X16589419Y29543347D01*
X16513228Y29543347D01*
X16475133Y29524300D01*
X16456085Y29505252D01*
X16437038Y29467157D01*
X16437038Y29448109D01*
X16456085Y29410014D01*
X16475133Y29390966D01*
X16513228Y29371919D01*
X16589419Y29371919D01*
X16627514Y29352871D01*
X16646561Y29333823D01*
X16665609Y29295728D01*
X16665609Y29219538D01*
X16646561Y29181442D01*
X16627514Y29162395D01*
X16589419Y29143347D01*
X16513228Y29143347D01*
X16475133Y29162395D01*
X16456085Y29181442D01*
X16437038Y29219538D01*
X16437038Y29295728D01*
X16456085Y29333823D01*
X16475133Y29352871D01*
X16513228Y29371919D01*
D11*
X72274038Y5724919D02*
X72845466Y5724919D01*
X72559752Y5724919D02*
X72559752Y6724919D01*
X72654990Y6582061D01*
X72750228Y6486823D01*
X72845466Y6439204D01*
X71654990Y6724919D02*
X71559752Y6724919D01*
X71464514Y6677300D01*
X71416895Y6629680D01*
X71369276Y6534442D01*
X71321657Y6343966D01*
X71321657Y6105871D01*
X71369276Y5915395D01*
X71416895Y5820157D01*
X71464514Y5772538D01*
X71559752Y5724919D01*
X71654990Y5724919D01*
X71750228Y5772538D01*
X71797847Y5820157D01*
X71845466Y5915395D01*
X71893085Y6105871D01*
X71893085Y6343966D01*
X71845466Y6534442D01*
X71797847Y6629680D01*
X71750228Y6677300D01*
X71654990Y6724919D01*
X70893085Y5724919D02*
X70893085Y6724919D01*
X70797847Y6105871D02*
X70512133Y5724919D01*
X70512133Y6391585D02*
X70893085Y6010633D01*
D12*
X71935942Y7426347D02*
X72069276Y7616823D01*
X72164514Y7426347D02*
X72164514Y7826347D01*
X72012133Y7826347D01*
X71974038Y7807300D01*
X71954990Y7788252D01*
X71935942Y7750157D01*
X71935942Y7693014D01*
X71954990Y7654919D01*
X71974038Y7635871D01*
X72012133Y7616823D01*
X72164514Y7616823D01*
X71554990Y7426347D02*
X71783561Y7426347D01*
X71669276Y7426347D02*
X71669276Y7826347D01*
X71707371Y7769204D01*
X71745466Y7731109D01*
X71783561Y7712061D01*
X71402609Y7788252D02*
X71383561Y7807300D01*
X71345466Y7826347D01*
X71250228Y7826347D01*
X71212133Y7807300D01*
X71193085Y7788252D01*
X71174038Y7750157D01*
X71174038Y7712061D01*
X71193085Y7654919D01*
X71421657Y7426347D01*
X71174038Y7426347D01*
D11*
X55054180Y38452157D02*
X55054180Y39023585D01*
X55054180Y38737871D02*
X54054180Y38737871D01*
X54197038Y38833109D01*
X54292276Y38928347D01*
X54339895Y39023585D01*
X55054180Y38023585D02*
X54054180Y38023585D01*
X55054180Y37452157D01*
X54054180Y37452157D01*
X54387514Y36547395D02*
X55054180Y36547395D01*
X54006561Y36785490D02*
X54720847Y37023585D01*
X54720847Y36404538D01*
X54054180Y35833109D02*
X54054180Y35737871D01*
X54101800Y35642633D01*
X54149419Y35595014D01*
X54244657Y35547395D01*
X54435133Y35499776D01*
X54673228Y35499776D01*
X54863704Y35547395D01*
X54958942Y35595014D01*
X55006561Y35642633D01*
X55054180Y35737871D01*
X55054180Y35833109D01*
X55006561Y35928347D01*
X54958942Y35975966D01*
X54863704Y36023585D01*
X54673228Y36071204D01*
X54435133Y36071204D01*
X54244657Y36023585D01*
X54149419Y35975966D01*
X54101800Y35928347D01*
X54054180Y35833109D01*
X54054180Y34880728D02*
X54054180Y34785490D01*
X54101800Y34690252D01*
X54149419Y34642633D01*
X54244657Y34595014D01*
X54435133Y34547395D01*
X54673228Y34547395D01*
X54863704Y34595014D01*
X54958942Y34642633D01*
X55006561Y34690252D01*
X55054180Y34785490D01*
X55054180Y34880728D01*
X55006561Y34975966D01*
X54958942Y35023585D01*
X54863704Y35071204D01*
X54673228Y35118823D01*
X54435133Y35118823D01*
X54244657Y35071204D01*
X54149419Y35023585D01*
X54101800Y34975966D01*
X54054180Y34880728D01*
X54054180Y34214061D02*
X54054180Y33547395D01*
X55054180Y33975966D01*
X51049180Y37174395D02*
X50049180Y37174395D01*
X50049180Y36936300D01*
X50096800Y36793442D01*
X50192038Y36698204D01*
X50287276Y36650585D01*
X50477752Y36602966D01*
X50620609Y36602966D01*
X50811085Y36650585D01*
X50906323Y36698204D01*
X51001561Y36793442D01*
X51049180Y36936300D01*
X51049180Y37174395D01*
X50049180Y35698204D02*
X50049180Y36174395D01*
X50525371Y36222014D01*
X50477752Y36174395D01*
X50430133Y36079157D01*
X50430133Y35841061D01*
X50477752Y35745823D01*
X50525371Y35698204D01*
X50620609Y35650585D01*
X50858704Y35650585D01*
X50953942Y35698204D01*
X51001561Y35745823D01*
X51049180Y35841061D01*
X51049180Y36079157D01*
X51001561Y36174395D01*
X50953942Y36222014D01*
X65722180Y22958157D02*
X65722180Y23529585D01*
X65722180Y23243871D02*
X64722180Y23243871D01*
X64865038Y23339109D01*
X64960276Y23434347D01*
X65007895Y23529585D01*
X65722180Y22529585D02*
X64722180Y22529585D01*
X65722180Y21958157D01*
X64722180Y21958157D01*
X65055514Y21053395D02*
X65722180Y21053395D01*
X64674561Y21291490D02*
X65388847Y21529585D01*
X65388847Y20910538D01*
X64722180Y20339109D02*
X64722180Y20243871D01*
X64769800Y20148633D01*
X64817419Y20101014D01*
X64912657Y20053395D01*
X65103133Y20005776D01*
X65341228Y20005776D01*
X65531704Y20053395D01*
X65626942Y20101014D01*
X65674561Y20148633D01*
X65722180Y20243871D01*
X65722180Y20339109D01*
X65674561Y20434347D01*
X65626942Y20481966D01*
X65531704Y20529585D01*
X65341228Y20577204D01*
X65103133Y20577204D01*
X64912657Y20529585D01*
X64817419Y20481966D01*
X64769800Y20434347D01*
X64722180Y20339109D01*
X64722180Y19386728D02*
X64722180Y19291490D01*
X64769800Y19196252D01*
X64817419Y19148633D01*
X64912657Y19101014D01*
X65103133Y19053395D01*
X65341228Y19053395D01*
X65531704Y19101014D01*
X65626942Y19148633D01*
X65674561Y19196252D01*
X65722180Y19291490D01*
X65722180Y19386728D01*
X65674561Y19481966D01*
X65626942Y19529585D01*
X65531704Y19577204D01*
X65341228Y19624823D01*
X65103133Y19624823D01*
X64912657Y19577204D01*
X64817419Y19529585D01*
X64769800Y19481966D01*
X64722180Y19386728D01*
X64722180Y18720061D02*
X64722180Y18053395D01*
X65722180Y18481966D01*
X61717180Y21680395D02*
X60717180Y21680395D01*
X60717180Y21442300D01*
X60764800Y21299442D01*
X60860038Y21204204D01*
X60955276Y21156585D01*
X61145752Y21108966D01*
X61288609Y21108966D01*
X61479085Y21156585D01*
X61574323Y21204204D01*
X61669561Y21299442D01*
X61717180Y21442300D01*
X61717180Y21680395D01*
X60717180Y20775633D02*
X60717180Y20156585D01*
X61098133Y20489919D01*
X61098133Y20347061D01*
X61145752Y20251823D01*
X61193371Y20204204D01*
X61288609Y20156585D01*
X61526704Y20156585D01*
X61621942Y20204204D01*
X61669561Y20251823D01*
X61717180Y20347061D01*
X61717180Y20632776D01*
X61669561Y20728014D01*
X61621942Y20775633D01*
X72300657Y8483919D02*
X72872085Y8483919D01*
X72586371Y8483919D02*
X72586371Y9483919D01*
X72681609Y9341061D01*
X72776847Y9245823D01*
X72872085Y9198204D01*
X71872085Y8483919D02*
X71872085Y9483919D01*
X71300657Y8483919D01*
X71300657Y9483919D01*
X70395895Y9150585D02*
X70395895Y8483919D01*
X70633990Y9531538D02*
X70872085Y8817252D01*
X70253038Y8817252D01*
X69681609Y9483919D02*
X69586371Y9483919D01*
X69491133Y9436300D01*
X69443514Y9388680D01*
X69395895Y9293442D01*
X69348276Y9102966D01*
X69348276Y8864871D01*
X69395895Y8674395D01*
X69443514Y8579157D01*
X69491133Y8531538D01*
X69586371Y8483919D01*
X69681609Y8483919D01*
X69776847Y8531538D01*
X69824466Y8579157D01*
X69872085Y8674395D01*
X69919704Y8864871D01*
X69919704Y9102966D01*
X69872085Y9293442D01*
X69824466Y9388680D01*
X69776847Y9436300D01*
X69681609Y9483919D01*
X68729228Y9483919D02*
X68633990Y9483919D01*
X68538752Y9436300D01*
X68491133Y9388680D01*
X68443514Y9293442D01*
X68395895Y9102966D01*
X68395895Y8864871D01*
X68443514Y8674395D01*
X68491133Y8579157D01*
X68538752Y8531538D01*
X68633990Y8483919D01*
X68729228Y8483919D01*
X68824466Y8531538D01*
X68872085Y8579157D01*
X68919704Y8674395D01*
X68967323Y8864871D01*
X68967323Y9102966D01*
X68919704Y9293442D01*
X68872085Y9388680D01*
X68824466Y9436300D01*
X68729228Y9483919D01*
X68062561Y9483919D02*
X67395895Y9483919D01*
X67824466Y8483919D01*
X71022895Y12488919D02*
X71022895Y13488919D01*
X70784800Y13488919D01*
X70641942Y13441300D01*
X70546704Y13346061D01*
X70499085Y13250823D01*
X70451466Y13060347D01*
X70451466Y12917490D01*
X70499085Y12727014D01*
X70546704Y12631776D01*
X70641942Y12536538D01*
X70784800Y12488919D01*
X71022895Y12488919D01*
X69499085Y12488919D02*
X70070514Y12488919D01*
X69784800Y12488919D02*
X69784800Y13488919D01*
X69880038Y13346061D01*
X69975276Y13250823D01*
X70070514Y13203204D01*
X7210419Y11362919D02*
X7115180Y11362919D01*
X7019942Y11315300D01*
X6972323Y11267680D01*
X6924704Y11172442D01*
X6877085Y10981966D01*
X6877085Y10743871D01*
X6924704Y10553395D01*
X6972323Y10458157D01*
X7019942Y10410538D01*
X7115180Y10362919D01*
X7210419Y10362919D01*
X7305657Y10410538D01*
X7353276Y10458157D01*
X7400895Y10553395D01*
X7448514Y10743871D01*
X7448514Y10981966D01*
X7400895Y11172442D01*
X7353276Y11267680D01*
X7305657Y11315300D01*
X7210419Y11362919D01*
D12*
X7419942Y9204347D02*
X7553276Y9394823D01*
X7648514Y9204347D02*
X7648514Y9604347D01*
X7496133Y9604347D01*
X7458038Y9585300D01*
X7438990Y9566252D01*
X7419942Y9528157D01*
X7419942Y9471014D01*
X7438990Y9432919D01*
X7458038Y9413871D01*
X7496133Y9394823D01*
X7648514Y9394823D01*
X7286609Y9604347D02*
X7019942Y9604347D01*
X7191371Y9204347D01*
X6658038Y9204347D02*
X6886609Y9204347D01*
X6772323Y9204347D02*
X6772323Y9604347D01*
X6810419Y9547204D01*
X6848514Y9509109D01*
X6886609Y9490061D01*
D11*
X26427038Y43763919D02*
X26998466Y43763919D01*
X26712752Y43763919D02*
X26712752Y44763919D01*
X26807990Y44621061D01*
X26903228Y44525823D01*
X26998466Y44478204D01*
X25807990Y44763919D02*
X25712752Y44763919D01*
X25617514Y44716300D01*
X25569895Y44668680D01*
X25522276Y44573442D01*
X25474657Y44382966D01*
X25474657Y44144871D01*
X25522276Y43954395D01*
X25569895Y43859157D01*
X25617514Y43811538D01*
X25712752Y43763919D01*
X25807990Y43763919D01*
X25903228Y43811538D01*
X25950847Y43859157D01*
X25998466Y43954395D01*
X26046085Y44144871D01*
X26046085Y44382966D01*
X25998466Y44573442D01*
X25950847Y44668680D01*
X25903228Y44716300D01*
X25807990Y44763919D01*
X25046085Y43763919D02*
X25046085Y44763919D01*
X24950847Y44144871D02*
X24665133Y43763919D01*
X24665133Y44430585D02*
X25046085Y44049633D01*
D12*
X26088942Y42605347D02*
X26222276Y42795823D01*
X26317514Y42605347D02*
X26317514Y43005347D01*
X26165133Y43005347D01*
X26127038Y42986300D01*
X26107990Y42967252D01*
X26088942Y42929157D01*
X26088942Y42872014D01*
X26107990Y42833919D01*
X26127038Y42814871D01*
X26165133Y42795823D01*
X26317514Y42795823D01*
X25727038Y43005347D02*
X25917514Y43005347D01*
X25936561Y42814871D01*
X25917514Y42833919D01*
X25879419Y42852966D01*
X25784180Y42852966D01*
X25746085Y42833919D01*
X25727038Y42814871D01*
X25707990Y42776776D01*
X25707990Y42681538D01*
X25727038Y42643442D01*
X25746085Y42624395D01*
X25784180Y42605347D01*
X25879419Y42605347D01*
X25917514Y42624395D01*
X25936561Y42643442D01*
X25365133Y43005347D02*
X25441323Y43005347D01*
X25479419Y42986300D01*
X25498466Y42967252D01*
X25536561Y42910109D01*
X25555609Y42833919D01*
X25555609Y42681538D01*
X25536561Y42643442D01*
X25517514Y42624395D01*
X25479419Y42605347D01*
X25403228Y42605347D01*
X25365133Y42624395D01*
X25346085Y42643442D01*
X25327038Y42681538D01*
X25327038Y42776776D01*
X25346085Y42814871D01*
X25365133Y42833919D01*
X25403228Y42852966D01*
X25479419Y42852966D01*
X25517514Y42833919D01*
X25536561Y42814871D01*
X25555609Y42776776D01*
D11*
X20418419Y31301919D02*
X20323180Y31301919D01*
X20227942Y31254300D01*
X20180323Y31206680D01*
X20132704Y31111442D01*
X20085085Y30920966D01*
X20085085Y30682871D01*
X20132704Y30492395D01*
X20180323Y30397157D01*
X20227942Y30349538D01*
X20323180Y30301919D01*
X20418419Y30301919D01*
X20513657Y30349538D01*
X20561276Y30397157D01*
X20608895Y30492395D01*
X20656514Y30682871D01*
X20656514Y30920966D01*
X20608895Y31111442D01*
X20561276Y31206680D01*
X20513657Y31254300D01*
X20418419Y31301919D01*
D12*
X20627942Y29143347D02*
X20761276Y29333823D01*
X20856514Y29143347D02*
X20856514Y29543347D01*
X20704133Y29543347D01*
X20666038Y29524300D01*
X20646990Y29505252D01*
X20627942Y29467157D01*
X20627942Y29410014D01*
X20646990Y29371919D01*
X20666038Y29352871D01*
X20704133Y29333823D01*
X20856514Y29333823D01*
X20475561Y29505252D02*
X20456514Y29524300D01*
X20418419Y29543347D01*
X20323180Y29543347D01*
X20285085Y29524300D01*
X20266038Y29505252D01*
X20246990Y29467157D01*
X20246990Y29429061D01*
X20266038Y29371919D01*
X20494609Y29143347D01*
X20246990Y29143347D01*
X19999371Y29543347D02*
X19961276Y29543347D01*
X19923180Y29524300D01*
X19904133Y29505252D01*
X19885085Y29467157D01*
X19866038Y29390966D01*
X19866038Y29295728D01*
X19885085Y29219538D01*
X19904133Y29181442D01*
X19923180Y29162395D01*
X19961276Y29143347D01*
X19999371Y29143347D01*
X20037466Y29162395D01*
X20056514Y29181442D01*
X20075561Y29219538D01*
X20094609Y29295728D01*
X20094609Y29390966D01*
X20075561Y29467157D01*
X20056514Y29505252D01*
X20037466Y29524300D01*
X19999371Y29543347D01*
D11*
X25498419Y31111419D02*
X25403180Y31111419D01*
X25307942Y31063800D01*
X25260323Y31016180D01*
X25212704Y30920942D01*
X25165085Y30730466D01*
X25165085Y30492371D01*
X25212704Y30301895D01*
X25260323Y30206657D01*
X25307942Y30159038D01*
X25403180Y30111419D01*
X25498419Y30111419D01*
X25593657Y30159038D01*
X25641276Y30206657D01*
X25688895Y30301895D01*
X25736514Y30492371D01*
X25736514Y30730466D01*
X25688895Y30920942D01*
X25641276Y31016180D01*
X25593657Y31063800D01*
X25498419Y31111419D01*
D12*
X25517466Y28952847D02*
X25650800Y29143323D01*
X25746038Y28952847D02*
X25746038Y29352847D01*
X25593657Y29352847D01*
X25555561Y29333800D01*
X25536514Y29314752D01*
X25517466Y29276657D01*
X25517466Y29219514D01*
X25536514Y29181419D01*
X25555561Y29162371D01*
X25593657Y29143323D01*
X25746038Y29143323D01*
X25136514Y28952847D02*
X25365085Y28952847D01*
X25250800Y28952847D02*
X25250800Y29352847D01*
X25288895Y29295704D01*
X25326990Y29257609D01*
X25365085Y29238561D01*
D11*
X41238323Y9600919D02*
X41809752Y9600919D01*
X41524038Y9600919D02*
X41524038Y10600919D01*
X41619276Y10458061D01*
X41714514Y10362823D01*
X41809752Y10315204D01*
X40857371Y10505680D02*
X40809752Y10553300D01*
X40714514Y10600919D01*
X40476419Y10600919D01*
X40381180Y10553300D01*
X40333561Y10505680D01*
X40285942Y10410442D01*
X40285942Y10315204D01*
X40333561Y10172347D01*
X40904990Y9600919D01*
X40285942Y9600919D01*
X39857371Y9696157D02*
X39809752Y9648538D01*
X39857371Y9600919D01*
X39904990Y9648538D01*
X39857371Y9696157D01*
X39857371Y9600919D01*
X38857371Y9600919D02*
X39428800Y9600919D01*
X39143085Y9600919D02*
X39143085Y10600919D01*
X39238323Y10458061D01*
X39333561Y10362823D01*
X39428800Y10315204D01*
X38428800Y9600919D02*
X38428800Y10600919D01*
X38333561Y9981871D02*
X38047847Y9600919D01*
X38047847Y10267585D02*
X38428800Y9886633D01*
D12*
X40185942Y8442347D02*
X40319276Y8632823D01*
X40414514Y8442347D02*
X40414514Y8842347D01*
X40262133Y8842347D01*
X40224038Y8823300D01*
X40204990Y8804252D01*
X40185942Y8766157D01*
X40185942Y8709014D01*
X40204990Y8670919D01*
X40224038Y8651871D01*
X40262133Y8632823D01*
X40414514Y8632823D01*
X40052609Y8842347D02*
X39804990Y8842347D01*
X39938323Y8689966D01*
X39881180Y8689966D01*
X39843085Y8670919D01*
X39824038Y8651871D01*
X39804990Y8613776D01*
X39804990Y8518538D01*
X39824038Y8480442D01*
X39843085Y8461395D01*
X39881180Y8442347D01*
X39995466Y8442347D01*
X40033561Y8461395D01*
X40052609Y8480442D01*
X39652609Y8804252D02*
X39633561Y8823300D01*
X39595466Y8842347D01*
X39500228Y8842347D01*
X39462133Y8823300D01*
X39443085Y8804252D01*
X39424038Y8766157D01*
X39424038Y8728061D01*
X39443085Y8670919D01*
X39671657Y8442347D01*
X39424038Y8442347D01*
D11*
X77528609Y2207019D02*
X77528609Y3207019D01*
X77290514Y3207019D01*
X77147657Y3159400D01*
X77052419Y3064161D01*
X77004800Y2968923D01*
X76957180Y2778447D01*
X76957180Y2635590D01*
X77004800Y2445114D01*
X77052419Y2349876D01*
X77147657Y2254638D01*
X77290514Y2207019D01*
X77528609Y2207019D01*
X76528609Y2207019D02*
X76528609Y3207019D01*
X75957180Y2207019D01*
X75957180Y3207019D01*
X75480990Y2207019D02*
X75480990Y3207019D01*
D12*
X76761942Y3908447D02*
X76895276Y4098923D01*
X76990514Y3908447D02*
X76990514Y4308447D01*
X76838133Y4308447D01*
X76800038Y4289400D01*
X76780990Y4270352D01*
X76761942Y4232257D01*
X76761942Y4175114D01*
X76780990Y4137019D01*
X76800038Y4117971D01*
X76838133Y4098923D01*
X76990514Y4098923D01*
X76400038Y4308447D02*
X76590514Y4308447D01*
X76609561Y4117971D01*
X76590514Y4137019D01*
X76552419Y4156066D01*
X76457180Y4156066D01*
X76419085Y4137019D01*
X76400038Y4117971D01*
X76380990Y4079876D01*
X76380990Y3984638D01*
X76400038Y3946542D01*
X76419085Y3927495D01*
X76457180Y3908447D01*
X76552419Y3908447D01*
X76590514Y3927495D01*
X76609561Y3946542D01*
X76000038Y3908447D02*
X76228609Y3908447D01*
X76114323Y3908447D02*
X76114323Y4308447D01*
X76152419Y4251304D01*
X76190514Y4213209D01*
X76228609Y4194161D01*
D11*
X22998038Y6933919D02*
X23569466Y6933919D01*
X23283752Y6933919D02*
X23283752Y7933919D01*
X23378990Y7791061D01*
X23474228Y7695823D01*
X23569466Y7648204D01*
X22378990Y7933919D02*
X22283752Y7933919D01*
X22188514Y7886300D01*
X22140895Y7838680D01*
X22093276Y7743442D01*
X22045657Y7552966D01*
X22045657Y7314871D01*
X22093276Y7124395D01*
X22140895Y7029157D01*
X22188514Y6981538D01*
X22283752Y6933919D01*
X22378990Y6933919D01*
X22474228Y6981538D01*
X22521847Y7029157D01*
X22569466Y7124395D01*
X22617085Y7314871D01*
X22617085Y7552966D01*
X22569466Y7743442D01*
X22521847Y7838680D01*
X22474228Y7886300D01*
X22378990Y7933919D01*
X21617085Y6933919D02*
X21617085Y7933919D01*
X21521847Y7314871D02*
X21236133Y6933919D01*
X21236133Y7600585D02*
X21617085Y7219633D01*
D12*
X22659942Y5775347D02*
X22793276Y5965823D01*
X22888514Y5775347D02*
X22888514Y6175347D01*
X22736133Y6175347D01*
X22698038Y6156300D01*
X22678990Y6137252D01*
X22659942Y6099157D01*
X22659942Y6042014D01*
X22678990Y6003919D01*
X22698038Y5984871D01*
X22736133Y5965823D01*
X22888514Y5965823D01*
X22298038Y6175347D02*
X22488514Y6175347D01*
X22507561Y5984871D01*
X22488514Y6003919D01*
X22450419Y6022966D01*
X22355180Y6022966D01*
X22317085Y6003919D01*
X22298038Y5984871D01*
X22278990Y5946776D01*
X22278990Y5851538D01*
X22298038Y5813442D01*
X22317085Y5794395D01*
X22355180Y5775347D01*
X22450419Y5775347D01*
X22488514Y5794395D01*
X22507561Y5813442D01*
X22031371Y6175347D02*
X21993276Y6175347D01*
X21955180Y6156300D01*
X21936133Y6137252D01*
X21917085Y6099157D01*
X21898038Y6022966D01*
X21898038Y5927728D01*
X21917085Y5851538D01*
X21936133Y5813442D01*
X21955180Y5794395D01*
X21993276Y5775347D01*
X22031371Y5775347D01*
X22069466Y5794395D01*
X22088514Y5813442D01*
X22107561Y5851538D01*
X22126609Y5927728D01*
X22126609Y6022966D01*
X22107561Y6099157D01*
X22088514Y6137252D01*
X22069466Y6156300D01*
X22031371Y6175347D01*
D11*
X50730419Y16092728D02*
X50730419Y16711776D01*
X50349466Y16378442D01*
X50349466Y16521300D01*
X50301847Y16616538D01*
X50254228Y16664157D01*
X50158990Y16711776D01*
X49920895Y16711776D01*
X49825657Y16664157D01*
X49778038Y16616538D01*
X49730419Y16521300D01*
X49730419Y16235585D01*
X49778038Y16140347D01*
X49825657Y16092728D01*
X49825657Y17140347D02*
X49778038Y17187966D01*
X49730419Y17140347D01*
X49778038Y17092728D01*
X49825657Y17140347D01*
X49730419Y17140347D01*
X50730419Y17807014D02*
X50730419Y17902252D01*
X50682800Y17997490D01*
X50635180Y18045109D01*
X50539942Y18092728D01*
X50349466Y18140347D01*
X50111371Y18140347D01*
X49920895Y18092728D01*
X49825657Y18045109D01*
X49778038Y17997490D01*
X49730419Y17902252D01*
X49730419Y17807014D01*
X49778038Y17711776D01*
X49825657Y17664157D01*
X49920895Y17616538D01*
X50111371Y17568919D01*
X50349466Y17568919D01*
X50539942Y17616538D01*
X50635180Y17664157D01*
X50682800Y17711776D01*
X50730419Y17807014D01*
X49730419Y19092728D02*
X49730419Y18521300D01*
X49730419Y18807014D02*
X50730419Y18807014D01*
X50587561Y18711776D01*
X50492323Y18616538D01*
X50444704Y18521300D01*
X49730419Y19521300D02*
X50730419Y19521300D01*
X50111371Y19616538D02*
X49730419Y19902252D01*
X50397085Y19902252D02*
X50016133Y19521300D01*
D12*
X51431847Y17764157D02*
X51622323Y17630823D01*
X51431847Y17535585D02*
X51831847Y17535585D01*
X51831847Y17687966D01*
X51812800Y17726061D01*
X51793752Y17745109D01*
X51755657Y17764157D01*
X51698514Y17764157D01*
X51660419Y17745109D01*
X51641371Y17726061D01*
X51622323Y17687966D01*
X51622323Y17535585D01*
X51698514Y18107014D02*
X51431847Y18107014D01*
X51850895Y18011776D02*
X51565180Y17916538D01*
X51565180Y18164157D01*
X51431847Y18335585D02*
X51431847Y18411776D01*
X51450895Y18449871D01*
X51469942Y18468919D01*
X51527085Y18507014D01*
X51603276Y18526061D01*
X51755657Y18526061D01*
X51793752Y18507014D01*
X51812800Y18487966D01*
X51831847Y18449871D01*
X51831847Y18373680D01*
X51812800Y18335585D01*
X51793752Y18316538D01*
X51755657Y18297490D01*
X51660419Y18297490D01*
X51622323Y18316538D01*
X51603276Y18335585D01*
X51584228Y18373680D01*
X51584228Y18449871D01*
X51603276Y18487966D01*
X51622323Y18507014D01*
X51660419Y18526061D01*
D11*
X27712752Y4978680D02*
X27665133Y5026300D01*
X27569895Y5073919D01*
X27331800Y5073919D01*
X27236561Y5026300D01*
X27188942Y4978680D01*
X27141323Y4883442D01*
X27141323Y4788204D01*
X27188942Y4645347D01*
X27760371Y4073919D01*
X27141323Y4073919D01*
X26807990Y5073919D02*
X26141323Y5073919D01*
X26569895Y4073919D01*
X25760371Y4169157D02*
X25712752Y4121538D01*
X25760371Y4073919D01*
X25807990Y4121538D01*
X25760371Y4169157D01*
X25760371Y4073919D01*
X24855609Y4740585D02*
X24855609Y4073919D01*
X25093704Y5121538D02*
X25331800Y4407252D01*
X24712752Y4407252D01*
X24331800Y4073919D02*
X24331800Y5073919D01*
X24236561Y4454871D02*
X23950847Y4073919D01*
X23950847Y4740585D02*
X24331800Y4359633D01*
D12*
X26088942Y5775347D02*
X26222276Y5965823D01*
X26317514Y5775347D02*
X26317514Y6175347D01*
X26165133Y6175347D01*
X26127038Y6156300D01*
X26107990Y6137252D01*
X26088942Y6099157D01*
X26088942Y6042014D01*
X26107990Y6003919D01*
X26127038Y5984871D01*
X26165133Y5965823D01*
X26317514Y5965823D01*
X25746085Y6042014D02*
X25746085Y5775347D01*
X25841323Y6194395D02*
X25936561Y5908680D01*
X25688942Y5908680D01*
X25479419Y6003919D02*
X25517514Y6022966D01*
X25536561Y6042014D01*
X25555609Y6080109D01*
X25555609Y6099157D01*
X25536561Y6137252D01*
X25517514Y6156300D01*
X25479419Y6175347D01*
X25403228Y6175347D01*
X25365133Y6156300D01*
X25346085Y6137252D01*
X25327038Y6099157D01*
X25327038Y6080109D01*
X25346085Y6042014D01*
X25365133Y6022966D01*
X25403228Y6003919D01*
X25479419Y6003919D01*
X25517514Y5984871D01*
X25536561Y5965823D01*
X25555609Y5927728D01*
X25555609Y5851538D01*
X25536561Y5813442D01*
X25517514Y5794395D01*
X25479419Y5775347D01*
X25403228Y5775347D01*
X25365133Y5794395D01*
X25346085Y5813442D01*
X25327038Y5851538D01*
X25327038Y5927728D01*
X25346085Y5965823D01*
X25365133Y5984871D01*
X25403228Y6003919D01*
D11*
X41799871Y16383419D02*
X41180823Y16383419D01*
X41514157Y16002466D01*
X41371300Y16002466D01*
X41276061Y15954847D01*
X41228442Y15907228D01*
X41180823Y15811990D01*
X41180823Y15573895D01*
X41228442Y15478657D01*
X41276061Y15431038D01*
X41371300Y15383419D01*
X41657014Y15383419D01*
X41752252Y15431038D01*
X41799871Y15478657D01*
X40752252Y15478657D02*
X40704633Y15431038D01*
X40752252Y15383419D01*
X40799871Y15431038D01*
X40752252Y15478657D01*
X40752252Y15383419D01*
X40085585Y16383419D02*
X39990347Y16383419D01*
X39895109Y16335800D01*
X39847490Y16288180D01*
X39799871Y16192942D01*
X39752252Y16002466D01*
X39752252Y15764371D01*
X39799871Y15573895D01*
X39847490Y15478657D01*
X39895109Y15431038D01*
X39990347Y15383419D01*
X40085585Y15383419D01*
X40180823Y15431038D01*
X40228442Y15478657D01*
X40276061Y15573895D01*
X40323680Y15764371D01*
X40323680Y16002466D01*
X40276061Y16192942D01*
X40228442Y16288180D01*
X40180823Y16335800D01*
X40085585Y16383419D01*
X38799871Y15383419D02*
X39371300Y15383419D01*
X39085585Y15383419D02*
X39085585Y16383419D01*
X39180823Y16240561D01*
X39276061Y16145323D01*
X39371300Y16097704D01*
X38371300Y15383419D02*
X38371300Y16383419D01*
X38276061Y15764371D02*
X37990347Y15383419D01*
X37990347Y16050085D02*
X38371300Y15669133D01*
D12*
X40128442Y14224847D02*
X40261776Y14415323D01*
X40357014Y14224847D02*
X40357014Y14624847D01*
X40204633Y14624847D01*
X40166538Y14605800D01*
X40147490Y14586752D01*
X40128442Y14548657D01*
X40128442Y14491514D01*
X40147490Y14453419D01*
X40166538Y14434371D01*
X40204633Y14415323D01*
X40357014Y14415323D01*
X39785585Y14491514D02*
X39785585Y14224847D01*
X39880823Y14643895D02*
X39976061Y14358180D01*
X39728442Y14358180D01*
X39404633Y14624847D02*
X39480823Y14624847D01*
X39518919Y14605800D01*
X39537966Y14586752D01*
X39576061Y14529609D01*
X39595109Y14453419D01*
X39595109Y14301038D01*
X39576061Y14262942D01*
X39557014Y14243895D01*
X39518919Y14224847D01*
X39442728Y14224847D01*
X39404633Y14243895D01*
X39385585Y14262942D01*
X39366538Y14301038D01*
X39366538Y14396276D01*
X39385585Y14434371D01*
X39404633Y14453419D01*
X39442728Y14472466D01*
X39518919Y14472466D01*
X39557014Y14453419D01*
X39576061Y14434371D01*
X39595109Y14396276D01*
D11*
X10893323Y36061919D02*
X10274276Y36061919D01*
X10607609Y35680966D01*
X10464752Y35680966D01*
X10369514Y35633347D01*
X10321895Y35585728D01*
X10274276Y35490490D01*
X10274276Y35252395D01*
X10321895Y35157157D01*
X10369514Y35109538D01*
X10464752Y35061919D01*
X10750466Y35061919D01*
X10845704Y35109538D01*
X10893323Y35157157D01*
X9940942Y36061919D02*
X9321895Y36061919D01*
X9655228Y35680966D01*
X9512371Y35680966D01*
X9417133Y35633347D01*
X9369514Y35585728D01*
X9321895Y35490490D01*
X9321895Y35252395D01*
X9369514Y35157157D01*
X9417133Y35109538D01*
X9512371Y35061919D01*
X9798085Y35061919D01*
X9893323Y35109538D01*
X9940942Y35157157D01*
D12*
X10340942Y36763347D02*
X10474276Y36953823D01*
X10569514Y36763347D02*
X10569514Y37163347D01*
X10417133Y37163347D01*
X10379038Y37144300D01*
X10359990Y37125252D01*
X10340942Y37087157D01*
X10340942Y37030014D01*
X10359990Y36991919D01*
X10379038Y36972871D01*
X10417133Y36953823D01*
X10569514Y36953823D01*
X9998085Y37030014D02*
X9998085Y36763347D01*
X10093323Y37182395D02*
X10188561Y36896680D01*
X9940942Y36896680D01*
X9598085Y37163347D02*
X9788561Y37163347D01*
X9807609Y36972871D01*
X9788561Y36991919D01*
X9750466Y37010966D01*
X9655228Y37010966D01*
X9617133Y36991919D01*
X9598085Y36972871D01*
X9579038Y36934776D01*
X9579038Y36839538D01*
X9598085Y36801442D01*
X9617133Y36782395D01*
X9655228Y36763347D01*
X9750466Y36763347D01*
X9788561Y36782395D01*
X9807609Y36801442D01*
D11*
X7931514Y41897204D02*
X8598180Y41897204D01*
X7550561Y42135300D02*
X8264847Y42373395D01*
X8264847Y41754347D01*
X8598180Y41325776D02*
X8598180Y41135300D01*
X8550561Y41040061D01*
X8502942Y40992442D01*
X8360085Y40897204D01*
X8169609Y40849585D01*
X7788657Y40849585D01*
X7693419Y40897204D01*
X7645800Y40944823D01*
X7598180Y41040061D01*
X7598180Y41230538D01*
X7645800Y41325776D01*
X7693419Y41373395D01*
X7788657Y41421014D01*
X8026752Y41421014D01*
X8121990Y41373395D01*
X8169609Y41325776D01*
X8217228Y41230538D01*
X8217228Y41040061D01*
X8169609Y40944823D01*
X8121990Y40897204D01*
X8026752Y40849585D01*
X8598180Y40373395D02*
X8598180Y40182919D01*
X8550561Y40087680D01*
X8502942Y40040061D01*
X8360085Y39944823D01*
X8169609Y39897204D01*
X7788657Y39897204D01*
X7693419Y39944823D01*
X7645800Y39992442D01*
X7598180Y40087680D01*
X7598180Y40278157D01*
X7645800Y40373395D01*
X7693419Y40421014D01*
X7788657Y40468633D01*
X8026752Y40468633D01*
X8121990Y40421014D01*
X8169609Y40373395D01*
X8217228Y40278157D01*
X8217228Y40087680D01*
X8169609Y39992442D01*
X8121990Y39944823D01*
X8026752Y39897204D01*
D12*
X9756752Y41392442D02*
X9566276Y41525776D01*
X9756752Y41621014D02*
X9356752Y41621014D01*
X9356752Y41468633D01*
X9375800Y41430538D01*
X9394847Y41411490D01*
X9432942Y41392442D01*
X9490085Y41392442D01*
X9528180Y41411490D01*
X9547228Y41430538D01*
X9566276Y41468633D01*
X9566276Y41621014D01*
X9490085Y41049585D02*
X9756752Y41049585D01*
X9337704Y41144823D02*
X9623419Y41240061D01*
X9623419Y40992442D01*
X9394847Y40859109D02*
X9375800Y40840061D01*
X9356752Y40801966D01*
X9356752Y40706728D01*
X9375800Y40668633D01*
X9394847Y40649585D01*
X9432942Y40630538D01*
X9471038Y40630538D01*
X9528180Y40649585D01*
X9756752Y40878157D01*
X9756752Y40630538D01*
D11*
X71210180Y13250109D02*
X70210180Y13250109D01*
X70924466Y12916776D01*
X70210180Y12583442D01*
X71210180Y12583442D01*
X70686371Y11773919D02*
X70733990Y11631061D01*
X70781609Y11583442D01*
X70876847Y11535823D01*
X71019704Y11535823D01*
X71114942Y11583442D01*
X71162561Y11631061D01*
X71210180Y11726300D01*
X71210180Y12107252D01*
X70210180Y12107252D01*
X70210180Y11773919D01*
X70257800Y11678680D01*
X70305419Y11631061D01*
X70400657Y11583442D01*
X70495895Y11583442D01*
X70591133Y11631061D01*
X70638752Y11678680D01*
X70686371Y11773919D01*
X70686371Y12107252D01*
X70210180Y11250109D02*
X70210180Y10678680D01*
X71210180Y10964395D02*
X70210180Y10964395D01*
X70210180Y10440585D02*
X70210180Y9821538D01*
X70591133Y10154871D01*
X70591133Y10012014D01*
X70638752Y9916776D01*
X70686371Y9869157D01*
X70781609Y9821538D01*
X71019704Y9821538D01*
X71114942Y9869157D01*
X71162561Y9916776D01*
X71210180Y10012014D01*
X71210180Y10297728D01*
X71162561Y10392966D01*
X71114942Y10440585D01*
X71210180Y9345347D02*
X71210180Y9154871D01*
X71162561Y9059633D01*
X71114942Y9012014D01*
X70972085Y8916776D01*
X70781609Y8869157D01*
X70400657Y8869157D01*
X70305419Y8916776D01*
X70257800Y8964395D01*
X70210180Y9059633D01*
X70210180Y9250109D01*
X70257800Y9345347D01*
X70305419Y9392966D01*
X70400657Y9440585D01*
X70638752Y9440585D01*
X70733990Y9392966D01*
X70781609Y9345347D01*
X70829228Y9250109D01*
X70829228Y9059633D01*
X70781609Y8964395D01*
X70733990Y8916776D01*
X70638752Y8869157D01*
X70210180Y8250109D02*
X70210180Y8154871D01*
X70257800Y8059633D01*
X70305419Y8012014D01*
X70400657Y7964395D01*
X70591133Y7916776D01*
X70829228Y7916776D01*
X71019704Y7964395D01*
X71114942Y8012014D01*
X71162561Y8059633D01*
X71210180Y8154871D01*
X71210180Y8250109D01*
X71162561Y8345347D01*
X71114942Y8392966D01*
X71019704Y8440585D01*
X70829228Y8488204D01*
X70591133Y8488204D01*
X70400657Y8440585D01*
X70305419Y8392966D01*
X70257800Y8345347D01*
X70210180Y8250109D01*
X70543514Y7059633D02*
X71210180Y7059633D01*
X70162561Y7297728D02*
X70876847Y7535823D01*
X70876847Y6916776D01*
X71210180Y6535823D02*
X70210180Y6535823D01*
X70210180Y6297728D01*
X70257800Y6154871D01*
X70353038Y6059633D01*
X70448276Y6012014D01*
X70638752Y5964395D01*
X70781609Y5964395D01*
X70972085Y6012014D01*
X71067323Y6059633D01*
X71162561Y6154871D01*
X71210180Y6297728D01*
X71210180Y6535823D01*
X70210180Y5631061D02*
X71210180Y5392966D01*
X70495895Y5202490D01*
X71210180Y5012014D01*
X70210180Y4773919D01*
X71210180Y3869157D02*
X71210180Y4440585D01*
X71210180Y4154871D02*
X70210180Y4154871D01*
X70353038Y4250109D01*
X70448276Y4345347D01*
X70495895Y4440585D01*
X70210180Y3583442D02*
X70210180Y3012014D01*
X71210180Y3297728D02*
X70210180Y3297728D01*
X71210180Y2154871D02*
X71210180Y2726300D01*
X71210180Y2440585D02*
X70210180Y2440585D01*
X70353038Y2535823D01*
X70448276Y2631061D01*
X70495895Y2726300D01*
X70257800Y1202490D02*
X70210180Y1297728D01*
X70210180Y1440585D01*
X70257800Y1583442D01*
X70353038Y1678680D01*
X70448276Y1726300D01*
X70638752Y1773919D01*
X70781609Y1773919D01*
X70972085Y1726300D01*
X71067323Y1678680D01*
X71162561Y1583442D01*
X71210180Y1440585D01*
X71210180Y1345347D01*
X71162561Y1202490D01*
X71114942Y1154871D01*
X70781609Y1154871D01*
X70781609Y1345347D01*
D15*
X68805419Y6952490D02*
X68853038Y6976300D01*
X68900657Y7023919D01*
X68972085Y7095347D01*
X69019704Y7119157D01*
X69067323Y7119157D01*
X69043514Y7000109D02*
X69091133Y7023919D01*
X69138752Y7071538D01*
X69162561Y7166776D01*
X69162561Y7333442D01*
X69138752Y7428680D01*
X69091133Y7476300D01*
X69043514Y7500109D01*
X68948276Y7500109D01*
X68900657Y7476300D01*
X68853038Y7428680D01*
X68829228Y7333442D01*
X68829228Y7166776D01*
X68853038Y7071538D01*
X68900657Y7023919D01*
X68948276Y7000109D01*
X69043514Y7000109D01*
X68662561Y7500109D02*
X68353038Y7500109D01*
X68519704Y7309633D01*
X68448276Y7309633D01*
X68400657Y7285823D01*
X68376847Y7262014D01*
X68353038Y7214395D01*
X68353038Y7095347D01*
X68376847Y7047728D01*
X68400657Y7023919D01*
X68448276Y7000109D01*
X68591133Y7000109D01*
X68638752Y7023919D01*
X68662561Y7047728D01*
D11*
X26474609Y21472919D02*
X26474609Y22472919D01*
X26236514Y22472919D01*
X26093657Y22425300D01*
X25998419Y22330061D01*
X25950800Y22234823D01*
X25903180Y22044347D01*
X25903180Y21901490D01*
X25950800Y21711014D01*
X25998419Y21615776D01*
X26093657Y21520538D01*
X26236514Y21472919D01*
X26474609Y21472919D01*
X25474609Y21472919D02*
X25474609Y22472919D01*
X24903180Y21472919D01*
X24903180Y22472919D01*
X24426990Y21472919D02*
X24426990Y22472919D01*
D12*
X25707942Y23212442D02*
X25726990Y23193395D01*
X25784133Y23174347D01*
X25822228Y23174347D01*
X25879371Y23193395D01*
X25917466Y23231490D01*
X25936514Y23269585D01*
X25955561Y23345776D01*
X25955561Y23402919D01*
X25936514Y23479109D01*
X25917466Y23517204D01*
X25879371Y23555300D01*
X25822228Y23574347D01*
X25784133Y23574347D01*
X25726990Y23555300D01*
X25707942Y23536252D01*
X25555561Y23536252D02*
X25536514Y23555300D01*
X25498419Y23574347D01*
X25403180Y23574347D01*
X25365085Y23555300D01*
X25346038Y23536252D01*
X25326990Y23498157D01*
X25326990Y23460061D01*
X25346038Y23402919D01*
X25574609Y23174347D01*
X25326990Y23174347D01*
X25193657Y23574347D02*
X24926990Y23574347D01*
X25098419Y23174347D01*
D11*
X27355133Y15287919D02*
X26783704Y15287919D01*
X27069419Y14287919D02*
X27069419Y15287919D01*
X26450371Y14287919D02*
X26450371Y15287919D01*
X26117038Y14573633D01*
X25783704Y15287919D01*
X25783704Y14287919D01*
X25307514Y15287919D02*
X25307514Y14478395D01*
X25259895Y14383157D01*
X25212276Y14335538D01*
X25117038Y14287919D01*
X24926561Y14287919D01*
X24831323Y14335538D01*
X24783704Y14383157D01*
X24736085Y14478395D01*
X24736085Y15287919D01*
X24355133Y15287919D02*
X23688466Y14287919D01*
X23688466Y15287919D02*
X24355133Y14287919D01*
X22878942Y15287919D02*
X23069419Y15287919D01*
X23164657Y15240300D01*
X23212276Y15192680D01*
X23307514Y15049823D01*
X23355133Y14859347D01*
X23355133Y14478395D01*
X23307514Y14383157D01*
X23259895Y14335538D01*
X23164657Y14287919D01*
X22974180Y14287919D01*
X22878942Y14335538D01*
X22831323Y14383157D01*
X22783704Y14478395D01*
X22783704Y14716490D01*
X22831323Y14811728D01*
X22878942Y14859347D01*
X22974180Y14906966D01*
X23164657Y14906966D01*
X23259895Y14859347D01*
X23307514Y14811728D01*
X23355133Y14716490D01*
X21831323Y14287919D02*
X22402752Y14287919D01*
X22117038Y14287919D02*
X22117038Y15287919D01*
X22212276Y15145061D01*
X22307514Y15049823D01*
X22402752Y15002204D01*
X20878942Y14287919D02*
X21450371Y14287919D01*
X21164657Y14287919D02*
X21164657Y15287919D01*
X21259895Y15145061D01*
X21355133Y15049823D01*
X21450371Y15002204D01*
X19926561Y14287919D02*
X20497990Y14287919D01*
X20212276Y14287919D02*
X20212276Y15287919D01*
X20307514Y15145061D01*
X20402752Y15049823D01*
X20497990Y15002204D01*
X19497990Y14287919D02*
X19497990Y15287919D01*
X19117038Y15287919D01*
X19021800Y15240300D01*
X18974180Y15192680D01*
X18926561Y15097442D01*
X18926561Y14954585D01*
X18974180Y14859347D01*
X19021800Y14811728D01*
X19117038Y14764109D01*
X19497990Y14764109D01*
X18593228Y15287919D02*
X18355133Y14287919D01*
X18164657Y15002204D01*
X17974180Y14287919D01*
X17736085Y15287919D01*
X16783704Y14287919D02*
X17117038Y14764109D01*
X17355133Y14287919D02*
X17355133Y15287919D01*
X16974180Y15287919D01*
X16878942Y15240300D01*
X16831323Y15192680D01*
X16783704Y15097442D01*
X16783704Y14954585D01*
X16831323Y14859347D01*
X16878942Y14811728D01*
X16974180Y14764109D01*
X17355133Y14764109D01*
X23259895Y11837919D02*
X23259895Y11028395D01*
X23212276Y10933157D01*
X23164657Y10885538D01*
X23069419Y10837919D01*
X22878942Y10837919D01*
X22783704Y10885538D01*
X22736085Y10933157D01*
X22688466Y11028395D01*
X22688466Y11837919D01*
X22259895Y11742680D02*
X22212276Y11790300D01*
X22117038Y11837919D01*
X21878942Y11837919D01*
X21783704Y11790300D01*
X21736085Y11742680D01*
X21688466Y11647442D01*
X21688466Y11552204D01*
X21736085Y11409347D01*
X22307514Y10837919D01*
X21688466Y10837919D01*
X20736085Y10837919D02*
X21307514Y10837919D01*
X21021800Y10837919D02*
X21021800Y11837919D01*
X21117038Y11695061D01*
X21212276Y11599823D01*
X21307514Y11552204D01*
X5743180Y36340966D02*
X5743180Y36912395D01*
X5743180Y36626680D02*
X4743180Y36626680D01*
X4886038Y36721919D01*
X4981276Y36817157D01*
X5028895Y36912395D01*
X4838419Y35960014D02*
X4790800Y35912395D01*
X4743180Y35817157D01*
X4743180Y35579061D01*
X4790800Y35483823D01*
X4838419Y35436204D01*
X4933657Y35388585D01*
X5028895Y35388585D01*
X5171752Y35436204D01*
X5743180Y36007633D01*
X5743180Y35388585D01*
X4743180Y34769538D02*
X4743180Y34674300D01*
X4790800Y34579061D01*
X4838419Y34531442D01*
X4933657Y34483823D01*
X5124133Y34436204D01*
X5362228Y34436204D01*
X5552704Y34483823D01*
X5647942Y34531442D01*
X5695561Y34579061D01*
X5743180Y34674300D01*
X5743180Y34769538D01*
X5695561Y34864776D01*
X5647942Y34912395D01*
X5552704Y34960014D01*
X5362228Y35007633D01*
X5124133Y35007633D01*
X4933657Y34960014D01*
X4838419Y34912395D01*
X4790800Y34864776D01*
X4743180Y34769538D01*
D12*
X4041752Y35931442D02*
X3851276Y36064776D01*
X4041752Y36160014D02*
X3641752Y36160014D01*
X3641752Y36007633D01*
X3660800Y35969538D01*
X3679847Y35950490D01*
X3717942Y35931442D01*
X3775085Y35931442D01*
X3813180Y35950490D01*
X3832228Y35969538D01*
X3851276Y36007633D01*
X3851276Y36160014D01*
X3641752Y35569538D02*
X3641752Y35760014D01*
X3832228Y35779061D01*
X3813180Y35760014D01*
X3794133Y35721919D01*
X3794133Y35626680D01*
X3813180Y35588585D01*
X3832228Y35569538D01*
X3870323Y35550490D01*
X3965561Y35550490D01*
X4003657Y35569538D01*
X4022704Y35588585D01*
X4041752Y35626680D01*
X4041752Y35721919D01*
X4022704Y35760014D01*
X4003657Y35779061D01*
X3813180Y35321919D02*
X3794133Y35360014D01*
X3775085Y35379061D01*
X3736990Y35398109D01*
X3717942Y35398109D01*
X3679847Y35379061D01*
X3660800Y35360014D01*
X3641752Y35321919D01*
X3641752Y35245728D01*
X3660800Y35207633D01*
X3679847Y35188585D01*
X3717942Y35169538D01*
X3736990Y35169538D01*
X3775085Y35188585D01*
X3794133Y35207633D01*
X3813180Y35245728D01*
X3813180Y35321919D01*
X3832228Y35360014D01*
X3851276Y35379061D01*
X3889371Y35398109D01*
X3965561Y35398109D01*
X4003657Y35379061D01*
X4022704Y35360014D01*
X4041752Y35321919D01*
X4041752Y35245728D01*
X4022704Y35207633D01*
X4003657Y35188585D01*
X3965561Y35169538D01*
X3889371Y35169538D01*
X3851276Y35188585D01*
X3832228Y35207633D01*
X3813180Y35245728D01*
D11*
X40603395Y13521919D02*
X40793871Y13521919D01*
X40889109Y13474300D01*
X40936728Y13426680D01*
X41031966Y13283823D01*
X41079585Y13093347D01*
X41079585Y12712395D01*
X41031966Y12617157D01*
X40984347Y12569538D01*
X40889109Y12521919D01*
X40698633Y12521919D01*
X40603395Y12569538D01*
X40555776Y12617157D01*
X40508157Y12712395D01*
X40508157Y12950490D01*
X40555776Y13045728D01*
X40603395Y13093347D01*
X40698633Y13140966D01*
X40889109Y13140966D01*
X40984347Y13093347D01*
X41031966Y13045728D01*
X41079585Y12950490D01*
X39936728Y13093347D02*
X40031966Y13140966D01*
X40079585Y13188585D01*
X40127204Y13283823D01*
X40127204Y13331442D01*
X40079585Y13426680D01*
X40031966Y13474300D01*
X39936728Y13521919D01*
X39746252Y13521919D01*
X39651014Y13474300D01*
X39603395Y13426680D01*
X39555776Y13331442D01*
X39555776Y13283823D01*
X39603395Y13188585D01*
X39651014Y13140966D01*
X39746252Y13093347D01*
X39936728Y13093347D01*
X40031966Y13045728D01*
X40079585Y12998109D01*
X40127204Y12902871D01*
X40127204Y12712395D01*
X40079585Y12617157D01*
X40031966Y12569538D01*
X39936728Y12521919D01*
X39746252Y12521919D01*
X39651014Y12569538D01*
X39603395Y12617157D01*
X39555776Y12712395D01*
X39555776Y12902871D01*
X39603395Y12998109D01*
X39651014Y13045728D01*
X39746252Y13093347D01*
X39127204Y13188585D02*
X39127204Y12188585D01*
X39127204Y13140966D02*
X39031966Y13188585D01*
X38841490Y13188585D01*
X38746252Y13140966D01*
X38698633Y13093347D01*
X38651014Y12998109D01*
X38651014Y12712395D01*
X38698633Y12617157D01*
X38746252Y12569538D01*
X38841490Y12521919D01*
X39031966Y12521919D01*
X39127204Y12569538D01*
D12*
X40122442Y11401442D02*
X40141490Y11382395D01*
X40198633Y11363347D01*
X40236728Y11363347D01*
X40293871Y11382395D01*
X40331966Y11420490D01*
X40351014Y11458585D01*
X40370061Y11534776D01*
X40370061Y11591919D01*
X40351014Y11668109D01*
X40331966Y11706204D01*
X40293871Y11744300D01*
X40236728Y11763347D01*
X40198633Y11763347D01*
X40141490Y11744300D01*
X40122442Y11725252D01*
X39970061Y11725252D02*
X39951014Y11744300D01*
X39912919Y11763347D01*
X39817680Y11763347D01*
X39779585Y11744300D01*
X39760538Y11725252D01*
X39741490Y11687157D01*
X39741490Y11649061D01*
X39760538Y11591919D01*
X39989109Y11363347D01*
X39741490Y11363347D01*
X39608157Y11763347D02*
X39360538Y11763347D01*
X39493871Y11610966D01*
X39436728Y11610966D01*
X39398633Y11591919D01*
X39379585Y11572871D01*
X39360538Y11534776D01*
X39360538Y11439538D01*
X39379585Y11401442D01*
X39398633Y11382395D01*
X39436728Y11363347D01*
X39551014Y11363347D01*
X39589109Y11382395D01*
X39608157Y11401442D01*
D11*
X41143085Y7648180D02*
X41095466Y7695800D01*
X41000228Y7743419D01*
X40762133Y7743419D01*
X40666895Y7695800D01*
X40619276Y7648180D01*
X40571657Y7552942D01*
X40571657Y7457704D01*
X40619276Y7314847D01*
X41190704Y6743419D01*
X40571657Y6743419D01*
X39952609Y7743419D02*
X39857371Y7743419D01*
X39762133Y7695800D01*
X39714514Y7648180D01*
X39666895Y7552942D01*
X39619276Y7362466D01*
X39619276Y7124371D01*
X39666895Y6933895D01*
X39714514Y6838657D01*
X39762133Y6791038D01*
X39857371Y6743419D01*
X39952609Y6743419D01*
X40047847Y6791038D01*
X40095466Y6838657D01*
X40143085Y6933895D01*
X40190704Y7124371D01*
X40190704Y7362466D01*
X40143085Y7552942D01*
X40095466Y7648180D01*
X40047847Y7695800D01*
X39952609Y7743419D01*
X39190704Y7410085D02*
X39190704Y6410085D01*
X39190704Y7362466D02*
X39095466Y7410085D01*
X38904990Y7410085D01*
X38809752Y7362466D01*
X38762133Y7314847D01*
X38714514Y7219609D01*
X38714514Y6933895D01*
X38762133Y6838657D01*
X38809752Y6791038D01*
X38904990Y6743419D01*
X39095466Y6743419D01*
X39190704Y6791038D01*
D12*
X40185942Y5622942D02*
X40204990Y5603895D01*
X40262133Y5584847D01*
X40300228Y5584847D01*
X40357371Y5603895D01*
X40395466Y5641990D01*
X40414514Y5680085D01*
X40433561Y5756276D01*
X40433561Y5813419D01*
X40414514Y5889609D01*
X40395466Y5927704D01*
X40357371Y5965800D01*
X40300228Y5984847D01*
X40262133Y5984847D01*
X40204990Y5965800D01*
X40185942Y5946752D01*
X40033561Y5946752D02*
X40014514Y5965800D01*
X39976419Y5984847D01*
X39881180Y5984847D01*
X39843085Y5965800D01*
X39824038Y5946752D01*
X39804990Y5908657D01*
X39804990Y5870561D01*
X39824038Y5813419D01*
X40052609Y5584847D01*
X39804990Y5584847D01*
X39462133Y5851514D02*
X39462133Y5584847D01*
X39557371Y6003895D02*
X39652609Y5718180D01*
X39404990Y5718180D01*
D11*
X5686323Y32251919D02*
X5067276Y32251919D01*
X5400609Y31870966D01*
X5257752Y31870966D01*
X5162514Y31823347D01*
X5114895Y31775728D01*
X5067276Y31680490D01*
X5067276Y31442395D01*
X5114895Y31347157D01*
X5162514Y31299538D01*
X5257752Y31251919D01*
X5543466Y31251919D01*
X5638704Y31299538D01*
X5686323Y31347157D01*
X4733942Y32251919D02*
X4114895Y32251919D01*
X4448228Y31870966D01*
X4305371Y31870966D01*
X4210133Y31823347D01*
X4162514Y31775728D01*
X4114895Y31680490D01*
X4114895Y31442395D01*
X4162514Y31347157D01*
X4210133Y31299538D01*
X4305371Y31251919D01*
X4591085Y31251919D01*
X4686323Y31299538D01*
X4733942Y31347157D01*
D12*
X5133942Y32953347D02*
X5267276Y33143823D01*
X5362514Y32953347D02*
X5362514Y33353347D01*
X5210133Y33353347D01*
X5172038Y33334300D01*
X5152990Y33315252D01*
X5133942Y33277157D01*
X5133942Y33220014D01*
X5152990Y33181919D01*
X5172038Y33162871D01*
X5210133Y33143823D01*
X5362514Y33143823D01*
X4791085Y33220014D02*
X4791085Y32953347D01*
X4886323Y33372395D02*
X4981561Y33086680D01*
X4733942Y33086680D01*
X4410133Y33220014D02*
X4410133Y32953347D01*
X4505371Y33372395D02*
X4600609Y33086680D01*
X4352990Y33086680D01*
D11*
X4661180Y36817157D02*
X4661180Y37388585D01*
X4661180Y37102871D02*
X3661180Y37102871D01*
X3804038Y37198109D01*
X3899276Y37293347D01*
X3946895Y37388585D01*
X3661180Y35912395D02*
X3661180Y36388585D01*
X4137371Y36436204D01*
X4089752Y36388585D01*
X4042133Y36293347D01*
X4042133Y36055252D01*
X4089752Y35960014D01*
X4137371Y35912395D01*
X4232609Y35864776D01*
X4470704Y35864776D01*
X4565942Y35912395D01*
X4613561Y35960014D01*
X4661180Y36055252D01*
X4661180Y36293347D01*
X4613561Y36388585D01*
X4565942Y36436204D01*
X3661180Y35245728D02*
X3661180Y35150490D01*
X3708800Y35055252D01*
X3756419Y35007633D01*
X3851657Y34960014D01*
X4042133Y34912395D01*
X4280228Y34912395D01*
X4470704Y34960014D01*
X4565942Y35007633D01*
X4613561Y35055252D01*
X4661180Y35150490D01*
X4661180Y35245728D01*
X4613561Y35340966D01*
X4565942Y35388585D01*
X4470704Y35436204D01*
X4280228Y35483823D01*
X4042133Y35483823D01*
X3851657Y35436204D01*
X3756419Y35388585D01*
X3708800Y35340966D01*
X3661180Y35245728D01*
X3661180Y34293347D02*
X3661180Y34198109D01*
X3708800Y34102871D01*
X3756419Y34055252D01*
X3851657Y34007633D01*
X4042133Y33960014D01*
X4280228Y33960014D01*
X4470704Y34007633D01*
X4565942Y34055252D01*
X4613561Y34102871D01*
X4661180Y34198109D01*
X4661180Y34293347D01*
X4613561Y34388585D01*
X4565942Y34436204D01*
X4470704Y34483823D01*
X4280228Y34531442D01*
X4042133Y34531442D01*
X3851657Y34483823D01*
X3756419Y34436204D01*
X3708800Y34388585D01*
X3661180Y34293347D01*
D12*
X5819752Y35931442D02*
X5629276Y36064776D01*
X5819752Y36160014D02*
X5419752Y36160014D01*
X5419752Y36007633D01*
X5438800Y35969538D01*
X5457847Y35950490D01*
X5495942Y35931442D01*
X5553085Y35931442D01*
X5591180Y35950490D01*
X5610228Y35969538D01*
X5629276Y36007633D01*
X5629276Y36160014D01*
X5553085Y35588585D02*
X5819752Y35588585D01*
X5400704Y35683823D02*
X5686419Y35779061D01*
X5686419Y35531442D01*
X5419752Y35302871D02*
X5419752Y35264776D01*
X5438800Y35226680D01*
X5457847Y35207633D01*
X5495942Y35188585D01*
X5572133Y35169538D01*
X5667371Y35169538D01*
X5743561Y35188585D01*
X5781657Y35207633D01*
X5800704Y35226680D01*
X5819752Y35264776D01*
X5819752Y35302871D01*
X5800704Y35340966D01*
X5781657Y35360014D01*
X5743561Y35379061D01*
X5667371Y35398109D01*
X5572133Y35398109D01*
X5495942Y35379061D01*
X5457847Y35360014D01*
X5438800Y35340966D01*
X5419752Y35302871D01*
D11*
X22774680Y20886585D02*
X22774680Y20791347D01*
X22822300Y20696109D01*
X22869919Y20648490D01*
X22965157Y20600871D01*
X23155633Y20553252D01*
X23393728Y20553252D01*
X23584204Y20600871D01*
X23679442Y20648490D01*
X23727061Y20696109D01*
X23774680Y20791347D01*
X23774680Y20886585D01*
X23727061Y20981823D01*
X23679442Y21029442D01*
X23584204Y21077061D01*
X23393728Y21124680D01*
X23155633Y21124680D01*
X22965157Y21077061D01*
X22869919Y21029442D01*
X22822300Y20981823D01*
X22774680Y20886585D01*
X23679442Y20124680D02*
X23727061Y20077061D01*
X23774680Y20124680D01*
X23727061Y20172300D01*
X23679442Y20124680D01*
X23774680Y20124680D01*
X23774680Y19124680D02*
X23774680Y19696109D01*
X23774680Y19410395D02*
X22774680Y19410395D01*
X22917538Y19505633D01*
X23012776Y19600871D01*
X23060395Y19696109D01*
X23108014Y18267538D02*
X23774680Y18267538D01*
X23108014Y18696109D02*
X23631823Y18696109D01*
X23727061Y18648490D01*
X23774680Y18553252D01*
X23774680Y18410395D01*
X23727061Y18315157D01*
X23679442Y18267538D01*
D12*
X24895157Y19929442D02*
X24914204Y19948490D01*
X24933252Y20005633D01*
X24933252Y20043728D01*
X24914204Y20100871D01*
X24876109Y20138966D01*
X24838014Y20158014D01*
X24761823Y20177061D01*
X24704680Y20177061D01*
X24628490Y20158014D01*
X24590395Y20138966D01*
X24552300Y20100871D01*
X24533252Y20043728D01*
X24533252Y20005633D01*
X24552300Y19948490D01*
X24571347Y19929442D01*
X24533252Y19796109D02*
X24533252Y19548490D01*
X24685633Y19681823D01*
X24685633Y19624680D01*
X24704680Y19586585D01*
X24723728Y19567538D01*
X24761823Y19548490D01*
X24857061Y19548490D01*
X24895157Y19567538D01*
X24914204Y19586585D01*
X24933252Y19624680D01*
X24933252Y19738966D01*
X24914204Y19777061D01*
X24895157Y19796109D01*
X24704680Y19319919D02*
X24685633Y19358014D01*
X24666585Y19377061D01*
X24628490Y19396109D01*
X24609442Y19396109D01*
X24571347Y19377061D01*
X24552300Y19358014D01*
X24533252Y19319919D01*
X24533252Y19243728D01*
X24552300Y19205633D01*
X24571347Y19186585D01*
X24609442Y19167538D01*
X24628490Y19167538D01*
X24666585Y19186585D01*
X24685633Y19205633D01*
X24704680Y19243728D01*
X24704680Y19319919D01*
X24723728Y19358014D01*
X24742776Y19377061D01*
X24780871Y19396109D01*
X24857061Y19396109D01*
X24895157Y19377061D01*
X24914204Y19358014D01*
X24933252Y19319919D01*
X24933252Y19243728D01*
X24914204Y19205633D01*
X24895157Y19186585D01*
X24857061Y19167538D01*
X24780871Y19167538D01*
X24742776Y19186585D01*
X24723728Y19205633D01*
X24704680Y19243728D01*
D11*
X19856180Y18854585D02*
X19856180Y18759347D01*
X19903800Y18664109D01*
X19951419Y18616490D01*
X20046657Y18568871D01*
X20237133Y18521252D01*
X20475228Y18521252D01*
X20665704Y18568871D01*
X20760942Y18616490D01*
X20808561Y18664109D01*
X20856180Y18759347D01*
X20856180Y18854585D01*
X20808561Y18949823D01*
X20760942Y18997442D01*
X20665704Y19045061D01*
X20475228Y19092680D01*
X20237133Y19092680D01*
X20046657Y19045061D01*
X19951419Y18997442D01*
X19903800Y18949823D01*
X19856180Y18854585D01*
X20760942Y18092680D02*
X20808561Y18045061D01*
X20856180Y18092680D01*
X20808561Y18140300D01*
X20760942Y18092680D01*
X20856180Y18092680D01*
X20856180Y17092680D02*
X20856180Y17664109D01*
X20856180Y17378395D02*
X19856180Y17378395D01*
X19999038Y17473633D01*
X20094276Y17568871D01*
X20141895Y17664109D01*
X20189514Y16235538D02*
X20856180Y16235538D01*
X20189514Y16664109D02*
X20713323Y16664109D01*
X20808561Y16616490D01*
X20856180Y16521252D01*
X20856180Y16378395D01*
X20808561Y16283157D01*
X20760942Y16235538D01*
D12*
X19116657Y17897442D02*
X19135704Y17916490D01*
X19154752Y17973633D01*
X19154752Y18011728D01*
X19135704Y18068871D01*
X19097609Y18106966D01*
X19059514Y18126014D01*
X18983323Y18145061D01*
X18926180Y18145061D01*
X18849990Y18126014D01*
X18811895Y18106966D01*
X18773800Y18068871D01*
X18754752Y18011728D01*
X18754752Y17973633D01*
X18773800Y17916490D01*
X18792847Y17897442D01*
X18754752Y17764109D02*
X18754752Y17516490D01*
X18907133Y17649823D01*
X18907133Y17592680D01*
X18926180Y17554585D01*
X18945228Y17535538D01*
X18983323Y17516490D01*
X19078561Y17516490D01*
X19116657Y17535538D01*
X19135704Y17554585D01*
X19154752Y17592680D01*
X19154752Y17706966D01*
X19135704Y17745061D01*
X19116657Y17764109D01*
X18754752Y17173633D02*
X18754752Y17249823D01*
X18773800Y17287919D01*
X18792847Y17306966D01*
X18849990Y17345061D01*
X18926180Y17364109D01*
X19078561Y17364109D01*
X19116657Y17345061D01*
X19135704Y17326014D01*
X19154752Y17287919D01*
X19154752Y17211728D01*
X19135704Y17173633D01*
X19116657Y17154585D01*
X19078561Y17135538D01*
X18983323Y17135538D01*
X18945228Y17154585D01*
X18926180Y17173633D01*
X18907133Y17211728D01*
X18907133Y17287919D01*
X18926180Y17326014D01*
X18945228Y17345061D01*
X18983323Y17364109D01*
D11*
X33856466Y42398585D02*
X33856466Y41731919D01*
X34094561Y42779538D02*
X34332657Y42065252D01*
X33713609Y42065252D01*
X33427895Y42731919D02*
X32761228Y42731919D01*
X33189800Y41731919D01*
X32189800Y42731919D02*
X32094561Y42731919D01*
X31999323Y42684300D01*
X31951704Y42636680D01*
X31904085Y42541442D01*
X31856466Y42350966D01*
X31856466Y42112871D01*
X31904085Y41922395D01*
X31951704Y41827157D01*
X31999323Y41779538D01*
X32094561Y41731919D01*
X32189800Y41731919D01*
X32285038Y41779538D01*
X32332657Y41827157D01*
X32380276Y41922395D01*
X32427895Y42112871D01*
X32427895Y42350966D01*
X32380276Y42541442D01*
X32332657Y42636680D01*
X32285038Y42684300D01*
X32189800Y42731919D01*
X31427895Y41731919D02*
X31427895Y42731919D01*
X31332657Y42112871D02*
X31046942Y41731919D01*
X31046942Y42398585D02*
X31427895Y42017633D01*
D12*
X32946942Y40573347D02*
X33080276Y40763823D01*
X33175514Y40573347D02*
X33175514Y40973347D01*
X33023133Y40973347D01*
X32985038Y40954300D01*
X32965990Y40935252D01*
X32946942Y40897157D01*
X32946942Y40840014D01*
X32965990Y40801919D01*
X32985038Y40782871D01*
X33023133Y40763823D01*
X33175514Y40763823D01*
X32604085Y40973347D02*
X32680276Y40973347D01*
X32718371Y40954300D01*
X32737419Y40935252D01*
X32775514Y40878109D01*
X32794561Y40801919D01*
X32794561Y40649538D01*
X32775514Y40611442D01*
X32756466Y40592395D01*
X32718371Y40573347D01*
X32642180Y40573347D01*
X32604085Y40592395D01*
X32585038Y40611442D01*
X32565990Y40649538D01*
X32565990Y40744776D01*
X32585038Y40782871D01*
X32604085Y40801919D01*
X32642180Y40820966D01*
X32718371Y40820966D01*
X32756466Y40801919D01*
X32775514Y40782871D01*
X32794561Y40744776D01*
X32185038Y40573347D02*
X32413609Y40573347D01*
X32299323Y40573347D02*
X32299323Y40973347D01*
X32337419Y40916204D01*
X32375514Y40878109D01*
X32413609Y40859061D01*
D11*
X32356419Y36508919D02*
X32261180Y36508919D01*
X32165942Y36461300D01*
X32118323Y36413680D01*
X32070704Y36318442D01*
X32023085Y36127966D01*
X32023085Y35889871D01*
X32070704Y35699395D01*
X32118323Y35604157D01*
X32165942Y35556538D01*
X32261180Y35508919D01*
X32356419Y35508919D01*
X32451657Y35556538D01*
X32499276Y35604157D01*
X32546895Y35699395D01*
X32594514Y35889871D01*
X32594514Y36127966D01*
X32546895Y36318442D01*
X32499276Y36413680D01*
X32451657Y36461300D01*
X32356419Y36508919D01*
D12*
X32565942Y34350347D02*
X32699276Y34540823D01*
X32794514Y34350347D02*
X32794514Y34750347D01*
X32642133Y34750347D01*
X32604038Y34731300D01*
X32584990Y34712252D01*
X32565942Y34674157D01*
X32565942Y34617014D01*
X32584990Y34578919D01*
X32604038Y34559871D01*
X32642133Y34540823D01*
X32794514Y34540823D01*
X32204038Y34750347D02*
X32394514Y34750347D01*
X32413561Y34559871D01*
X32394514Y34578919D01*
X32356419Y34597966D01*
X32261180Y34597966D01*
X32223085Y34578919D01*
X32204038Y34559871D01*
X32184990Y34521776D01*
X32184990Y34426538D01*
X32204038Y34388442D01*
X32223085Y34369395D01*
X32261180Y34350347D01*
X32356419Y34350347D01*
X32394514Y34369395D01*
X32413561Y34388442D01*
X32051657Y34750347D02*
X31804038Y34750347D01*
X31937371Y34597966D01*
X31880228Y34597966D01*
X31842133Y34578919D01*
X31823085Y34559871D01*
X31804038Y34521776D01*
X31804038Y34426538D01*
X31823085Y34388442D01*
X31842133Y34369395D01*
X31880228Y34350347D01*
X31994514Y34350347D01*
X32032609Y34369395D01*
X32051657Y34388442D01*
D11*
X32299680Y38412585D02*
X32299680Y38317347D01*
X32347300Y38222109D01*
X32394919Y38174490D01*
X32490157Y38126871D01*
X32680633Y38079252D01*
X32918728Y38079252D01*
X33109204Y38126871D01*
X33204442Y38174490D01*
X33252061Y38222109D01*
X33299680Y38317347D01*
X33299680Y38412585D01*
X33252061Y38507823D01*
X33204442Y38555442D01*
X33109204Y38603061D01*
X32918728Y38650680D01*
X32680633Y38650680D01*
X32490157Y38603061D01*
X32394919Y38555442D01*
X32347300Y38507823D01*
X32299680Y38412585D01*
X33204442Y37650680D02*
X33252061Y37603061D01*
X33299680Y37650680D01*
X33252061Y37698300D01*
X33204442Y37650680D01*
X33299680Y37650680D01*
X33299680Y36650680D02*
X33299680Y37222109D01*
X33299680Y36936395D02*
X32299680Y36936395D01*
X32442538Y37031633D01*
X32537776Y37126871D01*
X32585395Y37222109D01*
X32633014Y35793538D02*
X33299680Y35793538D01*
X32633014Y36222109D02*
X33156823Y36222109D01*
X33252061Y36174490D01*
X33299680Y36079252D01*
X33299680Y35936395D01*
X33252061Y35841157D01*
X33204442Y35793538D01*
D12*
X34420157Y37455442D02*
X34439204Y37474490D01*
X34458252Y37531633D01*
X34458252Y37569728D01*
X34439204Y37626871D01*
X34401109Y37664966D01*
X34363014Y37684014D01*
X34286823Y37703061D01*
X34229680Y37703061D01*
X34153490Y37684014D01*
X34115395Y37664966D01*
X34077300Y37626871D01*
X34058252Y37569728D01*
X34058252Y37531633D01*
X34077300Y37474490D01*
X34096347Y37455442D01*
X34058252Y37322109D02*
X34058252Y37074490D01*
X34210633Y37207823D01*
X34210633Y37150680D01*
X34229680Y37112585D01*
X34248728Y37093538D01*
X34286823Y37074490D01*
X34382061Y37074490D01*
X34420157Y37093538D01*
X34439204Y37112585D01*
X34458252Y37150680D01*
X34458252Y37264966D01*
X34439204Y37303061D01*
X34420157Y37322109D01*
X34058252Y36712585D02*
X34058252Y36903061D01*
X34248728Y36922109D01*
X34229680Y36903061D01*
X34210633Y36864966D01*
X34210633Y36769728D01*
X34229680Y36731633D01*
X34248728Y36712585D01*
X34286823Y36693538D01*
X34382061Y36693538D01*
X34420157Y36712585D01*
X34439204Y36731633D01*
X34458252Y36769728D01*
X34458252Y36864966D01*
X34439204Y36903061D01*
X34420157Y36922109D01*
D11*
X29315180Y38412585D02*
X29315180Y38317347D01*
X29362800Y38222109D01*
X29410419Y38174490D01*
X29505657Y38126871D01*
X29696133Y38079252D01*
X29934228Y38079252D01*
X30124704Y38126871D01*
X30219942Y38174490D01*
X30267561Y38222109D01*
X30315180Y38317347D01*
X30315180Y38412585D01*
X30267561Y38507823D01*
X30219942Y38555442D01*
X30124704Y38603061D01*
X29934228Y38650680D01*
X29696133Y38650680D01*
X29505657Y38603061D01*
X29410419Y38555442D01*
X29362800Y38507823D01*
X29315180Y38412585D01*
X30219942Y37650680D02*
X30267561Y37603061D01*
X30315180Y37650680D01*
X30267561Y37698300D01*
X30219942Y37650680D01*
X30315180Y37650680D01*
X30315180Y36650680D02*
X30315180Y37222109D01*
X30315180Y36936395D02*
X29315180Y36936395D01*
X29458038Y37031633D01*
X29553276Y37126871D01*
X29600895Y37222109D01*
X29648514Y35793538D02*
X30315180Y35793538D01*
X29648514Y36222109D02*
X30172323Y36222109D01*
X30267561Y36174490D01*
X30315180Y36079252D01*
X30315180Y35936395D01*
X30267561Y35841157D01*
X30219942Y35793538D01*
D12*
X31435657Y37455442D02*
X31454704Y37474490D01*
X31473752Y37531633D01*
X31473752Y37569728D01*
X31454704Y37626871D01*
X31416609Y37664966D01*
X31378514Y37684014D01*
X31302323Y37703061D01*
X31245180Y37703061D01*
X31168990Y37684014D01*
X31130895Y37664966D01*
X31092800Y37626871D01*
X31073752Y37569728D01*
X31073752Y37531633D01*
X31092800Y37474490D01*
X31111847Y37455442D01*
X31073752Y37322109D02*
X31073752Y37074490D01*
X31226133Y37207823D01*
X31226133Y37150680D01*
X31245180Y37112585D01*
X31264228Y37093538D01*
X31302323Y37074490D01*
X31397561Y37074490D01*
X31435657Y37093538D01*
X31454704Y37112585D01*
X31473752Y37150680D01*
X31473752Y37264966D01*
X31454704Y37303061D01*
X31435657Y37322109D01*
X31207085Y36731633D02*
X31473752Y36731633D01*
X31054704Y36826871D02*
X31340419Y36922109D01*
X31340419Y36674490D01*
D11*
X35157180Y38047585D02*
X35157180Y38523776D01*
X35633371Y38571395D01*
X35585752Y38523776D01*
X35538133Y38428538D01*
X35538133Y38190442D01*
X35585752Y38095204D01*
X35633371Y38047585D01*
X35728609Y37999966D01*
X35966704Y37999966D01*
X36061942Y38047585D01*
X36109561Y38095204D01*
X36157180Y38190442D01*
X36157180Y38428538D01*
X36109561Y38523776D01*
X36061942Y38571395D01*
X35490514Y37571395D02*
X36490514Y37571395D01*
X35538133Y37571395D02*
X35490514Y37476157D01*
X35490514Y37285680D01*
X35538133Y37190442D01*
X35585752Y37142823D01*
X35680990Y37095204D01*
X35966704Y37095204D01*
X36061942Y37142823D01*
X36109561Y37190442D01*
X36157180Y37285680D01*
X36157180Y37476157D01*
X36109561Y37571395D01*
D12*
X37277657Y38090442D02*
X37296704Y38109490D01*
X37315752Y38166633D01*
X37315752Y38204728D01*
X37296704Y38261871D01*
X37258609Y38299966D01*
X37220514Y38319014D01*
X37144323Y38338061D01*
X37087180Y38338061D01*
X37010990Y38319014D01*
X36972895Y38299966D01*
X36934800Y38261871D01*
X36915752Y38204728D01*
X36915752Y38166633D01*
X36934800Y38109490D01*
X36953847Y38090442D01*
X36915752Y37957109D02*
X36915752Y37709490D01*
X37068133Y37842823D01*
X37068133Y37785680D01*
X37087180Y37747585D01*
X37106228Y37728538D01*
X37144323Y37709490D01*
X37239561Y37709490D01*
X37277657Y37728538D01*
X37296704Y37747585D01*
X37315752Y37785680D01*
X37315752Y37899966D01*
X37296704Y37938061D01*
X37277657Y37957109D01*
X36915752Y37576157D02*
X36915752Y37328538D01*
X37068133Y37461871D01*
X37068133Y37404728D01*
X37087180Y37366633D01*
X37106228Y37347585D01*
X37144323Y37328538D01*
X37239561Y37328538D01*
X37277657Y37347585D01*
X37296704Y37366633D01*
X37315752Y37404728D01*
X37315752Y37519014D01*
X37296704Y37557109D01*
X37277657Y37576157D01*
D11*
X17648085Y25459919D02*
X17552847Y25459919D01*
X17457609Y25412300D01*
X17409990Y25364680D01*
X17362371Y25269442D01*
X17314752Y25078966D01*
X17314752Y24840871D01*
X17362371Y24650395D01*
X17409990Y24555157D01*
X17457609Y24507538D01*
X17552847Y24459919D01*
X17648085Y24459919D01*
X17743323Y24507538D01*
X17790942Y24555157D01*
X17838561Y24650395D01*
X17886180Y24840871D01*
X17886180Y25078966D01*
X17838561Y25269442D01*
X17790942Y25364680D01*
X17743323Y25412300D01*
X17648085Y25459919D01*
X16886180Y24555157D02*
X16838561Y24507538D01*
X16886180Y24459919D01*
X16933800Y24507538D01*
X16886180Y24555157D01*
X16886180Y24459919D01*
X15886180Y24459919D02*
X16457609Y24459919D01*
X16171895Y24459919D02*
X16171895Y25459919D01*
X16267133Y25317061D01*
X16362371Y25221823D01*
X16457609Y25174204D01*
X15029038Y25126585D02*
X15029038Y24459919D01*
X15457609Y25126585D02*
X15457609Y24602776D01*
X15409990Y24507538D01*
X15314752Y24459919D01*
X15171895Y24459919D01*
X15076657Y24507538D01*
X15029038Y24555157D01*
D12*
X16690942Y23339442D02*
X16709990Y23320395D01*
X16767133Y23301347D01*
X16805228Y23301347D01*
X16862371Y23320395D01*
X16900466Y23358490D01*
X16919514Y23396585D01*
X16938561Y23472776D01*
X16938561Y23529919D01*
X16919514Y23606109D01*
X16900466Y23644204D01*
X16862371Y23682300D01*
X16805228Y23701347D01*
X16767133Y23701347D01*
X16709990Y23682300D01*
X16690942Y23663252D01*
X16557609Y23701347D02*
X16309990Y23701347D01*
X16443323Y23548966D01*
X16386180Y23548966D01*
X16348085Y23529919D01*
X16329038Y23510871D01*
X16309990Y23472776D01*
X16309990Y23377538D01*
X16329038Y23339442D01*
X16348085Y23320395D01*
X16386180Y23301347D01*
X16500466Y23301347D01*
X16538561Y23320395D01*
X16557609Y23339442D01*
X16157609Y23663252D02*
X16138561Y23682300D01*
X16100466Y23701347D01*
X16005228Y23701347D01*
X15967133Y23682300D01*
X15948085Y23663252D01*
X15929038Y23625157D01*
X15929038Y23587061D01*
X15948085Y23529919D01*
X16176657Y23301347D01*
X15929038Y23301347D01*
D11*
X19790180Y26982585D02*
X19790180Y26887347D01*
X19837800Y26792109D01*
X19885419Y26744490D01*
X19980657Y26696871D01*
X20171133Y26649252D01*
X20409228Y26649252D01*
X20599704Y26696871D01*
X20694942Y26744490D01*
X20742561Y26792109D01*
X20790180Y26887347D01*
X20790180Y26982585D01*
X20742561Y27077823D01*
X20694942Y27125442D01*
X20599704Y27173061D01*
X20409228Y27220680D01*
X20171133Y27220680D01*
X19980657Y27173061D01*
X19885419Y27125442D01*
X19837800Y27077823D01*
X19790180Y26982585D01*
X20694942Y26220680D02*
X20742561Y26173061D01*
X20790180Y26220680D01*
X20742561Y26268300D01*
X20694942Y26220680D01*
X20790180Y26220680D01*
X20790180Y25220680D02*
X20790180Y25792109D01*
X20790180Y25506395D02*
X19790180Y25506395D01*
X19933038Y25601633D01*
X20028276Y25696871D01*
X20075895Y25792109D01*
X20123514Y24363538D02*
X20790180Y24363538D01*
X20123514Y24792109D02*
X20647323Y24792109D01*
X20742561Y24744490D01*
X20790180Y24649252D01*
X20790180Y24506395D01*
X20742561Y24411157D01*
X20694942Y24363538D01*
D12*
X21910657Y26025442D02*
X21929704Y26044490D01*
X21948752Y26101633D01*
X21948752Y26139728D01*
X21929704Y26196871D01*
X21891609Y26234966D01*
X21853514Y26254014D01*
X21777323Y26273061D01*
X21720180Y26273061D01*
X21643990Y26254014D01*
X21605895Y26234966D01*
X21567800Y26196871D01*
X21548752Y26139728D01*
X21548752Y26101633D01*
X21567800Y26044490D01*
X21586847Y26025442D01*
X21548752Y25892109D02*
X21548752Y25644490D01*
X21701133Y25777823D01*
X21701133Y25720680D01*
X21720180Y25682585D01*
X21739228Y25663538D01*
X21777323Y25644490D01*
X21872561Y25644490D01*
X21910657Y25663538D01*
X21929704Y25682585D01*
X21948752Y25720680D01*
X21948752Y25834966D01*
X21929704Y25873061D01*
X21910657Y25892109D01*
X21948752Y25263538D02*
X21948752Y25492109D01*
X21948752Y25377823D02*
X21548752Y25377823D01*
X21605895Y25415919D01*
X21643990Y25454014D01*
X21663038Y25492109D01*
D11*
X34776180Y25458585D02*
X34776180Y25363347D01*
X34823800Y25268109D01*
X34871419Y25220490D01*
X34966657Y25172871D01*
X35157133Y25125252D01*
X35395228Y25125252D01*
X35585704Y25172871D01*
X35680942Y25220490D01*
X35728561Y25268109D01*
X35776180Y25363347D01*
X35776180Y25458585D01*
X35728561Y25553823D01*
X35680942Y25601442D01*
X35585704Y25649061D01*
X35395228Y25696680D01*
X35157133Y25696680D01*
X34966657Y25649061D01*
X34871419Y25601442D01*
X34823800Y25553823D01*
X34776180Y25458585D01*
X35680942Y24696680D02*
X35728561Y24649061D01*
X35776180Y24696680D01*
X35728561Y24744300D01*
X35680942Y24696680D01*
X35776180Y24696680D01*
X35776180Y23696680D02*
X35776180Y24268109D01*
X35776180Y23982395D02*
X34776180Y23982395D01*
X34919038Y24077633D01*
X35014276Y24172871D01*
X35061895Y24268109D01*
X35109514Y22839538D02*
X35776180Y22839538D01*
X35109514Y23268109D02*
X35633323Y23268109D01*
X35728561Y23220490D01*
X35776180Y23125252D01*
X35776180Y22982395D01*
X35728561Y22887157D01*
X35680942Y22839538D01*
D12*
X36896657Y24501442D02*
X36915704Y24520490D01*
X36934752Y24577633D01*
X36934752Y24615728D01*
X36915704Y24672871D01*
X36877609Y24710966D01*
X36839514Y24730014D01*
X36763323Y24749061D01*
X36706180Y24749061D01*
X36629990Y24730014D01*
X36591895Y24710966D01*
X36553800Y24672871D01*
X36534752Y24615728D01*
X36534752Y24577633D01*
X36553800Y24520490D01*
X36572847Y24501442D01*
X36534752Y24368109D02*
X36534752Y24120490D01*
X36687133Y24253823D01*
X36687133Y24196680D01*
X36706180Y24158585D01*
X36725228Y24139538D01*
X36763323Y24120490D01*
X36858561Y24120490D01*
X36896657Y24139538D01*
X36915704Y24158585D01*
X36934752Y24196680D01*
X36934752Y24310966D01*
X36915704Y24349061D01*
X36896657Y24368109D01*
X36534752Y23872871D02*
X36534752Y23834776D01*
X36553800Y23796680D01*
X36572847Y23777633D01*
X36610942Y23758585D01*
X36687133Y23739538D01*
X36782371Y23739538D01*
X36858561Y23758585D01*
X36896657Y23777633D01*
X36915704Y23796680D01*
X36934752Y23834776D01*
X36934752Y23872871D01*
X36915704Y23910966D01*
X36896657Y23930014D01*
X36858561Y23949061D01*
X36782371Y23968109D01*
X36687133Y23968109D01*
X36610942Y23949061D01*
X36572847Y23930014D01*
X36553800Y23910966D01*
X36534752Y23872871D01*
D11*
X32619680Y23744085D02*
X32619680Y23648847D01*
X32667300Y23553609D01*
X32714919Y23505990D01*
X32810157Y23458371D01*
X33000633Y23410752D01*
X33238728Y23410752D01*
X33429204Y23458371D01*
X33524442Y23505990D01*
X33572061Y23553609D01*
X33619680Y23648847D01*
X33619680Y23744085D01*
X33572061Y23839323D01*
X33524442Y23886942D01*
X33429204Y23934561D01*
X33238728Y23982180D01*
X33000633Y23982180D01*
X32810157Y23934561D01*
X32714919Y23886942D01*
X32667300Y23839323D01*
X32619680Y23744085D01*
X33524442Y22982180D02*
X33572061Y22934561D01*
X33619680Y22982180D01*
X33572061Y23029800D01*
X33524442Y22982180D01*
X33619680Y22982180D01*
X33619680Y21982180D02*
X33619680Y22553609D01*
X33619680Y22267895D02*
X32619680Y22267895D01*
X32762538Y22363133D01*
X32857776Y22458371D01*
X32905395Y22553609D01*
X32953014Y21125038D02*
X33619680Y21125038D01*
X32953014Y21553609D02*
X33476823Y21553609D01*
X33572061Y21505990D01*
X33619680Y21410752D01*
X33619680Y21267895D01*
X33572061Y21172657D01*
X33524442Y21125038D01*
D12*
X31880157Y22786942D02*
X31899204Y22805990D01*
X31918252Y22863133D01*
X31918252Y22901228D01*
X31899204Y22958371D01*
X31861109Y22996466D01*
X31823014Y23015514D01*
X31746823Y23034561D01*
X31689680Y23034561D01*
X31613490Y23015514D01*
X31575395Y22996466D01*
X31537300Y22958371D01*
X31518252Y22901228D01*
X31518252Y22863133D01*
X31537300Y22805990D01*
X31556347Y22786942D01*
X31556347Y22634561D02*
X31537300Y22615514D01*
X31518252Y22577419D01*
X31518252Y22482180D01*
X31537300Y22444085D01*
X31556347Y22425038D01*
X31594442Y22405990D01*
X31632538Y22405990D01*
X31689680Y22425038D01*
X31918252Y22653609D01*
X31918252Y22405990D01*
X31918252Y22215514D02*
X31918252Y22139323D01*
X31899204Y22101228D01*
X31880157Y22082180D01*
X31823014Y22044085D01*
X31746823Y22025038D01*
X31594442Y22025038D01*
X31556347Y22044085D01*
X31537300Y22063133D01*
X31518252Y22101228D01*
X31518252Y22177419D01*
X31537300Y22215514D01*
X31556347Y22234561D01*
X31594442Y22253609D01*
X31689680Y22253609D01*
X31727776Y22234561D01*
X31746823Y22215514D01*
X31765871Y22177419D01*
X31765871Y22101228D01*
X31746823Y22063133D01*
X31727776Y22044085D01*
X31689680Y22025038D01*
D11*
X13647609Y20456919D02*
X13647609Y21456919D01*
X13409514Y21456919D01*
X13266657Y21409300D01*
X13171419Y21314061D01*
X13123800Y21218823D01*
X13076180Y21028347D01*
X13076180Y20885490D01*
X13123800Y20695014D01*
X13171419Y20599776D01*
X13266657Y20504538D01*
X13409514Y20456919D01*
X13647609Y20456919D01*
X12647609Y20456919D02*
X12647609Y21456919D01*
X12076180Y20456919D01*
X12076180Y21456919D01*
X11599990Y20456919D02*
X11599990Y21456919D01*
D12*
X12880942Y22196442D02*
X12899990Y22177395D01*
X12957133Y22158347D01*
X12995228Y22158347D01*
X13052371Y22177395D01*
X13090466Y22215490D01*
X13109514Y22253585D01*
X13128561Y22329776D01*
X13128561Y22386919D01*
X13109514Y22463109D01*
X13090466Y22501204D01*
X13052371Y22539300D01*
X12995228Y22558347D01*
X12957133Y22558347D01*
X12899990Y22539300D01*
X12880942Y22520252D01*
X12728561Y22520252D02*
X12709514Y22539300D01*
X12671419Y22558347D01*
X12576180Y22558347D01*
X12538085Y22539300D01*
X12519038Y22520252D01*
X12499990Y22482157D01*
X12499990Y22444061D01*
X12519038Y22386919D01*
X12747609Y22158347D01*
X12499990Y22158347D01*
X12271419Y22386919D02*
X12309514Y22405966D01*
X12328561Y22425014D01*
X12347609Y22463109D01*
X12347609Y22482157D01*
X12328561Y22520252D01*
X12309514Y22539300D01*
X12271419Y22558347D01*
X12195228Y22558347D01*
X12157133Y22539300D01*
X12138085Y22520252D01*
X12119038Y22482157D01*
X12119038Y22463109D01*
X12138085Y22425014D01*
X12157133Y22405966D01*
X12195228Y22386919D01*
X12271419Y22386919D01*
X12309514Y22367871D01*
X12328561Y22348823D01*
X12347609Y22310728D01*
X12347609Y22234538D01*
X12328561Y22196442D01*
X12309514Y22177395D01*
X12271419Y22158347D01*
X12195228Y22158347D01*
X12157133Y22177395D01*
X12138085Y22196442D01*
X12119038Y22234538D01*
X12119038Y22310728D01*
X12138085Y22348823D01*
X12157133Y22367871D01*
X12195228Y22386919D01*
D11*
X63597847Y38296919D02*
X63026419Y38296919D01*
X63312133Y37296919D02*
X63312133Y38296919D01*
X62121657Y37392157D02*
X62169276Y37344538D01*
X62312133Y37296919D01*
X62407371Y37296919D01*
X62550228Y37344538D01*
X62645466Y37439776D01*
X62693085Y37535014D01*
X62740704Y37725490D01*
X62740704Y37868347D01*
X62693085Y38058823D01*
X62645466Y38154061D01*
X62550228Y38249300D01*
X62407371Y38296919D01*
X62312133Y38296919D01*
X62169276Y38249300D01*
X62121657Y38201680D01*
X61740704Y37582633D02*
X61264514Y37582633D01*
X61835942Y37296919D02*
X61502609Y38296919D01*
X61169276Y37296919D01*
X60788323Y37296919D02*
X60597847Y37296919D01*
X60502609Y37344538D01*
X60454990Y37392157D01*
X60359752Y37535014D01*
X60312133Y37725490D01*
X60312133Y38106442D01*
X60359752Y38201680D01*
X60407371Y38249300D01*
X60502609Y38296919D01*
X60693085Y38296919D01*
X60788323Y38249300D01*
X60835942Y38201680D01*
X60883561Y38106442D01*
X60883561Y37868347D01*
X60835942Y37773109D01*
X60788323Y37725490D01*
X60693085Y37677871D01*
X60502609Y37677871D01*
X60407371Y37725490D01*
X60359752Y37773109D01*
X60312133Y37868347D01*
X59407371Y38296919D02*
X59883561Y38296919D01*
X59931180Y37820728D01*
X59883561Y37868347D01*
X59788323Y37915966D01*
X59550228Y37915966D01*
X59454990Y37868347D01*
X59407371Y37820728D01*
X59359752Y37725490D01*
X59359752Y37487395D01*
X59407371Y37392157D01*
X59454990Y37344538D01*
X59550228Y37296919D01*
X59788323Y37296919D01*
X59883561Y37344538D01*
X59931180Y37392157D01*
X58454990Y38296919D02*
X58931180Y38296919D01*
X58978800Y37820728D01*
X58931180Y37868347D01*
X58835942Y37915966D01*
X58597847Y37915966D01*
X58502609Y37868347D01*
X58454990Y37820728D01*
X58407371Y37725490D01*
X58407371Y37487395D01*
X58454990Y37392157D01*
X58502609Y37344538D01*
X58597847Y37296919D01*
X58835942Y37296919D01*
X58931180Y37344538D01*
X58978800Y37392157D01*
X57502609Y38296919D02*
X57978800Y38296919D01*
X58026419Y37820728D01*
X57978800Y37868347D01*
X57883561Y37915966D01*
X57645466Y37915966D01*
X57550228Y37868347D01*
X57502609Y37820728D01*
X57454990Y37725490D01*
X57454990Y37487395D01*
X57502609Y37392157D01*
X57550228Y37344538D01*
X57645466Y37296919D01*
X57883561Y37296919D01*
X57978800Y37344538D01*
X58026419Y37392157D01*
X57026419Y37296919D02*
X57026419Y38296919D01*
X56788323Y38296919D01*
X56645466Y38249300D01*
X56550228Y38154061D01*
X56502609Y38058823D01*
X56454990Y37868347D01*
X56454990Y37725490D01*
X56502609Y37535014D01*
X56550228Y37439776D01*
X56645466Y37344538D01*
X56788323Y37296919D01*
X57026419Y37296919D01*
X55693085Y37820728D02*
X55550228Y37773109D01*
X55502609Y37725490D01*
X55454990Y37630252D01*
X55454990Y37487395D01*
X55502609Y37392157D01*
X55550228Y37344538D01*
X55645466Y37296919D01*
X56026419Y37296919D01*
X56026419Y38296919D01*
X55693085Y38296919D01*
X55597847Y38249300D01*
X55550228Y38201680D01*
X55502609Y38106442D01*
X55502609Y38011204D01*
X55550228Y37915966D01*
X55597847Y37868347D01*
X55693085Y37820728D01*
X56026419Y37820728D01*
X54454990Y37296919D02*
X54788323Y37773109D01*
X55026419Y37296919D02*
X55026419Y38296919D01*
X54645466Y38296919D01*
X54550228Y38249300D01*
X54502609Y38201680D01*
X54454990Y38106442D01*
X54454990Y37963585D01*
X54502609Y37868347D01*
X54550228Y37820728D01*
X54645466Y37773109D01*
X55026419Y37773109D01*
X59969276Y32937395D02*
X59969276Y32289776D01*
X59931180Y32213585D01*
X59893085Y32175490D01*
X59816895Y32137395D01*
X59664514Y32137395D01*
X59588323Y32175490D01*
X59550228Y32213585D01*
X59512133Y32289776D01*
X59512133Y32937395D01*
X58712133Y32137395D02*
X59169276Y32137395D01*
X58940704Y32137395D02*
X58940704Y32937395D01*
X59016895Y32823109D01*
X59093085Y32746919D01*
X59169276Y32708823D01*
X58445466Y32937395D02*
X57950228Y32937395D01*
X58216895Y32632633D01*
X58102609Y32632633D01*
X58026419Y32594538D01*
X57988323Y32556442D01*
X57950228Y32480252D01*
X57950228Y32289776D01*
X57988323Y32213585D01*
X58026419Y32175490D01*
X58102609Y32137395D01*
X58331180Y32137395D01*
X58407371Y32175490D01*
X58445466Y32213585D01*
X64994847Y13023919D02*
X64423419Y13023919D01*
X64709133Y12023919D02*
X64709133Y13023919D01*
X63518657Y12119157D02*
X63566276Y12071538D01*
X63709133Y12023919D01*
X63804371Y12023919D01*
X63947228Y12071538D01*
X64042466Y12166776D01*
X64090085Y12262014D01*
X64137704Y12452490D01*
X64137704Y12595347D01*
X64090085Y12785823D01*
X64042466Y12881061D01*
X63947228Y12976300D01*
X63804371Y13023919D01*
X63709133Y13023919D01*
X63566276Y12976300D01*
X63518657Y12928680D01*
X63137704Y12309633D02*
X62661514Y12309633D01*
X63232942Y12023919D02*
X62899609Y13023919D01*
X62566276Y12023919D01*
X62185323Y12023919D02*
X61994847Y12023919D01*
X61899609Y12071538D01*
X61851990Y12119157D01*
X61756752Y12262014D01*
X61709133Y12452490D01*
X61709133Y12833442D01*
X61756752Y12928680D01*
X61804371Y12976300D01*
X61899609Y13023919D01*
X62090085Y13023919D01*
X62185323Y12976300D01*
X62232942Y12928680D01*
X62280561Y12833442D01*
X62280561Y12595347D01*
X62232942Y12500109D01*
X62185323Y12452490D01*
X62090085Y12404871D01*
X61899609Y12404871D01*
X61804371Y12452490D01*
X61756752Y12500109D01*
X61709133Y12595347D01*
X60804371Y13023919D02*
X61280561Y13023919D01*
X61328180Y12547728D01*
X61280561Y12595347D01*
X61185323Y12642966D01*
X60947228Y12642966D01*
X60851990Y12595347D01*
X60804371Y12547728D01*
X60756752Y12452490D01*
X60756752Y12214395D01*
X60804371Y12119157D01*
X60851990Y12071538D01*
X60947228Y12023919D01*
X61185323Y12023919D01*
X61280561Y12071538D01*
X61328180Y12119157D01*
X59851990Y13023919D02*
X60328180Y13023919D01*
X60375800Y12547728D01*
X60328180Y12595347D01*
X60232942Y12642966D01*
X59994847Y12642966D01*
X59899609Y12595347D01*
X59851990Y12547728D01*
X59804371Y12452490D01*
X59804371Y12214395D01*
X59851990Y12119157D01*
X59899609Y12071538D01*
X59994847Y12023919D01*
X60232942Y12023919D01*
X60328180Y12071538D01*
X60375800Y12119157D01*
X58899609Y13023919D02*
X59375800Y13023919D01*
X59423419Y12547728D01*
X59375800Y12595347D01*
X59280561Y12642966D01*
X59042466Y12642966D01*
X58947228Y12595347D01*
X58899609Y12547728D01*
X58851990Y12452490D01*
X58851990Y12214395D01*
X58899609Y12119157D01*
X58947228Y12071538D01*
X59042466Y12023919D01*
X59280561Y12023919D01*
X59375800Y12071538D01*
X59423419Y12119157D01*
X58423419Y12023919D02*
X58423419Y13023919D01*
X58185323Y13023919D01*
X58042466Y12976300D01*
X57947228Y12881061D01*
X57899609Y12785823D01*
X57851990Y12595347D01*
X57851990Y12452490D01*
X57899609Y12262014D01*
X57947228Y12166776D01*
X58042466Y12071538D01*
X58185323Y12023919D01*
X58423419Y12023919D01*
X57090085Y12547728D02*
X56947228Y12500109D01*
X56899609Y12452490D01*
X56851990Y12357252D01*
X56851990Y12214395D01*
X56899609Y12119157D01*
X56947228Y12071538D01*
X57042466Y12023919D01*
X57423419Y12023919D01*
X57423419Y13023919D01*
X57090085Y13023919D01*
X56994847Y12976300D01*
X56947228Y12928680D01*
X56899609Y12833442D01*
X56899609Y12738204D01*
X56947228Y12642966D01*
X56994847Y12595347D01*
X57090085Y12547728D01*
X57423419Y12547728D01*
X55851990Y12023919D02*
X56185323Y12500109D01*
X56423419Y12023919D02*
X56423419Y13023919D01*
X56042466Y13023919D01*
X55947228Y12976300D01*
X55899609Y12928680D01*
X55851990Y12833442D01*
X55851990Y12690585D01*
X55899609Y12595347D01*
X55947228Y12547728D01*
X56042466Y12500109D01*
X56423419Y12500109D01*
X61366276Y7664395D02*
X61366276Y7016776D01*
X61328180Y6940585D01*
X61290085Y6902490D01*
X61213895Y6864395D01*
X61061514Y6864395D01*
X60985323Y6902490D01*
X60947228Y6940585D01*
X60909133Y7016776D01*
X60909133Y7664395D01*
X60109133Y6864395D02*
X60566276Y6864395D01*
X60337704Y6864395D02*
X60337704Y7664395D01*
X60413895Y7550109D01*
X60490085Y7473919D01*
X60566276Y7435823D01*
X59804371Y7588204D02*
X59766276Y7626300D01*
X59690085Y7664395D01*
X59499609Y7664395D01*
X59423419Y7626300D01*
X59385323Y7588204D01*
X59347228Y7512014D01*
X59347228Y7435823D01*
X59385323Y7321538D01*
X59842466Y6864395D01*
X59347228Y6864395D01*
X63288323Y45114680D02*
X63240704Y45162300D01*
X63145466Y45209919D01*
X62907371Y45209919D01*
X62812133Y45162300D01*
X62764514Y45114680D01*
X62716895Y45019442D01*
X62716895Y44924204D01*
X62764514Y44781347D01*
X63335942Y44209919D01*
X62716895Y44209919D01*
X61859752Y44876585D02*
X61859752Y44209919D01*
X62097847Y45257538D02*
X62335942Y44543252D01*
X61716895Y44543252D01*
X61383561Y44495633D02*
X60907371Y44495633D01*
X61478800Y44209919D02*
X61145466Y45209919D01*
X60812133Y44209919D01*
X60526419Y44495633D02*
X60050228Y44495633D01*
X60621657Y44209919D02*
X60288323Y45209919D01*
X59954990Y44209919D01*
X59431180Y45209919D02*
X59335942Y45209919D01*
X59240704Y45162300D01*
X59193085Y45114680D01*
X59145466Y45019442D01*
X59097847Y44828966D01*
X59097847Y44590871D01*
X59145466Y44400395D01*
X59193085Y44305157D01*
X59240704Y44257538D01*
X59335942Y44209919D01*
X59431180Y44209919D01*
X59526419Y44257538D01*
X59574038Y44305157D01*
X59621657Y44400395D01*
X59669276Y44590871D01*
X59669276Y44828966D01*
X59621657Y45019442D01*
X59574038Y45114680D01*
X59526419Y45162300D01*
X59431180Y45209919D01*
X58716895Y45114680D02*
X58669276Y45162300D01*
X58574038Y45209919D01*
X58335942Y45209919D01*
X58240704Y45162300D01*
X58193085Y45114680D01*
X58145466Y45019442D01*
X58145466Y44924204D01*
X58193085Y44781347D01*
X58764514Y44209919D01*
X58145466Y44209919D01*
X57240704Y45209919D02*
X57716895Y45209919D01*
X57764514Y44733728D01*
X57716895Y44781347D01*
X57621657Y44828966D01*
X57383561Y44828966D01*
X57288323Y44781347D01*
X57240704Y44733728D01*
X57193085Y44638490D01*
X57193085Y44400395D01*
X57240704Y44305157D01*
X57288323Y44257538D01*
X57383561Y44209919D01*
X57621657Y44209919D01*
X57716895Y44257538D01*
X57764514Y44305157D01*
X56764514Y45209919D02*
X56764514Y44400395D01*
X56716895Y44305157D01*
X56669276Y44257538D01*
X56574038Y44209919D01*
X56383561Y44209919D01*
X56288323Y44257538D01*
X56240704Y44305157D01*
X56193085Y44400395D01*
X56193085Y45209919D01*
X55716895Y44209919D02*
X55716895Y45209919D01*
X55240704Y44209919D02*
X55240704Y45209919D01*
X55002609Y45209919D01*
X54859752Y45162300D01*
X54764514Y45067061D01*
X54716895Y44971823D01*
X54669276Y44781347D01*
X54669276Y44638490D01*
X54716895Y44448014D01*
X54764514Y44352776D01*
X54859752Y44257538D01*
X55002609Y44209919D01*
X55240704Y44209919D01*
X59725466Y41798966D02*
X59725466Y41005633D01*
X59678800Y40912300D01*
X59632133Y40865633D01*
X59538800Y40818966D01*
X59352133Y40818966D01*
X59258800Y40865633D01*
X59212133Y40912300D01*
X59165466Y41005633D01*
X59165466Y41798966D01*
X58278800Y41798966D02*
X58465466Y41798966D01*
X58558800Y41752300D01*
X58605466Y41705633D01*
X58698800Y41565633D01*
X58745466Y41378966D01*
X58745466Y41005633D01*
X58698800Y40912300D01*
X58652133Y40865633D01*
X58558800Y40818966D01*
X58372133Y40818966D01*
X58278800Y40865633D01*
X58232133Y40912300D01*
X58185466Y41005633D01*
X58185466Y41238966D01*
X58232133Y41332300D01*
X58278800Y41378966D01*
X58372133Y41425633D01*
X58558800Y41425633D01*
X58652133Y41378966D01*
X58698800Y41332300D01*
X58745466Y41238966D01*
X17457609Y23250919D02*
X17457609Y24250919D01*
X17219514Y24250919D01*
X17076657Y24203300D01*
X16981419Y24108061D01*
X16933800Y24012823D01*
X16886180Y23822347D01*
X16886180Y23679490D01*
X16933800Y23489014D01*
X16981419Y23393776D01*
X17076657Y23298538D01*
X17219514Y23250919D01*
X17457609Y23250919D01*
X16457609Y23250919D02*
X16457609Y24250919D01*
X15886180Y23250919D01*
X15886180Y24250919D01*
X15409990Y23250919D02*
X15409990Y24250919D01*
D12*
X16690942Y24952347D02*
X16824276Y25142823D01*
X16919514Y24952347D02*
X16919514Y25352347D01*
X16767133Y25352347D01*
X16729038Y25333300D01*
X16709990Y25314252D01*
X16690942Y25276157D01*
X16690942Y25219014D01*
X16709990Y25180919D01*
X16729038Y25161871D01*
X16767133Y25142823D01*
X16919514Y25142823D01*
X16538561Y25314252D02*
X16519514Y25333300D01*
X16481419Y25352347D01*
X16386180Y25352347D01*
X16348085Y25333300D01*
X16329038Y25314252D01*
X16309990Y25276157D01*
X16309990Y25238061D01*
X16329038Y25180919D01*
X16557609Y24952347D01*
X16309990Y24952347D01*
X16119514Y24952347D02*
X16043323Y24952347D01*
X16005228Y24971395D01*
X15986180Y24990442D01*
X15948085Y25047585D01*
X15929038Y25123776D01*
X15929038Y25276157D01*
X15948085Y25314252D01*
X15967133Y25333300D01*
X16005228Y25352347D01*
X16081419Y25352347D01*
X16119514Y25333300D01*
X16138561Y25314252D01*
X16157609Y25276157D01*
X16157609Y25180919D01*
X16138561Y25142823D01*
X16119514Y25123776D01*
X16081419Y25104728D01*
X16005228Y25104728D01*
X15967133Y25123776D01*
X15948085Y25142823D01*
X15929038Y25180919D01*
D11*
X15252419Y35896395D02*
X15204800Y35848776D01*
X15157180Y35753538D01*
X15157180Y35515442D01*
X15204800Y35420204D01*
X15252419Y35372585D01*
X15347657Y35324966D01*
X15442895Y35324966D01*
X15585752Y35372585D01*
X16157180Y35944014D01*
X16157180Y35324966D01*
X15490514Y34467823D02*
X16157180Y34467823D01*
X15109561Y34705919D02*
X15823847Y34944014D01*
X15823847Y34324966D01*
X15157180Y33753538D02*
X15157180Y33658300D01*
X15204800Y33563061D01*
X15252419Y33515442D01*
X15347657Y33467823D01*
X15538133Y33420204D01*
X15776228Y33420204D01*
X15966704Y33467823D01*
X16061942Y33515442D01*
X16109561Y33563061D01*
X16157180Y33658300D01*
X16157180Y33753538D01*
X16109561Y33848776D01*
X16061942Y33896395D01*
X15966704Y33944014D01*
X15776228Y33991633D01*
X15538133Y33991633D01*
X15347657Y33944014D01*
X15252419Y33896395D01*
X15204800Y33848776D01*
X15157180Y33753538D01*
D12*
X14455752Y34915442D02*
X14265276Y35048776D01*
X14455752Y35144014D02*
X14055752Y35144014D01*
X14055752Y34991633D01*
X14074800Y34953538D01*
X14093847Y34934490D01*
X14131942Y34915442D01*
X14189085Y34915442D01*
X14227180Y34934490D01*
X14246228Y34953538D01*
X14265276Y34991633D01*
X14265276Y35144014D01*
X14455752Y34534490D02*
X14455752Y34763061D01*
X14455752Y34648776D02*
X14055752Y34648776D01*
X14112895Y34686871D01*
X14150990Y34724966D01*
X14170038Y34763061D01*
X14055752Y34401157D02*
X14055752Y34134490D01*
X14455752Y34305919D01*
D11*
X16157180Y32792823D02*
X16157180Y33364252D01*
X16157180Y33078538D02*
X15157180Y33078538D01*
X15300038Y33173776D01*
X15395276Y33269014D01*
X15442895Y33364252D01*
X16061942Y32364252D02*
X16109561Y32316633D01*
X16157180Y32364252D01*
X16109561Y32411871D01*
X16061942Y32364252D01*
X16157180Y32364252D01*
X16157180Y31364252D02*
X16157180Y31935680D01*
X16157180Y31649966D02*
X15157180Y31649966D01*
X15300038Y31745204D01*
X15395276Y31840442D01*
X15442895Y31935680D01*
X15157180Y31030919D02*
X15157180Y30411871D01*
X15538133Y30745204D01*
X15538133Y30602347D01*
X15585752Y30507109D01*
X15633371Y30459490D01*
X15728609Y30411871D01*
X15966704Y30411871D01*
X16061942Y30459490D01*
X16109561Y30507109D01*
X16157180Y30602347D01*
X16157180Y30888061D01*
X16109561Y30983300D01*
X16061942Y31030919D01*
X16157180Y29983300D02*
X15157180Y29983300D01*
X15776228Y29888061D02*
X16157180Y29602347D01*
X15490514Y29602347D02*
X15871466Y29983300D01*
D12*
X14455752Y31740442D02*
X14265276Y31873776D01*
X14455752Y31969014D02*
X14055752Y31969014D01*
X14055752Y31816633D01*
X14074800Y31778538D01*
X14093847Y31759490D01*
X14131942Y31740442D01*
X14189085Y31740442D01*
X14227180Y31759490D01*
X14246228Y31778538D01*
X14265276Y31816633D01*
X14265276Y31969014D01*
X14455752Y31359490D02*
X14455752Y31588061D01*
X14455752Y31473776D02*
X14055752Y31473776D01*
X14112895Y31511871D01*
X14150990Y31549966D01*
X14170038Y31588061D01*
X14055752Y31016633D02*
X14055752Y31092823D01*
X14074800Y31130919D01*
X14093847Y31149966D01*
X14150990Y31188061D01*
X14227180Y31207109D01*
X14379561Y31207109D01*
X14417657Y31188061D01*
X14436704Y31169014D01*
X14455752Y31130919D01*
X14455752Y31054728D01*
X14436704Y31016633D01*
X14417657Y30997585D01*
X14379561Y30978538D01*
X14284323Y30978538D01*
X14246228Y30997585D01*
X14227180Y31016633D01*
X14208133Y31054728D01*
X14208133Y31130919D01*
X14227180Y31169014D01*
X14246228Y31188061D01*
X14284323Y31207109D01*
D11*
X24015714Y33961904D02*
X24682380Y33961904D01*
X23634761Y34200000D02*
X24349047Y34438095D01*
X24349047Y33819047D01*
X24110952Y33295238D02*
X24063333Y33390476D01*
X24015714Y33438095D01*
X23920476Y33485714D01*
X23872857Y33485714D01*
X23777619Y33438095D01*
X23730000Y33390476D01*
X23682380Y33295238D01*
X23682380Y33104761D01*
X23730000Y33009523D01*
X23777619Y32961904D01*
X23872857Y32914285D01*
X23920476Y32914285D01*
X24015714Y32961904D01*
X24063333Y33009523D01*
X24110952Y33104761D01*
X24110952Y33295238D01*
X24158571Y33390476D01*
X24206190Y33438095D01*
X24301428Y33485714D01*
X24491904Y33485714D01*
X24587142Y33438095D01*
X24634761Y33390476D01*
X24682380Y33295238D01*
X24682380Y33104761D01*
X24634761Y33009523D01*
X24587142Y32961904D01*
X24491904Y32914285D01*
X24301428Y32914285D01*
X24206190Y32961904D01*
X24158571Y33009523D01*
X24110952Y33104761D01*
X23682380Y32580952D02*
X23682380Y31914285D01*
X24682380Y32342857D01*
D12*
X22980952Y33457142D02*
X22790476Y33590476D01*
X22980952Y33685714D02*
X22580952Y33685714D01*
X22580952Y33533333D01*
X22600000Y33495238D01*
X22619047Y33476190D01*
X22657142Y33457142D01*
X22714285Y33457142D01*
X22752380Y33476190D01*
X22771428Y33495238D01*
X22790476Y33533333D01*
X22790476Y33685714D01*
X22980952Y33076190D02*
X22980952Y33304761D01*
X22980952Y33190476D02*
X22580952Y33190476D01*
X22638095Y33228571D01*
X22676190Y33266666D01*
X22695238Y33304761D01*
X22580952Y32714285D02*
X22580952Y32904761D01*
X22771428Y32923809D01*
X22752380Y32904761D01*
X22733333Y32866666D01*
X22733333Y32771428D01*
X22752380Y32733333D01*
X22771428Y32714285D01*
X22809523Y32695238D01*
X22904761Y32695238D01*
X22942857Y32714285D01*
X22961904Y32733333D01*
X22980952Y32771428D01*
X22980952Y32866666D01*
X22961904Y32904761D01*
X22942857Y32923809D01*
D11*
X18917619Y34438095D02*
X18870000Y34390476D01*
X18822380Y34295238D01*
X18822380Y34057142D01*
X18870000Y33961904D01*
X18917619Y33914285D01*
X19012857Y33866666D01*
X19108095Y33866666D01*
X19250952Y33914285D01*
X19822380Y34485714D01*
X19822380Y33866666D01*
X19155714Y33009523D02*
X19822380Y33009523D01*
X18774761Y33247619D02*
X19489047Y33485714D01*
X19489047Y32866666D01*
X18822380Y32295238D02*
X18822380Y32200000D01*
X18870000Y32104761D01*
X18917619Y32057142D01*
X19012857Y32009523D01*
X19203333Y31961904D01*
X19441428Y31961904D01*
X19631904Y32009523D01*
X19727142Y32057142D01*
X19774761Y32104761D01*
X19822380Y32200000D01*
X19822380Y32295238D01*
X19774761Y32390476D01*
X19727142Y32438095D01*
X19631904Y32485714D01*
X19441428Y32533333D01*
X19203333Y32533333D01*
X19012857Y32485714D01*
X18917619Y32438095D01*
X18870000Y32390476D01*
X18822380Y32295238D01*
D12*
X20980952Y33457142D02*
X20790476Y33590476D01*
X20980952Y33685714D02*
X20580952Y33685714D01*
X20580952Y33533333D01*
X20600000Y33495238D01*
X20619047Y33476190D01*
X20657142Y33457142D01*
X20714285Y33457142D01*
X20752380Y33476190D01*
X20771428Y33495238D01*
X20790476Y33533333D01*
X20790476Y33685714D01*
X20980952Y33076190D02*
X20980952Y33304761D01*
X20980952Y33190476D02*
X20580952Y33190476D01*
X20638095Y33228571D01*
X20676190Y33266666D01*
X20695238Y33304761D01*
X20714285Y32733333D02*
X20980952Y32733333D01*
X20561904Y32828571D02*
X20847619Y32923809D01*
X20847619Y32676190D01*
D11*
X75186780Y37463338D02*
X75186780Y38034766D01*
X75186780Y37749052D02*
X74186780Y37749052D01*
X74329638Y37844290D01*
X74424876Y37939528D01*
X74472495Y38034766D01*
X74186780Y36844290D02*
X74186780Y36749052D01*
X74234400Y36653814D01*
X74282019Y36606195D01*
X74377257Y36558576D01*
X74567733Y36510957D01*
X74805828Y36510957D01*
X74996304Y36558576D01*
X75091542Y36606195D01*
X75139161Y36653814D01*
X75186780Y36749052D01*
X75186780Y36844290D01*
X75139161Y36939528D01*
X75091542Y36987147D01*
X74996304Y37034766D01*
X74805828Y37082385D01*
X74567733Y37082385D01*
X74377257Y37034766D01*
X74282019Y36987147D01*
X74234400Y36939528D01*
X74186780Y36844290D01*
X75186780Y36082385D02*
X74186780Y36082385D01*
X74805828Y35987147D02*
X75186780Y35701433D01*
X74520114Y35701433D02*
X74901066Y36082385D01*
D12*
X73485352Y37125242D02*
X73294876Y37258576D01*
X73485352Y37353814D02*
X73085352Y37353814D01*
X73085352Y37201433D01*
X73104400Y37163338D01*
X73123447Y37144290D01*
X73161542Y37125242D01*
X73218685Y37125242D01*
X73256780Y37144290D01*
X73275828Y37163338D01*
X73294876Y37201433D01*
X73294876Y37353814D01*
X73485352Y36744290D02*
X73485352Y36972861D01*
X73485352Y36858576D02*
X73085352Y36858576D01*
X73142495Y36896671D01*
X73180590Y36934766D01*
X73199638Y36972861D01*
X73085352Y36610957D02*
X73085352Y36363338D01*
X73237733Y36496671D01*
X73237733Y36439528D01*
X73256780Y36401433D01*
X73275828Y36382385D01*
X73313923Y36363338D01*
X73409161Y36363338D01*
X73447257Y36382385D01*
X73466304Y36401433D01*
X73485352Y36439528D01*
X73485352Y36553814D01*
X73466304Y36591909D01*
X73447257Y36610957D01*
D11*
X72164180Y37476038D02*
X72164180Y38047466D01*
X72164180Y37761752D02*
X71164180Y37761752D01*
X71307038Y37856990D01*
X71402276Y37952228D01*
X71449895Y38047466D01*
X71164180Y36856990D02*
X71164180Y36761752D01*
X71211800Y36666514D01*
X71259419Y36618895D01*
X71354657Y36571276D01*
X71545133Y36523657D01*
X71783228Y36523657D01*
X71973704Y36571276D01*
X72068942Y36618895D01*
X72116561Y36666514D01*
X72164180Y36761752D01*
X72164180Y36856990D01*
X72116561Y36952228D01*
X72068942Y36999847D01*
X71973704Y37047466D01*
X71783228Y37095085D01*
X71545133Y37095085D01*
X71354657Y37047466D01*
X71259419Y36999847D01*
X71211800Y36952228D01*
X71164180Y36856990D01*
X72164180Y36095085D02*
X71164180Y36095085D01*
X71783228Y35999847D02*
X72164180Y35714133D01*
X71497514Y35714133D02*
X71878466Y36095085D01*
D12*
X70462752Y37137942D02*
X70272276Y37271276D01*
X70462752Y37366514D02*
X70062752Y37366514D01*
X70062752Y37214133D01*
X70081800Y37176038D01*
X70100847Y37156990D01*
X70138942Y37137942D01*
X70196085Y37137942D01*
X70234180Y37156990D01*
X70253228Y37176038D01*
X70272276Y37214133D01*
X70272276Y37366514D01*
X70462752Y36756990D02*
X70462752Y36985561D01*
X70462752Y36871276D02*
X70062752Y36871276D01*
X70119895Y36909371D01*
X70157990Y36947466D01*
X70177038Y36985561D01*
X70062752Y36509371D02*
X70062752Y36471276D01*
X70081800Y36433180D01*
X70100847Y36414133D01*
X70138942Y36395085D01*
X70215133Y36376038D01*
X70310371Y36376038D01*
X70386561Y36395085D01*
X70424657Y36414133D01*
X70443704Y36433180D01*
X70462752Y36471276D01*
X70462752Y36509371D01*
X70443704Y36547466D01*
X70424657Y36566514D01*
X70386561Y36585561D01*
X70310371Y36604609D01*
X70215133Y36604609D01*
X70138942Y36585561D01*
X70100847Y36566514D01*
X70081800Y36547466D01*
X70062752Y36509371D01*
D11*
X69179680Y37476038D02*
X69179680Y38047466D01*
X69179680Y37761752D02*
X68179680Y37761752D01*
X68322538Y37856990D01*
X68417776Y37952228D01*
X68465395Y38047466D01*
X68179680Y36856990D02*
X68179680Y36761752D01*
X68227300Y36666514D01*
X68274919Y36618895D01*
X68370157Y36571276D01*
X68560633Y36523657D01*
X68798728Y36523657D01*
X68989204Y36571276D01*
X69084442Y36618895D01*
X69132061Y36666514D01*
X69179680Y36761752D01*
X69179680Y36856990D01*
X69132061Y36952228D01*
X69084442Y36999847D01*
X68989204Y37047466D01*
X68798728Y37095085D01*
X68560633Y37095085D01*
X68370157Y37047466D01*
X68274919Y36999847D01*
X68227300Y36952228D01*
X68179680Y36856990D01*
X69179680Y36095085D02*
X68179680Y36095085D01*
X68798728Y35999847D02*
X69179680Y35714133D01*
X68513014Y35714133D02*
X68893966Y36095085D01*
D12*
X67478252Y36947466D02*
X67287776Y37080800D01*
X67478252Y37176038D02*
X67078252Y37176038D01*
X67078252Y37023657D01*
X67097300Y36985561D01*
X67116347Y36966514D01*
X67154442Y36947466D01*
X67211585Y36947466D01*
X67249680Y36966514D01*
X67268728Y36985561D01*
X67287776Y37023657D01*
X67287776Y37176038D01*
X67478252Y36756990D02*
X67478252Y36680800D01*
X67459204Y36642704D01*
X67440157Y36623657D01*
X67383014Y36585561D01*
X67306823Y36566514D01*
X67154442Y36566514D01*
X67116347Y36585561D01*
X67097300Y36604609D01*
X67078252Y36642704D01*
X67078252Y36718895D01*
X67097300Y36756990D01*
X67116347Y36776038D01*
X67154442Y36795085D01*
X67249680Y36795085D01*
X67287776Y36776038D01*
X67306823Y36756990D01*
X67325871Y36718895D01*
X67325871Y36642704D01*
X67306823Y36604609D01*
X67287776Y36585561D01*
X67249680Y36566514D01*
D11*
X26284085Y4758919D02*
X26188847Y4758919D01*
X26093609Y4711300D01*
X26045990Y4663680D01*
X25998371Y4568442D01*
X25950752Y4377966D01*
X25950752Y4139871D01*
X25998371Y3949395D01*
X26045990Y3854157D01*
X26093609Y3806538D01*
X26188847Y3758919D01*
X26284085Y3758919D01*
X26379323Y3806538D01*
X26426942Y3854157D01*
X26474561Y3949395D01*
X26522180Y4139871D01*
X26522180Y4377966D01*
X26474561Y4568442D01*
X26426942Y4663680D01*
X26379323Y4711300D01*
X26284085Y4758919D01*
X25522180Y3854157D02*
X25474561Y3806538D01*
X25522180Y3758919D01*
X25569800Y3806538D01*
X25522180Y3854157D01*
X25522180Y3758919D01*
X24522180Y3758919D02*
X25093609Y3758919D01*
X24807895Y3758919D02*
X24807895Y4758919D01*
X24903133Y4616061D01*
X24998371Y4520823D01*
X25093609Y4473204D01*
X23665038Y4425585D02*
X23665038Y3758919D01*
X24093609Y4425585D02*
X24093609Y3901776D01*
X24045990Y3806538D01*
X23950752Y3758919D01*
X23807895Y3758919D01*
X23712657Y3806538D01*
X23665038Y3854157D01*
D12*
X25326942Y2638442D02*
X25345990Y2619395D01*
X25403133Y2600347D01*
X25441228Y2600347D01*
X25498371Y2619395D01*
X25536466Y2657490D01*
X25555514Y2695585D01*
X25574561Y2771776D01*
X25574561Y2828919D01*
X25555514Y2905109D01*
X25536466Y2943204D01*
X25498371Y2981300D01*
X25441228Y3000347D01*
X25403133Y3000347D01*
X25345990Y2981300D01*
X25326942Y2962252D01*
X25174561Y2962252D02*
X25155514Y2981300D01*
X25117419Y3000347D01*
X25022180Y3000347D01*
X24984085Y2981300D01*
X24965038Y2962252D01*
X24945990Y2924157D01*
X24945990Y2886061D01*
X24965038Y2828919D01*
X25193609Y2600347D01*
X24945990Y2600347D01*
X24793609Y2962252D02*
X24774561Y2981300D01*
X24736466Y3000347D01*
X24641228Y3000347D01*
X24603133Y2981300D01*
X24584085Y2962252D01*
X24565038Y2924157D01*
X24565038Y2886061D01*
X24584085Y2828919D01*
X24812657Y2600347D01*
X24565038Y2600347D01*
D11*
X29840085Y1898919D02*
X29744847Y1898919D01*
X29649609Y1851300D01*
X29601990Y1803680D01*
X29554371Y1708442D01*
X29506752Y1517966D01*
X29506752Y1279871D01*
X29554371Y1089395D01*
X29601990Y994157D01*
X29649609Y946538D01*
X29744847Y898919D01*
X29840085Y898919D01*
X29935323Y946538D01*
X29982942Y994157D01*
X30030561Y1089395D01*
X30078180Y1279871D01*
X30078180Y1517966D01*
X30030561Y1708442D01*
X29982942Y1803680D01*
X29935323Y1851300D01*
X29840085Y1898919D01*
X29078180Y994157D02*
X29030561Y946538D01*
X29078180Y898919D01*
X29125800Y946538D01*
X29078180Y994157D01*
X29078180Y898919D01*
X28078180Y898919D02*
X28649609Y898919D01*
X28363895Y898919D02*
X28363895Y1898919D01*
X28459133Y1756061D01*
X28554371Y1660823D01*
X28649609Y1613204D01*
X27221038Y1565585D02*
X27221038Y898919D01*
X27649609Y1565585D02*
X27649609Y1041776D01*
X27601990Y946538D01*
X27506752Y898919D01*
X27363895Y898919D01*
X27268657Y946538D01*
X27221038Y994157D01*
D12*
X28882942Y2638442D02*
X28901990Y2619395D01*
X28959133Y2600347D01*
X28997228Y2600347D01*
X29054371Y2619395D01*
X29092466Y2657490D01*
X29111514Y2695585D01*
X29130561Y2771776D01*
X29130561Y2828919D01*
X29111514Y2905109D01*
X29092466Y2943204D01*
X29054371Y2981300D01*
X28997228Y3000347D01*
X28959133Y3000347D01*
X28901990Y2981300D01*
X28882942Y2962252D01*
X28730561Y2962252D02*
X28711514Y2981300D01*
X28673419Y3000347D01*
X28578180Y3000347D01*
X28540085Y2981300D01*
X28521038Y2962252D01*
X28501990Y2924157D01*
X28501990Y2886061D01*
X28521038Y2828919D01*
X28749609Y2600347D01*
X28501990Y2600347D01*
X28121038Y2600347D02*
X28349609Y2600347D01*
X28235323Y2600347D02*
X28235323Y3000347D01*
X28273419Y2943204D01*
X28311514Y2905109D01*
X28349609Y2886061D01*
D11*
X17443180Y41809776D02*
X17443180Y41714538D01*
X17490800Y41619300D01*
X17538419Y41571680D01*
X17633657Y41524061D01*
X17824133Y41476442D01*
X18062228Y41476442D01*
X18252704Y41524061D01*
X18347942Y41571680D01*
X18395561Y41619300D01*
X18443180Y41714538D01*
X18443180Y41809776D01*
X18395561Y41905014D01*
X18347942Y41952633D01*
X18252704Y42000252D01*
X18062228Y42047871D01*
X17824133Y42047871D01*
X17633657Y42000252D01*
X17538419Y41952633D01*
X17490800Y41905014D01*
X17443180Y41809776D01*
X18347942Y41047871D02*
X18395561Y41000252D01*
X18443180Y41047871D01*
X18395561Y41095490D01*
X18347942Y41047871D01*
X18443180Y41047871D01*
X17443180Y40381204D02*
X17443180Y40285966D01*
X17490800Y40190728D01*
X17538419Y40143109D01*
X17633657Y40095490D01*
X17824133Y40047871D01*
X18062228Y40047871D01*
X18252704Y40095490D01*
X18347942Y40143109D01*
X18395561Y40190728D01*
X18443180Y40285966D01*
X18443180Y40381204D01*
X18395561Y40476442D01*
X18347942Y40524061D01*
X18252704Y40571680D01*
X18062228Y40619300D01*
X17824133Y40619300D01*
X17633657Y40571680D01*
X17538419Y40524061D01*
X17490800Y40476442D01*
X17443180Y40381204D01*
X18443180Y39095490D02*
X18443180Y39666919D01*
X18443180Y39381204D02*
X17443180Y39381204D01*
X17586038Y39476442D01*
X17681276Y39571680D01*
X17728895Y39666919D01*
X17776514Y38238347D02*
X18443180Y38238347D01*
X17776514Y38666919D02*
X18300323Y38666919D01*
X18395561Y38619300D01*
X18443180Y38524061D01*
X18443180Y38381204D01*
X18395561Y38285966D01*
X18347942Y38238347D01*
D12*
X16703657Y40376442D02*
X16722704Y40395490D01*
X16741752Y40452633D01*
X16741752Y40490728D01*
X16722704Y40547871D01*
X16684609Y40585966D01*
X16646514Y40605014D01*
X16570323Y40624061D01*
X16513180Y40624061D01*
X16436990Y40605014D01*
X16398895Y40585966D01*
X16360800Y40547871D01*
X16341752Y40490728D01*
X16341752Y40452633D01*
X16360800Y40395490D01*
X16379847Y40376442D01*
X16741752Y39995490D02*
X16741752Y40224061D01*
X16741752Y40109776D02*
X16341752Y40109776D01*
X16398895Y40147871D01*
X16436990Y40185966D01*
X16456038Y40224061D01*
X16513180Y39766919D02*
X16494133Y39805014D01*
X16475085Y39824061D01*
X16436990Y39843109D01*
X16417942Y39843109D01*
X16379847Y39824061D01*
X16360800Y39805014D01*
X16341752Y39766919D01*
X16341752Y39690728D01*
X16360800Y39652633D01*
X16379847Y39633585D01*
X16417942Y39614538D01*
X16436990Y39614538D01*
X16475085Y39633585D01*
X16494133Y39652633D01*
X16513180Y39690728D01*
X16513180Y39766919D01*
X16532228Y39805014D01*
X16551276Y39824061D01*
X16589371Y39843109D01*
X16665561Y39843109D01*
X16703657Y39824061D01*
X16722704Y39805014D01*
X16741752Y39766919D01*
X16741752Y39690728D01*
X16722704Y39652633D01*
X16703657Y39633585D01*
X16665561Y39614538D01*
X16589371Y39614538D01*
X16551276Y39633585D01*
X16532228Y39652633D01*
X16513180Y39690728D01*
D11*
X14522180Y41809776D02*
X14522180Y41714538D01*
X14569800Y41619300D01*
X14617419Y41571680D01*
X14712657Y41524061D01*
X14903133Y41476442D01*
X15141228Y41476442D01*
X15331704Y41524061D01*
X15426942Y41571680D01*
X15474561Y41619300D01*
X15522180Y41714538D01*
X15522180Y41809776D01*
X15474561Y41905014D01*
X15426942Y41952633D01*
X15331704Y42000252D01*
X15141228Y42047871D01*
X14903133Y42047871D01*
X14712657Y42000252D01*
X14617419Y41952633D01*
X14569800Y41905014D01*
X14522180Y41809776D01*
X15426942Y41047871D02*
X15474561Y41000252D01*
X15522180Y41047871D01*
X15474561Y41095490D01*
X15426942Y41047871D01*
X15522180Y41047871D01*
X14522180Y40381204D02*
X14522180Y40285966D01*
X14569800Y40190728D01*
X14617419Y40143109D01*
X14712657Y40095490D01*
X14903133Y40047871D01*
X15141228Y40047871D01*
X15331704Y40095490D01*
X15426942Y40143109D01*
X15474561Y40190728D01*
X15522180Y40285966D01*
X15522180Y40381204D01*
X15474561Y40476442D01*
X15426942Y40524061D01*
X15331704Y40571680D01*
X15141228Y40619300D01*
X14903133Y40619300D01*
X14712657Y40571680D01*
X14617419Y40524061D01*
X14569800Y40476442D01*
X14522180Y40381204D01*
X15522180Y39095490D02*
X15522180Y39666919D01*
X15522180Y39381204D02*
X14522180Y39381204D01*
X14665038Y39476442D01*
X14760276Y39571680D01*
X14807895Y39666919D01*
X14855514Y38238347D02*
X15522180Y38238347D01*
X14855514Y38666919D02*
X15379323Y38666919D01*
X15474561Y38619300D01*
X15522180Y38524061D01*
X15522180Y38381204D01*
X15474561Y38285966D01*
X15426942Y38238347D01*
D12*
X13782657Y40376442D02*
X13801704Y40395490D01*
X13820752Y40452633D01*
X13820752Y40490728D01*
X13801704Y40547871D01*
X13763609Y40585966D01*
X13725514Y40605014D01*
X13649323Y40624061D01*
X13592180Y40624061D01*
X13515990Y40605014D01*
X13477895Y40585966D01*
X13439800Y40547871D01*
X13420752Y40490728D01*
X13420752Y40452633D01*
X13439800Y40395490D01*
X13458847Y40376442D01*
X13820752Y39995490D02*
X13820752Y40224061D01*
X13820752Y40109776D02*
X13420752Y40109776D01*
X13477895Y40147871D01*
X13515990Y40185966D01*
X13535038Y40224061D01*
X13420752Y39862157D02*
X13420752Y39595490D01*
X13820752Y39766919D01*
D11*
X43850514Y38252490D02*
X44517180Y38252490D01*
X43469561Y38490585D02*
X44183847Y38728680D01*
X44183847Y38109633D01*
X44421942Y37728680D02*
X44469561Y37681061D01*
X44517180Y37728680D01*
X44469561Y37776300D01*
X44421942Y37728680D01*
X44517180Y37728680D01*
X43517180Y37347728D02*
X43517180Y36681061D01*
X44517180Y37109633D01*
X43850514Y35871538D02*
X44517180Y35871538D01*
X43850514Y36300109D02*
X44374323Y36300109D01*
X44469561Y36252490D01*
X44517180Y36157252D01*
X44517180Y36014395D01*
X44469561Y35919157D01*
X44421942Y35871538D01*
D14*
X42500514Y37790585D02*
X42538609Y37828680D01*
X42576704Y37942966D01*
X42576704Y38019157D01*
X42538609Y38133442D01*
X42462419Y38209633D01*
X42386228Y38247728D01*
X42233847Y38285823D01*
X42119561Y38285823D01*
X41967180Y38247728D01*
X41890990Y38209633D01*
X41814800Y38133442D01*
X41776704Y38019157D01*
X41776704Y37942966D01*
X41814800Y37828680D01*
X41852895Y37790585D01*
X42576704Y37028680D02*
X42576704Y37485823D01*
X42576704Y37257252D02*
X41776704Y37257252D01*
X41890990Y37333442D01*
X41967180Y37409633D01*
X42005276Y37485823D01*
X41776704Y36342966D02*
X41776704Y36495347D01*
X41814800Y36571538D01*
X41852895Y36609633D01*
X41967180Y36685823D01*
X42119561Y36723919D01*
X42424323Y36723919D01*
X42500514Y36685823D01*
X42538609Y36647728D01*
X42576704Y36571538D01*
X42576704Y36419157D01*
X42538609Y36342966D01*
X42500514Y36304871D01*
X42424323Y36266776D01*
X42233847Y36266776D01*
X42157657Y36304871D01*
X42119561Y36342966D01*
X42081466Y36419157D01*
X42081466Y36571538D01*
X42119561Y36647728D01*
X42157657Y36685823D01*
X42233847Y36723919D01*
D11*
X43850514Y43381490D02*
X44517180Y43381490D01*
X43469561Y43619585D02*
X44183847Y43857680D01*
X44183847Y43238633D01*
X44421942Y42857680D02*
X44469561Y42810061D01*
X44517180Y42857680D01*
X44469561Y42905300D01*
X44421942Y42857680D01*
X44517180Y42857680D01*
X43517180Y42476728D02*
X43517180Y41810061D01*
X44517180Y42238633D01*
X43850514Y41000538D02*
X44517180Y41000538D01*
X43850514Y41429109D02*
X44374323Y41429109D01*
X44469561Y41381490D01*
X44517180Y41286252D01*
X44517180Y41143395D01*
X44469561Y41048157D01*
X44421942Y41000538D01*
D14*
X42500514Y42919585D02*
X42538609Y42957680D01*
X42576704Y43071966D01*
X42576704Y43148157D01*
X42538609Y43262442D01*
X42462419Y43338633D01*
X42386228Y43376728D01*
X42233847Y43414823D01*
X42119561Y43414823D01*
X41967180Y43376728D01*
X41890990Y43338633D01*
X41814800Y43262442D01*
X41776704Y43148157D01*
X41776704Y43071966D01*
X41814800Y42957680D01*
X41852895Y42919585D01*
X42576704Y42157680D02*
X42576704Y42614823D01*
X42576704Y42386252D02*
X41776704Y42386252D01*
X41890990Y42462442D01*
X41967180Y42538633D01*
X42005276Y42614823D01*
X41776704Y41433871D02*
X41776704Y41814823D01*
X42157657Y41852919D01*
X42119561Y41814823D01*
X42081466Y41738633D01*
X42081466Y41548157D01*
X42119561Y41471966D01*
X42157657Y41433871D01*
X42233847Y41395776D01*
X42424323Y41395776D01*
X42500514Y41433871D01*
X42538609Y41471966D01*
X42576704Y41548157D01*
X42576704Y41738633D01*
X42538609Y41814823D01*
X42500514Y41852919D01*
D11*
X46399180Y38539585D02*
X46399180Y38444347D01*
X46446800Y38349109D01*
X46494419Y38301490D01*
X46589657Y38253871D01*
X46780133Y38206252D01*
X47018228Y38206252D01*
X47208704Y38253871D01*
X47303942Y38301490D01*
X47351561Y38349109D01*
X47399180Y38444347D01*
X47399180Y38539585D01*
X47351561Y38634823D01*
X47303942Y38682442D01*
X47208704Y38730061D01*
X47018228Y38777680D01*
X46780133Y38777680D01*
X46589657Y38730061D01*
X46494419Y38682442D01*
X46446800Y38634823D01*
X46399180Y38539585D01*
X47303942Y37777680D02*
X47351561Y37730061D01*
X47399180Y37777680D01*
X47351561Y37825300D01*
X47303942Y37777680D01*
X47399180Y37777680D01*
X47399180Y36777680D02*
X47399180Y37349109D01*
X47399180Y37063395D02*
X46399180Y37063395D01*
X46542038Y37158633D01*
X46637276Y37253871D01*
X46684895Y37349109D01*
X46732514Y35920538D02*
X47399180Y35920538D01*
X46732514Y36349109D02*
X47256323Y36349109D01*
X47351561Y36301490D01*
X47399180Y36206252D01*
X47399180Y36063395D01*
X47351561Y35968157D01*
X47303942Y35920538D01*
D12*
X45659657Y37582442D02*
X45678704Y37601490D01*
X45697752Y37658633D01*
X45697752Y37696728D01*
X45678704Y37753871D01*
X45640609Y37791966D01*
X45602514Y37811014D01*
X45526323Y37830061D01*
X45469180Y37830061D01*
X45392990Y37811014D01*
X45354895Y37791966D01*
X45316800Y37753871D01*
X45297752Y37696728D01*
X45297752Y37658633D01*
X45316800Y37601490D01*
X45335847Y37582442D01*
X45697752Y37201490D02*
X45697752Y37430061D01*
X45697752Y37315776D02*
X45297752Y37315776D01*
X45354895Y37353871D01*
X45392990Y37391966D01*
X45412038Y37430061D01*
X45431085Y36858633D02*
X45697752Y36858633D01*
X45278704Y36953871D02*
X45564419Y37049109D01*
X45564419Y36801490D01*
D11*
X45571180Y38539585D02*
X45571180Y38444347D01*
X45618800Y38349109D01*
X45666419Y38301490D01*
X45761657Y38253871D01*
X45952133Y38206252D01*
X46190228Y38206252D01*
X46380704Y38253871D01*
X46475942Y38301490D01*
X46523561Y38349109D01*
X46571180Y38444347D01*
X46571180Y38539585D01*
X46523561Y38634823D01*
X46475942Y38682442D01*
X46380704Y38730061D01*
X46190228Y38777680D01*
X45952133Y38777680D01*
X45761657Y38730061D01*
X45666419Y38682442D01*
X45618800Y38634823D01*
X45571180Y38539585D01*
X46475942Y37777680D02*
X46523561Y37730061D01*
X46571180Y37777680D01*
X46523561Y37825300D01*
X46475942Y37777680D01*
X46571180Y37777680D01*
X46571180Y36777680D02*
X46571180Y37349109D01*
X46571180Y37063395D02*
X45571180Y37063395D01*
X45714038Y37158633D01*
X45809276Y37253871D01*
X45856895Y37349109D01*
X45904514Y35920538D02*
X46571180Y35920538D01*
X45904514Y36349109D02*
X46428323Y36349109D01*
X46523561Y36301490D01*
X46571180Y36206252D01*
X46571180Y36063395D01*
X46523561Y35968157D01*
X46475942Y35920538D01*
D12*
X47691657Y37582442D02*
X47710704Y37601490D01*
X47729752Y37658633D01*
X47729752Y37696728D01*
X47710704Y37753871D01*
X47672609Y37791966D01*
X47634514Y37811014D01*
X47558323Y37830061D01*
X47501180Y37830061D01*
X47424990Y37811014D01*
X47386895Y37791966D01*
X47348800Y37753871D01*
X47329752Y37696728D01*
X47329752Y37658633D01*
X47348800Y37601490D01*
X47367847Y37582442D01*
X47729752Y37201490D02*
X47729752Y37430061D01*
X47729752Y37315776D02*
X47329752Y37315776D01*
X47386895Y37353871D01*
X47424990Y37391966D01*
X47444038Y37430061D01*
X47329752Y37068157D02*
X47329752Y36820538D01*
X47482133Y36953871D01*
X47482133Y36896728D01*
X47501180Y36858633D01*
X47520228Y36839585D01*
X47558323Y36820538D01*
X47653561Y36820538D01*
X47691657Y36839585D01*
X47710704Y36858633D01*
X47729752Y36896728D01*
X47729752Y37011014D01*
X47710704Y37049109D01*
X47691657Y37068157D01*
D11*
X28586038Y17154919D02*
X29157466Y17154919D01*
X28871752Y17154919D02*
X28871752Y18154919D01*
X28966990Y18012061D01*
X29062228Y17916823D01*
X29157466Y17869204D01*
X28157466Y17821585D02*
X28157466Y17154919D01*
X28157466Y17726347D02*
X28109847Y17773966D01*
X28014609Y17821585D01*
X27871752Y17821585D01*
X27776514Y17773966D01*
X27728895Y17678728D01*
X27728895Y17154919D01*
X26919371Y17678728D02*
X27252704Y17678728D01*
X27252704Y17154919D02*
X27252704Y18154919D01*
X26776514Y18154919D01*
D12*
X28247942Y18894442D02*
X28266990Y18875395D01*
X28324133Y18856347D01*
X28362228Y18856347D01*
X28419371Y18875395D01*
X28457466Y18913490D01*
X28476514Y18951585D01*
X28495561Y19027776D01*
X28495561Y19084919D01*
X28476514Y19161109D01*
X28457466Y19199204D01*
X28419371Y19237300D01*
X28362228Y19256347D01*
X28324133Y19256347D01*
X28266990Y19237300D01*
X28247942Y19218252D01*
X27866990Y18856347D02*
X28095561Y18856347D01*
X27981276Y18856347D02*
X27981276Y19256347D01*
X28019371Y19199204D01*
X28057466Y19161109D01*
X28095561Y19142061D01*
X27486038Y18856347D02*
X27714609Y18856347D01*
X27600323Y18856347D02*
X27600323Y19256347D01*
X27638419Y19199204D01*
X27676514Y19161109D01*
X27714609Y19142061D01*
D11*
X30109847Y19710680D02*
X30062228Y19758300D01*
X29966990Y19805919D01*
X29728895Y19805919D01*
X29633657Y19758300D01*
X29586038Y19710680D01*
X29538419Y19615442D01*
X29538419Y19520204D01*
X29586038Y19377347D01*
X30157466Y18805919D01*
X29538419Y18805919D01*
X28919371Y19805919D02*
X28824133Y19805919D01*
X28728895Y19758300D01*
X28681276Y19710680D01*
X28633657Y19615442D01*
X28586038Y19424966D01*
X28586038Y19186871D01*
X28633657Y18996395D01*
X28681276Y18901157D01*
X28728895Y18853538D01*
X28824133Y18805919D01*
X28919371Y18805919D01*
X29014609Y18853538D01*
X29062228Y18901157D01*
X29109847Y18996395D01*
X29157466Y19186871D01*
X29157466Y19424966D01*
X29109847Y19615442D01*
X29062228Y19710680D01*
X29014609Y19758300D01*
X28919371Y19805919D01*
X27966990Y19805919D02*
X27871752Y19805919D01*
X27776514Y19758300D01*
X27728895Y19710680D01*
X27681276Y19615442D01*
X27633657Y19424966D01*
X27633657Y19186871D01*
X27681276Y18996395D01*
X27728895Y18901157D01*
X27776514Y18853538D01*
X27871752Y18805919D01*
X27966990Y18805919D01*
X28062228Y18853538D01*
X28109847Y18901157D01*
X28157466Y18996395D01*
X28205085Y19186871D01*
X28205085Y19424966D01*
X28157466Y19615442D01*
X28109847Y19710680D01*
X28062228Y19758300D01*
X27966990Y19805919D01*
X27205085Y19472585D02*
X27205085Y18472585D01*
X27205085Y19424966D02*
X27109847Y19472585D01*
X26919371Y19472585D01*
X26824133Y19424966D01*
X26776514Y19377347D01*
X26728895Y19282109D01*
X26728895Y18996395D01*
X26776514Y18901157D01*
X26824133Y18853538D01*
X26919371Y18805919D01*
X27109847Y18805919D01*
X27205085Y18853538D01*
X25966990Y19329728D02*
X26300323Y19329728D01*
X26300323Y18805919D02*
X26300323Y19805919D01*
X25824133Y19805919D01*
D12*
X28247942Y20545442D02*
X28266990Y20526395D01*
X28324133Y20507347D01*
X28362228Y20507347D01*
X28419371Y20526395D01*
X28457466Y20564490D01*
X28476514Y20602585D01*
X28495561Y20678776D01*
X28495561Y20735919D01*
X28476514Y20812109D01*
X28457466Y20850204D01*
X28419371Y20888300D01*
X28362228Y20907347D01*
X28324133Y20907347D01*
X28266990Y20888300D01*
X28247942Y20869252D01*
X27866990Y20507347D02*
X28095561Y20507347D01*
X27981276Y20507347D02*
X27981276Y20907347D01*
X28019371Y20850204D01*
X28057466Y20812109D01*
X28095561Y20793061D01*
X27619371Y20907347D02*
X27581276Y20907347D01*
X27543180Y20888300D01*
X27524133Y20869252D01*
X27505085Y20831157D01*
X27486038Y20754966D01*
X27486038Y20659728D01*
X27505085Y20583538D01*
X27524133Y20545442D01*
X27543180Y20526395D01*
X27581276Y20507347D01*
X27619371Y20507347D01*
X27657466Y20526395D01*
X27676514Y20545442D01*
X27695561Y20583538D01*
X27714609Y20659728D01*
X27714609Y20754966D01*
X27695561Y20831157D01*
X27676514Y20869252D01*
X27657466Y20888300D01*
X27619371Y20907347D01*
D11*
X10712180Y35745585D02*
X10712180Y35650347D01*
X10759800Y35555109D01*
X10807419Y35507490D01*
X10902657Y35459871D01*
X11093133Y35412252D01*
X11331228Y35412252D01*
X11521704Y35459871D01*
X11616942Y35507490D01*
X11664561Y35555109D01*
X11712180Y35650347D01*
X11712180Y35745585D01*
X11664561Y35840823D01*
X11616942Y35888442D01*
X11521704Y35936061D01*
X11331228Y35983680D01*
X11093133Y35983680D01*
X10902657Y35936061D01*
X10807419Y35888442D01*
X10759800Y35840823D01*
X10712180Y35745585D01*
X11616942Y34983680D02*
X11664561Y34936061D01*
X11712180Y34983680D01*
X11664561Y35031300D01*
X11616942Y34983680D01*
X11712180Y34983680D01*
X11712180Y33983680D02*
X11712180Y34555109D01*
X11712180Y34269395D02*
X10712180Y34269395D01*
X10855038Y34364633D01*
X10950276Y34459871D01*
X10997895Y34555109D01*
X11045514Y33126538D02*
X11712180Y33126538D01*
X11045514Y33555109D02*
X11569323Y33555109D01*
X11664561Y33507490D01*
X11712180Y33412252D01*
X11712180Y33269395D01*
X11664561Y33174157D01*
X11616942Y33126538D01*
D12*
X9972657Y34597966D02*
X9991704Y34617014D01*
X10010752Y34674157D01*
X10010752Y34712252D01*
X9991704Y34769395D01*
X9953609Y34807490D01*
X9915514Y34826538D01*
X9839323Y34845585D01*
X9782180Y34845585D01*
X9705990Y34826538D01*
X9667895Y34807490D01*
X9629800Y34769395D01*
X9610752Y34712252D01*
X9610752Y34674157D01*
X9629800Y34617014D01*
X9648847Y34597966D01*
X9610752Y34464633D02*
X9610752Y34197966D01*
X10010752Y34369395D01*
D11*
X49574180Y6281585D02*
X49574180Y6186347D01*
X49621800Y6091109D01*
X49669419Y6043490D01*
X49764657Y5995871D01*
X49955133Y5948252D01*
X50193228Y5948252D01*
X50383704Y5995871D01*
X50478942Y6043490D01*
X50526561Y6091109D01*
X50574180Y6186347D01*
X50574180Y6281585D01*
X50526561Y6376823D01*
X50478942Y6424442D01*
X50383704Y6472061D01*
X50193228Y6519680D01*
X49955133Y6519680D01*
X49764657Y6472061D01*
X49669419Y6424442D01*
X49621800Y6376823D01*
X49574180Y6281585D01*
X50478942Y5519680D02*
X50526561Y5472061D01*
X50574180Y5519680D01*
X50526561Y5567300D01*
X50478942Y5519680D01*
X50574180Y5519680D01*
X50574180Y4519680D02*
X50574180Y5091109D01*
X50574180Y4805395D02*
X49574180Y4805395D01*
X49717038Y4900633D01*
X49812276Y4995871D01*
X49859895Y5091109D01*
X49907514Y3662538D02*
X50574180Y3662538D01*
X49907514Y4091109D02*
X50431323Y4091109D01*
X50526561Y4043490D01*
X50574180Y3948252D01*
X50574180Y3805395D01*
X50526561Y3710157D01*
X50478942Y3662538D01*
D12*
X48834657Y5133966D02*
X48853704Y5153014D01*
X48872752Y5210157D01*
X48872752Y5248252D01*
X48853704Y5305395D01*
X48815609Y5343490D01*
X48777514Y5362538D01*
X48701323Y5381585D01*
X48644180Y5381585D01*
X48567990Y5362538D01*
X48529895Y5343490D01*
X48491800Y5305395D01*
X48472752Y5248252D01*
X48472752Y5210157D01*
X48491800Y5153014D01*
X48510847Y5133966D01*
X48606085Y4791109D02*
X48872752Y4791109D01*
X48453704Y4886347D02*
X48739419Y4981585D01*
X48739419Y4733966D01*
D11*
X19268680Y33364466D02*
X19268680Y33935895D01*
X19268680Y33650180D02*
X18268680Y33650180D01*
X18411538Y33745419D01*
X18506776Y33840657D01*
X18554395Y33935895D01*
X18602014Y32507323D02*
X19268680Y32507323D01*
X18602014Y32935895D02*
X19125823Y32935895D01*
X19221061Y32888276D01*
X19268680Y32793038D01*
X19268680Y32650180D01*
X19221061Y32554942D01*
X19173442Y32507323D01*
D12*
X17529157Y33264466D02*
X17548204Y33283514D01*
X17567252Y33340657D01*
X17567252Y33378752D01*
X17548204Y33435895D01*
X17510109Y33473990D01*
X17472014Y33493038D01*
X17395823Y33512085D01*
X17338680Y33512085D01*
X17262490Y33493038D01*
X17224395Y33473990D01*
X17186300Y33435895D01*
X17167252Y33378752D01*
X17167252Y33340657D01*
X17186300Y33283514D01*
X17205347Y33264466D01*
X17205347Y33112085D02*
X17186300Y33093038D01*
X17167252Y33054942D01*
X17167252Y32959704D01*
X17186300Y32921609D01*
X17205347Y32902561D01*
X17243442Y32883514D01*
X17281538Y32883514D01*
X17338680Y32902561D01*
X17567252Y33131133D01*
X17567252Y32883514D01*
M02*
